<svg width="38" height="38" preserveAspectRatio="xMidYMid" version="1.0" viewBox="0 0 28.5 28.5" xmlns="http://www.w3.org/2000/svg" zoomAndPan="magnify">
 <defs>
  <clipPath id="c77fb9f9cc">
   <path d="m17 3.94h58v63.8h-58z"/>
  </clipPath>
 </defs>
 <g transform="matrix(-.446 0 0 .446 33.5 -1.72)" clip-path="url(#c77fb9f9cc)" fill="none" stroke="#545454" stroke-width="2.18">
  <path d="m64.6 66.8-20.2-3e-6c-2.08 0-5.02-1.08-6.79-2.88-1.74-1.76-2.34-3.34-2.34-5.38v-11.5c0-0.895-0.131-1.59 0.764-1.59 0.891 0 0.758 0.697 0.758 1.59v11.5c0 1.17 0.34 2.72 1.96 4.33 1.6 1.59 4.49 2.36 5.64 2.36l20.2 3e-6c1.22 0 4.1-0.926 5.77-2.64 1.5-1.55 1.86-2.95 1.86-4.06l-0.0066-45.5c-1.74e-4 -1.2-0.657-2.82-2.33-4.46-1.58-1.56-4.15-2.29-5.28-2.29l-20.2-4e-7c-1.17 0-3.8 0.32-5.42 1.95-1.6 1.61-2.2 3.64-2.2 4.79v11.5c0 0.895 0.111 1.54-0.78 1.54-0.895 0-0.742-0.65-0.742-1.54v-11.5c0-1.98 0.66-3.96 2.32-5.7 1.8-1.88 4.68-2.56 6.81-2.56h20.2c2.06 0 4.72 0.989 6.49 2.77 1.76 1.77 2.63 3.43 2.63 5.48l0.0066 45.5c2.74e-4 1.89-0.527 3.39-2.06 5.08-1.82 2.01-4.84 3.17-7.06 3.17" fill="none" stroke="#545454" stroke-width="2.18"/>
 </g>
 <g transform="translate(.305 -.0555)" fill="none" stroke="currentColor" stroke-linecap="round" stroke-width="1.5">
  <g fill="none" stroke="#545454">
   <path d="m9.27 14.3h18.1"/>
   <path d="m22.2 19.7 5.22-5.39"/>
   <path d="m22 8.92 5.39 5.22"/>
  </g>
 </g>
</svg>
