<?xml version="1.0" encoding="UTF-8" standalone="no"?>
<svg
   width="12"
   height="16"
   fill="#6b6b6b"
   class="bi bi-file-earmark-text"
   viewBox="0 0 12 16"
   version="1.1"
   id="svg16"
   sodipodi:docname="file-earmark-text.svg"
   inkscape:version="1.2.1 (9c6d41e410, 2022-07-14)"
   xmlns:inkscape="http://www.inkscape.org/namespaces/inkscape"
   xmlns:sodipodi="http://sodipodi.sourceforge.net/DTD/sodipodi-0.dtd"
   xmlns="http://www.w3.org/2000/svg"
   xmlns:svg="http://www.w3.org/2000/svg">
  <defs
     id="defs20" />
  <sodipodi:namedview
     id="namedview18"
     pagecolor="#ffffff"
     bordercolor="#111111"
     borderopacity="1"
     inkscape:showpageshadow="0"
     inkscape:pageopacity="0"
     inkscape:pagecheckerboard="1"
     inkscape:deskcolor="#d1d1d1"
     showgrid="false"
     inkscape:zoom="64.1875"
     inkscape:cx="6.0136319"
     inkscape:cy="8.0155794"
     inkscape:window-width="1751"
     inkscape:window-height="1243"
     inkscape:window-x="582"
     inkscape:window-y="73"
     inkscape:window-maximized="0"
     inkscape:current-layer="svg16" />
  <path
     d="m 3.5,7 a 0.5,0.5 0 0 0 0,1 h 5 a 0.5,0.5 0 0 0 0,-1 z M 3,9.5 A 0.5,0.5 0 0 1 3.5,9 h 5 a 0.5,0.5 0 0 1 0,1 h -5 A 0.5,0.5 0 0 1 3,9.5 Z m 0,2 A 0.5,0.5 0 0 1 3.5,11 h 2 a 0.5,0.5 0 0 1 0,1 h -2 A 0.5,0.5 0 0 1 3,11.5 Z"
     id="path12" />
  <path
     d="M 7.5,0 H 2 A 2,2 0 0 0 0,2 v 12 a 2,2 0 0 0 2,2 h 8 a 2,2 0 0 0 2,-2 V 4.5 Z m 0,1 V 3 A 1.5,1.5 0 0 0 9,4.5 h 2 V 14 a 1,1 0 0 1 -1,1 H 2 A 1,1 0 0 1 1,14 V 2 A 1,1 0 0 1 2,1 Z"
     id="path14" />
</svg>
