<?xml version="1.0" encoding="UTF-8" standalone="no"?>
<svg
   width="105"
   zoomAndPan="magnify"
   viewBox="0 0 78.75 60.374995"
   height="80.5"
   preserveAspectRatio="xMidYMid"
   version="1.0"
   id="svg384"
   sodipodi:docname="Logo.svg"
   inkscape:version="1.2.1 (9c6d41e410, 2022-07-14)"
   xmlns:inkscape="http://www.inkscape.org/namespaces/inkscape"
   xmlns:sodipodi="http://sodipodi.sourceforge.net/DTD/sodipodi-0.dtd"
   xmlns="http://www.w3.org/2000/svg"
   xmlns:svg="http://www.w3.org/2000/svg">
  <sodipodi:namedview
     id="namedview386"
     pagecolor="#ffffff"
     bordercolor="#111111"
     borderopacity="1"
     inkscape:showpageshadow="0"
     inkscape:pageopacity="0"
     inkscape:pagecheckerboard="1"
     inkscape:deskcolor="#d1d1d1"
     showgrid="false"
     inkscape:zoom="9.4092345"
     inkscape:cx="26.197668"
     inkscape:cy="26.835339"
     inkscape:window-width="2560"
     inkscape:window-height="1361"
     inkscape:window-x="-9"
     inkscape:window-y="-9"
     inkscape:window-maximized="1"
     inkscape:current-layer="svg384" />
  <defs
     id="defs224">
    <g
       id="g195" />
    <clipPath
       id="cacebc5a65">
      <path
         d="m 46.933594,36.144531 h 5.921875 v 9.621094 h -5.921875 z m 0,0"
         clip-rule="nonzero"
         id="path197" />
    </clipPath>
    <clipPath
       id="0780e8729a">
      <path
         d="M 0.492188,28 H 4 v 5 H 0.492188 Z m 0,0"
         clip-rule="nonzero"
         id="path200" />
    </clipPath>
    <clipPath
       id="f0c5f3a534">
      <path
         d="m 46.933594,0 h 5.921875 v 25.164062 h -5.921875 z m 0,0"
         clip-rule="nonzero"
         id="path203" />
    </clipPath>
    <clipPath
       id="df5df524d2">
      <path
         d="M 47.117188,0 H 74.5 V 5.183594 H 47.117188 Z m 0,0"
         clip-rule="nonzero"
         id="path206" />
    </clipPath>
    <clipPath
       id="eb63f3c8a9">
      <path
         d="M 46.828125,20.144531 H 71.25 v 5.179688 H 46.828125 Z m 0,0"
         clip-rule="nonzero"
         id="path209" />
    </clipPath>
    <clipPath
       id="85787f52bd">
      <path
         d="M 0.75,2.066406 H 8.148438 V 25.011719 H 0.75 Z m 0,0"
         clip-rule="nonzero"
         id="path212" />
    </clipPath>
    <clipPath
       id="53f3fcc3a2">
      <path
         d="m 35.25,2.066406 h 7.402344 V 25.011719 H 35.25 Z m 0,0"
         clip-rule="nonzero"
         id="path215" />
    </clipPath>
    <clipPath
       id="a538aa7cec">
      <path
         d="m 35.25,36.261719 h 7.402344 V 55.503906 H 35.25 Z m 0,0"
         clip-rule="nonzero"
         id="path218" />
    </clipPath>
    <clipPath
       id="a4c169e7fb">
      <path
         d="M 0.75,36.261719 H 8.148438 V 55.503906 H 0.75 Z m 0,0"
         clip-rule="nonzero"
         id="path221" />
    </clipPath>
  </defs>
  <g
     clip-path="url(#0780e8729a)"
     id="g238"
     transform="translate(-0.492188,-0.55669598)">
    <g
       fill="#000000"
       fill-opacity="1"
       id="g236">
      <g
         transform="translate(-0.041312,32.744195)"
         id="g234">
        <g
           id="g232">
          <path
             d="M 2.875,0 V -1.828125 H 1.0625 V 0 H 0.53125 V -3.984375 H 1.0625 v 1.6875 H 2.875 v -1.6875 H 3.40625 V 0 Z m 0,0"
             id="path230" />
        </g>
      </g>
    </g>
  </g>
  <g
     fill="#000000"
     fill-opacity="1"
     id="g246"
     transform="translate(-0.492188,-0.55669598)">
    <g
       transform="translate(5.213736,32.744195)"
       id="g244">
      <g
         id="g242">
        <path
           d="M 0.53125,0 V -3.984375 H 2.953125 V -3.5 H 1.0625 v 1.15625 h 1.625 v 0.484375 h -1.625 v 1.375 H 2.953125 V 0 Z m 0,0"
           id="path240" />
      </g>
    </g>
  </g>
  <g
     fill="#000000"
     fill-opacity="1"
     id="g254"
     transform="translate(-0.492188,-0.55669598)">
    <g
       transform="translate(9.861148,32.744195)"
       id="g252">
      <g
         id="g250">
        <path
           d="M 0.140625,0 1.5,-3.984375 H 2.203125 L 3.5625,0 H 3 L 2.65625,-1.03125 h -1.625 L 0.6875,0 Z M 1.1875,-1.515625 h 1.296875 l -0.640625,-1.9375 z m 0,0"
           id="path248" />
      </g>
    </g>
  </g>
  <g
     fill="#000000"
     fill-opacity="1"
     id="g262"
     transform="translate(-0.492188,-0.55669598)">
    <g
       transform="translate(14.897332,32.744195)"
       id="g260">
      <g
         id="g258">
        <path
           d="M 0.53125,0 V -3.984375 H 1.0625 v 3.5 H 2.859375 V 0 Z m 0,0"
           id="path256" />
      </g>
    </g>
  </g>
  <g
     fill="#000000"
     fill-opacity="1"
     id="g270"
     transform="translate(-0.492188,-0.55669598)">
    <g
       transform="translate(19.213568,32.744195)"
       id="g268">
      <g
         id="g266">
        <path
           d="M 1.96875,-3.5 V 0 H 1.4375 V -3.5 H 0.125 V -3.984375 H 3.28125 V -3.5 Z m 0,0"
           id="path264" />
      </g>
    </g>
  </g>
  <g
     fill="#000000"
     fill-opacity="1"
     id="g278"
     transform="translate(-0.492188,-0.55669598)">
    <g
       transform="translate(23.950254,32.744195)"
       id="g276">
      <g
         id="g274">
        <path
           d="M 2.875,0 V -1.828125 H 1.0625 V 0 H 0.53125 V -3.984375 H 1.0625 v 1.6875 H 2.875 v -1.6875 H 3.40625 V 0 Z m 0,0"
           id="path272" />
      </g>
    </g>
  </g>
  <g
     fill="#000000"
     fill-opacity="1"
     id="g284"
     transform="translate(0,-1.8749999)">
    <g
       transform="translate(29.205303,32.744195)"
       id="g282">
      <g
         id="g280" />
    </g>
  </g>
  <g
     fill="#000000"
     fill-opacity="1"
     id="g292"
     transform="translate(-0.492188,-0.55669598)">
    <g
       transform="translate(32.124838,32.744195)"
       id="g290">
      <g
         id="g288">
        <path
           d="M 3.21875,0 2.953125,-0.3125 C 2.753906,-0.164062 2.5625,-0.0625 2.375,0 2.195312,0.0507812 2.003906,0.078125 1.796875,0.078125 c -0.4375,0 -0.78125,-0.0976562 -1.03125,-0.296875 -0.25,-0.207031 -0.375,-0.476562 -0.375,-0.8125 0,-0.175781 0.023437,-0.328125 0.078125,-0.453125 0.0625,-0.125 0.148438,-0.238281 0.265625,-0.34375 C 0.847656,-1.941406 1.039062,-2.082031 1.3125,-2.25 1.1875,-2.394531 1.078125,-2.539062 0.984375,-2.6875 0.898438,-2.84375 0.859375,-3 0.859375,-3.15625 c 0,-0.601562 0.351563,-0.90625 1.0625,-0.90625 0.3125,0 0.550781,0.074219 0.71875,0.21875 0.175781,0.148438 0.265625,0.328125 0.265625,0.546875 0,0.21875 -0.074219,0.417969 -0.21875,0.59375 -0.136719,0.179687 -0.351562,0.359375 -0.640625,0.546875 l 0.9375,1.125 C 3.160156,-1.238281 3.289062,-1.5 3.375,-1.8125 l 0.4375,0.109375 c -0.117188,0.449219 -0.289062,0.792969 -0.515625,1.03125 L 3.859375,0 Z m -0.8125,-3.28125 c 0,-0.113281 -0.042969,-0.207031 -0.125,-0.28125 -0.085938,-0.082031 -0.210938,-0.125 -0.375,-0.125 -0.179688,0 -0.3125,0.046875 -0.40625,0.140625 -0.09375,0.085937 -0.140625,0.203125 -0.140625,0.359375 0,0.105469 0.035156,0.214844 0.109375,0.328125 C 1.550781,-2.742188 1.644531,-2.625 1.75,-2.5 c 0.195312,-0.113281 0.351562,-0.238281 0.46875,-0.375 0.125,-0.132812 0.1875,-0.269531 0.1875,-0.40625 z m -0.796875,1.375 c -0.199219,0.136719 -0.34375,0.246094 -0.4375,0.328125 -0.085937,0.085937 -0.148437,0.167969 -0.1875,0.25 C 0.953125,-1.253906 0.9375,-1.15625 0.9375,-1.03125 c 0,0.210938 0.078125,0.375 0.234375,0.5 0.164063,0.125 0.378906,0.1875 0.640625,0.1875 0.21875,0 0.394531,-0.035156 0.53125,-0.109375 0.144531,-0.070313 0.253906,-0.140625 0.328125,-0.203125 z m 0,0"
           id="path286" />
      </g>
    </g>
  </g>
  <g
     fill="#000000"
     fill-opacity="1"
     id="g298"
     transform="translate(0,-1.8749999)">
    <g
       transform="translate(37.555553,32.744195)"
       id="g296">
      <g
         id="g294" />
    </g>
  </g>
  <g
     fill="#000000"
     fill-opacity="1"
     id="g306"
     transform="translate(-0.492188,-0.55669598)">
    <g
       transform="translate(40.475087,32.744195)"
       id="g304">
      <g
         id="g302">
        <path
           d="m 1.0625,-3.5 v 1.15625 h 1.59375 v 0.484375 H 1.0625 V 0 H 0.53125 V -3.984375 H 2.9375 V -3.5 Z m 0,0"
           id="path300" />
      </g>
    </g>
  </g>
  <g
     fill="#000000"
     fill-opacity="1"
     id="g314"
     transform="translate(-0.492188,-0.55669598)">
    <g
       transform="translate(44.992906,32.744195)"
       id="g312">
      <g
         id="g310">
        <path
           d="m 1.921875,0 h -1.625 V -0.453125 H 0.84375 V -3.53125 H 0.296875 v -0.453125 h 1.625 V -3.53125 H 1.375 v 3.078125 h 0.546875 z m 0,0"
           id="path308" />
      </g>
    </g>
  </g>
  <g
     fill="#000000"
     fill-opacity="1"
     id="g322"
     transform="translate(-0.492188,-0.55669598)">
    <g
       transform="translate(48.537355,32.744195)"
       id="g320">
      <g
         id="g318">
        <path
           d="M 1.96875,-3.5 V 0 H 1.4375 V -3.5 H 0.125 V -3.984375 H 3.28125 V -3.5 Z m 0,0"
           id="path316" />
      </g>
    </g>
  </g>
  <g
     fill="#000000"
     fill-opacity="1"
     id="g330"
     transform="translate(-0.492188,-0.55669598)">
    <g
       transform="translate(53.274039,32.744195)"
       id="g328">
      <g
         id="g326">
        <path
           d="M 2.828125,0 1.03125,-3.421875 V 0 h -0.5 v -3.984375 h 0.765625 l 1.65625,3.125 v -3.125 H 3.46875 V 0 Z m 0,0"
           id="path324" />
      </g>
    </g>
  </g>
  <g
     fill="#000000"
     fill-opacity="1"
     id="g338"
     transform="translate(-0.492188,-0.55669598)">
    <g
       transform="translate(58.592442,32.744195)"
       id="g336">
      <g
         id="g334">
        <path
           d="M 0.53125,0 V -3.984375 H 2.953125 V -3.5 H 1.0625 v 1.15625 h 1.625 v 0.484375 h -1.625 v 1.375 H 2.953125 V 0 Z m 0,0"
           id="path332" />
      </g>
    </g>
  </g>
  <g
     fill="#000000"
     fill-opacity="1"
     id="g346"
     transform="translate(-0.492188,-0.55669598)">
    <g
       transform="translate(63.239856,32.744195)"
       id="g344">
      <g
         id="g342">
        <path
           d="m 3.203125,-1.09375 c 0,0.375 -0.125,0.667969 -0.375,0.875 -0.242187,0.1992188 -0.59375,0.296875 -1.0625,0.296875 -0.367187,0 -0.667969,-0.0625 -0.90625,-0.1875 -0.242187,-0.125 -0.433594,-0.320313 -0.578125,-0.59375 l 0.421875,-0.28125 c 0.226563,0.398437 0.578125,0.59375 1.046875,0.59375 0.28125,0 0.5,-0.054687 0.65625,-0.171875 0.164062,-0.113281 0.25,-0.273438 0.25,-0.484375 0,-0.113281 -0.027344,-0.210937 -0.078125,-0.296875 C 2.523438,-1.425781 2.457031,-1.492188 2.375,-1.546875 2.289062,-1.597656 2.191406,-1.640625 2.078125,-1.671875 1.972656,-1.710938 1.863281,-1.75 1.75,-1.78125 1.550781,-1.820312 1.363281,-1.867188 1.1875,-1.921875 1.019531,-1.972656 0.875,-2.039062 0.75,-2.125 0.632812,-2.207031 0.539062,-2.3125 0.46875,-2.4375 0.394531,-2.5625 0.359375,-2.722656 0.359375,-2.921875 c 0,-0.351563 0.113281,-0.628906 0.34375,-0.828125 0.226563,-0.207031 0.566406,-0.3125 1.015625,-0.3125 0.363281,0 0.648438,0.070312 0.859375,0.203125 0.21875,0.125 0.390625,0.296875 0.515625,0.515625 L 2.671875,-3.046875 C 2.566406,-3.222656 2.4375,-3.359375 2.28125,-3.453125 2.132812,-3.546875 1.945312,-3.59375 1.71875,-3.59375 c -0.261719,0 -0.464844,0.058594 -0.609375,0.171875 -0.136719,0.117187 -0.203125,0.265625 -0.203125,0.453125 0,0.105469 0.019531,0.195312 0.0625,0.265625 0.039062,0.0625 0.097656,0.121094 0.171875,0.171875 0.082031,0.042969 0.179687,0.085938 0.296875,0.125 0.125,0.03125 0.265625,0.070312 0.421875,0.109375 0.175781,0.042969 0.347656,0.089844 0.515625,0.140625 0.164062,0.054688 0.304688,0.125 0.421875,0.21875 0.125,0.085938 0.222656,0.195312 0.296875,0.328125 0.070312,0.136719 0.109375,0.308594 0.109375,0.515625 z m 0,0"
           id="path340" />
      </g>
    </g>
  </g>
  <g
     fill="#000000"
     fill-opacity="1"
     id="g354"
     transform="translate(-0.492188,-0.55669598)">
    <g
       transform="translate(68.100371,32.744195)"
       id="g352">
      <g
         id="g350">
        <path
           d="m 3.203125,-1.09375 c 0,0.375 -0.125,0.667969 -0.375,0.875 -0.242187,0.1992188 -0.59375,0.296875 -1.0625,0.296875 -0.367187,0 -0.667969,-0.0625 -0.90625,-0.1875 -0.242187,-0.125 -0.433594,-0.320313 -0.578125,-0.59375 l 0.421875,-0.28125 c 0.226563,0.398437 0.578125,0.59375 1.046875,0.59375 0.28125,0 0.5,-0.054687 0.65625,-0.171875 0.164062,-0.113281 0.25,-0.273438 0.25,-0.484375 0,-0.113281 -0.027344,-0.210937 -0.078125,-0.296875 C 2.523438,-1.425781 2.457031,-1.492188 2.375,-1.546875 2.289062,-1.597656 2.191406,-1.640625 2.078125,-1.671875 1.972656,-1.710938 1.863281,-1.75 1.75,-1.78125 1.550781,-1.820312 1.363281,-1.867188 1.1875,-1.921875 1.019531,-1.972656 0.875,-2.039062 0.75,-2.125 0.632812,-2.207031 0.539062,-2.3125 0.46875,-2.4375 0.394531,-2.5625 0.359375,-2.722656 0.359375,-2.921875 c 0,-0.351563 0.113281,-0.628906 0.34375,-0.828125 0.226563,-0.207031 0.566406,-0.3125 1.015625,-0.3125 0.363281,0 0.648438,0.070312 0.859375,0.203125 0.21875,0.125 0.390625,0.296875 0.515625,0.515625 L 2.671875,-3.046875 C 2.566406,-3.222656 2.4375,-3.359375 2.28125,-3.453125 2.132812,-3.546875 1.945312,-3.59375 1.71875,-3.59375 c -0.261719,0 -0.464844,0.058594 -0.609375,0.171875 -0.136719,0.117187 -0.203125,0.265625 -0.203125,0.453125 0,0.105469 0.019531,0.195312 0.0625,0.265625 0.039062,0.0625 0.097656,0.121094 0.171875,0.171875 0.082031,0.042969 0.179687,0.085938 0.296875,0.125 0.125,0.03125 0.265625,0.070312 0.421875,0.109375 0.175781,0.042969 0.347656,0.089844 0.515625,0.140625 0.164062,0.054688 0.304688,0.125 0.421875,0.21875 0.125,0.085938 0.222656,0.195312 0.296875,0.328125 0.070312,0.136719 0.109375,0.308594 0.109375,0.515625 z m 0,0"
           id="path348" />
      </g>
    </g>
  </g>
  <g
     inkscape:groupmode="layer"
     id="layer1"
     inkscape:label="Layer 1"
     transform="translate(0,-1.8749999)">
    <path
       style="opacity:1;fill:#000000;fill-opacity:1;fill-rule:nonzero;stroke:none;stroke-width:1.875;stroke-linecap:round;stroke-linejoin:miter;stroke-dasharray:none;stroke-opacity:1"
       d="M 2.9499875e-4,37.499999 H 7.500294 v 18.749999 l -7.49999900125,6 z"
       id="path7791"
       sodipodi:nodetypes="ccccc" />
    <path
       style="fill:#000000;fill-opacity:1;fill-rule:nonzero;stroke:none;stroke-width:1.875;stroke-linecap:round;stroke-linejoin:miter;stroke-dasharray:none;stroke-opacity:1"
       d="M 42.749998,26.249998 H 35.249999 V 7.8749996 l 7.499999,-5.9999997 z"
       id="path7791-0"
       sodipodi:nodetypes="ccccc" />
    <path
       style="fill:#000000;fill-opacity:1;fill-rule:nonzero;stroke:none;stroke-width:1.875;stroke-linecap:round;stroke-linejoin:miter;stroke-dasharray:none;stroke-opacity:1"
       d="m 35.249999,37.499999 h 7.5 v 18.749999 h -7.5 z"
       id="path7791-7-5"
       sodipodi:nodetypes="ccccc" />
    <path
       style="fill:#000000;fill-opacity:1;fill-rule:nonzero;stroke:none;stroke-width:1.875;stroke-linecap:round;stroke-linejoin:miter;stroke-dasharray:none;stroke-opacity:1"
       d="M 0,7.8749996 H 7.5 V 26.249998 H 0 Z"
       id="path7791-7-5-94"
       sodipodi:nodetypes="ccccc" />
    <path
       style="fill:#6184d0;fill-opacity:1;fill-rule:nonzero;stroke:none;stroke-width:1.875;stroke-linecap:round;stroke-linejoin:miter;stroke-dasharray:none;stroke-opacity:1"
       d="m 46.499998,37.499999 h 7.5 v 12.749999 l -7.5,6 z"
       id="path7791-7-5-9"
       sodipodi:nodetypes="ccccc" />
  </g>
  <path
     style="opacity:1;fill:#6184d0;fill-opacity:1;fill-rule:nonzero;stroke:none;stroke-width:1.875;stroke-linecap:round;stroke-linejoin:miter;stroke-dasharray:none;stroke-opacity:1"
     d="M 71.249997,24.374999 H 46.499998 V 0 h 32.249999 l -7.5,5.9999997 H 53.999998 V 20.249999 h 17.249999 z"
     id="path8000"
     sodipodi:nodetypes="ccccccccc" />
</svg>
