<?xml version="1.0" encoding="UTF-8" standalone="no"?>
<svg
   width="43.428574"
   zoomAndPan="magnify"
   viewBox="0 0 32.57143 28.499999"
   height="38"
   preserveAspectRatio="xMidYMid"
   version="1.0"
   id="svg88"
   sodipodi:docname="note_ico.svg"
   inkscape:version="1.2.1 (9c6d41e410, 2022-07-14)"
   xmlns:inkscape="http://www.inkscape.org/namespaces/inkscape"
   xmlns:sodipodi="http://sodipodi.sourceforge.net/DTD/sodipodi-0.dtd"
   xmlns="http://www.w3.org/2000/svg"
   xmlns:svg="http://www.w3.org/2000/svg">
  <sodipodi:namedview
     id="namedview90"
     pagecolor="#ffffff"
     bordercolor="#111111"
     borderopacity="1"
     inkscape:showpageshadow="0"
     inkscape:pageopacity="0"
     inkscape:pagecheckerboard="1"
     inkscape:deskcolor="#d1d1d1"
     showgrid="true"
     inkscape:zoom="32.000001"
     inkscape:cx="15.234374"
     inkscape:cy="18.015624"
     inkscape:window-width="2560"
     inkscape:window-height="1361"
     inkscape:window-x="-9"
     inkscape:window-y="-9"
     inkscape:window-maximized="1"
     inkscape:current-layer="svg88">
    <inkscape:grid
       type="xygrid"
       id="grid962"
       originx="-0.013876075"
       originy="0.45359217" />
  </sodipodi:namedview>
  <defs
     id="defs56">
    <clipPath
       id="cc11ff8ea7">
      <path
         d="M 19,15 H 30 V 25.5 H 19 Z m 0,0"
         clip-rule="nonzero"
         id="path47" />
    </clipPath>
    <clipPath
       id="9e89fd9cc3">
      <path
         d="m 35.25,33.636719 h 30 v 26.25 h -30 z m 0,0"
         clip-rule="nonzero"
         id="path50" />
    </clipPath>
    <clipPath
       id="607bbba136">
      <path
         d="M 70.5,74.585938 H 75 V 75 h -4.5 z m 0,0"
         clip-rule="nonzero"
         id="path53" />
    </clipPath>
    <clipPath
       id="cc11ff8ea7-2">
      <path
         d="M 19,15 H 30 V 25.5 H 19 Z m 0,0"
         clip-rule="nonzero"
         id="path47-5" />
    </clipPath>
  </defs>
  <g
     clip-path="url(#9e89fd9cc3)"
     id="g74"
     transform="matrix(1.0857143,0,0,1.0857143,-38.271429,-36.519867)"
     style="stroke-width:0.921053;fill:#ffffff;fill-opacity:1;stroke:none">
    <path
       fill="#000000"
       d="m 51.991321,55.539062 c -4.148389,-0.0017 -12.84679,0 -12.84679,0 -2.148437,0 -3.894531,-1.746093 -3.894531,-3.894531 V 37.535156 c 0,-2.148437 1.746094,-3.898437 3.894531,-3.898437 h 22.207031 c 2.152344,0 3.898438,1.75 3.898438,3.898437 0,0 0.004,9.388093 0,13.776441 -2.91e-4,0.321668 -0.377436,0.651273 -0.695416,0.653011 -0.321746,0.0018 -0.710799,-0.317414 -0.710834,-0.653011 -4.63e-4,-4.416124 0,-13.776441 0,-13.776441 0,-1.375 -1.117188,-2.492187 -2.492188,-2.492187 H 39.144531 c -1.371093,0 -2.488281,1.117187 -2.488281,2.492187 v 14.109375 c 0,1.371094 1.117188,2.488281 2.488281,2.488281 0,0 8.873593,4.2e-5 12.84679,0 0.303751,-3e-6 0.627491,0.346132 0.638997,0.649665 0.0125,0.329871 -0.30889,0.75672 -0.638997,0.756585 z"
       fill-opacity="1"
       fill-rule="nonzero"
       id="path10235"
       style="fill:#ffffff;fill-opacity:1;stroke-width:0.862105;stroke-dasharray:none;stroke:none"
       sodipodi:nodetypes="sccsssssasccccsssas" />
  </g>
  <path
     fill="#000000"
     d="M 26.464285,12.690837 H 6.1071425 c -0.4198664,0 -0.7633928,-0.339286 -0.7633928,-0.763393 0,-0.419867 0.3435264,-0.763393 0.7633928,-0.763393 H 26.464285 c 0.419866,0 0.763393,0.343526 0.763393,0.763393 0,0.424107 -0.343527,0.763393 -0.763393,0.763393 z m 0,0"
     fill-opacity="1"
     fill-rule="nonzero"
     id="path76"
     style="stroke-width:1;fill:#ffffff;fill-opacity:1;stroke:none" />
  <path
     fill="#000000"
     d="m 20.952054,7.5707803 -9.17263,-0.023437 c -0.419865,-0.00107 -0.763393,-0.3392857 -0.763393,-0.7633929 0,-0.4198663 0.343528,-0.7644656 0.763393,-0.7633928 l 9.17263,0.023437 c 0.419865,0.00107 0.763393,0.3435265 0.763393,0.7633928 0,0.4241072 -0.343528,0.7644657 -0.763393,0.7633929 z"
     fill-opacity="1"
     fill-rule="nonzero"
     id="path76-9"
     style="fill:#ffffff;fill-opacity:1;stroke:none;stroke-width:1"
     sodipodi:nodetypes="sssssss" />
  <path
     fill="#000000"
     d="M 16.808243,17.576584 H 6.1075486 c -0.4198664,0 -0.7633929,-0.339286 -0.7633929,-0.763393 0,-0.419867 0.3435265,-0.763393 0.7633929,-0.763393 H 16.808243 c 0.419867,0 0.763393,0.343526 0.763393,0.763393 0,0.424107 -0.343526,0.763393 -0.763393,0.763393 z"
     fill-opacity="1"
     fill-rule="nonzero"
     id="path76-8"
     style="fill:#ffffff;fill-opacity:1;stroke-width:1;stroke:none"
     sodipodi:nodetypes="sssssss" />
  <path
     style="fill:none;fill-opacity:1;stroke:#ffffff;stroke-width:1.5;stroke-linecap:round;stroke-linejoin:round;stroke-dasharray:none;stroke-opacity:1"
     d="m 28.957903,27.77118 -6.552256,-7.714118 -0.33875,-3.295123 3.209545,0.856713 6.539596,7.724871 z"
     id="path10164"
     sodipodi:nodetypes="cccccc" />
</svg>
