<svg xmlns="http://www.w3.org/2000/svg" xmlns:xlink="http://www.w3.org/1999/xlink" width="280" zoomAndPan="magnify" viewBox="0 0 210 30.000001" height="40" preserveAspectRatio="xMidYMid meet" version="1.0"><defs><clipPath id="28af00812d"><path d="M 3.386719 0 L 206.613281 0 L 206.613281 29.023438 L 3.386719 29.023438 Z M 3.386719 0 " clip-rule="nonzero"/></clipPath><clipPath id="383ea7f2eb"><path d="M 4 0 L 206 0 L 206 28.011719 L 4 28.011719 Z M 4 0 " clip-rule="nonzero"/></clipPath><clipPath id="0f7663bd0e"><path d="M 89 12 L 121.453125 12 L 121.453125 22.347656 L 89 22.347656 Z M 89 12 " clip-rule="nonzero"/></clipPath><clipPath id="5a62573918"><path d="M 89 7 L 121.453125 7 L 121.453125 17 L 89 17 Z M 89 7 " clip-rule="nonzero"/></clipPath></defs><g clip-path="url(#28af00812d)"><path fill="#d9d9d9" d="M 10.261719 22.117188 C 10.574219 23.117188 11.035156 24.046875 11.640625 24.898438 C 12.25 25.753906 12.972656 26.492188 13.816406 27.113281 C 14.65625 27.734375 15.574219 28.207031 16.566406 28.535156 C 17.558594 28.859375 18.574219 29.023438 19.621094 29.023438 L 190.226562 29.023438 C 191.269531 29.023438 192.289062 28.859375 193.28125 28.535156 C 194.269531 28.207031 195.1875 27.734375 196.03125 27.113281 C 196.871094 26.492188 197.597656 25.753906 198.203125 24.898438 C 198.8125 24.046875 199.273438 23.117188 199.585938 22.117188 C 201.46875 16.042969 204.246094 7.09375 206.535156 -0.246094 C 206.648438 -0.617188 206.742188 -0.988281 206.816406 -1.371094 C 206.886719 -1.75 206.933594 -2.132812 206.960938 -2.515625 C 206.988281 -2.902344 206.992188 -3.285156 206.976562 -3.671875 C 206.957031 -4.058594 206.917969 -4.441406 206.855469 -4.820312 C 206.792969 -5.203125 206.707031 -5.578125 206.601562 -5.949219 C 206.492188 -6.320312 206.367188 -6.683594 206.214844 -7.039062 C 206.066406 -7.394531 205.898438 -7.742188 205.707031 -8.078125 C 205.519531 -8.414062 205.3125 -8.738281 205.085938 -9.046875 C 204.855469 -9.359375 204.613281 -9.65625 204.351562 -9.9375 C 204.089844 -10.21875 203.8125 -10.488281 203.519531 -10.734375 C 203.226562 -10.984375 202.917969 -11.21875 202.601562 -11.429688 C 202.28125 -11.644531 201.949219 -11.835938 201.605469 -12.011719 C 201.265625 -12.1875 200.914062 -12.339844 200.550781 -12.472656 C 200.191406 -12.605469 199.824219 -12.714844 199.453125 -12.804688 C 199.078125 -12.894531 198.699219 -12.960938 198.320312 -13.007812 C 197.9375 -13.050781 197.554688 -13.074219 197.171875 -13.074219 L 12.671875 -13.074219 C 12.289062 -13.074219 11.90625 -13.050781 11.527344 -13.007812 C 11.144531 -12.960938 10.769531 -12.894531 10.394531 -12.804688 C 10.023438 -12.714844 9.65625 -12.601562 9.296875 -12.46875 C 8.933594 -12.335938 8.585938 -12.183594 8.242188 -12.007812 C 7.898438 -11.835938 7.570312 -11.640625 7.25 -11.425781 C 6.929688 -11.214844 6.625 -10.980469 6.332031 -10.730469 C 6.039062 -10.480469 5.761719 -10.214844 5.5 -9.933594 C 5.238281 -9.652344 4.996094 -9.355469 4.769531 -9.042969 C 4.542969 -8.734375 4.332031 -8.410156 4.144531 -8.074219 C 3.953125 -7.738281 3.785156 -7.390625 3.636719 -7.035156 C 3.488281 -6.679688 3.359375 -6.316406 3.253906 -5.945312 C 3.148438 -5.578125 3.0625 -5.199219 3 -4.820312 C 2.9375 -4.4375 2.898438 -4.054688 2.878906 -3.671875 C 2.859375 -3.285156 2.867188 -2.898438 2.894531 -2.515625 C 2.917969 -2.128906 2.96875 -1.746094 3.039062 -1.367188 C 3.113281 -0.988281 3.207031 -0.617188 3.320312 -0.246094 C 5.609375 7.09375 8.378906 16.042969 10.261719 22.117188 Z M 10.261719 22.117188 " fill-opacity="1" fill-rule="nonzero"/></g><g clip-path="url(#383ea7f2eb)"><path fill="#ffffff" d="M 11.3125 21.222656 C 11.625 22.207031 12.078125 23.121094 12.679688 23.960938 C 13.28125 24.796875 14 25.523438 14.832031 26.132812 C 15.664062 26.742188 16.570312 27.210938 17.554688 27.53125 C 18.535156 27.851562 19.542969 28.011719 20.574219 28.011719 L 189.410156 28.011719 C 190.445312 28.011719 191.449219 27.851562 192.433594 27.53125 C 193.414062 27.210938 194.320312 26.742188 195.15625 26.132812 C 195.988281 25.523438 196.703125 24.796875 197.304688 23.960938 C 197.90625 23.121094 198.363281 22.207031 198.671875 21.222656 C 200.535156 15.257812 203.285156 6.460938 205.550781 -0.753906 C 205.664062 -1.117188 205.757812 -1.484375 205.828125 -1.855469 C 205.898438 -2.230469 205.945312 -2.605469 205.972656 -2.984375 C 206 -3.363281 206.003906 -3.742188 205.988281 -4.121094 C 205.96875 -4.5 205.929688 -4.875 205.867188 -5.25 C 205.804688 -5.625 205.722656 -5.992188 205.617188 -6.359375 C 205.511719 -6.722656 205.382812 -7.078125 205.234375 -7.429688 C 205.089844 -7.777344 204.921875 -8.117188 204.734375 -8.449219 C 204.546875 -8.777344 204.339844 -9.097656 204.113281 -9.402344 C 203.890625 -9.707031 203.648438 -10 203.390625 -10.277344 C 203.128906 -10.554688 202.855469 -10.816406 202.566406 -11.0625 C 202.277344 -11.308594 201.972656 -11.535156 201.65625 -11.746094 C 201.339844 -11.953125 201.011719 -12.144531 200.671875 -12.316406 C 200.335938 -12.488281 199.988281 -12.636719 199.628906 -12.769531 C 199.273438 -12.898438 198.910156 -13.007812 198.539062 -13.097656 C 198.171875 -13.183594 197.796875 -13.25 197.421875 -13.292969 C 197.042969 -13.339844 196.664062 -13.359375 196.285156 -13.359375 L 13.699219 -13.359375 C 13.320312 -13.359375 12.941406 -13.335938 12.566406 -13.292969 C 12.1875 -13.25 11.816406 -13.183594 11.445312 -13.09375 C 11.078125 -13.007812 10.714844 -12.898438 10.359375 -12.765625 C 10.003906 -12.636719 9.65625 -12.484375 9.316406 -12.3125 C 8.976562 -12.140625 8.648438 -11.949219 8.335938 -11.742188 C 8.019531 -11.53125 7.714844 -11.304688 7.425781 -11.058594 C 7.136719 -10.8125 6.863281 -10.550781 6.601562 -10.273438 C 6.34375 -9.996094 6.101562 -9.703125 5.878906 -9.398438 C 5.652344 -9.09375 5.449219 -8.773438 5.261719 -8.445312 C 5.074219 -8.117188 4.90625 -7.777344 4.757812 -7.425781 C 4.613281 -7.078125 4.484375 -6.71875 4.378906 -6.355469 C 4.273438 -5.992188 4.191406 -5.621094 4.128906 -5.246094 C 4.066406 -4.875 4.027344 -4.496094 4.007812 -4.117188 C 3.992188 -3.738281 3.996094 -3.359375 4.023438 -2.984375 C 4.050781 -2.605469 4.097656 -2.230469 4.167969 -1.855469 C 4.238281 -1.484375 4.332031 -1.117188 4.445312 -0.753906 C 6.710938 6.460938 9.449219 15.257812 11.3125 21.222656 Z M 11.3125 21.222656 " fill-opacity="1" fill-rule="nonzero"/></g><g clip-path="url(#0f7663bd0e)"><path fill="#5876ff" d="M 105.4375 22.164062 C 105.320312 22.164062 105.207031 22.136719 105.105469 22.082031 L 89.847656 13.859375 C 89.511719 13.679688 89.386719 13.265625 89.570312 12.933594 C 89.753906 12.601562 90.179688 12.476562 90.511719 12.65625 L 105.4375 20.699219 L 120.363281 12.65625 C 120.695312 12.476562 121.117188 12.601562 121.300781 12.933594 C 121.484375 13.265625 121.363281 13.679688 121.023438 13.859375 L 105.769531 22.082031 C 105.664062 22.136719 105.550781 22.164062 105.4375 22.164062 Z M 105.4375 22.164062 " fill-opacity="1" fill-rule="nonzero"/></g><g clip-path="url(#5a62573918)"><path fill="#5876ff" d="M 105.4375 16.6875 C 105.320312 16.6875 105.207031 16.65625 105.105469 16.601562 L 89.847656 8.382812 C 89.511719 8.199219 89.386719 7.785156 89.570312 7.453125 C 89.753906 7.121094 90.179688 6.996094 90.511719 7.179688 L 105.4375 15.21875 L 120.363281 7.179688 C 120.695312 6.996094 121.117188 7.121094 121.300781 7.453125 C 121.484375 7.785156 121.363281 8.199219 121.023438 8.382812 L 105.769531 16.601562 C 105.664062 16.65625 105.550781 16.6875 105.4375 16.6875 Z M 105.4375 16.6875 " fill-opacity="1" fill-rule="nonzero"/></g></svg>