<svg xmlns="http://www.w3.org/2000/svg" xmlns:xlink="http://www.w3.org/1999/xlink" width="500" zoomAndPan="magnify" viewBox="0 0 375 125.249995" height="167" preserveAspectRatio="xMidYMid meet" version="1.0"><defs><clipPath id="c273a8e65c"><path d="M 1.117188 0 L 373.882812 0 L 373.882812 124.503906 L 1.117188 124.503906 Z M 1.117188 0 " clip-rule="nonzero"/></clipPath><clipPath id="b99358fa10"><path d="M 1.117188 0 L 125.621094 0 L 125.621094 124.503906 L 1.117188 124.503906 Z M 1.117188 0 " clip-rule="nonzero"/></clipPath><clipPath id="11b749fe83"><path d="M 125.371094 0 L 249.875 0 L 249.875 124.503906 L 125.371094 124.503906 Z M 125.371094 0 " clip-rule="nonzero"/></clipPath><clipPath id="b0a799b6b6"><path d="M 249.628906 0 L 373.882812 0 L 373.882812 124.503906 L 249.628906 124.503906 Z M 249.628906 0 " clip-rule="nonzero"/></clipPath></defs><g clip-path="url(#c273a8e65c)"><path fill="#ffffff" d="M 1.117188 0 L 373.882812 0 L 373.882812 131.960938 L 1.117188 131.960938 Z M 1.117188 0 " fill-opacity="1" fill-rule="nonzero"/><path fill="#ffffff" d="M 1.117188 0 L 373.882812 0 L 373.882812 124.503906 L 1.117188 124.503906 Z M 1.117188 0 " fill-opacity="1" fill-rule="nonzero"/><path fill="#ffffff" d="M 1.117188 0 L 373.882812 0 L 373.882812 124.503906 L 1.117188 124.503906 Z M 1.117188 0 " fill-opacity="1" fill-rule="nonzero"/></g><g clip-path="url(#b99358fa10)"><path fill="#27de27" d="M 1.117188 0 L 125.621094 0 L 125.621094 124.503906 L 1.117188 124.503906 L 1.117188 0 " fill-opacity="1" fill-rule="nonzero"/></g><g clip-path="url(#11b749fe83)"><path fill="#e3e332" d="M 125.371094 0 L 249.875 0 L 249.875 124.503906 L 125.371094 124.503906 L 125.371094 0 " fill-opacity="1" fill-rule="nonzero"/></g><g clip-path="url(#b0a799b6b6)"><path fill="#ff8063" d="M 249.628906 0 L 374.132812 0 L 374.132812 124.503906 L 249.628906 124.503906 L 249.628906 0 " fill-opacity="1" fill-rule="nonzero"/></g></svg>