<svg xmlns="http://www.w3.org/2000/svg" xmlns:xlink="http://www.w3.org/1999/xlink" width="500" zoomAndPan="magnify" viewBox="0 0 375 374.999991" height="500" preserveAspectRatio="xMidYMid meet" version="1.0"><defs><clipPath id="60e369d01b"><path d="M 208.472656 187.5 L 244.472656 187.5 L 244.472656 204.75 L 208.472656 204.75 Z M 208.472656 187.5 " clip-rule="nonzero"/></clipPath><clipPath id="12f41d0f1e"><path d="M 146.375 187.5 L 182.375 187.5 L 182.375 204.75 L 146.375 204.75 Z M 146.375 187.5 " clip-rule="nonzero"/></clipPath></defs><path fill="#ddddda" d="M 375 187.5 C 375 239.863281 353.535156 287.246094 318.878906 321.238281 C 312.203125 327.816406 305.03125 333.882812 297.414062 339.378906 C 266.53125 361.789062 228.550781 375 187.5 375 C 146.140625 375 107.890625 361.609375 76.894531 338.886719 C 69.511719 333.484375 62.539062 327.546875 56.027344 321.152344 C 21.4375 287.160156 0 239.847656 0 187.5 C 0 83.953125 83.953125 0 187.5 0 C 291.046875 0 375 83.953125 375 187.5 " fill-opacity="1" fill-rule="nonzero"/><path fill="#6f9fda" d="M 223.65625 288.617188 C 223.65625 288.601562 223.65625 288.601562 223.65625 288.601562 L 223.671875 288.601562 C 223.65625 288.601562 223.65625 288.601562 223.65625 288.617188 Z M 240.921875 323.34375 L 241.457031 321.4375 L 230.800781 306.617188 L 225.972656 306.617188 L 224.492188 294.0625 C 224.515625 294.0625 224.535156 294.132812 224.578125 294.21875 L 224.121094 291.375 L 223.785156 288.351562 C 224.136719 288.089844 224.492188 287.867188 224.84375 287.558594 C 235.503906 278.164062 249.929688 256.234375 251.1875 233.667969 C 251.1875 233.667969 271.960938 231.546875 273.839844 209.207031 C 274.855469 197.097656 272.625 191.628906 269.046875 189.242188 C 270.152344 188.121094 273.332031 181.855469 278.164062 147.285156 C 280.808594 128.421875 271.589844 116.160156 264.15625 109.941406 C 264.859375 99.929688 263.472656 79.171875 242.027344 68.339844 C 242.476562 68.976562 249.4375 79.1875 251.246094 87.855469 C 251.445312 88.761719 250.253906 89.3125 249.703125 88.5625 C 243.328125 80.539062 220.5625 57.835938 166.019531 56.800781 C 166.019531 56.800781 178.71875 58.835938 188.050781 64.480469 C 189.308594 65.246094 188.644531 67.234375 187.171875 67.039062 C 174.574219 65.511719 142.898438 63.574219 121.082031 78.902344 C 121.082031 78.902344 125.140625 78.066406 130.808594 78.378906 C 131.601562 78.421875 131.84375 79.523438 131.09375 79.832031 C 122.753906 83.496094 99.460938 96.222656 99.460938 124.546875 C 99.460938 124.546875 103.902344 118.480469 107.097656 115.015625 C 107.535156 114.507812 108.355469 114.988281 108.15625 115.636719 C 106.5625 120.445312 103.855469 131.601562 107.011719 144.769531 C 107.011719 144.769531 107.492188 140.796875 111.863281 136.34375 C 112.414062 157.195312 117.550781 183.992188 118.300781 187.722656 C 112.570312 188.671875 108.199219 192.972656 109.585938 209.230469 C 111.464844 231.589844 132.480469 233.695312 132.480469 233.695312 C 133.5 251.953125 143.933594 269.824219 152.914062 280.941406 L 151.386719 293.40625 L 151.523438 293.496094 L 151.523438 293.5625 L 148.164062 306.617188 L 142.703125 306.617188 L 142.703125 308.78125 L 131.671875 322.609375 L 131.671875 322.894531 L 76.894531 338.886719 C 107.890625 361.609375 146.140625 375 187.5 375 C 228.550781 375 266.53125 361.789062 297.414062 339.378906 L 240.921875 323.34375 " fill-opacity="1" fill-rule="nonzero"/><g clip-path="url(#60e369d01b)"><path fill="#ddddda" d="M 220.476562 203.714844 C 222.324219 204.339844 224.421875 204.75 226.480469 204.75 C 228.539062 204.75 230.523438 204.398438 232.347656 203.773438 C 232.386719 203.753906 232.425781 203.753906 232.464844 203.734375 C 239.324219 201.230469 244.375 194.625 244.472656 187.5 L 208.472656 187.5 C 208.566406 194.664062 213.542969 201.269531 220.476562 203.714844 " fill-opacity="1" fill-rule="nonzero"/></g><g clip-path="url(#12f41d0f1e)"><path fill="#ddddda" d="M 158.382812 203.714844 C 160.226562 204.339844 162.324219 204.75 164.386719 204.75 C 166.445312 204.75 168.425781 204.398438 170.253906 203.773438 C 170.292969 203.753906 170.332031 203.753906 170.371094 203.734375 C 177.226562 201.230469 182.277344 194.625 182.375 187.5 L 146.375 187.5 C 146.472656 194.664062 151.445312 201.269531 158.382812 203.714844 " fill-opacity="1" fill-rule="nonzero"/></g></svg>