<svg xmlns="http://www.w3.org/2000/svg" xmlns:xlink="http://www.w3.org/1999/xlink" width="200" zoomAndPan="magnify" viewBox="0 0 150 135.000003" height="180" preserveAspectRatio="xMidYMid meet" version="1.0"><defs><clipPath id="07c7622fd7"><path d="M 0.550781 0 L 98 0 L 98 134.007812 L 0.550781 134.007812 Z M 0.550781 0 " clip-rule="nonzero"/></clipPath><clipPath id="1b673e7a8e"><path d="M 30 37 L 149.449219 37 L 149.449219 97 L 30 97 Z M 30 37 " clip-rule="nonzero"/></clipPath></defs><g clip-path="url(#07c7622fd7)"><path fill="#5271ff" d="M 75 134.007812 L 22.886719 134.007812 C 22.15625 134.007812 21.425781 133.96875 20.699219 133.898438 C 19.96875 133.824219 19.246094 133.71875 18.53125 133.574219 C 17.8125 133.429688 17.105469 133.253906 16.40625 133.039062 C 15.707031 132.828125 15.019531 132.582031 14.34375 132.300781 C 13.667969 132.019531 13.007812 131.707031 12.363281 131.363281 C 11.71875 131.019531 11.089844 130.644531 10.484375 130.238281 C 9.875 129.828125 9.289062 129.394531 8.722656 128.929688 C 8.15625 128.46875 7.617188 127.976562 7.101562 127.460938 C 6.582031 126.941406 6.09375 126.402344 5.628906 125.835938 C 5.164062 125.269531 4.730469 124.683594 4.324219 124.074219 C 3.914062 123.46875 3.539062 122.839844 3.195312 122.195312 C 2.851562 121.550781 2.539062 120.890625 2.257812 120.214844 C 1.976562 119.539062 1.730469 118.851562 1.519531 118.152344 C 1.304688 117.453125 1.128906 116.746094 0.984375 116.027344 C 0.839844 115.3125 0.734375 114.589844 0.660156 113.859375 C 0.589844 113.132812 0.550781 112.402344 0.550781 111.671875 L 0.550781 22.335938 C 0.550781 21.601562 0.589844 20.875 0.660156 20.144531 C 0.734375 19.417969 0.839844 18.695312 0.984375 17.980469 C 1.128906 17.261719 1.304688 16.554688 1.519531 15.855469 C 1.730469 15.152344 1.976562 14.464844 2.257812 13.789062 C 2.539062 13.117188 2.851562 12.457031 3.195312 11.808594 C 3.539062 11.164062 3.914062 10.539062 4.324219 9.929688 C 4.730469 9.324219 5.164062 8.738281 5.628906 8.171875 C 6.09375 7.605469 6.582031 7.066406 7.101562 6.546875 C 7.617188 6.03125 8.15625 5.539062 8.722656 5.078125 C 9.289062 4.613281 9.875 4.175781 10.484375 3.769531 C 11.089844 3.363281 11.71875 2.988281 12.363281 2.644531 C 13.007812 2.300781 13.667969 1.984375 14.34375 1.707031 C 15.019531 1.425781 15.707031 1.179688 16.40625 0.964844 C 17.105469 0.753906 17.8125 0.574219 18.53125 0.433594 C 19.246094 0.289062 19.96875 0.183594 20.699219 0.109375 C 21.425781 0.0390625 22.15625 0 22.886719 0 L 75 0 C 75.730469 0 76.460938 0.0390625 77.1875 0.109375 C 77.917969 0.183594 78.636719 0.289062 79.355469 0.433594 C 80.074219 0.574219 80.78125 0.753906 81.480469 0.964844 C 82.179688 1.179688 82.867188 1.425781 83.542969 1.707031 C 84.21875 1.984375 84.878906 2.300781 85.523438 2.644531 C 86.167969 2.988281 86.796875 3.363281 87.402344 3.769531 C 88.011719 4.175781 88.597656 4.613281 89.164062 5.078125 C 89.726562 5.539062 90.269531 6.03125 90.785156 6.546875 C 91.304688 7.066406 91.792969 7.605469 92.257812 8.171875 C 92.722656 8.738281 93.15625 9.324219 93.5625 9.929688 C 93.96875 10.539062 94.347656 11.164062 94.691406 11.808594 C 95.035156 12.457031 95.347656 13.117188 95.628906 13.789062 C 95.910156 14.464844 96.15625 15.152344 96.367188 15.855469 C 96.582031 16.554688 96.757812 17.261719 96.902344 17.980469 C 97.042969 18.695312 97.152344 19.417969 97.226562 20.144531 C 97.296875 20.875 97.332031 21.601562 97.335938 22.335938 L 97.335938 37.222656 C 97.335938 37.714844 97.285156 38.195312 97.191406 38.675781 C 97.097656 39.15625 96.953125 39.621094 96.769531 40.074219 C 96.582031 40.523438 96.351562 40.953125 96.078125 41.359375 C 95.808594 41.765625 95.5 42.144531 95.152344 42.488281 C 94.808594 42.835938 94.433594 43.144531 94.027344 43.414062 C 93.621094 43.6875 93.191406 43.914062 92.738281 44.101562 C 92.285156 44.289062 91.820312 44.429688 91.34375 44.527344 C 90.863281 44.621094 90.378906 44.667969 89.890625 44.667969 C 89.402344 44.667969 88.917969 44.621094 88.4375 44.527344 C 87.957031 44.429688 87.492188 44.289062 87.039062 44.101562 C 86.589844 43.914062 86.160156 43.6875 85.753906 43.414062 C 85.347656 43.144531 84.972656 42.835938 84.625 42.488281 C 84.28125 42.144531 83.972656 41.765625 83.699219 41.359375 C 83.429688 40.953125 83.199219 40.523438 83.011719 40.074219 C 82.824219 39.621094 82.683594 39.15625 82.585938 38.675781 C 82.492188 38.195312 82.445312 37.714844 82.445312 37.222656 L 82.445312 22.335938 C 82.445312 21.847656 82.398438 21.363281 82.300781 20.882812 C 82.207031 20.402344 82.066406 19.9375 81.878906 19.484375 C 81.691406 19.035156 81.460938 18.605469 81.191406 18.199219 C 80.917969 17.792969 80.609375 17.414062 80.265625 17.070312 C 79.917969 16.722656 79.542969 16.414062 79.136719 16.144531 C 78.730469 15.871094 78.300781 15.644531 77.847656 15.457031 C 77.398438 15.269531 76.933594 15.128906 76.453125 15.03125 C 75.972656 14.9375 75.488281 14.890625 75 14.890625 L 22.886719 14.890625 C 22.398438 14.890625 21.914062 14.9375 21.433594 15.03125 C 20.953125 15.128906 20.488281 15.269531 20.035156 15.457031 C 19.585938 15.644531 19.15625 15.871094 18.75 16.144531 C 18.34375 16.414062 17.96875 16.722656 17.621094 17.070312 C 17.277344 17.414062 16.96875 17.792969 16.695312 18.199219 C 16.425781 18.605469 16.195312 19.035156 16.007812 19.484375 C 15.820312 19.9375 15.679688 20.402344 15.585938 20.882812 C 15.488281 21.363281 15.441406 21.847656 15.441406 22.335938 L 15.441406 111.671875 C 15.441406 112.160156 15.488281 112.644531 15.585938 113.125 C 15.679688 113.605469 15.820312 114.070312 16.007812 114.523438 C 16.195312 114.972656 16.425781 115.402344 16.695312 115.808594 C 16.96875 116.214844 17.277344 116.589844 17.621094 116.9375 C 17.96875 117.28125 18.34375 117.589844 18.75 117.863281 C 19.15625 118.132812 19.585938 118.363281 20.035156 118.550781 C 20.488281 118.738281 20.953125 118.878906 21.433594 118.972656 C 21.914062 119.070312 22.398438 119.117188 22.886719 119.117188 L 75 119.117188 C 75.488281 119.117188 75.972656 119.070312 76.453125 118.972656 C 76.933594 118.878906 77.398438 118.738281 77.847656 118.550781 C 78.300781 118.363281 78.730469 118.132812 79.136719 117.863281 C 79.542969 117.589844 79.917969 117.28125 80.265625 116.9375 C 80.609375 116.589844 80.917969 116.214844 81.191406 115.808594 C 81.460938 115.402344 81.691406 114.972656 81.878906 114.523438 C 82.066406 114.070312 82.207031 113.605469 82.300781 113.125 C 82.398438 112.644531 82.445312 112.160156 82.445312 111.671875 L 82.445312 96.78125 C 82.445312 96.292969 82.492188 95.808594 82.585938 95.332031 C 82.683594 94.851562 82.824219 94.386719 83.011719 93.933594 C 83.199219 93.484375 83.429688 93.054688 83.699219 92.648438 C 83.972656 92.242188 84.28125 91.863281 84.625 91.519531 C 84.972656 91.171875 85.347656 90.863281 85.753906 90.59375 C 86.160156 90.320312 86.589844 90.09375 87.039062 89.90625 C 87.492188 89.71875 87.957031 89.578125 88.4375 89.480469 C 88.917969 89.386719 89.402344 89.339844 89.890625 89.339844 C 90.378906 89.339844 90.863281 89.386719 91.34375 89.480469 C 91.820312 89.578125 92.285156 89.71875 92.738281 89.90625 C 93.191406 90.09375 93.621094 90.320312 94.027344 90.59375 C 94.433594 90.863281 94.808594 91.171875 95.152344 91.519531 C 95.5 91.863281 95.808594 92.242188 96.078125 92.648438 C 96.351562 93.054688 96.582031 93.484375 96.769531 93.933594 C 96.953125 94.386719 97.097656 94.851562 97.191406 95.332031 C 97.285156 95.808594 97.335938 96.292969 97.335938 96.78125 L 97.335938 111.671875 C 97.332031 112.402344 97.296875 113.132812 97.226562 113.859375 C 97.152344 114.589844 97.042969 115.3125 96.902344 116.027344 C 96.757812 116.746094 96.582031 117.453125 96.367188 118.152344 C 96.15625 118.851562 95.910156 119.539062 95.628906 120.214844 C 95.347656 120.890625 95.035156 121.550781 94.691406 122.195312 C 94.347656 122.839844 93.96875 123.46875 93.5625 124.074219 C 93.15625 124.683594 92.722656 125.269531 92.257812 125.835938 C 91.792969 126.402344 91.304688 126.941406 90.785156 127.460938 C 90.269531 127.976562 89.726562 128.46875 89.164062 128.929688 C 88.597656 129.394531 88.011719 129.828125 87.402344 130.238281 C 86.796875 130.644531 86.167969 131.019531 85.523438 131.363281 C 84.878906 131.707031 84.21875 132.019531 83.542969 132.300781 C 82.867188 132.582031 82.179688 132.828125 81.480469 133.039062 C 80.78125 133.253906 80.074219 133.429688 79.355469 133.574219 C 78.636719 133.71875 77.917969 133.824219 77.1875 133.898438 C 76.460938 133.96875 75.730469 134.007812 75 134.007812 Z M 75 134.007812 " fill-opacity="1" fill-rule="nonzero"/></g><g clip-path="url(#1b673e7a8e)"><path fill="#5271ff" d="M 119.667969 96.78125 C 118.933594 96.78125 118.210938 96.675781 117.507812 96.460938 C 116.804688 96.25 116.144531 95.9375 115.535156 95.527344 C 114.921875 95.117188 114.382812 94.628906 113.914062 94.0625 C 113.449219 93.492188 113.074219 92.867188 112.792969 92.1875 C 112.511719 91.507812 112.332031 90.800781 112.261719 90.066406 C 112.191406 89.335938 112.226562 88.609375 112.367188 87.886719 C 112.511719 87.164062 112.757812 86.480469 113.105469 85.828125 C 113.453125 85.179688 113.886719 84.59375 114.40625 84.074219 L 124.03125 74.449219 L 37.777344 74.449219 C 37.285156 74.449219 36.804688 74.402344 36.324219 74.304688 C 35.84375 74.210938 35.378906 74.070312 34.925781 73.882812 C 34.476562 73.695312 34.046875 73.464844 33.640625 73.195312 C 33.234375 72.921875 32.855469 72.613281 32.511719 72.269531 C 32.164062 71.921875 31.855469 71.546875 31.585938 71.140625 C 31.3125 70.734375 31.085938 70.304688 30.898438 69.851562 C 30.710938 69.402344 30.570312 68.933594 30.472656 68.457031 C 30.378906 67.976562 30.332031 67.492188 30.332031 67.003906 C 30.332031 66.515625 30.378906 66.03125 30.472656 65.550781 C 30.570312 65.070312 30.710938 64.605469 30.898438 64.15625 C 31.085938 63.703125 31.3125 63.273438 31.585938 62.867188 C 31.855469 62.460938 32.164062 62.085938 32.511719 61.738281 C 32.855469 61.394531 33.234375 61.085938 33.640625 60.8125 C 34.046875 60.542969 34.476562 60.3125 34.925781 60.125 C 35.378906 59.9375 35.84375 59.796875 36.324219 59.703125 C 36.804688 59.605469 37.285156 59.558594 37.777344 59.558594 L 124.03125 59.558594 L 114.40625 49.933594 C 114.070312 49.585938 113.769531 49.207031 113.507812 48.800781 C 113.246094 48.394531 113.023438 47.96875 112.847656 47.519531 C 112.667969 47.070312 112.53125 46.609375 112.445312 46.132812 C 112.355469 45.660156 112.3125 45.179688 112.316406 44.695312 C 112.320312 44.210938 112.371094 43.734375 112.46875 43.261719 C 112.566406 42.789062 112.707031 42.328125 112.894531 41.882812 C 113.082031 41.4375 113.308594 41.011719 113.578125 40.609375 C 113.847656 40.210938 114.15625 39.839844 114.496094 39.496094 C 114.839844 39.15625 115.210938 38.847656 115.609375 38.578125 C 116.011719 38.308594 116.4375 38.082031 116.882812 37.894531 C 117.328125 37.707031 117.789062 37.566406 118.261719 37.46875 C 118.734375 37.371094 119.210938 37.320312 119.695312 37.316406 C 120.179688 37.3125 120.660156 37.355469 121.132812 37.445312 C 121.609375 37.53125 122.070312 37.667969 122.519531 37.847656 C 122.96875 38.023438 123.394531 38.246094 123.800781 38.507812 C 124.207031 38.769531 124.585938 39.070312 124.933594 39.40625 L 147.265625 61.738281 C 147.90625 62.371094 148.414062 63.09375 148.789062 63.910156 C 149.164062 64.726562 149.382812 65.582031 149.449219 66.480469 C 149.484375 66.976562 149.46875 67.472656 149.402344 67.96875 C 149.214844 69.433594 148.640625 70.726562 147.675781 71.847656 C 147.535156 72.007812 147.394531 72.160156 147.246094 72.308594 L 124.953125 94.597656 C 124.253906 95.300781 123.445312 95.839844 122.527344 96.21875 C 121.613281 96.597656 120.660156 96.785156 119.667969 96.78125 Z M 119.667969 96.78125 " fill-opacity="1" fill-rule="nonzero"/></g></svg>