<?xml version="1.0" encoding="UTF-8" standalone="no"?>
<svg
   width="137.5"
   zoomAndPan="magnify"
   viewBox="0 0 103.125 105.17493"
   height="140.23325"
   preserveAspectRatio="xMidYMid"
   version="1.0"
   id="svg4079"
   sodipodi:docname="diagonal_pin.svg"
   inkscape:version="1.2.1 (9c6d41e410, 2022-07-14)"
   xmlns:inkscape="http://www.inkscape.org/namespaces/inkscape"
   xmlns:sodipodi="http://sodipodi.sourceforge.net/DTD/sodipodi-0.dtd"
   xmlns="http://www.w3.org/2000/svg"
   xmlns:svg="http://www.w3.org/2000/svg">
  <defs
     id="defs4083" />
  <sodipodi:namedview
     id="namedview4081"
     pagecolor="#ffffff"
     bordercolor="#111111"
     borderopacity="1"
     inkscape:showpageshadow="0"
     inkscape:pageopacity="0"
     inkscape:pagecheckerboard="1"
     inkscape:deskcolor="#d1d1d1"
     showgrid="false"
     inkscape:zoom="23.238357"
     inkscape:cx="112.07763"
     inkscape:cy="10.908688"
     inkscape:window-width="2560"
     inkscape:window-height="1411"
     inkscape:window-x="-9"
     inkscape:window-y="-9"
     inkscape:window-maximized="1"
     inkscape:current-layer="svg4079" />
  <path
     stroke-linecap="butt"
     fill="none"
     stroke-linejoin="miter"
     d="M 9.7197233,95.451303 104.11037,1.060659"
     stroke="#e8ebfa"
     stroke-width="3.00194"
     stroke-opacity="1"
     stroke-miterlimit="4"
     id="path4075" />
  <path
     stroke-linecap="butt"
     fill-opacity="1"
     fill="#e8ebfa"
     fill-rule="nonzero"
     stroke-linejoin="miter"
     d="m 9.1923837,95.982555 c 0.2070302,0.210938 0.3945302,0.4375 0.558593,0.683594 0.1640628,0.246095 0.3007823,0.503907 0.4140623,0.777343 0.113283,0.273438 0.199221,0.554688 0.257813,0.843751 0.05469,0.289062 0.08594,0.582031 0.08594,0.878905 -2e-6,0.296876 -0.03125,0.589845 -0.08984,0.878912 -0.05469,0.28906 -0.140627,0.57031 -0.253908,0.84374 -0.113281,0.27344 -0.253907,0.53516 -0.4179683,0.78125 -0.1640634,0.2461 -0.3515636,0.47266 -0.5625005,0.67969 -0.2070316,0.21094 -0.4335938,0.39844 -0.6796886,0.5625 -0.2460928,0.16406 -0.5078099,0.30078 -0.7812504,0.41406 -0.2734367,0.11719 -0.5546854,0.19922 -0.8437474,0.25782 -0.289062,0.0586 -0.5820329,0.0859 -0.8789071,0.0898 -0.2968738,0 -0.5898427,-0.0312 -0.8789056,-0.0859 -0.2890625,-0.0586 -0.5703127,-0.14453 -0.8437507,-0.25781 -0.2734379,-0.11328 -0.5312504,-0.25 -0.7773448,-0.41406 -0.2460945,-0.16406 -0.4726562,-0.35156 -0.6835937,-0.5625 -0.2070312,-0.20703 -0.3945313,-0.43359 -0.558594,-0.67969 -0.1640628,-0.24609 -0.3007819,-0.5039 -0.4140606,-0.77734 -0.1132829,-0.27344 -0.1992205,-0.55469 -0.2578144,-0.84766 -0.058592,-0.289061 -0.085936,-0.582028 -0.085937,-0.874999 -8e-7,-0.296873 0.031251,-0.589845 0.085938,-0.878904 C 1.645508,98.002087 1.731445,97.720836 1.8447258,97.4474 1.9580088,97.173961 2.0986346,96.916149 2.262696,96.670057 2.4267594,96.423962 2.6142596,96.1974 2.821289,95.986463 3.0322281,95.779431 3.2587902,95.591931 3.5048851,95.427867 3.7509779,95.263806 4.0087897,95.12318 4.2822259,95.009899 c 0.2734384,-0.113282 0.5546896,-0.19922 0.8476574,-0.257811 0.2890616,-0.05469 0.5820308,-0.08594 0.8789067,-0.08594 0.2929701,10e-7 0.5859374,0.02734 0.8789056,0.08594 0.2890625,0.05859 0.5703127,0.14453 0.8437511,0.253905 0.2734379,0.113283 0.5312479,0.253908 0.7773423,0.41797 0.2460944,0.164063 0.4726561,0.351563 0.6835947,0.558594 z m 0,0"
     stroke="#e8ebfa"
     stroke-width="3.00194"
     stroke-opacity="1"
     stroke-miterlimit="4"
     id="path4077" />
</svg>
