<?xml version="1.0" encoding="UTF-8" standalone="no"?>
<svg
   width="137.5"
   zoomAndPan="magnify"
   viewBox="0 0 103.125 127.5"
   height="170"
   preserveAspectRatio="xMidYMid"
   version="1.0"
   id="svg4079"
   sodipodi:docname="diagonal_pin_slope.svg"
   inkscape:version="1.2.1 (9c6d41e410, 2022-07-14)"
   xmlns:inkscape="http://www.inkscape.org/namespaces/inkscape"
   xmlns:sodipodi="http://sodipodi.sourceforge.net/DTD/sodipodi-0.dtd"
   xmlns="http://www.w3.org/2000/svg"
   xmlns:svg="http://www.w3.org/2000/svg">
  <defs
     id="defs4083" />
  <sodipodi:namedview
     id="namedview4081"
     pagecolor="#ffffff"
     bordercolor="#111111"
     borderopacity="1"
     inkscape:showpageshadow="0"
     inkscape:pageopacity="0"
     inkscape:pagecheckerboard="1"
     inkscape:deskcolor="#d1d1d1"
     showgrid="false"
     inkscape:zoom="4.108"
     inkscape:cx="22.273613"
     inkscape:cy="83.130478"
     inkscape:window-width="2560"
     inkscape:window-height="1411"
     inkscape:window-x="-9"
     inkscape:window-y="-9"
     inkscape:window-maximized="1"
     inkscape:current-layer="svg4079" />
  <path
     stroke-linecap="butt"
     fill="none"
     stroke-linejoin="miter"
     d="M 40.574153,124.11489 104.11037,1.060659"
     stroke="#e8ebfa"
     stroke-width="3.00194"
     stroke-opacity="1"
     stroke-miterlimit="4"
     id="path4075"
     sodipodi:nodetypes="cc" />
  <path
     stroke-linecap="butt"
     fill-opacity="1"
     fill="#e8ebfa"
     fill-rule="nonzero"
     stroke-linejoin="miter"
     d="m 44.97622,118.43873 c 0.207031,0.21094 0.394531,0.4375 0.558593,0.6836 0.164063,0.24609 0.300783,0.5039 0.414063,0.77734 0.113283,0.27344 0.199221,0.55469 0.257813,0.84375 0.05469,0.28906 0.08594,0.58203 0.08594,0.87891 -2e-6,0.29687 -0.03125,0.58984 -0.08984,0.87891 -0.05469,0.28906 -0.140627,0.57031 -0.253908,0.84374 -0.113281,0.27344 -0.253907,0.53516 -0.417969,0.78125 -0.164063,0.2461 -0.351563,0.47266 -0.5625,0.67969 -0.207032,0.21094 -0.433594,0.39844 -0.679689,0.5625 -0.246093,0.16406 -0.50781,0.30078 -0.78125,0.41406 -0.273437,0.11719 -0.554686,0.19922 -0.843748,0.25782 -0.289062,0.0586 -0.582032,0.0859 -0.878907,0.0898 -0.296873,0 -0.589842,-0.0312 -0.878905,-0.0859 -0.289063,-0.0586 -0.570313,-0.14453 -0.843751,-0.25781 -0.273438,-0.11328 -0.53125,-0.25 -0.777345,-0.41406 -0.246094,-0.16406 -0.472656,-0.35156 -0.683593,-0.5625 -0.207032,-0.20703 -0.394532,-0.43359 -0.558594,-0.67969 -0.164063,-0.24609 -0.300782,-0.5039 -0.414061,-0.77734 -0.113283,-0.27344 -0.199221,-0.55469 -0.257814,-0.84766 -0.05859,-0.28906 -0.08594,-0.58203 -0.08594,-0.875 -1e-6,-0.29687 0.03125,-0.58985 0.08594,-0.8789 0.05859,-0.29297 0.144526,-0.57423 0.257806,-0.84766 0.113283,-0.27344 0.253909,-0.53125 0.417971,-0.77734 0.164063,-0.2461 0.351563,-0.47266 0.558593,-0.6836 0.210939,-0.20703 0.437501,-0.39453 0.683596,-0.55859 0.246093,-0.16407 0.503904,-0.30469 0.777341,-0.41797 0.273438,-0.11328 0.554689,-0.19922 0.847657,-0.25781 0.289062,-0.0547 0.582031,-0.0859 0.878907,-0.0859 0.29297,0 0.585937,0.0273 0.878905,0.0859 0.289063,0.0586 0.570313,0.14453 0.843751,0.2539 0.273438,0.11328 0.531248,0.25391 0.777343,0.41797 0.246094,0.16406 0.472656,0.35156 0.683594,0.5586 z m 0,0"
     stroke="#e8ebfa"
     stroke-width="3.00194"
     stroke-opacity="1"
     stroke-miterlimit="4"
     id="path4077" />
</svg>
