<svg xmlns="http://www.w3.org/2000/svg" xmlns:xlink="http://www.w3.org/1999/xlink" width="377" zoomAndPan="magnify" viewBox="73 0 250 375" height="500" preserveAspectRatio="xMidYMid meet" version="1.0"><defs><clipPath id="7794450434"><path d="M 37.5 0 L 337.5 0 L 337.5 91.835938 L 37.5 91.835938 Z M 37.5 0 " clip-rule="nonzero"/></clipPath><clipPath id="8ca97da103"><path d="M 37.5 135.84375 L 337.5 135.84375 L 337.5 227.679688 L 37.5 227.679688 Z M 37.5 135.84375 " clip-rule="nonzero"/></clipPath><clipPath id="433a91a727"><path d="M 37.5 276.535156 L 135.191406 276.535156 L 135.191406 375 L 37.5 375 Z M 37.5 276.535156 " clip-rule="nonzero"/></clipPath></defs><g clip-path="url(#7794450434)"><path fill="#657ff7" d="M 37.5 0 L 337.40625 0 L 337.40625 91.835938 L 37.5 91.835938 Z M 37.5 0 " fill-opacity="1" fill-rule="nonzero"/></g><g clip-path="url(#8ca97da103)"><path fill="#657ff7" d="M 37.5 135.84375 L 337.40625 135.84375 L 337.40625 227.679688 L 37.5 227.679688 Z M 37.5 135.84375 " fill-opacity="1" fill-rule="nonzero"/></g><g clip-path="url(#433a91a727)"><path fill="#657ff7" d="M 37.5 276.535156 L 135.191406 276.535156 L 135.191406 374.992188 L 37.5 374.992188 Z M 37.5 276.535156 " fill-opacity="1" fill-rule="nonzero"/></g></svg>