<?xml version="1.0" encoding="UTF-8" standalone="no"?>
<svg
   width="125.72462"
   zoomAndPan="magnify"
   viewBox="0 0 94.293474 95.250002"
   height="127.00001"
   preserveAspectRatio="xMidYMid"
   version="1.0"
   id="svg45645"
   sodipodi:docname="what_section_gear_lg_study.svg"
   inkscape:version="1.2.1 (9c6d41e410, 2022-07-14)"
   xmlns:inkscape="http://www.inkscape.org/namespaces/inkscape"
   xmlns:sodipodi="http://sodipodi.sourceforge.net/DTD/sodipodi-0.dtd"
   xmlns="http://www.w3.org/2000/svg"
   xmlns:svg="http://www.w3.org/2000/svg">
  <sodipodi:namedview
     id="namedview45647"
     pagecolor="#ffffff"
     bordercolor="#111111"
     borderopacity="1"
     inkscape:showpageshadow="0"
     inkscape:pageopacity="0"
     inkscape:pagecheckerboard="1"
     inkscape:deskcolor="#d1d1d1"
     showgrid="false"
     inkscape:zoom="4.99"
     inkscape:cx="101.1022"
     inkscape:cy="65.831663"
     inkscape:window-width="2560"
     inkscape:window-height="1361"
     inkscape:window-x="-9"
     inkscape:window-y="-9"
     inkscape:window-maximized="1"
     inkscape:current-layer="svg45645" />
  <defs
     id="defs45591">
    <clipPath
       id="0d3d30dcb1">
      <path
         d="M 0,0 H 74.25 V 75 H 0 Z m 0,0"
         clip-rule="nonzero"
         id="path45576" />
    </clipPath>
    <clipPath
       id="9ddfed11d9">
      <path
         d="M 40,20.945312 H 53.945312 V 40 H 40 Z m 0,0"
         clip-rule="nonzero"
         id="path45579" />
    </clipPath>
    <clipPath
       id="856246fff3">
      <path
         d="M 36,40 H 53.945312 V 53.945312 H 36 Z m 0,0"
         clip-rule="nonzero"
         id="path45582" />
    </clipPath>
    <clipPath
       id="86437c3da5">
      <path
         d="M 20.945312,22 H 38 V 39 H 20.945312 Z m 0,0"
         clip-rule="nonzero"
         id="path45585" />
    </clipPath>
    <clipPath
       id="ec829baadb">
      <path
         d="M 20.945312,40 H 36 V 53.945312 H 20.945312 Z m 0,0"
         clip-rule="nonzero"
         id="path45588" />
    </clipPath>
    <clipPath
       id="02e5070d0a">
      <path
         d="m 38.394531,40.144531 h 10 v 11 h -10 z m 0,0"
         clip-rule="nonzero"
         id="path48756" />
    </clipPath>
    <clipPath
       id="81867fef19">
      <path
         d="m 47.148438,38.210938 h 6 v 12.933593 h -6 z m 0,0"
         clip-rule="nonzero"
         id="path48759" />
    </clipPath>
    <clipPath
       id="64f756d22e">
      <path
         d="m 25.402344,24.148438 h 19.65625 v 26.996093 h -19.65625 z m 0,0"
         clip-rule="nonzero"
         id="path48762" />
    </clipPath>
    <clipPath
       id="8fec1e24cc">
      <path
         d="M 23.054688,23.992188 H 40 V 37 H 23.054688 Z m 0,0"
         clip-rule="nonzero"
         id="path52371" />
    </clipPath>
    <clipPath
       id="4b0ab0715f">
      <path
         d="M 26,27 H 52.304688 V 50.992188 H 26 Z m 0,0"
         clip-rule="nonzero"
         id="path52374" />
    </clipPath>
    <clipPath
       id="1b34d5f70e">
      <path
         d="M 0,0 H 74.25 V 75 H 0 Z m 0,0"
         clip-rule="nonzero"
         id="path56996" />
    </clipPath>
    <clipPath
       id="8a6a831d1e">
      <path
         d="m 23.386719,24.378906 h 27 v 26.25 h -27 z m 0,0"
         clip-rule="nonzero"
         id="path56999" />
    </clipPath>
  </defs>
  <g
     clip-path="url(#1b34d5f70e)"
     id="g57006"
     transform="matrix(1.2693138,-0.05285128,0.05285128,1.2693138,-1.9516685,1.9720349)"
     style="stroke-width:0.787145;fill:#e8ebfa;fill-opacity:1">
    <path
       fill="#dde0f9"
       d="m 37.121094,75 c -0.640625,0 -1.28125,-0.01563 -1.917969,-0.04687 l -0.542969,-0.03125 -2.199218,-5.757813 c -1.660157,-0.246093 -3.308594,-0.621093 -4.910157,-1.121093 l -4.488281,4.242187 -0.5,-0.210937 c -1.175781,-0.492188 -2.339844,-1.050781 -3.457031,-1.660157 l -0.476563,-0.261718 0.527344,-6.140625 c -1.390625,-0.9375 -2.710938,-1.988281 -3.9375,-3.132813 L 9.332031,62.757812 8.972656,62.347656 C 8.125,61.394531 7.320312,60.390625 6.578125,59.363281 L 6.261719,58.917969 9.410156,53.613281 C 8.5625,52.164062 7.828125,50.644531 7.222656,49.085938 L 1.105469,48.230469 0.957031,47.707031 C 0.613281,46.496094 0.324219,45.242188 0.101562,43.980469 L 0.0078125,43.445312 5.148438,40.023438 C 5.015625,38.355469 5.015625,36.667969 5.148438,35 L 0.0078125,31.582031 0.101562,31.042969 C 0.324219,29.78125 0.613281,28.527344 0.957031,27.316406 l 0.148438,-0.523437 6.117187,-0.851563 c 0.605469,-1.5625 1.339844,-3.078125 2.1875,-4.527344 L 6.261719,16.109375 6.578125,15.667969 C 7.320312,14.636719 8.125,13.632812 8.972656,12.675781 l 0.359375,-0.40625 5.886719,1.878907 c 1.226562,-1.144532 2.546875,-2.195313 3.9375,-3.132813 L 18.628906,4.871094 19.105469,4.613281 C 20.222656,4.003906 21.386719,3.445312 22.5625,2.953125 l 0.5,-0.210937 4.488281,4.238281 c 1.601563,-0.5 3.25,-0.875 4.910157,-1.117188 L 34.65625,0.101562 35.203125,0.0742188 c 1.277344,-0.0664063 2.558594,-0.0664063 3.832031,0 l 0.546875,0.0273432 2.195313,5.761719 c 1.65625,0.242188 3.304687,0.617188 4.910156,1.117188 l 4.488281,-4.238281 0.5,0.210937 C 52.847656,3.441406 54.007812,4 55.132812,4.613281 l 0.476563,0.257813 -0.527344,6.144531 c 1.394531,0.9375 2.714844,1.988281 3.941407,3.132813 l 5.886718,-1.878907 0.359375,0.40625 c 0.847657,0.957031 1.652344,1.964844 2.390625,2.992188 l 0.316406,0.441406 -3.144531,5.304687 c 0.84375,1.445313 1.578125,2.964844 2.183594,4.523438 l 6.121094,0.855469 0.148437,0.523437 c 0.347656,1.238282 0.636719,2.492188 0.851563,3.730469 l 0.09375,0.535156 L 69.089844,35 c 0.132812,1.667969 0.132812,3.355469 0,5.023438 l 5.140625,3.421874 -0.09375,0.535157 c -0.214844,1.234375 -0.503907,2.488281 -0.851563,3.726562 l -0.148437,0.523438 -6.121094,0.855469 c -0.605469,1.5625 -1.339844,3.082031 -2.183594,4.527343 l 3.144531,5.304688 -0.316406,0.441406 c -0.738281,1.027344 -1.542968,2.035156 -2.390625,2.988281 l -0.359375,0.410156 -5.886718,-1.878906 c -1.226563,1.140625 -2.546876,2.191406 -3.941407,3.132813 l 0.527344,6.140625 -0.476563,0.261718 c -1.125,0.609376 -2.285156,1.167969 -3.457031,1.660157 l -0.5,0.210937 -4.488281,-4.242187 c -1.601562,0.5 -3.25,0.875 -4.910156,1.117187 l -2.195313,5.761719 -0.546875,0.02734 C 38.398438,74.984375 37.757812,75 37.121094,75 Z m -1.289063,-1.6875 c 0.859375,0.02734 1.71875,0.02734 2.578125,0 l 2.160156,-5.667969 0.492188,-0.06641 c 1.890625,-0.246094 3.765625,-0.671875 5.582031,-1.269531 l 0.472657,-0.15625 4.410156,4.171875 c 0.785156,-0.34375 1.5625,-0.71875 2.324218,-1.117188 l -0.515624,-6.042969 0.417968,-0.269531 c 1.597656,-1.042969 3.101563,-2.242187 4.472656,-3.558593 l 0.359376,-0.347657 5.789062,1.847657 c 0.558594,-0.648438 1.097656,-1.324219 1.609375,-2.007813 l -3.097656,-5.21875 0.257812,-0.429687 c 0.984375,-1.625 1.820313,-3.355469 2.484375,-5.140626 l 0.175782,-0.464843 6.015624,-0.84375 c 0.222657,-0.832031 0.414063,-1.671875 0.574219,-2.503907 l -5.058593,-3.363281 0.04687,-0.496093 c 0.179688,-1.894532 0.179688,-3.816407 0,-5.707032 l -0.04687,-0.496094 5.058593,-3.363281 C 72.234375,29.96875 72.042969,29.128906 71.820312,28.292969 l -6.015624,-0.839844 -0.175782,-0.46875 c -0.664062,-1.78125 -1.5,-3.511719 -2.484375,-5.140625 l -0.257812,-0.425781 3.097656,-5.21875 C 65.476562,15.515625 64.9375,14.839844 64.375,14.1875 l -5.789062,1.847656 -0.359376,-0.34375 c -1.371093,-1.320312 -2.875,-2.515625 -4.472656,-3.558594 L 53.335938,11.859375 53.851562,5.820312 C 53.089844,5.417969 52.3125,5.046875 51.527344,4.703125 L 47.117188,8.871094 46.644531,8.714844 C 44.828125,8.121094 42.953125,7.695312 41.0625,7.449219 L 40.570312,7.382812 38.410156,1.714844 c -0.859375,-0.03125 -1.71875,-0.03125 -2.582031,0 L 33.667969,7.382812 33.175781,7.449219 C 31.285156,7.695312 29.410156,8.121094 27.59375,8.714844 l -0.472656,0.15625 -4.410156,-4.167969 c -0.789063,0.34375 -1.566407,0.71875 -2.324219,1.117187 l 0.519531,6.039063 -0.417969,0.273437 c -1.597656,1.039063 -3.101562,2.234376 -4.472656,3.558594 L 15.65625,16.035156 9.867188,14.1875 c -0.5625,0.652344 -1.101563,1.324219 -1.609376,2.011719 l 3.09375,5.21875 -0.257812,0.425781 c -0.988281,1.628906 -1.820312,3.359375 -2.480469,5.140625 L 8.4375,27.453125 2.417969,28.292969 c -0.21875,0.820312 -0.410157,1.660156 -0.574219,2.507812 l 5.058594,3.363281 -0.046875,0.496094 c -0.179688,1.890625 -0.179688,3.8125 0,5.707032 l 0.046875,0.496093 -5.058594,3.363281 c 0.164062,0.84375 0.355469,1.683594 0.574219,2.503907 l 6.019531,0.84375 0.175781,0.464843 c 0.65625,1.78125 1.492188,3.511719 2.480469,5.140626 l 0.257812,0.429687 -3.09375,5.21875 c 0.507813,0.683594 1.046876,1.359375 1.609376,2.007813 l 5.789062,-1.847657 0.359375,0.347657 c 1.371094,1.320312 2.875,2.515624 4.472656,3.558593 l 0.414063,0.273438 -0.515625,6.039062 c 0.757812,0.398438 1.535156,0.773438 2.324219,1.117188 l 4.410156,-4.171875 0.472656,0.15625 c 1.8125,0.597656 3.691406,1.023437 5.582031,1.269531 l 0.492188,0.06641 z m 1.289063,-8.808594 c -14.921875,0 -27.0625,-12.105468 -27.0625,-26.992187 0,-14.882813 12.140625,-26.992188 27.0625,-26.992188 14.921875,0 27.058594,12.109375 27.058594,26.992188 0,14.886719 -12.136719,26.992187 -27.058594,26.992187 z m 0,-52.316406 c -14,0 -25.390625,11.359375 -25.390625,25.324219 0,13.964843 11.390625,25.328125 25.390625,25.328125 14,0 25.390625,-11.363282 25.390625,-25.328125 0,-13.964844 -11.390625,-25.324219 -25.390625,-25.324219 z m 0,0"
       fill-opacity="1"
       fill-rule="nonzero"
       id="path57004"
       style="stroke-width:0.619598;fill:#e8ebfa;fill-opacity:1" />
  </g>
  <g
     clip-path="url(#8a6a831d1e)"
     id="g57010"
     transform="matrix(1.2704136,0,0,1.2704136,-0.00992511,-0.03101597)"
     style="stroke-width:0.787145">
    <path
       fill="#000000"
       d="m 50.167969,34.539062 c -0.183594,-0.488281 -0.429688,-0.9375 -0.75,-1.351562 -0.316407,-0.410156 -0.6875,-0.765625 -1.113281,-1.0625 -0.425782,-0.296875 -0.882813,-0.523438 -1.375,-0.675781 -0.492188,-0.15625 -0.996094,-0.234375 -1.515626,-0.234375 -0.515624,0 -1.019531,0.07813 -1.511718,0.234375 -0.492188,0.152343 -0.953125,0.378906 -1.375,0.675781 -0.425782,0.296875 -0.796875,0.652344 -1.113282,1.0625 -0.320312,0.414062 -0.570312,0.863281 -0.75,1.351562 l -0.238281,0.609376 h 9.976563 z m -8.390625,-0.285156 c 0.371094,-0.664062 0.878906,-1.1875 1.53125,-1.570312 0.652344,-0.382813 1.355468,-0.578125 2.109375,-0.578125 0.753906,0 1.453125,0.195312 2.105469,0.578125 0.652343,0.382812 1.160156,0.90625 1.53125,1.570312 z m -13.410156,5.035156 h 0.0039 c 0.371094,0.0039 0.730468,-0.06641 1.074218,-0.207031 0.347657,-0.144531 0.652344,-0.34375 0.917969,-0.609375 0.265625,-0.261718 0.472657,-0.566406 0.621094,-0.910156 0.144531,-0.34375 0.222656,-0.707031 0.230469,-1.082031 0.01172,-0.777344 -0.253906,-1.445313 -0.796875,-1.996094 -0.550781,-0.578125 -1.226563,-0.875 -2.023438,-0.882813 h -0.0039 c -0.570313,-0.0078 -1.097656,0.144532 -1.578125,0.460938 -0.476562,0.316406 -0.828125,0.738281 -1.054688,1.273438 -0.222656,0.53125 -0.277343,1.082031 -0.171874,1.652343 0.109374,0.566407 0.367187,1.054688 0.769531,1.464844 0.554687,0.558594 1.226562,0.839844 2.011719,0.835937 z m -1.421876,-4.214843 c 0.386719,-0.402344 0.859376,-0.601563 1.417969,-0.605469 h 0.0078 c 0.554687,0 1.027344,0.199219 1.417968,0.597656 0.382813,0.375 0.574219,0.835938 0.574219,1.375 0,0.261719 -0.05469,0.511719 -0.15625,0.753906 -0.101562,0.242188 -0.242187,0.453126 -0.425781,0.640626 -0.183594,0.183593 -0.394531,0.324218 -0.632812,0.425781 -0.242188,0.101562 -0.488282,0.152343 -0.75,0.15625 -0.546876,0 -1.019532,-0.191407 -1.417969,-0.570313 -0.1875,-0.179687 -0.335938,-0.390625 -0.4375,-0.628906 -0.105469,-0.238281 -0.160157,-0.488281 -0.164063,-0.75 -0.0039,-0.261719 0.04297,-0.511719 0.140625,-0.753906 0.09766,-0.242188 0.242188,-0.457032 0.425781,-0.640625 z m 1.675782,5.339843 c -0.535156,-0.01953 -1.0625,0.04297 -1.578125,0.1875 -0.515625,0.144532 -1,0.363282 -1.445313,0.664063 -0.449218,0.296875 -0.84375,0.65625 -1.179687,1.078125 -0.335938,0.421875 -0.597657,0.882812 -0.792969,1.390625 l -0.238281,0.609375 h 9.976562 L 33.128906,43.734375 C 32.953125,43.265625 32.710938,42.835938 32.410156,42.4375 32.109375,42.039062 31.761719,41.695312 31.359375,41.402344 30.960938,41.105469 30.527344,40.875 30.058594,40.707031 29.59375,40.539062 29.113281,40.441406 28.621094,40.414062 Z m -3.882813,3.035157 c 0.371094,-0.664063 0.878907,-1.1875 1.53125,-1.570313 0.652344,-0.386718 1.355469,-0.578125 2.109375,-0.578125 0.753906,0 1.453125,0.191407 2.105469,0.578125 0.652344,0.382813 1.160156,0.90625 1.53125,1.570313 z M 45.402344,30.09375 h 0.0078 c 0.371094,0.0039 0.730469,-0.06641 1.074219,-0.207031 0.347656,-0.144531 0.652344,-0.34375 0.917969,-0.609375 0.265625,-0.261719 0.472656,-0.566406 0.621094,-0.910156 0.144531,-0.34375 0.222656,-0.707032 0.230468,-1.082032 C 48.265625,26.507812 48,25.839844 47.457031,25.289062 46.90625,24.710938 46.230469,24.414062 45.433594,24.40625 h -0.0039 c -0.570313,-0.0078 -1.097657,0.144531 -1.578126,0.460938 -0.476562,0.316406 -0.828124,0.738281 -1.054687,1.273437 -0.222656,0.53125 -0.28125,1.082031 -0.171875,1.652344 0.109375,0.566406 0.367188,1.054687 0.769531,1.464843 0.554688,0.5625 1.226563,0.839844 2.007813,0.835938 z m -1.417969,-4.214844 c 0.386719,-0.402344 0.859375,-0.601562 1.417969,-0.605468 h 0.0078 c 0.554688,0 1.027344,0.199218 1.417969,0.597656 0.382813,0.375 0.574219,0.835937 0.574219,1.375 0,0.261718 -0.05469,0.511718 -0.15625,0.753906 -0.101563,0.242188 -0.242188,0.453125 -0.425782,0.640625 -0.183593,0.183594 -0.394531,0.324219 -0.632812,0.425781 -0.242188,0.101563 -0.488281,0.152344 -0.75,0.15625 -0.546875,0 -1.019531,-0.191406 -1.417969,-0.570312 -0.1875,-0.179688 -0.335937,-0.390625 -0.4375,-0.628906 -0.105469,-0.238282 -0.160156,-0.488282 -0.164062,-0.75 -0.0039,-0.261719 0.04297,-0.511719 0.140625,-0.753907 0.09766,-0.242187 0.242187,-0.457031 0.425781,-0.640625 z m -1.230469,24.6875 h 5.398438 V 37.277344 h -5.398438 z m 0.953125,-12.324218 h 3.492188 V 49.605469 H 43.707031 Z M 34.601562,50.566406 H 40 v -8.714844 h -5.398438 z m 0.953126,-7.75 h 3.492187 v 6.789063 h -3.492187 z m -9.992188,7.75 h 5.398438 V 46.214844 H 25.5625 Z m 0.953125,-3.390625 h 3.492187 v 2.429688 h -3.492187 z m 6.035156,-12.6875 c -0.07813,-0.117187 -0.109375,-0.246093 -0.08594,-0.382812 0.02344,-0.140625 0.08984,-0.253907 0.203125,-0.335938 l 2.484375,-1.808593 c 0.113281,-0.08203 0.238281,-0.109376 0.378906,-0.08984 0.140625,0.02344 0.25,0.09375 0.332031,0.210937 0.08203,0.113281 0.113281,0.242188 0.08984,0.382813 -0.02344,0.140625 -0.08984,0.253906 -0.207031,0.335937 l -2.480469,1.804688 c -0.117187,0.08203 -0.242187,0.109375 -0.378906,0.08594 -0.140625,-0.02344 -0.25,-0.08984 -0.335938,-0.203125 z m 7.75,-4.988281 -2.480469,1.804688 c -0.117187,0.08203 -0.242187,0.113281 -0.382812,0.08984 -0.136719,-0.02344 -0.25,-0.09375 -0.332031,-0.207031 -0.08203,-0.117188 -0.109375,-0.246094 -0.08594,-0.386719 0.01953,-0.140625 0.08984,-0.25 0.203125,-0.332031 l 2.484375,-1.808594 c 0.113281,-0.08203 0.238281,-0.113281 0.378907,-0.08984 0.140624,0.02344 0.25,0.09375 0.332031,0.207032 0.08203,0.117187 0.113281,0.246094 0.08984,0.386718 -0.02344,0.140626 -0.09375,0.25 -0.207031,0.335938 z m 0,0"
       fill-opacity="1"
       fill-rule="nonzero"
       id="path57008"
       style="stroke-width:0.619598" />
  </g>
  <path
     style="fill:#ffffff;stroke-width:0.99975;stroke-linecap:round;stroke-linejoin:round"
     d="m 46.128269,90.001262 c -0.742309,-1.729929 -1.423628,-3.322619 -1.514037,-3.539298 -0.175776,-0.421272 -0.332326,-0.487807 -1.393316,-0.592146 -2.033311,-0.199954 -5.614573,-0.899561 -7.009048,-1.369235 -0.195855,-0.06593 -0.935909,0.61149 -2.947009,2.697736 l -2.685475,2.78582 -1.442768,-0.643316 c -1.1872,-0.529356 -1.444798,-0.703358 -1.45422,-0.982297 -0.0063,-0.186441 0.058,-1.86498 0.142886,-3.730096 0.08489,-1.865117 0.153659,-3.43623 0.152827,-3.491361 -7.94e-4,-0.05514 -0.575212,-0.465939 -1.276403,-0.91291 -1.69128,-1.078103 -3.901918,-2.718115 -4.766705,-3.536294 -0.383984,-0.363292 -0.802293,-0.654963 -0.929573,-0.648159 -0.127279,0.0068 -1.798364,0.585416 -3.713519,1.285804 l -3.482102,1.273431 -0.364424,-0.401459 c -0.200432,-0.220806 -0.67161,-0.761998 -1.047061,-1.202647 l -0.682637,-0.801188 1.819659,-3.375583 1.819658,-3.375583 -0.289563,-0.446658 C 14.284929,67.79187 12.523276,64.574252 11.961234,63.326067 11.613822,62.554531 11.31826,61.906196 11.30443,61.885322 11.2906,61.864448 9.5907678,61.682421 7.5270253,61.480814 5.4632825,61.279207 3.7251858,61.064507 3.664588,61.003698 3.5816557,60.920478 2.8108583,58.308025 2.8012662,58.077654 2.8003255,58.055061 4.2111533,57.010379 5.9364391,55.756135 8.9255759,53.583103 9.0676174,53.457442 8.9522016,53.088144 8.7893994,52.567227 8.5136823,45.902142 8.6332901,45.37846 c 0.091779,-0.401896 -0.00507,-0.475063 -3.1870788,-2.407862 -1.8049542,-1.096355 -3.302184,-2.008595 -3.3271779,-2.0272 -0.024994,-0.01861 0.078259,-0.69787 0.2294517,-1.509475 0.216381,-1.16154 0.3395271,-1.505208 0.5785328,-1.614532 0.1670008,-0.07639 1.8849511,-0.418844 3.8176676,-0.761011 l 3.5140295,-0.622123 0.449955,-1.318216 c 0.48919,-1.43316 1.759078,-4.341147 2.484863,-5.690223 L 13.648846,28.58149 13.241558,27.92151 C 13.017533,27.558521 12.074246,26.097395 11.145349,24.674563 L 9.4564436,22.087596 10.377366,20.832945 c 0.506508,-0.690057 0.962356,-1.256374 1.012995,-1.258482 0.05064,-0.0021 1.725303,0.44199 3.72148,0.986887 l 3.62941,0.990719 0.952654,-0.918252 c 1.626254,-1.567527 2.928982,-2.700054 4.276121,-3.717446 0.712795,-0.538321 1.292148,-1.051862 1.287451,-1.141204 -0.0047,-0.08934 -0.204001,-1.643564 -0.442894,-3.45383 -0.238894,-1.810266 -0.442482,-3.4673945 -0.452417,-3.6825082 -0.01599,-0.3461608 0.132945,-0.4690711 1.295744,-1.0693597 0.722593,-0.3730347 1.369922,-0.6777239 1.438509,-0.677087 0.06859,6.346e-4 1.409243,1.1186727 2.979237,2.4845243 l 2.854534,2.4833656 1.607376,-0.56133 c 1.357061,-0.473915 3.900443,-1.132237 6.137058,-1.5885004 0.317333,-0.064738 0.58295,-0.2210031 0.635913,-0.3741197 0.05002,-0.1446222 0.562957,-1.6703271 1.139856,-3.3904555 0.576899,-1.7201285 1.091218,-3.2499404 1.14293,-3.3995821 0.08334,-0.241159 0.275015,-0.2747809 1.686805,-0.295881 l 1.592785,-0.023805 1.505004,3.5064519 1.505007,3.5064522 0.679849,0.063881 c 1.494133,0.1403957 4.407887,0.648854 6.061529,1.0577556 l 1.747951,0.43222 2.419765,-2.5175052 c 1.330871,-1.3846276 2.56707,-2.6167721 2.74711,-2.7380985 0.297159,-0.2002515 0.458049,-0.1616249 1.744733,0.4188724 1.242977,0.5607793 1.410302,0.681088 1.359802,0.9777143 -0.03167,0.1860363 -0.105404,1.7279642 -0.163847,3.426505 -0.05844,1.698542 -0.12752,3.265477 -0.153503,3.482079 -0.04227,0.352405 0.110198,0.491053 1.449827,1.318374 1.530941,0.94547 3.406197,2.334825 4.722051,3.498515 l 0.738092,0.65274 3.642549,-1.339951 c 2.296183,-0.844676 3.683157,-1.284986 3.752411,-1.191245 0.06046,0.08179 0.523564,0.620726 1.029203,1.19764 l 0.919345,1.048934 -0.872474,1.64809 c -0.479868,0.906449 -1.301801,2.431596 -1.826522,3.389212 l -0.954048,1.741123 0.625844,0.980298 c 0.973939,1.52555 1.952809,3.335944 2.719669,5.029964 l 0.701808,1.550302 3.755194,0.397532 c 2.065352,0.218643 3.800436,0.400251 3.855732,0.403572 0.103052,0.0062 0.829828,2.46766 0.846447,2.866792 0.0051,0.121904 -1.354155,1.212637 -3.020519,2.42385 l -3.029741,2.202206 0.191472,4.362345 0.191471,4.362344 3.054887,1.85934 c 1.680183,1.022637 3.125706,1.924503 3.212269,2.004149 0.105577,0.09714 0.07111,0.633332 -0.104753,1.628656 -0.144179,0.816113 -0.279158,1.502327 -0.299941,1.524919 -0.02075,0.02259 -1.710543,0.349945 -3.75502,0.727454 -2.044478,0.37751 -3.758507,0.738723 -3.808944,0.802694 -0.05041,0.06397 -0.231415,0.528294 -0.402158,1.031826 -0.408026,1.203309 -1.903569,4.653331 -2.524617,5.82395 l -0.491004,0.925487 2.087252,3.205995 2.087244,3.205994 -0.357981,0.555535 c -0.196897,0.305538 -0.631454,0.888083 -0.965691,1.294537 l -0.607695,0.739014 -3.538415,-0.980062 c -1.946128,-0.539035 -3.612267,-0.976988 -3.70253,-0.973229 -0.09026,0.0038 -0.846051,0.661397 -1.679528,1.461419 -0.833479,0.800021 -2.281171,2.053 -3.217094,2.784391 -1.671059,1.305885 -1.700606,1.339603 -1.642051,1.873542 0.147372,1.343833 0.752662,6.13034 0.832098,6.580058 l 0.08812,0.498891 -1.403005,0.728207 -1.403007,0.728216 -0.99499,-0.830053 c -0.547244,-0.456534 -1.864217,-1.587207 -2.926608,-2.512601 l -1.931617,-1.682541 -1.173307,0.414345 c -1.673968,0.591162 -3.596865,1.120918 -5.485451,1.511247 -0.899789,0.185966 -1.655126,0.396004 -1.678525,0.466751 -0.0234,0.07079 -0.572406,1.707654 -1.220015,3.637569 l -1.177472,3.508938 -1.578298,0.108203 -1.578298,0.108204 z m 7.435496,-8.63001 C 63.778633,79.384554 72.560337,72.937963 77.510551,63.792069 80.534009,58.205994 82.043993,50.949461 81.465182,44.787276 80.619352,35.782452 76.678549,27.942465 70.017698,22.013229 63.28141,16.01684 54.696034,12.953479 45.692327,13.333656 c -3.191265,0.134753 -5.387954,0.506819 -8.515425,1.442322 -13.629275,4.076844 -23.403124,16.341648 -24.378943,30.592142 -0.160899,2.349714 0.199533,7.395144 0.676569,9.47081 2.16944,9.439606 7.625748,17.086704 15.760033,22.087929 4.907009,3.016984 10.407002,4.674608 16.757685,5.050538 1.241206,0.07347 6.06114,-0.312424 7.571519,-0.606145 z"
     id="path4866"
     sodipodi:insensitive="true" />
</svg>
