<?xml version="1.0" encoding="UTF-8" standalone="no"?>
<!-- Created with Inkscape (http://www.inkscape.org/) -->

<svg
   width="32mm"
   height="28mm"
   viewBox="0 0 31.999999 28"
   version="1.1"
   id="svg161640"
   inkscape:version="1.2.1 (9c6d41e410, 2022-07-14)"
   sodipodi:docname="why_section_img3_care_mini.svg"
   xmlns:inkscape="http://www.inkscape.org/namespaces/inkscape"
   xmlns:sodipodi="http://sodipodi.sourceforge.net/DTD/sodipodi-0.dtd"
   xmlns="http://www.w3.org/2000/svg"
   xmlns:svg="http://www.w3.org/2000/svg">
  <sodipodi:namedview
     id="namedview161642"
     pagecolor="#ffffff"
     bordercolor="#111111"
     borderopacity="1"
     inkscape:showpageshadow="0"
     inkscape:pageopacity="0"
     inkscape:pagecheckerboard="1"
     inkscape:deskcolor="#d1d1d1"
     inkscape:document-units="mm"
     showgrid="false"
     inkscape:zoom="5.0293465"
     inkscape:cx="45.035672"
     inkscape:cy="61.936476"
     inkscape:window-width="2560"
     inkscape:window-height="1361"
     inkscape:window-x="-9"
     inkscape:window-y="-9"
     inkscape:window-maximized="1"
     inkscape:current-layer="layer1" />
  <defs
     id="defs161637">
    <clipPath
       id="089255aab5">
      <path
         d="M 0,1 H 75 V 73.703125 H 0 Z m 0,0"
         clip-rule="nonzero"
         id="path155075" />
    </clipPath>
  </defs>
  <g
     inkscape:label="Слой 1"
     inkscape:groupmode="layer"
     id="layer1"
     transform="translate(-102.66376,-98.291617)">
    <path
       fill="#f0f0f8"
       d="m 133.91517,112.4942 -7.6207,13.5594 -15.16506,-0.0438 -7.54228,-13.60318 7.6207,-13.559371 15.16506,0.04379 7.54228,13.603153"
       fill-opacity="1"
       fill-rule="nonzero"
       id="path322-40-9"
       style="fill:#ffffff;fill-opacity:1;stroke-width:0.386524" />
    <path
       stroke-linecap="round"
       fill="none"
       stroke-linejoin="miter"
       d="m 126.4666,125.77906 -15.50578,5e-5 -7.75212,-13.43595 7.75228,-13.437378 15.50579,-6.6e-5 7.75212,13.435934 z m 0,0"
       stroke="#000000"
       stroke-width="0.853091"
       stroke-opacity="1"
       stroke-miterlimit="4"
       id="path98784"
       style="stroke:#e8ebfa;stroke-opacity:1" />
    <g
       clip-path="url(#089255aab5)"
       id="g155082"
       transform="matrix(0.18292939,-6.836308e-4,6.836308e-4,0.18292939,111.71895,105.85867)"
       style="stroke-width:1.92848">
      <path
         fill="#000000"
         d="M 74.964844,31.378906 C 74.9375,30.347656 74.832031,29.328125 74.648438,28.3125 l -3.625,-22.765625 C 70.914062,4.867188 70.679688,4.234375 70.316406,3.648438 69.953125,3.0625 69.492188,2.566406 68.929688,2.164062 l -0.28125,-0.207031 -0.0039,0.00781 C 67.535156,1.269531 66.335938,1.027344 65.042969,1.226562 63.78125,1.429688 62.734375,2.019531 61.910156,2.996094 61.6875,2.886719 61.457031,2.792969 61.222656,2.714844 60.425781,2.457031 59.613281,2.398438 58.789062,2.542969 L 58.644531,2.5625 c -1.226562,0.230469 -2.238281,0.828125 -3.03125,1.785156 l -0.226562,0.28125 c -0.40625,0.554688 -0.691407,1.167969 -0.851563,1.835938 -0.164062,0.667968 -0.191406,1.34375 -0.08203,2.023437 l 2.714844,16.964844 -13.003907,17.863281 -0.04687,0.04687 C 43.628906,43.9375 43.285156,44.589844 43.085938,45.3125 42.886719,46 42.839844,46.699219 42.941406,47.40625 l 2.753906,17.292969 c 0.05859,0.382812 0.25,0.6875 0.574219,0.90625 l 10.273438,7.421875 0.08594,0.07422 c 0.148438,0.105469 0.308594,0.179688 0.488282,0.21875 0.179687,0.04297 0.359374,0.05078 0.539062,0.02344 0.179688,-0.03125 0.347656,-0.09375 0.503906,-0.1875 0.15625,-0.09375 0.289063,-0.214844 0.398438,-0.359375 l 6.609375,-9.082031 c 0.234375,-0.3125 0.316406,-0.664063 0.246093,-1.050782 L 64.710938,58.804688 74.582031,34.300781 C 74.875,33.347656 75.003906,32.375 74.964844,31.378906 Z M 57.628906,6.242188 57.703125,6.136719 C 58.097656,5.648438 58.605469,5.351562 59.226562,5.25 c 0.390626,-0.0625 0.777344,-0.035156 1.15625,0.078125 0.121094,0.035156 0.238282,0.089844 0.347657,0.15625 -0.09766,0.5625 -0.105469,1.125 -0.01953,1.6875 l 2.527343,15.855469 c -0.753906,-0.234375 -1.523437,-0.285156 -2.304687,-0.164063 -0.457032,0.07813 -0.898438,0.210938 -1.320313,0.402344 L 57.179688,8.054688 c -0.101563,-0.664063 0.04687,-1.269532 0.449218,-1.8125 z m 14.367188,27.109374 -9.988282,24.785157 c -0.109374,0.261719 -0.136718,0.535156 -0.07031,0.8125 l 0.65625,3.625 -5.464844,7.492187 -8.789062,-6.351562 -2.667969,-16.691406 c -0.101563,-0.722657 0.08984,-1.359376 0.570313,-1.90625 L 59.765625,26.558594 c 0.367187,-0.503906 0.855469,-0.820313 1.464844,-0.953125 l 0.128906,-0.01953 c 0.617187,-0.105469 1.1875,0.0078 1.714844,0.339843 l 0.121093,0.08984 c 0.550782,0.398437 0.875,0.933594 0.976563,1.601563 0.113281,0.664062 -0.03125,1.269531 -0.433594,1.8125 l -9.339843,12.804687 c -0.105469,0.148437 -0.179688,0.3125 -0.222657,0.488281 -0.04297,0.175782 -0.05078,0.355469 -0.01953,0.535156 0.02734,0.183594 0.08984,0.351563 0.1875,0.503907 0.09375,0.15625 0.21875,0.289062 0.367188,0.394531 0.148437,0.109375 0.308593,0.183594 0.488281,0.226562 0.179687,0.03906 0.359375,0.04688 0.539062,0.01953 0.183594,-0.02734 0.351563,-0.08984 0.507813,-0.1875 0.15625,-0.09375 0.289062,-0.214844 0.394531,-0.363282 L 65.98047,31.04687 c 0.410156,-0.558594 0.695312,-1.171875 0.855469,-1.84375 0.160156,-0.667969 0.183593,-1.34375 0.07422,-2.023437 C 66.828125,26.730469 66.691406,26.300781 66.5,25.886719 L 63.445312,6.742188 c -0.113281,-0.667969 0.03125,-1.273438 0.4375,-1.816407 l 0.07031,-0.09375 c 0.390625,-0.492187 0.898437,-0.789062 1.519531,-0.890625 0.621094,-0.09375 1.199219,0.027344 1.730469,0.367188 l 0.105469,0.074218 c 0.546875,0.398438 0.875,0.929688 0.984375,1.597657 l 3.640625,22.796875 c 0.160156,0.875 0.253906,1.757812 0.28125,2.644531 0.03125,0.65625 -0.04297,1.296875 -0.21875,1.929687 z M 30.851562,43.363281 30.804688,43.316406 17.800781,25.449219 20.511719,8.488281 C 20.621094,7.808594 20.597656,7.132812 20.433594,6.464844 20.273438,5.792969 19.988281,5.179688 19.578125,4.625 L 19.355469,4.347656 C 18.5625,3.386719 17.550781,2.792969 16.324219,2.5625 L 16.179688,2.539062 C 15.355469,2.398438 14.542969,2.457031 13.746094,2.714844 13.511719,2.789062 13.28125,2.882812 13.058594,2.992188 12.234375,2.015625 11.1875,1.429688 9.921875,1.226562 8.632812,1.023438 7.433594,1.269531 6.328125,1.964844 L 6.320312,1.957031 6.035156,2.164062 C 5.472656,2.566406 5.011719,3.0625 4.648438,3.648438 4.285156,4.234375 4.050781,4.867188 3.941406,5.546875 l -3.625,22.769531 C 0.136719,29.328125 0.03125,30.351562 0,31.378906 -0.0351562,32.375 0.0898438,33.347656 0.386719,34.300781 l 9.871093,24.503907 -0.703124,3.863281 c -0.070313,0.382812 0.011718,0.734375 0.246093,1.050781 l 6.609375,9.078125 c 0.109375,0.148437 0.238282,0.265625 0.394532,0.363281 0.15625,0.09375 0.328124,0.15625 0.507812,0.183594 0.179688,0.02734 0.359375,0.02344 0.539062,-0.01953 0.175782,-0.04297 0.339844,-0.117188 0.488282,-0.222657 l 0.08594,-0.07422 10.273438,-7.421875 c 0.324219,-0.21875 0.511719,-0.519531 0.570312,-0.90625 L 32.023438,47.40625 C 32.125,46.699219 32.078125,46.003906 31.882812,45.316406 31.679688,44.589844 31.335938,43.9375 30.851562,43.363281 Z M 14.257812,7.171875 c 0.08203,-0.5625 0.07813,-1.125 -0.01953,-1.6875 0.109375,-0.066406 0.222657,-0.121094 0.347657,-0.15625 C 14.964844,5.214844 15.347656,5.1875 15.738281,5.25 c 0.625,0.101562 1.132813,0.398438 1.527344,0.886719 l 0.07422,0.105469 c 0.398437,0.542968 0.546875,1.148437 0.445312,1.8125 L 15.351562,23.265625 C 14.929688,23.074219 14.488281,22.941406 14.03125,22.863281 13.25,22.742188 12.484375,22.792969 11.726562,23.027344 Z M 29.292969,47.023438 26.625,63.714844 17.839844,70.066406 12.375,62.570312 l 0.652344,-3.625 c 0.06641,-0.277343 0.04297,-0.546874 -0.07031,-0.808593 L 2.96875,33.351562 C 2.792969,32.71875 2.722656,32.078125 2.757812,31.425781 2.78125,30.535156 2.871094,29.652344 3.03125,28.777344 L 6.671875,5.976562 C 6.78125,5.3125 7.109375,4.78125 7.652344,4.382812 L 7.757812,4.308594 c 0.53125,-0.335938 1.109376,-0.460938 1.730469,-0.367188 0.625,0.097656 1.132813,0.394532 1.523438,0.886719 l 0.07031,0.09375 c 0.40625,0.546875 0.554688,1.152344 0.441407,1.820313 L 8.46875,25.886719 c -0.398438,0.839843 -0.546875,1.726562 -0.453125,2.652343 0.089844,0.921876 0.417969,1.761719 0.972656,2.507813 l 9.339844,12.804687 c 0.109375,0.144532 0.242187,0.261719 0.398437,0.355469 0.15625,0.09375 0.324219,0.15625 0.503907,0.179688 0.179687,0.02734 0.355469,0.01953 0.53125,-0.01953 0.179687,-0.04297 0.339843,-0.121094 0.488281,-0.226563 0.144531,-0.105469 0.265625,-0.234375 0.363281,-0.390625 0.09375,-0.152344 0.15625,-0.320312 0.1875,-0.496094 0.03125,-0.179687 0.02344,-0.355468 -0.01563,-0.535156 -0.04297,-0.175781 -0.113281,-0.335938 -0.21875,-0.484375 L 11.226562,29.429688 c -0.398437,-0.542969 -0.542968,-1.148438 -0.433593,-1.8125 0.101562,-0.667969 0.425781,-1.203126 0.976562,-1.601563 l 0.121094,-0.08984 c 0.523437,-0.332031 1.097656,-0.445312 1.710937,-0.339843 l 0.132813,0.01953 c 0.609375,0.132812 1.097656,0.449219 1.464844,0.953125 l 13.523437,18.558594 c 0.484375,0.546874 0.675782,1.183593 0.574219,1.90625 z M 51.410156,22.996094 c 0.492188,-1.175782 0.710938,-2.402344 0.660156,-3.675782 -0.05078,-1.273437 -0.371093,-2.476562 -0.957031,-3.613281 -0.152343,-0.296875 -0.320312,-0.589843 -0.507812,-0.867187 -0.1875,-0.28125 -0.386719,-0.550782 -0.601563,-0.808594 C 49.785156,13.773438 49.554688,13.527344 49.3125,13.292969 49.070312,13.0625 48.8125,12.84375 48.542969,12.640625 48.273438,12.4375 47.996094,12.25 47.707031,12.078125 47.414062,11.90625 47.117188,11.75 46.808594,11.613281 46.5,11.472656 46.1875,11.355469 45.867188,11.25 45.542969,11.148438 45.21875,11.0625 44.886719,10.996094 c -0.328125,-0.06641 -0.664063,-0.113282 -1,-0.144532 -0.335938,-0.02734 -0.671875,-0.03906 -1.011719,-0.02734 -0.335938,0.0078 -0.671875,0.03516 -1.007812,0.08203 -0.332032,0.04687 -0.664063,0.109375 -0.988282,0.195312 -0.328125,0.08203 -0.648437,0.183594 -0.964844,0.304688 -0.316406,0.121094 -0.625,0.257812 -0.921874,0.410156 -0.300782,0.15625 -0.589844,0.324219 -0.871094,0.511719 -0.28125,0.1875 -0.550782,0.390625 -0.808594,0.605469 -0.175781,-0.140625 -0.339844,-0.269532 -0.511719,-0.394532 -0.714843,-0.519531 -1.492187,-0.929687 -2.328125,-1.21875 -0.839844,-0.29297 -1.699218,-0.457033 -2.585937,-0.496095 C 31,10.789062 30.125,10.882812 29.265625,11.101562 c -0.855469,0.222657 -1.664063,0.5625 -2.421875,1.023438 -0.753906,0.453125 -1.425781,1.003906 -2.011719,1.65625 -0.589843,0.652344 -1.070312,1.375 -1.441406,2.167969 -0.371094,0.792969 -0.617187,1.625 -0.738281,2.492187 -0.121094,0.867188 -0.113282,1.734375 0.02344,2.597656 0.371094,1.972657 1.171875,3.75 2.398438,5.339844 3.1875,4.511719 7.445312,7.945313 11.183593,10.707032 0.304688,0.246093 0.660157,0.375 1.054688,0.386718 0.46875,-0.01563 0.875,-0.183594 1.214844,-0.507812 0.785156,-0.667969 1.582031,-1.324219 2.375,-1.984375 1.777344,-1.46875 3.605468,-2.988281 5.308594,-4.589844 2.273437,-2.089844 4.003906,-4.554687 5.199218,-7.394531 z M 37.304688,34.503906 c -4.042969,-3.050781 -8.203126,-6.4375 -10.945313,-11.195312 -1.800781,-3.121094 -1.355469,-6.253906 1.1875,-8.378906 0.292969,-0.242188 0.605469,-0.457032 0.9375,-0.644532 0.332031,-0.183594 0.679687,-0.339844 1.039063,-0.460937 0.359374,-0.121094 0.730468,-0.210938 1.105468,-0.265625 0.378906,-0.05469 0.757813,-0.07422 1.136719,-0.05859 0.382813,0.01172 0.757813,0.0625 1.128906,0.144531 0.371094,0.08594 0.730469,0.203125 1.082031,0.351563 0.351563,0.152344 0.683594,0.332031 1,0.542968 0.316407,0.210938 0.609376,0.449219 0.882813,0.714844 1.214844,1.171875 1.640625,1.1875 2.851563,0.08203 l 0.07031,-0.0625 c 0.425781,-0.433594 0.90625,-0.789063 1.4375,-1.078126 0.535156,-0.285156 1.101562,-0.484374 1.699219,-0.601562 0.59375,-0.117188 1.195312,-0.140625 1.796875,-0.07813 0.605468,0.06641 1.183594,0.214844 1.742187,0.457031 0.582031,0.226563 1.117188,0.535156 1.605469,0.925782 0.488281,0.386718 0.910156,0.839843 1.261719,1.355468 0.351562,0.515625 0.621093,1.070313 0.804687,1.664063 0.183594,0.59375 0.273438,1.203125 0.273438,1.828125 -0.105469,1.644531 -0.644532,3.132812 -1.621094,4.46875 -2.839844,4.261718 -6.707031,7.464844 -10.476562,10.289062 z m 0,0"
         fill-opacity="1"
         fill-rule="nonzero"
         id="path155080"
         style="stroke-width:3.71903" />
    </g>
  </g>
</svg>
