<svg width="596" height="526" preserveAspectRatio="xMidYMid" version="1.0" viewBox="0 0 447 395" xmlns="http://www.w3.org/2000/svg" zoomAndPan="magnify">
 <defs>
  <clipPath id="632c2c32eb">
   <path d="m112 237h0.5v3h-0.5z"/>
  </clipPath>
 </defs>
 <g>
  <path d="m88.5 379c-25.3-6.59-48.6-24.4-60.3-45.1-27.9-49.7 19.2-106 69.7-131 13.7-6.75 28.4-11.8 43.5-15.2 21.2-4.67 42.6-9.33 64.3-9.19 36.9 0.224 74 18.4 73.4 54.7-0.198 11.2-4.21 22.4-11.6 31.8-7.23 9.24-17 16.7-24.3 25.9-9.72 12.3-12.9 27.6-18 41.4-9.29 25.4-33.7 41.2-62 47.7-24.3 5.52-51.3 4.98-74.7-1.1z" fill="#ddc4e8"/>
  <path d="m372 180c25.1 23.1 41.4 59 42.5 91.8 2.67 78.5-84.5 121-157 123-19.7 0.389-39.6-1.86-58.8-6.54-27-6.57-54.3-13.3-79-26.2-42.2-21.9-74-66.4-51.9-111 6.79-13.8 18-25.6 32-33 13.7-7.32 29.3-10.9 43.1-18.1 18.3-9.64 31.1-26.9 45-41.2 25.6-26.3 62.9-31.8 99.1-23.3 31.1 7.33 61.8 23.9 85 45.1z" fill="#f4d4dd"/>
  <path d="m156 114c0.115-0.381 5.02-18.3 15.6-28.3 10.6-10 17.7-5.21 17.8-0.894 0 0 3.23 2.23 2.41 6.69 0 0 4.24 4.11 3.45 10-0.784 5.89-7.44 12.2-7.44 12.2s2.15 14.5 1.09 21.6c-1.5 10.1-3.26 20.8-10.4 28.9-3.28 3.71-8.6 9.32-14.4 11.3-4.6 1.58-11.2 3.38-14.6-0.0927-8.14-8.31-0.855-23.3 0.485-34.9 1.04-8.98 5.84-26.5 5.84-26.5z" fill="#4fa7ed"/>
 </g>
 <path d="m192 92.1c-1.22-0.218-2.5-0.146-3.71 0.171-1.22 0.307-2.38 0.859-3.38 1.64-0.983 0.787-1.89 1.71-2.49 2.83-0.363 0.52-0.56 1.13-0.824 1.7-0.202 0.594-0.363 1.21-0.508 1.81 0.316-0.542 0.547-1.11 0.865-1.63 0.338-0.506 0.601-1.06 0.988-1.51l0.537-0.714 0.605-0.65c0.187-0.23 0.415-0.417 0.636-0.614 0.221-0.19 0.429-0.404 0.679-0.561 0.92-0.728 1.98-1.27 3.09-1.68 1.11-0.402 2.29-0.682 3.51-0.783z" fill-opacity=".478"/>
 <path d="m190 85.2c-2.04-0.741-4.28-0.838-6.4-0.388-1.06 0.234-2.08 0.668-3 1.25-0.932 0.571-1.67 1.41-2.25 2.3 0.83-0.677 1.65-1.3 2.57-1.74 0.918-0.437 1.87-0.806 2.87-1.01 0.994-0.228 2.02-0.348 3.05-0.413 1.04-0.049 2.08-0.0663 3.15 1e-3z" fill-opacity=".478"/>
 <g>
  <path d="m446 183c-2.01 10.4-8.21 20-16.3 26.8-1.95 1.66-4.03 3.18-6.2 4.55-4.48 2.86-9.38 5.05-14.5 6.55-0.497 0.145-1 0.297-1.52 0.42-0.35 0.0998-0.7 0.185-1.06 0.276-10.1 2.45-20.6-0.149-30.7 2.4-0.716 0.182-1.41 0.388-2.11 0.617-9.38 3.1-17.1 10.1-23.7 17.2l-3.47-16.5c-0.165-0.778 4.4-4.09 4.92-4.51 2.52-2.07 5.2-3.97 8.02-5.63 1.87-1.1 3.8-2.12 5.78-2.99 4.46-1.98 9.18-3.03 14-3.56 4.55-0.492 9.17-0.529 13.7-0.451 4.77 0.089 8.9-0.193 13.5-1.77 4.65-1.59 8.91-4.17 12.8-7.17 2.95-2.29 5.71-5.44 7.72-8.12 2e-3 -3e-3 8e-3 -4e-3 0.0101-7e-3 2.73-3.89 3.44-9.06 3.5-13.8 0.0296-2.39-0.811-4.73-1.59-6.99-2.25-6.55-6.32-12.3-8.81-18.8-1.48-3.83-2.6-7.8-3.64-11.8-0.729-2.8-1.5-5.62-1.8-8.5-0.255-2.44-0.392-4.94 4e-3 -7.36 0.534-3.26 1.21-6.73 3.16-9.4 1.18-1.61 2.85-3.22 4.82-3.54 3.16-0.51 7.13 0.472 9.13 2.97 4.12 5.11 0.643 13.2 1.95 19.6 0.849 4.19 1.52 8.36 3.8 12.2 6.45 11 11.1 23.5 8.58 37.3z" fill="#4fa7ed"/>
  <path d="m431 136c-0.661-0.362-1.33-0.7-2.03-0.935-0.698-0.244-1.42-0.448-2.19-0.407l-0.799 0.0378 0.904-0.717c0.208-0.167 0.466-0.428 0.58-0.641 0.0582-0.116 0.0433-0.0953 0.0435-0.153 3e-3 -0.0487-0.0633-0.192-0.0857-0.207-0.0552-0.0611-0.295 0.0328-0.51 0.183-0.225 0.153-0.462 0.353-0.699 0.568-0.474 0.43-0.954 0.923-1.43 1.44-0.469 0.521-0.956 1.08-1.38 1.65l-0.551 0.759 0.192-1.14c0.228-0.655 0.444-1.36 0.594-2 0.151-0.645 0.221-1.29 0.0446-1.35-0.175-0.136-0.609 0.152-0.998 0.528-0.395 0.38-0.809 0.855-1.19 1.34l-0.18 0.23-0.101-0.14c-0.265-0.369-0.628-0.644-1.01-0.835-0.383-0.191-0.799-0.307-1.24-0.341-0.444-0.0301-0.9-0.032-1.38 0.088-0.482 0.096-0.982 0.286-1.49 0.491 0.515-0.31 1.03-0.586 1.53-0.75 0.508-0.196 0.996-0.275 1.47-0.318 0.472-0.0122 0.921 0.0614 1.34 0.215 0.421 0.164 0.807 0.386 1.15 0.779l-0.282 0.0909c0.418-0.582 0.836-1.1 1.29-1.55 0.225-0.223 0.487-0.486 0.735-0.641 0.245-0.153 0.508-0.205 0.738-0.0716 0.11 0.0643 0.195 0.19 0.238 0.382 0.044 0.187 0.0469 0.392 0.0379 0.589-0.0223 0.4-0.0965 0.79-0.18 1.17-0.174 0.763-0.391 1.49-0.65 2.24l-0.358-0.383c0.502-0.675 0.98-1.21 1.48-1.75 0.494-0.535 0.995-1.05 1.51-1.5 0.258-0.224 0.517-0.435 0.789-0.606 0.267-0.145 0.696-0.231 0.995-0.0218 0.0732 0.0812-0.0264 3e-3 5e-3 0.0912 0.0321 0.0839 0.0603 0.189 0.0668 0.334 0.0315 0.285-0.13 0.775-0.289 1-0.317 0.487-0.578 0.675-0.862 0.881l0.107-0.678c0.794 0.0533 1.5 0.323 2.17 0.684 0.654 0.386 1.29 0.819 1.86 1.37z" fill="#29577c" stroke-width=".685"/>
  <path d="m333 210c17.8-6.62 17.3-26.3 17.3-26.3s5.45 2.33 9.11-4.98c1.78-3.57 2-7.34 0.0456-11.8-2.04-4.7-6.47-10.2-14-17-14.7-13.4-30.2-20.2-30.5-29.5-0.147-4.47-3.72-9.41-7.93-11.2-4.56-1.89-9.86-0.0528-12.4 10.2-4.83 19.6 30.1 43.2 30.1 43.2-35.4-16.7-65.1 1.46-65.1 1.46 8.37 39.7 55.6 52.5 73.4 45.9z" fill="#4fa7ed"/>
 </g>
 <path d="m324 162c1.38 1.68 2.91 2.95 4.44 4.23 1.57 1.26 3.06 2.44 4.81 3.7-1.38-2.06-2.34-3.06-3.78-4.32-1.64-1.44-3.2-2.2-5.46-3.61z" fill-opacity=".478"/>
 <path d="m359 167c-2.04-4.7-6.47-10.2-14-17-14.7-13.4-30.1-19.6-30.4-28.9-0.147-4.47-2.46-8.88-6.68-10.6-1.84 1.81-4.85 5.68-5.29 12.5-0.717 11.3 19.2 20.9 30.4 31 8.51 12.5 20.9 25.3 26 13z" fill="#ae312f" fill-opacity=".2"/>
 <g fill="#c9c9c9">
  <path d="m307 124c-0.0107-0.291 0.0909-0.595 0.316-0.74 0.205-0.135 0.475-0.113 0.718-0.0461 0.278 0.076 0.544 0.213 0.765 0.416 0.657 0.604 1.58 2.56 0.301 2.81-1.15 0.228-2.06-1.38-2.1-2.44z" stroke-width=".655"/>
  <path d="m307 117c1.3-0.384 2.32 0.989 2.76 2.14 0.227 0.586 0.295 1.33 0.134 1.94-0.0877 0.33-0.281 0.639-0.574 0.78-0.474 0.224-1.03-0.0624-1.43-0.416-0.861-0.743-2.89-3.85-0.887-4.44z" stroke-width=".772"/>
  <path d="m309 113c1.39-0.406 2.48 1.04 2.96 2.26 0.244 0.619 0.318 1.4 0.147 2.05-0.0932 0.348-0.3 0.676-0.613 0.824-0.507 0.237-1.1-0.0655-1.54-0.439-0.922-0.784-3.1-4.06-0.956-4.69z" stroke-width=".821"/>
  <path d="m314 127c-0.459 0.262-0.985 0.406-1.56 0.129-0.901-0.435-1.75-1.9-2.07-3.35-0.318-1.45-0.158-2.82 0.286-3.75 0.442-1.58 1.73-1.25 2.31-1.16 0.908 0.124 1.52 2.01 2.04 3.49 0.835 2.36 0.0281 4.04-1.02 4.64z" stroke-width=".948"/>
 </g>
 <g>
  <path d="m290 194 0.704-0.589c-1.71-0.58-3.43-1.08-5.19-1.49-0.879-0.203-1.78-0.373-2.69-0.478-0.914-0.0943-1.85-0.166-2.82 0.0119-0.471 0.0956-1.03 0.286-1.34 0.752-0.156 0.218-0.225 0.49-0.214 0.712-5e-3 0.229-0.0123 0.458 0.0696 0.676 0.247 0.895 0.951 1.54 1.67 2.05 1.47 1.01 3.15 1.67 4.86 2.15-1.64-0.653-3.26-1.41-4.56-2.46-0.633-0.528-1.2-1.15-1.35-1.84-0.0643-0.171-0.035-0.346-0.0263-0.513-1e-3 -0.18 0.0534-0.311 0.14-0.421 0.161-0.229 0.518-0.361 0.905-0.422 1.63-0.192 3.41 0.269 5.1 0.646 1.7 0.423 3.4 0.945 5.04 1.53l1.02 0.363-0.317-0.952c-0.37-1.09-0.66-2.24-0.811-3.36-0.0709-0.561-0.116-1.12-0.0569-1.64 0.0191-0.515 0.305-1.01 0.505-1.08 0.137-0.1 0.75 0.231 1.14 0.613 0.43 0.392 0.822 0.846 1.19 1.32 0.741 0.945 1.4 1.96 2.01 2.98l0.819 1.36 0.074-1.52c0.0492-1.01 0.199-2.06 0.515-3.03 0.302-0.944 0.853-1.98 1.84-2.12 0.486-0.0676 1.04 0.0613 1.35 0.429 0.337 0.364 0.479 0.883 0.548 1.39 0.121 1.03-0.0125 2.1-0.238 3.13 0.361-1.01 0.605-2.06 0.568-3.15-0.0293-0.54-0.117-1.11-0.503-1.62-0.385-0.519-1.12-0.784-1.8-0.707-0.708 0.0534-1.28 0.48-1.66 0.936-0.394 0.462-0.629 0.978-0.838 1.5-0.397 1.04-0.607 2.1-0.72 3.2l0.888-0.163c-0.597-1.08-1.26-2.11-2.02-3.12-0.382-0.504-0.789-0.994-1.28-1.46-0.25-0.23-0.517-0.449-0.853-0.645-0.325-0.18-0.806-0.398-1.39-0.236-0.286 0.0777-0.482 0.24-0.622 0.386-0.174 0.152-0.263 0.32-0.353 0.487-0.175 0.339-0.251 0.676-0.292 0.998-0.0744 0.646-0.0487 1.27 0.0413 1.87" fill="#29577c" stroke-width="1.02"/>
  <g>
   <path d="m292 310c-8.65 5.62-7.85 4.78-22.1 9.71-12.6 2.65-17.3 3.43-26 4.56-5.73 0.74-11.5 1.22-17.3 1.44-4.26 0.163-8.54 0.0675-12.8-0.0893-5.23-0.192-10.5-0.481-15.7-1.04-6.26-0.678-12.5-1.5-18.7-2.81-5.95-1.26-11.8-2.9-17.6-4.85-7.82-2.65-15.9-5.86-22.9-9.3-0.456-0.217-0.909-0.433-1.35-0.663-4.15-2.07-8.14-4.2-11.9-6.4-0.387-0.24-0.79-0.484-1.18-0.704-0.448-0.267-0.877-0.529-1.31-0.789-3.5-2.12-6.86-4.41-10.1-6.86-0.48-0.342-0.939-0.691-1.39-1.05-4.54-3.53-8.78-7.37-12.6-11.5-0.472-0.504-0.94-1.01-1.4-1.52-2.74-3.03-5.28-6.21-7.55-9.54-0.0345-0.0357-0.0724-0.0732-0.0977-0.127-1.56-2.21-2.99-4.49-4.3-6.82-0.0173-9e-3 -0.0241-0.0303-0.0306-0.0517-1.44-2.55-2.74-5.19-3.88-7.85-0.104-0.26-0.223-0.524-0.324-0.782-2.04-4.92-3.6-10-4.55-15.3-0.106-0.571-0.216-1.14-0.325-1.71-6.33 1.08-11.2 1.12-16.9 0.418-4.44-0.542-8.74-1.83-12.9-3.8-1.18-0.557-2.36-1.17-3.53-1.83-0.554-0.326-0.988-0.695-1.53-1.04l-0.0571-0.0429c-3.31-2.06-6.52-4.53-9.6-7.38-1.38-1.27-2.73-2.58-3.92-4.03-1.71-2.43-4.27-5.82-6.59-13.5 0 0-3.71 3.45-12.5 1.25-5.62-2.83-7.63-2.89-9.47-8.94 1.56-7.05 15.9-15.7 23.5-23.1 0.0785 0.027 0.15 0.0683 0.227 0.099 0.703-2.31 1.5-4.68 2.41-7.11 0.122-0.314 0.238-0.64 0.371-0.958 1.15-3.05 2.46-6.18 3.93-9.42 0.603-1.31 1.24-2.66 1.89-4.01 2.83-5.83 6.17-12 10-18.3 0.119-0.213 0.246-0.416 0.365-0.606 0.434-0.723 0.865-1.42 1.29-2.09 1.17-1.85 2.43-3.48 3.23-5.42 0.412-1 0.785-3.15 0.785-3.15-0.0728-1.84-0.0348-2.8-0.312-4.39-0.677-3.89-0.919-3.92-1.3-7.28-0.617-5.44-0.946-9.52 2.21-14 1-1.42 2.87-1.31 4.36-1.18 0.924 0.0761 2.45 0.652 3.46 1.38 1.4 1 1.94 1.37 3.78 3.16 1.59 1.88 3.74 4 4.13 7.7 8.6-6.42 19.4-6.47 27.5-6.65 0.561-0.0113 1.13-5e-3 1.69 7e-3 2.25 0.0402 4.48 0.258 6.67 0.602 1.71 0.267 3.4 0.64 5.07 1.08 2.51 0.658 4.95 1.47 7.33 2.37 0.267 0.106 0.53 0.211 0.783 0.319 0.277 0.103 0.537 0.214 0.798 0.331 1.24 0.516 2.44 1.08 3.56 1.66l0.171 0.088c1.42 0.734 2.76 1.51 4.03 2.32 0.578 0.374 1.14 0.759 1.69 1.14 9.16 6.39 11.7 11.9 13.9 16.4 1.05 2.22 1.49 3.62 1.49 3.62s0.0875 0.198 0.153 0.362c87.1-6.89 130 62.2 130 62.2l26.2 16.2 23.7 23.6 7.56 27.2c-8.71 24.6-11.2 26.2-25.8 42.3z" fill="#55c0e7"/>
   <path d="m21.2 197c0.134 2.84 0.16 3.67 0.194 5.99-7.56 5.51-17.4-0.455-17.5-2.03-0.129-1.28 2.55-1.03 4.29-1.76 0.482-0.288 2.03-1.12 2.44-1.44 6.22-4.68 10.2-7.84 10.4-4.11z" fill="#3076b1"/>
   <path d="m61.4 111c1.09-1.05 2.04-1.75 2.86-2.5-2.71-4.02-5.12-8.87-10.1-10-1.38-0.315-2.02-0.288-2.5 0.271 0 0-1.2 2 1.92 5.72 1.14 1.35 1.2 1.74 2.16 3.01 2.27 3.02 2.08 6.9 5.63 3.5z" fill="#3076b1"/>
  </g>
  <g stroke-width=".936">
   <path d="m86.2 206c5.01-2.63 9.53-8.63 10.4-14.3 0.185-1.21 0.192-2.43-0.01-3.64-0.893-5.26-4.87-10.2-9.35-12.7-0.0959-0.0665-0.204-0.126-0.308-0.184-4.57-2.46-10.2-2.04-14.7 0.888-5.23 3.43-10.1 10.2-8.95 16.7 0.456 2.57 1.68 5.08 3.41 7.28l-5e-3 0.01c4.59 5.86 12.8 9.51 19.5 5.99z" fill="#fcfcaf"/>
   <path d="m67.1 200c3.3-20.5 18.6-24.3 20.5-24.7-0.0959-0.0665-0.202-0.121-0.306-0.179-4.58-2.47-10.2-2.04-14.7 0.883-5.23 3.43-10.1 10.2-8.95 16.7 0.456 2.57 1.68 5.08 3.4 7.28z" fill="#e8e534"/>
   <path d="m86.3 206c2.83-1.49 5.21-3.8 7.11-6.42 0.947-1.32 1.76-2.74 2.39-4.24 0.639-1.5 1.1-3.09 1.26-4.73 0.159-1.64-0.0835-3.3-0.566-4.84-0.474-1.55-1.17-3.02-2.02-4.38-1.71-2.71-4.03-5.01-6.78-6.69l0.0464 0.0284c-3.29-1.98-7.25-2.5-11-1.53-1.85 0.477-3.65 1.28-5.23 2.41-1.57 1.1-3.01 2.4-4.27 3.85-2.49 2.9-4.39 6.55-4.58 10.5-0.111 1.95 0.314 3.87 1.02 5.59 0.702 1.73 1.69 3.3 2.85 4.71l-0.0121-0.41-4e-3 8e-3 -0.142 0.229 0.153 0.185c1.19 1.44 2.57 2.7 4.08 3.77 1.51 1.06 3.15 1.92 4.89 2.53 1.73 0.606 3.58 0.912 5.42 0.871 1.85-0.0518 3.7-0.516 5.36-1.4zm0 0c-1.67 0.87-3.53 1.31-5.36 1.34-1.84 0.0401-3.66-0.349-5.36-0.993-1.7-0.641-3.29-1.56-4.71-2.69-1.43-1.12-2.71-2.42-3.79-3.88l0.0121 0.41 7e-3 -5e-3 0.143-0.207-0.157-0.209c-1.05-1.42-1.92-2.97-2.5-4.64-0.59-1.67-0.88-3.42-0.693-5.17 0.363-3.51 2.18-6.79 4.56-9.43 2.39-2.65 5.34-4.82 8.66-5.69 0.828-0.216 1.67-0.349 2.52-0.422 0.845-0.0447 1.7-0.0527 2.54 0.045 0.836 0.0994 1.67 0.251 2.47 0.515 0.411 0.11 0.791 0.289 1.19 0.431 0.364 0.179 0.799 0.361 1.09 0.537l0.0464 0.0284c2.62 1.42 4.94 3.48 6.69 5.98 0.873 1.25 1.61 2.61 2.13 4.07 0.529 1.45 0.834 2.99 0.761 4.56-0.155 3.16-1.45 6.26-3.25 8.91-1.81 2.67-4.2 4.96-7.01 6.5z"/>
   <path d="m92.4 195c-1.86 3.91-5.8 7.03-10.1 7.26-6.8 0.36-12.9-5.88-12.4-12.8 0.264-3.72 2.37-7.63 5.45-9.78 8.22-5.72 19.1 2.53 18.1 11.9-0.13 1.16-0.477 2.31-0.998 3.39z"/>
  </g>
  <g>
   <path d="m107 147c5.16 0.416 9.79-3.44 12.4-7.63 0.349-0.583 0.648-1.19 0.88-1.81 2.83-7.5-3.25-17.1-10.9-18.8-0.784-0.18-1.59-0.264-2.41-0.26-7.15 0.08-14.7 7.46-14.6 14.8 0.0419 1.78 0.868 3.47 1.82 4.91 0.645 0.988 1.44 1.98 2.35 2.93 2.82 3 6.69 5.5 10.5 5.81z" fill="#fcfcaf"/>
   <path d="m96.9 141c0.493-10.1 8.35-18.4 12.9-22.4-0.784-0.18-1.59-0.264-2.41-0.26-7.15 0.08-14.7 7.46-14.6 14.8 0.0419 1.78 0.868 3.47 1.82 4.91 0.647 0.984 1.44 1.98 2.35 2.93z" fill="#e8e534"/>
   <path d="m107 147c1.82 0.146 3.67-0.231 5.34-1.02 1.67-0.777 3.2-1.88 4.51-3.19 0.663-0.654 1.29-1.35 1.85-2.09 0.574-0.736 1.11-1.52 1.53-2.37 0.794-1.73 1.2-3.65 1.13-5.56-0.122-3.84-1.82-7.48-4.35-10.3-1.29-1.4-2.8-2.62-4.53-3.5l-1.34-0.57c-0.459-0.161-0.931-0.278-1.4-0.416-0.937-0.259-1.95-0.371-2.93-0.353-4 0.132-7.63 2.14-10.3 4.88-2.67 2.75-4.6 6.43-4.64 10.3-0.0923 1.99 0.808 3.81 1.83 5.33 1.04 1.54 2.3 2.89 3.66 4.12 1.35 1.23 2.85 2.3 4.47 3.15 1.61 0.843 3.36 1.46 5.18 1.6zm0 0c-3.66-0.364-6.9-2.43-9.47-4.94-1.29-1.27-2.43-2.7-3.34-4.25-0.901-1.54-1.6-3.25-1.4-4.99 0.245-3.55 2.25-6.8 4.81-9.18 1.28-1.21 2.75-2.22 4.32-2.95 1.56-0.742 3.25-1.19 4.92-1.22 0.837-0.0259 1.66 0.0495 2.48 0.265 0.405 0.119 0.818 0.216 1.22 0.348l1.18 0.481c1.54 0.738 2.95 1.76 4.17 3 2.43 2.45 4.26 5.72 4.58 9.27 0.176 1.77-0.0886 3.57-0.739 5.25-0.338 0.835-0.813 1.62-1.33 2.37-0.511 0.76-1.08 1.49-1.71 2.15-1.25 1.34-2.71 2.5-4.36 3.31-1.65 0.802-3.49 1.2-5.31 1.08z"/>
   <path d="m118 131c0.0499 0.407 1.48 4.84-3.68 9.32-5.17 4.48-11.8-0.577-13.5-2.87-1.75-2.3-4.64-8.2 1.04-13.5 5.68-5.25 15.3-0.0357 16.2 7z"/>
   <path d="m18.4 197s0.682 1.57 0.541 2.16c-0.136 0.592-1.4-1.72-1.4-1.72 0.102 1.42-0.768 3.07-0.995 2.69-0.242-0.393 0.0674-2.27 0.0674-2.27-1.33 2.47-4.97 3.05-5.58 1.37-0.26-0.718-0.141-1.82 1.62-3.14 2.87-2.07 6.42-5.1 8.14-4.28 0.835 0.874 0.423 4.17 0.393 6.47-1.79 0.0473-2.78-1.28-2.78-1.28z" fill="#fff"/>
   <path d="m63.6 109c-1.48-0.669-4.06-0.841-4.3-0.819 0.11-0.0807 1.37-0.926 1.42-1.67 0.0606-0.786-1.97 0.66-1.97 0.66s1.1-1.43 0.741-1.84c-0.344-0.42-1.23 1.19-1.23 1.19 0.075-1.51-1.48-5.41-3.11-4.58-1.06 0.546-0.924 2.32-0.7 3.51 2.09 2.83 3.37 5.76 2.19 10.3-3e-3 -2e-3 3.69-3.62 6.95-6.8z" fill="#fff"/>
   <path d="m102 162s-0.116-3.15 1.09-4.2c1.21-1.05 4.1 5.08 3.84 6.78-0.264 1.7-6.87 2.57-7.46 1.31-0.587-1.26 2.53-3.89 2.53-3.89z"/>
  </g>
  <path d="m324 175c12.7 7.73 21.6 19.6 25.5 33.3 3.89 13.6 5.65 28.2 4.55 42-0.979 12.4-12.1 28.4-22.7 37.5-10.3 8.83-34.2 26.8-47.2 27-24.6 0.366-44.4-7.91-66.5-16.3-17-6.48-29.3-26.5-39.2-40.6-6.63-9.47-11.4-20.7-8.73-32.8-2.77-2.12-6.28-2.69-4.44-6.73 1.26-2.76 6.82-0.0299 6.82-0.0299s-5.19-3.8-4.11-6.86c1.07-3.06 6.72 1.41 6.72 1.41-2.75-2.18 13.2-23.6 14.8-25.5 15.1-18.1 39.2-23.9 62.1-25.3 25.7-1.63 51 0.177 72.2 13 0.0737 0.0403 0.141 0.0836 0.208 0.127z" fill="#55c0e7"/>
  <path d="m106 215c-1.1 1.32-2.22 2.61-3.45 3.81-1.22 1.2-2.49 2.37-3.97 3.27l-1.52 0.936 2.01-0.131c0.463-0.0274 1.06 0.0134 1.36 0.166 0.157 0.0899 0.122 0.0773 0.146 0.158 0.0274 0.0626-0.0392 0.343-0.0762 0.391-0.0788 0.153-0.571 0.32-1.04 0.379-0.489 0.067-1.02 0.0843-1.56 0.0828-1.07-7e-3 -2.18-0.0912-3.29-0.223-1.1-0.138-2.26-0.312-3.28-0.567l-2.28-0.57 1.76 1.54c0.703 0.619 1.4 1.32 1.95 2.02 0.553 0.701 0.953 1.5 0.646 1.81-0.275 0.405-1.21 0.545-2.1 0.507-0.903-0.0352-1.88-0.177-2.8-0.372l-0.436-0.0942-0.134 0.318c-0.348 0.836-0.918 1.66-1.55 2.4-0.643 0.737-1.38 1.41-2.2 2-0.825 0.59-1.69 1.16-2.65 1.59-0.95 0.463-1.97 0.821-3.01 1.16 1.1-0.211 2.19-0.47 3.21-0.865 1.04-0.358 1.99-0.853 2.92-1.39 0.897-0.568 1.71-1.22 2.44-1.96 0.726-0.748 1.36-1.53 1.85-2.5l-0.57 0.224c1.03 0.285 2.03 0.474 3.08 0.536 0.517 0.0296 1.05 0.0287 1.58-0.0643 0.526-0.0917 1.1-0.286 1.48-0.754 0.182-0.225 0.302-0.527 0.304-0.844 5e-3 -0.312-0.0737-0.599-0.173-0.858-0.208-0.524-0.51-0.97-0.826-1.39-0.645-0.836-1.36-1.57-2.16-2.28l-0.519 0.971c1.23 0.309 2.35 0.449 3.52 0.59 1.15 0.126 2.31 0.211 3.47 0.2 0.58-0.0106 1.16-0.0414 1.74-0.142 0.563-0.13 1.23-0.189 1.7-0.847 0.104-0.202 0.131-0.324 0.155-0.486 0.0265-0.156 0.0353-0.335-0.0127-0.543-0.0588-0.432-0.567-0.907-0.961-1.02-0.801-0.278-1.37-0.215-1.99-0.148l0.484 0.801c1.48-1.06 2.7-2.3 3.81-3.62 1.07-1.34 2.09-2.72 2.94-4.2z" fill="#29577c" stroke-width="1.21"/>
 </g>
 <g>
  <path d="m108 187c-0.356 5.57-8e-3 12.6 1.38 19.4 1.02 5.88 7.27 18.3 11.1 22.3-4.74-6.58-9.76-20.5-10-23.9-1.51-6.09-1.38-17.9-2.42-17.8z" stroke-width="1.6"/>
  <path d="m104 194c-2.79 3.18-7.68 15.2-8.33 17.9-2.93 6.76-3.83 25-2.28 31.2-1.08-9.3 1.9-27.8 3.49-31 1.9-7.3 8.21-17.6 7.12-18.1z" stroke-width="1.83"/>
  <path d="m122 154c0.975-4.12 7.93-15.1 9.75-17.2 3.81-6.31 18.2-17.6 24.1-19.9-8.2 4.51-21.5 17.6-23.2 20.8-4.84 5.78-9.59 16.9-10.6 16.3z" stroke-width="1.83"/>
  <path d="m107 192c-2.42 7.72-5.21 16.3-6.08 24.7-0.517 11.4 3.73 26.9 7.76 32.3-4.48-11.1-6.76-22.3-6.19-32.7 0.641-8.04 5.89-23.6 4.51-24.3z" stroke-width="1.95"/>
  <path d="m126 152c4.89-6.45 10.3-13.7 16.6-19.3 8.51-6.88 23.9-12.5 30.8-12.4-11.6 2.78-22.1 7.4-30.2 13.9-6.18 5.18-15.8 18.5-17.2 17.8z" stroke-width="1.95"/>
 </g>
 <g>
  <path d="m139 132c0.353 1.78 0.708 3.56 0.973 5.36 0.144 0.891 0.263 1.79 0.344 2.68 0.0755 0.887 0.117 1.81-0.0342 2.6l-0.0396 0.222 0.169 0.177c0.524 0.539 1.04 1.14 1.45 1.76 0.405 0.599 0.691 1.39 0.449 1.71-0.108 0.15-0.173 0.198-0.481 0.129-0.281-0.0779-0.596-0.262-0.894-0.47-0.596-0.424-1.16-0.976-1.67-1.52l-1.47-1.57 0.577 2.07c0.223 0.806 0.405 1.65 0.525 2.48 0.119 0.829 0.195 1.68 0.0969 2.46-0.0446 0.385-0.156 0.754-0.337 0.961-0.21 0.237-0.431 0.357-0.636 0.26-0.523-0.207-1.01-1.05-1.31-1.76l-0.433-1.05-0.273 1.08c-0.346 1.4-0.813 2.79-1.31 4.16-0.504 1.37-1.11 2.7-1.88 3.96 0.937-1.14 1.64-2.45 2.3-3.78 0.635-1.34 1.15-2.72 1.6-4.14l-0.704 0.0318c0.156 0.449 0.335 0.855 0.578 1.26 0.251 0.394 0.536 0.815 1.09 1.08 0.274 0.119 0.651 0.147 0.943 0.0245 0.156-0.0543 0.292-0.123 0.4-0.211 0.119-0.0775 0.23-0.173 0.322-0.291 0.398-0.455 0.524-0.973 0.603-1.44 0.151-0.959 0.0757-1.86-0.0453-2.76-0.123-0.889-0.296-1.75-0.531-2.63l-0.892 0.509c0.566 0.628 1.16 1.18 1.86 1.67 0.361 0.24 0.734 0.473 1.22 0.609 0.133 0.0237 0.261 0.0494 0.401 0.059 0.155-0.0102 0.304-9e-3 0.46-0.0634 0.327-0.105 0.594-0.34 0.743-0.604 0.327-0.549 0.236-1.16 0.0931-1.59-0.153-0.447-0.379-0.819-0.615-1.17-0.489-0.701-1.03-1.31-1.65-1.87l0.129 0.399c0.126-1.01 0.012-1.93-0.112-2.85-0.135-0.909-0.308-1.81-0.507-2.7-0.429-1.77-0.911-3.53-1.51-5.25z" fill="#29577c"/>
  <path d="m349 275c9.34-20.9-8.9-38-8.9-38 12.6-26.1 3.57-43.2-9.1-40.1-1.88 0.448-7.83 1.88-11.8 2.17-29 2.14-51 1.54-56.5 2.97-10 3.97-9.44 14.4 0.566 21 15.6 5.74 29.9 4.22 51.1 1.29-53 15.8-67.1 57.1-61 67 10.5 23.5 44.3 18.6 44.3 18.6s16.2 0.231 45.4-26.7z" fill="#4fa7ed"/>
  <path d="m306 236c0.984 0.524 2.01 0.961 3.06 1.35 1.05 0.393 2.13 0.694 3.28 0.813 0.578 0.0156 1.18 0.0708 1.81-0.219 0.642-0.334 1.06-0.919 1.14-1.66 0.0418-0.732-0.265-1.37-0.624-1.87-0.373-0.505-0.789-0.912-1.29-1.29l-0.316 0.922c2.32 0.16 4.61 0.26 6.97-0.0919 0.591-0.124 1.18-0.206 1.8-0.588 0.308-0.248 0.66-0.512 0.672-1.11-0.0309-0.606-0.465-0.893-0.735-1.06-1.2-0.606-2.34-0.677-3.52-0.802l0.126 0.692c1.09-0.594 2.13-1.22 3.11-1.96 0.98-0.73 1.92-1.51 2.77-2.39-0.974 0.725-1.96 1.41-3.01 2.01-1.04 0.601-2.09 1.2-3.17 1.68l-1.13 0.501 1.25 0.192c1.08 0.167 2.26 0.409 3.11 0.877 0.206 0.124 0.279 0.266 0.253 0.26 0.0181-9e-3 -0.0335 0.0581-0.0595 0.114l-0.187 0.151c-0.365 0.214-0.933 0.319-1.45 0.415-1.08 0.164-2.22 0.188-3.34 0.199-1.13 6e-3 -2.26-0.0298-3.39-0.103l-1.77-0.112 1.45 1.04c0.788 0.563 1.62 1.45 1.59 2.26 6.9e-4 0.379-0.279 0.83-0.604 1.01-0.372 0.219-0.92 0.241-1.43 0.254-1.06-0.0325-2.13-0.275-3.2-0.523-1.07-0.268-2.12-0.606-3.17-0.961z" fill="#2a587d"/>
  <path d="m340 237c-1.57 1.74-2.98 3.54-4.42 5.31l-2.18 2.65-2.26 2.62c2.07-1.1 3.77-2.79 5.25-4.59 0.726-0.916 1.41-1.86 2.02-2.86 0.613-0.994 1.17-2.03 1.6-3.13z" fill="#29577c"/>
 </g>
 <path d="m325 298c-1.71 0.977-3.43 1.93-5.18 2.82-1.74 0.917-3.49 1.79-5.27 2.61-3.55 1.66-7.16 3.19-10.9 4.38-1.85 0.617-3.72 1.17-5.62 1.61-1.9 0.436-3.82 0.723-5.76 0.933-1.94 0.194-3.89 0.183-5.82-0.0555-1.94-0.209-3.85-0.709-5.67-1.5 1.72 1.01 3.64 1.63 5.6 2.02 1.97 0.346 3.97 0.454 5.96 0.354 3.98-0.207 7.87-1.15 11.6-2.35 3.74-1.29 7.4-2.83 10.9-4.66 3.5-1.83 6.91-3.84 10.1-6.16z" fill-opacity=".478"/>
 <path d="m304 218c24.3-4.68 36.4-7.97 31.5-20.6-1.9-0.319-4.07-0.237-6.44 0.269-18.3 3.95-61.7 2.37-66.3 4.44-0.0121-2e-3 -0.01 0.0103-0.0209 9e-3 -1.08 2.02-1.86 4.84-0.437 7.87 2.76 5.9 16.8 12.8 41.6 7.99z" fill="#ae312f" fill-opacity=".2"/>
 <g fill="#c9c9c9">
  <path d="m265 207c0.26-0.302 0.622-0.568 1.12-0.639 0.423-0.0645 0.903 0.0157 1.37 0.0974 0.753 0.129 1.61 0.308 2.09 0.805 1.15 1.19-0.557 3.02-2.06 3.09-2.45 0.114-3.51-2.21-2.52-3.35z" stroke-width=".864"/>
  <path d="m266 204c0.111 0.329 0.325 0.661 0.728 0.879 0.341 0.188 0.784 0.278 1.22 0.361 0.698 0.137 1.5 0.268 2.11 0.02 1.43-0.593 0.645-2.63-0.624-3.17-2.07-0.88-3.85 0.662-3.43 1.91z" stroke-width=".782"/>
  <path d="m277 202c1.01-0.215 2.1-0.289 3.1 0.104 1.58 0.619 2.62 2.36 2.63 3.99s-0.881 3.11-2.14 4.06c-0.852 0.645-1.94 1.09-3.05 0.905-1.72-0.279-4.08-2.44-4.48-4.14-0.635-2.72 1.65-4.43 3.95-4.93z" stroke-width="1.41"/>
  <path d="m271 202c0.078 0.176 0.218 0.317 0.368 0.426 1.18 0.856 3.72-0.419 2.4-1.94-0.93-1.08-3.44-0.0312-2.77 1.52z" stroke-width=".783"/>
  <path d="m269 212c-4e-3 0.257 0.0852 0.506 0.202 0.723 0.929 1.7 4.6 1.59 3.87-0.999-0.512-1.83-4.03-1.98-4.07 0.275z" stroke-width="1.03"/>
 </g>
 <path d="m134 168-2.58 30.3" fill="#323039" stroke-width=".75"/>
 <g fill="#ffe4dc" stroke-width=".375">
  <path d="m96.4 57.2s0.0299 0.0204 0.0649 0.0333c0.0328 0.0138 0.0674 0.0271 0.0674 0.0271-0.0511-0.0238-0.098-0.0442-0.133-0.0601z"/>
  <path d="m97.7 57.1 6e-3 0.0105 0.0922-0.0706z"/>
  <path d="m94.4 56.4-0.24-0.14 0.44 0.28z"/>
 </g>
 <g fill="#06b8eb" stroke-width=".375">
  <path d="m95.3 57.5c5.6e-4 -8.26e-4 0.0269 0.0172 0.0588 0.0249 0.0281 0.0106 0.0583 0.0208 0.0583 0.0208-0.0419-0.0225-0.0845-0.0368-0.117-0.0459z"/>
  <path d="m111 37.4c0.0187-0.0293 0.0266-0.0486 0.0515-0.087-0.0358 0.0366-0.0679 0.0721-0.1 0.109-9e-3 0.0304-0.0166 0.0612-0.0249 0.0881 0.025-0.0365 0.0498-0.0748 0.0739-0.11z"/>
  <path d="m96.4 57.4 0.0101 0.0222 0.0722-0.0709z"/>
 </g>
 <g transform="matrix(.228 -.333 .294 .201 -2.78 46.7)" clip-path="url(#632c2c32eb)" stroke-width=".989">
  <path d="m113 238-0.0977-0.773 0.082 1.46z" fill="#06b8eb" stroke-width=".977"/>
 </g>
 <g fill="#06b8eb" stroke-width=".375">
  <path d="m83.6 36.9c0.0162-0.0079 0.033-0.0424 9e-3 -0.0495l-0.0505 0.0418z"/>
  <path d="m83.5 36.7c-0.0411 0.0083-0.0998 0.0349-0.117 0.094 0.0577-0.035 0.0492-0.0102 0.115-0.0528 0.0247 0.0083 0.0241 0.0412 7e-3 0.0584 0.0181-0.0087 0.0241 0.0337 0.0588 0.0078 3e-5 -0.0592-0.0325-0.0833-0.0902-0.0729-2.6e-4 -0.0174 0.0169-0.0266 0.0249-0.0345z"/>
  <path d="m81.6 35.3 9e-3 0.0137c-1e-3 -0.0059-5e-3 -0.0107-9e-3 -0.0137z"/>
  <path d="m80.1 35.1c0.0125-0.0026 0.0172-0.0093 0.0161-0.0157-0.0101 0.0069-0.0189 0.0118-0.0161 0.0157z"/>
  <path d="m79.8 35.3c7e-3 -0.0088 0.0134-0.0137 0.0188-0.0197-0.01 0.0045-0.0189 0.0118-0.0188 0.0197z"/>
  <path d="m81.6 35.3-0.0218-0.0397c-0.0143 0.015 8e-3 0.0248 0.0218 0.0397z"/>
  <path d="m83.2 36.7c0.01 0.0016 0.0178 0.0011 0.0282-0.0017-8e-3 -3.44e-4 -0.0144-0.0037-0.0207-0.0068z"/>
  <path d="m82.2 35.6 0.0104 0.0071c7e-3 -4e-3 0.0143-0.0092 0.0234-0.0165z"/>
  <path d="m82.6 35.9c-7e-3 -0.0097-0.0411 0.033-0.0579 0.05 0.0179-0.0145 0.0304-0.0173 0.0411-0.0156 6e-3 -0.0094 0.0116-0.0189 0.0168-0.0344z"/>
  <path d="m83.2 36.4 0.015 0.0029c-3e-3 -1e-3 -0.0102-8.18e-4 -0.015-0.0029z"/>
  <path d="m81.9 35.4c3e-3 -0.0065 5e-3 -0.0136 7e-3 -0.0181-3e-3 5e-3 -6e-3 0.0111-7e-3 0.0181z"/>
  <path d="m83.6 37.5c5e-3 -0.0015 7e-3 -0.0017 9e-3 -0.0028-4e-3 -0.0017-0.0102-8.18e-4 -9e-3 0.0028z"/>
  <path d="m83.7 36.8 3e-3 0.0079 0.0286-0.0072z"/>
  <path d="m79.4 35.7 3e-3 -0.0028c3e-3 -0.0148-1.9e-4 -0.0075-3e-3 0.0028z"/>
  <path d="m78.5 39.9c-0.0106-0.0683 0.0996-0.0025 0.0723-0.0899-7e-3 0.0219-0.103 0.029-0.0723 0.0899z"/>
  <path d="m83.2 36.7c-5e-3 -0.0037-0.0121-0.0071-0.0172-0.0118 6e-3 9e-3 0.0103 0.012 0.0172 0.0118z"/>
  <path d="m78.6 39.8-3e-3 -0.0079c2e-3 0.0027 2e-3 0.0065 3e-3 0.0079z"/>
  <path d="m78.8 36.7c0.01 0.0016 0.0167 0.0028 0.0244 0.0013-4e-3 -0.0025-0.0115-0.0029-0.0244-0.0013z"/>
  <path d="m79.3 36-0.0179 0.0164c9e-3 -0.0051 0.0134-0.0099 0.0179-0.0164z"/>
  <path d="m78.6 37.1c-0.01 0.0086-0.0172 0.0073-0.0214 0.0254 3e-3 1e-3 6e-3 -8.99e-4 8e-3 -0.0019-3e-3 -0.0079-1e-3 -0.0161 0.0124-0.024z"/>
  <path d="m78.3 37.5c3e-3 1e-3 7e-3 -0.0011 0.0123-2e-4l6e-3 -0.0148z"/>
  <path d="m83.2 38.6c0.018-0.0015 0.0337 1.51e-4 0.049 0.0049-0.0316-0.013-3e-3 -0.08-0.049-0.0049z"/>
  <path d="m83.2 36.6c-0.0107 0.0098-0.0161 0.0138-0.0237 0.0124l0.0139 0.0045c5e-3 -0.0052 0.01-0.0124 0.0106-0.0175z"/>
  <path d="m78.9 37.3-0.049 0.06c0.0161-0.0158 0.0339-0.0379 0.049-0.06z"/>
  <path d="m81.1 40.9 0.0143-0.0092c-7e-3 2.77e-4 -0.0125 0.0026-0.0143 0.0092z"/>
  <path d="m78.7 37.6c-0.0218 0.0023-0.0388 0.0098-0.0525 0.0176 1e-3 0.0059 1e-3 0.0096 5e-3 0.0147z"/>
  <path d="m81.6 35.3-2e-3 -0.0027c4.1e-4 0.0052 2e-3 0.0073 5.3e-4 9e-3 -3.4e-4 -0.0014 1e-3 -4e-3 7.3e-4 -0.0069z"/>
  <path d="m81.2 40.9 2e-3 0.0126 0.01-0.0143z"/>
  <path d="m82.1 35.9c-2e-3 0.0048-2e-3 0.0101-6.6e-4 0.0167 2e-3 -0.0034 3.7e-4 -0.0083 6.6e-4 -0.0167z"/>
  <path d="m82.3 36 0.0261 0.0407c-0.0109-0.0186-0.0187-0.0318-0.0261-0.0407z"/>
  <path d="m82.5 36.2c8e-3 -0.0057 0.0134-0.0118 0.017-0.017z"/>
  <path d="m79.6 36.1c-1e-3 4e-3 -3e-3 0.0057-2e-3 0.0095-5e-3 0.0251 5.3e-4 9e-3 2e-3 -0.0095z"/>
  <path d="m80.3 35.3c-0.0125 0.0124-0.0233 0.0243-0.0359 0.0327 0.021-9.76e-4 0.0374-3e-3 0.0359-0.0327z"/>
  <path d="m80.2 35.3c0.0213 0.0059 0.0388-1.35e-4 0.0544-0.0105-0.0166-2.47e-4 -0.0379-0.0012-0.0544 0.0105z"/>
  <path d="m83.4 36.8 7e-3 0.0097c3e-3 -0.0042 3e-3 -5e-3 6e-3 -7e-3z"/>
  <path d="m83.4 36.8 0.0138 0.0021c-5e-3 -0.0031-9e-3 -0.0063-0.0138-0.0021z"/>
  <path d="m83.1 36.6-0.0152 0.0144c6e-3 -0.0023 0.0101-0.0069 0.0152-0.0144z"/>
  <path d="m83 36.5c0.0155 0.0168 0.0239 0.0661 0.0564 0.0729l0.0116-0.0111c-0.0285 0.0169-0.0316-0.0771-0.0675-0.0616z"/>
  <path d="m82.8 36.1 0.0586 0.0573c-1e-5 -0.0248 3e-5 -0.0592 0.033-0.0424-0.0481-0.107-9e-3 0.0508-0.0912-0.0146z"/>
  <path d="m82.7 36c0.0408 0.0168 0.016-0.0254 0.025-0.0345-0.0325 6.62e-4 -0.0409 5.79e-4 -0.025 0.0345z"/>
  <path d="m81.2 34.9 0.0285-0.0397c-0.0453-0.0224-0.01 0.0162-0.0285 0.0397z"/>
  <path d="m80.8 35.2 0.0368 0.0202 0.0123-0.0451z"/>
  <path d="m80.5 34.9 0.0134-0.0099-0.0552 0.029z"/>
  <path d="m78.3 37.4 0.0502 0.0205c6e-3 -0.0266-0.0405-0.0641-0.0502-0.0205z"/>
  <path d="m77.9 38.8c-0.0261 0.0224-0.0382 0.0655-9e-3 0.0818 2.2e-4 -0.0324 0.0178-0.068 9e-3 -0.0818z"/>
  <path d="m80.9 41.4-0.025 0.0249 0.0492-0.0274z"/>
  <path d="m82.5 34.1c-0.0126-0.0679 0.101-0.0051 0.0704-0.0912-6e-3 0.0206-0.102 0.0312-0.0704 0.0912z"/>
  <path d="m82.5 34-2e-3 -0.0088c4.1e-4 0.0052 7.5e-4 0.0067 2e-3 0.0088z"/>
  <path d="m85.1 35 0.0172-0.0093c-7e-3 2.77e-4 -0.0125 0.0026-0.0172 0.0093z"/>
  <path d="m85.2 35 2e-3 0.0126 0.0107-0.0137z"/>
  <path d="m81.9 33c-0.027 0.0217-0.04 0.0643-0.0107 0.0823 2.3e-4 -0.0324 0.0199-0.0686 0.0107-0.0823z"/>
  <path d="m84.9 35.5-0.0242 0.0255 0.0501-0.0287z"/>
  <path d="m94.2 44.1c0.0172-0.0073 0.0348-0.0411 0.0106-0.05l-0.0517 0.0409z"/>
  <path d="m94.2 44c-0.0422 0.0075-0.101 0.0321-0.12 0.0896 0.0591-0.0322 0.0507-0.0074 0.118-0.0471 0.0242 0.0091 0.0231 0.0427 6e-3 0.0577 0.0171-0.0073 0.0233 0.035 0.057 0.0105 3e-3 -0.0589-0.0295-0.0851-0.0874-0.077-2.6e-4 -0.0174 0.0178-0.026 0.0268-0.0333z"/>
  <path d="m92.3 42.4 9e-3 0.0145c-1e-3 -0.0059-5e-3 -0.0107-9e-3 -0.0145z"/>
  <path d="m90.8 42.3c0.0119-0.0057 0.0161-0.0119 0.017-0.017-0.011 0.0063-0.0208 0.0126-0.017 0.017z"/>
  <path d="m90.4 42.3 3e-3 -5e-3 0.021-9.76e-4c-0.01-0.0016-0.0167-0.0028-0.0226-0.0016-2e-3 0.0034-3e-3 0.0057-1e-3 0.0077z"/>
  <path d="m92.3 42.4-0.0218-0.0397c-0.0143 0.015 8e-3 0.0248 0.0218 0.0397z"/>
  <path d="m93.8 43.9c0.01 0.0016 0.0179 0.0036 0.0273-3.67e-4 -8e-3 -3.44e-4 -0.0144-0.0037-0.0207-0.0068z"/>
  <path d="m92.8 42.8 0.0103 0.0071c8e-3 -0.0034 0.0143-0.0092 0.0235-0.0146z"/>
  <path d="m93.2 43.1c-8e-3 -0.0105-0.0434 0.0314-0.0602 0.0485 0.0179-0.0145 0.0304-0.0173 0.0422-0.0149 5e-3 -0.0076 0.0116-0.0189 0.0178-0.0337z"/>
  <path d="m93.8 43.6 0.0161 0.0036c-4e-3 -0.0017-0.0121-0.0021-0.0161-0.0036z"/>
  <path d="m92.5 42.6c3e-3 -0.0065 5e-3 -0.0136 7e-3 -0.0181-3e-3 5e-3 -7e-3 0.0123-7e-3 0.0181z"/>
  <path d="m94.2 44.7c5e-3 -0.0015 7e-3 -0.0017 9e-3 -0.0028-5e-3 -0.0023-0.0102-8.18e-4 -9e-3 0.0028z"/>
  <path d="m94.3 44 3e-3 0.0079 0.0279-0.0038z"/>
  <path d="m90 42.8 2e-3 -0.0034c3e-3 -0.0136-7.5e-4 -0.0067-2e-3 0.0034z"/>
  <path d="m89 47.1c-0.0126-0.0679 0.1-0.0038 0.0704-0.0912-6e-3 0.0206-0.103 0.029-0.0704 0.0912z"/>
  <path d="m93.8 43.9c-5e-3 -0.0037-0.0121-0.0071-0.0172-0.0118 8e-3 0.0065 0.0103 0.012 0.0172 0.0118z"/>
  <path d="m89 47 5.7e-4 -8.25e-4 -3e-3 -0.0079c2e-3 0.0027 2e-3 0.0065 2e-3 0.0088z"/>
  <path d="m89.4 43.8c0.01 0.0016 0.0155 2e-3 0.0233 5.94e-4 -4e-3 -0.0025-0.0106-0.0023-0.0233-5.94e-4z"/>
  <path d="m89.9 43.1-0.017 0.0151c9e-3 -0.0051 0.0134-0.0099 0.017-0.0151z"/>
  <path d="m89.2 44.3c-0.0108 8e-3 -0.0181 0.0087-0.0223 0.0268 1e-3 -2.04e-4 6e-3 -8.99e-4 8e-3 -0.0019-2e-3 -0.0088-2.5e-4 -0.0174 0.0132-0.0252z"/>
  <path d="m88.9 44.7c4e-3 0.0017 9e-3 -0.0013 0.0135-0.0019l6e-3 -0.0148z"/>
  <path d="m93.7 45.9c0.0168-0.0023 0.0328 0.0014 0.0478 0.0041-0.0322-0.0121-2.5e-4 -0.0785-0.0478-0.0041z"/>
  <path d="m93.8 43.9c-0.01 0.0086-0.017 0.0131-0.024 0.0103l0.0121 0.0071c7e-3 -4e-3 0.0116-0.0111 0.0115-0.0168z"/>
  <path d="m89.5 44.5-0.0481 0.0625c0.0152-0.0164 0.033-0.0385 0.0481-0.0625z"/>
  <path d="m91.5 48.2 0.0152-0.0125c-7e-3 0.0017-0.0119 0.0057-0.0152 0.0125z"/>
  <path d="m89.3 44.7c-0.0215 0.0043-0.0377 0.0106-0.0511 0.0204 1e-3 0.0059 2e-3 0.0088 5e-3 0.0147z"/>
  <path d="m92.3 42.4-2e-3 -0.0027c4.1e-4 0.0052 7.5e-4 0.0067 5.3e-4 9e-3 -3.4e-4 -0.0014 1e-3 -4e-3 7.2e-4 -0.0069z"/>
  <path d="m91.7 48.1 4e-3 0.0115 9e-3 -0.0149z"/>
  <path d="m92.7 43c-2e-3 0.0048-3e-3 0.0119 2.5e-4 0.0174 2e-3 -0.0034 1e-3 -0.0093-2.5e-4 -0.0174z"/>
  <path d="m93 43.2 0.0241 0.0412c-9e-3 -0.0215-0.0178-0.0332-0.0241-0.0412z"/>
  <path d="m93.2 43.4c7e-3 -4e-3 0.0125-0.0105 0.017-0.0151l-9.1e-4 -6.21e-4z"/>
  <path d="m90.2 43.3c-3e-3 0.0042-4e-3 0.0074-4e-3 0.0113-5e-3 0.0251 5.3e-4 9e-3 4e-3 -0.0113z"/>
  <path d="m90.9 42.4c-0.0125 0.0125-0.0233 0.0243-0.035 0.0334 0.021-9.77e-4 0.0373-0.0052 0.035-0.0334z"/>
  <path d="m90.8 42.5c0.0212 0.0059 0.0386-0.0021 0.0542-0.0126-0.018 0.0015-0.0389 2.18e-4 -0.0542 0.0126z"/>
  <path d="m94 44 9e-3 0.0071c2e-3 -0.0034 3e-3 -5e-3 5e-3 -0.0052z"/>
  <path d="m94 44 0.0138 0.0021c-5e-3 -0.0031-9e-3 -0.0063-0.0138-0.0021z"/>
  <path d="m94 44-0.0301-0.0053c8e-3 0.0057 0.0149 0.0152 0.0301 0.0053z"/>
  <path d="m93.7 43.8-0.0152 0.0144c4e-3 -0.0036 9e-3 -0.0076 0.0152-0.0144z"/>
  <path d="m93.7 43.7c0.0155 0.0168 0.022 0.0666 0.0546 0.0756l0.0116-0.0092c-0.0286 0.0147-0.029-0.0809-0.0661-0.0662z"/>
  <path d="m93.5 43.3 0.056 0.0612c9.6e-4 -0.0262 2e-3 -0.0597 0.0348-0.0411-0.0454-0.111-0.0106 0.05-0.0908-0.0201z"/>
  <path d="m93.3 43.1c0.0397 0.0185 0.017-0.0248 0.0268-0.0333-0.0337-1.51e-4 -0.0421-2.34e-4 -0.0268 0.0333z"/>
  <path d="m91.8 42.1 0.0249-0.0422c-0.0448-0.0233-7e-3 0.0181-0.0249 0.0422z"/>
  <path d="m91.4 42.3 0.038 0.021 0.01-0.0467z"/>
  <path d="m91.2 42.1 0.0153-0.0106-0.0562 0.0303z"/>
  <path d="m88.9 44.6 0.0508 0.0194c6e-3 -0.0266-0.0415-0.0627-0.0508-0.0194z"/>
  <path d="m88.5 46c-0.027 0.0217-0.04 0.0643-0.0107 0.0823 2.3e-4 -0.0324 0.0189-0.0672 0.0107-0.0823z"/>
  <path d="m91.3 48.7-0.0482 0.0358 0.091-0.0466z"/>
  <path d="m93 41.2c-0.0123-0.0657 0.1-0.0059 0.0695-0.0918-7e-3 0.022-0.102 0.0332-0.0695 0.0918z"/>
  <path d="m93.1 41.1-3e-3 -0.0079c2e-3 0.0027 1e-3 0.0059 3e-3 0.0079z"/>
  <path d="m93.1 38.5c-0.0108 8e-3 -0.018 0.0067-0.0223 0.0247 1e-3 -2.04e-4 6e-3 -8.99e-4 7e-3 -0.0011-2e-3 -0.0088-2.5e-4 -0.0174 0.0151-0.024z"/>
  <path d="m92.8 38.9c6e-3 -8.98e-4 9e-3 -0.0013 0.0135-0.0019l8e-3 -0.0136z"/>
  <path d="m93.4 38.7-0.0519 0.058c0.0161-0.0138 0.035-0.0353 0.0519-0.058z"/>
  <path d="m95.6 42.3 0.0143-0.0092c-6e-3 8.98e-4 -0.0114 8.32e-4 -0.0143 0.0092z"/>
  <path d="m93.2 39c-0.021 9.76e-4 -0.0369 0.0071-0.0516 0.0162 1e-3 0.0059 2e-3 0.0088 5e-3 0.0147z"/>
  <path d="m95.7 42.2 2e-3 0.0126 0.0107-0.0137z"/>
  <path d="m92.9 38.8 0.05 0.0231c6e-3 -0.0266-0.0397-0.0653-0.05-0.0231z"/>
  <path d="m92.4 40.2c-0.0242 0.0237-0.0335 0.0667-6.2e-4 0.0797-4e-3 -0.0312 0.0106-0.0672 6.2e-4 -0.0797z"/>
  <path d="m95.4 42.8-0.0521 0.0293 0.0933-0.0353z"/>
  <path d="m99.6 47.7c0.0152-0.0106 0.0312-0.0436 6e-3 -0.0511l-0.048 0.0454z"/>
  <path d="m99.5 47.5c-0.0408 0.0102-0.0982 0.0398-0.113 0.0984 0.0574-0.0371 0.0502-0.0116 0.114-0.0577 0.0247 0.0083 0.0269 0.0395 0.0113 0.0574 0.0162-0.0079 0.025 0.0325 0.0573 5e-3 -2e-3 -0.0587-0.0353-0.0815-0.0931-0.0686-2.6e-4 -0.0174 0.0169-0.0267 0.024-0.0351z"/>
  <path d="m97.5 46.2 0.0104 0.0145c-2e-3 -0.0065-5e-3 -0.0107-0.0104-0.0145z"/>
  <path d="m96 46c0.0106-0.0039 0.0153-0.0106 0.0161-0.0157-0.011 0.0063-0.0198 0.0112-0.0161 0.0157z"/>
  <path d="m95.7 46.1c7e-3 -0.0088 0.0134-0.0137 0.0187-0.0215-0.0101 0.0069-0.017 0.0131-0.0187 0.0215z"/>
  <path d="m97.5 46.2-0.0236-0.0372c-0.0124 0.0162 9e-3 0.0235 0.0236 0.0372z"/>
  <path d="m99.2 47.5c0.01 0.0016 0.0178 0.0011 0.027-0.0025-8e-3 -3.44e-4 -0.0143-0.0036-0.0201-0.0052z"/>
  <path d="m98.1 46.5 0.0103 0.0071c7e-3 -4e-3 0.0143-0.0112 0.0225-0.0171z"/>
  <path d="m98.5 46.7c-0.01-0.0079-0.0409 0.0351-0.0574 0.0542 0.0179-0.0164 0.0311-0.0207 0.0418-0.0192 4e-3 -0.0082 0.01-0.0201 0.0159-0.035z"/>
  <path d="m99.2 47.2 0.0161 0.0011c-4e-3 -0.0017-0.0111-0.0014-0.0161-0.0011z"/>
  <path d="m97.8 46.3c4e-3 -0.0074 4e-3 -0.0142 6e-3 -0.0187-3e-3 5e-3 -4e-3 0.0123-6e-3 0.0187z"/>
  <path d="m99.5 48.3c5e-3 -0.0015 7e-3 -0.0017 9e-3 -0.0013-5e-3 -0.0023-0.01-0.0016-9e-3 0.0013z"/>
  <path d="m99.7 47.6 4e-3 0.0092 0.027-0.0025z"/>
  <path d="m95.3 46.5 2e-3 -0.0034c3e-3 -0.0136-7.5e-4 -0.0067-2e-3 0.0034z"/>
  <path d="m94.4 50.8c-0.0126-0.0679 0.1-0.0059 0.0695-0.0918-6e-3 0.0206-0.101 0.0321-0.0695 0.0918z"/>
  <path d="m99.1 47.5c-6e-3 -0.0029-0.0121-0.0071-0.0178-0.011 8e-3 0.0065 0.0133 0.0103 0.0178 0.011z"/>
  <path d="m94.5 50.7 5.7e-4 -8.25e-4 -3e-3 -0.0079c2e-3 0.0027 1e-3 0.0059 2e-3 0.0088z"/>
  <path d="m94.7 47.6c0.01 0.0016 0.0155 2e-3 0.0244 0.0013-5e-3 -0.0031-0.0115-0.0029-0.0244-0.0013z"/>
  <path d="m95.2 46.9-0.018 0.0146c9e-3 -0.0051 0.0134-0.0099 0.018-0.0146z"/>
  <path d="m94.5 48c-0.0108 8e-3 -0.0171 0.0073-0.0213 0.0254 1e-3 -2.04e-4 5e-3 -0.0015 7e-3 -0.0011-2e-3 -0.0088-2.6e-4 -0.0174 0.0132-0.0252z"/>
  <path d="m94.2 48.4c6e-3 -8.98e-4 9e-3 -0.0013 0.0135-0.0019l6e-3 -0.0148z"/>
  <path d="m99 49.4c0.018-0.0015 0.0337 1.51e-4 0.0478 0.0041-0.0316-0.013-3e-3 -0.0787-0.0478-0.0041z"/>
  <path d="m99.2 47.4c-0.0107 0.0098-0.0161 0.0138-0.0237 0.0124l0.015 0.0053c4e-3 -0.0059 9e-3 -0.013 9e-3 -0.0187z"/>
  <path d="m94.8 48.2-0.049 0.0619c0.0161-0.0158 0.033-0.0385 0.049-0.0619z"/>
  <path d="m97 51.7 0.0171-0.0093c-7e-3 0.0011-0.0125 0.0026-0.0171 0.0093z"/>
  <path d="m94.6 48.5c-0.0219 0.0022-0.0378 0.0084-0.0513 0.0183 1e-3 0.0059 2e-3 0.0088 5e-3 0.0147z"/>
  <path d="m98.8 50.4c1e-3 -4e-3 1.6e-4 -0.0061 2e-3 -0.0101-7e-3 0.0017-0.0106 0.0039-0.0163 0.0061l9e-3 0.0145z"/>
  <path d="m97.5 46.2-2e-3 -0.0027c3.4e-4 0.0014 7.5e-4 0.0067-9e-5 0.0099 1e-3 -4e-3 2e-3 -0.0048 7.2e-4 -0.0069z"/>
  <path d="m97.1 51.7 2e-3 0.0126 0.0107-0.0137z"/>
  <path d="m98 46.7c-2e-3 0.0048-2e-3 0.0101 1e-3 0.0161 2e-3 -0.0034 3.7e-4 -0.0083-1e-3 -0.0161z"/>
  <path d="m98.3 46.9 0.0259 0.0387c-0.01-0.0178-0.0184-0.0298-0.0259-0.0387z"/>
  <path d="m98.5 47c8e-3 -0.0057 0.0116-0.0111 0.0161-0.0157l-3.4e-4 -0.0014z"/>
  <path d="m96.2 46.1c-0.0116 0.0111-0.0232 0.0222-0.0362 0.0307 0.0221-2.25e-4 0.0374-3e-3 0.0362-0.0307z"/>
  <path d="m94.8 48.2-9.1e-4 -6.21e-4 -5e-3 0.0068z"/>
  <path d="m96.1 46.2c0.0207 0.0068 0.0379 0.0012 0.0536-0.0092-0.0168-3.09e-4 -0.0371-0.0025-0.0536 0.0092z"/>
  <path d="m99.3 47.6 9e-3 0.0071c2e-3 -0.0034 4e-3 -0.0044 5e-3 -0.0052z"/>
  <path d="m99.3 47.6 0.0144 0.0012c-5e-3 -0.0023-0.01-0.0054-0.0144-0.0012z"/>
  <path d="m99.4 47.6-0.0298-0.0032c8e-3 0.0057 0.0167 0.0126 0.0298 0.0032z"/>
  <path d="m99.1 47.4-0.0143 0.015c6e-3 -0.0023 9e-3 -0.0076 0.0143-0.015z"/>
  <path d="m99 47.4c0.0161 0.016 0.026 0.0656 0.0593 0.0713l0.0116-0.0111c-0.0285 0.0169-0.0357-0.076-0.0707-0.0595z"/>
  <path d="m98.8 46.9 0.0591 0.0543c8e-5 -0.0247-8.9e-4 -0.0579 0.0312-0.0436-0.0518-0.104-5e-3 0.0498-0.0907-0.0105z"/>
  <path d="m98.6 46.8c0.0416 0.0131 0.0142-0.0266 0.024-0.0351-0.0333 0.0019-0.0419 2e-3 -0.024 0.0351z"/>
  <path d="m97.1 45.9 0.0303-0.0385c-0.0431-0.0184-8e-3 0.0174-0.0303 0.0385z"/>
  <path d="m96.7 46.1 0.0345 0.0236 0.0132-0.0464z"/>
  <path d="m96.4 45.8 0.0143-0.0092-0.0556 0.0269z"/>
  <path d="m93.8 49.7c-0.0251 0.0209-0.0382 0.0636-9e-3 0.0818 2.3e-4 -0.0324 0.0178-0.068 9e-3 -0.0818z"/>
  <path d="m96.8 52.2-0.0251 0.0249 0.0494-0.0254z"/>
  <path d="m98.3 44.9c-0.0146-0.0673 0.0999-8e-3 0.0686-0.0925-6e-3 0.0206-0.102 0.0332-0.0686 0.0925z"/>
  <path d="m98.3 44.8-4e-3 -0.0092c3e-3 0.0033 2e-3 0.0065 4e-3 0.0092z"/>
  <path d="m98.5 42.1c-0.0108 8e-3 -0.018 0.0067-0.0224 0.0249 3e-3 1e-3 6e-3 -8.99e-4 7e-3 -0.0011-1e-3 -0.0081-2.6e-4 -0.0174 0.0151-0.024z"/>
  <path d="m98.2 42.5c5e-3 -0.0015 8e-3 -0.0019 0.0135-0.0019l6e-3 -0.0148z"/>
  <path d="m98.8 42.3-0.049 0.0619c0.0161-0.0158 0.033-0.0385 0.049-0.0619z"/>
  <path d="m101 45.9 0.0143-0.0092c-6e-3 8.98e-4 -0.0125 0.0026-0.0143 0.0092z"/>
  <path d="m98.6 42.5c-0.0219 0.0022-0.0378 0.0084-0.0513 0.0183 1e-3 0.0059 1e-3 0.0096 5e-3 0.0147z"/>
  <path d="m103 44.6c1e-3 -4e-3 -7.5e-4 -0.0067 2e-3 -0.0101-7e-3 0.0017-0.0125 0.0026-0.0163 0.0042l7e-3 0.0162z"/>
  <path d="m101 45.8 3e-3 0.0132 0.01-0.0143z"/>
  <path d="m98.2 42.4 0.0517 0.0182c5e-3 -0.0251-0.0415-0.0627-0.0517-0.0182z"/>
  <path d="m97.7 43.8c-0.0251 0.0209-0.0363 0.0648-7e-3 0.0814 2.3e-4 -0.0324 0.0166-0.0688 7e-3 -0.0814z"/>
  <path d="m101 46.4-0.0516 0.0335 0.0928-0.0395z"/>
  <path d="m107 37.8c0.018-0.0015 0.0328 0.0014 0.049 0.0049-0.0322-0.0121-1e-3 -0.0793-0.049-0.0049z"/>
  <path d="m107 38.8c1e-3 -4e-3 1.5e-4 -0.0061 2e-3 -0.0101-7e-3 0.0017-0.0106 0.0039-0.0163 0.0061l7e-3 0.0137z"/>
  <path d="m89 40.4c0.0171-0.0093 0.0348-0.043 9e-3 -0.0508l-0.0514 0.0431z"/>
  <path d="m88.9 40.2c-0.0411 0.0083-0.0997 0.0348-0.117 0.094 0.0588-0.0342 0.0503-0.0095 0.117-0.0519 0.0235 0.0075 0.0241 0.0412 8e-3 0.0572 0.0162-0.0079 0.0231 0.033 0.0567 0.0084 1e-3 -0.0584-0.0325-0.0833-0.0902-0.0729-2.5e-4 -0.0174 0.0178-0.026 0.025-0.0345z"/>
  <path d="m87 38.8 9e-3 0.0145c-7.5e-4 -0.0067-4e-3 -0.0101-9e-3 -0.0145z"/>
  <path d="m85.5 38.7c0.0119-0.0057 0.0152-0.0125 0.016-0.0176-0.0117 0.0073-0.0199 0.0132-0.016 0.0176z"/>
  <path d="m85.2 38.7c6e-3 -7e-3 0.0125-0.0124 0.017-0.019-8e-3 0.0043-0.0153 0.0106-0.017 0.019z"/>
  <path d="m87 38.8-0.0206-0.0389c-0.0152 0.0164 7e-3 0.024 0.0206 0.0389z"/>
  <path d="m88.6 40.2c0.01 0.0016 0.0178 0.0011 0.0273-3.67e-4 -6e-3 -0.0029-0.0144-0.0037-0.0207-0.0068z"/>
  <path d="m87.6 39.1 0.0104 0.0071c7e-3 -4e-3 0.0143-0.0112 0.0234-0.0165z"/>
  <path d="m88 39.4c-9e-3 -0.0071-0.0421 0.0343-0.0589 0.0514 0.0179-0.0145 0.0314-0.0187 0.0411-0.0156 6e-3 -0.0094 0.0124-0.0201 0.0177-0.0356z"/>
  <path d="m88.6 39.9 0.0155 2e-3c-5e-3 0.0015-0.0117-6.25e-4 -0.0155-2e-3z"/>
  <path d="m87.3 38.9c3e-3 -0.0065 6e-3 -0.0148 6e-3 -0.0187-3e-3 5e-3 -4e-3 0.0123-6e-3 0.0187z"/>
  <path d="m88.9 41c3e-3 -0.0028 7e-3 -0.0017 8e-3 -0.0019-5e-3 -0.0031-8e-3 -0.0042-8e-3 0.0019z"/>
  <path d="m89.1 40.3 4e-3 0.0092 0.027-0.0025z"/>
  <path d="m84.8 39.2 1e-3 -2.04e-4c3e-3 -0.0148-1.9e-4 -0.0075-1e-3 2.04e-4z"/>
  <path d="m83.8 43.4c-0.0114-0.0671 0.101-0.0051 0.0704-0.0912-6e-3 0.0206-0.102 0.0312-0.0704 0.0912z"/>
  <path d="m88.6 40.2c-5e-3 -0.0037-0.0114-0.0078-0.0172-0.0118 8e-3 0.0065 0.0133 0.0103 0.0172 0.0118z"/>
  <path d="m83.9 43.3 5.7e-4 -8.26e-4 -3e-3 -0.0079c4.1e-4 0.0052 1e-3 0.0059 2e-3 0.0088z"/>
  <path d="m84.1 40.2c0.01 0.0016 0.0167 0.0028 0.0244 0.0013-4e-3 -0.0025-0.0106-0.0023-0.0244-0.0013z"/>
  <path d="m84.7 39.5-0.018 0.0146c9e-3 -0.0051 0.0134-0.0099 0.018-0.0146z"/>
  <path d="m83.9 40.7c-0.01 0.0086-0.0172 0.0073-0.0214 0.0254 1e-3 -2.04e-4 5e-3 -0.0015 7e-3 -0.0011-2e-3 -0.0088-2.6e-4 -0.0174 0.0132-0.0252z"/>
  <path d="m83.6 41.1c5e-3 -0.0015 8e-3 -0.0019 0.0135-0.0019l6e-3 -0.0148z"/>
  <path d="m88.4 42.2c0.0175-0.0034 0.0325-6.62e-4 0.0488 0.0027-0.0328-0.0113-6e-3 -0.0782-0.0488-0.0027z"/>
  <path d="m88.6 40.2c-0.0107 0.0098-0.0161 0.0138-0.0237 0.0124l0.0139 0.0045c5e-3 -0.0052 0.01-0.0124 0.0106-0.0175z"/>
  <path d="m84.2 40.9-0.049 0.0618c0.0161-0.0158 0.033-0.0385 0.049-0.0618z"/>
  <path d="m86.4 44.5 0.0162-0.0079c-7e-3 2.78e-4 -0.0113 8.33e-4 -0.0162 0.0079z"/>
  <path d="m84 41.1c-0.021 9.76e-4 -0.0367 0.0092-0.0513 0.0183 1e-3 0.0059 2e-3 0.0088 6e-3 0.013z"/>
  <path d="m87 38.8-3e-3 -0.0019c2e-3 0.0027 2e-3 0.0065 2e-3 0.0088-2e-3 -0.0027-4.1e-4 -0.0052-1.9e-4 -0.0075z"/>
  <path d="m86.5 44.4 2e-3 0.0126 0.0107-0.0137z"/>
  <path d="m87.5 39.4c-2e-3 0.0048-2e-3 0.0101 1e-3 0.0161 1e-3 -4e-3 -5.3e-4 -9e-3 -1e-3 -0.0161z"/>
  <path d="m87.7 39.6 0.025 0.04c-8e-3 -0.0197-0.0175-0.031-0.025-0.04z"/>
  <path d="m87.9 39.7c8e-3 -0.0057 0.0116-0.0111 0.0162-0.0158l-3.5e-4 -0.0014z"/>
  <path d="m85 39.7c-3e-3 0.0042-4e-3 0.0059-6e-3 0.01-5e-3 0.0251 5.3e-4 9e-3 6e-3 -0.01z"/>
  <path d="m85.7 38.8c-0.0107 0.0137-0.0214 0.0254-0.034 0.034 0.021-9.76e-4 0.0373-0.0051 0.034-0.034z"/>
  <path d="m84.2 40.9-9.1e-4 -6.21e-4 -4e-3 0.0059z"/>
  <path d="m85.6 38.9c0.0224 0.0042 0.0374-3e-3 0.0528-0.0154-0.0168 0.0023-0.0374 3e-3 -0.0528 0.0154z"/>
  <path d="m88.7 40.3 8e-3 0.0105c1e-3 -4e-3 3e-3 -5e-3 6e-3 -7e-3z"/>
  <path d="m88.8 40.3 0.0138 0.0021c-5e-3 -0.0037-0.01-0.0054-0.0138-0.0021z"/>
  <path d="m88.8 40.3-0.029-0.0045c7e-3 5e-3 0.0155 0.0118 0.029 0.0045z"/>
  <path d="m88.5 40.1-0.0134 0.0137c3e-3 -0.0028 8e-3 -0.0057 0.0134-0.0137z"/>
  <path d="m88.4 40.1c0.0155 0.0168 0.0239 0.0661 0.0575 0.0736l0.0116-0.0111c-0.0296 0.0161-0.0327-0.0778-0.0687-0.0624z"/>
  <path d="m88.2 39.6 0.0566 0.0578c-1e-5 -0.0248 1e-3 -0.0584 0.0339-0.0418-0.048-0.107-9e-3 0.0495-0.0903-0.0159z"/>
  <path d="m88 39.5c0.0409 0.0168 0.016-0.0254 0.0241-0.0332-0.0325 6.62e-4 -0.0409 5.79e-4 -0.0241 0.0332z"/>
  <path d="m86.5 38.5 0.0294-0.041c-0.0453-0.0224-9e-3 0.0187-0.0294 0.041z"/>
  <path d="m86.2 38.7 0.0379 0.0186 8e-3 -0.0461z"/>
  <path d="m85.9 38.5 0.0134-0.0099-0.0539 0.0319z"/>
  <path d="m86.2 44.9s-5e-3 0.0052-0.0134 0.0118c-9e-3 0.0051-0.0225 0.0132-0.0225 0.0132 0.0135-0.0019 0.0599-0.0258 0.0599-0.0258z"/>
  <path d="m87.6 37.7c-0.0155-0.066 0.0997-0.01 0.0677-0.0931-6e-3 0.0206-0.102 0.0354-0.0677 0.0931z"/>
  <path d="m87.7 37.6 5.6e-4 -8.25e-4 -4e-3 -0.0092c4e-4 0.0052 2e-3 0.0065 4e-3 0.0101z"/>
  <path d="m90.3 38.7 0.0153-0.0106c-7e-3 0.0017-0.0125 0.0026-0.0153 0.0106z"/>
  <path d="m90.4 38.6 2e-3 0.0126 0.01-0.0143z"/>
  <path d="m87.1 36.6c-0.0281 0.0189-0.0455 0.0606-0.0172 0.0818 3e-3 -0.032 0.0242-0.0674 0.0172-0.0818z"/>
  <path d="m90.1 39.2-0.0507 0.0321 0.0928-0.0395z"/>
 </g>
 <g>
  <path d="m78.8 31.2 0.212 0.351z" fill="#fffce6" stroke-width=".375"/>
  <path d="m112 168c-0.61 0.218 0.769 1.94 1.1 2.51 0.901 1.57 1.46 2.94 1.54 3.64 0.0367 0.327 0.0926 1.18-0.215 2.1-0.236 0.708-0.785 1.5-1.12 1.87-0.286 0.32-0.849 0.863-1.46 1.26-0.973 0.631-2.03 1.11-2.04 1.37-7e-3 0.299 1.18 0.146 2.34-0.31 0.763-0.301 2.09-1.07 2.47-1.4 0.904-0.789 1.49-1.59 1.96-2.75 0.322-0.791 0.32-1.64 0.317-2.44-4e-3 -1.19-0.554-2.51-1.28-3.82 0 0 1.4-8e-4 2.48-0.312 0.89-0.257 1.96-0.674 2.53-1.13 0.67-0.539 0.847-0.742 1.42-1.57 0.659-0.95 0.73-1.57 0.86-2.28 0.206-1.12-0.0422-2.02-0.415-1.86-0.265 0.114-0.722 2.05-1.37 2.66-0.374 0.352-1.3 1.48-3.33 2.07-1.81 0.524-5.15 0.169-5.78 0.394z"/>
  <path d="m125 157c3.77-4.13 9.09-8.77 14.9-12.5 4.95-3.36 18.3-7.52 23.8-7.59-8.04 1.18-21.6 7.3-24.2 9.43-5.44 3.16-13.8 11.4-14.5 10.6z" stroke-width="1.6"/>
 </g>
 <g transform="matrix(-1.07 .232 .368 1.11 334 138)" stroke-width=".888">
  <g transform="matrix(.721 -.237 .231 .741 11.7 -4.39)" stroke-width="1.16">
   <path d="m206 109c-0.34-0.394-15.8-19.2-33.9-25.8-18.1-6.58-24.1 2.68-22 7.86 0 0-2.71 4.26 0.644 9.15 0 0-2.93 7 1.14 13.6 4.07 6.6 15.4 10.7 15.4 10.7s5.09 18.3 10.2 26.2c7.18 11.3 15 23.1 27.8 29.1 5.92 2.77 15.3 6.77 23.3 6.23 6.38-0.43 15.3-1.58 17.5-7.41 5.41-13.9-11.4-28.1-19.1-41.2-6.02-10.1-21.1-28.5-21.1-28.5z" fill="#4fa7ed"/>
   <g fill-opacity=".478">
    <path d="m151 101c1.36-0.871 2.94-1.42 4.56-1.65 1.63-0.243 3.32-0.17 4.94 0.25 1.6 0.443 3.18 1.09 4.5 2.11 0.714 0.435 1.28 1.06 1.9 1.61 0.559 0.605 1.08 1.25 1.57 1.9-0.669-0.485-1.25-1.05-1.91-1.51-0.677-0.432-1.28-0.953-1.99-1.3l-1.03-0.579-1.07-0.469c-0.348-0.179-0.721-0.288-1.09-0.41-0.368-0.115-0.731-0.264-1.12-0.326-1.5-0.404-3.06-0.519-4.62-0.45-1.55 0.0792-3.12 0.336-4.65 0.829z"/>
    <path d="m150 91.3c2.06-1.9 4.71-3.13 7.5-3.66 1.4-0.253 2.86-0.248 4.28-0.0116 1.43 0.211 2.76 0.844 3.94 1.6-1.36-0.389-2.68-0.718-4.02-0.782-1.34-0.0588-2.68-0.0216-4 0.236-1.32 0.227-2.61 0.595-3.9 1.04-1.27 0.46-2.55 0.964-3.8 1.58z"/>
    <path d="m231 186c-7.93 0.0342-15.9-1.48-23.3-4.65-0.943-0.334-1.81-0.861-2.71-1.29-0.885-0.468-1.83-0.852-2.66-1.41l-2.58-1.58c-0.861-0.516-1.64-1.16-2.47-1.74-1.68-1.13-3.16-2.5-4.72-3.78-1.45-1.41-2.97-2.74-4.3-4.27-2.78-2.94-5.25-6.17-7.51-9.52-1.15-1.67-2.17-3.42-3.21-5.14-0.967-1.78-1.96-3.54-2.84-5.36-3.49-7.18-6.27-14.7-8.03-22.5-2.61-0.738-5.09-1.79-7.48-3.08-2.43-1.39-4.78-3.06-6.59-5.3-1.83-2.23-3.04-4.9-3.61-7.71-0.488-2.73-0.328-5.6 0.89-8.17-0.334-0.689-0.651-1.38-0.928-2.11-0.192-0.534-0.368-1.07-0.5-1.64-0.0761-0.293-0.135-0.577-0.177-0.873-0.149-0.843-0.186-1.73-0.0505-2.63 0.0721-0.441 0.181-0.879 0.361-1.3 0.141-0.351 0.305-0.664 0.557-0.996-0.42-2.04 0.11-4.17 1.26-5.8 1.2-1.72 3.01-2.88 4.92-3.57 3.89-1.29 8.05-0.996 11.9-0.0906 3.9 0.921 7.61 2.47 11.2 4.18 3.58 1.81 6.95 4.01 10.1 6.48 0.743 0.577 1.49 1.18 2.21 1.78 5.43 4.51 10.3 9.63 14.9 15 5.17 6.1 9.95 12.5 14.3 19.3-4.42-6.66-9.32-13-14.6-19-4.49-5.06-9.18-9.93-14.4-14.2-0.937-0.782-1.89-1.53-2.86-2.27-3.15-2.41-6.5-4.56-10-6.29-3.57-1.66-7.25-3.15-11.1-4.04-3.78-0.881-7.8-1.11-11.4 0.102-1.76 0.654-3.4 1.71-4.45 3.24-1.06 1.5-1.5 3.45-1.05 5.26l0.0542 0.25-0.192 0.225c-0.402 0.45-0.71 1.23-0.805 1.96-0.117 0.756-0.0871 1.54 0.0568 2.32 0.0654 0.46 0.177 0.923 0.326 1.38 0.0852 0.311 0.197 0.621 0.303 0.929 0.289 0.748 0.629 1.48 0.995 2.22l0.119 0.23-0.123 0.265c-1.14 2.28-1.36 5.13-0.867 7.73 0.532 2.62 1.7 5.17 3.37 7.24 1.7 2.1 3.93 3.72 6.28 5.08 2.36 1.31 4.92 2.38 7.5 3.08l0.302 0.0819 0.0748 0.316c1.7 7.79 4.46 15.4 7.94 22.6 1.78 3.6 3.73 7.11 5.94 10.5 2.2 3.34 4.61 6.56 7.33 9.5 1.3 1.51 2.8 2.85 4.21 4.26 1.54 1.28 3 2.65 4.64 3.79 3.17 2.44 6.67 4.4 10.3 6.12 7.27 3.27 15.2 4.93 23.1 5.03z"/>
   </g>
  </g>
 </g>
 <g transform="matrix(.304 -1.86 -1.82 -.298 783 -168)" stroke-width=".115">
  <path d="m-185 243c-14.9-1.37-22.2 11.4-24 14.2-1.85 2.79-4.31 13.9-0.615 23.2 3.69 9.22 12.5 14.4 21.9 15 9.43 0.643 20.1-8.15 22.4-13.7 2.26-5.58 5.13-11.8 2.46-20.4-2.67-8.58-10.5-17.2-22.2-18.2z" fill="#657ff7"/>
  <path d="m-236 277c-0.66 0.779 0.834 1.53 1.38 1.48 0.991-0.083 1.87-0.771 2.76-1.18 1.16-0.536 2.75-0.707 3.77 0.254 1.02 0.961 0.713 2.33 0.0915 3.42-0.307 0.54-0.817 1.12-0.921 1.75-0.161 0.99 0.758 1.18 1.49 0.99 1.65-0.431 2.14-2.73 3.21-3.89 0.859-0.933 2.33-1.45 3.51-0.89 0.494 0.234 0.874 0.656 1.05 1.2 0.289 0.889-0.195 2.04 0.686 2.63 1.78 1.2 3.2-1.12 3.61-2.63 0.465-1.7 0.752-3.41 2.67-3.83 1.1-0.242 2.27-0.265 3.39-0.378 1.28-0.129 2.56-0.258 3.84-0.387 0.788-0.0795 0.782 1.21 0 1.29-1.16 0.117-2.33 0.235-3.49 0.352-1.17 0.119-2.54 0.0641-3.67 0.429-1.03 0.332-1.2 1.39-1.42 2.35-0.226 0.958-0.536 1.9-1.09 2.71-0.906 1.32-2.42 2.04-3.93 1.47-0.592-0.226-1.12-0.649-1.42-1.24-0.387-0.754 0.0556-2.32-0.666-2.77-0.645-0.396-1.61 0.0316-2.09 0.501-0.727 0.698-1.12 1.75-1.68 2.58-0.825 1.22-2.12 2.15-3.62 1.8-1.39-0.322-1.91-1.76-1.4-3.07 0.427-1.1 2.53-3.48 0.194-3.78-2.02-0.26-3.57 2.12-5.65 1.55-1.48-0.405-2.6-2.28-1.46-3.62 0.525-0.62 1.39 0.293 0.869 0.91z" fill="#657ff7"/>
  <g fill="#4458a2">
   <path d="m-208 268c2.38-4.78 6.78-11.3 14.2-15.2 7.41-3.93 14.1-4.07 18.4-3.5 3.11 0.414 5.46 1.25 6.7 1.77-0.494-0.514-1.02-1.01-1.56-1.49-1.3-0.419-2.99-0.854-5-1.12-4.43-0.594-11.3-0.456-18.9 3.58-7.62 4.04-12.1 10.7-14.6 15.6-0.965 1.94-1.69 3.75-2.22 5.26 0.0564 0.65 0.133 1.3 0.232 1.96 0.531-1.75 1.4-4.18 2.73-6.85z"/>
   <path d="m-162 271c0.0637-0.47 0.114-0.946 0.149-1.43-0.752-1.19-1.81-2.41-2.75-3.14 0.266-0.834 0.512-1.68 0.734-2.52 1.09 0.872 1.97 2.08 2.02 2.89 2e-3 0.0274 7e-3 0.053 0.0131 0.0778-0.0409-0.768-0.123-1.56-0.254-2.37-0.452-0.559-1-1.08-1.56-1.49 0.208-0.854 0.39-1.7 0.542-2.54-0.175-0.511-0.369-1.02-0.58-1.53-0.173 1.2-0.418 2.46-0.722 3.72-0.0989 0.0291-0.187 0.0941-0.244 0.193-0.0981 0.173-0.0662 0.387 0.0645 0.523-0.59 2.3-1.37 4.62-2.26 6.75-0.13 0.0248-0.245 0.115-0.301 0.251-0.0548 0.132-0.0409 0.276 0.0253 0.391-0.471 1.07-0.971 2.09-1.49 3.02-7e-3 8e-3 -0.0131 0.0154-0.0188 0.0231-0.0163 0.0257-0.0294 0.0539-0.04 0.0813-0.293 0.52-0.591 1.01-0.894 1.47-0.896 1.36-1.91 2.7-3.07 4.02-0.107 0.0154-0.208 0.0753-0.276 0.174-0.0449 0.0659-0.0695 0.141-0.0752 0.217-2.43 2.71-5.46 5.38-9.24 8.16-2 1.46-4.14 2.77-6.31 2.44-0.136-0.0214-0.267 0.0316-0.356 0.129-0.686-0.292-1.36-0.624-2.02-0.994 1.22-0.577 2.39-1.18 3.54-1.82 3e-3 0 5e-3 9.7e-4 7e-3 9.7e-4 0.0351 0 0.0711-4e-3 0.106-0.0137 0.103-0.0291 0.186-0.0975 0.239-0.185 5.1-2.89 9.47-6.36 13-10.4 3.26-3.7 6.14-8.9 8-14.2 0.0449-0.0137 0.0883-0.0359 0.128-0.0684 0.171-0.138 0.207-0.388 0.0907-0.574 0.557-1.67 1.01-3.35 1.35-5-0.195-0.389-0.403-0.775-0.619-1.16-0.0891 0.516-0.191 1.03-0.306 1.56-2.18-2.94-5.97-5.11-8.06-6.15 2.58 0.431 5.24 1.43 7.5 3.45 0.0752 0.0676 0.168 0.0992 0.258 0.101-0.434-0.696-0.904-1.38-1.41-2.04-4.91-3.22-10.9-2.84-14.3-2.25-6.89 1.2-13.5 4.91-18.7 10.5-1.99 2.12-3.71 4.46-5.14 6.95-0.0613-0.0137-0.127-0.0137-0.191 6e-3 -0.218 0.0641-0.346 0.301-0.284 0.529 0.0196 0.0718 0.0392 0.141 0.058 0.211-1.95 3.58-3.29 7.43-3.92 11.4 0.161 0.402 0.335 0.794 0.516 1.18 0.094-0.0659 0.163-0.169 0.181-0.296 0.0923-0.668 0.204-1.33 0.336-1.99 1.42 3.86 3.51 7.48 6.11 10.6 0.481 0.376 0.973 0.736 1.48 1.07 2e-3 -2e-3 3e-3 -3e-3 6e-3 -5e-3 0.164-0.163 0.172-0.434 0.0172-0.606-3.17-3.52-5.66-7.8-7.19-12.4-0.0205-0.0607-0.0531-0.112-0.0932-0.156 0.281-1.15 0.621-2.28 1.01-3.38 1.71 4.89 3.91 9.08 6.55 12.5 2.82 3.61 6.19 6.37 9.85 8.08 0.785 0.141 1.57 0.251 2.37 0.328-0.0115-0.166-0.114-0.316-0.275-0.375-4.21-1.53-8.12-4.49-11.3-8.57-2.73-3.49-4.98-7.88-6.7-13-9e-3 -0.0265-0.0204-0.0522-0.0335-0.0761 0.422-1.06 0.896-2.1 1.42-3.12 2.26 7.69 5.75 13.6 10.4 17.6 0.852 0.739 1.77 1.41 2.73 2.02v9.6e-4c0.067 0.161 0.218 0.257 0.376 0.257 0.0131 0 0.027-3e-3 0.04-5e-3 2.05 1.23 4.28 2.13 6.52 2.61 1.32 0.284 2.63 0.425 3.92 0.425 2.01 0 3.95-0.348 5.75-1.03 0.543-0.318 1.07-0.652 1.59-0.997-0.0776-0.152-0.238-0.246-0.41-0.226-2.45 0.309-5.01-0.62-6.77-2.44 0.808-0.601 1.58-1.2 2.32-1.79 1.57 1.61 3.92 2.93 6.17 3.53 0.298-0.222 0.592-0.446 0.879-0.674-2.26-0.438-4.75-1.74-6.39-3.38 1-0.823 1.94-1.64 2.82-2.46 1.23 1.9 2.86 3.43 4.98 4.65 0.224-0.199 0.441-0.401 0.655-0.602-2.19-1.21-3.8-2.7-5.02-4.63 0.857-0.821 1.65-1.64 2.4-2.47 1.8 1.46 3.21 3.43 4.04 5.65 0.212-0.234 0.418-0.468 0.614-0.7-0.888-2.18-2.31-4.12-4.1-5.59 0.618-0.713 1.2-1.43 1.74-2.16 1.78 1.39 3.19 3.3 4.03 5.45 0.19-0.314 0.36-0.622 0.508-0.923-0.91-2.05-2.31-3.86-4.04-5.21 0.263-0.37 0.521-0.742 0.767-1.12 0.247-0.376 0.49-0.772 0.73-1.19 1.62 1.23 2.9 2.96 3.63 4.91 0.146-0.364 0.292-0.73 0.436-1.1-0.829-1.8-2.09-3.38-3.65-4.55 0.46-0.849 0.904-1.76 1.33-2.71 1.63 0.941 2.85 2.64 3.22 4.55 7e-3 0.0385 0.0213 0.0727 0.0376 0.106 0.154-0.476 0.301-0.957 0.436-1.45-0.623-1.69-1.83-3.14-3.36-4 0.427-1.02 0.828-2.08 1.19-3.16 1.07 0.902 2.29 2.47 2.88 3.71zm-32.3 16.2c-6.2-18.4-2.29-28-2.25-28.1 0.036-0.083 0.0433-0.171 0.0286-0.254 0.776-0.653 1.58-1.27 2.4-1.85 0.085 0.0787 0.199 0.121 0.317 0.105 0.01-9.7e-4 0.311-0.0351 0.857-0.0402-0.0278 0.0385-0.0515 0.0821-0.0654 0.13-0.127 0.424-3.02 10.6 1.78 31.5-0.195 0.0924-0.391 0.186-0.588 0.277-0.86-0.536-1.69-1.14-2.48-1.81zm10-34.9c0.454-0.0128 9.78-0.141 17.5 10.1-0.33 0.959-0.693 1.91-1.09 2.86-5.48-6.01-11-8.8-14.7-10.1-2.77-0.97-4.91-1.26-6.01-1.34 1.38-0.613 2.79-1.13 4.24-1.54zm-5.05 2.36c0.11 2e-3 10.7-0.0565 21 11.3 0.0392 0.0436 0.0866 0.077 0.137 0.1-0.438 0.997-0.909 1.98-1.41 2.93-6.2-7.35-12.5-10.4-16.6-11.7-3.09-0.955-5.49-1.09-6.74-1.08 1.04-0.669 2.12-1.28 3.22-1.82 0.0621 0.157 0.211 0.266 0.385 0.262zm19.2 15c0.0539 0.065 0.123 0.106 0.196 0.127-1.2 2.2-2.55 4.24-3.98 5.99 0.0474-4.6 0.378-8.53 0.481-9.66 1.1 1.05 2.2 2.22 3.31 3.54zm-7.47 9.99c9.8e-4 4e-3 3e-3 9e-3 3e-3 0.0145-0.672 0.627-1.37 1.24-2.08 1.83-1.94-9.63-0.809-20.4-0.797-20.5 8e-3 -0.0761-5e-3 -0.148-0.0319-0.214 0.844 0.486 1.72 1.04 2.61 1.67-5e-3 0.0188-0.01 0.0359-0.0123 0.0556-9e-3 0.0787-0.908 8.12 0.31 17.2zm-6.04 4.81c-1.91-13.1-1.16-25.3-1.15-25.4 9e-3 -0.142-0.049-0.271-0.145-0.356 1.21 0.45 2.54 1.05 3.97 1.84-0.173 0.0334-0.312 0.179-0.333 0.372-0.0123 0.112-1.19 11.3 0.893 21.2-1.03 0.824-2.11 1.62-3.24 2.38zm-3.46 2.16c-3.13-12.8-1.7-28.7-1.69-28.9 6e-3 -0.0693-5e-3 -0.136-0.0278-0.198 0.759 0.153 1.59 0.358 2.47 0.632 0.364 0.113 0.745 0.24 1.14 0.384-0.212 5e-3 -0.388 0.174-0.403 0.399-8e-3 0.125-0.786 12.7 1.21 26-0.876 0.57-1.78 1.12-2.7 1.66zm-3.33 1.77c-4.68-20.5-1.78-30.8-1.76-30.9 0.04-0.133 0.0122-0.271-0.0597-0.376 0.707 0.0231 1.64 0.0992 2.75 0.287-0.0556 0.065-0.0932 0.148-0.102 0.242-0.0155 0.163-1.47 16.3 1.76 29.4-0.843 0.467-1.71 0.918-2.59 1.35zm13.6-9.43c-0.948-7.57-0.43-14.3-0.274-16 0.985 0.734 1.99 1.56 3.01 2.49-0.0515 0.0633-0.0866 0.142-0.0948 0.231-6e-3 0.0513-0.514 5.13-0.523 11-0.676 0.759-1.38 1.5-2.12 2.22zm-4.39-27.3c1.51-0.262 3.57-0.483 5.81-0.342 0.0172 0.151 0.11 0.289 0.255 0.349 0.0695 0.0291 6.87 2.87 9.58 7.13-0.223 0.897-0.481 1.8-0.77 2.7-4.14-5.3-8.64-7.74-11.8-8.86-1.31-0.471-2.48-0.753-3.44-0.921 0.107-0.0197 0.213-0.0402 0.32-0.059zm-19.9 12c-0.731 2.69-1.69 8.4 0.484 15.5-1.66-2.95-3.03-6.35-4.1-10.2 1.05-1.89 2.26-3.67 3.62-5.34zm2.22 18.3c0.0409-0.102 0.0433-0.221-9.8e-4 -0.331-4.38-10.8-0.96-19.2-0.925-19.3 0.0302-0.0718 0.0376-0.147 0.0302-0.22 0.71-0.778 1.45-1.52 2.22-2.23-0.852 2.94-2.47 11.6 2.15 26.2-1.25-1.21-2.41-2.58-3.48-4.1zm22 9.52c-3.11 0.906-6.59 0.787-9.94-0.258 1.76-0.268 3.44-1.3 5.02-2.44 1.32 1.41 3.07 2.35 4.93 2.7z"/>
   <path d="m-197 250c6.36-4.25 12.9-4.72 17.3-4.36 2.75 0.223 5.02 0.787 6.45 1.23-0.914-0.591-1.88-1.13-2.89-1.6-1.03-0.2-2.2-0.374-3.47-0.477-4.53-0.373-11.3 0.104-17.9 4.49-6.81 4.55-10.6 9.97-12.6 13.7-0.199 0.374-0.384 0.737-0.557 1.09-0.136 0.891-0.245 1.83-0.316 2.82 1.61-4.13 5.43-11.2 13.9-16.9z"/>
  </g>
 </g>
 <path d="m291 227s-7.47 0.0141-11.2-0.365c-4.62-0.473-9.43-0.631-13.7-2.37-2.83-1.15-5.61-2.82-7.58-5.16-1.91-2.26-3.84-5.12-3.7-8.08 0.138-2.88 2.19-5.56 4.34-7.49 1.18-1.06 4.34-1.92 4.34-1.92s-3.18 1.48-4.34 2.74c-1.72 1.87-3.46 4.22-3.51 6.76-0.0627 2.72 1.69 5.3 3.42 7.39 1.9 2.29 4.52 4.03 7.26 5.2 4.11 1.76 8.75 1.94 13.2 2.51 3.71 0.479 11.2 0.776 11.2 0.776" fill="#29577c" style="paint-order:markers stroke fill"/>
 <path d="m434 136s-0.831-3.96-0.913-5.98c-0.0976-2.39 0.25-4.62 0.181-7.01-0.055-1.92 1e-3 -3.74-0.711-5.52-0.611-1.53-1.38-3.14-2.75-4.05-1.8-1.19-4.1-1.73-6.23-1.38-2.25 0.372-4.02 1.63-5.47 3.39-1.54 1.86-2.37 4.33-2.91 6.69-0.543 2.38-0.635 4.8-0.548 7.24 0.112 3.14 1.37 9.31 1.37 9.31s-1.53-6.01-1.73-9.08c-0.168-2.59-0.135-5.24 0.456-7.76 0.604-2.58 1.37-5.3 3.1-7.3 1.48-1.71 3.57-3.15 5.8-3.51 2.23-0.362 4.75 0.234 6.62 1.51 1.45 0.985 2.32 2.71 2.97 4.34 0.744 1.89 0.807 4 0.913 6.02 0.137 2.63-0.362 5.26-0.365 7.9-2e-3 1.74 0.228 5.2 0.228 5.2z" fill="#29577c" style="paint-order:markers stroke fill"/>
 <g transform="rotate(2.67 -573 173)">
  <path d="m83.7 139s-6.05 7.01-9.39 12.2c-4 6.2-11.3 23-11.3 23s-11.8-20.4-6.09-28.6c5.2-7.4 26.8-6.56 26.8-6.56z" fill="#55c0e7"/>
  <path d="m83.7 140s-6.05 6.47-8.49 10.1c-4.03 6.05-10 19.4-10 19.4s4.38-12.4 7.67-18.1c2.09-3.61 4.31-7.36 7.58-9.95 0.94-0.744 3.29-1.46 3.29-1.46z" fill="#29577c" style="paint-order:markers stroke fill"/>
 </g>
 <g transform="rotate(-3.77 569 136)">
  <path d="m113 81.6s-6.25 6.69-9.05 12.2c-3.35 6.58-7.23 23.9-7.23 23.9s-15.5-19-10.7-27.7c4.42-7.89 26.9-8.35 26.9-8.35z" fill="#55c0e7"/>
  <path d="m111 84.1s-5.06 6.71-6.93 10.3c-3.08 6-6.95 18.7-6.95 18.7s2.36-11.7 4.75-17.2c1.52-3.52 3.14-7.2 6.03-10 0.832-0.813 3.1-1.84 3.1-1.84z" fill="#29577c" style="paint-order:markers stroke fill"/>
 </g>
 <g>
  <path d="m159 151c2.45-0.507 4.82-0.743 7.38-0.591 1.27 0.0633 2.55 0.152 3.82 0.278 1.26 0.129 2.56 0.299 3.66 0.629l0.306 0.0895 0.273-0.124c0.835-0.388 1.75-0.76 2.69-1.01 0.902-0.258 2.06-0.356 2.47-0.048 0.196 0.14 0.253 0.214 0.111 0.499-0.151 0.257-0.457 0.522-0.792 0.766-0.684 0.485-1.54 0.911-2.39 1.29l-2.43 1.08 3-0.0891c1.17-0.0334 2.38-0.018 3.57 0.0552 1.18 0.0736 2.39 0.194 3.47 0.468 0.536 0.132 1.04 0.325 1.3 0.549 0.303 0.26 0.439 0.502 0.272 0.681-0.368 0.464-1.62 0.751-2.67 0.874l-1.54 0.183 1.49 0.515c1.91 0.658 1.73 2.67 1.93 2.46 1.85 0.805 2.11 1.85 1.99 3.34 0.559-1.77 0.113-2.63-1.66-3.57-0.104-0.655 0.0401-2.12-1.89-2.89l-0.0584 0.695c0.654-0.0499 1.25-0.131 1.86-0.275 0.591-0.155 1.22-0.337 1.67-0.816 0.207-0.24 0.303-0.602 0.173-0.916-0.0536-0.165-0.13-0.314-0.238-0.439-0.0916-0.134-0.21-0.264-0.363-0.381-0.581-0.492-1.29-0.734-1.94-0.92-1.33-0.367-2.61-0.5-3.88-0.587-1.27-0.0834-2.5-0.112-3.77-0.0819l0.585 0.988c0.967-0.409 1.83-0.866 2.63-1.44 0.39-0.297 0.773-0.609 1.04-1.06 0.0529-0.125 0.108-0.244 0.142-0.378 8e-3 -0.154 0.032-0.299-0.0218-0.464-0.0997-0.344-0.391-0.658-0.74-0.864-0.724-0.445-1.59-0.495-2.22-0.455-0.651 0.047-1.21 0.183-1.74 0.332-1.06 0.317-1.99 0.702-2.88 1.18l0.58-0.0349c-1.41-0.354-2.71-0.453-4.02-0.543-1.3-0.0763-2.59-0.113-3.87-0.122-2.56 0.0128-5.05 0.355-7.37 1.02z" fill="#29577c"/>
  <path d="m89.6 133c0.219 0.165 0.444 0.374 0.484 0.645 0.0338 0.198-0.0373 0.395-0.125 0.573-0.625 1.33-1.95 2.14-3.22 2.86-0.674 0.38-1.36 0.751-2.11 0.933-0.753 0.178-1.59 0.147-2.26-0.257-2.26-1.36-1.85-5.08 0.404-6.12 1.95-0.899 5.23 0.145 6.82 1.37z"/>
  <path d="m77 163c-0.0349 0.272-0.104 0.563-0.323 0.728-0.16 0.122-0.369 0.154-0.568 0.164-1.48 0.0907-2.87-0.664-4.14-1.42-0.672-0.402-1.35-0.817-1.89-1.38-0.539-0.562-0.931-1.3-0.917-2.07 0.048-2.6 3.53-4.02 5.59-2.56 1.78 1.26 2.52 4.59 2.25 6.54z"/>
 </g>
 <ellipse cx="286" cy="9.02" rx="8" ry="7.75" fill-opacity="0" stroke="#ddc4e8" stroke-linecap="round" stroke-linejoin="round" stroke-width="2.55" style="paint-order:markers stroke fill"/>
 <circle cx="294" cy="45.2" r="5.16" fill="#f4d4dd" stroke-linecap="round" stroke-linejoin="round" stroke-width="1.58" style="paint-order:markers stroke fill"/>
 <path transform="translate(7.75 35.4)" d="m24.8-15c0.414 0.621-0.633 0.865-1.03 0.689-1.08-0.478-0.975-1.97-0.344-2.75 1.13-1.41 3.28-1.17 4.48 0 1.76 1.72 1.38 4.6-0.344 6.2-2.3 2.12-5.94 1.59-7.92-0.689-2.49-2.87-1.8-7.28 1.03-9.64 3.44-2.86 8.62-2.02 11.4 1.38 3.23 4 2.23 9.96-1.72 13.1-4.57 3.6-11.3 2.45-14.8-2.07-3.97-5.13-2.67-12.7 2.41-16.5 5.7-4.34 14-2.88 18.2 2.75 4.72 6.26 3.1 15.3-3.1 20" fill="none" stroke="#f4d4dd" stroke-width="2.78"/>
 <path transform="matrix(-.457 .668 -.715 -.427 334 313)" d="m24.8-15c0.414 0.621-0.633 0.865-1.03 0.689-1.08-0.478-0.975-1.97-0.344-2.75 1.13-1.41 3.28-1.17 4.48 0 1.76 1.72 1.38 4.6-0.344 6.2-2.3 2.12-5.94 1.59-7.92-0.689-2.49-2.87-1.8-7.28 1.03-9.64 3.44-2.86 8.62-2.02 11.4 1.38 3.23 4 2.23 9.96-1.72 13.1-4.57 3.6-11.3 2.45-14.8-2.07-3.97-5.13-2.67-12.7 2.41-16.5 5.7-4.34 14-2.88 18.2 2.75 4.72 6.26 3.1 15.3-3.1 20" fill="none" stroke="#fff" stroke-width="2.38"/>
 <path transform="translate(164 20.6)" d="m115 353c-0.205 0.0128-2.17-4.46-2.36-4.56-0.184-0.0913-4.94 1.04-5.06 0.872-0.113-0.171 2.78-4.12 2.77-4.32-0.0128-0.205-3.37-3.76-3.28-3.94 0.0913-0.184 4.95 0.349 5.12 0.235 0.171-0.113 1.57-4.8 1.77-4.81s2.17 4.46 2.36 4.56c0.184 0.0913 4.94-1.04 5.06-0.872 0.113 0.171-2.78 4.12-2.77 4.32s3.37 3.76 3.28 3.94c-0.0913 0.184-4.95-0.349-5.12-0.235s-1.57 4.8-1.77 4.81z" fill="#fefafb" style="paint-order:markers stroke fill"/>
 <circle cx="10.3" cy="78.7" r="5.16" fill="#ddc4e8" stroke-linecap="round" stroke-linejoin="round" stroke-width="1.58" style="paint-order:markers stroke fill"/>
</svg>
