<svg xmlns="http://www.w3.org/2000/svg" xmlns:xlink="http://www.w3.org/1999/xlink" width="200" zoomAndPan="magnify" viewBox="0 0 150 149.999998" height="200" preserveAspectRatio="xMidYMid meet" version="1.0"><defs><clipPath id="cc59fb98b4"><path d="M 0 0 L 150 0 L 150 146.664062 L 0 146.664062 Z M 0 0 " clip-rule="nonzero"/></clipPath></defs><g clip-path="url(#cc59fb98b4)"><path fill="#000000" d="M 122.078125 77.15625 C 121.859375 78.019531 121.511719 78.832031 121.03125 79.585938 C 120.550781 80.339844 119.964844 80.996094 119.269531 81.5625 C 118.578125 82.125 117.8125 82.5625 116.976562 82.878906 C 116.140625 83.195312 115.277344 83.371094 114.382812 83.410156 C 113.492188 83.445312 112.613281 83.339844 111.757812 83.09375 C 110.898438 82.847656 110.097656 82.46875 109.363281 81.964844 C 108.625 81.457031 107.988281 80.851562 107.445312 80.136719 C 106.90625 79.425781 106.492188 78.644531 106.207031 77.800781 C 106.089844 77.46875 106.039062 77.128906 106.058594 76.777344 C 106.078125 76.425781 106.164062 76.089844 106.316406 75.773438 C 106.46875 75.457031 106.675781 75.183594 106.9375 74.949219 C 107.199219 74.714844 107.496094 74.539062 107.828125 74.421875 C 108.160156 74.304688 108.5 74.253906 108.851562 74.273438 C 109.203125 74.292969 109.535156 74.378906 109.855469 74.53125 C 110.171875 74.683594 110.445312 74.886719 110.679688 75.148438 C 110.917969 75.410156 111.09375 75.707031 111.210938 76.039062 C 111.253906 76.164062 111.300781 76.28125 111.351562 76.402344 C 111.484375 76.609375 111.613281 76.820312 111.761719 77.023438 C 111.816406 77.078125 111.871094 77.132812 111.925781 77.1875 C 112.113281 77.320312 112.292969 77.46875 112.464844 77.621094 C 112.550781 77.671875 112.640625 77.726562 112.730469 77.769531 C 112.859375 77.835938 112.988281 77.890625 113.109375 77.949219 C 113.316406 78.007812 113.519531 78.058594 113.730469 78.097656 L 113.757812 78.097656 C 113.789062 78.101562 113.816406 78.105469 113.847656 78.105469 C 113.933594 78.105469 114.019531 78.117188 114.105469 78.140625 C 114.058594 78.125 114.035156 78.121094 113.996094 78.109375 C 114.210938 78.101562 114.421875 78.066406 114.632812 78.050781 C 114.75 78.015625 114.867188 77.976562 114.980469 77.9375 C 115.097656 77.894531 115.183594 77.859375 115.28125 77.816406 C 115.457031 77.675781 115.691406 77.570312 115.871094 77.4375 L 115.957031 77.375 C 116.015625 77.320312 116.078125 77.269531 116.125 77.21875 C 116.289062 77.046875 116.425781 76.867188 116.570312 76.683594 C 116.636719 76.5625 116.707031 76.445312 116.761719 76.320312 C 116.804688 76.226562 116.84375 76.132812 116.886719 76.035156 C 116.902344 75.992188 116.925781 75.949219 116.953125 75.910156 C 117.039062 75.578125 117.183594 75.269531 117.390625 74.992188 C 117.597656 74.710938 117.847656 74.484375 118.144531 74.304688 C 118.441406 74.125 118.761719 74.011719 119.105469 73.957031 C 119.445312 73.90625 119.785156 73.917969 120.121094 74 C 120.460938 74.082031 120.769531 74.226562 121.046875 74.429688 C 121.328125 74.632812 121.558594 74.878906 121.742188 75.175781 C 121.925781 75.46875 122.042969 75.789062 122.101562 76.128906 C 122.15625 76.472656 122.144531 76.8125 122.066406 77.148438 Z M 148.878906 99.691406 C 148.574219 100.691406 148.089844 101.589844 147.417969 102.390625 C 146.746094 103.191406 145.949219 103.832031 145.019531 104.304688 C 143.230469 105.140625 141.378906 105.800781 139.464844 106.285156 C 137.429688 106.90625 135.414062 107.527344 133.382812 108.128906 C 132.417969 110.167969 131.269531 112.105469 129.941406 113.929688 C 128.613281 115.757812 127.125 117.449219 125.484375 119 C 123.839844 120.550781 122.070312 121.933594 120.167969 123.15625 C 118.269531 124.378906 116.269531 125.410156 114.175781 126.261719 C 114.351562 129.335938 114.199219 132.394531 113.722656 135.433594 C 113.097656 139.378906 112.296875 144.058594 109.265625 145.261719 C 109.171875 145.300781 109.074219 145.335938 108.976562 145.363281 C 107.175781 146.117188 105.300781 146.46875 103.351562 146.425781 C 100.453125 146.703125 97.710938 146.167969 95.125 144.824219 C 94.429688 144.40625 93.8125 143.890625 93.28125 143.28125 L 93.28125 143.253906 C 91.75 141.265625 90.945312 139.019531 90.867188 136.515625 C 90.832031 136.023438 90.777344 135.515625 90.757812 135.027344 C 82.230469 135.542969 73.726562 135.304688 65.242188 134.308594 L 64.941406 137.644531 C 64.945312 139.539062 64.527344 141.332031 63.679688 143.027344 C 61.894531 145.890625 58.539062 146.34375 55.433594 146.417969 C 52.539062 146.691406 49.792969 146.164062 47.207031 144.835938 C 44.214844 142.988281 43.253906 139.847656 42.953125 136.535156 C 42.6875 133.726562 42.519531 130.902344 42.332031 128.097656 C 40.609375 127.242188 38.953125 126.285156 37.351562 125.222656 C 35.753906 124.160156 34.226562 123.003906 32.773438 121.75 C 31.320312 120.496094 29.949219 119.15625 28.664062 117.730469 C 27.378906 116.300781 26.1875 114.800781 25.09375 113.226562 C 23.996094 111.648438 23.003906 110.011719 22.113281 108.308594 C 21.222656 106.609375 20.441406 104.859375 19.769531 103.058594 C 19.101562 101.261719 18.542969 99.425781 18.105469 97.558594 C 17.664062 95.6875 17.34375 93.800781 17.140625 91.890625 C 15.46875 92.152344 13.785156 92.234375 12.097656 92.136719 C 11.09375 93.394531 9.90625 94.449219 8.535156 95.289062 C 7.160156 96.132812 5.6875 96.71875 4.109375 97.039062 C 3.769531 97.125 3.429688 97.140625 3.085938 97.09375 C 2.742188 97.046875 2.417969 96.9375 2.113281 96.765625 C 1.8125 96.59375 1.550781 96.371094 1.332031 96.101562 C 1.113281 95.832031 0.953125 95.527344 0.851562 95.195312 C 0.761719 94.859375 0.738281 94.519531 0.78125 94.171875 C 0.828125 93.824219 0.9375 93.5 1.109375 93.199219 C 1.28125 92.894531 1.503906 92.636719 1.78125 92.421875 C 2.054688 92.207031 2.359375 92.050781 2.695312 91.957031 C 3.367188 91.824219 4.019531 91.636719 4.65625 91.390625 C 4.746094 91.359375 4.832031 91.320312 4.917969 91.277344 C 5.050781 91.21875 5.164062 91.144531 5.296875 91.085938 C 5.617188 90.914062 5.921875 90.726562 6.21875 90.519531 C 6.238281 90.519531 6.277344 90.480469 6.332031 90.421875 C 5.753906 90.0625 5.210938 89.648438 4.714844 89.179688 C 1.703125 86.285156 0.964844 80.824219 4.355469 77.886719 C 5.15625 77.179688 6.074219 76.683594 7.105469 76.402344 C 8.136719 76.121094 9.175781 76.082031 10.226562 76.289062 C 11.285156 76.550781 12.210938 77.050781 13.007812 77.796875 C 13.804688 78.539062 14.371094 79.429688 14.707031 80.46875 C 15.441406 82.605469 15.480469 84.757812 14.820312 86.921875 L 15.308594 86.867188 C 15.4375 86.863281 15.5625 86.847656 15.6875 86.832031 C 15.800781 86.8125 16.027344 86.773438 16.046875 86.773438 C 16.347656 86.71875 16.648438 86.679688 16.929688 86.621094 C 17.007812 82.527344 17.667969 78.53125 18.910156 74.628906 C 19.90625 71.542969 21.210938 68.589844 22.828125 65.777344 C 24.441406 62.964844 26.332031 60.347656 28.496094 57.933594 C 30.660156 55.515625 33.050781 53.347656 35.671875 51.433594 C 38.289062 49.515625 41.078125 47.894531 44.039062 46.5625 C 41.953125 42.136719 40.910156 37.46875 40.910156 32.566406 L 40.910156 32.285156 C 40.90625 32.113281 40.910156 31.945312 40.925781 31.777344 C 41 28.363281 41.589844 25.042969 42.699219 21.816406 L 42.753906 21.816406 C 43.226562 20.457031 43.789062 19.140625 44.449219 17.863281 C 44.75 17.28125 45.070312 16.695312 45.410156 16.160156 L 45.265625 16.160156 C 46.035156 14.863281 46.882812 13.621094 47.808594 12.429688 C 48.238281 11.863281 48.691406 11.320312 49.179688 10.792969 L 49.351562 10.792969 C 49.578125 10.53125 49.820312 10.285156 50.066406 10.019531 C 50.234375 9.851562 50.386719 9.679688 50.539062 9.511719 C 51.914062 8.164062 53.386719 6.933594 54.960938 5.820312 C 55.746094 5.273438 56.554688 4.757812 57.386719 4.28125 C 58.214844 3.804688 59.066406 3.363281 59.933594 2.960938 C 60.800781 2.554688 61.6875 2.191406 62.585938 1.863281 C 63.488281 1.535156 64.402344 1.25 65.324219 1.003906 C 66.25 0.753906 67.1875 0.546875 68.128906 0.382812 C 69.074219 0.21875 70.023438 0.09375 70.976562 0.0117188 C 71.929688 -0.0742188 72.886719 -0.113281 73.84375 -0.113281 C 74.804688 -0.113281 75.757812 -0.0703125 76.714844 0.0117188 C 77.667969 0.0976562 78.617188 0.222656 79.558594 0.386719 C 80.503906 0.554688 81.4375 0.761719 82.363281 1.007812 C 83.289062 1.257812 84.199219 1.546875 85.101562 1.871094 C 86 2.199219 86.886719 2.566406 87.753906 2.972656 C 88.621094 3.375 89.472656 3.816406 90.300781 4.296875 C 91.128906 4.773438 91.9375 5.289062 92.722656 5.835938 C 93.507812 6.386719 94.269531 6.96875 95.003906 7.582031 C 95.738281 8.199219 96.441406 8.84375 97.121094 9.523438 C 99.234375 11.617188 101.027344 13.953125 102.503906 16.535156 C 103.980469 19.117188 105.085938 21.851562 105.820312 24.734375 C 106.472656 27.382812 106.796875 30.070312 106.796875 32.792969 C 106.796875 33.472656 106.78125 34.148438 106.742188 34.808594 C 106.703125 35.429688 106.648438 36.050781 106.570312 36.652344 C 106.457031 37.601562 106.292969 38.53125 106.097656 39.457031 C 110.726562 36.375 116.003906 34.628906 121.578125 37.21875 C 129.9375 41.113281 128.773438 51.800781 127.132812 59.511719 C 128.539062 60.46875 129.835938 61.558594 131.019531 62.785156 C 132.203125 64.007812 133.246094 65.34375 134.152344 66.785156 C 135.058594 68.226562 135.804688 69.746094 136.394531 71.34375 C 136.988281 72.941406 137.40625 74.582031 137.65625 76.269531 C 140.933594 76.605469 144.226562 77.511719 146.167969 80.433594 C 147.253906 82.296875 147.855469 84.304688 147.976562 86.460938 C 148.277344 88.71875 148.542969 91.003906 148.820312 93.257812 C 149.277344 95.398438 149.296875 97.542969 148.878906 99.691406 Z M 9.984375 83.761719 C 9.988281 83.578125 9.980469 83.398438 9.964844 83.214844 C 9.964844 83.152344 9.960938 83.089844 9.945312 83.027344 C 9.949219 82.949219 9.933594 82.875 9.910156 82.800781 C 9.871094 82.632812 9.8125 82.460938 9.777344 82.273438 C 9.761719 82.257812 9.753906 82.238281 9.757812 82.21875 L 9.757812 82.199219 C 9.699219 82.066406 9.625 81.933594 9.566406 81.820312 C 9.515625 81.746094 9.457031 81.679688 9.398438 81.613281 L 9.304688 81.519531 C 9.289062 81.5 9.269531 81.488281 9.246094 81.480469 L 9.210938 81.441406 C 9.140625 81.433594 9.070312 81.421875 9.003906 81.40625 C 8.921875 81.390625 8.839844 81.382812 8.757812 81.386719 C 8.738281 81.40625 8.757812 81.40625 8.722656 81.40625 C 8.605469 81.441406 8.476562 81.480469 8.34375 81.519531 L 8.332031 81.519531 C 8.238281 81.574219 8.125 81.632812 8.03125 81.6875 C 7.992188 81.707031 7.957031 81.742188 7.898438 81.78125 C 7.824219 81.855469 7.730469 81.933594 7.730469 81.953125 C 7.71875 81.953125 7.710938 81.957031 7.710938 81.972656 C 7.636719 82.082031 7.578125 82.195312 7.523438 82.289062 L 7.503906 82.308594 C 7.484375 82.328125 7.484375 82.347656 7.484375 82.382812 C 7.449219 82.515625 7.410156 82.667969 7.371094 82.796875 C 7.371094 83.023438 7.390625 83.269531 7.390625 83.496094 C 7.453125 83.691406 7.503906 83.894531 7.539062 84.097656 C 7.558594 84.140625 7.570312 84.183594 7.578125 84.230469 C 7.597656 84.25 7.597656 84.289062 7.636719 84.324219 C 7.710938 84.457031 7.765625 84.605469 7.84375 84.738281 C 7.898438 84.8125 7.957031 84.890625 7.992188 84.945312 C 8.054688 85.039062 8.125 85.125 8.199219 85.207031 C 8.3125 85.320312 8.425781 85.433594 8.539062 85.53125 C 8.59375 85.582031 8.648438 85.632812 8.710938 85.679688 C 8.824219 85.746094 8.929688 85.820312 9.03125 85.90625 C 9.160156 85.980469 9.292969 86.074219 9.421875 86.152344 C 9.453125 86.152344 9.480469 86.164062 9.5 86.1875 C 9.613281 85.851562 9.742188 85.53125 9.820312 85.207031 C 9.855469 85 9.894531 84.792969 9.933594 84.605469 C 9.945312 84.328125 9.984375 84.042969 9.984375 83.761719 Z M 45.925781 32.773438 C 45.925781 34.34375 46.054688 35.898438 46.320312 37.445312 C 46.617188 39.285156 47.109375 41.074219 47.789062 42.808594 C 49.199219 46.488281 51.300781 49.714844 54.097656 52.488281 C 54.265625 52.65625 54.398438 52.789062 54.550781 52.917969 C 55.507812 53.859375 56.539062 54.710938 57.636719 55.480469 C 62.300781 53.992188 67.070312 53.039062 71.945312 52.617188 C 71.496094 52.128906 71.269531 51.554688 71.269531 50.886719 L 71.269531 48.027344 C 70.199219 47.941406 69.175781 47.675781 68.199219 47.222656 C 67.226562 46.773438 66.359375 46.167969 65.601562 45.410156 C 64.746094 44.566406 64.089844 43.59375 63.628906 42.484375 C 63.167969 41.378906 62.941406 40.226562 62.949219 39.027344 C 62.941406 38.933594 62.953125 38.847656 62.988281 38.761719 C 63.027344 38.171875 63.253906 37.664062 63.664062 37.234375 C 64.03125 36.863281 64.46875 36.625 64.980469 36.519531 C 65.488281 36.414062 65.984375 36.457031 66.46875 36.652344 C 66.953125 36.851562 67.339844 37.164062 67.628906 37.597656 C 67.921875 38.027344 68.070312 38.503906 68.070312 39.027344 C 68.066406 39.152344 68.074219 39.277344 68.089844 39.40625 C 68.1875 40.324219 68.566406 41.109375 69.226562 41.757812 C 69.972656 42.546875 70.890625 42.933594 71.976562 42.925781 L 75.703125 42.925781 C 76.714844 42.929688 77.585938 42.582031 78.320312 41.890625 C 78.367188 41.851562 78.414062 41.804688 78.453125 41.757812 C 79.003906 41.203125 79.355469 40.546875 79.507812 39.78125 C 79.546875 39.601562 79.5625 39.417969 79.5625 39.234375 C 79.578125 39.167969 79.585938 39.097656 79.582031 39.027344 C 79.59375 37.976562 79.226562 37.082031 78.488281 36.335938 C 78.488281 36.316406 78.472656 36.296875 78.453125 36.28125 C 77.867188 35.6875 77.164062 35.324219 76.34375 35.1875 C 76.132812 35.148438 75.917969 35.128906 75.703125 35.128906 L 71.96875 35.128906 C 71.609375 35.128906 71.253906 35.113281 70.898438 35.074219 C 68.832031 34.816406 67.070312 33.953125 65.605469 32.476562 C 64.75 31.632812 64.09375 30.660156 63.632812 29.550781 C 63.171875 28.445312 62.945312 27.292969 62.953125 26.09375 L 62.953125 26.035156 C 62.949219 25.964844 62.957031 25.898438 62.972656 25.828125 C 62.976562 25.644531 62.988281 25.464844 63.011719 25.285156 C 63.007812 25.214844 63.015625 25.144531 63.03125 25.074219 C 63.175781 23.582031 63.683594 22.21875 64.542969 20.988281 C 64.867188 20.539062 65.226562 20.117188 65.617188 19.726562 C 66.367188 18.964844 67.226562 18.355469 68.195312 17.902344 C 69.164062 17.449219 70.183594 17.179688 71.25 17.089844 L 71.269531 17.089844 L 71.269531 14.210938 C 71.261719 14.105469 71.273438 14.007812 71.304688 13.910156 C 71.304688 13.890625 71.324219 13.871094 71.324219 13.832031 C 71.324219 13.792969 71.34375 13.792969 71.34375 13.777344 C 71.394531 13.480469 71.492188 13.203125 71.640625 12.945312 C 71.785156 12.6875 71.972656 12.460938 72.199219 12.269531 C 72.429688 12.074219 72.683594 11.925781 72.960938 11.824219 C 73.242188 11.71875 73.53125 11.667969 73.828125 11.667969 C 74.167969 11.667969 74.492188 11.730469 74.804688 11.859375 C 75.117188 11.988281 75.394531 12.171875 75.632812 12.410156 C 75.875 12.648438 76.058594 12.921875 76.191406 13.234375 C 76.320312 13.546875 76.386719 13.871094 76.390625 14.210938 L 76.390625 17.089844 C 76.949219 17.136719 77.5 17.238281 78.042969 17.386719 C 78.582031 17.539062 79.105469 17.738281 79.613281 17.984375 C 80.117188 18.230469 80.59375 18.523438 81.046875 18.859375 C 81.496094 19.195312 81.914062 19.566406 82.296875 19.980469 C 82.675781 20.390625 83.019531 20.835938 83.316406 21.3125 C 83.617188 21.789062 83.871094 22.285156 84.078125 22.808594 C 84.285156 23.332031 84.445312 23.867188 84.550781 24.417969 C 84.660156 24.972656 84.71875 25.527344 84.722656 26.089844 C 84.726562 26.148438 84.71875 26.203125 84.703125 26.261719 C 84.699219 26.386719 84.6875 26.515625 84.667969 26.640625 C 84.542969 27.164062 84.285156 27.609375 83.894531 27.976562 C 83.402344 28.441406 82.820312 28.671875 82.144531 28.671875 C 81.800781 28.671875 81.472656 28.605469 81.160156 28.472656 C 80.84375 28.339844 80.566406 28.15625 80.324219 27.914062 C 80.082031 27.671875 79.894531 27.394531 79.765625 27.078125 C 79.632812 26.761719 79.566406 26.433594 79.5625 26.09375 C 79.566406 25.839844 79.542969 25.585938 79.492188 25.335938 C 79.445312 25.085938 79.371094 24.84375 79.273438 24.605469 C 79.175781 24.371094 79.058594 24.148438 78.917969 23.933594 C 78.777344 23.722656 78.613281 23.527344 78.433594 23.347656 C 78.253906 23.164062 78.058594 23.003906 77.847656 22.863281 C 77.632812 22.722656 77.410156 22.601562 77.171875 22.503906 C 76.9375 22.410156 76.695312 22.335938 76.445312 22.285156 C 76.195312 22.238281 75.941406 22.214844 75.6875 22.214844 L 71.96875 22.214844 C 70.894531 22.210938 69.976562 22.589844 69.222656 23.351562 C 68.941406 23.617188 68.722656 23.925781 68.5625 24.273438 C 68.257812 24.765625 68.101562 25.296875 68.089844 25.875 C 68.074219 25.949219 68.066406 26.023438 68.070312 26.101562 C 68.066406 26.230469 68.074219 26.363281 68.089844 26.496094 C 68.1875 27.417969 68.566406 28.199219 69.226562 28.851562 C 69.246094 28.867188 69.246094 28.886719 69.265625 28.886719 C 70.007812 29.644531 70.914062 30.023438 71.976562 30.023438 L 75.703125 30.023438 C 76.257812 30.023438 76.808594 30.074219 77.351562 30.179688 C 77.894531 30.28125 78.425781 30.433594 78.945312 30.632812 C 79.460938 30.832031 79.953125 31.078125 80.425781 31.371094 C 80.894531 31.664062 81.335938 31.996094 81.746094 32.367188 C 82.15625 32.742188 82.527344 33.148438 82.863281 33.589844 C 83.195312 34.035156 83.488281 34.5 83.734375 34.996094 C 83.984375 35.492188 84.183594 36.007812 84.335938 36.539062 C 84.492188 37.070312 84.59375 37.613281 84.648438 38.164062 L 84.703125 38.558594 C 84.703125 38.730469 84.738281 38.878906 84.738281 39.03125 C 84.738281 39.292969 84.722656 39.539062 84.703125 39.800781 C 84.683594 39.933594 84.683594 40.066406 84.664062 40.21875 C 84.597656 40.707031 84.488281 41.191406 84.347656 41.667969 C 83.894531 43.101562 83.136719 44.351562 82.074219 45.414062 C 81.109375 46.390625 79.976562 47.105469 78.683594 47.558594 C 77.945312 47.8125 77.1875 47.972656 76.410156 48.03125 L 76.410156 50.894531 C 76.40625 51.441406 76.242188 51.9375 75.921875 52.378906 C 81.375 52.210938 86.773438 52.679688 92.113281 53.792969 C 92.605469 53.382812 93.078125 52.949219 93.527344 52.492188 C 95.515625 50.53125 97.164062 48.320312 98.476562 45.851562 C 99.785156 43.386719 100.695312 40.78125 101.207031 38.035156 C 101.300781 37.601562 101.378906 37.148438 101.433594 36.695312 C 101.546875 35.867188 101.640625 35.019531 101.679688 34.171875 C 101.714844 33.644531 101.734375 33.101562 101.734375 32.554688 C 101.730469 31.640625 101.6875 30.730469 101.59375 29.824219 C 101.503906 28.917969 101.367188 28.015625 101.1875 27.121094 C 101.007812 26.226562 100.785156 25.34375 100.519531 24.46875 C 100.253906 23.597656 99.945312 22.742188 99.597656 21.898438 C 99.246094 21.054688 98.855469 20.234375 98.425781 19.429688 C 97.992188 18.625 97.523438 17.84375 97.015625 17.085938 C 96.507812 16.328125 95.964844 15.597656 95.386719 14.890625 C 94.804688 14.1875 94.195312 13.511719 93.546875 12.867188 C 92.902344 12.222656 92.226562 11.613281 91.523438 11.035156 C 90.816406 10.457031 90.082031 9.914062 89.324219 9.40625 C 88.566406 8.902344 87.785156 8.433594 86.980469 8.003906 C 86.175781 7.574219 85.351562 7.183594 84.507812 6.835938 C 83.664062 6.484375 82.808594 6.179688 81.933594 5.914062 C 81.0625 5.648438 80.179688 5.429688 79.285156 5.25 C 78.390625 5.070312 77.488281 4.9375 76.578125 4.847656 C 75.671875 4.757812 74.761719 4.714844 73.851562 4.714844 C 70.992188 4.695312 68.203125 5.117188 65.476562 5.972656 C 62.75 6.828125 60.21875 8.074219 57.882812 9.722656 C 56.546875 10.660156 55.300781 11.699219 54.136719 12.847656 C 54.003906 12.996094 53.875 13.128906 53.742188 13.28125 C 53.054688 13.984375 52.40625 14.726562 51.800781 15.5 C 50.722656 16.886719 49.78125 18.363281 48.976562 19.925781 C 47.296875 23.222656 46.324219 26.71875 46.058594 30.414062 C 46.003906 31.015625 45.964844 31.65625 45.964844 32.277344 C 45.941406 32.441406 45.929688 32.609375 45.925781 32.773438 Z M 143.625 93.777344 C 143.378906 91.839844 143.136719 89.878906 142.890625 87.921875 C 142.820312 86.519531 142.550781 85.160156 142.082031 83.835938 C 141.046875 81.578125 137.996094 81.519531 135.851562 81.390625 C 135.378906 81.359375 134.945312 81.226562 134.542969 80.980469 C 133.988281 80.570312 133.542969 80.0625 133.199219 79.460938 C 132.859375 78.863281 132.648438 78.21875 132.574219 77.535156 C 131.582031 72.816406 131.074219 67.667969 122.824219 63.015625 C 122.578125 62.867188 122.359375 62.679688 122.171875 62.460938 C 121.988281 62.238281 121.839844 61.996094 121.730469 61.726562 C 121.621094 61.460938 121.558594 61.179688 121.539062 60.894531 C 121.519531 60.605469 121.546875 60.320312 121.617188 60.039062 C 122.785156 54.976562 125.515625 44.527344 118.980469 41.816406 C 112.957031 39.332031 107.25 44.808594 103.261719 48.574219 C 102.996094 48.832031 102.6875 49.03125 102.339844 49.164062 C 100.890625 51.621094 99.160156 53.859375 97.144531 55.878906 C 96.597656 56.425781 96.050781 56.933594 95.484375 57.425781 C 95.414062 57.6875 95.304688 57.933594 95.15625 58.160156 C 95.003906 58.390625 94.824219 58.589844 94.609375 58.757812 C 94.394531 58.925781 94.160156 59.058594 93.90625 59.152344 C 93.648438 59.246094 93.386719 59.296875 93.113281 59.308594 C 92.851562 59.335938 92.59375 59.316406 92.34375 59.25 C 90.105469 58.722656 87.847656 58.328125 85.5625 58.0625 C 80.839844 57.515625 76.113281 57.492188 71.386719 58 C 66.660156 58.503906 62.042969 59.523438 57.542969 61.054688 C 57.46875 61.074219 57.414062 61.09375 57.351562 61.113281 C 57.027344 61.207031 56.695312 61.230469 56.359375 61.175781 C 56.019531 61.125 55.710938 61.007812 55.425781 60.820312 C 55.140625 60.632812 54.910156 60.390625 54.730469 60.101562 C 54.550781 59.8125 54.441406 59.5 54.398438 59.164062 C 53.234375 58.3125 52.128906 57.390625 51.085938 56.394531 C 50.914062 56.242188 50.765625 56.09375 50.558594 55.886719 C 49.097656 54.421875 47.785156 52.839844 46.617188 51.128906 C 43.535156 52.445312 40.660156 54.121094 38 56.160156 C 35.335938 58.199219 32.96875 60.535156 30.898438 63.171875 C 29.011719 65.507812 27.414062 68.027344 26.105469 70.730469 C 24.800781 73.433594 23.816406 76.25 23.160156 79.179688 C 22.5 82.109375 22.183594 85.074219 22.210938 88.078125 C 22.238281 91.082031 22.605469 94.042969 23.3125 96.960938 C 24.054688 99.839844 25.097656 102.609375 26.441406 105.261719 C 27.789062 107.914062 29.402344 110.394531 31.285156 112.695312 C 33.171875 114.996094 35.28125 117.070312 37.617188 118.914062 C 39.953125 120.753906 42.457031 122.324219 45.136719 123.621094 C 45.453125 123.664062 45.757812 123.761719 46.042969 123.914062 C 46.324219 124.0625 46.574219 124.257812 46.792969 124.5 C 47.007812 124.738281 47.175781 125.007812 47.292969 125.304688 C 47.414062 125.605469 47.480469 125.914062 47.488281 126.238281 C 47.617188 128.140625 47.746094 130.039062 47.882812 131.941406 C 48.015625 133.691406 48.035156 135.480469 48.28125 137.214844 C 48.296875 137.230469 48.429688 137.910156 48.449219 138.003906 C 48.53125 138.359375 48.636719 138.703125 48.769531 139.039062 C 48.898438 139.234375 49.019531 139.4375 49.125 139.644531 L 49.144531 139.664062 C 49.277344 139.773438 49.40625 139.894531 49.523438 140.019531 C 49.5625 140.019531 49.976562 140.359375 50.070312 140.414062 C 50.203125 140.472656 50.316406 140.546875 50.449219 140.601562 C 50.484375 140.621094 50.523438 140.632812 50.5625 140.640625 C 50.882812 140.734375 51.183594 140.847656 51.511719 140.921875 C 51.738281 140.953125 51.964844 140.996094 52.1875 141.054688 C 53.53125 141.195312 54.871094 141.21875 56.21875 141.128906 C 56.574219 141.109375 56.914062 141.09375 57.273438 141.054688 C 57.324219 141.058594 57.375 141.054688 57.421875 141.039062 C 57.574219 141.019531 57.726562 140.980469 57.875 140.960938 C 57.96875 140.941406 58.515625 140.753906 58.570312 140.753906 C 58.714844 140.6875 58.851562 140.609375 58.984375 140.527344 C 59.0625 140.453125 59.097656 140.394531 59.136719 140.378906 C 59.191406 140.285156 59.25 140.167969 59.304688 140.074219 C 59.304688 140.019531 59.476562 139.417969 59.496094 139.316406 C 59.511719 139.25 59.523438 139.179688 59.535156 139.109375 L 59.535156 139.183594 C 59.542969 139.140625 59.550781 139.097656 59.550781 139.054688 C 59.554688 138.910156 59.566406 138.765625 59.589844 138.621094 C 59.648438 138.1875 59.664062 137.734375 59.722656 137.285156 C 59.871094 135.417969 60.039062 133.535156 60.210938 131.65625 C 60.226562 131.503906 60.253906 131.351562 60.289062 131.203125 C 60.3125 130.871094 60.398438 130.558594 60.539062 130.261719 C 60.683594 129.964844 60.878906 129.703125 61.121094 129.480469 C 61.363281 129.257812 61.640625 129.085938 61.949219 128.96875 C 62.253906 128.847656 62.574219 128.789062 62.90625 128.792969 C 73.03125 130.140625 83.1875 130.417969 93.371094 129.617188 C 93.445312 129.617188 93.523438 129.636719 93.597656 129.636719 C 94.277344 129.71875 94.871094 129.988281 95.382812 130.445312 C 97.160156 132.105469 95.710938 135.523438 97.046875 138.777344 C 97.671875 140.292969 98.398438 140.5625 98.5625 140.613281 C 98.792969 140.6875 99.5 140.84375 99.828125 140.90625 C 100.019531 140.941406 100.207031 140.96875 100.398438 141 L 100.597656 141.023438 C 101.398438 141.105469 102.199219 141.128906 103.003906 141.101562 C 103.4375 141.089844 103.867188 141.042969 104.300781 141.007812 L 104.34375 141.007812 C 104.523438 140.988281 104.707031 140.957031 104.886719 140.914062 C 106.125 140.550781 106.746094 140.371094 107.105469 139.945312 C 107.339844 139.398438 107.515625 138.835938 107.636719 138.257812 C 107.792969 137.691406 107.933594 137.117188 108.050781 136.539062 C 108.101562 136.292969 108.152344 136.046875 108.195312 135.796875 C 108.207031 135.730469 108.273438 135.3125 108.300781 135.164062 C 108.300781 135.09375 108.367188 134.578125 108.378906 134.5 C 108.402344 134.246094 108.421875 133.996094 108.441406 133.742188 C 108.5 132.929688 108.507812 132.09375 108.507812 131.976562 C 108.523438 130.292969 108.367188 127.808594 108.363281 127.6875 C 108.261719 126.234375 108.59375 124.890625 109.359375 123.652344 C 109.84375 122.925781 110.453125 122.324219 111.183594 121.84375 C 111.222656 121.828125 111.242188 121.808594 111.28125 121.808594 C 115.265625 120.359375 118.804688 118.179688 121.898438 115.273438 C 123.4375 113.839844 124.8125 112.261719 126.023438 110.539062 C 127.226562 108.820312 128.25 107 129.089844 105.078125 C 129.273438 104.523438 129.601562 104.070312 130.070312 103.71875 C 130.539062 103.367188 131.066406 103.179688 131.652344 103.160156 C 134.945312 102.179688 138.335938 101.351562 141.535156 100.128906 C 142.027344 100.007812 142.472656 99.789062 142.871094 99.46875 C 143.265625 99.148438 143.574219 98.761719 143.792969 98.300781 C 144.050781 96.78125 143.996094 95.273438 143.625 93.777344 Z M 143.625 93.777344 " fill-opacity="1" fill-rule="nonzero"/></g></svg>