<svg xmlns="http://www.w3.org/2000/svg" xmlns:xlink="http://www.w3.org/1999/xlink" width="200" zoomAndPan="magnify" viewBox="0 0 150 149.999998" height="200" preserveAspectRatio="xMidYMid meet" version="1.0"><path fill="#000000" d="M 105.828125 29.71875 L 106.144531 29.71875 C 106.972656 29.675781 107.785156 29.550781 108.585938 29.347656 C 109.390625 29.148438 110.164062 28.871094 110.914062 28.519531 C 111.664062 28.167969 112.371094 27.75 113.042969 27.261719 C 113.710938 26.777344 114.324219 26.230469 114.890625 25.625 C 115.453125 25.019531 115.953125 24.367188 116.390625 23.667969 C 116.828125 22.964844 117.195312 22.230469 117.492188 21.457031 C 117.789062 20.6875 118.007812 19.894531 118.148438 19.082031 C 118.292969 18.265625 118.359375 17.445312 118.34375 16.621094 C 118.34375 14.84375 118 13.132812 117.320312 11.488281 C 116.636719 9.84375 115.667969 8.394531 114.410156 7.136719 C 113.292969 6.007812 112 5.136719 110.535156 4.519531 C 109.070312 3.90625 107.546875 3.59375 105.957031 3.582031 L 105.742188 3.582031 C 104.902344 3.613281 104.074219 3.726562 103.257812 3.921875 C 102.4375 4.113281 101.648438 4.386719 100.882812 4.734375 C 100.117188 5.082031 99.394531 5.503906 98.710938 5.992188 C 98.03125 6.484375 97.402344 7.035156 96.828125 7.652344 C 96.253906 8.265625 95.746094 8.929688 95.304688 9.640625 C 94.863281 10.355469 94.492188 11.105469 94.199219 11.890625 C 93.902344 12.675781 93.6875 13.484375 93.550781 14.3125 C 93.414062 15.140625 93.359375 15.976562 93.386719 16.8125 C 93.40625 18.597656 93.765625 20.308594 94.46875 21.945312 C 95.167969 23.585938 96.160156 25.027344 97.4375 26.273438 C 98.558594 27.371094 99.84375 28.21875 101.296875 28.8125 C 102.746094 29.410156 104.257812 29.710938 105.828125 29.71875 Z M 105.78125 9.128906 L 105.875 9.128906 C 106.746094 9.132812 107.582031 9.308594 108.382812 9.644531 C 109.1875 9.984375 109.894531 10.460938 110.503906 11.082031 C 111.238281 11.816406 111.804688 12.667969 112.199219 13.628906 C 112.597656 14.589844 112.792969 15.59375 112.789062 16.632812 C 112.808594 17.097656 112.777344 17.5625 112.703125 18.027344 C 112.632812 18.488281 112.515625 18.941406 112.355469 19.378906 C 112.195312 19.820312 111.992188 20.238281 111.753906 20.640625 C 111.511719 21.042969 111.234375 21.417969 110.921875 21.765625 C 110.609375 22.113281 110.265625 22.429688 109.890625 22.710938 C 109.519531 22.992188 109.121094 23.238281 108.699219 23.445312 C 108.28125 23.652344 107.84375 23.816406 107.390625 23.9375 C 106.941406 24.0625 106.480469 24.140625 106.011719 24.175781 L 105.921875 24.175781 C 105.054688 24.171875 104.222656 24.007812 103.421875 23.679688 C 102.621094 23.355469 101.910156 22.890625 101.292969 22.285156 C 100.546875 21.558594 99.96875 20.710938 99.558594 19.753906 C 99.152344 18.792969 98.945312 17.792969 98.9375 16.75 C 98.914062 16.273438 98.933594 15.804688 99.003906 15.332031 C 99.074219 14.863281 99.1875 14.40625 99.34375 13.957031 C 99.503906 13.507812 99.703125 13.082031 99.945312 12.671875 C 100.1875 12.265625 100.46875 11.882812 100.785156 11.53125 C 101.105469 11.175781 101.453125 10.859375 101.832031 10.574219 C 102.214844 10.289062 102.617188 10.042969 103.046875 9.835938 C 103.476562 9.628906 103.917969 9.464844 104.378906 9.347656 C 104.839844 9.226562 105.308594 9.15625 105.78125 9.128906 Z M 148.558594 24.5 C 146.972656 20.492188 142.714844 18.78125 138.199219 20.335938 L 134.214844 21.710938 C 129.019531 23.503906 123.648438 25.359375 118.359375 27.316406 C 116.363281 28.097656 114.570312 29.203125 112.980469 30.640625 C 112.15625 31.378906 111.238281 31.972656 110.230469 32.429688 C 109.21875 32.882812 108.164062 33.171875 107.0625 33.300781 C 105.960938 33.425781 104.867188 33.382812 103.78125 33.167969 C 102.691406 32.957031 101.664062 32.585938 100.691406 32.050781 C 95.808594 29.28125 93.179688 29.757812 89.464844 34.074219 C 85.371094 38.816406 81.289062 43.578125 77.609375 47.882812 C 69.25 39.148438 62.808594 32.585938 59.605469 29.289062 C 58.371094 27.867188 56.828125 26.992188 54.972656 26.671875 C 54.078125 26.601562 53.203125 26.691406 52.339844 26.941406 C 51.480469 27.191406 50.691406 27.585938 49.976562 28.125 C 49.484375 28.453125 48.964844 28.742188 48.421875 28.980469 C 47.878906 29.222656 47.316406 29.414062 46.738281 29.558594 C 46.164062 29.703125 45.578125 29.796875 44.984375 29.835938 C 44.390625 29.878906 43.796875 29.867188 43.207031 29.808594 C 42.613281 29.746094 42.03125 29.632812 41.460938 29.472656 C 40.886719 29.308594 40.335938 29.097656 39.796875 28.839844 C 39.261719 28.582031 38.753906 28.277344 38.273438 27.929688 C 37.789062 27.582031 37.339844 27.195312 36.925781 26.769531 C 35.757812 25.609375 34.40625 24.722656 32.875 24.109375 C 25.972656 21.617188 19.074219 19.242188 12.394531 16.941406 L 12.257812 16.894531 C 7.417969 15.230469 3.265625 16.835938 1.679688 20.976562 C 0.078125 25.148438 1.863281 28.960938 6.476562 31.175781 C 8.484375 32.140625 10.488281 33.113281 12.492188 34.085938 L 13.742188 34.691406 C 18.835938 37.160156 24.109375 39.71875 29.351562 42.160156 C 30.261719 42.585938 30.261719 42.636719 30.253906 43.480469 C 30.175781 49.417969 30.207031 55.425781 30.238281 61.21875 L 30.289062 74.242188 C 30.3125 82.550781 30.5 103.84375 30.558594 112.300781 C 30.546875 113.023438 30.621094 113.738281 30.785156 114.441406 C 30.945312 115.148438 31.1875 115.824219 31.515625 116.46875 C 31.839844 117.117188 32.238281 117.714844 32.707031 118.265625 C 33.179688 118.816406 33.710938 119.300781 34.296875 119.722656 C 34.824219 120.078125 35.386719 120.367188 35.984375 120.582031 C 36.578125 120.800781 37.195312 120.945312 37.828125 121.011719 C 38.460938 121.078125 39.089844 121.070312 39.71875 120.980469 C 40.347656 120.894531 40.960938 120.730469 41.550781 120.496094 C 42.558594 120.082031 43.480469 119.519531 44.308594 118.808594 C 45.054688 119.515625 45.90625 120.066406 46.859375 120.453125 C 47.8125 120.84375 48.800781 121.046875 49.832031 121.0625 C 50.703125 121.058594 51.554688 120.921875 52.386719 120.65625 C 53.703125 120.277344 54.839844 119.601562 55.804688 118.636719 C 56.632812 117.59375 57.253906 116.441406 57.664062 115.175781 C 58.074219 113.910156 58.253906 112.613281 58.199219 111.285156 C 58.210938 104.207031 58.289062 81.203125 58.105469 50.085938 L 70.160156 62.378906 C 70.628906 63.660156 71.386719 64.742188 72.425781 65.625 C 76.058594 68.75 80.171875 68.394531 83.429688 64.660156 C 85.582031 62.203125 87.757812 59.652344 89.6875 57.40625 L 90.03125 57.003906 C 90.734375 56.183594 91.4375 55.363281 92.136719 54.542969 L 92.152344 62.957031 C 92.175781 76.085938 92.203125 99.4375 92.1875 112.785156 C 92.113281 113.683594 92.1875 114.566406 92.40625 115.441406 C 92.625 116.316406 92.980469 117.128906 93.472656 117.886719 C 93.964844 118.640625 94.5625 119.296875 95.273438 119.855469 C 95.980469 120.414062 96.761719 120.839844 97.613281 121.140625 C 98.589844 121.515625 99.601562 121.710938 100.648438 121.714844 C 101.667969 121.707031 102.652344 121.511719 103.601562 121.128906 C 104.550781 120.75 105.394531 120.210938 106.140625 119.507812 C 106.667969 120.011719 107.25 120.433594 107.894531 120.773438 C 108.539062 121.117188 109.21875 121.363281 109.929688 121.515625 C 110.644531 121.667969 111.363281 121.71875 112.09375 121.671875 C 112.820312 121.625 113.527344 121.480469 114.214844 121.234375 C 119.257812 119.527344 119.851562 115.042969 119.859375 111.824219 L 119.914062 87.996094 C 119.96875 74.492188 120.027344 60.527344 120.023438 46.792969 C 120.023438 46.128906 120.023438 46.128906 120.667969 45.824219 C 127.082031 42.8125 133.53125 39.6875 139.765625 36.667969 L 144.023438 34.601562 C 148.363281 32.496094 150.144531 28.535156 148.558594 24.5 Z M 71.90625 54.554688 C 71.542969 54.980469 71.214844 55.433594 70.921875 55.914062 L 52.914062 37.9375 C 52.589844 79.164062 52.414062 108.699219 52.648438 111.285156 C 52.648438 111.285156 52.808594 113.867188 51.75 114.84375 C 51.453125 115.09375 51.117188 115.269531 50.738281 115.367188 C 49.855469 115.644531 48.78125 115.734375 47.160156 113.765625 L 46.996094 75.484375 C 46.996094 75.121094 46.925781 74.769531 46.785156 74.429688 C 46.648438 74.09375 46.445312 73.792969 46.1875 73.535156 C 45.929688 73.277344 45.632812 73.078125 45.292969 72.9375 C 44.953125 72.796875 44.601562 72.730469 44.234375 72.730469 C 43.871094 72.730469 43.519531 72.796875 43.179688 72.9375 C 42.839844 73.078125 42.542969 73.277344 42.285156 73.535156 C 42.023438 73.792969 41.824219 74.09375 41.6875 74.429688 C 41.546875 74.769531 41.476562 75.121094 41.476562 75.484375 L 41.640625 113.824219 L 41.53125 113.910156 C 40.945312 114.476562 40.285156 114.949219 39.558594 115.320312 C 39.207031 115.472656 38.84375 115.53125 38.464844 115.5 C 38.085938 115.464844 37.738281 115.34375 37.421875 115.136719 C 36.980469 114.789062 36.644531 114.363281 36.414062 113.855469 C 36.183594 113.347656 36.082031 112.8125 36.109375 112.253906 C 36.046875 103.601562 35.859375 82.039062 35.839844 74.21875 L 35.789062 61.203125 L 35.789062 61.089844 C 35.757812 55.335938 35.726562 49.390625 35.804688 43.546875 C 35.855469 42.863281 35.796875 42.1875 35.628906 41.523438 C 35.460938 40.859375 35.191406 40.238281 34.820312 39.660156 C 34.449219 39.082031 33.996094 38.578125 33.460938 38.148438 C 32.925781 37.71875 32.335938 37.382812 31.691406 37.144531 C 26.539062 34.742188 21.328125 32.21875 16.296875 29.773438 L 15.414062 29.34375 C 13.234375 28.285156 11.058594 27.226562 8.886719 26.175781 C 6.125 24.851562 6.625 23.570312 6.863281 22.953125 C 7.046875 22.453125 7.550781 21.136719 10.441406 22.128906 L 10.589844 22.175781 C 17.242188 24.46875 24.121094 26.835938 30.96875 29.308594 C 31.78125 29.65625 32.492188 30.144531 33.105469 30.777344 C 33.746094 31.425781 34.441406 32.011719 35.183594 32.535156 C 35.925781 33.0625 36.710938 33.519531 37.53125 33.910156 C 38.355469 34.300781 39.207031 34.613281 40.085938 34.855469 C 40.964844 35.097656 41.855469 35.261719 42.761719 35.347656 C 43.667969 35.433594 44.578125 35.441406 45.484375 35.371094 C 46.394531 35.296875 47.289062 35.148438 48.171875 34.921875 C 49.050781 34.695312 49.910156 34.390625 50.738281 34.015625 C 51.566406 33.640625 52.359375 33.195312 53.109375 32.679688 C 53.460938 32.363281 53.871094 32.199219 54.34375 32.179688 C 54.832031 32.289062 55.207031 32.558594 55.46875 32.988281 C 56.203125 34.011719 63.382812 41.285156 74.085938 51.992188 C 73.335938 52.878906 72.601562 53.738281 71.90625 54.554688 Z M 141.597656 29.613281 L 137.300781 31.683594 C 131.078125 34.699219 124.644531 37.816406 118.292969 40.800781 C 117.695312 41.03125 117.148438 41.347656 116.648438 41.75 C 116.152344 42.152344 115.734375 42.625 115.386719 43.164062 C 115.042969 43.703125 114.789062 44.28125 114.632812 44.902344 C 114.472656 45.519531 114.414062 46.148438 114.457031 46.785156 C 114.457031 60.515625 114.40625 74.472656 114.347656 87.964844 L 114.292969 111.796875 C 114.285156 115.347656 113.253906 115.695312 112.421875 115.976562 C 111.476562 116.296875 110.378906 116.371094 108.457031 113.902344 L 108.457031 76.523438 C 108.457031 76.160156 108.386719 75.808594 108.25 75.46875 C 108.109375 75.132812 107.910156 74.835938 107.648438 74.574219 C 107.390625 74.316406 107.09375 74.117188 106.753906 73.980469 C 106.414062 73.839844 106.0625 73.769531 105.699219 73.769531 C 105.332031 73.769531 104.980469 73.839844 104.640625 73.980469 C 104.304688 74.117188 104.003906 74.316406 103.746094 74.574219 C 103.488281 74.835938 103.285156 75.132812 103.148438 75.46875 C 103.007812 75.808594 102.9375 76.160156 102.9375 76.523438 L 102.9375 114.195312 C 102.9375 114.378906 102.957031 114.5625 102.992188 114.746094 C 102.941406 114.808594 102.894531 114.878906 102.84375 114.941406 C 102.675781 115.207031 102.46875 115.433594 102.21875 115.628906 C 101.96875 115.820312 101.695312 115.960938 101.394531 116.054688 C 101.09375 116.148438 100.785156 116.1875 100.46875 116.167969 C 100.15625 116.152344 99.855469 116.082031 99.566406 115.957031 C 98.425781 115.527344 97.722656 114.851562 97.722656 112.789062 C 97.742188 99.695312 97.722656 76.609375 97.691406 63.730469 L 97.660156 39.949219 L 91.351562 47.011719 C 90.527344 47.933594 89.847656 48.691406 89.175781 49.464844 C 87.992188 50.839844 86.8125 52.21875 85.632812 53.597656 L 85.179688 54.125 C 83.242188 56.390625 81.242188 58.730469 79.246094 61.011719 C 77.890625 62.566406 77.195312 62.40625 76.054688 61.425781 C 75.238281 60.722656 74.6875 59.84375 76.136719 58.144531 C 81.269531 52.125 87.363281 44.984375 93.664062 37.691406 C 95.546875 35.511719 95.542969 35.507812 97.953125 36.875 C 98.6875 37.277344 99.445312 37.625 100.230469 37.914062 C 101.015625 38.203125 101.816406 38.425781 102.636719 38.59375 C 103.457031 38.757812 104.285156 38.855469 105.121094 38.894531 C 105.957031 38.929688 106.792969 38.902344 107.621094 38.8125 C 108.453125 38.71875 109.273438 38.5625 110.082031 38.347656 C 110.890625 38.128906 111.675781 37.847656 112.4375 37.511719 C 113.203125 37.171875 113.9375 36.773438 114.640625 36.324219 C 115.34375 35.871094 116.007812 35.367188 116.632812 34.8125 C 117.714844 33.828125 118.929688 33.0625 120.285156 32.511719 C 125.621094 30.539062 130.972656 28.691406 136.148438 26.90625 L 140.015625 25.570312 C 140.808594 25.304688 142.730469 24.855469 143.394531 26.527344 C 143.875 27.761719 143.273438 28.796875 141.597656 29.613281 Z M 44.371094 26.148438 L 44.386719 26.148438 C 46 26.148438 47.550781 25.835938 49.039062 25.210938 C 50.527344 24.589844 51.839844 23.703125 52.972656 22.554688 C 54.230469 21.285156 55.191406 19.820312 55.859375 18.164062 C 56.527344 16.507812 56.847656 14.785156 56.824219 13 C 56.84375 12.171875 56.785156 11.351562 56.648438 10.535156 C 56.507812 9.714844 56.289062 8.921875 55.992188 8.148438 C 55.695312 7.375 55.328125 6.636719 54.886719 5.933594 C 54.445312 5.234375 53.9375 4.582031 53.367188 3.980469 C 52.796875 3.378906 52.175781 2.835938 51.496094 2.355469 C 50.820312 1.875 50.105469 1.46875 49.347656 1.128906 C 48.589844 0.789062 47.804688 0.527344 46.996094 0.34375 C 46.1875 0.15625 45.371094 0.0507812 44.539062 0.0273438 C 42.917969 0.0195312 41.351562 0.316406 39.847656 0.925781 C 38.34375 1.53125 37.011719 2.40625 35.851562 3.539062 C 34.589844 4.789062 33.617188 6.230469 32.9375 7.871094 C 32.257812 9.507812 31.921875 11.214844 31.925781 12.988281 C 31.898438 14.769531 32.214844 16.488281 32.878906 18.140625 C 33.539062 19.792969 34.496094 21.257812 35.746094 22.527344 C 36.882812 23.683594 38.199219 24.574219 39.695312 25.203125 C 41.191406 25.832031 42.75 26.144531 44.371094 26.148438 Z M 39.753906 7.492188 C 40.375 6.878906 41.085938 6.40625 41.894531 6.070312 C 42.703125 5.738281 43.542969 5.570312 44.414062 5.570312 L 44.492188 5.570312 C 44.945312 5.640625 45.386719 5.746094 45.820312 5.890625 C 46.25 6.035156 46.667969 6.214844 47.070312 6.433594 C 47.472656 6.648438 47.851562 6.898438 48.210938 7.175781 C 48.570312 7.457031 48.902344 7.765625 49.207031 8.105469 C 49.515625 8.441406 49.789062 8.800781 50.035156 9.1875 C 50.28125 9.570312 50.488281 9.972656 50.664062 10.394531 C 50.839844 10.8125 50.980469 11.246094 51.082031 11.691406 C 51.183594 12.132812 51.246094 12.582031 51.273438 13.039062 C 51.265625 14.078125 51.070312 15.082031 50.6875 16.050781 C 50.300781 17.019531 49.753906 17.882812 49.039062 18.640625 C 48.734375 18.953125 48.402344 19.230469 48.042969 19.476562 C 47.683594 19.722656 47.304688 19.929688 46.902344 20.097656 C 46.5 20.265625 46.085938 20.394531 45.65625 20.480469 C 45.230469 20.566406 44.800781 20.605469 44.363281 20.605469 C 43.929688 20.605469 43.496094 20.5625 43.070312 20.472656 C 42.644531 20.386719 42.230469 20.257812 41.828125 20.085938 C 41.425781 19.917969 41.046875 19.707031 40.6875 19.460938 C 40.328125 19.214844 40 18.933594 39.695312 18.621094 C 38.96875 17.875 38.410156 17.015625 38.027344 16.046875 C 37.644531 15.074219 37.464844 14.066406 37.488281 13.023438 C 37.476562 11.988281 37.671875 10.992188 38.0625 10.03125 C 38.457031 9.074219 39.019531 8.226562 39.753906 7.492188 Z M 39.753906 7.492188 " fill-opacity="1" fill-rule="nonzero"/></svg>