<svg xmlns="http://www.w3.org/2000/svg" xmlns:xlink="http://www.w3.org/1999/xlink" width="200" zoomAndPan="magnify" viewBox="0 0 150 149.999998" height="200" preserveAspectRatio="xMidYMid meet" version="1.0"><defs><clipPath id="fe98bca979"><path d="M 0 0 L 150 0 L 150 147.75 L 0 147.75 Z M 0 0 " clip-rule="nonzero"/></clipPath></defs><g clip-path="url(#fe98bca979)"><path fill="#000000" d="M 122.503906 93.421875 L 122.542969 93.421875 C 123.558594 93.429688 124.5625 93.332031 125.5625 93.140625 C 126.558594 92.949219 127.527344 92.664062 128.46875 92.285156 C 129.410156 91.902344 130.304688 91.433594 131.15625 90.878906 C 132.003906 90.324219 132.792969 89.695312 133.519531 88.984375 C 134.246094 88.277344 134.894531 87.507812 135.472656 86.671875 C 136.046875 85.835938 136.535156 84.953125 136.9375 84.023438 C 137.339844 83.09375 137.652344 82.136719 137.867188 81.144531 C 138.082031 80.15625 138.199219 79.152344 138.21875 78.140625 C 138.253906 76.105469 137.890625 74.148438 137.128906 72.261719 C 136.367188 70.375 135.269531 68.710938 133.828125 67.269531 C 132.367188 65.757812 130.671875 64.585938 128.734375 63.75 C 126.800781 62.917969 124.78125 62.488281 122.675781 62.464844 L 122.65625 62.464844 C 121.890625 62.453125 121.125 62.5 120.363281 62.601562 C 119.605469 62.703125 118.855469 62.859375 118.117188 63.074219 C 117.382812 63.285156 116.664062 63.550781 115.964844 63.871094 C 115.269531 64.1875 114.597656 64.558594 113.957031 64.976562 C 113.3125 65.394531 112.703125 65.855469 112.128906 66.363281 C 111.554688 66.871094 111.023438 67.421875 110.53125 68.007812 C 110.039062 68.59375 109.589844 69.214844 109.191406 69.867188 C 108.789062 70.519531 108.441406 71.199219 108.140625 71.902344 C 107.839844 72.609375 107.59375 73.332031 107.402344 74.074219 C 107.210938 74.8125 107.074219 75.566406 106.992188 76.328125 C 106.914062 77.085938 106.886719 77.851562 106.921875 78.617188 C 106.953125 79.378906 107.042969 80.140625 107.1875 80.890625 C 107.335938 81.640625 107.535156 82.378906 107.789062 83.101562 C 108.042969 83.824219 108.351562 84.523438 108.710938 85.199219 C 109.070312 85.875 109.476562 86.523438 109.929688 87.140625 C 110.386719 87.753906 110.882812 88.335938 111.425781 88.878906 C 112.898438 90.339844 114.59375 91.464844 116.511719 92.25 C 118.429688 93.039062 120.429688 93.429688 122.503906 93.421875 Z M 114.667969 70.488281 C 115.695312 69.441406 116.890625 68.628906 118.246094 68.058594 C 119.601562 67.488281 121.015625 67.199219 122.484375 67.195312 L 122.542969 67.195312 C 124.011719 67.191406 125.421875 67.46875 126.777344 68.03125 C 128.132812 68.589844 129.328125 69.390625 130.359375 70.433594 C 131.371094 71.417969 132.152344 72.558594 132.703125 73.855469 C 133.25 75.152344 133.527344 76.507812 133.53125 77.914062 C 133.519531 78.621094 133.445312 79.320312 133.300781 80.011719 C 133.15625 80.703125 132.945312 81.375 132.667969 82.023438 C 132.394531 82.675781 132.058594 83.292969 131.660156 83.878906 C 131.265625 84.460938 130.816406 85.003906 130.316406 85.503906 C 129.8125 86 129.269531 86.445312 128.679688 86.839844 C 128.089844 87.230469 127.46875 87.5625 126.816406 87.832031 C 126.164062 88.105469 125.488281 88.3125 124.796875 88.453125 C 124.101562 88.59375 123.402344 88.667969 122.695312 88.671875 C 121.238281 88.671875 119.835938 88.40625 118.484375 87.871094 C 117.132812 87.332031 115.929688 86.566406 114.875 85.566406 C 114.359375 85.085938 113.898438 84.558594 113.492188 83.984375 C 113.082031 83.410156 112.734375 82.800781 112.449219 82.15625 C 112.164062 81.511719 111.949219 80.847656 111.796875 80.160156 C 111.648438 79.472656 111.566406 78.777344 111.558594 78.070312 C 111.546875 77.367188 111.609375 76.671875 111.738281 75.980469 C 111.871094 75.289062 112.070312 74.617188 112.339844 73.964844 C 112.605469 73.3125 112.933594 72.695312 113.328125 72.109375 C 113.71875 71.523438 114.167969 70.984375 114.667969 70.488281 Z M 53.714844 118.335938 C 53.230469 117.070312 52.65625 115.847656 51.992188 114.664062 C 51.328125 113.484375 50.585938 112.355469 49.757812 111.277344 C 48.933594 110.203125 48.035156 109.195312 47.0625 108.25 C 46.089844 107.300781 45.058594 106.429688 43.960938 105.632812 C 42.863281 104.835938 41.714844 104.121094 40.511719 103.492188 C 39.3125 102.859375 38.070312 102.316406 36.792969 101.863281 C 35.515625 101.410156 34.210938 101.050781 32.878906 100.78125 C 31.546875 100.515625 30.203125 100.347656 28.847656 100.273438 C 27.382812 100.214844 25.917969 100.273438 24.460938 100.441406 C 23 100.609375 21.566406 100.890625 20.152344 101.28125 C 18.734375 101.675781 17.359375 102.171875 16.023438 102.777344 C 14.6875 103.382812 13.402344 104.089844 12.175781 104.894531 C 10.949219 105.699219 9.792969 106.59375 8.707031 107.574219 C 7.617188 108.558594 6.613281 109.621094 5.691406 110.761719 C 4.769531 111.902344 3.941406 113.105469 3.207031 114.375 C 2.472656 115.644531 1.839844 116.960938 1.3125 118.328125 L 0 121.644531 L 55.007812 121.644531 Z M 7.441406 116.785156 C 7.941406 115.902344 8.496094 115.058594 9.109375 114.25 C 9.722656 113.4375 10.382812 112.671875 11.097656 111.953125 C 11.8125 111.230469 12.570312 110.558594 13.371094 109.933594 C 14.175781 109.3125 15.015625 108.746094 15.894531 108.234375 C 16.769531 107.726562 17.679688 107.273438 18.617188 106.882812 C 19.554688 106.492188 20.511719 106.164062 21.492188 105.898438 C 22.476562 105.632812 23.46875 105.433594 24.476562 105.300781 C 25.484375 105.167969 26.496094 105.101562 27.511719 105.101562 C 28.527344 105.101562 29.539062 105.167969 30.546875 105.300781 C 31.554688 105.433594 32.550781 105.632812 33.53125 105.898438 C 34.511719 106.164062 35.46875 106.492188 36.40625 106.882812 C 37.34375 107.273438 38.253906 107.726562 39.128906 108.234375 C 40.007812 108.746094 40.847656 109.3125 41.652344 109.933594 C 42.453125 110.558594 43.210938 111.230469 43.925781 111.953125 C 44.640625 112.671875 45.300781 113.4375 45.914062 114.25 C 46.527344 115.058594 47.082031 115.902344 47.582031 116.785156 Z M 76.441406 125.917969 C 74.972656 125.859375 73.511719 125.914062 72.050781 126.082031 C 70.59375 126.25 69.15625 126.53125 67.742188 126.921875 C 66.324219 127.316406 64.949219 127.8125 63.613281 128.417969 C 62.273438 129.023438 60.992188 129.730469 59.765625 130.535156 C 58.539062 131.339844 57.378906 132.234375 56.292969 133.21875 C 55.203125 134.203125 54.199219 135.261719 53.277344 136.402344 C 52.355469 137.542969 51.527344 138.75 50.792969 140.019531 C 50.058594 141.285156 49.425781 142.605469 48.894531 143.972656 L 47.582031 147.289062 L 102.589844 147.289062 L 101.296875 143.976562 C 100.8125 142.714844 100.238281 141.488281 99.574219 140.308594 C 98.910156 139.125 98.167969 137.996094 97.339844 136.921875 C 96.515625 135.847656 95.617188 134.835938 94.644531 133.890625 C 93.675781 132.945312 92.640625 132.074219 91.542969 131.277344 C 90.445312 130.480469 89.296875 129.765625 88.097656 129.132812 C 86.894531 128.503906 85.65625 127.960938 84.375 127.507812 C 83.097656 127.050781 81.792969 126.691406 80.460938 126.425781 C 79.132812 126.160156 77.789062 125.992188 76.433594 125.917969 Z M 55.027344 142.4375 C 55.527344 141.554688 56.082031 140.707031 56.691406 139.898438 C 57.304688 139.089844 57.96875 138.324219 58.679688 137.601562 C 59.394531 136.878906 60.152344 136.207031 60.957031 135.585938 C 61.757812 134.960938 62.597656 134.394531 63.476562 133.886719 C 64.355469 133.375 65.261719 132.921875 66.199219 132.53125 C 67.136719 132.140625 68.09375 131.8125 69.078125 131.546875 C 70.058594 131.28125 71.050781 131.082031 72.058594 130.949219 C 73.066406 130.816406 74.078125 130.75 75.09375 130.75 C 76.109375 130.75 77.121094 130.816406 78.128906 130.949219 C 79.136719 131.082031 80.132812 131.28125 81.113281 131.546875 C 82.09375 131.8125 83.054688 132.140625 83.992188 132.53125 C 84.929688 132.921875 85.835938 133.375 86.714844 133.886719 C 87.589844 134.394531 88.429688 134.960938 89.234375 135.585938 C 90.035156 136.207031 90.792969 136.878906 91.507812 137.601562 C 92.222656 138.324219 92.882812 139.089844 93.496094 139.898438 C 94.109375 140.707031 94.664062 141.554688 95.164062 142.4375 Z M 59.4375 104.210938 C 59.417969 106.277344 59.800781 108.269531 60.585938 110.179688 C 61.371094 112.09375 62.492188 113.785156 63.957031 115.246094 C 65.425781 116.707031 67.125 117.832031 69.042969 118.621094 C 70.964844 119.410156 72.960938 119.800781 75.039062 119.792969 L 75.074219 119.792969 C 76.089844 119.796875 77.097656 119.703125 78.09375 119.511719 C 79.089844 119.320312 80.058594 119.03125 81 118.652344 C 81.941406 118.273438 82.835938 117.804688 83.6875 117.25 C 84.535156 116.695312 85.324219 116.0625 86.050781 115.355469 C 86.777344 114.648438 87.425781 113.875 88.003906 113.039062 C 88.578125 112.207031 89.066406 111.324219 89.46875 110.394531 C 89.875 109.464844 90.183594 108.503906 90.398438 107.515625 C 90.613281 106.523438 90.730469 105.523438 90.75 104.507812 C 90.785156 102.476562 90.421875 100.515625 89.660156 98.632812 C 88.898438 96.746094 87.800781 95.082031 86.363281 93.640625 C 84.898438 92.128906 83.203125 90.953125 81.269531 90.121094 C 79.332031 89.285156 77.3125 88.859375 75.207031 88.832031 L 75.1875 88.832031 C 74.675781 88.824219 74.164062 88.839844 73.65625 88.878906 C 73.144531 88.921875 72.640625 88.988281 72.136719 89.078125 C 71.632812 89.171875 71.136719 89.285156 70.644531 89.425781 C 70.152344 89.566406 69.667969 89.730469 69.195312 89.917969 C 68.71875 90.109375 68.253906 90.320312 67.800781 90.554688 C 67.34375 90.789062 66.902344 91.042969 66.472656 91.320312 C 66.046875 91.601562 65.632812 91.898438 65.234375 92.21875 C 64.832031 92.535156 64.449219 92.875 64.085938 93.230469 C 63.71875 93.589844 63.375 93.960938 63.042969 94.355469 C 62.714844 94.746094 62.410156 95.152344 62.121094 95.574219 C 61.832031 95.996094 61.566406 96.429688 61.320312 96.878906 C 61.078125 97.324219 60.855469 97.785156 60.65625 98.253906 C 60.457031 98.726562 60.28125 99.203125 60.128906 99.691406 C 59.980469 100.179688 59.851562 100.671875 59.75 101.171875 C 59.648438 101.671875 59.570312 102.175781 59.519531 102.683594 C 59.464844 103.191406 59.4375 103.699219 59.4375 104.210938 Z M 67.199219 96.859375 C 68.230469 95.808594 69.421875 95 70.777344 94.425781 C 72.132812 93.855469 73.546875 93.570312 75.019531 93.566406 L 75.074219 93.566406 C 76.542969 93.558594 77.953125 93.839844 79.3125 94.398438 C 80.667969 94.960938 81.859375 95.761719 82.894531 96.800781 C 83.90625 97.785156 84.683594 98.925781 85.234375 100.226562 C 85.785156 101.523438 86.058594 102.875 86.0625 104.285156 C 86.054688 104.992188 85.976562 105.691406 85.832031 106.382812 C 85.6875 107.074219 85.476562 107.742188 85.199219 108.394531 C 84.925781 109.042969 84.589844 109.660156 84.191406 110.246094 C 83.796875 110.832031 83.347656 111.375 82.847656 111.871094 C 82.34375 112.371094 81.800781 112.816406 81.210938 113.207031 C 80.621094 113.597656 80 113.929688 79.347656 114.203125 C 78.695312 114.476562 78.019531 114.679688 77.328125 114.824219 C 76.632812 114.964844 75.933594 115.035156 75.226562 115.042969 C 73.769531 115.042969 72.367188 114.773438 71.015625 114.238281 C 69.664062 113.703125 68.460938 112.933594 67.40625 111.9375 C 66.890625 111.453125 66.429688 110.925781 66.019531 110.351562 C 65.613281 109.777344 65.265625 109.171875 64.980469 108.527344 C 64.695312 107.882812 64.480469 107.214844 64.328125 106.527344 C 64.179688 105.839844 64.097656 105.144531 64.089844 104.441406 C 64.078125 103.738281 64.140625 103.039062 64.269531 102.347656 C 64.402344 101.65625 64.601562 100.984375 64.871094 100.332031 C 65.136719 99.683594 65.464844 99.0625 65.859375 98.476562 C 66.25 97.894531 66.699219 97.351562 67.199219 96.859375 Z M 96.363281 117.605469 L 95.0625 120.921875 L 150.066406 120.921875 L 148.773438 117.613281 C 148.273438 116.289062 147.679688 115.015625 146.988281 113.78125 C 146.292969 112.550781 145.511719 111.378906 144.640625 110.265625 C 143.769531 109.152344 142.820312 108.113281 141.792969 107.144531 C 140.761719 106.171875 139.667969 105.289062 138.503906 104.484375 C 137.339844 103.679688 136.121094 102.96875 134.847656 102.351562 C 133.578125 101.730469 132.265625 101.210938 130.914062 100.789062 C 129.5625 100.367188 128.1875 100.050781 126.789062 99.839844 C 125.390625 99.625 123.984375 99.519531 122.570312 99.519531 C 121.152344 99.519531 119.746094 99.625 118.347656 99.839844 C 116.949219 100.050781 115.574219 100.367188 114.222656 100.789062 C 112.871094 101.210938 111.558594 101.730469 110.289062 102.351562 C 109.015625 102.96875 107.796875 103.679688 106.636719 104.484375 C 105.472656 105.289062 104.375 106.171875 103.347656 107.144531 C 102.316406 108.113281 101.367188 109.152344 100.496094 110.265625 C 99.625 111.378906 98.84375 112.550781 98.152344 113.78125 C 97.457031 115.015625 96.863281 116.289062 96.363281 117.613281 Z M 142.640625 116.058594 L 102.503906 116.058594 C 103.003906 115.175781 103.558594 114.332031 104.171875 113.519531 C 104.78125 112.710938 105.445312 111.945312 106.160156 111.222656 C 106.871094 110.503906 107.632812 109.832031 108.433594 109.207031 C 109.234375 108.585938 110.078125 108.019531 110.953125 107.507812 C 111.832031 107 112.738281 106.546875 113.675781 106.15625 C 114.613281 105.765625 115.574219 105.4375 116.554688 105.171875 C 117.535156 104.90625 118.53125 104.707031 119.539062 104.574219 C 120.542969 104.441406 121.554688 104.375 122.574219 104.375 C 123.589844 104.375 124.601562 104.441406 125.609375 104.574219 C 126.617188 104.707031 127.609375 104.90625 128.589844 105.171875 C 129.570312 105.4375 130.53125 105.765625 131.46875 106.15625 C 132.40625 106.546875 133.3125 107 134.191406 107.507812 C 135.070312 108.019531 135.910156 108.585938 136.710938 109.207031 C 137.515625 109.832031 138.273438 110.503906 138.984375 111.222656 C 139.699219 111.945312 140.363281 112.710938 140.972656 113.519531 C 141.585938 114.332031 142.140625 115.175781 142.640625 116.058594 Z M 27.445312 94.148438 L 27.484375 94.148438 C 28.5 94.152344 29.503906 94.058594 30.503906 93.867188 C 31.5 93.675781 32.46875 93.390625 33.410156 93.007812 C 34.351562 92.628906 35.246094 92.160156 36.09375 91.605469 C 36.945312 91.050781 37.734375 90.417969 38.460938 89.710938 C 39.183594 89.003906 39.835938 88.230469 40.410156 87.398438 C 40.988281 86.5625 41.476562 85.679688 41.878906 84.75 C 42.28125 83.820312 42.589844 82.859375 42.804688 81.871094 C 43.023438 80.878906 43.140625 79.878906 43.160156 78.867188 C 43.191406 76.832031 42.828125 74.875 42.070312 72.988281 C 41.308594 71.101562 40.207031 69.4375 38.769531 67.996094 C 37.308594 66.484375 35.609375 65.308594 33.675781 64.476562 C 31.742188 63.644531 29.722656 63.214844 27.613281 63.191406 L 27.597656 63.191406 C 26.828125 63.179688 26.066406 63.222656 25.304688 63.324219 C 24.542969 63.429688 23.796875 63.585938 23.058594 63.796875 C 22.320312 64.011719 21.605469 64.277344 20.90625 64.597656 C 20.207031 64.914062 19.539062 65.28125 18.894531 65.703125 C 18.253906 66.121094 17.644531 66.582031 17.070312 67.089844 C 16.496094 67.597656 15.960938 68.144531 15.46875 68.734375 C 14.976562 69.320312 14.53125 69.941406 14.128906 70.59375 C 13.730469 71.246094 13.378906 71.925781 13.078125 72.628906 C 12.78125 73.335938 12.535156 74.058594 12.339844 74.796875 C 12.148438 75.539062 12.011719 76.289062 11.933594 77.050781 C 11.851562 77.8125 11.828125 78.578125 11.859375 79.339844 C 11.894531 80.105469 11.984375 80.863281 12.128906 81.617188 C 12.273438 82.367188 12.472656 83.105469 12.730469 83.828125 C 12.984375 84.550781 13.289062 85.25 13.648438 85.925781 C 14.007812 86.601562 14.414062 87.25 14.871094 87.863281 C 15.324219 88.480469 15.824219 89.0625 16.363281 89.605469 C 17.835938 91.066406 19.53125 92.191406 21.453125 92.976562 C 23.371094 93.765625 25.371094 94.15625 27.445312 94.148438 Z M 19.609375 71.214844 C 20.636719 70.164062 21.832031 69.355469 23.1875 68.785156 C 24.542969 68.210938 25.957031 67.925781 27.425781 67.921875 L 27.484375 67.921875 C 28.953125 67.917969 30.363281 68.195312 31.71875 68.757812 C 33.074219 69.316406 34.269531 70.117188 35.300781 71.160156 C 36.3125 72.140625 37.09375 73.285156 37.644531 74.582031 C 38.191406 75.878906 38.46875 77.234375 38.472656 78.640625 C 38.460938 79.347656 38.386719 80.046875 38.242188 80.738281 C 38.097656 81.429688 37.886719 82.101562 37.609375 82.75 C 37.332031 83.402344 36.996094 84.019531 36.601562 84.601562 C 36.207031 85.1875 35.757812 85.730469 35.253906 86.226562 C 34.753906 86.726562 34.207031 87.171875 33.617188 87.5625 C 33.03125 87.957031 32.410156 88.289062 31.757812 88.558594 C 31.101562 88.832031 30.429688 89.039062 29.734375 89.179688 C 29.042969 89.320312 28.339844 89.394531 27.632812 89.398438 C 26.179688 89.398438 24.777344 89.132812 23.425781 88.59375 C 22.074219 88.058594 20.871094 87.289062 19.816406 86.292969 C 19.300781 85.8125 18.839844 85.285156 18.429688 84.710938 C 18.023438 84.136719 17.675781 83.527344 17.390625 82.882812 C 17.105469 82.238281 16.886719 81.574219 16.738281 80.886719 C 16.585938 80.195312 16.507812 79.5 16.496094 78.796875 C 16.488281 78.09375 16.546875 77.394531 16.679688 76.703125 C 16.8125 76.011719 17.011719 75.339844 17.277344 74.691406 C 17.546875 74.039062 17.875 73.421875 18.269531 72.835938 C 18.660156 72.25 19.105469 71.710938 19.609375 71.214844 Z M 60.660156 46.996094 C 61.96875 48.339844 62.984375 49.878906 63.707031 51.609375 C 64.996094 54.925781 65.640625 58.367188 65.640625 61.925781 C 65.625 62.148438 65.636719 62.371094 65.667969 62.59375 C 65.703125 62.8125 65.761719 63.027344 65.839844 63.234375 C 65.921875 63.445312 66.023438 63.640625 66.148438 63.828125 C 66.269531 64.015625 66.410156 64.1875 66.570312 64.339844 C 66.730469 64.496094 66.90625 64.632812 67.097656 64.753906 C 67.285156 64.871094 67.488281 64.96875 67.699219 65.042969 C 67.910156 65.117188 68.125 65.167969 68.347656 65.195312 C 68.570312 65.226562 68.792969 65.230469 69.015625 65.210938 L 80.941406 65.210938 C 81.164062 65.226562 81.386719 65.222656 81.609375 65.195312 C 81.832031 65.164062 82.050781 65.113281 82.261719 65.039062 C 82.472656 64.964844 82.671875 64.871094 82.863281 64.753906 C 83.054688 64.636719 83.230469 64.5 83.394531 64.34375 C 83.554688 64.191406 83.699219 64.023438 83.824219 63.835938 C 83.953125 63.652344 84.058594 63.457031 84.140625 63.25 C 84.226562 63.042969 84.289062 62.828125 84.328125 62.609375 C 84.367188 62.390625 84.382812 62.167969 84.375 61.945312 C 84.527344 59.613281 84.8125 57.296875 85.230469 55 C 85.46875 53.515625 85.929688 52.105469 86.605469 50.761719 C 87.285156 49.421875 88.152344 48.214844 89.207031 47.144531 C 89.691406 46.667969 90.148438 46.171875 90.582031 45.65625 C 91.015625 45.136719 91.417969 44.597656 91.796875 44.039062 C 92.179688 43.476562 92.527344 42.902344 92.847656 42.304688 C 93.171875 41.710938 93.460938 41.101562 93.722656 40.480469 C 93.980469 39.855469 94.210938 39.222656 94.40625 38.574219 C 94.601562 37.929688 94.765625 37.277344 94.898438 36.613281 C 95.027344 35.949219 95.125 35.285156 95.191406 34.609375 C 95.253906 33.9375 95.285156 33.265625 95.28125 32.589844 C 95.277344 31.914062 95.242188 31.242188 95.171875 30.570312 C 95.101562 29.898438 94.996094 29.230469 94.859375 28.570312 C 94.71875 27.910156 94.550781 27.257812 94.347656 26.613281 C 94.144531 25.96875 93.910156 25.335938 93.644531 24.714844 C 93.375 24.09375 93.078125 23.488281 92.753906 22.898438 C 92.425781 22.308594 92.070312 21.734375 91.683594 21.179688 C 91.300781 20.621094 90.890625 20.085938 90.449219 19.574219 C 90.011719 19.058594 89.550781 18.566406 89.0625 18.097656 C 87.957031 17.019531 86.746094 16.082031 85.421875 15.285156 C 84.097656 14.488281 82.699219 13.851562 81.226562 13.382812 C 79.753906 12.910156 78.25 12.617188 76.707031 12.496094 C 75.167969 12.375 73.632812 12.4375 72.105469 12.671875 C 71.171875 12.78125 70.25 12.957031 69.339844 13.203125 C 68.429688 13.445312 67.542969 13.753906 66.679688 14.125 C 65.816406 14.496094 64.984375 14.929688 64.183594 15.421875 C 63.382812 15.914062 62.621094 16.464844 61.902344 17.066406 C 61.179688 17.671875 60.507812 18.324219 59.882812 19.023438 C 59.257812 19.726562 58.683594 20.46875 58.167969 21.253906 C 57.648438 22.035156 57.191406 22.855469 56.792969 23.703125 C 56.398438 24.554688 56.0625 25.429688 55.792969 26.328125 C 55.472656 27.210938 55.214844 28.109375 55.027344 29.027344 C 54.835938 29.949219 54.714844 30.875 54.660156 31.808594 C 54.605469 32.746094 54.617188 33.679688 54.699219 34.617188 C 54.777344 35.550781 54.925781 36.472656 55.140625 37.386719 C 55.355469 38.300781 55.636719 39.191406 55.980469 40.0625 C 56.324219 40.9375 56.730469 41.777344 57.199219 42.59375 C 57.667969 43.40625 58.191406 44.183594 58.769531 44.917969 C 59.347656 45.65625 59.980469 46.351562 60.660156 46.996094 Z M 60.332031 27.214844 C 60.570312 26.511719 60.859375 25.828125 61.199219 25.167969 C 61.539062 24.507812 61.925781 23.875 62.363281 23.269531 C 62.796875 22.667969 63.273438 22.101562 63.796875 21.566406 C 64.316406 21.035156 64.875 20.546875 65.46875 20.097656 C 66.0625 19.648438 66.683594 19.246094 67.339844 18.890625 C 67.996094 18.535156 68.671875 18.230469 69.371094 17.976562 C 70.070312 17.722656 70.785156 17.523438 71.515625 17.375 C 72.246094 17.226562 72.984375 17.136719 73.730469 17.097656 C 75.058594 16.976562 76.378906 17.027344 77.695312 17.246094 C 79.011719 17.46875 80.277344 17.851562 81.496094 18.398438 C 82.710938 18.949219 83.835938 19.640625 84.871094 20.484375 C 85.90625 21.324219 86.816406 22.28125 87.605469 23.355469 C 88.417969 24.441406 89.078125 25.613281 89.585938 26.871094 C 90.09375 28.125 90.433594 29.425781 90.605469 30.769531 C 90.773438 32.117188 90.769531 33.460938 90.585938 34.804688 C 90.40625 36.144531 90.058594 37.445312 89.539062 38.695312 C 88.867188 40.464844 87.859375 42.015625 86.515625 43.351562 C 85.03125 44.78125 83.796875 46.398438 82.816406 48.207031 C 81.835938 50.015625 81.152344 51.929688 80.769531 53.953125 C 80.453125 55.40625 80.273438 56.898438 80.101562 58.335938 C 80.023438 58.949219 79.949219 59.566406 79.867188 60.171875 C 79.84375 60.3125 79.828125 60.449219 79.820312 60.589844 L 70.191406 60.5625 L 70.128906 59.886719 C 70.050781 59.003906 69.972656 58.117188 69.851562 57.234375 C 69.65625 55.101562 69.179688 53.035156 68.421875 51.03125 C 67.664062 49.03125 66.652344 47.164062 65.390625 45.433594 C 65.015625 44.960938 64.597656 44.519531 64.183594 44.078125 L 63.871094 43.746094 C 63.332031 43.226562 62.832031 42.671875 62.371094 42.078125 C 61.914062 41.484375 61.5 40.859375 61.136719 40.207031 C 60.769531 39.550781 60.457031 38.875 60.191406 38.171875 C 59.929688 37.472656 59.71875 36.753906 59.5625 36.023438 C 59.402344 35.289062 59.300781 34.550781 59.257812 33.800781 C 59.210938 33.054688 59.21875 32.308594 59.285156 31.5625 C 59.351562 30.816406 59.46875 30.078125 59.644531 29.351562 C 59.820312 28.621094 60.050781 27.910156 60.332031 27.214844 Z M 47.164062 18.421875 L 46.976562 17.894531 C 46.953125 17.410156 47.054688 16.953125 47.28125 16.523438 C 47.507812 16.097656 47.824219 15.753906 48.234375 15.496094 C 48.574219 15.296875 48.941406 15.199219 49.335938 15.195312 C 49.726562 15.191406 50.09375 15.285156 50.4375 15.480469 C 52.144531 16.402344 53.8125 17.394531 55.253906 18.238281 C 55.507812 18.394531 55.726562 18.59375 55.902344 18.835938 C 56.082031 19.078125 56.207031 19.34375 56.28125 19.632812 C 56.359375 19.921875 56.375 20.214844 56.339844 20.511719 C 56.300781 20.808594 56.210938 21.085938 56.0625 21.347656 C 55.753906 21.945312 55.277344 22.339844 54.636719 22.542969 C 54.421875 22.601562 54.207031 22.632812 53.988281 22.632812 C 53.597656 22.636719 53.234375 22.539062 52.894531 22.339844 C 51.207031 21.425781 49.609375 20.503906 48.046875 19.535156 C 47.628906 19.265625 47.335938 18.894531 47.164062 18.425781 Z M 72.609375 7.984375 C 72.597656 6.425781 72.609375 4.878906 72.609375 3.324219 L 72.609375 2.925781 C 72.597656 2.605469 72.648438 2.296875 72.765625 1.996094 C 72.882812 1.695312 73.050781 1.429688 73.273438 1.199219 C 73.496094 0.96875 73.757812 0.789062 74.054688 0.664062 C 74.351562 0.535156 74.660156 0.472656 74.980469 0.472656 C 75.304688 0.46875 75.613281 0.53125 75.910156 0.65625 C 76.207031 0.777344 76.46875 0.953125 76.695312 1.183594 C 76.917969 1.414062 77.089844 1.675781 77.210938 1.976562 C 77.328125 2.273438 77.382812 2.585938 77.375 2.90625 C 77.375 3.308594 77.375 3.707031 77.375 4.101562 L 77.375 5.074219 L 77.386719 6.21875 C 77.386719 6.816406 77.386719 7.410156 77.375 8.003906 C 77.386719 8.722656 77.136719 9.335938 76.625 9.84375 C 76.164062 10.28125 75.617188 10.492188 74.984375 10.480469 L 74.929688 10.480469 C 74.605469 10.480469 74.296875 10.414062 74 10.285156 C 73.703125 10.15625 73.445312 9.972656 73.226562 9.734375 C 73.007812 9.5 72.84375 9.230469 72.734375 8.925781 C 72.628906 8.621094 72.585938 8.308594 72.609375 7.988281 Z M 56.207031 43.75 C 56.300781 43.992188 56.351562 44.242188 56.355469 44.5 C 56.359375 44.757812 56.320312 45.007812 56.238281 45.253906 C 56.15625 45.496094 56.035156 45.71875 55.875 45.921875 C 55.710938 46.125 55.519531 46.292969 55.300781 46.429688 C 53.546875 47.480469 51.941406 48.398438 50.375 49.257812 C 50.050781 49.433594 49.703125 49.519531 49.332031 49.515625 C 48.902344 49.511719 48.5 49.398438 48.132812 49.171875 C 47.765625 48.949219 47.480469 48.644531 47.28125 48.261719 C 47.128906 48.011719 47.03125 47.738281 46.988281 47.449219 C 46.945312 47.160156 46.953125 46.871094 47.019531 46.585938 C 47.085938 46.300781 47.207031 46.035156 47.375 45.796875 C 47.542969 45.554688 47.75 45.355469 47.996094 45.195312 C 49.355469 44.378906 50.734375 43.59375 52.121094 42.808594 L 52.953125 42.332031 C 53.1875 42.203125 53.4375 42.128906 53.703125 42.109375 L 53.941406 42.085938 L 54.003906 42.085938 C 54.515625 42.09375 54.972656 42.253906 55.382812 42.558594 C 55.789062 42.867188 56.0625 43.265625 56.207031 43.753906 Z M 99.273438 49.097656 C 97.839844 48.273438 96.410156 47.449219 94.992188 46.625 C 94.703125 46.476562 94.453125 46.277344 94.242188 46.027344 C 94.03125 45.78125 93.878906 45.5 93.78125 45.1875 C 93.683594 44.878906 93.648438 44.558594 93.679688 44.234375 C 93.710938 43.910156 93.800781 43.605469 93.957031 43.316406 C 94.265625 42.742188 94.738281 42.367188 95.371094 42.195312 C 96.078125 42.007812 96.746094 42.109375 97.367188 42.496094 C 98.855469 43.339844 100.335938 44.195312 101.8125 45.050781 C 102.042969 45.175781 102.246094 45.339844 102.421875 45.535156 C 102.597656 45.734375 102.738281 45.953125 102.839844 46.199219 C 102.9375 46.441406 102.996094 46.695312 103.007812 46.960938 C 103.023438 47.222656 102.992188 47.480469 102.917969 47.734375 C 102.855469 47.988281 102.75 48.226562 102.605469 48.449219 C 102.460938 48.667969 102.28125 48.859375 102.074219 49.019531 C 101.863281 49.179688 101.632812 49.304688 101.382812 49.390625 C 101.132812 49.472656 100.875 49.515625 100.613281 49.511719 L 100.464844 49.523438 L 99.980469 49.394531 C 99.738281 49.316406 99.5 49.21875 99.273438 49.101562 Z M 93.960938 21.402344 C 93.761719 21.039062 93.660156 20.648438 93.65625 20.234375 C 93.660156 19.804688 93.769531 19.402344 93.988281 19.03125 C 94.207031 18.660156 94.5 18.371094 94.875 18.15625 C 96.359375 17.28125 97.847656 16.414062 99.339844 15.578125 C 99.523438 15.46875 99.714844 15.386719 99.921875 15.328125 C 100.125 15.269531 100.335938 15.234375 100.546875 15.230469 C 100.761719 15.222656 100.972656 15.242188 101.179688 15.289062 C 101.386719 15.335938 101.585938 15.410156 101.773438 15.507812 C 101.964844 15.605469 102.136719 15.726562 102.296875 15.867188 C 102.453125 16.007812 102.59375 16.167969 102.710938 16.34375 C 102.828125 16.519531 102.921875 16.710938 102.992188 16.910156 C 103.0625 17.113281 103.109375 17.316406 103.125 17.53125 L 103.195312 18.027344 L 102.746094 18.632812 C 102.519531 19.039062 102.210938 19.371094 101.824219 19.632812 C 100.300781 20.570312 98.722656 21.464844 97.238281 22.289062 C 96.863281 22.511719 96.457031 22.621094 96.019531 22.625 C 95.589844 22.621094 95.191406 22.511719 94.824219 22.292969 C 94.453125 22.074219 94.167969 21.777344 93.960938 21.402344 Z M 79.96875 79.371094 C 80.289062 79.371094 80.609375 79.339844 80.921875 79.277344 C 81.238281 79.214844 81.542969 79.121094 81.839844 79 C 82.136719 78.875 82.417969 78.726562 82.683594 78.546875 C 82.949219 78.371094 83.195312 78.167969 83.425781 77.941406 C 83.652344 77.714844 83.855469 77.46875 84.03125 77.203125 C 84.210938 76.9375 84.363281 76.65625 84.484375 76.359375 C 84.609375 76.0625 84.699219 75.757812 84.761719 75.445312 C 84.828125 75.132812 84.859375 74.8125 84.859375 74.496094 L 84.859375 73.558594 C 84.859375 73.238281 84.828125 72.921875 84.765625 72.605469 C 84.703125 72.292969 84.609375 71.988281 84.488281 71.691406 C 84.363281 71.394531 84.214844 71.113281 84.035156 70.847656 C 83.855469 70.582031 83.652344 70.332031 83.425781 70.105469 C 83.199219 69.878906 82.953125 69.679688 82.6875 69.5 C 82.417969 69.320312 82.136719 69.171875 81.839844 69.046875 C 81.542969 68.925781 81.238281 68.832031 80.921875 68.769531 C 80.609375 68.707031 80.289062 68.675781 79.96875 68.675781 L 70.164062 68.675781 C 69.839844 68.675781 69.523438 68.707031 69.207031 68.769531 C 68.894531 68.832031 68.589844 68.925781 68.292969 69.046875 C 67.996094 69.171875 67.714844 69.320312 67.445312 69.5 C 67.179688 69.675781 66.933594 69.878906 66.707031 70.105469 C 66.480469 70.332031 66.277344 70.578125 66.097656 70.84375 C 65.921875 71.109375 65.769531 71.390625 65.644531 71.6875 C 65.523438 71.984375 65.429688 72.289062 65.367188 72.601562 C 65.304688 72.914062 65.273438 73.234375 65.273438 73.554688 L 65.273438 74.488281 C 65.273438 74.808594 65.304688 75.125 65.367188 75.441406 C 65.429688 75.753906 65.523438 76.058594 65.648438 76.355469 C 65.769531 76.648438 65.921875 76.929688 66.097656 77.195312 C 66.277344 77.464844 66.480469 77.710938 66.707031 77.9375 C 66.933594 78.160156 67.179688 78.363281 67.449219 78.542969 C 67.714844 78.71875 67.996094 78.871094 68.292969 78.992188 C 68.589844 79.117188 68.894531 79.207031 69.210938 79.269531 C 69.523438 79.332031 69.839844 79.363281 70.164062 79.367188 Z M 79.96875 75.132812 L 70.164062 75.132812 C 69.984375 75.132812 69.835938 75.070312 69.710938 74.945312 C 69.585938 74.820312 69.523438 74.671875 69.519531 74.496094 L 69.519531 73.558594 C 69.519531 73.382812 69.582031 73.230469 69.710938 73.105469 C 69.835938 72.980469 69.984375 72.917969 70.164062 72.917969 L 79.96875 72.917969 C 80.144531 72.921875 80.292969 72.984375 80.417969 73.109375 C 80.539062 73.234375 80.601562 73.382812 80.601562 73.558594 L 80.601562 74.496094 C 80.601562 74.667969 80.539062 74.820312 80.417969 74.945312 C 80.292969 75.066406 80.144531 75.132812 79.96875 75.132812 Z M 79.96875 75.132812 " fill-opacity="1" fill-rule="nonzero"/></g></svg>