<svg xmlns="http://www.w3.org/2000/svg" xmlns:xlink="http://www.w3.org/1999/xlink" width="200" zoomAndPan="magnify" viewBox="0 0 150 149.999998" height="200" preserveAspectRatio="xMidYMid meet" version="1.0"><path fill="#000000" d="M 142.347656 21.863281 C 140.347656 18.492188 137.941406 15.4375 135.125 12.707031 C 132.308594 9.976562 129.183594 7.660156 125.75 5.757812 C 122.601562 4.0625 119.292969 2.792969 115.820312 1.945312 C 114.109375 1.484375 112.382812 1.128906 110.628906 0.875 C 108.878906 0.625 107.117188 0.480469 105.347656 0.441406 C 103.582031 0.40625 101.816406 0.476562 100.054688 0.652344 C 98.292969 0.828125 96.550781 1.113281 94.824219 1.5 C 93.097656 1.886719 91.402344 2.378906 89.738281 2.972656 C 88.070312 3.566406 86.445312 4.261719 84.863281 5.050781 C 83.28125 5.84375 81.753906 6.726562 80.28125 7.703125 C 78.804688 8.679688 77.398438 9.742188 76.050781 10.890625 C 75.878906 11.03125 75.683594 11.160156 75.496094 11.289062 C 75.417969 11.328125 75.332031 11.355469 75.246094 11.378906 C 61.410156 0.269531 45.929688 -2.941406 29.277344 3.722656 C 26.019531 5.011719 22.945312 6.652344 20.054688 8.632812 C 17.164062 10.617188 14.535156 12.898438 12.160156 15.472656 C 0.289062 28.816406 1.15625 45.730469 1.441406 49.601562 C 2.144531 54.730469 3.628906 59.621094 5.898438 64.273438 C 8.304688 68.988281 11.394531 73.199219 15.171875 76.90625 C 15.625 77.320312 15.945312 77.820312 16.136719 78.40625 C 16.234375 79.027344 16.382812 79.636719 16.589844 80.234375 C 16.792969 80.828125 17.046875 81.402344 17.351562 81.953125 C 17.65625 82.503906 18.007812 83.027344 18.402344 83.515625 C 18.796875 84.007812 19.234375 84.460938 19.707031 84.875 C 20.183594 85.289062 20.691406 85.660156 21.230469 85.984375 C 21.769531 86.308594 22.332031 86.585938 22.921875 86.816406 C 23.507812 87.042969 24.113281 87.21875 24.730469 87.339844 C 25.351562 87.464844 25.976562 87.53125 26.605469 87.546875 C 26.804688 87.578125 27.003906 87.621094 27.199219 87.675781 C 27.792969 94.46875 31.476562 98.292969 38.550781 98.910156 C 38.628906 99.476562 38.722656 100.070312 38.796875 100.664062 C 38.863281 101.253906 38.976562 101.832031 39.140625 102.402344 C 39.304688 102.972656 39.515625 103.527344 39.773438 104.0625 C 40.035156 104.597656 40.335938 105.105469 40.679688 105.585938 C 41.027344 106.070312 41.410156 106.519531 41.832031 106.9375 C 42.257812 107.355469 42.710938 107.734375 43.199219 108.074219 C 43.6875 108.414062 44.199219 108.710938 44.738281 108.960938 C 45.273438 109.214844 45.832031 109.421875 46.402344 109.578125 C 46.976562 109.734375 47.558594 109.84375 48.152344 109.902344 C 49.519531 110.042969 50 110.457031 50.148438 111.90625 C 50.226562 112.886719 50.445312 113.835938 50.800781 114.75 C 51.160156 115.667969 51.640625 116.515625 52.25 117.289062 C 52.859375 118.0625 53.566406 118.730469 54.375 119.296875 C 55.179688 119.863281 56.050781 120.300781 56.988281 120.609375 C 57.96875 121.003906 58.984375 121.25 60.039062 121.339844 C 61.09375 121.429688 62.140625 121.363281 63.171875 121.136719 C 64.207031 120.914062 65.1875 120.542969 66.109375 120.023438 C 67.03125 119.503906 67.855469 118.859375 68.582031 118.09375 C 69.875 116.851562 71.046875 115.472656 72.738281 113.664062 C 74.703125 115.84375 76.347656 117.847656 78.179688 119.660156 C 78.738281 120.226562 79.351562 120.726562 80.023438 121.152344 C 80.695312 121.578125 81.40625 121.925781 82.15625 122.1875 C 82.910156 122.449219 83.679688 122.621094 84.472656 122.703125 C 85.261719 122.785156 86.054688 122.777344 86.84375 122.675781 C 87.433594 122.617188 88.019531 122.511719 88.589844 122.355469 C 89.164062 122.203125 89.722656 122 90.261719 121.753906 C 90.800781 121.507812 91.316406 121.214844 91.808594 120.882812 C 92.300781 120.550781 92.761719 120.179688 93.191406 119.769531 C 93.621094 119.359375 94.015625 118.917969 94.371094 118.445312 C 94.726562 117.96875 95.042969 117.46875 95.316406 116.941406 C 95.589844 116.414062 95.816406 115.867188 96 115.304688 C 96.179688 114.738281 96.3125 114.164062 96.402344 113.578125 C 96.503906 112.914062 96.585938 112.246094 96.640625 111.84375 C 98.597656 111.367188 100.507812 110.742188 102.367188 109.957031 C 103.167969 109.554688 103.90625 109.054688 104.574219 108.457031 C 105.242188 107.859375 105.820312 107.1875 106.308594 106.433594 C 106.796875 105.683594 107.179688 104.882812 107.453125 104.03125 C 107.730469 103.179688 107.890625 102.304688 107.933594 101.410156 C 108.058594 100.800781 108.40625 100.378906 108.980469 100.136719 C 115.558594 99.03125 118.339844 96.214844 119.300781 89.542969 C 119.34375 89.367188 119.394531 89.195312 119.464844 89.03125 C 120.699219 88.914062 121.898438 88.65625 123.074219 88.261719 L 123.382812 88.121094 C 124.09375 87.859375 124.769531 87.53125 125.417969 87.140625 C 125.527344 87.082031 125.625 87.015625 125.734375 86.953125 C 125.84375 86.894531 125.957031 86.839844 126.058594 86.769531 C 126.121094 86.722656 126.179688 86.671875 126.242188 86.625 C 126.464844 86.472656 126.679688 86.308594 126.878906 86.128906 C 127.53125 85.632812 128.117188 85.070312 128.644531 84.445312 C 129.15625 83.804688 129.605469 83.125 129.992188 82.402344 C 132.167969 79.960938 134.589844 77.769531 136.828125 75.390625 C 139.996094 72.199219 142.558594 68.582031 144.523438 64.539062 C 146.71875 60.105469 148.207031 55.441406 148.976562 50.550781 C 151.039062 36.46875 142.917969 22.796875 142.347656 21.863281 Z M 30.230469 80.527344 C 29.996094 80.746094 29.742188 80.9375 29.472656 81.105469 C 29.199219 81.273438 28.914062 81.414062 28.617188 81.527344 C 28.316406 81.640625 28.011719 81.722656 27.695312 81.773438 C 27.378906 81.828125 27.0625 81.851562 26.742188 81.84375 C 26.421875 81.835938 26.109375 81.796875 25.796875 81.730469 C 25.484375 81.660156 25.179688 81.5625 24.886719 81.4375 C 24.59375 81.3125 24.316406 81.15625 24.054688 80.976562 C 23.789062 80.796875 23.546875 80.59375 23.320312 80.363281 C 23.082031 80.144531 22.867188 79.902344 22.675781 79.636719 C 22.480469 79.375 22.320312 79.09375 22.183594 78.796875 C 22.046875 78.5 21.941406 78.195312 21.871094 77.878906 C 21.796875 77.558594 21.753906 77.238281 21.742188 76.914062 C 21.734375 76.585938 21.757812 76.265625 21.8125 75.941406 C 21.867188 75.621094 21.953125 75.308594 22.070312 75.003906 C 22.191406 74.703125 22.335938 74.414062 22.511719 74.136719 C 22.6875 73.863281 22.890625 73.609375 23.117188 73.375 C 24.808594 71.480469 26.609375 69.695312 28.515625 68.015625 C 29.476562 67.371094 30.507812 66.863281 31.605469 66.492188 C 32.121094 66.503906 32.625 66.585938 33.117188 66.742188 C 33.609375 66.894531 34.074219 67.113281 34.503906 67.394531 C 34.9375 67.675781 35.320312 68.011719 35.65625 68.402344 C 35.996094 68.789062 36.273438 69.21875 36.492188 69.683594 C 36.722656 70.113281 36.878906 70.566406 36.964844 71.046875 C 37.050781 71.523438 37.058594 72.003906 36.992188 72.484375 C 36.921875 72.964844 36.78125 73.425781 36.566406 73.859375 C 36.351562 74.296875 36.074219 74.6875 35.734375 75.035156 C 33.992188 76.960938 32.160156 78.792969 30.230469 80.53125 Z M 41.503906 91.835938 C 41.140625 92.175781 40.730469 92.453125 40.277344 92.667969 C 39.828125 92.878906 39.351562 93.019531 38.855469 93.082031 C 38.359375 93.144531 37.863281 93.132812 37.371094 93.039062 C 36.878906 92.945312 36.414062 92.78125 35.976562 92.539062 C 34.046875 91.640625 33.164062 90.027344 33.089844 87.253906 C 33.433594 86.304688 33.902344 85.417969 34.492188 84.597656 C 36.101562 82.78125 37.804688 81.054688 39.597656 79.421875 C 39.832031 79.199219 40.085938 78.996094 40.359375 78.820312 C 40.632812 78.644531 40.921875 78.492188 41.222656 78.371094 C 41.523438 78.246094 41.832031 78.15625 42.152344 78.089844 C 42.472656 78.027344 42.792969 77.992188 43.121094 77.988281 C 43.445312 77.984375 43.769531 78.011719 44.089844 78.070312 C 44.410156 78.125 44.722656 78.210938 45.027344 78.328125 C 45.328125 78.445312 45.621094 78.589844 45.898438 78.757812 C 46.175781 78.929688 46.433594 79.125 46.671875 79.34375 C 46.921875 79.566406 47.148438 79.8125 47.347656 80.078125 C 47.546875 80.347656 47.714844 80.632812 47.859375 80.933594 C 48 81.238281 48.109375 81.550781 48.1875 81.875 C 48.265625 82.199219 48.308594 82.527344 48.320312 82.863281 C 48.332031 83.195312 48.308594 83.527344 48.253906 83.855469 C 48.195312 84.183594 48.109375 84.503906 47.984375 84.816406 C 47.863281 85.128906 47.714844 85.421875 47.53125 85.703125 C 47.351562 85.984375 47.140625 86.242188 46.90625 86.480469 C 45.195312 88.355469 43.394531 90.140625 41.503906 91.839844 Z M 53.214844 102.78125 C 52.980469 103.027344 52.71875 103.246094 52.441406 103.441406 C 52.160156 103.632812 51.863281 103.796875 51.550781 103.929688 C 51.238281 104.066406 50.917969 104.167969 50.582031 104.238281 C 50.25 104.308594 49.914062 104.347656 49.574219 104.351562 C 49.234375 104.355469 48.894531 104.324219 48.5625 104.261719 C 48.226562 104.199219 47.902344 104.101562 47.585938 103.976562 C 47.269531 103.847656 46.972656 103.691406 46.6875 103.503906 C 46.402344 103.316406 46.140625 103.101562 45.898438 102.863281 C 45.65625 102.625 45.445312 102.363281 45.257812 102.078125 C 45.066406 101.796875 44.910156 101.496094 44.78125 101.183594 C 44.65625 100.867188 44.558594 100.542969 44.496094 100.210938 C 44.433594 99.875 44.40625 99.539062 44.410156 99.199219 C 44.417969 98.859375 44.457031 98.527344 44.527344 98.195312 C 44.601562 97.863281 44.703125 97.539062 44.84375 97.230469 C 44.980469 96.917969 45.144531 96.625 45.34375 96.347656 C 45.539062 96.070312 45.761719 95.816406 46.007812 95.582031 C 47.609375 93.921875 49.230469 92.261719 50.929688 90.699219 C 51.285156 90.328125 51.6875 90.019531 52.140625 89.777344 C 52.59375 89.53125 53.074219 89.367188 53.578125 89.277344 C 54.085938 89.183594 54.59375 89.175781 55.101562 89.246094 C 55.609375 89.316406 56.097656 89.464844 56.558594 89.6875 C 58.578125 90.601562 59.460938 92.257812 59.660156 95.023438 C 59.222656 96.078125 58.667969 97.066406 57.996094 97.992188 C 56.488281 99.675781 54.894531 101.273438 53.214844 102.785156 Z M 69.496094 109.066406 C 67.863281 110.859375 66.140625 112.5625 64.320312 114.167969 C 63.445312 114.789062 62.5 115.28125 61.492188 115.644531 C 60.96875 115.691406 60.449219 115.660156 59.9375 115.550781 C 59.425781 115.445312 58.9375 115.265625 58.476562 115.015625 C 58.019531 114.765625 57.605469 114.453125 57.234375 114.082031 C 56.867188 113.707031 56.5625 113.289062 56.316406 112.828125 C 56.074219 112.421875 55.898438 111.992188 55.789062 111.53125 C 55.683594 111.070312 55.648438 110.605469 55.6875 110.136719 C 55.726562 109.664062 55.835938 109.210938 56.015625 108.777344 C 56.199219 108.339844 56.441406 107.941406 56.75 107.582031 C 58.59375 105.449219 60.582031 103.457031 62.714844 101.609375 C 62.960938 101.402344 63.222656 101.21875 63.5 101.0625 C 63.777344 100.90625 64.070312 100.78125 64.375 100.683594 C 64.679688 100.582031 64.988281 100.515625 65.308594 100.480469 C 65.625 100.441406 65.945312 100.4375 66.261719 100.460938 C 66.582031 100.488281 66.894531 100.542969 67.203125 100.632812 C 67.507812 100.71875 67.804688 100.835938 68.089844 100.980469 C 68.375 101.128906 68.640625 101.300781 68.894531 101.5 C 69.144531 101.695312 69.371094 101.917969 69.578125 102.160156 C 69.792969 102.394531 69.988281 102.648438 70.15625 102.917969 C 70.324219 103.1875 70.464844 103.472656 70.578125 103.769531 C 70.691406 104.066406 70.777344 104.371094 70.835938 104.683594 C 70.890625 104.996094 70.917969 105.3125 70.914062 105.632812 C 70.910156 105.949219 70.875 106.265625 70.8125 106.578125 C 70.746094 106.886719 70.65625 107.191406 70.535156 107.484375 C 70.414062 107.78125 70.265625 108.058594 70.089844 108.324219 C 69.914062 108.59375 69.71875 108.839844 69.496094 109.070312 Z M 123.324219 81.695312 C 122.832031 82.179688 122.265625 82.550781 121.625 82.800781 L 121.480469 82.855469 C 120.964844 83.007812 120.4375 83.085938 119.898438 83.085938 C 119.359375 83.089844 118.832031 83.015625 118.3125 82.863281 C 117.796875 82.710938 117.308594 82.492188 116.855469 82.199219 C 116.402344 81.910156 116 81.558594 115.648438 81.152344 C 108.304688 73.878906 100.980469 66.59375 93.664062 59.292969 C 93.425781 59.054688 93.203125 58.792969 92.949219 58.574219 C 92.667969 58.285156 92.34375 58.0625 91.976562 57.902344 C 91.605469 57.746094 91.222656 57.664062 90.820312 57.660156 C 90.417969 57.65625 90.03125 57.730469 89.660156 57.882812 C 89.289062 58.03125 88.960938 58.25 88.675781 58.535156 C 88.414062 58.820312 88.21875 59.148438 88.089844 59.515625 C 87.960938 59.878906 87.90625 60.257812 87.929688 60.644531 C 87.953125 61.03125 88.054688 61.398438 88.226562 61.746094 C 88.398438 62.09375 88.636719 62.394531 88.929688 62.648438 C 90.929688 64.71875 93.007812 66.71875 95.046875 68.75 C 100.726562 74.410156 106.421875 80.058594 112.070312 85.75 C 112.464844 86.140625 112.785156 86.585938 113.03125 87.082031 C 113.28125 87.578125 113.441406 88.101562 113.519531 88.652344 C 113.59375 89.203125 113.578125 89.75 113.472656 90.296875 C 113.367188 90.839844 113.175781 91.355469 112.902344 91.839844 C 112.640625 92.3125 112.308594 92.734375 111.90625 93.097656 C 111.507812 93.464844 111.054688 93.753906 110.558594 93.972656 C 110.058594 94.1875 109.539062 94.316406 108.996094 94.359375 C 108.457031 94.402344 107.921875 94.359375 107.394531 94.226562 C 106.300781 93.914062 105.351562 93.359375 104.539062 92.566406 C 97.125 85.28125 89.773438 77.9375 82.40625 70.613281 C 82.09375 70.285156 81.765625 69.976562 81.417969 69.6875 C 81.148438 69.433594 80.835938 69.238281 80.488281 69.105469 C 80.140625 68.972656 79.78125 68.90625 79.410156 68.914062 C 79.035156 68.917969 78.679688 68.992188 78.335938 69.140625 C 77.992188 69.285156 77.6875 69.488281 77.421875 69.75 C 77.152344 70.007812 76.945312 70.308594 76.796875 70.652344 C 76.652344 70.996094 76.578125 71.355469 76.582031 71.730469 C 76.585938 72.101562 76.664062 72.460938 76.8125 72.800781 C 76.964844 73.144531 77.179688 73.441406 77.453125 73.695312 C 79.867188 76.230469 82.378906 78.675781 84.859375 81.144531 C 90.0625 86.328125 95.28125 91.492188 100.460938 96.695312 C 100.710938 96.917969 100.9375 97.160156 101.140625 97.421875 C 101.339844 97.6875 101.515625 97.96875 101.664062 98.265625 C 101.8125 98.5625 101.933594 98.871094 102.019531 99.191406 C 102.109375 99.511719 102.167969 99.839844 102.195312 100.167969 C 102.222656 100.5 102.214844 100.832031 102.179688 101.164062 C 102.140625 101.492188 102.074219 101.816406 101.976562 102.132812 C 101.875 102.453125 101.75 102.757812 101.589844 103.050781 C 101.433594 103.34375 101.25 103.617188 101.039062 103.875 C 100.8125 104.148438 100.558594 104.390625 100.277344 104.609375 C 99.996094 104.828125 99.699219 105.015625 99.378906 105.171875 C 99.058594 105.324219 98.726562 105.445312 98.382812 105.53125 C 98.039062 105.617188 97.6875 105.667969 97.332031 105.679688 C 96.980469 105.695312 96.625 105.671875 96.277344 105.609375 C 95.925781 105.546875 95.585938 105.453125 95.257812 105.320312 C 94.925781 105.1875 94.613281 105.023438 94.320312 104.824219 C 94.023438 104.628906 93.753906 104.402344 93.507812 104.148438 C 89.808594 100.578125 86.203125 96.910156 82.546875 93.300781 C 80.976562 91.757812 79.375 90.25 77.773438 88.738281 C 77.5625 88.535156 77.335938 88.351562 77.097656 88.183594 L 68.226562 79.328125 C 67.964844 79.070312 67.664062 78.867188 67.328125 78.726562 C 66.988281 78.585938 66.632812 78.515625 66.265625 78.515625 C 65.898438 78.515625 65.542969 78.585938 65.203125 78.726562 C 64.863281 78.867188 64.566406 79.066406 64.304688 79.328125 C 64.042969 79.585938 63.84375 79.886719 63.703125 80.226562 C 63.5625 80.5625 63.492188 80.917969 63.492188 81.285156 C 63.492188 81.652344 63.5625 82.003906 63.703125 82.34375 C 63.84375 82.683594 64.042969 82.980469 64.304688 83.242188 L 73.125 92.046875 C 73.308594 92.3125 73.507812 92.558594 73.734375 92.785156 C 78.804688 97.859375 83.898438 102.902344 88.980469 107.972656 C 89.277344 108.21875 89.542969 108.492188 89.777344 108.796875 C 90.011719 109.097656 90.207031 109.425781 90.367188 109.773438 C 90.53125 110.121094 90.648438 110.484375 90.726562 110.859375 C 90.808594 111.234375 90.84375 111.613281 90.835938 111.996094 C 90.832031 112.378906 90.78125 112.757812 90.6875 113.128906 C 90.597656 113.5 90.464844 113.859375 90.292969 114.203125 C 90.121094 114.542969 89.910156 114.863281 89.664062 115.15625 C 89.421875 115.453125 89.144531 115.71875 88.839844 115.953125 C 88.410156 116.304688 87.933594 116.578125 87.410156 116.769531 C 86.886719 116.960938 86.347656 117.058594 85.789062 117.0625 C 85.234375 117.070312 84.691406 116.980469 84.164062 116.800781 C 83.636719 116.621094 83.15625 116.359375 82.71875 116.011719 C 80.5625 114.109375 78.554688 112.035156 76.542969 109.976562 C 76.230469 109.570312 76.132812 109.121094 76.242188 108.625 C 76.355469 108.226562 76.445312 107.824219 76.511719 107.414062 C 76.582031 107.007812 76.625 106.597656 76.644531 106.183594 C 76.667969 105.773438 76.664062 105.359375 76.636719 104.945312 C 76.609375 104.535156 76.5625 104.125 76.488281 103.71875 C 76.414062 103.3125 76.320312 102.910156 76.199219 102.511719 C 76.082031 102.117188 75.941406 101.730469 75.777344 101.351562 C 75.613281 100.96875 75.429688 100.601562 75.222656 100.242188 C 75.019531 99.882812 74.792969 99.535156 74.550781 99.203125 C 74.304688 98.871094 74.042969 98.550781 73.761719 98.246094 C 73.480469 97.945312 73.179688 97.65625 72.867188 97.386719 C 72.554688 97.117188 72.226562 96.867188 71.882812 96.636719 C 71.539062 96.402344 71.1875 96.191406 70.820312 96 C 70.453125 95.808594 70.074219 95.636719 69.691406 95.488281 C 69.304688 95.339844 68.910156 95.210938 68.507812 95.105469 C 68.109375 95.003906 67.703125 94.921875 67.292969 94.863281 C 66.882812 94.804688 66.472656 94.769531 66.058594 94.757812 C 65.851562 94.726562 65.652344 94.679688 65.453125 94.617188 C 64.898438 87.789062 61.128906 84.027344 54.152344 83.398438 C 53.542969 76.554688 49.839844 72.753906 43.039062 72.160156 C 42.71875 70.511719 42.253906 68.902344 41.65625 67.332031 C 41.480469 66.941406 41.285156 66.5625 41.066406 66.195312 C 40.84375 65.828125 40.605469 65.476562 40.34375 65.136719 C 40.082031 64.796875 39.800781 64.476562 39.5 64.171875 C 39.199219 63.867188 38.878906 63.582031 38.546875 63.3125 C 38.210938 63.046875 37.863281 62.800781 37.496094 62.574219 C 37.132812 62.351562 36.757812 62.148438 36.367188 61.96875 C 35.980469 61.785156 35.582031 61.628906 35.171875 61.496094 C 34.765625 61.363281 34.351562 61.257812 33.929688 61.175781 C 33.511719 61.089844 33.085938 61.035156 32.660156 61 C 32.234375 60.96875 31.804688 60.960938 31.375 60.980469 C 30.949219 61 30.523438 61.042969 30.101562 61.113281 C 29.675781 61.183594 29.261719 61.277344 28.847656 61.398438 C 28.4375 61.515625 28.035156 61.660156 27.640625 61.828125 C 27.246094 61.996094 26.863281 62.1875 26.492188 62.398438 C 26.121094 62.613281 25.761719 62.847656 25.417969 63.105469 C 25.078125 63.359375 24.75 63.636719 24.441406 63.929688 C 22.035156 66.0625 19.679688 68.261719 17.117188 70.601562 C 15.265625 68.660156 13.648438 66.539062 12.265625 64.238281 C 10.882812 61.941406 9.765625 59.519531 8.917969 56.972656 C 8.070312 54.429688 7.511719 51.820312 7.242188 49.152344 C 6.96875 46.484375 6.992188 43.820312 7.3125 41.15625 C 9.167969 24.601562 18.3125 13.371094 34.074219 8.019531 C 35.640625 7.496094 37.230469 7.078125 38.851562 6.765625 C 40.46875 6.449219 42.101562 6.246094 43.746094 6.148438 C 45.394531 6.050781 47.039062 6.058594 48.683594 6.179688 C 50.328125 6.300781 51.957031 6.527344 53.574219 6.859375 C 55.1875 7.195312 56.773438 7.632812 58.332031 8.179688 C 59.886719 8.722656 61.402344 9.367188 62.871094 10.109375 C 64.34375 10.851562 65.761719 11.691406 67.121094 12.621094 C 68.480469 13.550781 69.773438 14.566406 71 15.667969 C 66.507812 20.144531 62.101562 24.523438 57.714844 28.910156 C 55.960938 30.667969 54.148438 32.382812 52.550781 34.273438 C 52.066406 34.859375 51.644531 35.480469 51.277344 36.144531 C 50.914062 36.808594 50.613281 37.5 50.375 38.21875 C 50.140625 38.9375 49.972656 39.671875 49.871094 40.421875 C 49.773438 41.171875 49.742188 41.925781 49.785156 42.679688 C 49.828125 43.433594 49.9375 44.179688 50.117188 44.914062 C 50.296875 45.648438 50.546875 46.363281 50.859375 47.050781 C 51.171875 47.738281 51.546875 48.394531 51.980469 49.011719 C 52.417969 49.632812 52.90625 50.207031 53.449219 50.734375 C 53.992188 51.261719 54.578125 51.738281 55.207031 52.160156 C 55.835938 52.582031 56.496094 52.941406 57.191406 53.242188 C 57.886719 53.542969 58.605469 53.777344 59.34375 53.945312 C 60.082031 54.113281 60.832031 54.210938 61.585938 54.242188 C 62.34375 54.273438 63.097656 54.234375 63.847656 54.125 C 64.597656 54.019531 65.332031 53.84375 66.050781 53.601562 C 66.765625 53.359375 67.457031 53.050781 68.117188 52.683594 C 68.777344 52.3125 69.402344 51.886719 69.984375 51.402344 C 72.015625 49.628906 80.128906 41.683594 85.367188 36.601562 C 95.953125 47.117188 114.679688 65.773438 122.976562 74.0625 C 123.257812 74.285156 123.515625 74.539062 123.75 74.816406 C 123.980469 75.097656 124.175781 75.398438 124.34375 75.722656 C 124.507812 76.042969 124.636719 76.378906 124.730469 76.730469 C 124.824219 77.082031 124.878906 77.4375 124.894531 77.800781 C 124.910156 78.160156 124.890625 78.519531 124.828125 78.878906 C 124.765625 79.234375 124.667969 79.582031 124.535156 79.917969 C 124.398438 80.253906 124.226562 80.570312 124.023438 80.871094 C 123.820312 81.171875 123.585938 81.445312 123.324219 81.695312 Z M 143.433594 47.335938 C 143.136719 50.546875 142.46875 53.683594 141.433594 56.738281 C 140.398438 59.792969 139.023438 62.683594 137.304688 65.417969 C 136.292969 66.953125 135.199219 68.425781 134.027344 69.84375 C 132.859375 71.253906 131.664062 72.613281 130.585938 73.964844 C 128.996094 72.304688 127.476562 70.703125 125.980469 69.136719 C 125.980469 69.136719 123.84375 66.921875 121.519531 64.542969 C 118.183594 61.132812 104.3125 47.300781 85.351562 28.554688 C 81.738281 32.179688 69.171875 44.394531 66.6875 46.734375 C 66.132812 47.269531 65.5 47.691406 64.796875 48.003906 C 64.089844 48.316406 63.351562 48.496094 62.582031 48.546875 C 61.8125 48.597656 61.058594 48.515625 60.316406 48.296875 C 59.578125 48.082031 58.898438 47.742188 58.277344 47.285156 C 57.875 47.003906 57.511719 46.679688 57.183594 46.316406 C 56.855469 45.953125 56.574219 45.554688 56.332031 45.128906 C 56.09375 44.699219 55.902344 44.253906 55.765625 43.78125 C 55.625 43.3125 55.539062 42.835938 55.507812 42.347656 C 55.476562 41.855469 55.496094 41.371094 55.574219 40.886719 C 55.648438 40.402344 55.777344 39.933594 55.960938 39.480469 C 56.140625 39.023438 56.371094 38.59375 56.648438 38.191406 C 56.925781 37.789062 57.246094 37.417969 57.605469 37.085938 C 62.9375 31.71875 68.351562 26.429688 73.683594 21.066406 C 77.214844 17.121094 81.257812 13.800781 85.8125 11.105469 C 88.648438 9.558594 91.625 8.371094 94.742188 7.535156 C 97.863281 6.703125 101.035156 6.25 104.265625 6.175781 C 110.679688 6.355469 116.796875 7.804688 122.609375 10.519531 C 124.742188 11.476562 126.730469 12.671875 128.582031 14.097656 C 129.996094 15.214844 131.320312 16.4375 132.550781 17.761719 C 133.789062 19.046875 134.917969 20.425781 135.9375 21.894531 C 137.070312 23.5625 138.089844 25.296875 138.996094 27.097656 C 140.660156 30.199219 141.871094 33.46875 142.625 36.910156 C 143.378906 40.347656 143.648438 43.824219 143.433594 47.335938 Z M 143.433594 47.335938 " fill-opacity="1" fill-rule="nonzero"/></svg>