<svg xmlns="http://www.w3.org/2000/svg" xmlns:xlink="http://www.w3.org/1999/xlink" width="200" zoomAndPan="magnify" viewBox="0 0 150 149.999998" height="200" preserveAspectRatio="xMidYMid meet" version="1.0"><defs><clipPath id="85ecbdcc3a"><path d="M 0 2 L 148.566406 2 L 148.566406 148 L 0 148 Z M 0 2 " clip-rule="nonzero"/></clipPath></defs><g clip-path="url(#85ecbdcc3a)"><path fill="#000000" d="M 148.5 62.953125 C 148.441406 60.882812 148.230469 58.828125 147.867188 56.785156 L 140.613281 11.023438 C 140.398438 9.65625 139.925781 8.382812 139.199219 7.203125 C 138.472656 6.023438 137.550781 5.03125 136.425781 4.222656 L 135.867188 3.804688 L 135.855469 3.820312 C 134.785156 3.148438 133.628906 2.683594 132.390625 2.425781 C 131.152344 2.171875 129.90625 2.144531 128.65625 2.339844 C 127.433594 2.535156 126.28125 2.941406 125.203125 3.550781 C 124.125 4.164062 123.183594 4.941406 122.386719 5.890625 C 121.941406 5.671875 121.484375 5.484375 121.011719 5.332031 C 119.417969 4.8125 117.796875 4.695312 116.144531 4.980469 L 115.855469 5.027344 C 114.667969 5.25 113.550781 5.671875 112.507812 6.285156 C 111.46875 6.902344 110.5625 7.679688 109.792969 8.613281 L 109.34375 9.171875 C 108.527344 10.289062 107.957031 11.523438 107.632812 12.867188 C 107.3125 14.214844 107.257812 15.570312 107.476562 16.9375 L 112.902344 51.039062 L 86.890625 86.945312 L 86.800781 87.042969 C 85.824219 88.199219 85.136719 89.507812 84.738281 90.96875 C 84.34375 92.347656 84.25 93.75 84.453125 95.171875 L 89.957031 129.933594 C 90.074219 130.707031 90.457031 131.316406 91.105469 131.757812 L 111.652344 146.675781 L 111.824219 146.824219 C 112.121094 147.039062 112.445312 147.1875 112.804688 147.269531 C 113.160156 147.355469 113.519531 147.367188 113.878906 147.3125 C 114.242188 147.253906 114.578125 147.128906 114.890625 146.9375 C 115.203125 146.75 115.46875 146.507812 115.683594 146.210938 L 128.902344 127.960938 C 129.371094 127.328125 129.535156 126.621094 129.398438 125.847656 L 127.988281 118.085938 L 147.730469 68.824219 C 148.316406 66.910156 148.574219 64.953125 148.5 62.953125 Z M 113.824219 12.417969 L 113.976562 12.207031 C 114.765625 11.222656 115.78125 10.628906 117.023438 10.425781 C 117.804688 10.300781 118.578125 10.351562 119.335938 10.578125 C 119.578125 10.65625 119.808594 10.761719 120.027344 10.898438 C 119.835938 12.027344 119.820312 13.15625 119.988281 14.289062 L 125.046875 46.160156 C 123.535156 45.695312 121.996094 45.585938 120.433594 45.835938 C 119.519531 45.992188 118.640625 46.261719 117.792969 46.640625 L 112.925781 16.066406 C 112.832031 15.421875 112.859375 14.785156 113.015625 14.152344 C 113.171875 13.523438 113.441406 12.945312 113.824219 12.417969 Z M 142.558594 66.914062 L 122.585938 116.746094 C 122.363281 117.273438 122.3125 117.816406 122.441406 118.375 L 123.757812 125.664062 L 112.828125 140.726562 L 95.25 127.960938 L 89.914062 94.402344 C 89.816406 93.710938 89.867188 93.027344 90.066406 92.359375 C 90.265625 91.691406 90.59375 91.09375 91.054688 90.566406 L 118.09375 53.257812 C 118.828125 52.246094 119.808594 51.609375 121.03125 51.347656 L 121.289062 51.308594 C 122.519531 51.09375 123.660156 51.324219 124.714844 51.992188 L 124.957031 52.167969 C 125.484375 52.554688 125.917969 53.027344 126.257812 53.585938 C 126.597656 54.140625 126.816406 54.746094 126.914062 55.390625 C 127.019531 56.03125 127 56.667969 126.847656 57.300781 C 126.699219 57.929688 126.429688 58.507812 126.046875 59.03125 L 107.367188 84.773438 C 107.152344 85.074219 107.003906 85.398438 106.917969 85.757812 C 106.832031 86.113281 106.820312 86.472656 106.878906 86.835938 C 106.9375 87.199219 107.0625 87.535156 107.253906 87.847656 C 107.445312 88.160156 107.691406 88.425781 107.988281 88.640625 C 108.285156 88.855469 108.609375 89.003906 108.96875 89.089844 C 109.324219 89.175781 109.683594 89.191406 110.046875 89.132812 C 110.40625 89.074219 110.746094 88.949219 111.058594 88.757812 C 111.371094 88.566406 111.636719 88.320312 111.851562 88.023438 L 130.53125 62.28125 C 131.347656 61.164062 131.914062 59.929688 132.238281 58.582031 C 132.558594 57.234375 132.609375 55.875 132.386719 54.507812 C 132.226562 53.605469 131.953125 52.738281 131.570312 51.910156 L 125.457031 13.429688 C 125.347656 12.785156 125.367188 12.144531 125.523438 11.511719 C 125.675781 10.875 125.945312 10.296875 126.332031 9.769531 L 126.476562 9.585938 C 127.257812 8.59375 128.269531 7.996094 129.515625 7.796875 C 130.757812 7.609375 131.914062 7.851562 132.972656 8.53125 L 133.1875 8.683594 C 134.28125 9.484375 134.9375 10.550781 135.152344 11.890625 L 142.4375 57.722656 C 142.757812 59.480469 142.945312 61.253906 142.996094 63.039062 C 143.058594 64.355469 142.914062 65.648438 142.558594 66.914062 Z M 60.269531 87.042969 L 60.175781 86.945312 L 34.167969 51.035156 L 39.59375 16.933594 C 39.8125 15.566406 39.757812 14.210938 39.4375 12.863281 C 39.113281 11.519531 38.542969 10.285156 37.726562 9.167969 L 37.28125 8.609375 C 36.511719 7.675781 35.605469 6.898438 34.5625 6.285156 C 33.519531 5.667969 32.40625 5.246094 31.21875 5.023438 L 30.929688 4.976562 C 29.277344 4.691406 27.652344 4.808594 26.058594 5.328125 C 25.589844 5.480469 25.128906 5.667969 24.6875 5.886719 C 23.886719 4.9375 22.949219 4.160156 21.871094 3.546875 C 20.792969 2.9375 19.640625 2.53125 18.414062 2.335938 C 17.167969 2.140625 15.921875 2.171875 14.683594 2.425781 C 13.445312 2.679688 12.292969 3.144531 11.222656 3.820312 L 11.210938 3.804688 L 10.636719 4.222656 C 9.515625 5.03125 8.589844 6.027344 7.867188 7.203125 C 7.140625 8.382812 6.671875 9.65625 6.453125 11.023438 L -0.796875 56.796875 C -1.160156 58.832031 -1.371094 60.886719 -1.433594 62.953125 C -1.503906 64.953125 -1.25 66.910156 -0.664062 68.824219 L 19.082031 118.085938 L 17.675781 125.851562 C 17.539062 126.625 17.703125 127.332031 18.167969 127.964844 L 31.386719 146.214844 C 31.605469 146.511719 31.867188 146.753906 32.179688 146.941406 C 32.492188 147.132812 32.832031 147.257812 33.191406 147.316406 C 33.554688 147.371094 33.910156 147.359375 34.269531 147.273438 C 34.625 147.191406 34.949219 147.042969 35.246094 146.828125 L 35.417969 146.679688 L 55.964844 131.761719 C 56.613281 131.320312 56.992188 130.710938 57.109375 129.9375 L 62.617188 95.175781 C 62.820312 93.753906 62.726562 92.351562 62.332031 90.96875 C 61.929688 89.511719 61.242188 88.203125 60.269531 87.042969 Z M 27.082031 14.289062 C 27.25 13.15625 27.238281 12.027344 27.042969 10.898438 C 27.261719 10.761719 27.492188 10.65625 27.738281 10.578125 C 28.496094 10.351562 29.265625 10.300781 30.046875 10.425781 C 31.289062 10.628906 32.308594 11.222656 33.097656 12.207031 L 33.25 12.417969 C 33.632812 12.945312 33.902344 13.523438 34.054688 14.152344 C 34.210938 14.785156 34.238281 15.421875 34.140625 16.066406 L 29.273438 46.640625 C 28.425781 46.261719 27.546875 45.992188 26.632812 45.835938 C 25.070312 45.585938 23.53125 45.695312 22.019531 46.160156 Z M 57.15625 94.402344 L 51.820312 127.957031 L 34.246094 140.722656 L 23.320312 125.660156 L 24.625 118.371094 C 24.757812 117.8125 24.707031 117.269531 24.484375 116.742188 L 4.507812 66.914062 C 4.15625 65.648438 4.015625 64.359375 4.082031 63.046875 C 4.128906 61.257812 4.3125 59.480469 4.628906 57.722656 L 11.914062 11.882812 C 12.132812 10.550781 12.785156 9.484375 13.875 8.683594 L 14.085938 8.53125 C 15.148438 7.855469 16.300781 7.609375 17.546875 7.796875 C 18.792969 7.992188 19.808594 8.585938 20.59375 9.578125 L 20.734375 9.765625 C 21.125 10.289062 21.394531 10.871094 21.546875 11.507812 C 21.699219 12.144531 21.71875 12.785156 21.613281 13.429688 L 15.503906 51.910156 C 15.117188 52.738281 14.84375 53.609375 14.691406 54.511719 C 14.535156 55.417969 14.503906 56.328125 14.597656 57.238281 C 14.6875 58.152344 14.898438 59.039062 15.230469 59.894531 C 15.558594 60.75 16 61.546875 16.546875 62.28125 L 35.226562 88.023438 C 35.441406 88.316406 35.707031 88.554688 36.019531 88.742188 C 36.332031 88.929688 36.667969 89.050781 37.027344 89.105469 C 37.386719 89.160156 37.742188 89.144531 38.09375 89.058594 C 38.449219 88.972656 38.773438 88.824219 39.066406 88.609375 C 39.359375 88.394531 39.601562 88.132812 39.792969 87.824219 C 39.984375 87.515625 40.109375 87.179688 40.167969 86.824219 C 40.226562 86.464844 40.21875 86.105469 40.136719 85.753906 C 40.054688 85.398438 39.910156 85.074219 39.699219 84.773438 L 21.019531 59.03125 C 20.636719 58.507812 20.371094 57.929688 20.21875 57.300781 C 20.070312 56.667969 20.046875 56.03125 20.15625 55.390625 C 20.25 54.746094 20.46875 54.144531 20.808594 53.585938 C 21.144531 53.027344 21.578125 52.554688 22.105469 52.167969 L 22.34375 51.992188 C 23.398438 51.324219 24.542969 51.097656 25.773438 51.308594 L 26.03125 51.347656 C 27.253906 51.609375 28.230469 52.246094 28.964844 53.257812 L 56.015625 90.566406 C 56.476562 91.09375 56.804688 91.691406 57.003906 92.359375 C 57.203125 93.03125 57.257812 93.710938 57.160156 94.402344 Z M 101.390625 46.101562 C 101.875 44.929688 102.230469 43.722656 102.453125 42.476562 C 102.671875 41.230469 102.757812 39.972656 102.707031 38.710938 C 102.65625 37.445312 102.46875 36.199219 102.144531 34.976562 C 101.824219 33.75 101.371094 32.574219 100.792969 31.449219 C 100.488281 30.847656 100.148438 30.265625 99.777344 29.699219 C 99.40625 29.136719 99.003906 28.59375 98.574219 28.078125 C 98.140625 27.558594 97.679688 27.066406 97.191406 26.597656 C 96.703125 26.132812 96.191406 25.695312 95.65625 25.285156 C 95.117188 24.875 94.558594 24.5 93.980469 24.152344 C 93.398438 23.808594 92.800781 23.496094 92.1875 23.214844 C 91.570312 22.9375 90.941406 22.695312 90.300781 22.488281 C 89.65625 22.28125 89.003906 22.109375 88.34375 21.976562 C 87.683594 21.84375 87.015625 21.746094 86.34375 21.6875 C 85.667969 21.628906 84.996094 21.609375 84.320312 21.628906 C 83.644531 21.644531 82.972656 21.699219 82.304688 21.792969 C 81.636719 21.886719 80.976562 22.019531 80.320312 22.1875 C 79.667969 22.355469 79.027344 22.558594 78.394531 22.800781 C 77.765625 23.042969 77.148438 23.316406 76.550781 23.628906 C 75.949219 23.9375 75.371094 24.28125 74.808594 24.65625 C 74.246094 25.03125 73.710938 25.4375 73.195312 25.875 C 72.835938 25.589844 72.511719 25.328125 72.171875 25.078125 C 71.457031 24.558594 70.710938 24.089844 69.929688 23.679688 C 69.148438 23.269531 68.34375 22.917969 67.511719 22.625 C 66.679688 22.335938 65.828125 22.105469 64.960938 21.9375 C 64.09375 21.773438 63.21875 21.671875 62.339844 21.636719 C 61.457031 21.597656 60.578125 21.625 59.699219 21.71875 C 58.824219 21.8125 57.957031 21.96875 57.101562 22.191406 C 56.25 22.410156 55.414062 22.695312 54.601562 23.039062 C 53.789062 23.382812 53.007812 23.785156 52.253906 24.246094 C 51.503906 24.699219 50.792969 25.203125 50.117188 25.761719 C 49.445312 26.316406 48.8125 26.921875 48.230469 27.574219 C 47.644531 28.226562 47.113281 28.917969 46.628906 29.648438 C 46.148438 30.378906 45.722656 31.140625 45.351562 31.933594 C 44.984375 32.726562 44.675781 33.542969 44.425781 34.382812 C 44.179688 35.222656 43.992188 36.074219 43.871094 36.941406 C 43.75 37.808594 43.695312 38.679688 43.703125 39.554688 C 43.710938 40.433594 43.78125 41.300781 43.917969 42.167969 C 44.660156 46.128906 46.261719 49.707031 48.714844 52.902344 C 55.089844 61.972656 63.605469 68.875 71.078125 74.425781 C 71.695312 74.921875 72.402344 75.183594 73.191406 75.203125 C 74.132812 75.171875 74.941406 74.832031 75.621094 74.183594 C 77.191406 72.84375 78.785156 71.515625 80.375 70.191406 C 83.925781 67.238281 87.585938 64.1875 90.992188 60.960938 C 95.535156 56.761719 99 51.808594 101.390625 46.101562 Z M 73.175781 69.234375 C 65.09375 63.097656 56.769531 56.296875 51.289062 46.726562 C 47.6875 40.453125 48.574219 34.15625 53.664062 29.886719 C 54.246094 29.398438 54.871094 28.964844 55.535156 28.589844 C 56.199219 28.21875 56.890625 27.90625 57.613281 27.660156 C 58.335938 27.414062 59.074219 27.238281 59.828125 27.125 C 60.582031 27.015625 61.339844 26.976562 62.101562 27.007812 C 62.863281 27.035156 63.613281 27.136719 64.355469 27.304688 C 65.101562 27.472656 65.820312 27.707031 66.523438 28.007812 C 67.222656 28.308594 67.886719 28.671875 68.519531 29.097656 C 69.152344 29.523438 69.742188 30 70.289062 30.535156 C 72.714844 32.894531 73.566406 32.921875 75.988281 30.699219 L 76.128906 30.574219 C 76.980469 29.707031 77.9375 28.988281 79.007812 28.410156 C 80.078125 27.835938 81.207031 27.429688 82.402344 27.199219 C 83.59375 26.964844 84.792969 26.914062 86 27.042969 C 87.207031 27.171875 88.367188 27.476562 89.484375 27.957031 C 90.648438 28.417969 91.71875 29.035156 92.695312 29.820312 C 93.671875 30.601562 94.511719 31.507812 95.21875 32.542969 C 95.921875 33.578125 96.457031 34.695312 96.824219 35.890625 C 97.191406 37.089844 97.375 38.3125 97.375 39.566406 C 97.160156 42.871094 96.082031 45.867188 94.132812 48.546875 C 88.453125 57.121094 80.714844 63.554688 73.175781 69.234375 Z M 73.175781 69.234375 " fill-opacity="1" fill-rule="nonzero"/></g></svg>