<svg xmlns="http://www.w3.org/2000/svg" xmlns:xlink="http://www.w3.org/1999/xlink" width="200" zoomAndPan="magnify" viewBox="0 0 150 149.999998" height="200" preserveAspectRatio="xMidYMid meet" version="1.0"><path fill="#000000" d="M 127.769531 97.699219 C 124.046875 96.160156 120.175781 95.449219 116.148438 95.558594 C 116.289062 94.734375 116.402344 93.90625 116.488281 93.074219 C 116.578125 92.242188 116.640625 91.40625 116.679688 90.574219 C 116.71875 89.738281 116.730469 88.898438 116.71875 88.0625 C 116.707031 87.226562 116.667969 86.390625 116.605469 85.558594 C 116.542969 84.722656 116.457031 83.890625 116.34375 83.0625 C 116.234375 82.234375 116.09375 81.40625 115.933594 80.585938 C 115.773438 79.765625 115.585938 78.949219 115.375 78.140625 C 115.164062 77.332031 114.929688 76.527344 114.667969 75.734375 C 114.410156 74.9375 114.125 74.152344 113.820312 73.371094 C 113.515625 72.59375 113.183594 71.824219 112.832031 71.066406 C 112.480469 70.308594 112.101562 69.558594 111.707031 68.824219 C 111.308594 68.085938 110.886719 67.363281 110.445312 66.652344 C 110.007812 65.941406 109.542969 65.246094 109.0625 64.5625 C 108.578125 63.878906 108.074219 63.210938 107.550781 62.558594 C 107.027344 61.90625 106.484375 61.269531 105.921875 60.648438 C 105.363281 60.027344 104.78125 59.425781 104.183594 58.839844 C 103.585938 58.253906 102.972656 57.6875 102.339844 57.140625 C 101.707031 56.589844 101.058594 56.0625 100.394531 55.554688 C 99.734375 55.042969 99.054688 54.554688 98.359375 54.085938 C 97.667969 53.617188 96.960938 53.171875 96.242188 52.742188 C 95.519531 52.316406 94.789062 51.914062 94.042969 51.53125 C 93.300781 51.148438 92.546875 50.789062 91.777344 50.453125 C 91.011719 50.117188 90.238281 49.804688 89.453125 49.511719 C 88.667969 49.222656 87.875 48.957031 87.074219 48.714844 C 86.273438 48.472656 85.464844 48.253906 84.652344 48.058594 C 83.839844 47.867188 83.019531 47.695312 82.195312 47.550781 C 81.371094 47.40625 80.542969 47.289062 79.710938 47.195312 C 78.878906 47.097656 78.046875 47.027344 77.210938 46.984375 C 76.375 46.941406 75.539062 46.921875 74.703125 46.925781 C 73.867188 46.929688 73.03125 46.960938 72.195312 47.019531 C 71.363281 47.074219 70.527344 47.15625 69.699219 47.261719 C 68.871094 47.367188 68.042969 47.496094 67.222656 47.652344 C 66.398438 47.808594 65.582031 47.988281 64.769531 48.191406 C 63.960938 48.398438 63.15625 48.625 62.359375 48.878906 C 61.558594 49.132812 60.769531 49.410156 59.988281 49.710938 C 59.210938 50.011719 58.4375 50.335938 57.675781 50.679688 C 56.914062 51.027344 56.164062 51.398438 55.425781 51.789062 C 54.6875 52.183594 53.960938 52.597656 53.246094 53.03125 C 52.53125 53.46875 51.832031 53.925781 51.144531 54.402344 C 50.457031 54.878906 49.785156 55.378906 49.128906 55.894531 C 48.472656 56.414062 47.832031 56.953125 47.207031 57.507812 C 46.582031 58.066406 45.976562 58.640625 45.386719 59.234375 C 44.792969 59.828125 44.222656 60.4375 43.671875 61.066406 C 43.117188 61.691406 42.582031 62.335938 42.070312 62.996094 C 41.554688 63.65625 41.058594 64.332031 40.585938 65.019531 C 40.113281 65.710938 39.660156 66.414062 39.226562 67.128906 C 38.796875 67.847656 38.386719 68.574219 37.996094 69.316406 C 37.609375 70.058594 37.246094 70.8125 36.902344 71.574219 C 36.558594 72.335938 36.242188 73.109375 35.945312 73.894531 C 35.648438 74.675781 35.375 75.464844 35.128906 76.265625 C 34.878906 77.066406 34.65625 77.871094 34.453125 78.683594 C 34.253906 79.496094 34.078125 80.3125 33.929688 81.136719 C 33.777344 81.957031 33.652344 82.785156 33.550781 83.617188 C 33.449219 84.445312 33.371094 85.28125 33.320312 86.113281 C 33.269531 86.949219 33.246094 87.785156 33.242188 88.621094 C 33.242188 89.460938 33.265625 90.296875 33.316406 91.128906 C 33.367188 91.964844 33.441406 92.796875 33.539062 93.628906 C 33.640625 94.460938 33.765625 95.285156 33.914062 96.109375 C 34.0625 96.933594 34.234375 97.75 34.433594 98.566406 C 34.632812 99.378906 34.855469 100.183594 35.101562 100.984375 C 35.347656 101.78125 35.621094 102.574219 35.914062 103.355469 C 36.210938 104.140625 36.527344 104.914062 36.867188 105.675781 C 37.210938 106.441406 37.574219 107.195312 37.960938 107.9375 C 38.34375 108.679688 38.753906 109.410156 39.183594 110.125 C 40.359375 112.078125 41.683594 113.917969 43.164062 115.648438 C 44.644531 117.378906 46.253906 118.976562 48 120.441406 C 49.742188 121.902344 51.59375 123.210938 53.554688 124.367188 C 55.519531 125.523438 57.5625 126.511719 59.6875 127.328125 C 62.140625 128.292969 64.664062 129.019531 67.253906 129.507812 C 69.847656 129.992188 72.460938 130.234375 75.097656 130.226562 C 77.734375 130.21875 80.347656 129.964844 82.9375 129.464844 C 85.527344 128.964844 88.042969 128.222656 90.492188 127.246094 C 90.628906 128.03125 90.800781 128.808594 91.003906 129.578125 C 91.207031 130.347656 91.441406 131.105469 91.710938 131.855469 C 91.980469 132.605469 92.285156 133.339844 92.617188 134.0625 C 92.953125 134.785156 93.316406 135.492188 93.710938 136.183594 C 94.109375 136.875 94.53125 137.546875 94.988281 138.199219 C 95.441406 138.851562 95.925781 139.484375 96.433594 140.097656 C 96.941406 140.707031 97.480469 141.296875 98.039062 141.859375 C 98.601562 142.425781 99.1875 142.964844 99.792969 143.476562 C 100.402344 143.992188 101.03125 144.476562 101.683594 144.9375 C 102.332031 145.394531 103.003906 145.824219 103.691406 146.222656 C 104.378906 146.625 105.082031 146.992188 105.804688 147.332031 C 106.523438 147.671875 107.257812 147.976562 108.003906 148.25 C 108.753906 148.527344 109.511719 148.765625 110.277344 148.976562 C 111.046875 149.183594 111.824219 149.359375 112.605469 149.496094 C 113.390625 149.636719 114.179688 149.742188 114.972656 149.816406 C 115.765625 149.886719 116.558594 149.925781 117.355469 149.925781 C 118.71875 149.925781 120.070312 149.820312 121.417969 149.605469 C 121.964844 149.519531 122.507812 149.417969 123.046875 149.296875 C 123.585938 149.179688 124.121094 149.042969 124.65625 148.890625 C 125.1875 148.738281 125.714844 148.570312 126.234375 148.386719 C 126.757812 148.203125 127.273438 148.003906 127.78125 147.789062 C 128.292969 147.574219 128.792969 147.34375 129.289062 147.097656 C 129.785156 146.851562 130.273438 146.59375 130.753906 146.316406 C 131.234375 146.042969 131.703125 145.753906 132.164062 145.449219 C 132.628906 145.144531 133.082031 144.828125 133.523438 144.496094 C 133.964844 144.164062 134.398438 143.820312 134.820312 143.464844 C 135.242188 143.105469 135.652344 142.734375 136.054688 142.351562 C 136.453125 141.96875 136.839844 141.578125 137.214844 141.171875 C 137.59375 140.765625 137.957031 140.347656 138.304688 139.917969 C 138.65625 139.492188 138.992188 139.054688 139.316406 138.605469 C 139.640625 138.15625 139.949219 137.699219 140.246094 137.230469 C 140.542969 136.761719 140.824219 136.289062 141.089844 135.804688 C 141.359375 135.320312 141.609375 134.828125 141.847656 134.328125 C 142.085938 133.828125 142.308594 133.320312 142.511719 132.808594 C 142.71875 132.296875 142.910156 131.777344 143.085938 131.25 C 143.261719 130.726562 143.417969 130.195312 143.5625 129.664062 C 143.707031 129.128906 143.832031 128.589844 143.941406 128.046875 C 144.050781 127.507812 144.144531 126.960938 144.222656 126.414062 C 144.300781 125.867188 144.359375 125.316406 144.402344 124.765625 C 144.449219 124.214844 144.476562 123.660156 144.484375 123.109375 C 144.496094 122.554688 144.488281 122.003906 144.464844 121.449219 C 144.441406 120.898438 144.402344 120.34375 144.34375 119.796875 C 144.289062 119.246094 144.214844 118.695312 144.125 118.152344 C 144.035156 117.605469 143.929688 117.0625 143.804688 116.523438 C 143.683594 115.984375 143.542969 115.449219 143.386719 114.917969 C 143.234375 114.386719 143.0625 113.863281 142.875 113.339844 C 142.6875 112.820312 142.484375 112.308594 142.265625 111.796875 C 142.046875 111.289062 141.8125 110.789062 141.5625 110.296875 C 141.316406 109.800781 141.050781 109.316406 140.773438 108.835938 C 139.246094 106.34375 137.371094 104.144531 135.152344 102.238281 C 132.929688 100.335938 130.46875 98.824219 127.769531 97.699219 Z M 110.230469 95.464844 L 110.097656 96.078125 C 105.183594 97.828125 100.902344 100.570312 97.257812 104.304688 C 92.503906 100.488281 86.578125 98.875 78.621094 99.203125 C 76.0625 99.3125 73.457031 99.285156 70.929688 99.253906 C 70.011719 99.242188 69.09375 99.234375 68.171875 99.230469 L 68.015625 99.230469 C 65.949219 99.171875 63.914062 99.382812 61.898438 99.851562 C 59.886719 100.320312 57.96875 101.039062 56.140625 102.003906 C 54.316406 102.96875 52.640625 104.148438 51.117188 105.546875 C 49.59375 106.945312 48.273438 108.511719 47.15625 110.246094 C 47.027344 110.433594 46.894531 110.613281 46.730469 110.839844 C 44.1875 107.933594 42.28125 104.65625 41.015625 101.007812 C 40.671875 100.074219 40.367188 99.125 40.105469 98.164062 C 39.839844 97.203125 39.617188 96.234375 39.433594 95.253906 C 39.25 94.277344 39.105469 93.289062 39.003906 92.300781 C 38.902344 91.308594 38.84375 90.3125 38.824219 89.316406 C 38.808594 88.320312 38.832031 87.324219 38.894531 86.332031 C 38.960938 85.335938 39.066406 84.347656 39.214844 83.363281 C 39.363281 82.375 39.550781 81.398438 39.78125 80.429688 C 40.007812 79.460938 40.277344 78.5 40.585938 77.554688 C 40.898438 76.605469 41.246094 75.671875 41.632812 74.753906 C 42.019531 73.835938 42.445312 72.9375 42.90625 72.054688 C 43.371094 71.171875 43.867188 70.308594 44.402344 69.46875 C 44.9375 68.628906 45.503906 67.808594 46.109375 67.015625 C 46.710938 66.222656 47.34375 65.457031 48.011719 64.714844 C 48.679688 63.972656 49.375 63.261719 50.101562 62.582031 C 50.828125 61.898438 51.582031 61.246094 52.363281 60.628906 C 53.140625 60.007812 53.949219 59.421875 54.777344 58.871094 C 57.71875 56.859375 60.890625 55.324219 64.296875 54.269531 C 67.699219 53.21875 71.183594 52.691406 74.75 52.6875 C 80.066406 52.699219 85.136719 53.820312 89.964844 56.058594 C 91.355469 56.683594 92.703125 57.394531 94 58.195312 C 95.300781 58.996094 96.542969 59.878906 97.726562 60.839844 C 98.910156 61.804688 100.027344 62.839844 101.078125 63.945312 C 102.128906 65.054688 103.101562 66.222656 104 67.457031 C 104.898438 68.691406 105.714844 69.976562 106.445312 71.316406 C 107.175781 72.65625 107.816406 74.039062 108.367188 75.460938 C 108.917969 76.886719 109.375 78.335938 109.738281 79.820312 C 110.101562 81.300781 110.367188 82.800781 110.535156 84.320312 C 111.039062 88.050781 110.933594 91.765625 110.222656 95.464844 Z M 58.832031 106.945312 C 61.015625 105.941406 63.304688 105.316406 65.695312 105.074219 C 71.980469 103.96875 76.375 104.34375 84.355469 105.027344 C 86.214844 105.136719 88.011719 105.535156 89.742188 106.222656 C 91.199219 106.820312 92.539062 107.613281 93.769531 108.597656 C 92.539062 110.546875 91.601562 112.625 90.949219 114.835938 C 90.300781 117.046875 89.960938 119.300781 89.9375 121.605469 C 86.574219 122.929688 83.09375 123.75 79.492188 124.0625 C 76.945312 124.210938 74.40625 124.128906 71.871094 123.816406 C 69.339844 123.503906 66.859375 122.964844 64.425781 122.199219 C 61.992188 121.433594 59.644531 120.457031 57.390625 119.265625 C 55.132812 118.074219 53.003906 116.6875 51 115.109375 C 51.859375 113.382812 52.957031 111.820312 54.292969 110.429688 C 55.628906 109.035156 57.140625 107.875 58.832031 106.945312 Z M 138.703125 122.996094 C 138.699219 123.695312 138.660156 124.386719 138.589844 125.082031 C 138.515625 125.773438 138.410156 126.460938 138.269531 127.140625 C 138.128906 127.824219 137.957031 128.496094 137.753906 129.164062 C 137.546875 129.828125 137.3125 130.480469 137.042969 131.125 C 136.773438 131.765625 136.476562 132.394531 136.144531 133.003906 C 135.816406 133.617188 135.457031 134.214844 135.070312 134.792969 C 134.679688 135.371094 134.265625 135.929688 133.824219 136.464844 C 133.382812 137.003906 132.914062 137.519531 132.421875 138.011719 C 131.929688 138.503906 131.417969 138.972656 130.878906 139.414062 C 130.339844 139.855469 129.785156 140.269531 129.207031 140.660156 C 128.628906 141.046875 128.03125 141.40625 127.417969 141.734375 C 126.808594 142.066406 126.179688 142.363281 125.539062 142.632812 C 124.894531 142.902344 124.242188 143.140625 123.578125 143.34375 C 122.910156 143.550781 122.238281 143.722656 121.558594 143.863281 C 120.875 144.003906 120.1875 144.109375 119.496094 144.183594 C 118.804688 144.257812 118.109375 144.296875 117.414062 144.300781 L 117.28125 144.300781 C 115.886719 144.300781 114.503906 144.160156 113.132812 143.882812 C 111.765625 143.609375 110.4375 143.199219 109.152344 142.660156 C 107.863281 142.121094 106.640625 141.460938 105.488281 140.679688 C 104.332031 139.894531 103.261719 139.007812 102.28125 138.011719 C 101.535156 137.273438 100.84375 136.480469 100.210938 135.640625 C 99.578125 134.796875 99.011719 133.910156 98.511719 132.984375 C 98.011719 132.058594 97.582031 131.101562 97.222656 130.109375 C 96.863281 129.121094 96.578125 128.109375 96.371094 127.078125 C 96.160156 126.042969 96.027344 125.003906 95.972656 123.949219 C 95.917969 122.898438 95.941406 121.847656 96.042969 120.800781 C 96.144531 119.753906 96.320312 118.71875 96.574219 117.695312 C 96.828125 116.671875 97.15625 115.675781 97.558594 114.703125 C 97.960938 113.726562 98.433594 112.789062 98.972656 111.886719 C 99.515625 110.980469 100.117188 110.125 100.785156 109.308594 C 101.453125 108.496094 102.179688 107.734375 102.960938 107.027344 C 103.742188 106.320312 104.570312 105.675781 105.445312 105.089844 C 106.320312 104.507812 107.234375 103.988281 108.1875 103.542969 C 109.140625 103.09375 110.121094 102.714844 111.132812 102.414062 C 112.140625 102.109375 113.164062 101.882812 114.207031 101.730469 C 115.25 101.578125 116.296875 101.503906 117.351562 101.507812 L 117.515625 101.507812 C 118.214844 101.507812 118.914062 101.542969 119.609375 101.609375 C 120.308594 101.679688 121 101.78125 121.6875 101.921875 C 122.371094 102.058594 123.050781 102.230469 123.722656 102.433594 C 124.390625 102.636719 125.050781 102.875 125.695312 103.144531 C 126.339844 103.414062 126.972656 103.71875 127.589844 104.050781 C 128.207031 104.382812 128.804688 104.746094 129.382812 105.136719 C 129.964844 105.527344 130.523438 105.949219 131.0625 106.398438 C 131.601562 106.84375 132.117188 107.316406 132.609375 107.816406 C 133.101562 108.316406 133.566406 108.835938 134.007812 109.382812 C 134.445312 109.925781 134.859375 110.492188 135.242188 111.078125 C 135.625 111.664062 135.980469 112.265625 136.304688 112.886719 C 136.628906 113.507812 136.921875 114.144531 137.183594 114.792969 C 137.441406 115.445312 137.671875 116.105469 137.867188 116.777344 C 138.0625 117.449219 138.222656 118.132812 138.351562 118.820312 C 138.480469 119.507812 138.574219 120.203125 138.632812 120.898438 C 138.691406 121.597656 138.714844 122.296875 138.703125 122.996094 Z M 56.550781 23.667969 C 57.863281 24.933594 59.222656 26.242188 60.472656 27.59375 C 61.070312 28.367188 61.320312 29.242188 61.222656 30.214844 C 61 31.960938 60.6875 33.730469 60.382812 35.441406 C 60.085938 37.089844 59.777344 38.808594 59.558594 40.496094 C 59.464844 41.113281 59.511719 41.722656 59.703125 42.316406 C 59.894531 42.910156 60.210938 43.433594 60.648438 43.882812 C 61.21875 44.136719 61.816406 44.253906 62.441406 44.234375 C 63.070312 44.21875 63.660156 44.066406 64.21875 43.78125 C 66.933594 42.5 69.816406 40.992188 73.300781 39.027344 C 73.777344 38.699219 74.308594 38.535156 74.890625 38.53125 C 75.46875 38.527344 76.003906 38.6875 76.484375 39.011719 C 79.390625 40.660156 82.410156 42.207031 85.328125 43.707031 L 85.734375 43.914062 C 86.355469 44.25 87.019531 44.425781 87.726562 44.4375 C 88.257812 44.445312 88.75 44.316406 89.210938 44.046875 C 89.621094 43.785156 89.945312 43.4375 90.171875 43.003906 C 90.402344 42.570312 90.511719 42.109375 90.496094 41.621094 L 90.496094 41.515625 C 90.3125 40.433594 90.140625 39.351562 89.96875 38.277344 C 89.554688 35.691406 89.125 33.019531 88.566406 30.429688 C 88.363281 29.890625 88.335938 29.34375 88.488281 28.785156 C 88.636719 28.230469 88.933594 27.769531 89.378906 27.402344 C 91.464844 25.488281 94.1875 22.941406 96.722656 20.238281 C 97.199219 19.777344 97.554688 19.234375 97.789062 18.613281 C 98.019531 17.988281 98.105469 17.347656 98.042969 16.683594 C 97.679688 15.589844 95.972656 14.800781 94.878906 14.589844 C 91.6875 13.976562 88.269531 13.480469 84.726562 13.113281 C 84.183594 13.097656 83.699219 12.929688 83.269531 12.601562 C 82.835938 12.277344 82.542969 11.855469 82.382812 11.339844 C 81.148438 8.644531 79.652344 5.492188 77.914062 2.382812 C 77.609375 1.796875 77.195312 1.308594 76.667969 0.910156 C 76.144531 0.511719 75.554688 0.246094 74.910156 0.113281 C 74.265625 0.242188 73.683594 0.503906 73.160156 0.898438 C 72.632812 1.289062 72.21875 1.777344 71.914062 2.359375 C 70.386719 5.089844 68.929688 8.019531 67.449219 11.320312 C 67.261719 11.863281 66.929688 12.304688 66.460938 12.636719 C 65.992188 12.96875 65.46875 13.136719 64.894531 13.136719 C 61.410156 13.5 57.996094 14 54.746094 14.613281 C 54.125 14.707031 53.554688 14.933594 53.035156 15.289062 C 52.515625 15.640625 52.101562 16.089844 51.785156 16.632812 C 51.699219 17.257812 51.753906 17.867188 51.949219 18.46875 C 52.148438 19.066406 52.464844 19.589844 52.910156 20.035156 C 54.085938 21.296875 55.339844 22.503906 56.550781 23.667969 Z M 82.648438 29.597656 C 83.042969 31.238281 83.292969 32.890625 83.585938 34.804688 C 83.664062 35.339844 83.75 35.890625 83.839844 36.460938 C 83.320312 36.191406 82.8125 35.933594 82.324219 35.679688 C 80.527344 34.757812 78.96875 33.960938 77.429688 33.074219 C 76.652344 32.597656 75.808594 32.351562 74.898438 32.328125 C 74.007812 32.347656 73.183594 32.589844 72.425781 33.054688 C 70.890625 33.953125 69.335938 34.742188 67.535156 35.664062 L 65.992188 36.460938 C 66.074219 35.957031 66.152344 35.46875 66.21875 34.992188 C 66.488281 33.277344 66.738281 31.65625 67.117188 30.109375 C 67.292969 29.550781 67.378906 28.976562 67.375 28.390625 C 67.367188 27.800781 67.273438 27.230469 67.085938 26.675781 C 66.894531 26.117188 66.625 25.605469 66.273438 25.132812 C 65.921875 24.664062 65.507812 24.261719 65.027344 23.921875 C 63.816406 22.894531 62.679688 21.796875 61.605469 20.628906 C 61.273438 20.28125 60.933594 19.925781 60.582031 19.566406 C 61.105469 19.476562 61.617188 19.382812 62.125 19.292969 C 63.960938 18.964844 65.699219 18.652344 67.417969 18.511719 C 67.902344 18.507812 68.375 18.425781 68.835938 18.277344 C 69.296875 18.125 69.722656 17.90625 70.113281 17.621094 C 70.507812 17.339844 70.847656 17.003906 71.136719 16.613281 C 71.425781 16.226562 71.648438 15.800781 71.808594 15.34375 C 72.480469 13.773438 73.292969 12.199219 74.148438 10.554688 C 74.390625 10.089844 74.632812 9.609375 74.886719 9.117188 L 75.660156 10.601562 C 76.582031 12.371094 77.457031 14.046875 78.214844 15.742188 C 78.367188 16.136719 78.574219 16.5 78.835938 16.832031 C 79.097656 17.164062 79.398438 17.453125 79.746094 17.695312 C 80.09375 17.9375 80.46875 18.125 80.871094 18.257812 C 81.273438 18.386719 81.6875 18.457031 82.109375 18.464844 C 83.867188 18.648438 85.585938 18.933594 87.582031 19.261719 L 89.316406 19.546875 C 88.9375 19.921875 88.574219 20.289062 88.21875 20.644531 C 86.933594 21.933594 85.71875 23.148438 84.457031 24.238281 C 84.050781 24.539062 83.699219 24.890625 83.398438 25.300781 C 83.101562 25.707031 82.871094 26.152344 82.707031 26.632812 C 82.546875 27.109375 82.460938 27.601562 82.449219 28.109375 C 82.441406 28.613281 82.507812 29.109375 82.648438 29.597656 Z M 149.742188 33.777344 C 149.429688 33.238281 149.019531 32.789062 148.503906 32.433594 C 147.988281 32.082031 147.425781 31.855469 146.808594 31.757812 C 143.597656 31.105469 140.363281 30.636719 137.101562 30.34375 C 136.703125 30.328125 136.3125 30.25 135.9375 30.113281 C 135.558594 29.976562 135.210938 29.785156 134.894531 29.539062 C 134.578125 29.296875 134.304688 29.011719 134.074219 28.679688 C 133.84375 28.351562 133.667969 27.996094 133.550781 27.617188 L 133.457031 27.414062 C 132.222656 24.707031 130.945312 21.90625 129.488281 19.25 C 129.195312 18.695312 128.796875 18.234375 128.292969 17.867188 C 127.789062 17.496094 127.226562 17.253906 126.613281 17.140625 C 125.996094 17.257812 125.4375 17.5 124.933594 17.871094 C 124.425781 18.242188 124.027344 18.703125 123.734375 19.253906 C 122.917969 20.734375 122.164062 22.273438 121.441406 23.761719 C 120.664062 25.355469 119.871094 27.003906 118.984375 28.5625 C 118.441406 29.382812 117.695312 29.910156 116.738281 30.144531 C 114.996094 30.488281 113.191406 30.738281 111.445312 30.980469 C 109.792969 31.207031 108.078125 31.449219 106.40625 31.765625 C 105.789062 31.871094 105.230469 32.105469 104.722656 32.472656 C 104.214844 32.835938 103.8125 33.296875 103.519531 33.847656 C 103.445312 34.472656 103.507812 35.078125 103.710938 35.671875 C 103.914062 36.265625 104.234375 36.789062 104.671875 37.238281 C 107.046875 39.773438 109.46875 42.132812 111.859375 44.246094 C 112.113281 44.441406 112.335938 44.671875 112.523438 44.933594 C 112.710938 45.195312 112.851562 45.484375 112.949219 45.789062 C 113.046875 46.097656 113.097656 46.414062 113.097656 46.734375 C 113.101562 47.058594 113.054688 47.371094 112.957031 47.679688 C 112.191406 51.535156 111.699219 54.511719 111.363281 57.335938 C 111.234375 58.398438 111.386719 60.320312 112.347656 60.964844 C 112.96875 61.21875 113.609375 61.328125 114.277344 61.296875 C 114.945312 61.269531 115.574219 61.097656 116.167969 60.789062 C 118.890625 59.511719 121.714844 58.03125 125.042969 56.117188 C 125.523438 55.796875 126.054688 55.636719 126.632812 55.640625 C 127.210938 55.644531 127.742188 55.808594 128.21875 56.136719 C 130.6875 57.527344 133.246094 58.851562 135.71875 60.132812 L 136.839844 60.714844 C 137.332031 60.960938 137.839844 61.175781 138.355469 61.363281 C 138.53125 61.429688 138.695312 61.492188 138.835938 61.550781 L 138.964844 61.601562 L 139.097656 61.601562 C 140.085938 61.605469 140.910156 61.242188 141.566406 60.503906 C 142.132812 59.648438 142.28125 58.722656 142.015625 57.734375 C 141.832031 56.597656 141.628906 55.457031 141.425781 54.320312 C 141.011719 51.992188 140.585938 49.582031 140.304688 47.199219 C 140.257812 46.207031 140.558594 45.335938 141.203125 44.578125 C 142.417969 43.265625 143.734375 41.992188 145.007812 40.761719 C 146.199219 39.605469 147.4375 38.410156 148.597656 37.167969 C 149.039062 36.722656 149.363281 36.199219 149.5625 35.605469 C 149.761719 35.011719 149.824219 34.402344 149.742188 33.777344 Z M 134.410156 47.367188 C 134.769531 48.847656 135.011719 50.34375 135.292969 52.085938 C 135.367188 52.5625 135.449219 53.054688 135.53125 53.5625 L 133.988281 52.773438 C 132.242188 51.875 130.589844 51.039062 129.019531 50.144531 C 128.277344 49.6875 127.472656 49.449219 126.605469 49.425781 C 125.753906 49.445312 124.964844 49.679688 124.242188 50.132812 C 122.652344 51.054688 120.984375 51.902344 119.21875 52.792969 C 118.742188 53.035156 118.253906 53.277344 117.757812 53.535156 C 117.847656 53 117.9375 52.476562 118.023438 51.964844 C 118.382812 49.839844 118.722656 47.832031 118.921875 45.820312 C 119.035156 44.578125 118.703125 43.472656 117.925781 42.5 C 116.507812 40.980469 115.007812 39.597656 113.273438 38.007812 C 112.824219 37.601562 112.375 37.179688 111.902344 36.738281 C 112.574219 36.632812 113.21875 36.515625 113.839844 36.417969 C 115.941406 36.070312 117.753906 35.769531 119.585938 35.570312 C 120.007812 35.535156 120.417969 35.445312 120.8125 35.300781 C 121.210938 35.152344 121.578125 34.953125 121.917969 34.699219 C 122.257812 34.449219 122.554688 34.15625 122.8125 33.820312 C 123.070312 33.484375 123.273438 33.117188 123.429688 32.722656 C 124.21875 31.03125 125.046875 29.355469 125.933594 27.558594 L 126.609375 26.195312 C 126.863281 26.6875 127.113281 27.167969 127.359375 27.636719 C 128.257812 29.375 129.121094 31.019531 129.84375 32.695312 C 129.988281 33.09375 130.183594 33.464844 130.4375 33.804688 C 130.6875 34.144531 130.980469 34.445312 131.320312 34.699219 C 131.65625 34.953125 132.023438 35.15625 132.421875 35.304688 C 132.816406 35.453125 133.226562 35.542969 133.648438 35.570312 C 135.460938 35.796875 137.242188 36.078125 139.308594 36.40625 L 141.1875 36.703125 C 140.8125 37.066406 140.445312 37.417969 140.09375 37.761719 C 138.910156 38.960938 137.671875 40.09375 136.371094 41.164062 C 135.898438 41.507812 135.488281 41.917969 135.144531 42.390625 C 134.800781 42.867188 134.542969 43.382812 134.367188 43.941406 C 134.191406 44.5 134.105469 45.074219 134.113281 45.660156 C 134.121094 46.246094 134.21875 46.816406 134.410156 47.367188 Z M 37.519531 60.921875 C 37.9375 60.457031 38.230469 59.921875 38.398438 59.324219 C 38.570312 58.722656 38.601562 58.113281 38.492188 57.5 C 38.28125 55.863281 37.992188 54.210938 37.714844 52.617188 C 37.40625 50.835938 37.085938 48.996094 36.875 47.179688 C 36.828125 46.195312 37.121094 45.328125 37.761719 44.582031 C 39.007812 43.234375 40.355469 41.933594 41.660156 40.675781 C 42.878906 39.5 44.140625 38.277344 45.332031 37.019531 C 45.722656 36.582031 46.003906 36.085938 46.171875 35.523438 C 46.34375 34.960938 46.382812 34.390625 46.296875 33.8125 C 46.074219 32.867188 44.648438 32.117188 43.71875 31.9375 C 40.421875 31.304688 36.957031 30.75 33.132812 30.242188 C 32.59375 30.234375 32.101562 30.074219 31.660156 29.765625 C 31.214844 29.453125 30.898438 29.046875 30.707031 28.539062 C 29.109375 24.984375 27.691406 22.132812 26.25 19.558594 C 25.9375 18.949219 25.511719 18.425781 24.976562 17.996094 C 24.441406 17.566406 23.839844 17.261719 23.175781 17.089844 C 21.992188 16.953125 20.683594 18.632812 20.210938 19.464844 C 18.730469 22.117188 17.332031 24.925781 16.0625 27.808594 C 15.949219 28.171875 15.785156 28.507812 15.5625 28.816406 C 15.34375 29.128906 15.082031 29.394531 14.777344 29.621094 C 14.472656 29.847656 14.140625 30.023438 13.777344 30.144531 C 13.417969 30.265625 13.050781 30.328125 12.667969 30.335938 C 9.410156 30.636719 6.175781 31.113281 2.964844 31.761719 C 2.347656 31.863281 1.789062 32.101562 1.28125 32.464844 C 0.773438 32.832031 0.371094 33.289062 0.078125 33.84375 C 0.0078125 34.464844 0.0742188 35.070312 0.28125 35.660156 C 0.488281 36.25 0.8125 36.769531 1.257812 37.210938 C 3.46875 39.625 5.804688 41.914062 8.269531 44.074219 C 8.554688 44.292969 8.804688 44.550781 9.011719 44.847656 C 9.21875 45.144531 9.375 45.464844 9.484375 45.8125 C 9.59375 46.15625 9.644531 46.511719 9.644531 46.871094 C 9.640625 47.234375 9.585938 47.589844 9.472656 47.933594 C 8.855469 51.011719 8.351562 54.164062 7.855469 57.210938 L 7.765625 57.792969 C 7.511719 58.773438 7.671875 59.679688 8.246094 60.515625 C 8.929688 61.246094 9.769531 61.597656 10.769531 61.570312 L 10.894531 61.570312 L 11.011719 61.523438 C 11.136719 61.472656 11.285156 61.417969 11.441406 61.359375 C 11.910156 61.195312 12.367188 61.003906 12.816406 60.78125 L 14.785156 59.769531 C 16.921875 58.675781 19.132812 57.546875 21.242188 56.300781 C 21.53125 56.09375 21.847656 55.933594 22.191406 55.828125 C 22.53125 55.722656 22.882812 55.671875 23.238281 55.675781 C 23.597656 55.679688 23.945312 55.742188 24.285156 55.859375 C 24.625 55.972656 24.9375 56.140625 25.222656 56.355469 C 28.035156 58.03125 30.929688 59.546875 33.90625 60.90625 C 34.476562 61.183594 35.078125 61.324219 35.710938 61.324219 C 36.34375 61.328125 36.949219 61.195312 37.519531 60.921875 Z M 14.617188 51.902344 C 15.007812 49.945312 15.296875 47.976562 15.480469 45.992188 C 15.550781 44.527344 15.125 43.222656 14.210938 42.078125 C 12.878906 40.578125 11.46875 39.15625 9.980469 37.808594 C 9.59375 37.445312 9.191406 37.066406 8.789062 36.6875 L 10.429688 36.425781 C 12.371094 36.109375 14.207031 35.816406 16.011719 35.597656 C 16.453125 35.574219 16.886719 35.488281 17.304688 35.339844 C 17.722656 35.191406 18.113281 34.984375 18.472656 34.722656 C 18.832031 34.460938 19.144531 34.152344 19.414062 33.800781 C 19.683594 33.445312 19.894531 33.0625 20.050781 32.644531 C 20.785156 30.972656 21.625 29.332031 22.507812 27.59375 C 22.730469 27.132812 22.976562 26.667969 23.21875 26.191406 C 23.441406 26.621094 23.660156 27.042969 23.875 27.453125 C 24.664062 28.894531 25.371094 30.375 25.996094 31.894531 C 26.175781 32.453125 26.4375 32.96875 26.777344 33.445312 C 27.121094 33.917969 27.53125 34.328125 28.003906 34.671875 C 28.476562 35.019531 28.992188 35.28125 29.546875 35.460938 C 30.105469 35.644531 30.675781 35.734375 31.261719 35.734375 C 32.832031 35.851562 34.40625 36.117188 36.226562 36.425781 C 36.785156 36.519531 37.363281 36.617188 37.972656 36.714844 C 37.546875 37.113281 37.136719 37.5 36.738281 37.878906 C 35.316406 39.226562 33.972656 40.488281 32.613281 41.667969 C 32.234375 41.933594 31.902344 42.253906 31.625 42.621094 C 31.34375 42.992188 31.132812 43.394531 30.980469 43.835938 C 30.832031 44.273438 30.75 44.722656 30.746094 45.1875 C 30.738281 45.648438 30.804688 46.101562 30.941406 46.542969 C 31.359375 48.3125 31.664062 50.097656 31.855469 51.902344 C 31.925781 52.433594 31.992188 52.972656 32.078125 53.527344 C 31.609375 53.277344 31.144531 53.027344 30.691406 52.78125 C 28.96875 51.800781 27.195312 50.925781 25.371094 50.152344 C 23.925781 49.632812 22.480469 49.632812 21.039062 50.152344 C 19.238281 50.914062 17.492188 51.777344 15.792969 52.746094 C 15.324219 53.003906 14.84375 53.265625 14.34375 53.53125 C 14.417969 52.96875 14.515625 52.433594 14.613281 51.902344 Z M 75.078125 59.828125 L 75.050781 59.828125 C 74.4375 59.816406 73.824219 59.832031 73.210938 59.882812 C 72.597656 59.929688 71.992188 60.007812 71.386719 60.117188 C 70.78125 60.226562 70.183594 60.367188 69.59375 60.535156 C 69 60.703125 68.421875 60.898438 67.847656 61.125 C 67.277344 61.351562 66.71875 61.605469 66.171875 61.886719 C 65.625 62.167969 65.09375 62.476562 64.578125 62.8125 C 64.0625 63.144531 63.566406 63.503906 63.085938 63.886719 C 62.605469 64.269531 62.144531 64.675781 61.707031 65.105469 C 61.265625 65.535156 60.847656 65.984375 60.453125 66.453125 C 60.058594 66.925781 59.6875 67.414062 59.339844 67.921875 C 58.996094 68.429688 58.671875 68.953125 58.378906 69.492188 C 58.082031 70.03125 57.816406 70.582031 57.578125 71.148438 C 57.335938 71.714844 57.125 72.289062 56.941406 72.875 C 56.757812 73.460938 56.605469 74.058594 56.480469 74.660156 C 56.359375 75.261719 56.261719 75.867188 56.199219 76.476562 C 56.136719 77.089844 56.101562 77.703125 56.097656 78.316406 C 56.097656 78.929688 56.125 79.542969 56.179688 80.15625 C 56.238281 80.765625 56.328125 81.375 56.445312 81.976562 C 56.5625 82.582031 56.710938 83.175781 56.886719 83.765625 C 57.0625 84.351562 57.269531 84.929688 57.503906 85.5 C 57.738281 86.066406 58 86.621094 58.289062 87.164062 C 58.578125 87.707031 58.894531 88.234375 59.238281 88.742188 C 59.578125 89.253906 59.945312 89.746094 60.335938 90.222656 C 60.726562 90.695312 61.136719 91.148438 61.574219 91.582031 C 62.007812 92.015625 62.464844 92.425781 62.941406 92.816406 C 63.417969 93.203125 63.910156 93.566406 64.425781 93.90625 C 64.9375 94.246094 65.464844 94.558594 66.007812 94.84375 C 66.550781 95.132812 67.105469 95.390625 67.675781 95.625 C 68.246094 95.855469 68.824219 96.058594 69.414062 96.230469 C 70.003906 96.40625 70.597656 96.550781 71.203125 96.667969 C 71.804688 96.78125 72.414062 96.867188 73.027344 96.921875 C 73.636719 96.976562 74.25 97 74.867188 96.996094 L 74.90625 96.996094 C 75.515625 96.996094 76.121094 96.972656 76.726562 96.914062 C 77.328125 96.859375 77.929688 96.773438 78.523438 96.660156 C 79.121094 96.546875 79.710938 96.402344 80.292969 96.230469 C 80.875 96.058594 81.445312 95.859375 82.007812 95.628906 C 82.570312 95.402344 83.121094 95.148438 83.660156 94.867188 C 84.199219 94.585938 84.71875 94.277344 85.226562 93.945312 C 85.734375 93.613281 86.226562 93.257812 86.699219 92.878906 C 87.171875 92.5 87.625 92.097656 88.058594 91.671875 C 88.496094 91.25 88.90625 90.804688 89.296875 90.339844 C 89.6875 89.875 90.054688 89.394531 90.398438 88.890625 C 90.742188 88.390625 91.0625 87.875 91.355469 87.34375 C 91.648438 86.8125 91.914062 86.269531 92.15625 85.710938 C 92.394531 85.15625 92.609375 84.585938 92.792969 84.011719 C 92.976562 83.433594 93.136719 82.847656 93.261719 82.253906 C 93.390625 81.660156 93.488281 81.0625 93.558594 80.457031 C 93.628906 79.855469 93.667969 79.25 93.679688 78.644531 C 93.703125 77.4375 93.601562 76.242188 93.382812 75.054688 C 93.164062 73.867188 92.828125 72.714844 92.378906 71.597656 C 91.925781 70.480469 91.367188 69.417969 90.703125 68.410156 C 90.035156 67.402344 89.277344 66.472656 88.421875 65.621094 C 87.558594 64.71875 86.613281 63.914062 85.585938 63.199219 C 84.5625 62.488281 83.476562 61.882812 82.328125 61.382812 C 81.183594 60.886719 80 60.507812 78.78125 60.246094 C 77.558594 59.984375 76.324219 59.84375 75.074219 59.828125 Z M 88.058594 78.382812 C 88.046875 79.230469 87.957031 80.066406 87.785156 80.894531 C 87.613281 81.726562 87.359375 82.53125 87.03125 83.3125 C 86.703125 84.089844 86.300781 84.832031 85.828125 85.535156 C 85.351562 86.238281 84.816406 86.886719 84.214844 87.484375 C 83.613281 88.082031 82.960938 88.617188 82.257812 89.085938 C 81.550781 89.554688 80.808594 89.953125 80.027344 90.28125 C 79.246094 90.605469 78.4375 90.851562 77.609375 91.019531 C 76.777344 91.1875 75.9375 91.273438 75.09375 91.28125 C 73.351562 91.285156 71.671875 90.96875 70.054688 90.324219 C 68.433594 89.683594 66.992188 88.765625 65.726562 87.566406 C 65.113281 86.988281 64.558594 86.355469 64.070312 85.667969 C 63.582031 84.976562 63.167969 84.246094 62.828125 83.472656 C 62.484375 82.699219 62.226562 81.902344 62.046875 81.074219 C 61.863281 80.25 61.769531 79.414062 61.757812 78.570312 C 61.746094 77.726562 61.816406 76.886719 61.972656 76.058594 C 62.128906 75.226562 62.367188 74.421875 62.6875 73.640625 C 63.003906 72.855469 63.398438 72.113281 63.867188 71.410156 C 64.335938 70.707031 64.867188 70.058594 65.46875 69.460938 C 66.703125 68.203125 68.132812 67.230469 69.757812 66.546875 C 71.382812 65.863281 73.078125 65.515625 74.839844 65.511719 L 74.898438 65.511719 C 76.65625 65.507812 78.351562 65.839844 79.976562 66.511719 C 81.601562 67.183594 83.035156 68.144531 84.277344 69.386719 C 85.484375 70.574219 86.414062 71.945312 87.070312 73.503906 C 87.722656 75.066406 88.050781 76.691406 88.054688 78.382812 Z M 132.441406 114.4375 C 133.265625 115.398438 133.824219 116.921875 131.800781 118.714844 C 130.15625 120.171875 128.507812 121.625 126.863281 123.070312 L 121.964844 127.367188 C 119.46875 129.554688 116.976562 131.738281 114.5 133.945312 C 113.824219 134.644531 113 135.023438 112.03125 135.085938 C 111.964844 135.085938 111.898438 135.085938 111.832031 135.085938 C 110.820312 134.949219 110.019531 134.460938 109.433594 133.625 C 107.515625 131.304688 105.597656 128.996094 103.671875 126.691406 L 102.445312 125.21875 C 102.289062 125.082031 102.148438 124.933594 102.023438 124.765625 C 101.902344 124.597656 101.796875 124.421875 101.714844 124.230469 C 101.628906 124.042969 101.566406 123.847656 101.523438 123.644531 C 101.484375 123.441406 101.464844 123.234375 101.46875 123.027344 C 101.472656 122.820312 101.5 122.617188 101.546875 122.414062 C 101.597656 122.214844 101.667969 122.019531 101.757812 121.832031 C 101.851562 121.648438 101.960938 121.472656 102.089844 121.3125 C 102.21875 121.152344 102.367188 121.003906 102.527344 120.875 C 103.082031 120.355469 103.742188 120.113281 104.5 120.152344 C 105.46875 120.304688 106.238281 120.777344 106.808594 121.570312 C 108.257812 123.289062 109.699219 125.003906 111.210938 126.804688 L 112.386719 128.210938 L 128.121094 114.394531 C 128.796875 113.722656 129.609375 113.386719 130.5625 113.382812 C 131.335938 113.46875 131.960938 113.820312 132.441406 114.4375 Z M 132.441406 114.4375 " fill-opacity="1" fill-rule="nonzero"/></svg>