<svg xmlns="http://www.w3.org/2000/svg" xmlns:xlink="http://www.w3.org/1999/xlink" width="200" zoomAndPan="magnify" viewBox="0 0 150 149.999998" height="200" preserveAspectRatio="xMidYMid meet" version="1.0"><defs><clipPath id="54c9d49e36"><path d="M 4.945312 0 L 145.195312 0 L 145.195312 150 L 4.945312 150 Z M 4.945312 0 " clip-rule="nonzero"/></clipPath></defs><g clip-path="url(#54c9d49e36)"><path fill="#000000" d="M 59.265625 45.441406 C 59.996094 45.445312 60.730469 45.417969 61.460938 45.351562 C 62.191406 45.289062 62.914062 45.1875 63.636719 45.054688 C 64.359375 44.921875 65.070312 44.753906 65.773438 44.550781 C 66.480469 44.347656 67.171875 44.113281 67.855469 43.84375 C 68.539062 43.574219 69.203125 43.273438 69.859375 42.941406 C 70.511719 42.609375 71.148438 42.246094 71.765625 41.851562 C 72.382812 41.457031 72.980469 41.035156 73.558594 40.582031 C 74.136719 40.132812 74.691406 39.65625 75.226562 39.148438 C 75.757812 38.644531 76.265625 38.117188 76.746094 37.5625 C 77.226562 37.011719 77.679688 36.4375 78.105469 35.839844 C 78.535156 35.242188 78.929688 34.628906 79.296875 33.992188 C 79.664062 33.359375 80 32.707031 80.304688 32.042969 C 80.609375 31.375 80.882812 30.695312 81.125 30 C 81.363281 29.308594 81.570312 28.605469 81.742188 27.894531 C 81.914062 27.179688 82.050781 26.460938 82.15625 25.734375 C 82.257812 25.007812 82.328125 24.28125 82.359375 23.546875 C 82.386719 22.796875 82.378906 22.042969 82.332031 21.292969 C 82.285156 20.539062 82.199219 19.792969 82.078125 19.050781 C 81.957031 18.308594 81.796875 17.570312 81.601562 16.84375 C 81.410156 16.117188 81.179688 15.402344 80.914062 14.695312 C 80.644531 13.992188 80.347656 13.304688 80.011719 12.628906 C 79.675781 11.953125 79.3125 11.296875 78.910156 10.660156 C 78.511719 10.019531 78.082031 9.40625 77.621094 8.808594 C 77.160156 8.214844 76.671875 7.644531 76.152344 7.097656 C 75.636719 6.550781 75.089844 6.03125 74.523438 5.535156 C 73.953125 5.042969 73.359375 4.582031 72.746094 4.148438 C 72.128906 3.714844 71.496094 3.3125 70.839844 2.941406 C 70.183594 2.570312 69.511719 2.234375 68.824219 1.929688 C 68.136719 1.625 67.433594 1.355469 66.71875 1.121094 C 66 0.886719 65.277344 0.691406 64.542969 0.527344 C 63.804688 0.367188 63.0625 0.242188 62.316406 0.152344 C 61.570312 0.0625 60.820312 0.0117188 60.066406 0 C 59.3125 -0.015625 58.5625 0.0078125 57.8125 0.0703125 C 57.0625 0.132812 56.316406 0.230469 55.574219 0.363281 C 54.835938 0.5 54.101562 0.671875 53.378906 0.878906 C 52.65625 1.085938 51.945312 1.332031 51.246094 1.609375 C 50.546875 1.886719 49.859375 2.199219 49.191406 2.546875 C 48.523438 2.894531 47.875 3.273438 47.246094 3.683594 C 46.613281 4.09375 46.003906 4.535156 45.417969 5.007812 C 44.832031 5.480469 44.269531 5.980469 43.730469 6.507812 C 43.195312 7.035156 42.683594 7.585938 42.203125 8.164062 C 41.722656 8.742188 41.269531 9.34375 40.847656 9.96875 C 40.421875 10.589844 40.03125 11.234375 39.675781 11.894531 C 39.316406 12.558594 38.992188 13.234375 38.699219 13.929688 C 38.410156 14.625 38.152344 15.332031 37.929688 16.050781 C 37.710938 16.769531 37.527344 17.5 37.375 18.238281 C 37.226562 18.976562 37.117188 19.71875 37.042969 20.46875 C 36.96875 21.21875 36.929688 21.96875 36.929688 22.722656 C 36.929688 23.457031 36.964844 24.191406 37.039062 24.925781 C 37.109375 25.65625 37.21875 26.382812 37.359375 27.105469 C 37.503906 27.828125 37.679688 28.542969 37.890625 29.246094 C 38.101562 29.953125 38.347656 30.644531 38.625 31.324219 C 38.90625 32.007812 39.21875 32.671875 39.5625 33.324219 C 39.902344 33.972656 40.277344 34.605469 40.683594 35.222656 C 41.089844 35.835938 41.523438 36.429688 41.984375 37 C 42.449219 37.574219 42.9375 38.121094 43.453125 38.648438 C 43.96875 39.171875 44.507812 39.671875 45.074219 40.144531 C 45.636719 40.617188 46.222656 41.058594 46.832031 41.476562 C 47.4375 41.890625 48.066406 42.273438 48.710938 42.628906 C 49.355469 42.984375 50.015625 43.308594 50.691406 43.597656 C 51.367188 43.886719 52.054688 44.144531 52.757812 44.367188 C 53.457031 44.59375 54.167969 44.78125 54.886719 44.9375 C 55.609375 45.089844 56.332031 45.210938 57.0625 45.292969 C 57.796875 45.378906 58.527344 45.425781 59.265625 45.441406 Z M 60.015625 7.640625 C 61.003906 7.664062 61.980469 7.78125 62.945312 7.996094 C 63.910156 8.210938 64.847656 8.515625 65.753906 8.914062 C 66.65625 9.3125 67.515625 9.792969 68.328125 10.359375 C 69.136719 10.921875 69.886719 11.5625 70.570312 12.273438 C 71.257812 12.988281 71.867188 13.757812 72.402344 14.589844 C 72.9375 15.421875 73.382812 16.296875 73.746094 17.21875 C 74.109375 18.136719 74.378906 19.082031 74.558594 20.054688 C 74.734375 21.027344 74.816406 22.007812 74.800781 23 C 74.785156 23.988281 74.675781 24.964844 74.46875 25.929688 C 74.261719 26.898438 73.964844 27.835938 73.574219 28.746094 C 73.183594 29.652344 72.707031 30.515625 72.148438 31.328125 C 71.589844 32.144531 70.957031 32.898438 70.25 33.589844 C 69.542969 34.28125 68.777344 34.898438 67.949219 35.4375 C 67.121094 35.976562 66.246094 36.433594 65.332031 36.804688 C 64.414062 37.171875 63.46875 37.449219 62.5 37.636719 C 61.527344 37.820312 60.546875 37.910156 59.558594 37.902344 C 58.570312 37.894531 57.59375 37.789062 56.625 37.589844 C 55.65625 37.390625 54.714844 37.101562 53.804688 36.714844 C 52.894531 36.332031 52.027344 35.863281 51.207031 35.3125 C 50.390625 34.757812 49.632812 34.128906 48.933594 33.429688 C 48.238281 32.726562 47.617188 31.964844 47.070312 31.140625 C 46.523438 30.316406 46.0625 29.449219 45.683594 28.535156 C 45.308594 27.621094 45.023438 26.679688 44.832031 25.707031 C 44.640625 24.738281 44.542969 23.761719 44.542969 22.769531 C 44.542969 22.269531 44.566406 21.765625 44.613281 21.265625 C 44.664062 20.765625 44.734375 20.265625 44.835938 19.773438 C 44.933594 19.28125 45.054688 18.792969 45.203125 18.3125 C 45.347656 17.832031 45.519531 17.359375 45.714844 16.894531 C 45.910156 16.429688 46.125 15.976562 46.367188 15.535156 C 46.605469 15.089844 46.867188 14.660156 47.148438 14.246094 C 47.433594 13.828125 47.734375 13.429688 48.058594 13.042969 C 48.382812 12.65625 48.722656 12.289062 49.082031 11.933594 C 49.441406 11.582031 49.816406 11.25 50.210938 10.9375 C 50.605469 10.621094 51.011719 10.328125 51.433594 10.054688 C 51.855469 9.78125 52.292969 9.53125 52.738281 9.300781 C 53.1875 9.070312 53.644531 8.863281 54.113281 8.679688 C 54.582031 8.496094 55.058594 8.335938 55.542969 8.199219 C 56.027344 8.0625 56.515625 7.953125 57.011719 7.867188 C 57.507812 7.777344 58.007812 7.714844 58.507812 7.679688 C 59.011719 7.640625 59.511719 7.628906 60.015625 7.640625 Z M 143.289062 51.925781 C 142.953125 51.402344 142.511719 50.988281 141.964844 50.691406 C 141.417969 50.394531 140.832031 50.246094 140.207031 50.25 L 119.046875 50.25 C 118.546875 50.25 118.070312 50.34375 117.609375 50.535156 C 117.148438 50.726562 116.742188 50.996094 116.390625 51.347656 C 116.039062 51.703125 115.765625 52.109375 115.574219 52.566406 C 115.382812 53.027344 115.289062 53.507812 115.289062 54.003906 C 115.289062 54.503906 115.382812 54.984375 115.574219 55.445312 C 115.765625 55.902344 116.039062 56.308594 116.390625 56.664062 C 116.742188 57.015625 117.148438 57.285156 117.609375 57.476562 C 118.070312 57.667969 118.546875 57.761719 119.046875 57.761719 L 133.320312 57.761719 C 121.375 69.710938 109.445312 81.648438 97.53125 93.582031 L 97.53125 83.113281 L 97.484375 83.160156 L 97.484375 75.621094 C 97.476562 74.886719 97.433594 74.152344 97.355469 73.417969 C 97.277344 72.6875 97.164062 71.960938 97.015625 71.238281 C 96.867188 70.519531 96.6875 69.804688 96.46875 69.101562 C 96.25 68.398438 96 67.707031 95.714844 67.027344 C 95.429688 66.347656 95.113281 65.6875 94.765625 65.039062 C 94.417969 64.390625 94.039062 63.757812 93.628906 63.148438 C 93.21875 62.535156 92.78125 61.945312 92.3125 61.375 C 91.84375 60.808594 91.351562 60.261719 90.832031 59.742188 C 90.3125 59.21875 89.769531 58.726562 89.199219 58.257812 C 88.632812 57.789062 88.042969 57.347656 87.433594 56.9375 C 86.820312 56.523438 86.191406 56.144531 85.546875 55.792969 C 84.898438 55.445312 84.234375 55.125 83.554688 54.839844 C 82.878906 54.554688 82.1875 54.300781 81.484375 54.082031 C 80.78125 53.863281 80.070312 53.679688 79.347656 53.53125 C 78.628906 53.378906 77.902344 53.265625 77.167969 53.183594 C 76.4375 53.105469 75.703125 53.0625 74.96875 53.054688 C 64.699219 53.027344 54.429688 53.039062 44.164062 53.078125 C 42.878906 53.089844 41.601562 53.210938 40.339844 53.441406 C 39.074219 53.671875 37.839844 54.007812 36.632812 54.449219 C 35.425781 54.890625 34.265625 55.433594 33.152344 56.078125 C 32.035156 56.71875 30.984375 57.449219 30 58.273438 C 29.011719 59.09375 28.101562 59.996094 27.265625 60.976562 C 26.433594 61.953125 25.691406 62.996094 25.035156 64.105469 C 24.382812 65.210938 23.828125 66.363281 23.371094 67.566406 C 22.917969 68.769531 22.566406 70 22.324219 71.265625 C 21.921875 74.757812 21.746094 78.265625 21.796875 81.785156 C 21.773438 82.160156 21.796875 82.558594 21.796875 83.085938 C 21.734375 83.046875 21.667969 83.015625 21.597656 82.984375 L 21.597656 96.035156 C 21.71875 96.671875 21.777344 97.316406 21.773438 97.964844 C 21.796875 100.167969 21.796875 119.980469 21.796875 128.097656 L 21.597656 128.097656 L 21.597656 135.285156 L 5.570312 151.316406 C 5.21875 151.671875 4.949219 152.078125 4.757812 152.539062 C 4.566406 153 4.472656 153.480469 4.476562 153.980469 C 4.476562 154.480469 4.574219 154.957031 4.765625 155.417969 C 4.957031 155.878906 5.230469 156.285156 5.582031 156.636719 C 5.9375 156.988281 6.34375 157.261719 6.804688 157.449219 C 7.265625 157.640625 7.746094 157.734375 8.246094 157.734375 C 8.746094 157.730469 9.226562 157.636719 9.683594 157.445312 C 10.144531 157.253906 10.550781 156.980469 10.902344 156.625 L 31.917969 135.613281 L 39.429688 128.097656 L 60.117188 107.40625 L 72.9375 120.230469 C 73.257812 120.546875 73.625 120.789062 74.039062 120.957031 C 74.171875 121.214844 74.332031 121.449219 74.519531 121.667969 C 74.710938 121.886719 74.921875 122.078125 75.152344 122.246094 C 75.386719 122.414062 75.636719 122.554688 75.902344 122.664062 C 76.167969 122.773438 76.445312 122.847656 76.730469 122.894531 C 77.015625 122.9375 77.300781 122.945312 77.585938 122.921875 C 77.875 122.898438 78.152344 122.84375 78.425781 122.753906 C 78.699219 122.664062 78.960938 122.542969 79.203125 122.390625 C 79.449219 122.242188 79.671875 122.0625 79.875 121.859375 L 89.867188 111.867188 C 92.398438 109.3125 94.9375 106.773438 97.484375 104.25 C 110.839844 90.875 124.195312 77.515625 137.554688 64.175781 L 137.554688 78.453125 C 137.554688 78.949219 137.648438 79.429688 137.839844 79.890625 C 138.03125 80.351562 138.300781 80.757812 138.652344 81.109375 C 139.007812 81.460938 139.414062 81.734375 139.871094 81.921875 C 140.332031 82.113281 140.8125 82.210938 141.308594 82.210938 C 141.808594 82.210938 142.289062 82.113281 142.746094 81.921875 C 143.207031 81.734375 143.613281 81.460938 143.964844 81.109375 C 144.320312 80.757812 144.589844 80.351562 144.78125 79.890625 C 144.972656 79.429688 145.066406 78.949219 145.066406 78.453125 L 145.066406 55.109375 C 145.054688 54.464844 144.890625 53.859375 144.574219 53.296875 C 144.257812 52.734375 143.832031 52.277344 143.289062 51.925781 Z M 77.222656 113.894531 C 72.738281 109.410156 68.265625 104.929688 63.796875 100.445312 C 63.683594 100.15625 63.539062 99.890625 63.359375 99.640625 C 63.179688 99.390625 62.96875 99.164062 62.734375 98.964844 C 62.5 98.769531 62.242188 98.601562 61.964844 98.464844 C 61.6875 98.332031 61.398438 98.230469 61.097656 98.167969 C 60.796875 98.105469 60.492188 98.082031 60.183594 98.09375 C 59.875 98.105469 59.574219 98.15625 59.28125 98.242188 C 58.984375 98.328125 58.703125 98.449219 58.4375 98.605469 C 58.171875 98.761719 57.929688 98.949219 57.710938 99.167969 L 29.363281 127.519531 C 29.363281 115.421875 29.335938 84.789062 29.363281 75.898438 C 29.355469 75.394531 29.375 74.894531 29.417969 74.394531 C 29.464844 73.890625 29.53125 73.394531 29.628906 72.902344 C 29.722656 72.40625 29.839844 71.921875 29.980469 71.4375 C 30.125 70.957031 30.289062 70.484375 30.480469 70.019531 C 30.671875 69.550781 30.882812 69.097656 31.117188 68.652344 C 31.351562 68.210938 31.609375 67.777344 31.886719 67.359375 C 32.167969 66.941406 32.464844 66.539062 32.78125 66.148438 C 33.101562 65.761719 33.4375 65.390625 33.792969 65.035156 C 34.148438 64.679688 34.523438 64.34375 34.910156 64.023438 C 35.300781 63.707031 35.703125 63.410156 36.125 63.132812 C 36.542969 62.855469 36.972656 62.597656 37.417969 62.363281 C 37.863281 62.128906 38.316406 61.917969 38.78125 61.726562 C 39.25 61.539062 39.722656 61.375 40.203125 61.230469 C 40.6875 61.089844 41.175781 60.972656 41.667969 60.878906 C 42.160156 60.785156 42.660156 60.71875 43.160156 60.675781 C 43.660156 60.628906 44.160156 60.613281 44.664062 60.617188 C 54.015625 60.59375 63.371094 60.59375 72.738281 60.617188 C 74.519531 60.566406 76.289062 60.691406 78.046875 60.996094 C 78.890625 61.175781 79.714844 61.429688 80.515625 61.757812 C 81.316406 62.082031 82.082031 62.472656 82.8125 62.929688 C 83.546875 63.386719 84.234375 63.90625 84.878906 64.480469 C 85.519531 65.058594 86.109375 65.683594 86.644531 66.363281 C 87.179688 67.039062 87.652344 67.757812 88.066406 68.519531 C 88.476562 69.277344 88.820312 70.066406 89.09375 70.886719 C 89.367188 71.707031 89.570312 72.542969 89.699219 73.394531 C 89.832031 74.25 89.886719 75.109375 89.867188 75.972656 C 89.894531 80.457031 89.867188 90.726562 89.867188 101.246094 Z M 77.222656 113.894531 " fill-opacity="1" fill-rule="nonzero"/></g></svg>