<?xml version="1.0" encoding="UTF-8" standalone="no"?>
<svg
   width="768.03131"
   zoomAndPan="magnify"
   viewBox="0 0 576.02348 67.999998"
   height="90.666664"
   preserveAspectRatio="xMidYMid"
   version="1.0"
   id="svg24"
   sodipodi:docname="Underline_gear.svg"
   inkscape:version="1.2.1 (9c6d41e410, 2022-07-14)"
   xmlns:inkscape="http://www.inkscape.org/namespaces/inkscape"
   xmlns:sodipodi="http://sodipodi.sourceforge.net/DTD/sodipodi-0.dtd"
   xmlns="http://www.w3.org/2000/svg"
   xmlns:svg="http://www.w3.org/2000/svg">
  <sodipodi:namedview
     id="namedview26"
     pagecolor="#ffffff"
     bordercolor="#111111"
     borderopacity="1"
     inkscape:showpageshadow="0"
     inkscape:pageopacity="0"
     inkscape:pagecheckerboard="1"
     inkscape:deskcolor="#d1d1d1"
     showgrid="false"
     inkscape:zoom="0.59330678"
     inkscape:cx="128.93835"
     inkscape:cy="-56.463201"
     inkscape:window-width="2560"
     inkscape:window-height="1361"
     inkscape:window-x="-9"
     inkscape:window-y="-9"
     inkscape:window-maximized="1"
     inkscape:current-layer="g22" />
  <defs
     id="defs18">
    <clipPath
       id="81084b9da1">
      <path
         d="m 432,370.80078 h 576 V 439 H 432 Z m 0,0"
         clip-rule="nonzero"
         id="path15" />
    </clipPath>
  </defs>
  <g
     clip-path="url(#81084b9da1)"
     id="g22"
     transform="translate(-432.01563,-370.93359)">
    <path
       fill="#000000"
       d="m 997.42578,374.19141 c -21.14453,-2.17188 -42.35156,-3.25782 -63.60937,-3.25782 h -187.3125 v 8.71485 c -0.12891,0.77344 -0.29297,1.53906 -0.48828,2.30078 -0.19532,0.75781 -0.42579,1.5039 -0.68751,2.24219 -0.26171,0.74218 -0.55468,1.46484 -0.88281,2.17968 -0.32422,0.71094 -0.68359,1.41016 -1.07031,2.08985 -0.38672,0.68359 -0.80469,1.34375 -1.25,1.98828 -0.44531,0.64453 -0.91797,1.26953 -1.42188,1.875 -0.49999,0.60156 -1.02734,1.18359 -1.57812,1.73828 -0.55078,0.55859 -1.12891,1.08984 -1.72656,1.59766 -0.59766,0.5039 -1.21875,0.98437 -1.85938,1.4375 -0.64062,0.45312 -1.30078,0.875 -1.98047,1.26953 -0.67968,0.39453 -1.375,0.75781 -2.08203,1.08984 -0.71093,0.33594 -1.4375,0.63672 -2.17187,0.90625 -0.73828,0.26953 -1.48438,0.50781 -2.24219,0.71094 -0.76172,0.20312 -1.52344,0.375 -2.29688,0.51172 -0.77343,0.13672 -1.55078,0.23828 -2.33593,0.30859 -0.78125,0.0664 -1.5625,0.10156 -2.34766,0.10156 -0.78515,0 -1.57031,-0.0351 -2.35156,-0.10156 -0.78125,-0.0703 -1.55859,-0.17187 -2.33203,-0.30859 -0.77344,-0.13672 -1.53907,-0.3086 -2.29688,-0.51172 -0.75781,-0.20313 -1.50781,-0.44141 -2.24218,-0.71094 -0.73829,-0.26953 -1.46094,-0.57031 -2.17188,-0.90625 -0.71094,-0.33203 -1.40625,-0.69531 -2.08594,-1.08984 -0.67578,-0.39453 -1.33594,-0.81641 -1.97656,-1.26953 -0.64453,-0.45313 -1.26172,-0.9336 -1.86328,-1.4375 -0.59766,-0.50782 -1.17188,-1.03907 -1.72656,-1.59766 -0.55078,-0.55469 -1.07813,-1.13672 -1.57813,-1.73828 -0.5,-0.60547 -0.97656,-1.23047 -1.42187,-1.875 -0.44532,-0.64453 -0.86329,-1.30469 -1.25,-1.98828 -0.38672,-0.67969 -0.74219,-1.37891 -1.07032,-2.08985 -0.32421,-0.71484 -0.62109,-1.4375 -0.88281,-2.17968 -0.26172,-0.73829 -0.49219,-1.48438 -0.6875,-2.24219 -0.19531,-0.76172 -0.35937,-1.52734 -0.48828,-2.30078 v -8.71485 h -187.3125 c -21.25781,0 -42.46094,1.08594 -63.60937,3.25782 l -10.71875,1.10156 10.71875,1.10156 c 21.14843,2.15625 42.35156,3.23047 63.60937,3.21484 h 75.37109 v 6.83594 h 7.1211 c 0.5664,2.03125 1.37109,3.96485 2.41797,5.79688 l -5.04297,5.02734 9.66797,9.64844 5.03515,-5.02344 c 1.83594,1.04688 3.77344,1.85156 5.8125,2.41016 v 7.10937 h 13.69922 v -7.10937 c 2.03516,-0.5586 3.97266,-1.36328 5.80859,-2.41016 l 5.03516,5.02344 9.67188,-9.64844 -5.04297,-5.02734 c 1.04687,-1.83203 1.85156,-3.76563 2.41406,-5.79688 h 7.125 v -6.83594 h 10.85547 v 9.31251 h 14.24609 c 1.125,4.0664 2.73828,7.93359 4.83594,11.59765 l -10.08984,10.08984 19.33984,19.33985 10.08203,-10.05859 c 3.67188,2.08593 7.54688,3.69531 11.61719,4.82421 v 14.21875 h 27.39844 v -14.23437 c 4.07421,-1.12891 7.94531,-2.73828 11.62109,-4.82422 l 10.08203,10.05859 19.33594,-19.33984 -10.07813,-10.05078 c 2.09766,-3.66406 3.70704,-7.53125 4.83594,-11.59766 h 14.2461 v -9.29687 h 10.85156 c 63.91517,-0.17969 -1.37467,-0.33896 63.72656,0 h 75.36719 c 21.25781,0.0156 42.46484,-1.05469 63.61328,-3.21485 l 10.71488,-1.10156 z m -383.83594,18.82422 c -0.8789,0 -1.75,-0.0859 -2.60937,-0.25782 -0.86328,-0.17187 -1.70313,-0.42578 -2.51563,-0.76172 -0.8125,-0.33203 -1.58203,-0.74609 -2.3125,-1.23437 -0.73437,-0.48828 -1.41015,-1.03906 -2.03125,-1.66016 -0.62109,-0.62109 -1.17578,-1.29687 -1.66406,-2.02734 -0.48828,-0.72656 -0.90234,-1.5 -1.23828,-2.30859 -0.33594,-0.8125 -0.58984,-1.64844 -0.76172,-2.50782 -0.17187,-0.85937 -0.25781,-1.73047 -0.25781,-2.60937 h 26.78515 c 0,0.8789 -0.0859,1.75 -0.25781,2.60937 -0.17187,0.85938 -0.42578,1.69532 -0.76172,2.50782 -0.33593,0.80859 -0.75,1.58203 -1.23828,2.30859 -0.48828,0.73047 -1.04297,1.40625 -1.66406,2.02734 -0.62109,0.6211 -1.30078,1.17188 -2.03125,1.66016 -0.73047,0.48828 -1.50391,0.90234 -2.31641,1.23437 -0.8125,0.33594 -1.64843,0.58985 -2.51172,0.76172 -0.86328,0.17188 -1.73046,0.25782 -2.61328,0.25782 z"
       fill-opacity="1"
       fill-rule="nonzero"
       id="path20"
       sodipodi:nodetypes="csccccccscccsscccscscsscccccscsccccccsccccccccccccccccccccccccccccccccccccccccccccccscccsccsccsccsscss"
       style="fill:#ffffff;fill-opacity:1" />
  </g>
</svg>
