<?xml version="1.0" encoding="UTF-8" standalone="no"?>
<!-- Created with Inkscape (http://www.inkscape.org/) -->

<svg
   width="250mm"
   height="46mm"
   viewBox="0 0 250 46"
   version="1.1"
   id="svg66893"
   inkscape:version="1.2.1 (9c6d41e410, 2022-07-14)"
   sodipodi:docname="welcome_section_h2_back.svg"
   xmlns:inkscape="http://www.inkscape.org/namespaces/inkscape"
   xmlns:sodipodi="http://sodipodi.sourceforge.net/DTD/sodipodi-0.dtd"
   xmlns="http://www.w3.org/2000/svg"
   xmlns:svg="http://www.w3.org/2000/svg">
  <sodipodi:namedview
     id="namedview66895"
     pagecolor="#ffffff"
     bordercolor="#111111"
     borderopacity="1"
     inkscape:showpageshadow="0"
     inkscape:pageopacity="0"
     inkscape:pagecheckerboard="1"
     inkscape:deskcolor="#d1d1d1"
     inkscape:document-units="mm"
     showgrid="false"
     inkscape:zoom="2.587745"
     inkscape:cx="519.1779"
     inkscape:cy="18.742187"
     inkscape:window-width="2560"
     inkscape:window-height="1361"
     inkscape:window-x="-9"
     inkscape:window-y="-9"
     inkscape:window-maximized="1"
     inkscape:current-layer="layer1" />
  <defs
     id="defs66890">
    <clipPath
       id="8d7fc597e6-6">
      <path
         d="m 356,37.738281 h 87 V 104 h -87 z m 0,0"
         clip-rule="nonzero"
         id="path46954-5" />
    </clipPath>
    <clipPath
       id="08ba84efca">
      <path
         d="M 23.335938,78 H 301 V 92 H 23.335938 Z m 0,0"
         clip-rule="nonzero"
         id="path46951" />
    </clipPath>
    <clipPath
       id="c06c291a9d">
      <path
         d="m 313,66 h 87 v 66.23828 h -87 z m 0,0"
         clip-rule="nonzero"
         id="path46948" />
    </clipPath>
    <clipPath
       id="08ba84efca-2-6">
      <path
         d="M 23.335938,78 H 301 V 92 H 23.335938 Z m 0,0"
         clip-rule="nonzero"
         id="path46951-4-5" />
    </clipPath>
    <clipPath
       id="08ba84efca-2">
      <path
         d="M 23.335938,78 H 301 V 92 H 23.335938 Z m 0,0"
         clip-rule="nonzero"
         id="path46951-4" />
    </clipPath>
    <clipPath
       id="79947dd10e">
      <path
         d="m 440,90 h 61.83594 v 14 H 440 Z m 0,0"
         clip-rule="nonzero"
         id="path46957" />
    </clipPath>
    <clipPath
       id="c06c291a9d-8">
      <path
         d="m 313,66 h 87 v 66.23828 h -87 z m 0,0"
         clip-rule="nonzero"
         id="path85426" />
    </clipPath>
    <clipPath
       id="08ba84efca-3">
      <path
         d="M 23.335938,78 H 301 V 92 H 23.335938 Z m 0,0"
         clip-rule="nonzero"
         id="path85429" />
    </clipPath>
    <clipPath
       id="8d7fc597e6">
      <path
         d="m 356,37.738281 h 87 V 104 h -87 z m 0,0"
         clip-rule="nonzero"
         id="path85432" />
    </clipPath>
    <clipPath
       id="79947dd10e-5">
      <path
         d="m 440,90 h 61.83594 v 14 H 440 Z m 0,0"
         clip-rule="nonzero"
         id="path85435" />
    </clipPath>
    <clipPath
       id="08ba84efca-3-4">
      <path
         d="M 23.335938,78 H 301 V 92 H 23.335938 Z m 0,0"
         clip-rule="nonzero"
         id="path85429-2" />
    </clipPath>
    <clipPath
       id="c06c291a9d-8-1">
      <path
         d="m 313,66 h 87 v 66.23828 h -87 z m 0,0"
         clip-rule="nonzero"
         id="path85426-8" />
    </clipPath>
    <clipPath
       id="8d7fc597e6-2">
      <path
         d="m 356,37.738281 h 87 V 104 h -87 z m 0,0"
         clip-rule="nonzero"
         id="path85432-4" />
    </clipPath>
    <clipPath
       id="79947dd10e-5-5">
      <path
         d="m 440,90 h 61.83594 v 14 H 440 Z m 0,0"
         clip-rule="nonzero"
         id="path85435-2" />
    </clipPath>
    <clipPath
       id="08ba84efca-3-46">
      <path
         d="M 23.335938,78 H 301 V 92 H 23.335938 Z m 0,0"
         clip-rule="nonzero"
         id="path85429-8" />
    </clipPath>
    <clipPath
       id="79947dd10e-5-1">
      <path
         d="m 440,90 h 61.83594 v 14 H 440 Z m 0,0"
         clip-rule="nonzero"
         id="path85435-6" />
    </clipPath>
  </defs>
  <g
     inkscape:label="Слой 1"
     inkscape:groupmode="layer"
     id="layer1"
     transform="translate(17.206915,-131.88216)">
    <g
       clip-path="url(#c06c291a9d-8)"
       id="g85442"
       transform="matrix(0.27692976,0,0.02344381,0.27692976,72.869474,116.92103)"
       style="stroke-width:1.27388">
      <path
         fill="#5271ff"
         d="m 313.875,66.578125 7.42187,12.871094 h 32.92188 l 30.38281,52.671871 h 14.98828 l -37.8125,-65.542965 z m 0,0"
         fill-opacity="1"
         fill-rule="nonzero"
         id="path85440"
         style="stroke-width:0.963551" />
    </g>
    <g
       clip-path="url(#08ba84efca-3)"
       id="g85446"
       transform="matrix(0.40560296,0,0,0.23304646,32.507129,119.52864)"
       style="stroke-width:1.14744">
      <path
         fill="#5271ff"
         d="M 293.33203,79.675081 H 30.894531 L 26.106338,91.07315 H 297.38901 Z"
         fill-opacity="1"
         fill-rule="nonzero"
         id="path85444"
         style="stroke-width:0.867905"
         sodipodi:nodetypes="ccccc" />
    </g>
    <path
       fill="#5271ff"
       d="m 158.7069,135.46826 0.002,0.003 h -12.87624 l 1.16119,1.78164 h 12.85126 l 1.13619,1.77949 h 2.05642 l -2.27593,-3.56439 z m 0,0"
       fill-opacity="1"
       fill-rule="nonzero"
       id="path85448"
       style="stroke-width:0.352778" />
    <rect
       style="fill:#000000;fill-opacity:1;stroke:none;stroke-width:7.08417;stroke-dasharray:none;stroke-opacity:1"
       id="rect87324-1"
       width="3.1887083"
       height="16.947571"
       x="270.50009"
       y="178.48384"
       transform="matrix(1,0,-0.48982602,0.87182021,0,0)" />
    <rect
       style="fill:#000000;fill-opacity:1;stroke:none;stroke-width:7.08417;stroke-dasharray:none;stroke-opacity:1"
       id="rect87324-1-8"
       width="3.1887083"
       height="16.947571"
       x="282.25693"
       y="178.53603"
       transform="matrix(1,0,-0.48982602,0.87182021,0,0)" />
    <rect
       style="fill:#7e8dd3;fill-opacity:1;stroke:none;stroke-width:7.08417;stroke-dasharray:none;stroke-opacity:1"
       id="rect87324-1-8-4"
       width="3.1887083"
       height="16.947571"
       x="286.49982"
       y="176.0052"
       transform="matrix(1,0,-0.48982602,0.87182021,0,0)" />
    <rect
       style="fill:#000000;fill-opacity:1;stroke:none;stroke-width:7.09679;stroke-dasharray:none;stroke-opacity:1"
       id="rect87387-9"
       width="13.559656"
       height="3.0504258"
       x="272.61984"
       y="187.0309"
       transform="matrix(1,0,-0.49530015,0.86872191,0,0)" />
    <rect
       style="fill:#7e8dd3;fill-opacity:1;stroke:none;stroke-width:7.09679;stroke-dasharray:none;stroke-opacity:1"
       id="rect87387-9-5"
       width="11.060776"
       height="2.6399479"
       x="289.17026"
       y="183.99655"
       transform="matrix(1,0,-0.49530015,0.86872191,0,0)" />
    <rect
       style="fill:#7e8dd3;fill-opacity:1;stroke:none;stroke-width:7.09679;stroke-dasharray:none;stroke-opacity:1"
       id="rect87387-9-5-3"
       width="12.353022"
       height="2.9991169"
       x="289.22299"
       y="176.63358"
       transform="matrix(1,0,-0.49530015,0.86872191,0,0)" />
    <path
       id="rect88856-2"
       style="fill:#ffffff;stroke-width:6.61458"
       d="m 30.99789,142.19516 h 140.79074 l 7.69349,13.27839 -7.69349,14.76409 -146.61869,-0.20449 c -0.0877,-0.11658 -0.0769,-0.0954 5.82795,-27.83799 z"
       sodipodi:nodetypes="cccccc" />
  </g>
</svg>
