<?xml version="1.0" encoding="UTF-8" standalone="no"?>
<svg
   width="122.99999"
   zoomAndPan="magnify"
   viewBox="0 0 92.249988 92.249994"
   height="123"
   preserveAspectRatio="xMidYMid"
   version="1.0"
   id="svg9866"
   sodipodi:docname="what_section_gear_lg_monitor.svg"
   inkscape:version="1.2.1 (9c6d41e410, 2022-07-14)"
   xmlns:inkscape="http://www.inkscape.org/namespaces/inkscape"
   xmlns:sodipodi="http://sodipodi.sourceforge.net/DTD/sodipodi-0.dtd"
   xmlns="http://www.w3.org/2000/svg"
   xmlns:svg="http://www.w3.org/2000/svg">
  <sodipodi:namedview
     id="namedview9868"
     pagecolor="#ffffff"
     bordercolor="#111111"
     borderopacity="1"
     inkscape:showpageshadow="0"
     inkscape:pageopacity="0"
     inkscape:pagecheckerboard="1"
     inkscape:deskcolor="#d1d1d1"
     showgrid="false"
     inkscape:zoom="3.5284628"
     inkscape:cx="-19.130144"
     inkscape:cy="33.867439"
     inkscape:window-width="2560"
     inkscape:window-height="1361"
     inkscape:window-x="2391"
     inkscape:window-y="-9"
     inkscape:window-maximized="1"
     inkscape:current-layer="svg9866" />
  <defs
     id="defs9842">
    <clipPath
       id="004468400f">
      <path
         d="M 21,24.273438 H 54 V 53 H 21 Z m 0,0"
         clip-rule="nonzero"
         id="path9836" />
    </clipPath>
    <clipPath
       id="0b3a2f3b81">
      <path
         d="M 31,32 H 54 V 55.023438 H 31 Z m 0,0"
         clip-rule="nonzero"
         id="path9839" />
    </clipPath>
    <clipPath
       id="a57af7a3bf">
      <path
         d="M 9.289062,8.519531 H 67.253906 V 66.480469 H 9.289062 Z m 0,0"
         clip-rule="nonzero"
         id="path23811" />
    </clipPath>
    <clipPath
       id="0d31f917a1">
      <path
         d="M 38.273438,8.519531 C 22.265625,8.519531 9.289062,21.496094 9.289062,37.5 c 0,16.003906 12.976563,28.980469 28.984376,28.980469 16.003906,0 28.980468,-12.976563 28.980468,-28.980469 0,-16.003906 -12.976562,-28.980469 -28.980468,-28.980469"
         clip-rule="nonzero"
         id="path23814" />
    </clipPath>
    <clipPath
       id="17f1adb2ce">
      <path
         d="M 23.78125,41 H 50 v 5 H 23.78125 Z m 0,0"
         clip-rule="nonzero"
         id="path23817" />
    </clipPath>
    <clipPath
       id="9e677ec2cc">
      <path
         d="m 31,49 h 11 v 3.0625 H 31 Z m 0,0"
         clip-rule="nonzero"
         id="path23820" />
    </clipPath>
    <clipPath
       id="154e8e6c87">
      <path
         d="M 35,25.0625 H 51 V 41 H 35 Z m 0,0"
         clip-rule="nonzero"
         id="path23823" />
    </clipPath>
    <clipPath
       id="51d4d22e56">
      <path
         d="M 47,37 H 58.28125 V 48 H 47 Z m 0,0"
         clip-rule="nonzero"
         id="path23826" />
    </clipPath>
    <clipPath
       id="05cd9db797">
      <path
         d="M 23.78125,29 H 50 V 42 H 23.78125 Z m 0,0"
         clip-rule="nonzero"
         id="path23829" />
    </clipPath>
  </defs>
  <g
     clip-path="url(#a57af7a3bf)"
     id="g23838"
     transform="matrix(1.2308332,0,0,1.2308332,-0.031256,-0.03125109)"
     style="stroke-width:0.812458">
    <g
       clip-path="url(#0d31f917a1)"
       id="g23836"
       style="stroke-width:0.812458">
      <path
         fill="#dde0f9"
         d="M 9.289062,8.519531 H 67.253906 V 66.480469 H 9.289062 Z m 0,0"
         fill-opacity="1"
         fill-rule="nonzero"
         id="path23834"
         style="stroke-width:0.758792" />
    </g>
  </g>
  <path
     fill="#dde0f9"
     d="M 63.220602,17.992001 C 78.747776,27.427418 83.693397,47.693426 74.257978,63.220602 64.822557,78.747779 44.556551,83.693404 29.029378,74.257987 13.502203,64.822568 8.556574,44.556555 17.991994,29.029379 27.427413,13.502202 47.693427,8.5565823 63.220602,17.992001 Z M 72.382998,8.2006334 C 70.876588,7.161457 69.307023,6.2076773 67.690742,5.3492846 L 61.185567,9.9253544 C 58.525945,8.8211467 55.755825,8.0098625 52.925419,7.5107565 L 49.901855,0.15427701 C 48.076298,0.0013598 46.243492,-0.03780233 44.412569,0.03106568 L 41.063859,7.2453608 C 38.211247,7.6160506 35.410465,8.2995381 32.707767,9.2845483 L 26.412305,4.4237789 c -1.656797,0.7822949 -3.265567,1.6612836 -4.81547,2.6379332 l 0.709111,7.9247939 c -2.286442,1.744299 -4.371457,3.740399 -6.220967,5.941495 L 8.200644,19.866981 C 7.16146,21.373396 6.2076812,22.942959 5.3492942,24.559238 l 4.5760709,6.505187 C 8.8212011,33.724072 8.0098814,36.494159 7.5148838,39.32707 L 0.15428903,42.348135 C 0.00385942,44.169576 -0.03778171,46.006491 0.03108209,47.83742 L 7.245368,51.186148 c 0.3706848,2.852615 1.054176,5.653395 2.0391792,8.356092 l -4.8607781,6.295455 c 0.7822677,1.656829 1.6678951,3.263949 2.637936,4.815468 l 7.9247899,-0.709105 c 1.744297,2.286435 3.740406,4.371451 5.94561,6.223459 l -1.065132,7.88183 c 1.506418,1.039185 3.075983,1.992965 4.692256,2.851348 l 6.505186,-4.576064 c 2.659621,1.104208 5.429733,1.915487 8.262642,2.410491 l 3.021068,7.360591 c 1.825562,0.152908 3.658352,0.192074 5.489286,0.123211 l 3.348709,-7.214297 c 2.85262,-0.370683 5.653402,-1.05417 8.3561,-2.039178 l 6.295467,4.86076 c 1.656796,-0.782294 3.268055,-1.665397 4.815461,-2.637937 l -0.709096,-7.924779 c 2.286441,-1.744301 4.371448,-3.740405 6.223456,-5.94561 l 7.881839,1.065128 c 1.039183,-1.506413 1.992962,-3.075978 2.851349,-4.692256 l -4.57607,-6.50519 c 1.104164,-2.659648 1.915492,-5.429732 2.410491,-8.262639 l 7.360588,-3.02107 c 0.150425,-1.821444 0.192075,-3.658353 0.123212,-5.489282 L 85.00213,41.067963 c -0.368187,-2.856725 -1.051679,-5.657505 -2.036691,-8.360209 l 4.86078,-6.295455 c -0.782278,-1.656834 -1.667896,-3.263948 -2.637937,-4.815468 l -7.92479,0.709105 c -1.744304,-2.286441 -3.740406,-4.37145 -5.94561,-6.223459 z m 0,0"
     fill-opacity="1"
     fill-rule="evenodd"
     id="path23840"
     style="stroke-width:1" />
  <g
     clip-path="url(#17f1adb2ce)"
     id="g23844"
     transform="matrix(1.2308332,0,0,1.2308332,-0.031256,-0.03125109)"
     style="stroke-width:0.812458">
    <path
       fill="#000000"
       d="m 24.480469,41.789062 v 2.457032 c 0,0.484375 0.398437,0.875 0.890625,0.875 H 47.59375 c 0.492188,0 0.890625,-0.390625 0.890625,-0.875 V 41.789062 Z M 47.59375,45.800781 H 25.371094 c -0.871094,0 -1.582032,-0.699219 -1.582032,-1.554687 v -2.792969 c 0,-0.1875 0.15625,-0.339844 0.34375,-0.339844 h 24.695313 c 0.191406,0 0.34375,0.152344 0.34375,0.339844 v 2.792969 c 0,0.855468 -0.707031,1.554687 -1.578125,1.554687"
       fill-opacity="1"
       fill-rule="nonzero"
       id="path23842"
       style="stroke-width:0.758792" />
  </g>
  <path
     fill="#000000"
     d="m 40.716055,60.914228 h 8.471594 l -0.749993,-4.572353 h -6.952277 z m 8.966812,0.836584 h -9.466838 c -0.12505,0 -0.24518,-0.05289 -0.322158,-0.149045 -0.082,-0.09133 -0.115415,-0.216357 -0.09635,-0.336559 l 0.91348,-5.408936 c 0.03383,-0.201935 0.206743,-0.350981 0.418303,-0.350981 h 7.673467 c 0.206743,0 0.384683,0.149046 0.418303,0.350981 l 0.87986,5.408936 c 0.01947,0.120202 -0.01435,0.245201 -0.09635,0.336559 -0.082,0.09614 -0.197108,0.149045 -0.322158,0.149045"
     fill-opacity="1"
     fill-rule="nonzero"
     id="path23846"
     style="stroke-width:1" />
  <g
     clip-path="url(#9e677ec2cc)"
     id="g23850"
     transform="matrix(1.2308332,0,0,1.2308332,-0.031256,-0.03125109)"
     style="stroke-width:0.812458">
    <path
       fill="#000000"
       d="m 32.214844,51.386719 h 8.683594 v -1.191407 h -8.683594 z m 9.03125,0.675781 h -9.375 c -0.191406,0 -0.347656,-0.148438 -0.347656,-0.335938 v -1.871093 c 0,-0.1875 0.15625,-0.339844 0.347656,-0.339844 h 9.375 c 0.1875,0 0.34375,0.152344 0.34375,0.339844 v 1.871093 c 0,0.1875 -0.15625,0.335938 -0.34375,0.335938"
       fill-opacity="1"
       fill-rule="nonzero"
       id="path23848"
       style="stroke-width:0.758792" />
  </g>
  <path
     fill="#000000"
     d="m 51.216595,44.591263 c -0.10578,0 -0.216377,-0.03844 -0.29807,-0.120202 -0.163487,-0.163467 -0.168305,-0.427907 0,-0.591374 l 9.014896,-8.937965 c 0.163487,-0.163467 0.432755,-0.163467 0.59614,0 0.168305,0.15866 0.168305,0.423099 0.0048,0.586566 l -9.014886,8.937966 c -0.082,0.08179 -0.19229,0.125009 -0.302887,0.125009"
     fill-opacity="1"
     fill-rule="nonzero"
     id="path23852"
     style="stroke-width:1" />
  <path
     fill="#000000"
     d="m 49.908839,44.50472 c -0.110598,0 -0.216378,-0.03844 -0.29807,-0.120202 L 46.711577,41.5286 c -0.168305,-0.158659 -0.168305,-0.423099 0,-0.586566 0.163487,-0.163467 0.432755,-0.163467 0.596242,0 l 2.899182,2.85111 c 0.168305,0.163467 0.168305,0.427907 0,0.591374 -0.082,0.08169 -0.187472,0.120202 -0.29807,0.120202"
     fill-opacity="1"
     fill-rule="nonzero"
     id="path23854"
     style="stroke-width:1" />
  <path
     fill="#000000"
     d="m 40.571816,46.668294 c -0.110597,0 -0.221195,-0.03844 -0.302887,-0.120202 -0.163488,-0.163467 -0.163488,-0.427907 0,-0.591374 l 5.04833,-4.966605 c 0.163487,-0.163467 0.432755,-0.163467 0.596242,0 0.168305,0.163477 0.168305,0.427906 0,0.591373 l -5.043533,4.966605 c -0.082,0.08169 -0.19229,0.120202 -0.29807,0.120202"
     fill-opacity="1"
     fill-rule="nonzero"
     id="path23856"
     style="stroke-width:1" />
  <path
     fill="#000000"
     d="m 39.177509,46.75003 c -0.10578,0 -0.216377,-0.03844 -0.29807,-0.120201 l -1.129868,-1.110634 c -0.163487,-0.163467 -0.163487,-0.427907 0,-0.591374 0.168305,-0.163467 0.432755,-0.163467 0.600958,0 l 1.129857,1.110634 c 0.163488,0.163467 0.163488,0.427907 0,0.591374 -0.082,0.08179 -0.19229,0.120201 -0.302887,0.120201"
     fill-opacity="1"
     fill-rule="nonzero"
     id="path23858"
     style="stroke-width:1" />
  <path
     fill="#000000"
     d="m 33.297402,48.899179 c -0.10578,0 -0.216378,-0.03844 -0.29807,-0.120202 -0.163488,-0.163467 -0.163488,-0.427907 0,-0.591374 l 3.30787,-3.254978 c 0.163487,-0.158659 0.432755,-0.158659 0.59614,0 0.168305,0.163467 0.168305,0.427907 0,0.591374 l -3.303053,3.254977 c -0.082,0.08169 -0.19229,0.120202 -0.302887,0.120202"
     fill-opacity="1"
     fill-rule="nonzero"
     id="path23860"
     style="stroke-width:1" />
  <path
     fill="#000000"
     d="m 37.331259,44.062389 c -0.254816,0 -0.456741,0.201935 -0.456741,0.451943 0,0.250008 0.201925,0.451943 0.456741,0.451943 0.254815,0 0.461557,-0.201935 0.461557,-0.451943 0,-0.250018 -0.206742,-0.451943 -0.461557,-0.451943 z m 0,1.740475 c -0.72119,0 -1.307757,-0.576952 -1.307757,-1.288528 0,-0.706768 0.586608,-1.28372 1.307757,-1.28372 0.721189,0 1.307766,0.576952 1.307766,1.28372 0,0.711576 -0.586607,1.288528 -1.307766,1.288528"
     fill-opacity="1"
     fill-rule="nonzero"
     id="path23862"
     style="stroke-width:1" />
  <path
     fill="#000000"
     d="m 39.816966,46.509632 c -0.249998,0 -0.45674,0.206743 -0.45674,0.451943 0,0.250018 0.206742,0.451943 0.45674,0.451943 0.254815,0 0.461557,-0.201935 0.461557,-0.451943 0,-0.2452 -0.206742,-0.451943 -0.461557,-0.451943 z m 0,1.740476 c -0.716373,0 -1.30295,-0.576952 -1.30295,-1.288529 0,-0.706768 0.586608,-1.283721 1.30295,-1.283721 0.721189,0 1.307766,0.576952 1.307766,1.283721 0,0.711576 -0.586607,1.288529 -1.307766,1.288529"
     fill-opacity="1"
     fill-rule="nonzero"
     id="path23864"
     style="stroke-width:1" />
  <path
     fill="#000000"
     d="m 46.274035,40.15834 c -0.249998,0 -0.45674,0.201936 -0.45674,0.447136 0,0.250018 0.206742,0.451943 0.45674,0.451943 0.254815,0 0.461557,-0.201935 0.461557,-0.451943 0,-0.2452 -0.206742,-0.447136 -0.461557,-0.447136 z m 0,1.735667 c -0.716373,0 -1.302949,-0.576952 -1.302949,-1.288529 0,-0.706768 0.586607,-1.28372 1.302949,-1.28372 0.72119,0 1.307756,0.576952 1.307756,1.28372 0,0.711576 -0.586607,1.288529 -1.307756,1.288529"
     fill-opacity="1"
     fill-rule="nonzero"
     id="path23866"
     style="stroke-width:1" />
  <path
     fill="#000000"
     d="m 50.553102,44.36529 c -0.254815,0 -0.461557,0.201935 -0.461557,0.451943 0,0.250018 0.206742,0.451943 0.461557,0.451943 0.249998,0 0.456741,-0.201935 0.456741,-0.451943 0,-0.250018 -0.206743,-0.451943 -0.456741,-0.451943 z m 0,1.735667 c -0.721189,0 -1.307756,-0.576952 -1.307756,-1.283721 0,-0.711575 0.586608,-1.288528 1.307756,-1.288528 0.72119,0 1.307757,0.576952 1.307757,1.288528 0,0.706768 -0.586608,1.283721 -1.307757,1.283721"
     fill-opacity="1"
     fill-rule="nonzero"
     id="path23868"
     style="stroke-width:1" />
  <path
     fill="#000000"
     d="m 44.966279,52.697455 c -0.423121,0 -0.764446,0.336558 -0.764446,0.750043 0,0.413485 0.341325,0.750034 0.764446,0.750034 0.418302,0 0.759627,-0.336559 0.759627,-0.750034 0,-0.413485 -0.341325,-0.750043 -0.759627,-0.750043 z m 0,2.336658 c -0.889496,0 -1.615472,-0.711575 -1.615472,-1.58662 0,-0.875042 0.726007,-1.586621 1.615472,-1.586621 0.884677,0 1.610654,0.711576 1.610654,1.586621 0,0.875043 -0.726008,1.58662 -1.610654,1.58662"
     fill-opacity="1"
     fill-rule="nonzero"
     id="path23870"
     style="stroke-width:1" />
  <g
     clip-path="url(#154e8e6c87)"
     id="g23874"
     transform="matrix(1.2308332,0,0,1.2308332,-0.031256,-0.03125109)"
     style="stroke-width:0.812458">
    <path
       fill="#000000"
       d="m 43.089844,25.742188 c -1.890625,0 -3.671875,0.726562 -5.011719,2.042968 -1.339844,1.316406 -2.074219,3.070313 -2.074219,4.933594 0,1.863281 0.734375,3.617188 2.074219,4.933594 2.765625,2.722656 7.261719,2.722656 10.027344,0 1.335937,-1.316406 2.074219,-3.070313 2.074219,-4.933594 0,-1.863281 -0.738282,-3.617188 -2.074219,-4.933594 -1.339844,-1.316406 -3.121094,-2.042968 -5.015625,-2.042968 z m 0,14.632812 C 41.015625,40.375 39.0625,39.578125 37.59375,38.132812 36.125,36.6875 35.3125,34.765625 35.3125,32.71875 c 0,-2.042969 0.8125,-3.96875 2.28125,-5.414062 1.46875,-1.445313 3.421875,-2.242188 5.496094,-2.242188 2.078125,0 4.03125,0.796875 5.5,2.242188 1.46875,1.445312 2.28125,3.371093 2.28125,5.414062 0,2.046875 -0.8125,3.96875 -2.28125,5.414062 -1.46875,1.445313 -3.421875,2.242188 -5.5,2.242188"
       fill-opacity="1"
       fill-rule="nonzero"
       id="path23872"
       style="stroke-width:0.758792" />
  </g>
  <g
     clip-path="url(#51d4d22e56)"
     id="g23878"
     transform="matrix(1.2308332,0,0,1.2308332,-0.031256,-0.03125109)"
     style="stroke-width:0.812458">
    <path
       fill="#000000"
       d="m 48.769531,40.109375 6.679688,6.578125 c 0.191406,0.1875 0.449219,0.292969 0.71875,0.292969 0.269531,0 0.523437,-0.105469 0.71875,-0.292969 l 0.394531,-0.390625 c 0.191406,-0.191406 0.296875,-0.441406 0.296875,-0.707031 0,-0.265625 -0.105469,-0.519532 -0.296875,-0.707032 l -6.679688,-6.574218 z m 7.398438,7.546875 c -0.457031,0 -0.882813,-0.175781 -1.203125,-0.492188 l -6.925782,-6.816406 c -0.136718,-0.132812 -0.136718,-0.34375 0,-0.476562 l 2.316407,-2.285156 c 0.136719,-0.128907 0.355469,-0.128907 0.488281,0 l 6.925781,6.816406 c 0.320313,0.320312 0.496094,0.738281 0.496094,1.1875 0,0.449218 -0.175781,0.867187 -0.496094,1.183594 l -0.398437,0.390624 c -0.320313,0.316407 -0.75,0.492188 -1.203125,0.492188"
       fill-opacity="1"
       fill-rule="nonzero"
       id="path23876"
       style="stroke-width:0.758792" />
  </g>
  <path
     fill="#000000"
     d="m 59.313173,47.326982 0.759627,0.750044 0.89913,-0.87985 -0.764445,-0.750043 c -0.1394,0.158659 -0.283617,0.312512 -0.432755,0.45675 -0.144217,0.144238 -0.29807,0.288476 -0.461557,0.423099 z m 0.759627,1.759707 c -0.10578,0 -0.216377,-0.04326 -0.29807,-0.125009 l -1.3895,-1.365456 c -0.082,-0.08651 -0.129765,-0.201935 -0.120232,-0.317319 0.0048,-0.120202 0.06253,-0.230779 0.15867,-0.302898 0.26445,-0.206742 0.519265,-0.432714 0.75481,-0.663493 0.235545,-0.230778 0.461557,-0.480796 0.6683,-0.740419 0.07688,-0.09614 0.187472,-0.149045 0.307705,-0.158659 0.124947,-0.0048 0.240362,0.03844 0.326975,0.120201 l 1.3895,1.370263 c 0.163487,0.163478 0.163487,0.4231 0,0.586567 l -1.49527,1.471232 c -0.082,0.08169 -0.19229,0.125009 -0.302888,0.125009"
     fill-opacity="1"
     fill-rule="nonzero"
     id="path23880"
     style="stroke-width:1" />
  <path
     fill="#000000"
     d="m 59.654539,46.84138 c -0.101475,0 -0.206743,-0.03362 -0.288435,-0.110577 -0.0861,-0.08169 -0.134583,-0.19232 -0.134583,-0.302897 0,-0.10578 0.03895,-0.206743 0.115415,-0.288476 l 0.03383,-0.03362 c 0.15867,-0.168285 0.427938,-0.177889 0.596243,-0.01927 0.173122,0.158659 0.182655,0.423099 0.02358,0.591373 l -0.03895,0.03362 c -0.082,0.08651 -0.19229,0.129817 -0.307705,0.129817"
     fill-opacity="1"
     fill-rule="nonzero"
     id="path23882"
     style="stroke-width:1" />
  <path
     fill="#000000"
     d="m 60.010326,46.451937 c -0.09635,0 -0.192289,-0.03362 -0.274085,-0.100963 -0.09635,-0.08169 -0.149034,-0.197128 -0.149034,-0.317319 0,-0.09614 0.03383,-0.192321 0.101475,-0.269247 l 0.0097,-0.0097 c 0.149035,-0.177888 0.418302,-0.197128 0.596243,-0.04807 0.101475,0.08169 0.149035,0.201935 0.149035,0.317319 0,0.09614 -0.03383,0.192321 -0.101475,0.269247 l -0.0097,0.0097 c -0.082,0.100962 -0.201925,0.149045 -0.322158,0.149045"
     fill-opacity="1"
     fill-rule="nonzero"
     id="path23884"
     style="stroke-width:1" />
  <g
     clip-path="url(#05cd9db797)"
     id="g23888"
     transform="matrix(1.2308332,0,0,1.2308332,-0.031256,-0.03125109)"
     style="stroke-width:0.812458">
    <path
       fill="#000000"
       d="m 24.480469,41.113281 h 24.003906 v -0.324219 l -0.445313,-0.441406 c -0.06641,-0.0625 -0.101562,-0.148437 -0.101562,-0.238281 0,-0.08984 0.03516,-0.175781 0.101562,-0.238281 l 0.308594,-0.304688 -0.671875,-0.660156 c -1.371093,0.984375 -2.976562,1.472656 -4.578125,1.472656 -2.003906,0 -3.992187,-0.757812 -5.503906,-2.246094 -1.113281,-1.09375 -1.851562,-2.46875 -2.144531,-3.984374 C 35.199219,32.839844 35.296875,31.5 35.730469,30.25 H 25.371094 c -0.492188,0 -0.890625,0.390625 -0.890625,0.875 z m 24.347656,0.675781 H 24.132812 c -0.1875,0 -0.34375,-0.152343 -0.34375,-0.335937 V 31.125 c 0,-0.855469 0.710938,-1.554688 1.582032,-1.554688 h 10.855468 c 0.113282,0 0.222657,0.05859 0.285157,0.152344 0.06641,0.09375 0.07813,0.210938 0.03125,0.316406 -0.53125,1.261719 -0.675781,2.640626 -0.414063,3.984376 0.261719,1.378906 0.9375,2.632812 1.949219,3.628906 2.546875,2.507812 6.59375,2.738281 9.410156,0.539062 0.0078,-0.0039 0.01953,-0.01172 0.02734,-0.01953 0.140625,-0.08984 0.324219,-0.06641 0.441406,0.05078 l 1.113281,1.097656 c 0.06641,0.0625 0.101563,0.148438 0.101563,0.238282 v 0.01172 c 0,0.08984 -0.03516,0.175782 -0.101563,0.242188 l -0.300781,0.296875 0.300781,0.296875 c 0.06641,0.06641 0.101563,0.152344 0.101563,0.242188 v 0.804687 c 0,0.183594 -0.152344,0.335937 -0.34375,0.335937"
       fill-opacity="1"
       fill-rule="nonzero"
       id="path23886"
       style="stroke-width:0.758792" />
  </g>
  <path
     fill="#000000"
     d="m 59.837235,46.653871 c -0.101475,0 -0.201925,-0.03844 -0.283618,-0.10578 -0.173122,-0.153852 -0.19229,-0.418292 -0.03383,-0.591374 l 0.01947,-0.02409 c 0.15867,-0.173082 0.42312,-0.187514 0.600958,-0.03362 0.09123,0.08169 0.1394,0.197128 0.1394,0.312512 0,0.09614 -0.03383,0.197128 -0.10578,0.274054 l -0.02358,0.0288 c -0.082,0.09133 -0.197108,0.139431 -0.312523,0.139431"
     fill-opacity="1"
     fill-rule="nonzero"
     id="path23890"
     style="stroke-width:1" />
  <path
     fill="#000000"
     d="m 59.255476,47.235631 c -0.110598,0 -0.226013,-0.04807 -0.307705,-0.134623 -0.15867,-0.168274 -0.153853,-0.432714 0.01947,-0.586567 l 0.03383,-0.03362 c 0.173122,-0.158659 0.437572,-0.149045 0.600957,0.01927 0.15867,0.163467 0.153853,0.427907 -0.01947,0.586567 -0.0048,0.0097 -0.01435,0.01445 -0.02358,0.02409 l -0.01435,0.0097 c -0.082,0.07698 -0.182758,0.115394 -0.288435,0.115394"
     fill-opacity="1"
     fill-rule="nonzero"
     id="path23892"
     style="stroke-width:1" />
  <path
     fill="#000000"
     d="m 58.885266,47.557764 c -0.120232,0 -0.240362,-0.04807 -0.326975,-0.149045 -0.06765,-0.07698 -0.09635,-0.173092 -0.09635,-0.26444 0,-0.120202 0.04818,-0.240393 0.149035,-0.322137 l 0.0097,-0.0097 c 0.177939,-0.144238 0.447104,-0.125009 0.596242,0.05289 0.06765,0.07698 0.101475,0.173091 0.101475,0.269247 0,0.120201 -0.0533,0.235586 -0.149035,0.317329 l -0.0097,0.0097 c -0.082,0.06734 -0.17794,0.09614 -0.274085,0.09614"
     fill-opacity="1"
     fill-rule="nonzero"
     id="path23894"
     style="stroke-width:1" />
  <path
     fill="#000000"
     d="m 59.072779,47.399101 c -0.115414,0 -0.235647,-0.04807 -0.317339,-0.13943 -0.07175,-0.08169 -0.10578,-0.177889 -0.10578,-0.278862 0,-0.110577 0.04818,-0.225971 0.1394,-0.312512 l 0.0287,-0.01927 c 0.173122,-0.153853 0.442287,-0.139431 0.596242,0.03362 0.153853,0.173092 0.1394,0.437521 -0.03383,0.591374 l -0.0287,0.01927 c -0.07688,0.07216 -0.17794,0.10578 -0.278902,0.10578"
     fill-opacity="1"
     fill-rule="nonzero"
     id="path23896"
     style="stroke-width:1" />
</svg>
