<?xml version="1.0" encoding="UTF-8" standalone="no"?>
<svg
   width="126.99829"
   zoomAndPan="magnify"
   viewBox="0 0 95.248712 95.249982"
   height="126.99998"
   preserveAspectRatio="xMidYMid"
   version="1.0"
   id="svg9866"
   sodipodi:docname="what_section_gear_lg_recovery.svg"
   inkscape:version="1.2.1 (9c6d41e410, 2022-07-14)"
   xmlns:inkscape="http://www.inkscape.org/namespaces/inkscape"
   xmlns:sodipodi="http://sodipodi.sourceforge.net/DTD/sodipodi-0.dtd"
   xmlns="http://www.w3.org/2000/svg"
   xmlns:svg="http://www.w3.org/2000/svg">
  <sodipodi:namedview
     id="namedview9868"
     pagecolor="#ffffff"
     bordercolor="#111111"
     borderopacity="1"
     inkscape:showpageshadow="0"
     inkscape:pageopacity="0"
     inkscape:pagecheckerboard="1"
     inkscape:deskcolor="#d1d1d1"
     showgrid="false"
     inkscape:zoom="7.0569257"
     inkscape:cx="41.165234"
     inkscape:cy="55.90253"
     inkscape:window-width="2560"
     inkscape:window-height="1361"
     inkscape:window-x="-9"
     inkscape:window-y="-9"
     inkscape:window-maximized="1"
     inkscape:current-layer="svg9866" />
  <defs
     id="defs9842">
    <clipPath
       id="004468400f">
      <path
         d="M 21,24.273438 H 54 V 53 H 21 Z m 0,0"
         clip-rule="nonzero"
         id="path9836" />
    </clipPath>
    <clipPath
       id="0b3a2f3b81">
      <path
         d="M 31,32 H 54 V 55.023438 H 31 Z m 0,0"
         clip-rule="nonzero"
         id="path9839" />
    </clipPath>
    <clipPath
       id="a57af7a3bf">
      <path
         d="M 9.289062,8.519531 H 67.253906 V 66.480469 H 9.289062 Z m 0,0"
         clip-rule="nonzero"
         id="path23811" />
    </clipPath>
    <clipPath
       id="0d31f917a1">
      <path
         d="M 38.273438,8.519531 C 22.265625,8.519531 9.289062,21.496094 9.289062,37.5 c 0,16.003906 12.976563,28.980469 28.984376,28.980469 16.003906,0 28.980468,-12.976563 28.980468,-28.980469 0,-16.003906 -12.976562,-28.980469 -28.980468,-28.980469"
         clip-rule="nonzero"
         id="path23814" />
    </clipPath>
    <clipPath
       id="17f1adb2ce">
      <path
         d="M 23.78125,41 H 50 v 5 H 23.78125 Z m 0,0"
         clip-rule="nonzero"
         id="path23817" />
    </clipPath>
    <clipPath
       id="9e677ec2cc">
      <path
         d="m 31,49 h 11 v 3.0625 H 31 Z m 0,0"
         clip-rule="nonzero"
         id="path23820" />
    </clipPath>
    <clipPath
       id="154e8e6c87">
      <path
         d="M 35,25.0625 H 51 V 41 H 35 Z m 0,0"
         clip-rule="nonzero"
         id="path23823" />
    </clipPath>
    <clipPath
       id="51d4d22e56">
      <path
         d="M 47,37 H 58.28125 V 48 H 47 Z m 0,0"
         clip-rule="nonzero"
         id="path23826" />
    </clipPath>
    <clipPath
       id="05cd9db797">
      <path
         d="M 23.78125,29 H 50 V 42 H 23.78125 Z m 0,0"
         clip-rule="nonzero"
         id="path23829" />
    </clipPath>
    <clipPath
       id="cdc16ee2dd">
      <path
         d="M 45,32 H 55 V 50.679688 H 45 Z m 0,0"
         clip-rule="nonzero"
         id="path31726" />
    </clipPath>
    <clipPath
       id="625cb0a880">
      <path
         d="m 26,44 h 29.765625 v 6.679688 H 26 Z m 0,0"
         clip-rule="nonzero"
         id="path31729" />
    </clipPath>
    <clipPath
       id="f6edc412ad">
      <path
         d="M 26,35 H 42 V 50.679688 H 26 Z m 0,0"
         clip-rule="nonzero"
         id="path31732" />
    </clipPath>
    <clipPath
       id="b1ecb49e55">
      <path
         d="M 22.765625,50 H 26 v 0.679688 h -3.234375 z m 0,0"
         clip-rule="nonzero"
         id="path31735" />
    </clipPath>
    <clipPath
       id="907be094a8">
      <path
         d="M 22.765625,17.679688 H 37 V 25 H 22.765625 Z m 0,0"
         clip-rule="nonzero"
         id="path31738" />
    </clipPath>
  </defs>
  <g
     clip-path="url(#cdc16ee2dd)"
     id="g31745"
     transform="matrix(1.2708439,0,0,1.2708439,-4.0708557,1.86459)"
     style="stroke-width:0.786879">
    <path
       fill="#000000"
       d="m 47.378906,32.824219 c -0.371094,0 -1.351562,0.417969 -1.351562,1.355469 0,0.535156 0.328125,0.929687 0.617187,1.277343 0.238281,0.292969 0.464844,0.5625 0.464844,0.886719 v 11.359375 c 0,1.570313 1.058594,2.433594 2.976563,2.433594 2.007812,0 2.722656,-2.382813 2.917968,-3.246094 h -1.835937 c -0.117188,0 -0.21875,-0.07422 -0.257813,-0.183594 -0.570312,-1.714843 -1.636718,-10.984375 -1.636718,-12.527343 0,-1.199219 -1.011719,-1.355469 -1.894532,-1.355469 z m 2.707032,17.855469 c -2.203126,0 -3.515626,-1.113282 -3.515626,-2.976563 V 36.34375 c 0,-0.128906 -0.175781,-0.335938 -0.34375,-0.539062 -0.3125,-0.378907 -0.738281,-0.894532 -0.738281,-1.625 0,-1.261719 1.210938,-1.894532 1.890625,-1.894532 1.617188,0 2.4375,0.636719 2.4375,1.894532 0,1.574218 1.019532,10.1875 1.550782,12.171874 h 1.960937 c 0,0 0.0039,0 0.0078,0 h 0.78125 C 53.9375,44.390625 53.386719,40.023438 52.601562,39.238281 l -0.542968,-0.542969 c -0.105469,-0.105468 -0.105469,-0.273437 0,-0.378906 0.105468,-0.105468 0.273437,-0.105468 0.378906,0 l 0.542969,0.539063 c 1.121093,1.121093 1.644531,7.066406 1.699219,7.742187 0.01172,0.07422 -0.01563,0.148438 -0.06641,0.207032 -0.05078,0.05469 -0.125,0.08594 -0.199219,0.08594 h -0.855468 c -0.171875,0.863281 -0.945313,3.789063 -3.472656,3.789063"
       fill-opacity="1"
       fill-rule="nonzero"
       id="path31743"
       style="stroke-width:0.619178" />
  </g>
  <g
     clip-path="url(#625cb0a880)"
     id="g31749"
     transform="matrix(1.2708439,0,0,1.2708439,-4.0708557,1.86459)"
     style="stroke-width:0.786879">
    <path
       fill="#000000"
       d="M 55.496094,50.679688 H 28.988281 c -1.789062,0 -2.976562,-1.792969 -2.976562,-2.976563 0,-1.148437 1.082031,-2.785156 1.125,-2.855469 0.08594,-0.125 0.253906,-0.15625 0.378906,-0.07422 0.121094,0.08203 0.15625,0.25 0.07031,0.375 -0.0078,0.01562 -1.035157,1.566406 -1.035157,2.554687 0,0.980469 1.023438,2.433594 2.4375,2.433594 h 26.507813 c 0.148437,0 0.269531,0.121093 0.269531,0.269531 0,0.152344 -0.121094,0.273438 -0.269531,0.273438"
       fill-opacity="1"
       fill-rule="nonzero"
       id="path31747"
       style="stroke-width:0.619178" />
  </g>
  <g
     clip-path="url(#f6edc412ad)"
     id="g31753"
     transform="matrix(1.2708439,0,0,1.2708439,-4.0708557,1.86459)"
     style="stroke-width:0.786879">
    <path
       fill="#000000"
       d="m 39.804688,50.679688 c -0.148438,0 -0.269532,-0.121094 -0.269532,-0.273438 0,-0.148438 0.121094,-0.269531 0.269532,-0.269531 0.9375,0 1.355468,-0.414063 1.355468,-1.351563 0,-0.929687 -0.984375,-1.351562 -1.894531,-1.351562 h -8.113281 c -0.05078,0 -0.09766,-0.01563 -0.140625,-0.03906 -0.02734,-0.01563 -2.71875,-1.632812 -4.851563,-2.695312 -0.06641,-0.03516 -0.113281,-0.09375 -0.136718,-0.164063 -0.02344,-0.07031 -0.01172,-0.148437 0.02734,-0.214844 0.152344,-0.265624 3.835938,-6.558593 5.492188,-7.660156 0.01172,-0.01172 0.03125,-0.02344 0.05078,-0.02734 0.109375,-0.04687 2.769531,-1.101562 4.425781,-1.101562 0.148438,0 0.269531,0.121094 0.269531,0.269531 0,0.148438 -0.121093,0.269531 -0.269531,0.269531 -1.46875,0 -3.917969,0.941407 -4.199219,1.054688 -1.390624,0.957031 -4.453124,6.035156 -5.15625,7.21875 1.910157,0.976562 4.15625,2.304688 4.5625,2.546875 h 8.039063 c 1.171875,0 2.433594,0.59375 2.433594,1.894531 0,1.238282 -0.65625,1.894532 -1.894531,1.894532"
       fill-opacity="1"
       fill-rule="nonzero"
       id="path31751"
       style="stroke-width:0.619178" />
  </g>
  <path
     fill="#000000"
     d="m 35.518911,62.145284 c -0.05956,0 -0.119142,-0.01489 -0.173749,-0.04964 -0.163819,-0.08935 -0.218426,-0.302818 -0.124111,-0.466638 l 2.745222,-4.810342 c 0.07943,-0.139 0.243247,-0.203535 0.387209,-0.163821 0.153892,0.03971 0.258142,0.178713 0.258142,0.332604 v 2.060158 c 0,0.193605 -0.153892,0.347495 -0.342534,0.347495 -0.193605,0 -0.347495,-0.15389 -0.347495,-0.347495 v -0.764493 l -2.104835,3.688426 c -0.06453,0.109217 -0.183677,0.173749 -0.297854,0.173749"
     fill-opacity="1"
     fill-rule="nonzero"
     id="path31755"
     style="stroke-width:1" />
  <g
     clip-path="url(#907be094a8)"
     id="g31763"
     transform="matrix(1.2708439,0,0,1.2708439,-0.35110574,2.2897043)"
     style="stroke-width:0.786879">
    <path
       fill="#000000"
       d="m 24.117188,18.21875 c -0.449219,0 -0.8125,0.363281 -0.8125,0.8125 v 4.328125 c 0,0.445313 0.363281,0.808594 0.8125,0.808594 h 9.738281 c 0.449219,0 0.8125,-0.363281 0.8125,-0.808594 v -0.542969 c 0,-0.148437 0.121093,-0.269531 0.269531,-0.269531 h 1.351562 V 19.84375 H 34.9375 c -0.148438,0 -0.269531,-0.121094 -0.269531,-0.273438 V 19.03125 c 0,-0.449219 -0.363281,-0.8125 -0.8125,-0.8125 z m 9.738281,6.492188 h -9.738281 c -0.746094,0 -1.351563,-0.605469 -1.351563,-1.351563 V 19.03125 c 0,-0.746094 0.605469,-1.351562 1.351563,-1.351562 h 9.738281 c 0.746093,0 1.351562,0.605468 1.351562,1.351562 v 0.269531 h 1.351563 c 0.152344,0 0.273437,0.121094 0.273437,0.269531 v 3.246094 c 0,0.152344 -0.121093,0.273438 -0.273437,0.273438 h -1.351563 v 0.269531 c 0,0.746094 -0.605469,1.351563 -1.351562,1.351563"
       fill-opacity="1"
       fill-rule="nonzero"
       id="path31761"
       style="stroke-width:0.619178" />
  </g>
  <path
     fill="#000000"
     d="m 31.673169,30.943264 c -0.188642,0 -0.342532,-0.153892 -0.342532,-0.342532 v -2.750186 c 0,-0.193604 0.15389,-0.342532 0.342532,-0.342532 0.193604,0 0.342532,0.148928 0.342532,0.342532 v 2.750186 c 0,0.18864 -0.148928,0.342532 -0.342532,0.342532"
     fill-opacity="1"
     fill-rule="nonzero"
     id="path31765"
     style="stroke-width:1" />
  <path
     fill="#000000"
     d="m 45.417593,40.044514 c -0.193606,-0.005 -0.342532,-0.158855 -0.342532,-0.347497 0.02979,-2.794864 1.26588,-4.194777 2.303404,-4.879841 1.519056,-1.00774 3.668569,-1.13681 5.609585,-0.337569 0.431888,0.178714 0.848883,0.481532 1.280772,0.80917 1.017668,0.754564 2.298441,1.712662 4.606809,1.65309 0.183677,0.01489 0.347497,0.148928 0.347497,0.337569 0.005,0.18864 -0.143964,0.347496 -0.332604,0.35246 -2.551617,0.04468 -3.991244,-1.017668 -5.033734,-1.792088 -0.412031,-0.312747 -0.77442,-0.580815 -1.131845,-0.724779 -1.727553,-0.71485 -3.633819,-0.6106 -4.969198,0.273033 -1.285737,0.853848 -1.975766,2.343119 -1.995621,4.31392 0,0.188641 -0.153892,0.342532 -0.342533,0.342532"
     fill-opacity="1"
     fill-rule="nonzero"
     id="path31767"
     style="stroke-width:1" />
  <path
     fill="#000000"
     d="m 56.755903,43.60387 c -0.0844,0 -0.168783,-0.03475 -0.238283,-0.09432 -0.138999,-0.12907 -0.143963,-0.347496 -0.01489,-0.486495 0.873706,-0.93824 0.968026,-1.578627 1.107025,-2.541687 l 0.05461,-0.367354 c 0.01489,-0.07943 0.04964,-0.148927 0.109216,-0.203534 0.01489,-0.0099 1.30063,-1.191416 0.789314,-2.501974 -0.03971,-0.104247 -0.02482,-0.228355 0.03971,-0.317711 0.153891,-0.233319 0.560958,-0.143962 0.62053,0.114173 0.551025,1.514097 -0.555998,2.784941 -0.893567,3.127473 l -0.03971,0.248212 c -0.143963,0.97299 -0.263104,1.816909 -1.285736,2.914005 -0.0695,0.0695 -0.158855,0.109216 -0.248212,0.109216"
     fill-opacity="1"
     fill-rule="nonzero"
     id="path31769"
     style="stroke-width:1" />
  <path
     fill="#000000"
     d="m 55.296419,43.812367 c -0.148928,0 -0.282961,-0.09432 -0.32764,-0.238283 -0.109217,-0.337567 -0.04964,-0.853847 0.02482,-1.454521 0.09929,-0.873705 0.238284,-2.070085 -0.302818,-2.288511 l -5.361373,-2.209084 c -0.546064,-0.228355 -1.300628,0.719814 -1.851658,1.414806 -0.575851,0.724778 -1.032561,1.30063 -1.553805,1.087168 -0.173748,-0.0695 -0.25814,-0.273033 -0.183678,-0.446782 0.06453,-0.163819 0.238284,-0.243247 0.402104,-0.203533 0.168784,-0.0695 0.546065,-0.546066 0.794278,-0.863777 0.724777,-0.913419 1.633232,-2.050229 2.655864,-1.623304 l 5.361373,2.20412 c 1.022633,0.42196 0.853849,1.856623 0.719815,3.008325 -0.05461,0.45671 -0.114173,0.97299 -0.04964,1.171559 0.05461,0.178713 -0.04468,0.372318 -0.228354,0.426925 -0.02979,0.0099 -0.06453,0.01489 -0.09929,0.01489"
     fill-opacity="1"
     fill-rule="nonzero"
     id="path31771"
     style="stroke-width:1" />
  <path
     fill="#000000"
     d="m 49.29466,50.464442 c -0.670172,0 -1.350271,-0.134035 -2.010516,-0.407068 -2.343118,-0.963062 -3.608998,-3.36575 -3.251573,-6.145721 -1.062346,-1.340344 -0.48153,-2.75515 -0.193604,-3.445179 0.302818,-0.719814 0.843919,-1.102061 1.573662,-1.111989 0.407066,-0.0099 0.73967,0.119142 0.77442,0.134035 0.178713,0.07446 0.25814,0.273032 0.18864,0.451746 -0.07446,0.173747 -0.273032,0.258138 -0.451744,0.183676 0,0 -0.233319,-0.09929 -0.501389,-0.0844 -0.44678,0.005 -0.759527,0.228356 -0.948167,0.685065 -0.36239,0.873705 -0.670172,1.886409 0.173748,2.854435 0.0695,0.07943 0.09928,0.178712 0.0844,0.282961 -0.377282,2.521831 0.729741,4.70113 2.814721,5.559942 2.089942,0.863776 4.428095,0.09432 5.952116,-1.955909 0.05956,-0.07943 0.153891,-0.129069 0.253176,-0.134033 0.407066,-0.02979 0.769456,-0.153892 1.082202,-0.362389 0.158856,-0.109216 0.372318,-0.0695 0.476567,0.08935 0.109216,0.153892 0.0695,0.372318 -0.08935,0.476567 -0.372318,0.253176 -0.794278,0.407066 -1.260916,0.461673 -1.241058,1.598484 -2.933862,2.46226 -4.666379,2.467225"
     fill-opacity="1"
     fill-rule="nonzero"
     id="path31773"
     style="stroke-width:1" />
  <path
     fill="#dde0f9"
     d="m 47.624376,95.249975 c -0.943205,0 -1.896338,-0.0298 -2.834577,-0.0844 l -0.64535,-0.0397 -3.24661,-7.42153 C 38.346223,87.277427 35.83432,86.602291 33.40681,85.6988 l -6.518039,4.805375 -0.580816,-0.29289 c -1.682874,-0.83895 -3.335965,-1.797049 -4.909627,-2.834574 l -0.541101,-0.357425 0.903491,-8.047022 c -1.995623,-1.648127 -3.837354,-3.489857 -5.485479,-5.48548 L 8.228216,74.390275 7.870791,73.849174 C 6.833266,72.275511 5.875169,70.622421 5.036213,68.939546 L 4.743323,68.358731 9.5487007,61.840692 C 8.645211,59.41318 7.970075,56.901279 7.543152,54.349663 l -7.42153,-3.24661 -0.03971,-0.645349 c -0.109216,-1.881445 -0.109216,-3.787711 0,-5.669156 l 0.03971,-0.64535 7.42153,-3.24661 C 7.970075,38.349936 8.645211,35.83307 9.5487007,33.410523 L 4.743323,26.887519 5.036213,26.306704 c 0.84392,-1.682875 1.797053,-3.335965 2.834578,-4.909627 l 0.357425,-0.541101 8.047023,0.90349 c 1.648125,-1.995622 3.489856,-3.837353 5.485479,-5.480514 l -0.903491,-8.0519872 0.541101,-0.357425 c 1.578627,-1.037526 3.226753,-1.990659 4.909627,-2.834578 l 0.580816,-0.287925 6.518039,4.805378 c 2.42751,-0.903491 4.939413,-1.578627 7.491029,-2.010515 l 3.24661,-7.42153005 0.64535,-0.03474 c 1.876481,-0.114173 3.78771,-0.114173 5.669155,0 l 0.64535,0.03474 3.24661,7.42153005 c 2.551615,0.431888 5.063519,1.107024 7.486065,2.010515 l 6.523003,-4.805378 0.580816,0.287925 c 1.682874,0.843919 3.331,1.797052 4.909626,2.834578 l 0.5411,0.357425 -0.90349,8.0519872 c 1.99562,1.643161 3.83735,3.484892 5.48548,5.480514 l 8.04702,-0.90349 0.35743,0.541101 c 1.03752,1.578627 1.99066,3.226752 2.83458,4.909627 l 0.29289,0.580815 -4.81035,6.523004 c 0.90846,2.422547 1.57863,4.93445 2.01052,7.486065 l 7.42153,3.24661 0.0397,0.64535 c 0.10917,1.881445 0.10917,3.787711 0,5.669156 l -0.0397,0.645349 -7.42153,3.24661 c -0.43189,2.551616 -1.10206,5.068483 -2.01052,7.491029 l 4.81035,6.518039 -0.29289,0.580815 c -0.84392,1.682875 -1.79706,3.335965 -2.83458,4.909628 l -0.35743,0.541101 -8.04702,-0.903491 c -1.64813,1.995623 -3.48986,3.837353 -5.48548,5.48548 l 0.90349,8.047022 -0.5411,0.357425 c -1.573661,1.042489 -3.226752,1.995624 -4.909626,2.834574 l -0.580816,0.29289 -6.523003,-4.805375 c -2.422546,0.903491 -4.93445,1.578627 -7.486065,2.00555 l -3.24661,7.421535 -0.64535,0.0397 c -0.938239,0.0546 -1.896338,0.0844 -2.834578,0.0844 z m -2.065121,-2.16441 c 1.375093,0.0596 2.75515,0.0596 4.130243,0 l 3.187037,-7.292455 0.575853,-0.08935 c 2.789899,-0.426923 5.53512,-1.16163 8.166164,-2.189227 l 0.541102,-0.208497 6.408826,4.720987 c 1.216237,-0.630458 2.417581,-1.325451 3.574248,-2.065121 l -0.888598,-7.908026 0.45671,-0.362389 c 2.199154,-1.767267 4.214634,-3.777781 5.976934,-5.981901 l 0.36736,-0.451746 7.90802,0.883634 c 0.73967,-1.156667 1.4297,-2.353047 2.06512,-3.574248 l -4.72595,-6.408827 0.21346,-0.541101 c 1.02264,-2.631044 1.76231,-5.376265 2.18923,-8.166166 l 0.0893,-0.575851 7.29247,-3.187037 c 0.0596,-1.375093 0.0596,-2.75515 0,-4.125279 l -7.29247,-3.192003 -0.0893,-0.575851 c -0.42692,-2.789903 -1.16659,-5.535125 -2.18923,-8.166168 l -0.21346,-0.541102 4.72595,-6.408826 c -0.63542,-1.216237 -1.32545,-2.412618 -2.06512,-3.574248 l -7.90802,0.888598 -0.36736,-0.45671 c -1.7623,-2.20412 -3.77778,-4.214634 -5.976934,-5.976937 l -0.45671,-0.36239 0.888598,-7.9129892 C 70.981097,8.5446688 69.784717,7.8546398 68.56848,7.2241818 L 62.159654,11.945169 61.618552,11.731706 C 58.987508,10.709075 56.242287,9.9694028 53.452388,9.5424788 l -0.575853,-0.0844 -3.187037,-7.297425 c -1.375093,-0.05956 -2.75515,-0.05956 -4.130243,0 l -3.187037,7.297425 -0.575853,0.0844 c -2.789899,0.426924 -5.53512,1.1665962 -8.166164,2.1892272 l -0.541102,0.213463 -6.408826,-4.7259512 c -1.216237,0.635422 -2.417581,1.325451 -3.574248,2.065121 l 0.888598,7.9080252 -0.45671,0.367354 c -2.20412,1.762303 -4.214634,3.772817 -5.976938,5.976937 l -0.367352,0.45671 -7.9080263,-0.888598 C 8.545927,24.261433 7.850934,25.462778 7.220476,26.679015 l 4.720987,6.408826 -0.208499,0.541102 c -1.027595,2.631043 -1.7623023,5.381229 -2.1892273,8.166164 l -0.08935,0.575851 -7.2924597,3.187039 c -0.05956,1.375093 -0.05956,2.75515 0,4.130243 l 7.2924597,3.187037 0.08935,0.575852 c 0.426925,2.7899 1.1616323,5.535121 2.1892273,8.166165 l 0.208499,0.541102 -4.720987,6.408826 c 0.630458,1.216237 1.325451,2.417581 2.0651207,3.574249 l 7.9080263,-0.883635 0.367352,0.451746 c 1.762304,2.20412 3.772818,4.214634 5.976938,5.976938 l 0.45671,0.367352 -0.888598,7.908026 c 1.156667,0.739671 2.358011,1.434663 3.574248,2.065121 l 6.408826,-4.720987 0.541102,0.208498 c 2.631044,1.027596 5.376265,1.762303 8.166164,2.189227 l 0.575853,0.08935 z m 2.065121,-11.169521 c -18.908766,0 -34.292928,-15.384161 -34.292928,-34.292928 0,-18.908769 15.384162,-34.292929 34.292928,-34.292929 18.908767,0 34.292928,15.38416 34.292928,34.292929 0,18.908767 -15.384161,34.292928 -34.292928,34.292928 z m 0,-66.46613 c -17.742172,0 -32.178164,14.431029 -32.178164,32.173202 0,17.742171 14.435992,32.178164 32.178164,32.178164 17.742173,0 32.173198,-14.435993 32.173198,-32.178164 0,-17.742173 -14.431025,-32.173202 -32.173198,-32.173202 z m 0,0"
     fill-opacity="1"
     fill-rule="nonzero"
     id="path31775"
     style="stroke-width:1;fill:#e8ebfa;fill-opacity:1" />
  <path
     style="fill:#ffffff;stroke-width:1.333;stroke-linecap:round;stroke-linejoin:round"
     d="m 60.524076,123.46335 c -0.442212,-1.0302 -3.660377,-8.37649 -3.850069,-8.78877 -0.102081,-0.22186 -0.293191,-0.38969 -0.443758,-0.38969 -0.59184,0 -4.770997,-0.89556 -6.627289,-1.42018 -1.091785,-0.30855 -2.77582,-0.85222 -3.7423,-1.20815 l -1.757237,-0.64713 -3.523813,2.59549 c -1.938098,1.42752 -3.85508,2.83691 -4.259962,3.13197 l -0.736146,0.53649 -0.731753,-0.37081 c -0.597938,-0.303 -3.764736,-2.13113 -3.937514,-2.27305 -0.02654,-0.0218 0.216541,-2.37608 0.54018,-5.23172 0.32364,-2.85564 0.568539,-5.24344 0.544223,-5.30622 -0.02432,-0.0628 -0.681885,-0.6426 -1.461261,-1.2885 -1.745898,-1.4469 -5.349026,-5.072521 -6.589272,-6.630407 -0.716081,-0.899475 -1.001038,-1.157273 -1.280329,-1.158303 -0.197588,-7.08e-4 -2.587297,0.252001 -5.310464,0.56162 -3.829054,0.435358 -4.976045,0.523678 -5.060772,0.389688 -0.680964,-1.076892 -2.5093842,-4.32563 -2.5135159,-4.466014 -0.00297,-0.100826 1.3896469,-2.075704 3.0946969,-4.388619 l 3.100093,-4.2053 -0.497991,-1.350424 c -1.140069,-3.09157 -1.96278,-6.123889 -2.518189,-9.281448 -0.177788,-1.010745 -0.377075,-1.857299 -0.442859,-1.88123 -0.06578,-0.02393 -2.223924,-0.962293 -4.7958653,-2.085247 L 3.0466525,66.26566 2.952788,65.583221 C 2.8274263,64.671782 2.8128803,62.665498 2.9239307,61.603025 l 0.089835,-0.859499 4.8026928,-2.09179 c 3.8493135,-1.676551 4.8142225,-2.150009 4.8607695,-2.385072 0.03194,-0.161305 0.281395,-1.44109 0.554341,-2.843967 0.523876,-2.692599 1.12433,-4.835364 2.137193,-7.62672 l 0.615083,-1.695112 -2.951283,-4.004218 c -1.623205,-2.20232 -3.03146,-4.132602 -3.1294559,-4.289519 -0.1533169,-0.2455 -0.1115793,-0.410584 0.2991789,-1.183347 0.490353,-0.922508 1.919879,-3.330157 2.137392,-3.599861 0.08524,-0.105697 1.560829,0.009 4.908648,0.381403 2.632722,0.292891 4.987231,0.563033 5.232246,0.600315 0.419698,0.06386 0.517863,-0.01972 1.696131,-1.444188 1.564842,-1.891816 4.66031,-4.984047 6.470938,-6.464172 0.7577,-0.619393 1.377637,-1.209338 1.377637,-1.31099 0,-0.101652 -0.256643,-2.430248 -0.570318,-5.174657 -0.313675,-2.74441 -0.542536,-5.062231 -0.508582,-5.150715 0.05606,-0.146089 3.046483,-1.962818 4.16154,-2.5281993 l 0.461101,-0.2337984 4.248943,3.1316007 4.248942,3.1316 2.304342,-0.798735 c 2.815108,-0.975778 5.329299,-1.643815 8.043385,-2.137181 1.130095,-0.205429 2.082768,-0.400146 2.117049,-0.432706 0.03428,-0.03256 1.001295,-2.209861 2.148919,-4.8384478 l 2.086587,-4.7792491 h 2.729873 2.729874 l 2.112827,4.8347106 2.112828,4.8347103 1.510667,0.247365 c 2.831829,0.463697 6.521846,1.450124 9.351782,2.499948 0.825222,0.306133 1.566644,0.530425 1.647606,0.498428 0.08096,-0.032 2.017595,-1.434967 4.303629,-3.11771 l 4.156426,-3.059532 0.71239,0.360994 c 1.367088,0.692757 3.816344,2.204663 3.892343,2.402714 0.04212,0.109777 -0.18618,2.507855 -0.507344,5.329062 -0.321165,2.821208 -0.534751,5.170769 -0.474636,5.221246 0.06012,0.05048 0.715088,0.592705 1.455495,1.204951 1.751834,1.448598 5.173305,4.891229 6.504585,6.544811 0.91493,1.136432 1.09599,1.294994 1.41705,1.240966 0.20245,-0.03407 2.40864,-0.285311 4.90265,-0.558317 2.494,-0.273004 4.69866,-0.524702 4.89925,-0.559327 0.33669,-0.05812 0.45241,0.08604 1.50669,1.876948 0.62809,1.066944 1.23892,2.131982 1.3574,2.36675 l 0.21541,0.42685 -3.10435,4.178555 c -2.4667,3.32025 -3.09306,4.251322 -3.04936,4.532816 0.0302,0.194844 0.35415,1.183235 0.71979,2.196424 0.81531,2.259271 1.6802,5.536738 2.13914,8.106207 0.18953,1.061092 0.36097,1.943097 0.38099,1.960008 0.02,0.01691 2.16892,0.963347 4.77531,2.10319 2.6064,1.139842 4.78945,2.152034 4.85122,2.249313 0.19666,0.309708 0.14148,5.153581 -0.0605,5.309014 -0.0974,0.07498 -2.28144,1.051036 -4.85338,2.169015 -2.57195,1.117982 -4.69299,2.042995 -4.71344,2.055585 -0.0204,0.01258 -0.19298,0.911104 -0.3834,1.996697 -0.46169,2.632101 -1.17564,5.347504 -2.06333,7.847558 -0.40125,1.130095 -0.75725,2.214136 -0.79109,2.408981 -0.0496,0.285396 0.54129,1.166882 3.03958,4.534552 l 3.10112,4.180291 -0.27867,0.566819 c -0.15327,0.31175 -0.76032,1.378991 -1.34899,2.371644 l -1.07031,1.804827 -0.50898,-0.07395 c -1.15872,-0.168358 -9.42404,-1.055281 -9.76986,-1.048369 -0.29412,0.0059 -0.5585,0.239704 -1.22527,1.083693 -1.66171,2.103345 -5.492283,5.877372 -7.759535,7.644982 l -0.390884,0.30475 0.568015,5.03065 c 0.312408,2.76686 0.568015,5.15213 0.568015,5.30061 0,0.24971 -1.086149,0.94754 -4.052605,2.6037 l -0.580839,0.32428 -4.268978,-3.15158 -4.268979,-3.15158 -1.550992,0.57072 c -3.067752,1.12884 -6.974593,2.16209 -9.737194,2.57522 l -1.149154,0.17184 -2.111975,4.83192 -2.111975,4.83192 -2.729616,0.0385 -2.729616,0.0385 z m 7.706768,-14.42966 c 18.979825,-2.04122 34.690196,-15.5222 39.542656,-33.931331 1.81196,-6.87417 1.95531,-14.613204 0.39999,-21.594516 C 103.94631,34.533422 87.992426,20.22531 68.585106,18.003317 c -2.212701,-0.253337 -7.303823,-0.292969 -9.514631,-0.07407 -9.894374,0.979691 -19.278218,5.184702 -26.478379,11.86527 -6.035593,5.60004 -10.221424,12.111502 -12.671447,19.711653 -6.506092,20.182373 1.771021,42.182462 20.023735,53.22194 6.082732,3.67891 13.179478,5.91525 20.465583,6.44915 1.915262,0.14034 5.853193,0.068 7.820877,-0.14357 z"
     id="path3186"
     transform="scale(0.74999997)"
     sodipodi:insensitive="true" />
</svg>
