<?xml version="1.0" encoding="UTF-8" standalone="no"?>
<svg
   width="126.99997"
   zoomAndPan="magnify"
   viewBox="0 0 95.249983 95.249996"
   height="127"
   preserveAspectRatio="xMidYMid"
   version="1.0"
   id="svg45645"
   sodipodi:docname="what_section_gear_lg_consult.svg"
   inkscape:version="1.2.1 (9c6d41e410, 2022-07-14)"
   xmlns:inkscape="http://www.inkscape.org/namespaces/inkscape"
   xmlns:sodipodi="http://sodipodi.sourceforge.net/DTD/sodipodi-0.dtd"
   xmlns="http://www.w3.org/2000/svg"
   xmlns:svg="http://www.w3.org/2000/svg">
  <sodipodi:namedview
     id="namedview45647"
     pagecolor="#ffffff"
     bordercolor="#111111"
     borderopacity="1"
     inkscape:showpageshadow="0"
     inkscape:pageopacity="0"
     inkscape:pagecheckerboard="1"
     inkscape:deskcolor="#d1d1d1"
     showgrid="false"
     inkscape:zoom="4.99"
     inkscape:cx="-37.374749"
     inkscape:cy="67.034068"
     inkscape:window-width="2560"
     inkscape:window-height="1361"
     inkscape:window-x="-9"
     inkscape:window-y="-9"
     inkscape:window-maximized="1"
     inkscape:current-layer="svg45645" />
  <defs
     id="defs45591">
    <clipPath
       id="0d3d30dcb1">
      <path
         d="M 0,0 H 74.25 V 75 H 0 Z m 0,0"
         clip-rule="nonzero"
         id="path45576" />
    </clipPath>
    <clipPath
       id="9ddfed11d9">
      <path
         d="M 40,20.945312 H 53.945312 V 40 H 40 Z m 0,0"
         clip-rule="nonzero"
         id="path45579" />
    </clipPath>
    <clipPath
       id="856246fff3">
      <path
         d="M 36,40 H 53.945312 V 53.945312 H 36 Z m 0,0"
         clip-rule="nonzero"
         id="path45582" />
    </clipPath>
    <clipPath
       id="86437c3da5">
      <path
         d="M 20.945312,22 H 38 V 39 H 20.945312 Z m 0,0"
         clip-rule="nonzero"
         id="path45585" />
    </clipPath>
    <clipPath
       id="ec829baadb">
      <path
         d="M 20.945312,40 H 36 V 53.945312 H 20.945312 Z m 0,0"
         clip-rule="nonzero"
         id="path45588" />
    </clipPath>
    <clipPath
       id="02e5070d0a">
      <path
         d="m 38.394531,40.144531 h 10 v 11 h -10 z m 0,0"
         clip-rule="nonzero"
         id="path48756" />
    </clipPath>
    <clipPath
       id="81867fef19">
      <path
         d="m 47.148438,38.210938 h 6 v 12.933593 h -6 z m 0,0"
         clip-rule="nonzero"
         id="path48759" />
    </clipPath>
    <clipPath
       id="64f756d22e">
      <path
         d="m 25.402344,24.148438 h 19.65625 v 26.996093 h -19.65625 z m 0,0"
         clip-rule="nonzero"
         id="path48762" />
    </clipPath>
    <clipPath
       id="8fec1e24cc">
      <path
         d="M 23.054688,23.992188 H 40 V 37 H 23.054688 Z m 0,0"
         clip-rule="nonzero"
         id="path52371" />
    </clipPath>
    <clipPath
       id="4b0ab0715f">
      <path
         d="M 26,27 H 52.304688 V 50.992188 H 26 Z m 0,0"
         clip-rule="nonzero"
         id="path52374" />
    </clipPath>
  </defs>
  <path
     fill="#dde0f9"
     d="m 50.459608,0.0819135 c -1.88644,-0.109218 -3.78279,-0.109218 -5.66924,0 l -3.28637,7.52588 c -2.93886,0.451752 -5.81815,1.221217 -8.58326,2.2984704 l -6.61246,-4.8699784 c -1.69282,0.843931 -3.33104,1.792113 -4.90969,2.834616 l 0.91343,8.1613105 c -2.31833,1.856648 -4.42319,3.961512 -6.27984,6.27984 L 7.8708675,21.398621 c -1.0425,1.578648 -1.99069,3.216867 -2.83462,4.909693 l 4.87495,6.61245 c -1.08221,2.765115 -1.85168,5.64441 -2.30343,8.578312 l -7.52589,3.29133 c -0.10917,1.886435 -0.10917,3.782798 0,5.669232 l 7.52589,3.286367 c 0.45175,2.938866 1.22122,5.81816 2.30343,8.583276 l -4.87495,6.612449 c 0.84393,1.687864 1.79212,3.331044 2.83462,4.909694 l 8.1613105,-0.91343 c 1.85665,2.31833 3.96151,4.42319 6.27984,6.27984 l -0.91343,8.16131 c 1.57865,1.0425 3.22184,1.98572 4.90969,2.83462 l 6.61246,-4.87495 c 2.76511,1.08222 5.6444,1.85168 8.58326,2.30344 l 3.28637,7.52587 c 1.88645,0.10917 3.7828,0.10917 5.66924,0 l 3.28637,-7.52587 c 2.93887,-0.45176 5.81815,-1.22122 8.58327,-2.30344 l 6.61245,4.87495 c 1.69283,-0.84394 3.33104,-1.79212 4.90969,-2.83462 l -0.91343,-8.16131 c 2.31833,-1.85665 4.4232,-3.96151 6.27984,-6.27984 l 8.16131,0.91343 c 1.0425,-1.57865 1.99069,-3.22183 2.83462,-4.909694 l -4.87495,-6.612449 c 1.08222,-2.765116 1.85169,-5.64441 2.30344,-8.583276 l 7.52589,-3.286367 c 0.10916,-1.886434 0.10916,-3.782797 0,-5.669232 l -7.52589,-3.286366 c -0.45175,-2.938866 -1.22122,-5.818161 -2.30344,-8.583276 l 4.87495,-6.61245 c -0.84393,-1.687861 -1.79212,-3.331045 -2.83462,-4.909693 l -8.16131,0.918397 c -1.85664,-2.323294 -3.96151,-4.428158 -6.27984,-6.284806 l 0.91343,-8.1613105 c -1.57865,-1.042503 -3.22183,-1.985721 -4.90969,-2.834616 l -6.61245,4.8749444 c -2.76512,-1.0822194 -5.6444,-1.8516844 -8.58327,-2.3034364 z"
     fill-opacity="1"
     fill-rule="evenodd"
     id="path52379"
     style="stroke-width:1;fill:#e8ebfa;fill-opacity:1"
     sodipodi:nodetypes="ccccccccccccccccccccccccccccccccccccccccccccccccc" />
  <g
     clip-path="url(#8fec1e24cc)"
     id="g52383"
     transform="matrix(1.270861,0,0,1.270861,-0.0322925,-0.0322655)"
     style="stroke-width:0.786868">
    <path
       fill="#100f0d"
       d="m 23.726562,30.097656 c 0,-3.011718 3.058594,-5.460937 6.824219,-5.460937 3.761719,0 6.824219,2.449219 6.824219,5.460937 0,0.40625 -0.05859,0.808594 -0.167969,1.199219 -0.02734,0.09766 -0.0078,0.199219 0.05078,0.277344 l 1.226563,1.636719 -2.214844,0.02734 c -0.08984,0.0039 -0.175781,0.03906 -0.234375,0.105469 -1.285156,1.386719 -3.335937,2.214844 -5.484375,2.214844 -3.765625,0 -6.824219,-2.449219 -6.824219,-5.460938 z m 12.691407,3.78125 2.710937,-0.03906 c 0.121094,0 0.230469,-0.07031 0.285156,-0.175782 0.05469,-0.109374 0.04297,-0.238281 -0.03125,-0.335937 L 37.875,31.316406 c 0.09766,-0.398437 0.148438,-0.808594 0.148438,-1.21875 0,-3.367187 -3.351563,-6.101562 -7.472657,-6.101562 -4.121093,0 -7.472656,2.734375 -7.472656,6.101562 0,3.363282 3.351563,6.101563 7.472656,6.101563 2.308594,0 4.441407,-0.84375 5.867188,-2.320313"
       fill-opacity="1"
       fill-rule="nonzero"
       id="path52381"
       style="stroke-width:0.619161" />
  </g>
  <path
     fill="#100f0d"
     d="m 35.045448,37.547491 c -0.99782,0 -0.99782,1.529006 0,1.529006 0.99783,0 0.99783,-1.529006 0,-1.529006"
     fill-opacity="1"
     fill-rule="nonzero"
     id="path52385"
     style="stroke-width:1" />
  <path
     fill="#100f0d"
     d="m 39.111208,37.547491 c -0.99782,0 -0.99782,1.529006 0,1.529006 0.99286,0 0.99783,-1.529006 0,-1.529006"
     fill-opacity="1"
     fill-rule="nonzero"
     id="path52387"
     style="stroke-width:1" />
  <path
     fill="#100f0d"
     d="m 43.176978,39.076497 c 0.99286,0 0.99286,-1.529006 0,-1.529006 -0.99783,0 -0.99783,1.529006 0,1.529006"
     fill-opacity="1"
     fill-rule="nonzero"
     id="path52389"
     style="stroke-width:1" />
  <g
     clip-path="url(#4b0ab0715f)"
     id="g52393"
     transform="matrix(1.270861,0,0,1.270861,-0.0322925,-0.0322655)"
     style="stroke-width:0.786868">
    <path
       fill="#100f0d"
       d="m 41.761719,32.703125 c 0,-2.265625 1.867187,-4.113281 4.164062,-4.113281 2.296875,0 4.164063,1.847656 4.164063,4.113281 0,2.265625 -1.867188,4.109375 -4.164063,4.109375 -2.296875,0 -4.164062,-1.84375 -4.164062,-4.109375 z M 31.867188,42.1875 c 0,-0.785156 0.648437,-1.421875 1.441406,-1.421875 0.796875,0 1.445312,0.636719 1.445312,1.421875 0,0.785156 -0.648437,1.425781 -1.445312,1.425781 -0.792969,0 -1.441406,-0.640625 -1.441406,-1.425781 z m 3.894531,4.886719 v -1.0625 c 0,-0.914063 -0.519531,-1.707031 -1.28125,-2.113281 0.554687,-0.371094 0.921875,-1 0.921875,-1.710938 0,-1.136719 -0.9375,-2.0625 -2.09375,-2.0625 -1.152344,0 -2.089844,0.925781 -2.089844,2.0625 0,0.710938 0.363281,1.339844 0.921875,1.710938 -0.761719,0.40625 -1.28125,1.199218 -1.28125,2.113281 v 1.546875 c 0,0.175781 0.144531,0.320312 0.324219,0.320312 0.179687,0 0.324218,-0.144531 0.324218,-0.320312 v -1.546875 c 0,-0.96875 0.800782,-1.757813 1.78125,-1.757813 h 0.04297 c 0.980469,0 1.78125,0.789063 1.78125,1.757813 v 1.46875 c -0.394531,0.371093 -0.644531,0.890625 -0.644531,1.46875 v 0.03125 c 0,0.53125 0.210938,1.015625 0.550781,1.375 h -7.992187 v -9.53125 c 0,-0.765625 0.632812,-1.390625 1.410156,-1.390625 h 9.746094 c 0.777344,0 1.410156,0.625 1.410156,1.390625 v 6.109375 H 36.51172 c -0.265625,0 -0.519531,0.05078 -0.750001,0.140625 z M 48.046875,36.96875 c 1.59375,-0.777344 2.691406,-2.394531 2.691406,-4.265625 0,-2.621094 -2.160156,-4.753906 -4.8125,-4.753906 -2.65625,0 -4.8125,2.132812 -4.8125,4.753906 0,2.132813 1.425781,3.941406 3.390625,4.539063 -1.550781,0.644531 -2.761718,1.96875 -3.210937,3.648437 l -1.050781,3.9375 v -4.003906 c 0,-1.121094 -0.921876,-2.03125 -2.058594,-2.03125 H 28.4375 c -1.136719,0 -2.058594,0.910156 -2.058594,2.03125 v 9.851562 c 0,0.179688 0.144532,0.320313 0.324219,0.320313 h 14.566406 c 1.222657,0 2.28125,-0.816406 2.578125,-1.988282 l 1.5625,-6.234374 c 0.04687,-0.171876 -0.0625,-0.34375 -0.234375,-0.386719 C 45,42.347656 44.824219,42.449219 44.78125,42.621094 l -1.5625,6.230468 c -0.222656,0.886719 -1.023438,1.503907 -1.949219,1.503907 h -4.757812 c -0.769531,0 -1.394531,-0.617188 -1.394531,-1.375 v -0.03125 c 0,-0.757813 0.625,-1.375 1.394531,-1.375 h 3.421875 c 0.148437,0 0.277344,-0.09766 0.3125,-0.238281 l 1.675781,-6.28125 c 0.566406,-2.121094 2.507813,-3.601563 4.726563,-3.601563 h 0.09375 c 2.695312,0 4.890624,2.167969 4.890624,4.828125 v 8.394531 c 0,0.179688 0.144532,0.320313 0.324219,0.320313 0.179688,0 0.324219,-0.140625 0.324219,-0.320313 V 42.28125 c 0,-2.570312 -1.808594,-4.734375 -4.234375,-5.3125"
       fill-opacity="1"
       fill-rule="nonzero"
       id="path52391"
       style="stroke-width:0.619161" />
  </g>
</svg>
