<?xml version="1.0" encoding="UTF-8" standalone="no"?>
<svg
   width="125.72462"
   zoomAndPan="magnify"
   viewBox="0 0 94.293468 95.249996"
   height="127"
   preserveAspectRatio="xMidYMid"
   version="1.0"
   id="svg45645"
   sodipodi:docname="what_section_gear_lg_instruments.svg"
   inkscape:version="1.2.1 (9c6d41e410, 2022-07-14)"
   xmlns:inkscape="http://www.inkscape.org/namespaces/inkscape"
   xmlns:sodipodi="http://sodipodi.sourceforge.net/DTD/sodipodi-0.dtd"
   xmlns="http://www.w3.org/2000/svg"
   xmlns:svg="http://www.w3.org/2000/svg">
  <sodipodi:namedview
     id="namedview45647"
     pagecolor="#ffffff"
     bordercolor="#111111"
     borderopacity="1"
     inkscape:showpageshadow="0"
     inkscape:pageopacity="0"
     inkscape:pagecheckerboard="1"
     inkscape:deskcolor="#d1d1d1"
     showgrid="false"
     inkscape:zoom="7.0569257"
     inkscape:cx="25.010891"
     inkscape:cy="68.585107"
     inkscape:window-width="2560"
     inkscape:window-height="1361"
     inkscape:window-x="2391"
     inkscape:window-y="-9"
     inkscape:window-maximized="1"
     inkscape:current-layer="svg45645" />
  <defs
     id="defs45591">
    <clipPath
       id="0d3d30dcb1">
      <path
         d="M 0,0 H 74.25 V 75 H 0 Z m 0,0"
         clip-rule="nonzero"
         id="path45576" />
    </clipPath>
    <clipPath
       id="9ddfed11d9">
      <path
         d="M 40,20.945312 H 53.945312 V 40 H 40 Z m 0,0"
         clip-rule="nonzero"
         id="path45579" />
    </clipPath>
    <clipPath
       id="856246fff3">
      <path
         d="M 36,40 H 53.945312 V 53.945312 H 36 Z m 0,0"
         clip-rule="nonzero"
         id="path45582" />
    </clipPath>
    <clipPath
       id="86437c3da5">
      <path
         d="M 20.945312,22 H 38 V 39 H 20.945312 Z m 0,0"
         clip-rule="nonzero"
         id="path45585" />
    </clipPath>
    <clipPath
       id="ec829baadb">
      <path
         d="M 20.945312,40 H 36 V 53.945312 H 20.945312 Z m 0,0"
         clip-rule="nonzero"
         id="path45588" />
    </clipPath>
  </defs>
  <g
     clip-path="url(#0d3d30dcb1)"
     id="g45595"
     transform="matrix(1.2704135,0,0,1.2704135,-0.00992511,-0.03101597)"
     style="stroke-width:0.787145">
    <path
       fill="#dde0f9"
       d="m 37.121094,75 c -0.640625,0 -1.28125,-0.01563 -1.917969,-0.04687 l -0.542969,-0.03125 -2.199218,-5.757813 c -1.660157,-0.246093 -3.308594,-0.621093 -4.910157,-1.121093 l -4.488281,4.242187 -0.5,-0.210937 c -1.175781,-0.492188 -2.339844,-1.050781 -3.457031,-1.660157 l -0.476563,-0.261718 0.527344,-6.140625 c -1.390625,-0.9375 -2.710938,-1.988281 -3.9375,-3.132813 L 9.332031,62.757812 8.972656,62.347656 C 8.125,61.394531 7.320312,60.390625 6.578125,59.363281 L 6.261719,58.917969 9.410156,53.613281 C 8.5625,52.164062 7.828125,50.644531 7.222656,49.085938 L 1.105469,48.230469 0.957031,47.707031 C 0.613281,46.496094 0.324219,45.242188 0.101562,43.980469 L 0.0078125,43.445312 5.148438,40.023438 C 5.015625,38.355469 5.015625,36.667969 5.148438,35 L 0.0078125,31.582031 0.101562,31.042969 C 0.324219,29.78125 0.613281,28.527344 0.957031,27.316406 l 0.148438,-0.523437 6.117187,-0.851563 c 0.605469,-1.5625 1.339844,-3.078125 2.1875,-4.527344 L 6.261719,16.109375 6.578125,15.667969 C 7.320312,14.636719 8.125,13.632812 8.972656,12.675781 l 0.359375,-0.40625 5.886719,1.878907 c 1.226562,-1.144532 2.546875,-2.195313 3.9375,-3.132813 L 18.628906,4.871094 19.105469,4.613281 C 20.222656,4.003906 21.386719,3.445312 22.5625,2.953125 l 0.5,-0.210937 4.488281,4.238281 c 1.601563,-0.5 3.25,-0.875 4.910157,-1.117188 L 34.65625,0.101562 35.203125,0.0742188 c 1.277344,-0.0664063 2.558594,-0.0664063 3.832031,0 l 0.546875,0.0273432 2.195313,5.761719 c 1.65625,0.242188 3.304687,0.617188 4.910156,1.117188 l 4.488281,-4.238281 0.5,0.210937 C 52.847656,3.441406 54.007812,4 55.132812,4.613281 l 0.476563,0.257813 -0.527344,6.144531 c 1.394531,0.9375 2.714844,1.988281 3.941407,3.132813 l 5.886718,-1.878907 0.359375,0.40625 c 0.847657,0.957031 1.652344,1.964844 2.390625,2.992188 l 0.316406,0.441406 -3.144531,5.304687 c 0.84375,1.445313 1.578125,2.964844 2.183594,4.523438 l 6.121094,0.855469 0.148437,0.523437 c 0.347656,1.238282 0.636719,2.492188 0.851563,3.730469 l 0.09375,0.535156 L 69.089844,35 c 0.132812,1.667969 0.132812,3.355469 0,5.023438 l 5.140625,3.421874 -0.09375,0.535157 c -0.214844,1.234375 -0.503907,2.488281 -0.851563,3.726562 l -0.148437,0.523438 -6.121094,0.855469 c -0.605469,1.5625 -1.339844,3.082031 -2.183594,4.527343 l 3.144531,5.304688 -0.316406,0.441406 c -0.738281,1.027344 -1.542968,2.035156 -2.390625,2.988281 l -0.359375,0.410156 -5.886718,-1.878906 c -1.226563,1.140625 -2.546876,2.191406 -3.941407,3.132813 l 0.527344,6.140625 -0.476563,0.261718 c -1.125,0.609376 -2.285156,1.167969 -3.457031,1.660157 l -0.5,0.210937 -4.488281,-4.242187 c -1.601562,0.5 -3.25,0.875 -4.910156,1.117187 l -2.195313,5.761719 -0.546875,0.02734 C 38.398438,74.984375 37.757812,75 37.121094,75 Z m -1.289063,-1.6875 c 0.859375,0.02734 1.71875,0.02734 2.578125,0 l 2.160156,-5.667969 0.492188,-0.06641 c 1.890625,-0.246094 3.765625,-0.671875 5.582031,-1.269531 l 0.472657,-0.15625 4.410156,4.171875 c 0.785156,-0.34375 1.5625,-0.71875 2.324218,-1.117188 l -0.515624,-6.042969 0.417968,-0.269531 c 1.597656,-1.042969 3.101563,-2.242187 4.472656,-3.558593 l 0.359376,-0.347657 5.789062,1.847657 c 0.558594,-0.648438 1.097656,-1.324219 1.609375,-2.007813 l -3.097656,-5.21875 0.257812,-0.429687 c 0.984375,-1.625 1.820313,-3.355469 2.484375,-5.140626 l 0.175782,-0.464843 6.015624,-0.84375 c 0.222657,-0.832031 0.414063,-1.671875 0.574219,-2.503907 l -5.058593,-3.363281 0.04687,-0.496093 c 0.179688,-1.894532 0.179688,-3.816407 0,-5.707032 l -0.04687,-0.496094 5.058593,-3.363281 C 72.234375,29.96875 72.042969,29.128906 71.820312,28.292969 l -6.015624,-0.839844 -0.175782,-0.46875 c -0.664062,-1.78125 -1.5,-3.511719 -2.484375,-5.140625 l -0.257812,-0.425781 3.097656,-5.21875 C 65.476562,15.515625 64.9375,14.839844 64.375,14.1875 l -5.789062,1.847656 -0.359376,-0.34375 c -1.371093,-1.320312 -2.875,-2.515625 -4.472656,-3.558594 L 53.335938,11.859375 53.851562,5.820312 C 53.089844,5.417969 52.3125,5.046875 51.527344,4.703125 L 47.117188,8.871094 46.644531,8.714844 C 44.828125,8.121094 42.953125,7.695312 41.0625,7.449219 L 40.570312,7.382812 38.410156,1.714844 c -0.859375,-0.03125 -1.71875,-0.03125 -2.582031,0 L 33.667969,7.382812 33.175781,7.449219 C 31.285156,7.695312 29.410156,8.121094 27.59375,8.714844 l -0.472656,0.15625 -4.410156,-4.167969 c -0.789063,0.34375 -1.566407,0.71875 -2.324219,1.117187 l 0.519531,6.039063 -0.417969,0.273437 c -1.597656,1.039063 -3.101562,2.234376 -4.472656,3.558594 L 15.65625,16.035156 9.867188,14.1875 c -0.5625,0.652344 -1.101563,1.324219 -1.609376,2.011719 l 3.09375,5.21875 -0.257812,0.425781 c -0.988281,1.628906 -1.820312,3.359375 -2.480469,5.140625 L 8.4375,27.453125 2.417969,28.292969 c -0.21875,0.820312 -0.410157,1.660156 -0.574219,2.507812 l 5.058594,3.363281 -0.046875,0.496094 c -0.179688,1.890625 -0.179688,3.8125 0,5.707032 l 0.046875,0.496093 -5.058594,3.363281 c 0.164062,0.84375 0.355469,1.683594 0.574219,2.503907 l 6.019531,0.84375 0.175781,0.464843 c 0.65625,1.78125 1.492188,3.511719 2.480469,5.140626 l 0.257812,0.429687 -3.09375,5.21875 c 0.507813,0.683594 1.046876,1.359375 1.609376,2.007813 l 5.789062,-1.847657 0.359375,0.347657 c 1.371094,1.320312 2.875,2.515624 4.472656,3.558593 l 0.414063,0.273438 -0.515625,6.039062 c 0.757812,0.398438 1.535156,0.773438 2.324219,1.117188 l 4.410156,-4.171875 0.472656,0.15625 c 1.8125,0.597656 3.691406,1.023437 5.582031,1.269531 l 0.492188,0.06641 z m 1.289063,-8.808594 c -14.921875,0 -27.0625,-12.105468 -27.0625,-26.992187 0,-14.882813 12.140625,-26.992188 27.0625,-26.992188 14.921875,0 27.058594,12.109375 27.058594,26.992188 0,14.886719 -12.136719,26.992187 -27.058594,26.992187 z m 0,-52.316406 c -14,0 -25.390625,11.359375 -25.390625,25.324219 0,13.964843 11.390625,25.328125 25.390625,25.328125 14,0 25.390625,-11.363282 25.390625,-25.328125 0,-13.964844 -11.390625,-25.324219 -25.390625,-25.324219 z m 0,0"
       fill-opacity="1"
       fill-rule="nonzero"
       id="path45593"
       style="stroke-width:0.619598" />
  </g>
  <g
     clip-path="url(#9ddfed11d9)"
     id="g45599"
     transform="matrix(1.0836764,0,0,1.0836764,6.7570534,7.2620149)"
     style="stroke-width:0.922784">
    <path
       fill="#000000"
       d="M 41.167969,37.976562 H 52.878906 V 22.007812 H 41.167969 Z m 12.242187,1.0625 H 40.636719 c -0.292969,0 -0.53125,-0.238281 -0.53125,-0.53125 v -17.03125 c 0,-0.292968 0.238281,-0.53125 0.53125,-0.53125 h 12.773437 c 0.292969,0 0.535156,0.238282 0.535156,0.53125 v 17.03125 c 0,0.292969 -0.242187,0.53125 -0.535156,0.53125"
       fill-opacity="1"
       fill-rule="nonzero"
       id="path45597"
       style="stroke-width:0.726366" />
  </g>
  <g
     clip-path="url(#856246fff3)"
     id="g45603"
     transform="matrix(1.0836764,0,0,1.0836764,6.7570534,7.2620149)"
     style="stroke-width:0.922784">
    <path
       fill="#000000"
       d="m 38.507812,41.703125 c -0.292968,0 -0.53125,0.238281 -0.53125,0.53125 v 10.113281 c 0,0.292969 0.238282,0.53125 0.53125,0.53125 h 13.839844 c 0.292969,0 0.53125,-0.238281 0.53125,-0.53125 V 42.234375 c 0,-0.292969 -0.238281,-0.53125 -0.53125,-0.53125 z M 52.347656,53.945312 H 38.507812 c -0.878906,0 -1.597656,-0.714843 -1.597656,-1.597656 V 42.234375 c 0,-0.882813 0.71875,-1.597656 1.597656,-1.597656 h 13.839844 c 0.882813,0 1.597656,0.714843 1.597656,1.597656 v 10.113281 c 0,0.882813 -0.714843,1.597656 -1.597656,1.597656"
       fill-opacity="1"
       fill-rule="nonzero"
       id="path45601"
       style="stroke-width:0.726366" />
  </g>
  <path
     fill="#000000"
     d="M 61.75363,62.834294 H 50.218403 c -0.317483,0 -0.575703,-0.258219 -0.575703,-0.575703 0,-0.317483 0.25822,-0.575702 0.575703,-0.575702 H 61.75363 c 0.317483,0 0.575703,0.258219 0.575703,0.575702 0,0.317484 -0.25822,0.575703 -0.575703,0.575703"
     fill-opacity="1"
     fill-rule="nonzero"
     id="path45605"
     style="stroke-width:1" />
  <g
     clip-path="url(#86437c3da5)"
     id="g45609"
     transform="matrix(1.0836764,0,0,1.0836764,6.7570534,7.2620149)"
     style="stroke-width:0.922784">
    <path
       fill="#000000"
       d="m 22.539062,23.605469 c -0.292968,0 -0.53125,0.238281 -0.53125,0.53125 v 12.773437 c 0,0.292969 0.238282,0.535156 0.53125,0.535156 h 13.839844 c 0.292969,0 0.53125,-0.242187 0.53125,-0.535156 V 24.136719 c 0,-0.292969 -0.238281,-0.53125 -0.53125,-0.53125 z M 36.378906,38.507812 H 22.539062 c -0.878906,0 -1.59375,-0.714843 -1.59375,-1.597656 V 24.136719 c 0,-0.878907 0.714844,-1.597657 1.59375,-1.597657 h 13.839844 c 0.882813,0 1.597656,0.71875 1.597656,1.597657 v 12.773437 c 0,0.882813 -0.714843,1.597656 -1.597656,1.597656"
       fill-opacity="1"
       fill-rule="nonzero"
       id="path45607"
       style="stroke-width:0.726366" />
  </g>
  <path
     fill="#000000"
     d="m 40.990222,35.725453 c -0.634968,0 -1.15564,0.520673 -1.15564,1.155638 0,0.634968 0.520672,1.151407 1.15564,1.151407 0.634965,0 1.151406,-0.516439 1.151406,-1.151407 0,-0.634965 -0.516441,-1.155638 -1.151406,-1.155638 z m 0,3.462685 c -1.274168,0 -2.307046,-1.032881 -2.307046,-2.307047 0,-1.274166 1.032878,-2.307045 2.307046,-2.307045 1.274166,0 2.307045,1.032879 2.307045,2.307045 0,1.274166 -1.032879,2.307047 -2.307045,2.307047"
     fill-opacity="1"
     fill-rule="nonzero"
     id="path45611"
     style="stroke-width:1" />
  <path
     fill="#000000"
     d="m 45.028608,44.377931 c -0.148157,0 -0.296317,-0.05503 -0.410611,-0.169324 l -1.896434,-1.896434 -1.900666,1.896434 c -0.224356,0.224354 -0.592636,0.224354 -0.81699,0 l -3.627777,-3.627776 -3.632009,3.627776 c -0.224354,0.224354 -0.588402,0.224354 -0.812757,0 -0.228589,-0.224355 -0.228589,-0.588403 0,-0.812758 l 4.034154,-4.038386 c 0.228588,-0.224357 0.592636,-0.224357 0.816991,0 l 3.632009,3.627775 1.896434,-1.896434 c 0.228587,-0.228588 0.592636,-0.228588 0.81699,0 l 2.307045,2.307045 c 0.224356,0.224355 0.224356,0.588403 0,0.812758 -0.114293,0.114294 -0.258219,0.169324 -0.406379,0.169324"
     fill-opacity="1"
     fill-rule="nonzero"
     id="path45613"
     style="stroke-width:1" />
  <path
     fill="#000000"
     d="m 59.446585,33.994111 h -5.765498 c -0.321716,0 -0.579935,-0.25822 -0.579935,-0.575703 0,-0.317484 0.258219,-0.575703 0.579935,-0.575703 h 5.765498 c 0.317482,0 0.575703,0.258219 0.575703,0.575703 0,0.317483 -0.258221,0.575703 -0.575703,0.575703"
     fill-opacity="1"
     fill-rule="nonzero"
     id="path45615"
     style="stroke-width:1" />
  <path
     fill="#000000"
     d="m 61.75363,39.188138 h -8.072543 c -0.321716,0 -0.579935,-0.25822 -0.579935,-0.575703 0,-0.317483 0.258219,-0.579937 0.579935,-0.579937 h 8.072543 c 0.317483,0 0.575703,0.262454 0.575703,0.579937 0,0.317483 -0.25822,0.575703 -0.575703,0.575703"
     fill-opacity="1"
     fill-rule="nonzero"
     id="path45617"
     style="stroke-width:1" />
  <path
     fill="#000000"
     d="m 61.75363,44.377931 h -8.072543 c -0.321716,0 -0.579935,-0.258219 -0.579935,-0.575703 0,-0.317483 0.258219,-0.575703 0.579935,-0.575703 h 8.072543 c 0.317483,0 0.575703,0.25822 0.575703,0.575703 0,0.317484 -0.25822,0.575703 -0.575703,0.575703"
     fill-opacity="1"
     fill-rule="nonzero"
     id="path45619"
     style="stroke-width:1" />
  <path
     fill="#000000"
     d="m 56.563836,46.684976 h -2.882749 c -0.321716,0 -0.579935,-0.258219 -0.579935,-0.575703 0,-0.317482 0.258219,-0.575703 0.579935,-0.575703 h 2.882749 c 0.317483,0 0.575704,0.258221 0.575704,0.575703 0,0.317484 -0.258221,0.575703 -0.575704,0.575703"
     fill-opacity="1"
     fill-rule="nonzero"
     id="path45621"
     style="stroke-width:1" />
  <path
     fill="#000000"
     d="m 54.832493,36.881091 h -1.151406 c -0.321716,0 -0.579935,-0.258219 -0.579935,-0.575703 0,-0.321716 0.258219,-0.579935 0.579935,-0.579935 h 1.151406 c 0.317484,0 0.575704,0.258219 0.575704,0.579935 0,0.317484 -0.25822,0.575703 -0.575704,0.575703"
     fill-opacity="1"
     fill-rule="nonzero"
     id="path45623"
     style="stroke-width:1" />
  <path
     fill="#000000"
     d="m 61.75363,36.881091 h -4.038387 c -0.317484,0 -0.575703,-0.258219 -0.575703,-0.575703 0,-0.321716 0.258219,-0.579935 0.575703,-0.579935 h 4.038387 c 0.317483,0 0.575703,0.258219 0.575703,0.579935 0,0.317484 -0.25822,0.575703 -0.575703,0.575703"
     fill-opacity="1"
     fill-rule="nonzero"
     id="path45625"
     style="stroke-width:1" />
  <path
     fill="#000000"
     d="m 57.715243,42.070887 h -4.034156 c -0.321716,0 -0.579935,-0.258221 -0.579935,-0.575704 0,-0.317483 0.258219,-0.575703 0.579935,-0.575703 h 4.034156 c 0.317482,0 0.579935,0.25822 0.579935,0.575703 0,0.317483 -0.262453,0.575704 -0.579935,0.575704"
     fill-opacity="1"
     fill-rule="nonzero"
     id="path45627"
     style="stroke-width:1" />
  <path
     fill="#000000"
     d="m 61.75363,42.070887 h -1.151406 c -0.317484,0 -0.579936,-0.258221 -0.579936,-0.575704 0,-0.317483 0.262452,-0.575703 0.579936,-0.575703 h 1.151406 c 0.317483,0 0.575703,0.25822 0.575703,0.575703 0,0.317483 -0.25822,0.575704 -0.575703,0.575704"
     fill-opacity="1"
     fill-rule="nonzero"
     id="path45629"
     style="stroke-width:1" />
  <g
     clip-path="url(#ec829baadb)"
     id="g45633"
     transform="matrix(1.0836764,0,0,1.0836764,6.7570534,7.2620149)"
     style="stroke-width:0.922784">
    <path
       fill="#000000"
       d="m 28.394531,41.167969 c -3.519531,0 -6.386719,2.152343 -6.386719,4.792969 0,1.101562 0.492188,2.144531 1.425782,3.011718 0.113281,0.101563 0.171875,0.242188 0.171875,0.390625 V 52.125 l 1.664062,-1.660156 c 0.144531,-0.144532 0.355469,-0.191406 0.546875,-0.128906 0.800782,0.273437 1.667969,0.414062 2.578125,0.414062 3.523438,0 6.386719,-2.148438 6.386719,-4.789062 0,-2.640626 -2.863281,-4.792969 -6.386719,-4.792969 z m -5.320312,12.777343 c -0.07031,0 -0.136719,-0.01562 -0.203125,-0.04297 -0.203125,-0.08203 -0.332032,-0.273438 -0.332032,-0.492188 v -3.824218 c -1.03125,-1.03125 -1.59375,-2.3125 -1.59375,-3.625 0,-3.230469 3.34375,-5.855469 7.449219,-5.855469 4.109375,0 7.453125,2.625 7.453125,5.855469 0,3.226562 -3.34375,5.855468 -7.453125,5.855468 -0.90625,0 -1.78125,-0.125 -2.605469,-0.371094 l -2.339843,2.34375 c -0.101563,0.101563 -0.238281,0.15625 -0.375,0.15625"
       fill-opacity="1"
       fill-rule="nonzero"
       id="path45631"
       style="stroke-width:0.726366" />
  </g>
  <path
     fill="#000000"
     d="m 38.683176,57.068798 c 0,-0.6392 -0.51644,-1.15564 -1.15564,-1.15564 -0.634966,0 -1.151406,0.51644 -1.151406,1.15564 0,0.634966 0.51644,1.151407 1.151406,1.151407 0.6392,0 1.15564,-0.516441 1.15564,-1.151407"
     fill-opacity="1"
     fill-rule="nonzero"
     id="path45635"
     style="stroke-width:1" />
  <path
     fill="#000000"
     d="m 42.721563,57.068798 c 0,-0.6392 -0.516438,-1.15564 -1.155638,-1.15564 -0.639201,0 -1.151407,0.51644 -1.151407,1.15564 0,0.634966 0.512206,1.151407 1.151407,1.151407 0.6392,0 1.155638,-0.516441 1.155638,-1.151407"
     fill-opacity="1"
     fill-rule="nonzero"
     id="path45637"
     style="stroke-width:1" />
  <path
     fill="#000000"
     d="m 34.644788,57.068798 c 0,-0.6392 -0.51644,-1.15564 -1.155639,-1.15564 -0.634967,0 -1.151406,0.51644 -1.151406,1.15564 0,0.634966 0.516439,1.151407 1.151406,1.151407 0.639199,0 1.155639,-0.516441 1.155639,-1.151407"
     fill-opacity="1"
     fill-rule="nonzero"
     id="path45639"
     style="stroke-width:1" />
  <path
     fill="#000000"
     d="m 60.022288,63.414231 c -0.317484,0 -0.575703,-0.262453 -0.575703,-0.579937 v -1.151405 c 0,-0.317484 0.258219,-0.575703 0.575703,-0.575703 0.317482,0 0.579936,0.258219 0.579936,0.575703 v 1.151405 c 0,0.317484 -0.262454,0.579937 -0.579936,0.579937"
     fill-opacity="1"
     fill-rule="nonzero"
     id="path45641"
     style="stroke-width:1" />
  <path
     fill="#000000"
     d="m 54.358385,54.761752 c -0.02116,0 -0.0381,0.0043 -0.0508,0.0127 -0.03386,0.01694 -0.05079,0.05079 -0.05079,0.08467 v 4.419361 c 0,0.03387 0.01694,0.06773 0.04657,0.08467 0.03387,0.01694 0.07619,0.01694 0.105831,0 l 3.830966,-2.205451 c 0.03386,-0.02116 0.0508,-0.05503 0.0508,-0.08889 0,-0.03386 -0.01694,-0.06773 -0.0508,-0.08467 l -3.830966,-2.20545 c -0.01694,-0.0127 -0.03386,-0.01694 -0.05079,-0.01694 z m 0,5.765497 c -0.215889,0 -0.436009,-0.05079 -0.6265,-0.160858 -0.389447,-0.224355 -0.630733,-0.643433 -0.630733,-1.087909 v -4.419368 c 0,-0.444477 0.241286,-0.859322 0.630733,-1.083676 0.385213,-0.224355 0.867788,-0.224355 1.253,0 l 3.8352,2.209684 c 0.385212,0.22012 0.6265,0.634966 0.6265,1.083676 0,0.448709 -0.241288,0.863554 -0.6265,1.08791 l -3.8352,2.209683 c -0.194722,0.110061 -0.410611,0.160858 -0.6265,0.160858"
     fill-opacity="1"
     fill-rule="nonzero"
     id="path45643"
     style="stroke-width:1" />
  <path
     style="fill:#ffffff;fill-opacity:1;stroke-width:1.333;stroke-linecap:round;stroke-linejoin:round"
     d="m 58.88469,119.2667 -1.828359,-4.79582 -1.285425,-0.17104 c -2.217584,-0.29507 -4.873616,-0.86257 -7.158864,-1.52959 -1.212052,-0.35377 -2.331266,-0.67026 -2.487141,-0.70329 -0.214141,-0.0454 -1.182104,0.78977 -3.9604,3.41706 -2.022345,1.91242 -3.729026,3.47713 -3.792626,3.47713 -0.0636,0 -0.947962,-0.41708 -1.96525,-0.92684 l -1.849615,-0.92685 0.08269,-0.73818 c 0.09789,-0.87386 0.786489,-8.96062 0.786489,-9.23635 0,-0.10459 -0.781147,-0.73483 -1.735883,-1.40053 -2.195674,-1.53096 -4.015776,-2.98527 -5.789615,-4.62607 l -1.393524,-1.289008 -4.857577,1.560668 -4.857577,1.56067 -0.54949,-0.59732 c -0.30222,-0.32852 -0.918527,-1.08063 -1.369572,-1.67134 l -0.820082,-1.074013 2.61156,-4.407939 2.611561,-4.407939 -1.00452,-1.744987 C 17.015435,86.853212 15.978852,84.707154 15.0298,82.323823 L 14.293598,80.475014 9.2374857,79.773137 4.1813734,79.071259 4.0197752,78.575293 C 3.9308962,78.302511 3.7019714,77.364906 3.5110534,76.491725 L 3.1639298,74.904123 7.4585282,72.044202 11.753126,69.18428 11.651032,68.317874 c -0.132149,-1.121466 -0.132715,-8.542251 -7.36e-4,-9.66123 L 11.751653,57.797287 7.5054312,54.992316 C 4.1238391,52.758504 3.2595928,52.125565 3.2610913,51.88394 c 0.00252,-0.406569 0.7770032,-3.751064 0.8962432,-3.870303 0.078917,-0.07892 9.4333045,-1.446504 9.9821635,-1.459366 0.09987,-0.0023 0.221011,-0.115848 0.269208,-0.252239 0.878362,-2.485673 2.541325,-6.056813 3.954894,-8.492959 l 0.919607,-1.58485 -2.62823,-4.422658 -2.62823,-4.422657 1.34437,-1.661936 1.344371,-1.661936 4.360259,1.397686 c 2.398142,0.768727 4.594134,1.470568 4.879981,1.559647 l 0.519723,0.161961 1.786634,-1.606232 c 1.918538,-1.724817 4.31593,-3.595516 6.071333,-4.737497 0.767305,-0.499171 1.089653,-0.794013 1.090943,-0.99785 0.0019,-0.292368 -0.62404,-7.658403 -0.779622,-9.175303 l -0.08417,-0.8206372 1.935835,-0.9308957 1.935834,-0.9308957 0.728828,0.7044504 c 0.400854,0.3874476 2.087583,1.9836092 3.748285,3.5470262 l 3.019461,2.842577 1.012775,-0.344467 c 2.320435,-0.789231 6.16608,-1.671105 8.9046,-2.04198 l 1.218998,-0.165088 1.827654,-4.8061972 1.827653,-4.8061966 2.141291,-9.83e-5 2.141291,-9.82e-5 1.826442,4.8083467 1.826443,4.8083466 0.708524,0.08819 c 2.617891,0.325859 6.140124,1.106853 9.323913,2.067417 0.750193,0.226336 1.16768,0.289506 1.300114,0.196719 0.107293,-0.07517 1.794793,-1.657706 3.750001,-3.516745 l 3.554925,-3.3800706 1.911365,0.9279432 c 1.18364,0.5746427 1.911363,1.0083322 1.911363,1.1390844 0,0.287143 -0.683504,8.337609 -0.78487,9.244359 l -0.08107,0.725218 1.743739,1.215837 c 2.22557,1.551797 4.070953,3.025873 5.830305,4.657198 l 1.394175,1.292721 4.769987,-1.513245 c 2.62349,-0.832284 4.84194,-1.511526 4.9299,-1.509426 0.16594,0.004 0.92319,0.860903 2.09065,2.365875 l 0.67812,0.874157 -2.61454,4.409683 -2.61454,4.409682 0.91361,1.588842 c 1.20044,2.087674 2.53868,4.860621 3.37322,6.989643 l 0.67283,1.716477 4.83452,0.663069 c 2.65899,0.364687 4.96313,0.715996 5.12031,0.780685 0.19961,0.08215 0.33599,0.347398 0.45229,0.879665 0.0916,0.419125 0.29213,1.323203 0.44569,2.009059 l 0.27919,1.247015 -4.06154,2.703619 c -2.23385,1.486991 -4.16037,2.789355 -4.28116,2.894143 -0.1834,0.159099 -0.20023,0.372278 -0.10209,1.292444 0.14988,1.40526 0.15027,7.538722 5.7e-4,9.071018 l -0.11404,1.167269 4.29371,2.85933 c 3.16275,2.106183 4.27592,2.918475 4.22616,3.083874 -0.0371,0.123498 -0.19311,0.807139 -0.34657,1.5192 -0.15346,0.712062 -0.34538,1.541089 -0.42648,1.842281 l -0.14746,0.547623 -4.99914,0.691617 c -2.74953,0.38039 -5.0672,0.76294 -5.15038,0.85011 -0.0832,0.08717 -0.39388,0.796164 -0.69044,1.57554 -0.68339,1.795954 -2.51069,5.555612 -3.52976,7.262463 l -0.78266,1.310861 2.61428,4.403364 c 1.47096,2.477597 2.57125,4.476191 2.51589,4.569886 -0.0541,0.09159 -0.581,0.762825 -1.17086,1.491635 -0.58987,0.72881 -1.14148,1.41184 -1.22581,1.51786 -0.12587,0.15822 -1.03396,-0.0877 -5.06972,-1.37306 l -4.916381,-1.565806 -1.261309,1.200306 c -1.650055,1.57024 -3.920751,3.3852 -6.009481,4.80336 l -1.680984,1.14132 0.08043,0.65575 c 0.04424,0.36066 0.249843,2.65624 0.456902,5.10129 0.314906,3.71856 0.344915,4.46512 0.183507,4.56522 -0.10613,0.0658 -0.976102,0.48411 -1.933272,0.92955 l -1.740308,0.80987 -0.668673,-0.64343 c -4.619007,-4.44463 -6.765065,-6.3699 -7.035231,-6.31144 -0.161461,0.0349 -1.026888,0.28882 -1.92317,0.56418 -2.061391,0.63332 -4.358887,1.15119 -6.801829,1.53317 -1.052158,0.16452 -1.980297,0.31802 -2.062533,0.34112 -0.08223,0.0231 -0.776365,1.69076 -1.542508,3.70593 -0.766146,2.01517 -1.581243,4.15813 -1.811327,4.76215 l -0.418336,1.09821 h -2.152315 -2.152315 l -1.828359,-4.79582 z m 9.275302,-10.30729 c 10.319029,-1.19958 19.708199,-5.73923 27.074999,-13.090738 7.559409,-7.543717 11.979639,-16.700335 13.239169,-27.42527 0.28834,-2.455228 0.28711,-7.418396 -0.002,-9.955573 C 106.58822,41.985524 96.03519,27.839286 80.771716,21.356293 75.049288,18.925754 69.318902,17.783764 62.846932,17.78412 c -3.3824,1.41e-4 -5.786209,0.217457 -8.732059,0.789257 -19.776837,3.838756 -34.811922,20.219382 -36.892967,40.194645 -1.424187,13.670294 3.418255,27.28469 13.169837,37.026646 8.146014,8.137972 18.498423,12.727182 30.328749,13.444702 1.473778,0.0894 5.597127,-0.0658 7.4395,-0.27996 z"
     id="path1295"
     transform="scale(0.75000001)" />
</svg>
