<?xml version="1.0" encoding="UTF-8" standalone="no"?>
<svg
   width="126.99833"
   zoomAndPan="magnify"
   viewBox="0 0 95.248741 95.249999"
   height="127"
   preserveAspectRatio="xMidYMid"
   version="1.0"
   id="svg9866"
   sodipodi:docname="what_section_gear_lg_training.svg"
   inkscape:version="1.2.1 (9c6d41e410, 2022-07-14)"
   xmlns:inkscape="http://www.inkscape.org/namespaces/inkscape"
   xmlns:sodipodi="http://sodipodi.sourceforge.net/DTD/sodipodi-0.dtd"
   xmlns="http://www.w3.org/2000/svg"
   xmlns:svg="http://www.w3.org/2000/svg">
  <sodipodi:namedview
     id="namedview9868"
     pagecolor="#ffffff"
     bordercolor="#111111"
     borderopacity="1"
     inkscape:showpageshadow="0"
     inkscape:pageopacity="0"
     inkscape:pagecheckerboard="1"
     inkscape:deskcolor="#d1d1d1"
     showgrid="false"
     inkscape:zoom="4.99"
     inkscape:cx="55.611222"
     inkscape:cy="62.625251"
     inkscape:window-width="2560"
     inkscape:window-height="1361"
     inkscape:window-x="-9"
     inkscape:window-y="-9"
     inkscape:window-maximized="1"
     inkscape:current-layer="svg9866" />
  <defs
     id="defs9842">
    <clipPath
       id="004468400f">
      <path
         d="M 21,24.273438 H 54 V 53 H 21 Z m 0,0"
         clip-rule="nonzero"
         id="path9836" />
    </clipPath>
    <clipPath
       id="0b3a2f3b81">
      <path
         d="M 31,32 H 54 V 55.023438 H 31 Z m 0,0"
         clip-rule="nonzero"
         id="path9839" />
    </clipPath>
    <clipPath
       id="a57af7a3bf">
      <path
         d="M 9.289062,8.519531 H 67.253906 V 66.480469 H 9.289062 Z m 0,0"
         clip-rule="nonzero"
         id="path23811" />
    </clipPath>
    <clipPath
       id="0d31f917a1">
      <path
         d="M 38.273438,8.519531 C 22.265625,8.519531 9.289062,21.496094 9.289062,37.5 c 0,16.003906 12.976563,28.980469 28.984376,28.980469 16.003906,0 28.980468,-12.976563 28.980468,-28.980469 0,-16.003906 -12.976562,-28.980469 -28.980468,-28.980469"
         clip-rule="nonzero"
         id="path23814" />
    </clipPath>
    <clipPath
       id="17f1adb2ce">
      <path
         d="M 23.78125,41 H 50 v 5 H 23.78125 Z m 0,0"
         clip-rule="nonzero"
         id="path23817" />
    </clipPath>
    <clipPath
       id="9e677ec2cc">
      <path
         d="m 31,49 h 11 v 3.0625 H 31 Z m 0,0"
         clip-rule="nonzero"
         id="path23820" />
    </clipPath>
    <clipPath
       id="154e8e6c87">
      <path
         d="M 35,25.0625 H 51 V 41 H 35 Z m 0,0"
         clip-rule="nonzero"
         id="path23823" />
    </clipPath>
    <clipPath
       id="51d4d22e56">
      <path
         d="M 47,37 H 58.28125 V 48 H 47 Z m 0,0"
         clip-rule="nonzero"
         id="path23826" />
    </clipPath>
    <clipPath
       id="05cd9db797">
      <path
         d="M 23.78125,29 H 50 V 42 H 23.78125 Z m 0,0"
         clip-rule="nonzero"
         id="path23829" />
    </clipPath>
    <clipPath
       id="cdc16ee2dd">
      <path
         d="M 45,32 H 55 V 50.679688 H 45 Z m 0,0"
         clip-rule="nonzero"
         id="path31726" />
    </clipPath>
    <clipPath
       id="625cb0a880">
      <path
         d="m 26,44 h 29.765625 v 6.679688 H 26 Z m 0,0"
         clip-rule="nonzero"
         id="path31729" />
    </clipPath>
    <clipPath
       id="f6edc412ad">
      <path
         d="M 26,35 H 42 V 50.679688 H 26 Z m 0,0"
         clip-rule="nonzero"
         id="path31732" />
    </clipPath>
    <clipPath
       id="b1ecb49e55">
      <path
         d="M 22.765625,50 H 26 v 0.679688 h -3.234375 z m 0,0"
         clip-rule="nonzero"
         id="path31735" />
    </clipPath>
    <clipPath
       id="907be094a8">
      <path
         d="M 22.765625,17.679688 H 37 V 25 H 22.765625 Z m 0,0"
         clip-rule="nonzero"
         id="path31738" />
    </clipPath>
    <clipPath
       id="6118e29eb8">
      <path
         d="m 24.566406,23.335938 h 28.5 v 28.5 h -28.5 z m 0,0"
         clip-rule="nonzero"
         id="path41560" />
    </clipPath>
  </defs>
  <path
     fill="#dde0f9"
     d="m 35.522404,93.68672 c -0.912245,-0.239678 -1.826522,-0.51069 -2.720088,-0.801923 l -0.614075,-0.202396 -1.254159,-8.002917 c -2.359375,-1.061294 -4.617267,-2.352568 -6.73551,-3.843256 l -7.525179,2.991347 -0.487326,-0.430866 C 14.77162,82.157657 13.416253,80.810943 12.157891,79.407593 l -0.432514,-0.483192 2.91866,-7.553296 C 13.132724,69.26997 11.819449,67.020693 10.732529,64.671772 L 2.7200607,63.50078 2.5118679,62.886615 C 1.9082822,61.100962 1.4017004,59.258672 1.0179175,57.41785 L 0.88223217,56.781674 7.1861721,51.69868 C 6.9291927,49.121265 6.9145162,46.520257 7.1499968,43.943912 L 0.79706994,38.91799 0.92265305,38.283732 C 1.2951153,36.436292 1.7795158,34.592598 2.3632402,32.800664 L 2.5656361,32.186589 10.568552,30.93243 c 1.060038,-2.354573 2.352573,-4.617267 3.841999,-6.730708 l -2.990085,-7.529982 0.430866,-0.487324 c 1.243854,-1.413187 2.585767,-2.769815 3.989118,-4.028176 l 0.48319,-0.432515 7.553298,2.918659 c 2.101132,-1.511311 4.350411,-2.824587 6.698072,-3.906705 L 31.747263,2.7184103 32.361427,2.5102167 C 34.151882,1.9078917 35.988108,1.4048494 37.83019,1.0162661 L 38.465107,0.88538339 43.5481,7.1893233 c 2.577414,-0.2569808 5.178423,-0.2716569 7.75603,-0.040979 l 5.025923,-6.35292606 0.632996,0.13038102 c 1.8439,0.36640204 3.692394,0.85206394 5.483068,1.44058714 l 0.615337,0.197598 1.254158,8.0029156 c 2.358112,1.066102 4.616005,2.357375 6.729446,3.846802 l 7.529981,-2.990086 0.488586,0.426065 c 1.413187,1.243851 2.765013,2.584503 4.028177,3.989116 l 0.432515,0.483192 -2.919922,7.558097 c 1.512574,2.096332 2.82585,4.345611 3.912769,6.694531 l 8.012468,1.170993 0.208194,0.614165 c 0.602323,1.790454 1.105366,3.62668 1.49395,5.468763 l 0.135686,0.636177 -6.310004,5.086534 c 0.263043,2.573874 0.272918,5.173622 0.04224,7.751228 l 6.352927,5.025924 -0.125583,0.634256 c -0.372462,1.84744 -0.856863,3.691134 -1.440587,5.483068 l -0.202396,0.614076 -8.002916,1.254159 c -1.066101,2.358112 -2.353835,4.622067 -3.848062,6.734247 l 2.99615,7.526442 -0.430868,0.487323 c -1.243853,1.413187 -2.585766,2.769815 -3.989117,4.028178 l -0.483192,0.432515 -7.553297,-2.91866 c -2.101132,1.511312 -4.350411,2.824586 -6.699333,3.911507 l -1.170991,8.012468 -0.614165,0.208193 c -1.786913,0.608387 -3.627942,1.110167 -5.468763,1.49395 l -0.636177,0.135684 -5.087795,-6.305201 c -2.572613,0.258242 -5.173623,0.272918 -7.749967,0.03744 l -5.025923,6.352926 -0.634257,-0.125583 c -0.92132,-0.185599 -1.855539,-0.400249 -2.762981,-0.638664 z m -1.447338,-2.618128 c 1.31482,0.407029 2.649579,0.757715 3.994668,1.049535 l 4.935509,-6.243231 0.579655,0.05991 c 2.806807,0.29603 5.648613,0.283027 8.454417,-0.04227 l 0.57632,-0.06415 4.998811,6.194566 c 1.33652,-0.300705 2.675035,-0.667612 3.981692,-1.089083 l 1.150075,-7.874249 0.533804,-0.234439 c 2.57605,-1.150431 5.036262,-2.582799 7.300807,-4.266751 l 0.470087,-0.343572 7.423908,2.864135 c 1.009312,-0.930743 1.980702,-1.912509 2.905586,-2.932158 L 78.438126,70.74747 78.78208,70.278373 c 1.657638,-2.284822 3.070616,-4.751975 4.192467,-7.341811 l 0.232747,-0.534245 7.862945,-1.229339 c 0.407029,-1.314821 0.757715,-2.649579 1.048273,-3.989868 l -6.24197,-4.940311 0.05991,-0.579654 c 0.296029,-2.80681 0.278226,-5.64988 -0.04227,-8.45442 l -0.06896,-0.577583 6.199368,-4.997549 C 91.719095,36.295812 91.355728,34.963358 90.935517,33.651901 L 83.061269,32.501826 82.822029,31.96676 C 81.67766,29.387171 80.23923,26.930499 78.560079,24.667216 l -0.349631,-0.466549 2.870196,-7.427446 c -0.935543,-1.010573 -1.91731,-1.981963 -2.933419,-2.900784 l -7.398107,2.937477 -0.469097,-0.343954 c -2.28482,-1.657638 -4.751973,-3.070617 -7.341809,-4.192467 L 62.402707,12.045541 61.174628,4.1777953 C 59.85981,3.7707556 58.525052,3.4200695 57.179959,3.128261 l -4.93677,6.2480324 -0.578395,-0.064708 C 48.857988,9.0155554 46.01492,9.0333603 43.210377,9.3538509 L 42.632795,9.4228072 37.635245,3.22344 C 36.297464,3.5289469 34.96021,3.8910527 33.653553,4.3125236 l -1.150075,7.8742474 -0.535066,0.239242 c -2.579588,1.144368 -5.034999,2.577997 -7.299544,4.261949 l -0.471348,0.34837 -7.422646,-2.868935 c -1.009312,0.930741 -1.986765,1.916048 -2.905586,2.932157 l 2.937478,7.398107 -0.339153,0.470359 c -1.662439,2.283558 -3.071878,4.756775 -4.192468,7.341809 l -0.232746,0.534244 -7.8629456,1.229342 c -0.4070291,1.31482 -0.7577151,2.649578 -1.0495343,3.994668 l 6.2432311,4.935509 -0.059912,0.579654 c -0.2960291,2.806808 -0.2830266,5.648615 0.042265,8.454418 l 0.064155,0.576321 -6.194566,4.998811 c 0.3007059,1.33652 0.667612,2.675034 1.0890834,3.981692 l 7.872987,1.154876 0.240501,0.530265 c 1.144369,2.579588 2.577998,5.035 4.26195,7.299544 l 0.348371,0.471348 -2.868936,7.422646 c 0.930742,1.009312 1.916048,1.986765 2.932158,2.905586 l 7.398107,-2.937478 0.470358,0.339152 c 2.28356,1.662441 4.751974,3.070618 7.34181,4.192468 l 0.534246,0.232747 z M 38.910684,80.790469 C 20.622591,75.98557 9.652672,57.197125 14.457571,38.909032 19.262471,20.620937 38.050917,9.6510198 56.339009,14.455919 74.627103,19.260818 85.597022,38.049262 80.792122,56.337357 75.987222,74.625451 57.198778,85.595369 38.910684,80.790469 Z M 55.800366,16.506067 C 38.640575,11.99761 21.011377,22.286622 16.50292,39.446414 11.994464,56.606204 22.288274,74.236665 39.448066,78.745122 56.607859,83.253578 74.233517,72.958504 78.741973,55.798714 83.250429,38.638922 72.960159,21.014524 55.800366,16.506067 Z m 0,0"
     fill-opacity="1"
     fill-rule="nonzero"
     id="path41565"
     style="stroke-width:1;fill:#e8ebfa;fill-opacity:1" />
  <path
     fill="#000000"
     d="m 55.522469,56.772216 c 0.153892,0 0.287925,-0.05461 0.397139,-0.163821 0.114172,-0.114172 0.168783,-0.248211 0.168783,-0.402102 v -21.50506 c 0,-0.153892 -0.05461,-0.287925 -0.168783,-0.402103 -0.109217,-0.109216 -0.243247,-0.163819 -0.397139,-0.163819 -0.158855,0 -0.29289,0.05461 -0.402103,0.163819 -0.109216,0.114173 -0.16382,0.248211 -0.16382,0.402103 v 21.50506 c 0,0.153891 0.05461,0.287926 0.16382,0.402102 0.109217,0.109217 0.243248,0.163821 0.402103,0.163821 z m 0,0"
     fill-opacity="1"
     fill-rule="nonzero"
     id="path41567"
     style="stroke-width:1" />
  <g
     clip-path="url(#6118e29eb8)"
     id="g41571"
     transform="matrix(1.2708438,0,0,1.2708438,-0.03227,-0.04840213)"
     style="stroke-width:0.786879">
    <path
       fill="#000000"
       d="m 51.730469,44.710938 h -0.445313 v -0.445313 c 0,-0.175781 -0.03516,-0.347656 -0.101562,-0.511719 -0.07031,-0.164062 -0.164063,-0.308594 -0.289063,-0.433594 -0.125,-0.125 -0.269531,-0.222656 -0.433593,-0.289062 C 50.296875,42.96484 50.125,42.929688 49.949219,42.929688 h -0.890625 c -0.179688,0 -0.347656,0.03516 -0.511719,0.101562 -0.164063,0.06641 -0.308594,0.164062 -0.433594,0.289062 -0.125,0.125 -0.222656,0.269532 -0.289062,0.433594 -0.07031,0.164063 -0.101563,0.335938 -0.101563,0.511719 v 1.335937 h -1.78125 V 26.453125 c 0,-0.175781 -0.03516,-0.347656 -0.101562,-0.511719 -0.07031,-0.164062 -0.164063,-0.308594 -0.289063,-0.433594 -0.125,-0.125 -0.269531,-0.222656 -0.433593,-0.289062 -0.164063,-0.06641 -0.335938,-0.101562 -0.511719,-0.101562 h -4.898438 v -0.445313 c 0,-0.175781 -0.03516,-0.347656 -0.101562,-0.511719 -0.07031,-0.164062 -0.164063,-0.308594 -0.289063,-0.433594 -0.125,-0.125 -0.269531,-0.222656 -0.433594,-0.289062 -0.164062,-0.06641 -0.335937,-0.101562 -0.511718,-0.101562 h -6.234375 c -0.179688,0 -0.347657,0.03516 -0.511719,0.101562 -0.164062,0.06641 -0.308594,0.164062 -0.433594,0.289062 -0.125,0.125 -0.222656,0.269532 -0.289062,0.433594 -0.07031,0.164063 -0.101563,0.335938 -0.101563,0.511719 v 0.445313 h -4.898437 c -0.179688,0 -0.347656,0.03516 -0.511719,0.101562 -0.164063,0.06641 -0.308594,0.164062 -0.433594,0.289062 -0.125,0.125 -0.222656,0.269532 -0.289062,0.433594 -0.07031,0.164063 -0.101563,0.335938 -0.101563,0.511719 V 50.5 c 0,0.175781 0.03125,0.347656 0.101563,0.511719 0.06641,0.164062 0.164062,0.308593 0.289062,0.433593 0.125,0.125 0.269531,0.222657 0.433594,0.289063 0.164063,0.06641 0.332031,0.101563 0.511719,0.101563 h 18.703125 c 0.175781,0 0.347656,-0.03516 0.511719,-0.101563 0.164062,-0.06641 0.308593,-0.164063 0.433593,-0.289063 0.125,-0.125 0.21875,-0.269531 0.289063,-0.433593 0.06641,-0.164063 0.101562,-0.335938 0.101562,-0.511719 0,-0.121094 -0.04297,-0.226562 -0.132812,-0.316406 -0.08594,-0.08594 -0.191406,-0.128906 -0.3125,-0.128906 -0.125,0 -0.230469,0.04297 -0.316406,0.128906 -0.08594,0.08984 -0.128907,0.195312 -0.128907,0.316406 0,0.121094 -0.04297,0.226562 -0.132812,0.316406 -0.08594,0.08594 -0.191407,0.128906 -0.3125,0.128906 H 38.734375 C 38.785156,50.800781 38.8125,50.652344 38.816406,50.5 v -1.335938 h 8.90625 V 50.5 c 0,0.175781 0.03125,0.347656 0.101563,0.511719 0.06641,0.164062 0.164062,0.308593 0.289062,0.433593 0.125,0.125 0.269531,0.222657 0.433594,0.289063 0.164063,0.06641 0.332031,0.101563 0.511719,0.101563 h 0.890625 c 0.175781,0 0.347656,-0.03516 0.511719,-0.101563 0.164062,-0.06641 0.308593,-0.164063 0.433593,-0.289063 0.125,-0.125 0.21875,-0.269531 0.289063,-0.433593 C 51.25,50.847656 51.285156,50.675781 51.285156,50.5 v -0.445312 h 0.445313 c 0.175781,0 0.347656,-0.03516 0.511719,-0.101563 0.164062,-0.06641 0.308593,-0.164063 0.433593,-0.289063 0.125,-0.125 0.21875,-0.269531 0.289063,-0.433593 0.06641,-0.164063 0.101562,-0.335938 0.101562,-0.511719 v -2.671875 c 0,-0.175781 -0.03516,-0.347656 -0.101562,-0.511719 -0.07031,-0.164062 -0.164063,-0.308594 -0.289063,-0.433594 -0.125,-0.125 -0.269531,-0.222656 -0.433593,-0.289062 -0.164063,-0.06641 -0.335938,-0.101562 -0.511719,-0.101562 z M 31.691406,24.671875 c 0,-0.121094 0.04297,-0.226563 0.128906,-0.316406 0.08594,-0.08594 0.191407,-0.128907 0.316407,-0.128907 h 6.234375 c 0.121094,0 0.226562,0.04297 0.3125,0.128907 0.08984,0.08984 0.132812,0.195312 0.132812,0.316406 v 1.78125 c 0,0.121094 -0.04297,0.226563 -0.132812,0.316406 -0.08594,0.08594 -0.191406,0.128907 -0.3125,0.128907 h -1.859375 c -0.09375,-0.265626 -0.257813,-0.480469 -0.488281,-0.644532 -0.230469,-0.164062 -0.488282,-0.246094 -0.769532,-0.246094 -0.285156,0 -0.542968,0.08203 -0.773437,0.246094 -0.230469,0.164063 -0.394531,0.378906 -0.488281,0.644532 h -1.855469 c -0.125,0 -0.230469,-0.04297 -0.316407,-0.128907 -0.08594,-0.08984 -0.128906,-0.195312 -0.128906,-0.316406 z M 25.457031,50.5 V 26.453125 c 0,-0.121094 0.04297,-0.226563 0.128907,-0.316406 0.08594,-0.08594 0.191406,-0.128907 0.316406,-0.128907 h 0.527344 c -0.05469,0.144532 -0.08203,0.292969 -0.08203,0.445313 V 48.71875 c 0,0.175781 0.03125,0.347656 0.101563,0.511719 0.06641,0.164062 0.164062,0.308593 0.289062,0.433593 0.125,0.125 0.269531,0.222657 0.433594,0.289063 0.164063,0.06641 0.332031,0.101563 0.511719,0.101563 h 4.453125 c 0.121093,0 0.226562,-0.04297 0.3125,-0.128907 0.08984,-0.08984 0.132812,-0.195312 0.132812,-0.316406 0,-0.121094 -0.04297,-0.226563 -0.132812,-0.316406 -0.08594,-0.08594 -0.191407,-0.128907 -0.3125,-0.128907 h -4.453125 c -0.125,0 -0.230469,-0.04297 -0.316406,-0.128906 -0.08594,-0.08984 -0.128907,-0.195312 -0.128907,-0.316406 V 26.453125 c 0,-0.121094 0.04297,-0.226563 0.128907,-0.316406 0.08594,-0.08594 0.191406,-0.128907 0.316406,-0.128907 h 3.117187 v 0.445313 c 0,0.175781 0.03125,0.347656 0.101563,0.511719 0.06641,0.164062 0.164062,0.308594 0.289062,0.433594 0.125,0.125 0.269532,0.222656 0.433594,0.289062 0.164062,0.06641 0.332031,0.101562 0.511719,0.101562 h 2.226562 c 0.121094,0 0.226563,-0.04297 0.3125,-0.128906 0.08984,-0.08984 0.132813,-0.195312 0.132813,-0.316406 0,-0.121094 0.04297,-0.226562 0.128906,-0.316406 0.08594,-0.08594 0.191406,-0.128906 0.316406,-0.128906 0.121094,0 0.226563,0.04297 0.3125,0.128906 0.08984,0.08984 0.132813,0.195312 0.132813,0.316406 0,0.121094 0.04297,0.226562 0.128906,0.316406 0.08594,0.08594 0.191406,0.128906 0.316406,0.128906 h 2.226563 c 0.175781,0 0.347656,-0.03516 0.511718,-0.101562 0.164063,-0.06641 0.308594,-0.164062 0.433594,-0.289062 0.125,-0.125 0.21875,-0.269532 0.289063,-0.433594 0.06641,-0.164063 0.101562,-0.335938 0.101562,-0.511719 v -0.445313 h 4.898438 c 0.121093,0 0.226562,0.04297 0.3125,0.128907 0.08984,0.08984 0.132812,0.195312 0.132812,0.316406 v 19.148437 h -6.234375 v -1.335937 c 0,-0.175781 -0.03516,-0.347656 -0.101562,-0.511719 -0.07031,-0.164062 -0.164063,-0.308594 -0.289063,-0.433594 -0.125,-0.125 -0.269531,-0.222656 -0.433593,-0.289062 -0.164063,-0.06641 -0.335938,-0.101562 -0.511719,-0.101562 h -0.890625 c -0.179688,0 -0.347656,0.03516 -0.511719,0.101562 -0.164063,0.06641 -0.308594,0.164062 -0.433594,0.289062 -0.125,0.125 -0.222656,0.269532 -0.289062,0.433594 -0.07031,0.164063 -0.101563,0.335938 -0.101563,0.511719 v 0.445313 h -0.445312 c -0.179688,0 -0.347656,0.03516 -0.511719,0.101562 -0.164063,0.06641 -0.308594,0.164062 -0.433594,0.289062 -0.125,0.125 -0.222656,0.269532 -0.289062,0.433594 -0.07031,0.164063 -0.101563,0.335938 -0.101563,0.511719 v 2.671875 c 0,0.175781 0.03125,0.347656 0.101563,0.511719 0.06641,0.164062 0.164062,0.308593 0.289062,0.433593 0.125,0.125 0.269531,0.222657 0.433594,0.289063 0.164063,0.06641 0.332031,0.101563 0.511719,0.101563 h 0.445312 V 50.5 c 0,0.152344 0.02734,0.300781 0.08203,0.445312 h -9.433594 c -0.125,0 -0.230469,-0.04297 -0.316406,-0.128906 C 25.5,50.726562 25.457031,50.621094 25.457031,50.5 Z m 11.578125,0.445312 h -0.445312 c -0.125,0 -0.230469,-0.04297 -0.316406,-0.128906 C 36.1875,50.726562 36.144531,50.621094 36.144531,50.5 v -3.5625 c 0,-0.121094 -0.04297,-0.226562 -0.132812,-0.316406 -0.08594,-0.08594 -0.191407,-0.128906 -0.3125,-0.128906 -0.125,0 -0.230469,0.04297 -0.316407,0.128906 -0.08594,0.08984 -0.128906,0.195312 -0.128906,0.316406 v 2.226562 h -0.445312 c -0.125,0 -0.230469,-0.04297 -0.316406,-0.128906 -0.08594,-0.08984 -0.128907,-0.195312 -0.128907,-0.316406 v -2.671875 c 0,-0.121094 0.04297,-0.226563 0.128907,-0.316406 0.08594,-0.08594 0.191406,-0.128907 0.316406,-0.128907 h 0.890625 c 0.121093,0 0.226562,-0.04297 0.3125,-0.128906 0.08984,-0.08984 0.132812,-0.195312 0.132812,-0.316406 v -0.890625 c 0,-0.121094 0.04297,-0.226563 0.128907,-0.316406 0.08594,-0.08594 0.191406,-0.128907 0.316406,-0.128907 h 0.890625 c 0.121093,0 0.226562,0.04297 0.3125,0.128907 0.08984,0.08984 0.132812,0.195312 0.132812,0.316406 V 50.5 c 0,0.121094 -0.04297,0.226562 -0.132812,0.316406 -0.08594,0.08594 -0.191407,0.128906 -0.3125,0.128906 z m 1.78125,-2.671874 v -1.78125 h 8.90625 v 1.78125 z M 50.394531,50.5 c 0,0.121094 -0.04297,0.226562 -0.132812,0.316406 -0.08594,0.08594 -0.191407,0.128906 -0.3125,0.128906 h -0.890625 c -0.125,0 -0.230469,-0.04297 -0.316406,-0.128906 C 48.65625,50.726562 48.613281,50.621094 48.613281,50.5 v -6.234375 c 0,-0.121094 0.04297,-0.226563 0.128907,-0.316406 0.08594,-0.08594 0.191406,-0.128907 0.316406,-0.128907 h 0.890625 c 0.121093,0 0.226562,0.04297 0.3125,0.128907 0.08984,0.08984 0.132812,0.195312 0.132812,0.316406 z m 1.78125,-1.78125 c 0,0.121094 -0.04297,0.226562 -0.132812,0.316406 -0.08594,0.08594 -0.191407,0.128906 -0.3125,0.128906 h -0.445313 v -3.5625 h 0.445313 c 0.121093,0 0.226562,0.04297 0.3125,0.128907 0.08984,0.08984 0.132812,0.195312 0.132812,0.316406 z m 0,0"
       fill-opacity="1"
       fill-rule="nonzero"
       id="path41569"
       style="stroke-width:0.619178" />
  </g>
  <path
     fill="#000000"
     d="m 36.2811,45.453763 h 4.527381 c 0.15389,0 0.287925,-0.05461 0.397138,-0.16382 0.114173,-0.114173 0.168784,-0.248211 0.168784,-0.402103 v -4.294062 l 0.963062,-0.963062 c 0.109216,-0.114172 0.163819,-0.243247 0.158855,-0.402102 0,-0.153892 -0.05461,-0.282961 -0.163819,-0.392175 -0.109217,-0.109216 -0.243249,-0.163819 -0.397139,-0.168783 -0.153891,0 -0.282962,0.05461 -0.397139,0.158855 l -0.963062,0.968025 H 36.2811 c -0.158856,0 -0.29289,0.05461 -0.402104,0.16382 -0.109217,0.114173 -0.16382,0.248212 -0.16382,0.402103 v 4.527381 c 0,0.153892 0.05461,0.287926 0.16382,0.402103 0.109216,0.109216 0.243248,0.16382 0.402104,0.16382 z m 0.565922,-4.527381 h 2.596294 l -1.30063,1.295665 c -0.114172,0.114173 -0.168783,0.248211 -0.173747,0.402103 0,0.158855 0.05461,0.29289 0.168783,0.407067 0.109217,0.114173 0.243248,0.168784 0.402103,0.16382 0.158855,0 0.29289,-0.05461 0.402104,-0.168785 l 1.300628,-1.300628 v 2.596293 h -3.395535 z m 0,0"
     fill-opacity="1"
     fill-rule="nonzero"
     id="path41573"
     style="stroke-width:1" />
  <path
     fill="#000000"
     d="m 42.337465,46.749428 c -0.109217,-0.109216 -0.243247,-0.163821 -0.397139,-0.163821 -0.158855,0 -0.29289,0.05461 -0.402103,0.163821 l -0.963062,0.968026 H 36.2811 c -0.158856,0 -0.29289,0.05461 -0.402104,0.163819 -0.109217,0.114173 -0.16382,0.248211 -0.16382,0.402103 v 4.527381 c 0,0.153891 0.05461,0.287925 0.16382,0.402103 0.109216,0.109216 0.243248,0.163819 0.402104,0.163819 h 4.527381 c 0.15389,0 0.287925,-0.05461 0.397138,-0.163819 0.114173,-0.114173 0.168784,-0.248212 0.168784,-0.402103 v -4.294062 l 0.963062,-0.963062 c 0.114172,-0.114172 0.168783,-0.248211 0.168783,-0.402102 0,-0.153892 -0.05461,-0.287927 -0.168783,-0.402103 z m -2.094908,5.495407 h -3.395535 v -3.395537 h 2.596294 l -1.30063,1.295666 c -0.114172,0.114172 -0.168783,0.248211 -0.173747,0.402102 0,0.158856 0.05461,0.292891 0.168783,0.407067 0.109217,0.114173 0.243248,0.168785 0.402103,0.163821 0.158855,0 0.29289,-0.05461 0.402104,-0.168785 l 1.300628,-1.300629 z m 0,0"
     fill-opacity="1"
     fill-rule="nonzero"
     id="path41575"
     style="stroke-width:1" />
  <path
     fill="#000000"
     d="m 45.335862,40.926382 h 7.922917 c 0.153891,0 0.287924,-0.05461 0.397138,-0.16382 0.114173,-0.114173 0.168784,-0.248211 0.168784,-0.402103 0,-0.153891 -0.05461,-0.287926 -0.168784,-0.402103 -0.109216,-0.109216 -0.243247,-0.16382 -0.397138,-0.16382 h -7.922917 c -0.158856,0 -0.29289,0.05461 -0.402104,0.16382 -0.109216,0.114173 -0.16382,0.248212 -0.16382,0.402103 0,0.153892 0.05461,0.287926 0.16382,0.402103 0.109216,0.109216 0.243248,0.16382 0.402104,0.16382 z m 0,0"
     fill-opacity="1"
     fill-rule="nonzero"
     id="path41577"
     style="stroke-width:1" />
  <path
     fill="#000000"
     d="m 44.204016,43.190073 h 9.054763 c 0.153891,0 0.287924,-0.05461 0.397138,-0.163821 0.114173,-0.114172 0.168784,-0.248211 0.168784,-0.402102 0,-0.153892 -0.05461,-0.287927 -0.168784,-0.402103 -0.109216,-0.109216 -0.243247,-0.163821 -0.397138,-0.163821 h -9.054763 c -0.158855,0 -0.29289,0.05461 -0.402102,0.163821 -0.109216,0.114173 -0.163821,0.248211 -0.163821,0.402103 0,0.153891 0.05461,0.287926 0.163821,0.402102 0.109216,0.109217 0.243247,0.163821 0.402102,0.163821 z m 0,0"
     fill-opacity="1"
     fill-rule="nonzero"
     id="path41579"
     style="stroke-width:1" />
  <path
     fill="#000000"
     d="m 44.204016,45.453763 h 7.922917 c 0.153891,0 0.287925,-0.05461 0.397139,-0.16382 0.114173,-0.114173 0.168783,-0.248211 0.168783,-0.402103 0,-0.153891 -0.05461,-0.287926 -0.168783,-0.402102 -0.109216,-0.109217 -0.243248,-0.163821 -0.397139,-0.163821 h -7.922917 c -0.158855,0 -0.29289,0.05461 -0.402102,0.163821 -0.109216,0.114172 -0.163821,0.248211 -0.163821,0.402102 0,0.153892 0.05461,0.287926 0.163821,0.402103 0.109216,0.109216 0.243247,0.16382 0.402102,0.16382 z m 0,0"
     fill-opacity="1"
     fill-rule="nonzero"
     id="path41581"
     style="stroke-width:1" />
  <path
     fill="#000000"
     d="m 53.258779,47.717454 h -7.922917 c -0.158856,0 -0.29289,0.05461 -0.402104,0.163819 -0.109216,0.114173 -0.16382,0.248211 -0.16382,0.402103 0,0.153891 0.05461,0.287925 0.16382,0.402102 0.109216,0.109217 0.243248,0.16382 0.402104,0.16382 h 7.922917 c 0.153891,0 0.287924,-0.05461 0.397138,-0.16382 0.114173,-0.114172 0.168784,-0.248211 0.168784,-0.402102 0,-0.153892 -0.05461,-0.287925 -0.168784,-0.402103 -0.109216,-0.109216 -0.243247,-0.163819 -0.397138,-0.163819 z m 0,0"
     fill-opacity="1"
     fill-rule="nonzero"
     id="path41583"
     style="stroke-width:1" />
  <path
     fill="#000000"
     d="m 44.204016,51.112988 h 9.054763 c 0.153891,0 0.287924,-0.05461 0.397138,-0.163819 0.114173,-0.114173 0.168784,-0.248211 0.168784,-0.402103 0,-0.153891 -0.05461,-0.287925 -0.168784,-0.402102 -0.109216,-0.109217 -0.243247,-0.16382 -0.397138,-0.16382 h -9.054763 c -0.158855,0 -0.29289,0.05461 -0.402102,0.16382 -0.109216,0.114172 -0.163821,0.248211 -0.163821,0.402102 0,0.153892 0.05461,0.287925 0.163821,0.402103 0.109216,0.109216 0.243247,0.163819 0.402102,0.163819 z m 0,0"
     fill-opacity="1"
     fill-rule="nonzero"
     id="path41585"
     style="stroke-width:1" />
  <path
     fill="#000000"
     d="m 44.204016,53.376679 h 7.922917 c 0.153891,0 0.287925,-0.05461 0.397139,-0.163819 0.114173,-0.114173 0.168783,-0.248212 0.168783,-0.402103 0,-0.153892 -0.05461,-0.287925 -0.168783,-0.402103 -0.109216,-0.109216 -0.243248,-0.163819 -0.397139,-0.163819 h -7.922917 c -0.158855,0 -0.29289,0.05461 -0.402102,0.163819 -0.109216,0.114173 -0.163821,0.248211 -0.163821,0.402103 0,0.153891 0.05461,0.287925 0.163821,0.402103 0.109216,0.109216 0.243247,0.163819 0.402102,0.163819 z m 0,0"
     fill-opacity="1"
     fill-rule="nonzero"
     id="path41587"
     style="stroke-width:1" />
  <path
     style="fill:#ffffff;stroke-width:0.99975;stroke-linecap:round;stroke-linejoin:round"
     d="m 34.346151,91.062335 c -0.140987,-0.08008 -0.44086,-1.52099 -0.818695,-3.933773 -0.327922,-2.094062 -0.630657,-3.843587 -0.672739,-3.887841 -0.04208,-0.04425 -0.878848,-0.474217 -1.859478,-0.955472 -2.02687,-0.994721 -4.099315,-2.208183 -5.519926,-3.232031 l -0.97068,-0.699583 -0.744461,0.308241 c -0.409454,0.169531 -2.079424,0.835516 -3.711045,1.479969 l -2.966586,1.171744 -1.283786,-1.259936 c -0.706083,-0.692962 -1.340263,-1.359075 -1.409289,-1.480253 -0.09653,-0.169465 0.203369,-1.062206 1.299255,-3.867565 L 17.11348,71.058593 16.677081,70.459045 C 15.083574,68.269822 13.672844,65.856034 12.515098,63.337802 L 12.218431,62.692518 8.3342173,62.125701 C 5.2147025,61.670474 4.4253417,61.513814 4.324736,61.329963 4.1508282,61.012156 3.3095061,57.859187 3.3537139,57.690926 c 0.019814,-0.07541 1.3998958,-1.236149 3.066849,-2.579413 l 3.0308237,-2.442298 -0.1646129,-2.52269 c -0.090537,-1.387479 -0.099693,-3.482996 -0.020348,-4.656702 0.079346,-1.173706 0.1231218,-2.24222 0.09728,-2.374476 C 9.3378641,42.983091 7.9610872,41.803341 6.3042007,40.49368 L 3.2916796,38.112479 3.8163303,36.115588 4.3409814,34.118695 8.1389953,33.517781 c 2.0889077,-0.330504 3.8660617,-0.665629 3.9492297,-0.744722 0.08317,-0.0791 0.292105,-0.49815 0.464303,-0.931232 0.475349,-1.195512 2.458546,-4.702348 3.444803,-6.091357 l 0.876486,-1.234411 -0.342567,-0.878634 c -0.188412,-0.483248 -0.820152,-2.076021 -1.403866,-3.539492 -0.583714,-1.463471 -1.07257,-2.763404 -1.086347,-2.888739 -0.01864,-0.16958 2.224214,-2.617549 2.675938,-2.920657 0.0365,-0.02449 1.724809,0.592757 3.751797,1.371664 l 3.685433,1.416195 0.662753,-0.444916 c 2.948361,-1.979271 5.360823,-3.36998 7.253497,-4.181411 l 0.490863,-0.210446 0.518548,-3.4868665 c 0.2852,-1.9177769 0.538285,-3.6975178 0.562411,-3.9549794 0.04298,-0.4587402 0.08287,-0.4784812 1.992194,-0.9860523 l 1.948332,-0.5179407 0.367651,0.4359656 c 0.202209,0.2397814 1.263585,1.5507449 2.358613,2.9132536 1.095028,1.3625077 2.058354,2.5473901 2.140725,2.6330709 0.08237,0.085679 1.094682,0.092092 2.24958,0.014248 2.055477,-0.1385471 4.43706,-0.12597 6.552569,0.034604 l 1.059077,0.080388 2.45945,-3.1264493 2.459451,-3.1264485 1.945608,0.5541679 1.945608,0.5541681 0.611049,3.8965254 0.611051,3.8965262 1.865773,0.902374 c 1.944349,0.940376 3.838845,2.037773 5.555816,3.218237 l 1.008325,0.693251 3.681855,-1.458082 3.681854,-1.458083 0.372435,0.33611 c 0.20484,0.184861 0.836495,0.804881 1.40368,1.377822 1.224272,1.236696 1.2608,0.760864 -0.378662,4.9328 -0.639333,1.626915 -1.207034,3.124244 -1.261557,3.327402 -0.07422,0.276603 0.05395,0.563985 0.510358,1.144197 0.797574,1.013929 3.299337,5.295359 3.776664,6.463247 0.306888,0.750875 0.452502,0.934933 0.815873,1.031268 0.243263,0.06453 2.01813,0.346756 3.944121,0.627247 l 3.501819,0.509986 0.173247,0.415676 c 0.09528,0.228618 0.350253,1.107705 0.566587,1.953521 l 0.393353,1.537851 -2.941652,2.376972 c -1.617908,1.307334 -3.005751,2.44025 -3.084091,2.517594 -0.07833,0.07735 -0.07777,0.846729 0.0013,1.709751 0.173068,1.889649 0.168426,5.148488 -0.0097,6.824332 l -0.129789,1.220971 3.101827,2.450782 3.101833,2.450784 -0.476342,1.977125 -0.476342,1.977125 -1.746328,0.272116 c -0.960482,0.149661 -2.737192,0.428183 -3.948256,0.618932 l -2.20193,0.346819 -0.470857,1.08683 c -0.6455,1.489926 -1.999285,3.908124 -3.119632,5.572443 -0.513335,0.762574 -0.987576,1.477143 -1.053867,1.587933 -0.06759,0.112924 0.5188,1.801889 1.334563,3.843986 0.800308,2.003405 1.445884,3.677649 1.434615,3.720542 -0.02702,0.102852 -2.541042,2.639819 -2.720358,2.745185 -0.07639,0.04488 -1.784861,-0.557865 -3.796647,-1.339434 l -3.657782,-1.421032 -0.759674,0.525483 c -2.421718,1.675167 -4.68403,2.993329 -6.866187,4.000665 l -0.776152,0.35829 -0.525665,3.57322 c -0.289118,1.965275 -0.571579,3.746824 -0.627695,3.959002 -0.0874,0.33028 -0.300638,0.439845 -1.482855,0.761689 -0.759456,0.206757 -1.60733,0.439517 -1.884169,0.517259 l -0.50334,0.141343 -2.509809,-3.108504 -2.509805,-3.108511 -1.212686,0.123914 c -2.25738,0.230667 -5.149411,0.220674 -7.936132,-0.02742 l -0.534637,-0.0476 -2.430516,3.0808 c -1.856482,2.353185 -2.505775,3.081213 -2.749175,3.082557 -0.367297,0.002 -3.108503,-0.729555 -3.440651,-0.918243 z m 9.460423,-9.305151 c 11.109251,1.172895 21.849505,-2.918067 29.32538,-11.170038 3.568487,-3.938941 5.821929,-8.000547 7.352451,-13.252063 1.296508,-4.448575 1.664978,-7.622826 1.386622,-11.945247 C 81.52904,40.079338 80.024209,35.151873 77.322316,30.495397 75.187882,26.816885 73.069272,24.24992 69.954437,21.568276 60.118199,13.099998 46.404111,10.95594 34.282734,15.991367 c -1.883966,0.782632 -5.208591,2.670938 -6.936624,3.939834 -5.180972,3.80439 -9.148562,8.920082 -11.670258,15.047278 -0.799324,1.942194 -1.907152,6.32792 -2.153454,8.525208 -1.119008,9.982786 1.9313,19.595116 8.590657,27.071442 3.760598,4.221942 8.356947,7.29088 14.27879,9.533801 1.14777,0.434719 5.876134,1.485854 7.414729,1.648254 z"
     id="path6559"
     sodipodi:insensitive="true" />
</svg>
