<?xml version="1.0" encoding="UTF-8" standalone="no"?>
<svg
   width="126.99999"
   zoomAndPan="magnify"
   viewBox="0 0 95.25 95.24999"
   height="126.99999"
   preserveAspectRatio="xMidYMid"
   version="1.0"
   id="svg45645"
   sodipodi:docname="what_section_gear_lg_nutrition.svg"
   inkscape:version="1.2.1 (9c6d41e410, 2022-07-14)"
   xmlns:inkscape="http://www.inkscape.org/namespaces/inkscape"
   xmlns:sodipodi="http://sodipodi.sourceforge.net/DTD/sodipodi-0.dtd"
   xmlns="http://www.w3.org/2000/svg"
   xmlns:svg="http://www.w3.org/2000/svg">
  <sodipodi:namedview
     id="namedview45647"
     pagecolor="#ffffff"
     bordercolor="#111111"
     borderopacity="1"
     inkscape:showpageshadow="0"
     inkscape:pageopacity="0"
     inkscape:pagecheckerboard="1"
     inkscape:deskcolor="#d1d1d1"
     showgrid="false"
     inkscape:zoom="4.99"
     inkscape:cx="109.71944"
     inkscape:cy="68.436874"
     inkscape:window-width="2560"
     inkscape:window-height="1361"
     inkscape:window-x="-9"
     inkscape:window-y="-9"
     inkscape:window-maximized="1"
     inkscape:current-layer="svg45645" />
  <defs
     id="defs45591">
    <clipPath
       id="0d3d30dcb1">
      <path
         d="M 0,0 H 74.25 V 75 H 0 Z m 0,0"
         clip-rule="nonzero"
         id="path45576" />
    </clipPath>
    <clipPath
       id="9ddfed11d9">
      <path
         d="M 40,20.945312 H 53.945312 V 40 H 40 Z m 0,0"
         clip-rule="nonzero"
         id="path45579" />
    </clipPath>
    <clipPath
       id="856246fff3">
      <path
         d="M 36,40 H 53.945312 V 53.945312 H 36 Z m 0,0"
         clip-rule="nonzero"
         id="path45582" />
    </clipPath>
    <clipPath
       id="86437c3da5">
      <path
         d="M 20.945312,22 H 38 V 39 H 20.945312 Z m 0,0"
         clip-rule="nonzero"
         id="path45585" />
    </clipPath>
    <clipPath
       id="ec829baadb">
      <path
         d="M 20.945312,40 H 36 V 53.945312 H 20.945312 Z m 0,0"
         clip-rule="nonzero"
         id="path45588" />
    </clipPath>
    <clipPath
       id="02e5070d0a">
      <path
         d="m 38.394531,40.144531 h 10 v 11 h -10 z m 0,0"
         clip-rule="nonzero"
         id="path48756" />
    </clipPath>
    <clipPath
       id="81867fef19">
      <path
         d="m 47.148438,38.210938 h 6 v 12.933593 h -6 z m 0,0"
         clip-rule="nonzero"
         id="path48759" />
    </clipPath>
    <clipPath
       id="64f756d22e">
      <path
         d="m 25.402344,24.148438 h 19.65625 v 26.996093 h -19.65625 z m 0,0"
         clip-rule="nonzero"
         id="path48762" />
    </clipPath>
  </defs>
  <path
     fill="#dde0f9"
     d="m 47.624999,13.634447 c 18.760084,0 33.990551,15.230468 33.990551,33.990552 0,18.760084 -15.230467,33.990551 -33.990551,33.990551 -18.760085,0 -33.990552,-15.230467 -33.990552,-33.990551 0,-18.760084 15.230467,-33.990552 33.990552,-33.990552 z M 50.459613,0.0819135 c -1.886433,-0.109218 -3.782796,-0.109218 -5.669229,0 l -3.286365,7.525876 c -2.938865,0.451752 -5.818158,1.221217 -8.583272,2.2984688 L 26.3083,5.0362825 c -1.692825,0.843931 -3.331043,1.792113 -4.90969,2.834615 l 0.913431,8.1613055 c -2.318328,1.856647 -4.423191,3.96151 -6.279838,6.279838 L 7.8708975,21.39861 c -1.042502,1.578647 -1.990684,3.216865 -2.834615,4.90969 l 4.874942,6.612447 c -1.082218,2.765114 -1.851683,5.644407 -2.303435,8.578308 l -7.525876,3.291329 c -0.109218,1.886433 -0.109218,3.782796 0,5.669229 l 7.525876,3.286365 c 0.451752,2.938865 1.221217,5.818158 2.303435,8.583272 l -4.874942,6.612447 c 0.843931,1.68786 1.792113,3.331043 2.834615,4.909691 l 8.1613055,-0.913431 c 1.856647,2.318327 3.96151,4.42319 6.279838,6.279837 l -0.913431,8.161308 c 1.578647,1.0425 3.22183,1.98572 4.90969,2.83461 l 6.612447,-4.87494 c 2.765114,1.08222 5.644407,1.85168 8.583272,2.30344 l 3.286365,7.52587 c 1.886433,0.10922 3.782796,0.10922 5.669229,0 l 3.286365,-7.52587 c 2.938865,-0.45176 5.818158,-1.22122 8.583272,-2.30344 l 6.612447,4.87494 c 1.692825,-0.84393 3.331043,-1.79211 4.909691,-2.83461 l -0.913431,-8.161308 c 2.318327,-1.856647 4.42319,-3.96151 6.279837,-6.279837 l 8.161306,0.913431 c 1.042503,-1.578648 1.990684,-3.221831 2.834615,-4.909691 L 85.338773,62.32925 c 1.082218,-2.765114 1.851683,-5.644407 2.303435,-8.583272 l 7.525876,-3.286365 c 0.109218,-1.886433 0.109218,-3.782796 0,-5.669229 L 87.642208,41.504019 C 87.190456,38.565154 86.420991,35.685861 85.338773,32.920747 L 90.213715,26.3083 C 89.369784,24.62044 88.421603,22.977257 87.3791,21.39861 l -8.161306,0.918396 C 77.361147,19.993713 75.256284,17.88885 72.937957,16.032203 L 73.851388,7.8708975 C 72.27274,6.8283955 70.629557,5.8851775 68.941697,5.0362825 L 62.32925,9.9112243 C 59.564136,8.8290065 56.684843,8.0595415 53.745978,7.6077895 Z m 0,0"
     fill-opacity="1"
     fill-rule="evenodd"
     id="path48767"
     style="stroke-width:0.999999;fill:#e8ebfa;fill-opacity:1" />
  <g
     clip-path="url(#02e5070d0a)"
     id="g48771"
     transform="matrix(1.2708604,0,0,1.2708604,-0.0322695,-0.0322655)"
     style="stroke-width:0.786868">
    <path
       fill="#000000"
       d="m 45.300781,50.222656 c -0.191406,0.07031 -0.40625,0.09375 -0.613281,0.06641 -0.851562,-0.148437 -1.710938,-0.148437 -2.5625,0 -0.207031,0.02734 -0.421875,0.0039 -0.613281,-0.06641 -1.035157,-0.378906 -2.25,-1.46875 -2.25,-3.296875 0,-1.511719 0.46875,-2.65625 1.28125,-3.140625 0.6875,-0.40625 1.609375,-0.332031 2.597656,0.210938 0.0039,0 0.0039,0 0.0078,0.0039 0.0625,0.03125 0.128906,0.05078 0.195312,0.05859 0.02344,0.0039 0.04297,0.0039 0.0625,0.0039 0.01953,0 0.04297,0 0.0625,-0.0039 0.07031,-0.0078 0.136719,-0.02734 0.195312,-0.05859 0.0039,-0.0039 0.0039,-0.0039 0.0078,-0.0039 0.988281,-0.542969 1.910156,-0.617188 2.597656,-0.210938 0.8125,0.484375 1.28125,1.628906 1.28125,3.140625 0,1.828125 -1.210937,2.917969 -2.25,3.296875 z m -2.625,-7.742187 c 0.03906,0.09375 0.07422,0.191406 0.105469,0.28125 -0.496094,-0.417969 -0.746094,-0.898438 -0.867188,-1.269531 0.308594,0.199218 0.5625,0.527343 0.761719,0.988281 z m 4.023438,0.582031 c -0.761719,-0.449219 -1.691407,-0.496094 -2.675781,-0.148438 0.0625,-0.1875 0.148437,-0.394531 0.257812,-0.601562 0.460938,-0.867188 1.117188,-1.304688 1.960938,-1.304688 0.234374,0 0.421874,-0.191406 0.421874,-0.421874 0,-0.234376 -0.1875,-0.421876 -0.421874,-0.421876 -1.160157,0 -2.097657,0.605469 -2.703126,1.753907 -0.03516,0.06641 -0.07031,0.136719 -0.101562,0.207031 -0.433594,-0.992188 -1.128906,-1.574219 -2.015625,-1.683594 -0.117187,-0.01563 -0.238281,0.02344 -0.328125,0.101563 -0.08984,0.08203 -0.144531,0.195312 -0.144531,0.316406 0,0.05469 0.0078,0.570313 0.292969,1.214844 0.07812,0.1875 0.191406,0.394531 0.339843,0.609375 -0.53125,-0.0078 -1.027343,0.117187 -1.46875,0.378906 -1.089843,0.648438 -1.691406,2.019531 -1.691406,3.863281 0,2.261719 1.507813,3.613281 2.804687,4.085938 0.320313,0.117187 0.671876,0.15625 1.015626,0.113281 0.0039,0 0.01172,-0.0039 0.01953,-0.0039 0.757812,-0.136719 1.53125,-0.136719 2.289062,0 0.0078,0 0.01563,0.0039 0.01953,0.0039 0.09375,0.01172 0.1875,0.01563 0.277344,0.01563 0.253906,0 0.503906,-0.04297 0.738282,-0.128906 1.296874,-0.472657 2.804687,-1.824219 2.804687,-4.085938 0,-1.84375 -0.601563,-3.214843 -1.691406,-3.863281"
       fill-opacity="1"
       fill-rule="nonzero"
       id="path48769"
       style="stroke-width:0.619162" />
  </g>
  <g
     clip-path="url(#81867fef19)"
     id="g48775"
     transform="matrix(1.2708604,0,0,1.2708604,-0.0322695,-0.0322655)"
     style="stroke-width:0.786868">
    <path
       fill="#000000"
       d="m 48.023438,39.324219 c 0.164062,0.04687 0.308593,0.132812 0.429687,0.253906 0.253906,0.265625 0.378906,0.675781 0.4375,1.023437 -0.332031,-0.121093 -0.574219,-0.300781 -0.714844,-0.53125 -0.152343,-0.25 -0.167969,-0.53125 -0.152343,-0.746093 z m 4.421874,6.828125 c -0.53125,-0.722656 -0.640624,-1.523438 -0.753906,-2.375 -0.07422,-0.550782 -0.152344,-1.121094 -0.355468,-1.652344 -0.160157,-0.414062 -0.4375,-0.765625 -0.808594,-1.015625 -0.195313,-0.136719 -0.414063,-0.234375 -0.640625,-0.300781 0.195312,-0.523438 0.699219,-1.414063 1.917969,-1.769532 0.222656,-0.0625 0.351562,-0.296874 0.285156,-0.519531 -0.0625,-0.222656 -0.296875,-0.351562 -0.519532,-0.289062 -1.0625,0.3125 -1.695312,0.945312 -2.058593,1.480469 -0.105469,-0.253907 -0.25,-0.503907 -0.453125,-0.714844 -0.359375,-0.367188 -0.820313,-0.554688 -1.375,-0.554688 -0.179688,0 -0.339844,0.113282 -0.398438,0.28125 -0.01172,0.03906 -0.320312,0.957032 0.167969,1.773438 0.144531,0.246094 0.34375,0.449218 0.589844,0.617187 -0.332031,0.230469 -0.601563,0.550781 -0.769531,0.9375 -0.08984,0.214844 0.0078,0.464844 0.222656,0.554688 0.214844,0.08984 0.460937,-0.0078 0.550781,-0.222657 0.210937,-0.492187 0.699219,-0.8125 1.242187,-0.8125 0.277344,0 0.539063,0.08203 0.765626,0.234376 0.226562,0.152343 0.398437,0.371093 0.496093,0.621093 0.167969,0.441407 0.234375,0.9375 0.304688,1.460938 0.117187,0.878906 0.253906,1.871093 0.914062,2.765625 0.417969,0.5625 0.601563,1.238281 0.519531,1.902344 C 52.234375,49 52.007812,49.375 51.609375,49.667969 c -0.746094,0.550781 -2.066406,0.773437 -3.28125,0.550781 -0.230469,-0.04297 -0.449219,0.109375 -0.488281,0.335938 -0.04297,0.230468 0.109375,0.449218 0.335937,0.492187 0.367188,0.06641 0.738281,0.09766 1.105469,0.09766 1.085938,0 2.125,-0.285156 2.828125,-0.800781 0.582031,-0.429688 0.933594,-1.011719 1.015625,-1.6875 0.105469,-0.878906 -0.132812,-1.769531 -0.679688,-2.503906"
       fill-opacity="1"
       fill-rule="nonzero"
       id="path48773"
       style="stroke-width:0.619162" />
  </g>
  <path
     fill="#000000"
     d="m 54.252337,38.724012 h -9.695274 c -0.297859,0 -0.536146,0.238286 -0.536146,0.536144 0,0.292894 0.238287,0.53118 0.536146,0.53118 h 9.695274 c 0.292893,0 0.536145,-0.238286 0.536145,-0.53118 0,-0.297858 -0.243252,-0.536144 -0.536145,-0.536144"
     fill-opacity="1"
     fill-rule="nonzero"
     id="path48777"
     style="stroke-width:0.999999" />
  <path
     fill="#000000"
     d="m 54.242408,42.139449 h -9.675417 c -0.292894,0 -0.536144,0.238286 -0.536144,0.536144 0,0.292894 0.24325,0.531181 0.536144,0.531181 h 9.675417 c 0.292894,0 0.53118,-0.238287 0.53118,-0.531181 0,-0.297858 -0.238286,-0.536144 -0.53118,-0.536144"
     fill-opacity="1"
     fill-rule="nonzero"
     id="path48779"
     style="stroke-width:0.999999" />
  <path
     fill="#000000"
     d="m 54.23248,45.554886 h -9.655561 c -0.292893,0 -0.531179,0.238287 -0.531179,0.536145 0,0.292894 0.238286,0.53118 0.531179,0.53118 h 9.655561 c 0.292894,0 0.53118,-0.238286 0.53118,-0.53118 0,-0.297858 -0.238286,-0.536145 -0.53118,-0.536145"
     fill-opacity="1"
     fill-rule="nonzero"
     id="path48781"
     style="stroke-width:0.999999" />
  <path
     fill="#000000"
     d="M 47.620035,48.970324 H 35.333396 c -0.297858,0 -0.536145,0.238286 -0.536145,0.536144 0,0.292894 0.238287,0.53118 0.536145,0.53118 h 12.286639 c 0.297858,0 0.536144,-0.238286 0.536144,-0.53118 0,-0.297858 -0.238286,-0.536144 -0.536144,-0.536144"
     fill-opacity="1"
     fill-rule="nonzero"
     id="path48783"
     style="stroke-width:0.999999" />
  <path
     fill="#000000"
     d="M 47.620035,52.385761 H 35.353253 c -0.292894,0 -0.536144,0.238286 -0.536144,0.536144 0,0.292894 0.24325,0.531181 0.536144,0.531181 h 12.266782 c 0.297858,0 0.536144,-0.238287 0.536144,-0.531181 0,-0.297858 -0.238286,-0.536144 -0.536144,-0.536144"
     fill-opacity="1"
     fill-rule="nonzero"
     id="path48785"
     style="stroke-width:0.999999" />
  <path
     fill="#000000"
     d="M 47.620035,55.801198 H 35.37311 c -0.292894,0 -0.53118,0.238287 -0.53118,0.536145 0,0.292894 0.238286,0.53118 0.53118,0.53118 h 12.246925 c 0.297858,0 0.536144,-0.238286 0.536144,-0.53118 0,-0.297858 -0.238286,-0.536145 -0.536144,-0.536145"
     fill-opacity="1"
     fill-rule="nonzero"
     id="path48787"
     style="stroke-width:0.999999" />
  <path
     fill="#000000"
     d="m 42.139449,60.28396 c 0.292893,0 0.536144,-0.238286 0.536144,-0.53118 0,-0.297858 -0.243251,-0.536144 -0.536144,-0.536144 H 35.37311 c -0.292894,0 -0.53118,0.238286 -0.53118,0.536144 0,0.292894 0.238286,0.53118 0.53118,0.53118 h 6.766339"
     fill-opacity="1"
     fill-rule="nonzero"
     id="path48789"
     style="stroke-width:0.999999" />
  <g
     clip-path="url(#64f756d22e)"
     id="g48793"
     transform="matrix(1.2708604,0,0,1.2708604,-0.0322695,-0.0322655)"
     style="stroke-width:0.786868">
    <path
       fill="#000000"
       d="M 29.882812,26.746094 C 30.015625,26.613281 30.1875,26.542969 30.375,26.542969 h 9.632812 c 0.386719,0 0.703126,0.3125 0.707032,0.695312 0,0 0,0 0,0.0039 0,0.1875 -0.07031,0.359374 -0.199219,0.492187 -0.132813,0.132813 -0.304687,0.203125 -0.492187,0.203125 h -9.632813 c -0.386719,0 -0.703125,-0.3125 -0.707031,-0.699219 0,-0.1875 0.07031,-0.359375 0.199218,-0.492187 z m 3.101563,-1.238282 c 0.332031,-0.332031 0.773437,-0.515624 1.246094,-0.515624 h 1.90625 c 0.5625,0 1.089843,0.273437 1.421875,0.707031 h -4.738282 c 0.04688,-0.06641 0.101563,-0.128907 0.164063,-0.191407 z m 4.511719,24.789063 h -9.816406 c -0.746094,0 -1.367188,-0.582031 -1.414063,-1.324219 0,-0.21875 -0.0039,-3.191406 -0.01172,-9.253906 -0.0039,-5.367188 -0.01172,-11.082031 -0.01172,-11.105469 0,-0.253906 0.09766,-0.492187 0.273437,-0.671875 0.179687,-0.179687 0.417969,-0.28125 0.675781,-0.28125 h 1.710938 c 0.1875,0.644532 0.785156,1.121094 1.488281,1.121094 h 9.632813 c 0.414062,0 0.796874,-0.160156 1.089843,-0.453125 0.1875,-0.1875 0.316407,-0.417969 0.386719,-0.667969 h 1.707031 c 0.523438,0 0.964844,0.4375 0.964844,0.960938 0.0039,0.5 0.02344,5.855468 0.04297,10.621094 0,0.230468 0.1875,0.417968 0.417968,0.417968 0,0 0.0039,0 0.0039,0 0.230469,0 0.417969,-0.1875 0.417969,-0.421875 -0.01563,-4.765625 -0.03516,-10.121093 -0.03906,-10.621093 0,-0.992188 -0.8125,-1.796876 -1.808594,-1.796876 h -1.710937 c -0.1875,-0.644531 -0.785156,-1.121093 -1.488282,-1.121093 H 38.53125 C 38.347656,25.296875 38.0625,24.9375 37.707031,24.671875 c -0.457031,-0.339844 -1,-0.523437 -1.570312,-0.523437 h -1.90625 c -0.699219,0 -1.351563,0.273437 -1.84375,0.765624 -0.226563,0.226563 -0.40625,0.496094 -0.535157,0.785157 H 30.375 c -0.410156,0 -0.796875,0.164062 -1.085938,0.453125 -0.1875,0.1875 -0.320312,0.417968 -0.390624,0.667968 h -1.707032 c -0.480468,0 -0.933594,0.1875 -1.269531,0.527344 -0.339844,0.339844 -0.523437,0.792969 -0.519531,1.269532 0,0.0039 0.0039,4.398437 0.01172,11.105468 0.0039,4.757813 0.01172,9.25 0.01172,9.265625 0,0.0078 0,0.01563 0,0.02344 0.06641,1.191406 1.058594,2.128906 2.253907,2.128906 h 9.816406 c 0.234375,0 0.421875,-0.191406 0.421875,-0.421875 0,-0.234375 -0.1875,-0.421875 -0.421875,-0.421875"
       fill-opacity="1"
       fill-rule="nonzero"
       id="path48791"
       style="stroke-width:0.619162" />
  </g>
  <path
     fill="#000000"
     d="m 41.677768,42.655736 c 0.005,0.799252 -0.302821,1.548861 -0.863787,2.114791 -0.565931,0.56593 -1.310575,0.87868 -2.109826,0.87868 h -0.0099 c -1.62829,0 -2.958722,-1.325467 -2.973615,-2.953756 -0.005,-0.799252 0.302823,-1.553826 0.863788,-2.119756 0.56593,-0.565931 1.315539,-0.878681 2.109827,-0.878681 h 0.0099 c 1.628289,0 2.963685,1.330432 2.973613,2.958722 z M 38.694225,38.62969 c -1.082216,0 -2.099898,0.421965 -2.8644,1.196395 -0.764501,0.769467 -1.181503,1.787148 -1.176538,2.87433 0.0099,1.077252 0.431893,2.085005 1.191432,2.844542 0.764501,0.754574 1.777218,1.176539 2.849506,1.176539 h 0.0099 c 1.082217,0 2.099897,-0.426929 2.8644,-1.196396 0.764503,-0.769465 1.181502,-1.792111 1.176538,-2.874328 -0.005,-1.077253 -0.431894,-2.085006 -1.191431,-2.844544 -0.764485,-0.759537 -1.777202,-1.176538 -2.84949,-1.176538 h -0.0099"
     fill-opacity="1"
     fill-rule="nonzero"
     id="path48795"
     style="stroke-width:0.999999" />
  <path
     fill="#000000"
     d="m 38.163046,40.977803 v 1.161646 h -1.156682 c -0.297858,0 -0.536144,0.238286 -0.536144,0.536144 0,0.292894 0.238286,0.536145 0.536144,0.536145 h 1.156682 v 1.156681 c 0,0.297858 0.243251,0.536144 0.536143,0.536144 0.29786,0 0.536146,-0.238286 0.536146,-0.536144 v -1.156681 h 1.156681 c 0.297858,0 0.536144,-0.243251 0.536144,-0.536145 0,-0.297858 -0.238286,-0.536144 -0.536144,-0.536144 h -1.156681 v -1.161646 c 0,-0.292894 -0.238286,-0.536145 -0.536146,-0.536145 -0.292892,0 -0.536143,0.243251 -0.536143,0.536145"
     fill-opacity="1"
     fill-rule="nonzero"
     id="path48797"
     style="stroke-width:0.999999" />
</svg>
