<?xml version="1.0" encoding="UTF-8" standalone="no"?>
<svg
   width="123.00002"
   zoomAndPan="magnify"
   viewBox="0 0 92.250011 92.25"
   height="123.00001"
   preserveAspectRatio="xMidYMid"
   version="1.0"
   id="svg9866"
   sodipodi:docname="what_section_gear_lg_health.svg"
   inkscape:version="1.2.1 (9c6d41e410, 2022-07-14)"
   xmlns:inkscape="http://www.inkscape.org/namespaces/inkscape"
   xmlns:sodipodi="http://sodipodi.sourceforge.net/DTD/sodipodi-0.dtd"
   xmlns="http://www.w3.org/2000/svg"
   xmlns:svg="http://www.w3.org/2000/svg">
  <sodipodi:namedview
     id="namedview9868"
     pagecolor="#ffffff"
     bordercolor="#111111"
     borderopacity="1"
     inkscape:showpageshadow="0"
     inkscape:pageopacity="0"
     inkscape:pagecheckerboard="1"
     inkscape:deskcolor="#d1d1d1"
     showgrid="false"
     inkscape:zoom="3.5284628"
     inkscape:cx="-19.413553"
     inkscape:cy="35.001078"
     inkscape:window-width="2560"
     inkscape:window-height="1361"
     inkscape:window-x="-9"
     inkscape:window-y="-9"
     inkscape:window-maximized="1"
     inkscape:current-layer="svg9866" />
  <defs
     id="defs9842">
    <clipPath
       id="004468400f">
      <path
         d="M 21,24.273438 H 54 V 53 H 21 Z m 0,0"
         clip-rule="nonzero"
         id="path9836" />
    </clipPath>
    <clipPath
       id="0b3a2f3b81">
      <path
         d="M 31,32 H 54 V 55.023438 H 31 Z m 0,0"
         clip-rule="nonzero"
         id="path9839" />
    </clipPath>
  </defs>
  <path
     fill="#dde0f9"
     d="M 55.018111,14.428968 C 72.511799,19.337258 82.729318,37.524416 77.821029,55.018104 72.912739,72.511792 54.725581,82.729311 37.231892,77.821022 19.738205,72.912732 9.5206856,54.725574 14.428975,37.231886 19.337265,19.738198 37.524423,9.5206785 55.018111,14.428968 Z M 61.207189,2.5329297 C 59.476672,1.9375372 57.708323,1.4413831 55.92066,1.0496625 L 50.887109,7.2076784 C 48.028439,6.8600268 45.142193,6.8242253 42.28189,7.1053088 L 37.38997,0.83403317 C 35.590618,1.1780938 33.81491,1.6336531 32.070073,2.1927526 L 30.786564,10.042116 C 28.13897,11.166875 25.62549,12.578945 23.28762,14.255011 L 15.916227,11.26796 c -1.385157,1.199326 -2.697946,2.478879 -3.92781,3.836629 l 2.815814,7.44153 c -1.732613,2.29531 -3.203458,4.778918 -4.392324,7.396571 l -7.8789705,1.100118 c -0.5953988,1.730516 -1.0915529,3.498865 -1.4832672,5.286529 l 6.1580166,5.03355 c -0.3476526,2.85867 -0.3834537,5.744918 -0.09774,8.606518 l -6.275906,4.890623 c 0.3453594,1.794722 0.7996204,3.575059 1.3587192,5.319896 l 7.8493643,1.28351 c 1.124759,2.647593 2.536828,5.161073 4.212895,7.498942 l -2.987052,7.371393 c 1.199327,1.385159 2.484808,2.694618 3.836629,3.927811 l 7.441529,-2.815813 c 2.29531,1.732613 4.77892,3.203458 7.401201,4.393623 l 1.09549,7.877672 c 1.730515,0.595403 3.498863,1.091557 5.286528,1.483268 l 5.03355,-6.158018 c 2.858672,0.347653 5.744918,0.383454 8.606518,0.09774 l 4.890623,6.275905 c 1.799352,-0.344061 3.57506,-0.79962 5.319897,-1.35872 l 1.28351,-7.849364 c 2.647592,-1.124759 5.161073,-2.536828 7.498942,-4.212895 l 7.371393,2.987053 c 1.385158,-1.199328 2.699247,-2.483511 3.927811,-3.836629 l -2.815813,-7.441531 c 1.732611,-2.295309 3.203458,-4.778919 4.393623,-7.401201 l 7.877672,-1.095489 c 0.595404,-1.730514 1.091558,-3.498862 1.483267,-5.286529 l -6.158017,-5.03355 c 0.347653,-2.85867 0.383452,-5.744916 0.09774,-8.606517 l 6.275905,-4.890622 c -0.34536,-1.794723 -0.799621,-3.575061 -1.358721,-5.319897 l -7.850662,-1.278881 c -1.12346,-2.652222 -2.53553,-5.165703 -4.211596,-7.503572 l 2.987052,-7.371393 c -1.199327,-1.385157 -2.48481,-2.694617 -3.836629,-3.92781 l -7.441531,2.815813 C 67.408569,13.071611 64.924961,11.600766 62.302677,10.4106 Z m 0,0"
     fill-opacity="1"
     fill-rule="evenodd"
     id="path9844"
     style="stroke-width:1;fill:#e8ebfa;fill-opacity:1" />
  <g
     clip-path="url(#004468400f)"
     id="g9848"
     transform="matrix(1.2308334,0,0,1.2308334,-0.03125162,-0.03125637)"
     style="stroke-width:0.812459">
    <path
       fill="#000000"
       d="m 37.914062,52.3125 c -0.09375,0.09375 -0.21875,0.148438 -0.355468,0.148438 -0.132813,0 -0.257813,-0.05469 -0.355469,-0.152344 L 24.089844,39.296875 c -0.554688,-0.558594 -1.019532,-1.210937 -1.390625,-1.929687 h 4.457031 c 0.09766,0 0.1875,-0.05469 0.230469,-0.144532 l 1.078125,-2.210937 2.394531,2.464843 c 0.0625,0.06641 0.152344,0.09375 0.242187,0.07031 0.08594,-0.01953 0.15625,-0.08594 0.183594,-0.171875 l 1.574219,-4.996094 0.125,2.628906 c 0.15625,-0.167968 0.320313,-0.332031 0.488281,-0.488281 l -0.171875,-3.597656 c -0.0078,-0.125 -0.101562,-0.226563 -0.222656,-0.242187 -0.125,-0.01172 -0.238281,0.05859 -0.277344,0.179687 l -1.875,5.953125 -2.347656,-2.417969 c -0.05859,-0.0625 -0.140625,-0.08984 -0.222656,-0.07422 -0.08203,0.01172 -0.152344,0.0625 -0.191407,0.140626 L 27,36.855469 h -4.515625 c -0.0078,0 -0.01563,0.0039 -0.02344,0.0039 C 21.976562,35.75 21.71875,34.511719 21.71875,33.242188 c 0,-2.324219 0.863281,-4.53125 2.371094,-6.058594 1.53125,-1.546875 3.5625,-2.398438 5.722656,-2.398438 2.164062,0 4.195312,0.851563 5.726562,2.398438 l 1.65625,1.679687 c 0.09766,0.09766 0.226563,0.152344 0.363282,0.152344 0.136718,0 0.269531,-0.05469 0.363281,-0.152344 0,0 1.648437,-1.664062 1.664063,-1.679687 1.527343,-1.546875 3.5625,-2.398438 5.722656,-2.398438 2.160156,0 4.191406,0.851563 5.722656,2.398438 1.507812,1.527344 2.375,3.738281 2.375,6.058594 0,1.261718 -0.257812,2.488281 -0.730469,3.589843 -0.01563,-0.0039 -0.02344,-0.0078 -0.03906,-0.0078 h -5.628907 c 0.08984,0.167969 0.171876,0.339843 0.253907,0.511719 H 52.4375 c -0.371094,0.730468 -0.84375,1.390624 -1.402344,1.957031 l -3.121094,3.097656 c -0.05469,0.316406 -0.125,0.625 -0.210937,0.929687 l 3.691406,-3.660156 c 3.359375,-3.402344 3.363281,-9.429687 0,-12.835937 -1.683593,-1.703125 -3.882812,-2.550781 -6.085937,-2.550781 -2.203125,0 -4.40625,0.847656 -6.085938,2.546874 -0.0039,0.0039 -1.664062,1.683594 -1.664062,1.683594 l -1.65625,-1.679687 C 34.21875,25.125 32.015625,24.273438 29.8125,24.273438 c -2.199219,0 -4.402344,0.851562 -6.085938,2.550781 -3.359374,3.402343 -3.359374,9.433593 0,12.835937 L 36.84375,52.671875 c 0.199219,0.199219 0.457031,0.300781 0.714844,0.300781 0.261718,0 0.519531,-0.101562 0.71875,-0.300781 l 3.367187,-3.339844 c -0.304687,0.08203 -0.613281,0.152344 -0.929687,0.203125 z m 0,0"
       fill-opacity="1"
       fill-rule="nonzero"
       id="path9846"
       style="stroke-width:0.758792" />
  </g>
  <path
     fill="#000000"
     d="m 48.485701,43.091183 h -0.144239 c -3.97136,0.03364 -7.183066,3.27421 -7.173451,7.264803 0.0048,4.005016 3.245361,7.245569 7.231146,7.245569 0.0048,0 0.0096,0 0.01442,0 3.995401,-0.0096 7.226339,-3.259785 7.221528,-7.269609 -0.0048,-3.971361 -3.197281,-7.192683 -7.149411,-7.240763 z m -0.08654,13.875725 c -3.634804,0 -6.596498,-2.966501 -6.601305,-6.610922 -0.0048,-1.769323 0.677919,-3.43287 1.923178,-4.687746 1.245257,-1.250065 2.903996,-1.942407 4.668513,-1.947216 h 0.01442 c 3.634805,0 6.596498,2.966501 6.601305,6.610922 0.0048,3.654037 -2.952076,6.630154 -6.606112,6.634962 z m 0,0"
     fill-opacity="1"
     fill-rule="nonzero"
     id="path9850"
     style="stroke-width:1" />
  <path
     fill="#000000"
     d="m 50.673314,48.793288 -2.437627,2.961693 c -0.110585,0.129814 -0.09136,0.331748 0.04327,0.442331 0.05768,0.04807 0.129815,0.07212 0.201933,0.07212 0.09136,0 0.177894,-0.03846 0.240397,-0.11539 l 2.437628,-2.95688 c 0.110573,-0.134623 0.09136,-0.336557 -0.03846,-0.447139 -0.134624,-0.110572 -0.336557,-0.09136 -0.44714,0.04328 z m 0,0"
     fill-opacity="1"
     fill-rule="nonzero"
     id="path9854"
     style="stroke-width:1" />
  <path
     fill="#000000"
     d="m 49.094579,49.416206 c 0.110573,-0.134623 0.09136,-0.336557 -0.03847,-0.447138 -0.134621,-0.110574 -0.336557,-0.09136 -0.447138,0.04328 l -2.43282,2.961693 c -0.110573,0.134624 -0.09136,0.33175 0.04328,0.442332 0.05769,0.04807 0.125007,0.07212 0.197126,0.07212 0.09136,0 0.182701,-0.03846 0.245205,-0.115391 z m 0,0"
     fill-opacity="1"
     fill-rule="nonzero"
     id="path9856"
     style="stroke-width:1" />
  <g
     clip-path="url(#0b3a2f3b81)"
     id="g9860"
     transform="matrix(1.2308334,0,0,1.2308334,-0.03125162,-0.03125637)"
     style="stroke-width:0.812459">
    <path
       fill="#000000"
       d="m 47.945312,45.691406 -0.78125,0.792969 -1.007812,-1.007813 c 0.867188,-1.304687 1.375,-2.875 1.371094,-4.5625 -0.0078,-4.523437 -3.667969,-8.1875 -8.175782,-8.183593 -0.0078,0 -0.01172,0 -0.01562,0 -4.515626,0.0078 -8.171876,3.683593 -8.164063,8.210937 0.0078,4.527344 3.667969,8.1875 8.175781,8.1875 0.0078,0 0.01172,0 0.01563,0 1.738281,-0.0039 3.34375,-0.550781 4.667969,-1.480468 l 1,1 -0.933594,0.945312 5.40625,5.355469 c 0.04687,0.04687 0.113282,0.07422 0.179688,0.07422 0.06641,0 0.128906,-0.02734 0.179687,-0.07813 0.101563,-0.101562 0.09766,-0.261718 0,-0.363281 l -5.042969,-4.992187 3.125,-3.171875 L 53.480469,52 c 0.09766,0.101562 0.257812,0.101562 0.359375,0 0.101562,-0.09766 0.101562,-0.261719 0,-0.363281 z m -8.582031,2.925782 h -0.01563 c -4.21875,0 -7.65625,-3.445313 -7.664062,-7.675782 -0.0078,-4.238281 3.425781,-7.691406 7.652344,-7.699218 h 0.01562 c 4.21875,0 7.65625,3.441406 7.664063,7.671874 0.0078,4.242188 -3.425781,7.695313 -7.652344,7.703126 z m 6.027344,-0.335938 -0.945313,-0.941406 c 0.527344,-0.421875 1,-0.90625 1.40625,-1.441406 l 0.953126,0.949218 z m 0,0"
       fill-opacity="1"
       fill-rule="nonzero"
       id="path9858"
       style="stroke-width:0.758792" />
  </g>
  <path
     fill="#000000"
     d="M 58.183321,60.221885 C 58.063118,60.09207 57.861189,60.09207 57.736183,60.20746 l -0.745231,0.711574 c -0.06249,0.0625 -0.09616,0.14424 -0.09616,0.230781 0,0.08654 0.03365,0.168279 0.09616,0.225976 l 2.514554,2.442435 c 0.0625,0.05769 0.139431,0.09136 0.221164,0.09136 0.08175,0 0.163473,-0.03365 0.225975,-0.09617 0.120203,-0.125008 0.115391,-0.32694 -0.0096,-0.44714 l -2.27898,-2.216457 0.504833,-0.485601 c 0.129815,-0.120203 0.134624,-0.317324 0.01442,-0.442331 z m 0,0"
     fill-opacity="1"
     fill-rule="nonzero"
     id="path9862"
     style="stroke-width:1" />
  <path
     fill="#000000"
     d="m 60.981544,64.539418 c 0,0.08654 -0.02886,0.158662 -0.09136,0.221165 -0.0625,0.06249 -0.134621,0.09136 -0.221166,0.09136 -0.08654,0 -0.163469,-0.02886 -0.221164,-0.09136 -0.0625,-0.0625 -0.09617,-0.134622 -0.09617,-0.221165 0,-0.08654 0.03364,-0.16347 0.09617,-0.225974 0.05768,-0.05768 0.134622,-0.09136 0.221164,-0.09136 0.08654,0 0.158662,0.03365 0.221166,0.09136 0.0625,0.0625 0.09136,0.139431 0.09136,0.225974 z m 0,0"
     fill-opacity="1"
     fill-rule="nonzero"
     id="path9864"
     style="stroke-width:1" />
</svg>
