<?xml version="1.0" encoding="UTF-8" standalone="no"?>
<svg
   width="83.461731"
   zoomAndPan="magnify"
   viewBox="0 0 62.596298 62.596302"
   height="83.461739"
   preserveAspectRatio="xMidYMid"
   version="1.0"
   id="svg44"
   sodipodi:docname="what_section_gear_md.svg"
   inkscape:version="1.2.1 (9c6d41e410, 2022-07-14)"
   xmlns:inkscape="http://www.inkscape.org/namespaces/inkscape"
   xmlns:sodipodi="http://sodipodi.sourceforge.net/DTD/sodipodi-0.dtd"
   xmlns="http://www.w3.org/2000/svg"
   xmlns:svg="http://www.w3.org/2000/svg">
  <sodipodi:namedview
     id="namedview46"
     pagecolor="#ffffff"
     bordercolor="#111111"
     borderopacity="1"
     inkscape:showpageshadow="0"
     inkscape:pageopacity="0"
     inkscape:pagecheckerboard="1"
     inkscape:deskcolor="#d1d1d1"
     showgrid="false"
     inkscape:zoom="9.98"
     inkscape:cx="43.837675"
     inkscape:cy="41.933868"
     inkscape:window-width="2560"
     inkscape:window-height="1361"
     inkscape:window-x="2391"
     inkscape:window-y="-9"
     inkscape:window-maximized="1"
     inkscape:current-layer="svg44" />
  <defs
     id="defs34">
    <clipPath
       id="0e9b4d13dd">
      <path
         d="M 14,16 H 58 V 60 H 14 Z m 0,0"
         clip-rule="nonzero"
         id="path25" />
    </clipPath>
    <clipPath
       id="45d804223d">
      <path
         d="m 53.234375,62.371094 -42.074219,-7.5625 7.5625,-42.078125 42.074219,7.566406 z m 0,0"
         clip-rule="nonzero"
         id="path28" />
    </clipPath>
    <clipPath
       id="76e16e3e35">
      <path
         d="m 53.234375,62.371094 -42.074219,-7.5625 7.5625,-42.078125 42.074219,7.566406 z m 0,0"
         clip-rule="nonzero"
         id="path31" />
    </clipPath>
  </defs>
  <path
     fill="#efeff6"
     d="M 25.810628,51.195219 C 14.822767,48.163884 8.3697427,36.798486 11.401077,25.810627 14.432412,14.822767 25.800951,8.3706075 36.788812,11.401943 47.776671,14.433277 54.225687,25.80095 51.194353,36.78881 48.163018,47.776669 36.798488,54.226554 25.810628,51.195219 Z m 27.049608,-7.253465 c 0.73429,-1.251766 2.080805,-2.013323 3.531351,-1.975041 l 4.294197,0.102382 c 0.291446,-0.798965 0.553195,-1.612889 0.782973,-2.445779 0.228043,-0.826603 0.42206,-1.652449 0.578894,-2.478404 l -3.738394,-2.117034 c -1.264123,-0.714022 -2.02969,-2.058263 -2.015142,-3.508593 -0.0019,-0.01744 -7.78e-4,-0.03403 0.0013,-0.05376 0.01054,-1.448054 0.794246,-2.780886 2.067932,-3.474598 l 3.774665,-2.060117 c -0.292168,-1.687139 -0.725115,-3.342097 -1.287467,-4.944818 l -4.302327,0.03743 c -1.45098,0.01233 -2.784681,-0.768239 -3.498445,-2.030543 -0.01,-0.01292 -0.01593,-0.02807 -0.02276,-0.0401 -0.71777,-1.260028 -0.703222,-2.808442 0.05134,-4.047852 l 2.241232,-3.673692 C 54.231918,9.9266565 53.036192,8.707263 51.73837,7.5882253 l -3.70411,2.1844285 c -1.250926,0.7338132 -2.797929,0.7264172 -4.045685,-0.010149 -0.018,-0.00835 -0.03198,-0.018967 -0.04682,-0.026446 C 42.689984,9.0017697 41.928428,7.6552545 41.963566,6.2038412 L 42.069092,1.9105109 C 41.270126,1.619067 40.456204,1.3573164 39.623314,1.1275385 38.79671,0.89949458 37.969997,0.70862558 37.144041,0.55178605 L 35.027012,4.2901818 c -0.713156,1.2609785 -2.057396,2.0265458 -3.507726,2.0119989 -0.01745,0.00195 -0.03403,7.579e-4 -0.05463,0.00184 -1.44805,-0.010536 -2.780016,-0.797392 -3.474597,-2.0679324 L 25.927673,0.45741501 C 24.242806,0.75358678 22.588716,1.1833907 20.985996,1.7457428 l 0.03656,4.30547 c 0.0132,1.4478377 -0.768239,2.7846806 -2.030543,3.4984437 -0.01205,0.00684 -0.0272,0.012796 -0.0401,0.022756 -1.25916,0.7146303 -2.807573,0.7000823 -4.046984,-0.054476 L 11.231236,7.2767067 C 9.9266578,8.3643761 8.7072641,9.5601034 7.5882269,10.857924 l 2.1835605,3.707256 c 0.7346806,1.24778 0.7241416,2.793917 -0.010148,4.045683 -0.00748,0.01485 -0.018098,0.02883 -0.025577,0.04367 -0.7342895,1.251768 -2.0808049,2.013324 -3.5322181,1.978185 l -4.2933311,-0.10552 c -0.291444,0.798967 -0.554062,1.616033 -0.7838398,2.448923 -0.22717696,0.823461 -0.4180457,1.650173 -0.57889474,2.478403 l 3.74240424,2.114759 c 1.2609789,0.713155 2.025679,2.060539 2.011999,3.507726 0.00108,0.02059 -1.117e-4,0.03718 -0.0013,0.05376 -0.00739,1.448921 -0.7951165,2.78403 -2.0688003,3.477744 l -3.77466409,2.060115 c 0.29530476,1.688008 0.72597549,3.338957 1.28832759,4.941677 l 4.3023272,-0.03743 c 1.4509809,-0.01233 2.7869462,0.772287 3.5015878,2.03141 0.00598,0.01519 0.012787,0.0272 0.022756,0.0401 0.7137638,1.262303 0.7000808,2.807573 -0.054476,4.046984 l -2.2412349,3.673689 c 1.0876708,1.304578 2.2833978,2.523973 3.5812182,3.64301 l 3.707253,-2.183561 c 1.247782,-0.734682 2.793919,-0.724143 4.045685,0.01015 0.01399,0.0106 0.02882,0.01812 0.04367,0.02558 1.251766,0.734288 2.013324,2.080805 1.978184,3.532218 l -0.105526,4.29333 c 0.798966,0.291446 1.61289,0.553195 2.448922,0.783839 0.823461,0.227177 1.649305,0.421194 2.478405,0.578895 l 2.11389,-3.739262 c 0.714023,-1.264122 2.058263,-2.029689 3.508592,-2.015142 0.01659,0.0012 0.03718,9.2e-5 0.05376,0.0013 1.448054,0.01054 2.784031,0.795114 3.477743,2.068802 l 2.059249,3.777806 c 1.68801,-0.295305 3.339824,-0.729118 4.942544,-1.29147 l -0.03743,-4.302328 c -0.01233,-1.450979 0.768238,-2.784681 2.030542,-3.498444 0.01605,-0.0091 0.02807,-0.01593 0.0401,-0.02276 1.263171,-0.716906 2.808441,-0.703225 4.047852,0.05133 l 3.672823,2.244377 c 1.304577,-1.087671 2.524839,-2.286541 3.643875,-3.584362 l -2.184414,-3.70411 c -0.733814,-1.250926 -0.723274,-2.797062 0.01015,-4.045685 0.01147,-0.01714 0.01899,-0.03197 0.02645,-0.04682"
     fill-opacity="1"
     fill-rule="nonzero"
     id="path5573"
     style="stroke-width:0.999999" />
  <path
     fill="#efeff6"
     d="m 35.804669,14.969225 c -9.00464,-2.484203 -18.352105,2.820906 -20.836309,11.825546 -2.484203,9.004639 2.821772,18.348961 11.826412,20.833165 9.004639,2.484203 18.348095,-2.818629 20.832298,-11.823268 2.484203,-9.00464 -2.817762,-18.35124 -11.822401,-20.835443 z m -9.804148,35.53768 c -2.592961,-0.715346 -4.97002,-1.919045 -7.060951,-3.571429 -2.021027,-1.599277 -3.69415,-3.552407 -4.970927,-5.802053 -1.276775,-2.249647 -2.095755,-4.687544 -2.430279,-7.238685 -0.348828,-2.646408 -0.164321,-5.30126 0.551026,-7.894219 0.715346,-2.592959 1.919045,-4.970019 3.574572,-7.060083 1.596135,-2.021894 3.549264,-3.695018 5.798911,-4.971793 2.249648,-1.276778 4.686674,-2.092615 7.241826,-2.429414 2.643266,-0.349695 5.301261,-0.164321 7.894221,0.551026 2.589816,0.714479 4.966875,1.918178 7.060082,3.574572 2.017883,1.59841 3.691875,3.548396 4.968651,5.798045 1.276776,2.249647 2.095757,4.687541 2.432556,7.242693 0.346551,2.642398 0.161177,5.300395 -0.554169,7.893353 -0.715346,2.592959 -1.918179,4.966875 -3.57143,7.060949 -1.598409,2.017883 -3.551539,3.691009 -5.801186,4.967786 -2.249648,1.276774 -4.687543,2.095755 -7.239551,2.433422 -2.645542,0.345684 -5.303537,0.16031 -7.893352,-0.55417"
     fill-opacity="1"
     fill-rule="nonzero"
     id="path5575"
     style="stroke-width:0.999999" />
  <path
     fill="#efeff6"
     d="m 28.778666,40.436798 c -5.047628,-1.392542 -8.010841,-6.613651 -6.619167,-11.658134 1.392541,-5.047628 6.613648,-8.01084 11.661275,-6.618299 5.044484,1.391674 8.007699,6.61278 6.615157,11.660408 -1.391674,5.044483 -6.612782,8.007698 -11.657265,6.616025 z M 35.418815,16.367851 C 27.171633,14.092615 18.642221,18.933443 16.366986,27.180623 14.09175,35.427805 18.932576,43.957216 27.179758,46.232452 35.423796,48.50682 43.953209,43.665995 46.228444,35.418814 48.503679,27.171633 43.662853,18.642219 35.418815,16.367851"
     fill-opacity="1"
     fill-rule="nonzero"
     id="path5577"
     style="stroke-width:0.999999" />
</svg>
