<?xml version="1.0" encoding="UTF-8" standalone="no"?>
<svg
   width="57.349957"
   zoomAndPan="magnify"
   viewBox="0 0 43.012467 43.02797"
   height="57.370628"
   preserveAspectRatio="xMidYMid"
   version="1.0"
   id="svg44"
   sodipodi:docname="what_section_gear_small.svg"
   inkscape:version="1.2.1 (9c6d41e410, 2022-07-14)"
   xmlns:inkscape="http://www.inkscape.org/namespaces/inkscape"
   xmlns:sodipodi="http://sodipodi.sourceforge.net/DTD/sodipodi-0.dtd"
   xmlns="http://www.w3.org/2000/svg"
   xmlns:svg="http://www.w3.org/2000/svg">
  <sodipodi:namedview
     id="namedview46"
     pagecolor="#ffffff"
     bordercolor="#111111"
     borderopacity="1"
     inkscape:showpageshadow="0"
     inkscape:pageopacity="0"
     inkscape:pagecheckerboard="1"
     inkscape:deskcolor="#d1d1d1"
     showgrid="false"
     inkscape:zoom="9.98"
     inkscape:cx="30.711423"
     inkscape:cy="28.707415"
     inkscape:window-width="2560"
     inkscape:window-height="1361"
     inkscape:window-x="2391"
     inkscape:window-y="-9"
     inkscape:window-maximized="1"
     inkscape:current-layer="svg44" />
  <defs
     id="defs34">
    <clipPath
       id="0e9b4d13dd">
      <path
         d="M 14,16 H 58 V 60 H 14 Z m 0,0"
         clip-rule="nonzero"
         id="path25" />
    </clipPath>
    <clipPath
       id="45d804223d">
      <path
         d="m 53.234375,62.371094 -42.074219,-7.5625 7.5625,-42.078125 42.074219,7.566406 z m 0,0"
         clip-rule="nonzero"
         id="path28" />
    </clipPath>
    <clipPath
       id="76e16e3e35">
      <path
         d="m 53.234375,62.371094 -42.074219,-7.5625 7.5625,-42.078125 42.074219,7.566406 z m 0,0"
         clip-rule="nonzero"
         id="path31" />
    </clipPath>
  </defs>
  <g
     clip-path="url(#0e9b4d13dd)"
     id="g42"
     transform="translate(-14.470268,-16.036797)">
    <g
       clip-path="url(#45d804223d)"
       id="g40">
      <g
         clip-path="url(#76e16e3e35)"
         id="g38">
        <path
           fill="#dde0f9"
           d="m 27.292969,19.421875 c 0.0078,0.0078 0.01172,0.01563 0.01953,0.02344 l 1.511719,1.84375 c -0.101563,0.15625 -0.164063,0.332032 -0.1875,0.511719 l -6.589844,0.480469 4.269531,-3.027344 c 0.316406,-0.222656 0.753906,-0.148437 0.976563,0.167969 z m 5.78125,2.257813 -4.699219,3.332031 c -0.378906,-0.144531 -0.824219,-0.105469 -1.179688,0.148437 -0.359374,0.253906 -0.542968,0.660156 -0.535156,1.066406 l -4.6875,3.320313 C 22.460938,28.691406 23.03125,27.882812 23.671875,27.125 l 5.664063,-4.015625 c 0.402343,0.195313 0.894531,0.171875 1.28125,-0.105469 0.292968,-0.207031 0.46875,-0.511718 0.519531,-0.839844 0.636719,-0.203124 1.285156,-0.363281 1.9375,-0.484374 z m 2.894531,-4.230469 c 0.06641,-0.382813 0.429688,-0.640625 0.8125,-0.574219 l 1.566406,0.265625 -3.007812,2.898437 0.625,-2.5625 c 0,-0.0078 0.0039,-0.01953 0.0039,-0.02734 z m 1.503906,8.804687 -0.503906,-1.046875 c 0.316406,-0.429687 0.339844,-1.03125 0.01563,-1.488281 C 36.746094,23.382812 36.375,23.199219 35.996094,23.1875 L 35.40625,21.96875 c 0.308594,-0.3125 0.429688,-0.757812 0.335938,-1.171875 l 3.1875,-3.074219 z m -3.886718,1.089844 c -0.144532,0.03516 -0.292969,0.07422 -0.433594,0.113281 l 2.265625,-1.859375 c 0.269531,0.125 0.574219,0.152344 0.859375,0.07422 l 0.695312,1.445313 c -1.136718,-0.109376 -2.273437,-0.03516 -3.386718,0.226562 z m 11.902343,11.828125 c -0.894531,5.25 -5.894531,8.792969 -11.144531,7.898437 -3.582031,-0.609374 -6.53125,-3.207031 -7.605469,-6.660156 0,-0.07031 -0.01953,-0.144531 -0.05859,-0.207031 -0.0039,-0.0078 -0.0039,-0.01172 -0.0078,-0.01953 0,-0.03516 -0.0039,-0.07422 -0.01172,-0.109375 -0.371094,-1.355469 -0.433594,-2.75 -0.195312,-4.144531 0.335937,-1.980469 1.257812,-3.71875 2.558594,-5.070313 L 30.0625,29.929688 c 2.066406,-1.601563 4.765625,-2.367188 7.535156,-1.898438 5.246094,0.898438 8.785156,5.894531 7.890625,11.140625 z m -25.128906,-0.527344 1.957031,-1.761719 2.746094,2.828126 z m -0.05469,2.714844 c -0.15625,-0.644531 -0.273438,-1.304687 -0.351563,-1.960937 l 4.136719,0.9375 z M 23.625,35.707031 c 0.390625,0.167969 0.859375,0.136719 1.230469,-0.128906 0.460937,-0.324219 0.636719,-0.894531 0.480469,-1.402344 l 1.125,-1.011719 c -0.382813,0.828126 -0.652344,1.707032 -0.808594,2.628907 C 25.460938,36.898438 25.449219,38 25.609375,39.089844 l -2.679687,-2.757813 z m -7.644531,1.882813 2.117187,-0.644532 c 0.410156,0.542969 1.179688,0.667969 1.738282,0.269532 0.328124,-0.230469 0.507812,-0.589844 0.53125,-0.960938 L 22.511719,35.601562 19.375,38.417969 Z M 15.296875,36.9375 c -0.0039,-0.05859 -0.0039,-0.121094 0.0078,-0.179688 l 0.886718,-5.195312 2.050782,3.695312 c -0.2578,0.242188 -0.394519,0.570313 -0.402331,0.90625 z m 1.722656,-6.058594 c 0.01172,0 0.01953,0 0.02734,0.0039 l 2.570313,0.253907 c 0.03906,0.128906 0.09766,0.253906 0.179687,0.367187 0.339844,0.480469 0.953125,0.652344 1.476563,0.453125 l 1.734374,1.996094 c -0.109374,0.207031 -0.160156,0.445313 -0.144531,0.679687 l -2.722656,0.828126 -0.0039,-0.0078 C 19.867188,35.074219 19.429688,34.890625 19,34.925781 l -2.246094,-4.042969 c 0.08594,-0.01953 0.175782,-0.01953 0.265625,-0.0039 z m 10.867188,-3.421875 c 0.246093,0.0078 0.5,-0.05859 0.726562,-0.203125 l 1.261719,1.78125 c -0.535156,0.382813 -1.027344,0.808594 -1.476562,1.277344 l -3.042969,2.734375 z m 1.246093,-0.890625 c 0.04688,-0.144531 0.0625,-0.296875 0.05469,-0.449218 l 5.484375,-0.972657 -4.136719,3.394531 z m -7.222656,4.863282 c 0.167969,-0.28125 0.222656,-0.613282 0.152344,-0.933594 l 4.90625,-3.476563 c 0.04687,0.05078 0.09375,0.09766 0.144531,0.144531 l -2.777343,6.136719 c -0.238282,-0.04297 -0.492188,-0.01172 -0.722657,0.08984 z m 12.757813,-9.097657 0.53125,1.105469 c -0.289063,0.214844 -0.460938,0.53125 -0.503907,0.863281 l -5.191406,0.921875 4.335938,-3.074218 c 0.246094,0.15625 0.539062,0.21875 0.828125,0.183593 z m -11.15625,3.894531 -1.738281,-2.855468 c -0.0039,-0.0078 -0.01172,-0.01563 -0.01563,-0.02344 -0.04687,-0.06641 -0.07812,-0.136718 -0.101562,-0.210937 l 6.929688,-0.503907 z m -2.679688,-3.574218 c -0.0039,0.01953 -0.0078,0.03906 -0.01172,0.05859 -0.05469,0.375 0.02344,0.765624 0.257813,1.101562 l 1.808594,2.96875 c -0.707031,0.855469 -1.320313,1.773438 -1.84375,2.746094 -0.320313,-0.05469 -0.660157,0.01172 -0.945313,0.214844 -0.210937,0.148437 -0.359375,0.347656 -0.449218,0.570312 l -2.503907,-0.25 c -0.441406,-0.07031 -0.875,0.05469 -1.199219,0.316406 -0.01172,0.01172 -0.02344,0.02344 -0.03906,0.03125 -0.261719,0.226563 -0.449219,0.539063 -0.511719,0.902344 l -0.902343,5.304688 c -0.0625,0.363281 0.01172,0.722656 0.183593,1.019531 0.0078,0.01563 0.01563,0.03125 0.02734,0.04687 0.21875,0.351562 0.582031,0.613281 1.023437,0.695312 l 3.378907,0.820313 c 0.08594,0.898437 0.246093,1.789062 0.476562,2.664062 -0.0039,0.03516 0.0039,0.07422 0.01172,0.113281 0.128906,0.46875 0.277344,0.9375 0.445312,1.394532 l -2.691406,2.203125 c -0.675781,0.492187 -0.835937,1.4375 -0.351562,2.121093 l 3.113281,4.390626 c 0.484375,0.683593 1.429687,0.847656 2.117187,0.371093 l 2.96875,-1.808593 c 1.109376,0.914062 2.324219,1.679687 3.625,2.28125 l -0.34375,3.460937 c -0.132812,0.824219 0.425782,1.609375 1.25,1.75 l 5.304688,0.902344 c 0.824219,0.140625 1.613281,-0.414063 1.761719,-1.234375 l 0.820312,-3.378906 C 39.03906,54.29296 40.441404,53.972647 41.78906,53.48046 l 2.203126,2.6875 c 0.492187,0.679687 1.4375,0.835937 2.121093,0.351562 l 4.390625,-3.109375 C 51.1875,52.925781 51.351562,51.976562 50.875,51.292969 l -1.808594,-2.972657 c 0.914063,-1.109374 1.679688,-2.324218 2.28125,-3.625 l 3.460938,0.34375 c 0.824218,0.132813 1.605468,-0.425781 1.746094,-1.25 l 0.90625,-5.304687 C 57.601562,37.660156 57.046875,36.875 56.226562,36.726562 l -3.378906,-0.824218 c -0.136718,-1.425782 -0.457031,-2.824219 -0.953125,-4.175782 l 2.691407,-2.203124 c 0.675781,-0.488282 0.835937,-1.4375 0.351562,-2.121094 L 51.828125,23.011719 C 51.34375,22.332031 50.394531,22.164062 49.707031,22.640625 l -2.96875,1.808594 c -1.109375,-0.910157 -2.324219,-1.679688 -3.625,-2.28125 l 0.34375,-3.460938 c 0.132813,-0.824219 -0.425781,-1.605469 -1.25,-1.746093 l -2.636719,-0.449219 -0.01562,-0.0039 -0.265626,-0.04297 -2.371093,-0.40625 c -0.824219,-0.140625 -1.609375,0.414062 -1.757813,1.234375 L 34.546875,19.8125 c -0.265625,-0.0078 -0.535156,0.06641 -0.769531,0.234375 -0.269532,0.1875 -0.441406,0.464844 -0.503906,0.761719 -0.773438,0.125 -1.539063,0.304687 -2.285157,0.539062 -0.02344,-0.03516 -0.04297,-0.07031 -0.07031,-0.105468 -0.332031,-0.472657 -0.929688,-0.644532 -1.449219,-0.464844 l -1.511719,-1.84375 c -0.488281,-0.675782 -1.4375,-0.835938 -2.121093,-0.351563 l -4.386719,3.113281 c -0.335938,0.234376 -0.546875,0.582032 -0.617188,0.957032"
           fill-opacity="1"
           fill-rule="nonzero"
           id="path36" />
      </g>
    </g>
  </g>
</svg>
