<?xml version="1.0" encoding="UTF-8" standalone="no"?>
<svg
   width="127.00001"
   zoomAndPan="magnify"
   viewBox="0 0 95.250006 95.250002"
   height="127.00001"
   preserveAspectRatio="xMidYMid"
   version="1.0"
   id="svg35401"
   sodipodi:docname="what_section_gear_lg_goal.svg"
   inkscape:version="1.2.1 (9c6d41e410, 2022-07-14)"
   xmlns:inkscape="http://www.inkscape.org/namespaces/inkscape"
   xmlns:sodipodi="http://sodipodi.sourceforge.net/DTD/sodipodi-0.dtd"
   xmlns="http://www.w3.org/2000/svg"
   xmlns:svg="http://www.w3.org/2000/svg">
  <sodipodi:namedview
     id="namedview35403"
     pagecolor="#ffffff"
     bordercolor="#111111"
     borderopacity="1"
     inkscape:showpageshadow="0"
     inkscape:pageopacity="0"
     inkscape:pagecheckerboard="1"
     inkscape:deskcolor="#d1d1d1"
     showgrid="false"
     inkscape:zoom="7.0569257"
     inkscape:cx="18.917586"
     inkscape:cy="60.720492"
     inkscape:window-width="2560"
     inkscape:window-height="1361"
     inkscape:window-x="2391"
     inkscape:window-y="-9"
     inkscape:window-maximized="1"
     inkscape:current-layer="svg35401" />
  <defs
     id="defs35385">
    <clipPath
       id="3ffb052e0d">
      <path
         d="m 36.527344,20.3125 h 18.28125 v 18.351562 h -18.28125 z m 0,0"
         clip-rule="nonzero"
         id="path35379" />
    </clipPath>
    <clipPath
       id="8511cda7c5">
      <path
         d="M 20.3125,21 H 54 V 54.8125 H 20.3125 Z m 0,0"
         clip-rule="nonzero"
         id="path35382" />
    </clipPath>
  </defs>
  <path
     fill="#dde0f9"
     d="M 62.199627,16.917706 C 79.147616,24.961742 86.376332,45.251642 78.332295,62.199629 70.288259,79.147617 49.998358,86.376334 33.050371,78.332296 16.102384,70.288259 8.8736672,49.998359 16.917705,33.050372 24.961742,16.102385 45.251642,8.8736689 62.199627,16.917706 Z M 70.571558,5.8896936 C 68.914171,4.9821546 67.200983,4.1690234 65.449937,3.4588145 L 59.254032,8.8486 C 56.405337,7.9965748 53.47423,7.4571186 50.514298,7.2446772 L 46.62874,0.00979138 C 44.737566,0.04634709 42.851021,0.20049744 40.977852,0.4654011 L 38.303604,8.2300443 C 35.413109,8.9132884 32.609029,9.9123028 29.937658,11.210594 L 22.956349,6.8859525 c -1.618704,0.9791512 -3.17774,2.0525637 -4.666011,3.2200095 l 1.568741,8.064029 c -2.163323,2.033984 -4.09306,4.305221 -5.759187,6.762024 L 5.8896928,24.678442 C 4.9821534,26.33583 4.1690222,28.049018 3.4588137,29.800063 l 5.389785,6.195906 c -0.8520248,2.848694 -1.3914813,5.779802 -1.5994372,8.741863 l -7.23937141,3.883429 c 0.03868444,1.88669 0.19070606,3.777718 0.45561018,5.650886 l 7.76464713,2.674239 c 0.6832429,2.890496 1.6822586,5.694577 2.9805486,8.365947 l -4.3246433,6.981314 c 0.979151,1.618704 2.0591772,3.175385 3.2200083,4.666011 l 8.06403,-1.568741 c 2.033984,2.163323 4.305221,4.093059 6.766509,5.761315 l -0.258058,8.208072 c 1.657387,0.907542 3.370574,1.720673 5.121621,2.430879 l 6.195905,-5.389784 c 2.848695,0.852023 5.779802,1.39148 8.741866,1.599435 l 3.883427,7.239372 c 1.891174,-0.03656 3.777718,-0.190705 5.650888,-0.45561 l 2.674238,-7.764647 c 2.890495,-0.683243 5.694577,-1.682258 8.365946,-2.98055 l 6.981314,4.324643 c 1.618705,-0.97915 3.17987,-2.057048 4.666011,-3.220007 l -1.56874,-8.064029 c 2.163322,-2.033985 4.093058,-4.305223 5.761315,-6.766509 l 8.208071,0.258056 c 0.907542,-1.657386 1.720673,-3.370572 2.430879,-5.121621 l -5.389784,-6.195904 c 0.852024,-2.848695 1.39148,-5.779802 1.599435,-8.741866 l 7.239373,-3.883427 c -0.03868,-1.886683 -0.190702,-3.777711 -0.455608,-5.650882 L 87.017827,38.308091 C 86.336713,35.41311 85.337698,32.60903 84.039406,29.93766 l 4.324644,-6.981315 c -0.979153,-1.618698 -2.059179,-3.175379 -3.220011,-4.666006 l -8.064028,1.56874 c -2.033986,-2.163322 -4.305223,-4.093059 -6.76651,-5.761314 z m 0,0"
     fill-opacity="1"
     fill-rule="evenodd"
     id="path35387"
     style="stroke-width:0.999999" />
  <g
     clip-path="url(#3ffb052e0d)"
     id="g35391"
     transform="matrix(1.1404117,0,0,1.1404117,5.2477303,3.7447243)"
     style="stroke-width:0.876876">
    <path
       fill="#000000"
       d="m 48.820312,22.003906 0.484376,3.449219 c 0.03125,0.238281 0.21875,0.425781 0.460937,0.460937 l 3.351563,0.480469 -4.527344,4.53125 -3.761719,-0.570312 -0.535156,-3.820313 z m -5.050781,8.605469 c -0.0039,0.0078 -0.0039,0.01563 -0.0078,0.02734 L 36.71095,37.68359 c -0.210938,0.214844 -0.210938,0.554687 0,0.769531 0.105468,0.105469 0.246093,0.15625 0.382812,0.15625 0.140625,0 0.277344,-0.05078 0.382812,-0.15625 l 7.050782,-7.050781 4.167968,0.636718 c 0.02734,0.0039 0.05469,0.0078 0.08203,0.0078 0.144531,0 0.28125,-0.05859 0.382812,-0.160156 l 5.492188,-5.492188 c 0.144531,-0.144531 0.195312,-0.359375 0.128906,-0.554687 -0.0625,-0.191406 -0.234375,-0.335938 -0.4375,-0.363282 l -4.023438,-0.578124 -0.578124,-4.121094 c -0.02734,-0.203125 -0.167969,-0.371094 -0.363282,-0.4375 -0.195312,-0.06641 -0.410156,-0.01563 -0.554687,0.128906 l -5.492188,5.492188 C 43.214844,26.082031 43.15625,26.25 43.179688,26.417969 l 0.589843,4.191406"
       fill-opacity="1"
       fill-rule="nonzero"
       id="path35389"
       style="stroke-width:0.689986" />
  </g>
  <g
     clip-path="url(#8511cda7c5)"
     id="g35395"
     transform="matrix(1.1404117,0,0,1.1404117,5.2477303,3.7447243)"
     style="stroke-width:0.876876">
    <path
       fill="#000000"
       d="m 37.101562,54.8125 c 9.261719,0 16.792969,-7.535156 16.792969,-16.792969 0,-0.90625 -0.07422,-1.820312 -0.21875,-2.710937 -0.04687,-0.292969 -0.328125,-0.492188 -0.621093,-0.445313 -0.296876,0.04687 -0.496094,0.324219 -0.449219,0.621094 0.136719,0.832031 0.207031,1.6875 0.207031,2.535156 0,8.660157 -7.046875,15.707031 -15.710938,15.707031 -8.660156,0 -15.707031,-7.046874 -15.707031,-15.707031 0,-8.664062 7.046875,-15.710937 15.707031,-15.710937 0.925782,0 1.851563,0.08203 2.753907,0.242187 0.292969,0.05078 0.574219,-0.144531 0.628906,-0.4375 0.05078,-0.296875 -0.144531,-0.578125 -0.441406,-0.628906 -0.964844,-0.171875 -1.953125,-0.257813 -2.941407,-0.257813 -9.257812,0 -16.789062,7.53125 -16.789062,16.792969 0,9.257813 7.53125,16.792969 16.789062,16.792969"
       fill-opacity="1"
       fill-rule="nonzero"
       id="path35393"
       style="stroke-width:0.689986" />
  </g>
  <path
     fill="#000000"
     d="m 49.937618,35.253057 c 0.05346,-0.338561 -0.18264,-0.650389 -0.521203,-0.703848 -0.610298,-0.08909 -1.233959,-0.133641 -1.857623,-0.133641 -6.993934,0 -12.682624,5.693146 -12.682624,12.687075 0,6.993936 5.68869,12.682628 12.682624,12.682628 6.998385,0 12.687078,-5.688692 12.687078,-12.682628 0,-0.69939 -0.05793,-1.39878 -0.169282,-2.080357 -0.05793,-0.338559 -0.374195,-0.565752 -0.712752,-0.51229 -0.334106,0.05793 -0.565752,0.374193 -0.507847,0.712752 0.102457,0.614753 0.151466,1.247324 0.151466,1.879895 0,6.31236 -5.131856,11.448671 -11.448663,11.448671 -6.312362,0 -11.448667,-5.136311 -11.448667,-11.448671 0,-6.316805 5.136305,-11.453123 11.448667,-11.453123 0.561293,0 1.127045,0.04455 1.679428,0.124738 0.334106,0.04905 0.65039,-0.182643 0.699398,-0.521201"
     fill-opacity="1"
     fill-rule="nonzero"
     id="path35397"
     style="stroke-width:0.999941" />
  <path
     fill="#000000"
     d="m 47.558792,42.117801 c 0.115818,0 0.231643,0.005 0.347466,0.0089 0.187099,0.01335 0.365287,-0.06681 0.490022,-0.196005 0.09355,-0.102458 0.155916,-0.231646 0.164826,-0.378649 0.02679,-0.338567 -0.231648,-0.632574 -0.574663,-0.659302 -0.138092,-0.0089 -0.280648,-0.01334 -0.427651,-0.01334 -3.430147,0 -6.218808,2.79312 -6.218808,6.223267 0,3.430142 2.788661,6.218807 6.218808,6.218807 3.430143,0 6.223261,-2.788665 6.223261,-6.218807 0,-0.298468 -0.02229,-0.601393 -0.06682,-0.895402 -0.04453,-0.338562 -0.360832,-0.574664 -0.699393,-0.525659 -0.142544,0.02228 -0.271737,0.09356 -0.365286,0.191554 -0.120275,0.133641 -0.182647,0.316287 -0.155916,0.507838 0.03114,0.236099 0.04905,0.481111 0.04905,0.721669 0,2.748569 -2.236274,4.984844 -4.984845,4.984844 -2.748568,0 -4.984847,-2.236275 -4.984847,-4.984844 0,-2.748571 2.236279,-4.984851 4.984847,-4.984851"
     fill-opacity="1"
     fill-rule="nonzero"
     id="path35399"
     style="stroke-width:0.999941" />
</svg>
