<?xml version="1.0" encoding="UTF-8" standalone="no"?>
<svg
   width="126.99833"
   zoomAndPan="magnify"
   viewBox="0 0 95.248741 95.249999"
   height="127"
   preserveAspectRatio="xMidYMid"
   version="1.0"
   id="svg9866"
   sodipodi:docname="what_section_gear_lg_training.svg"
   inkscape:version="1.2.1 (9c6d41e410, 2022-07-14)"
   xmlns:inkscape="http://www.inkscape.org/namespaces/inkscape"
   xmlns:sodipodi="http://sodipodi.sourceforge.net/DTD/sodipodi-0.dtd"
   xmlns="http://www.w3.org/2000/svg"
   xmlns:svg="http://www.w3.org/2000/svg">
  <sodipodi:namedview
     id="namedview9868"
     pagecolor="#ffffff"
     bordercolor="#111111"
     borderopacity="1"
     inkscape:showpageshadow="0"
     inkscape:pageopacity="0"
     inkscape:pagecheckerboard="1"
     inkscape:deskcolor="#d1d1d1"
     showgrid="false"
     inkscape:zoom="4.99"
     inkscape:cx="55.210421"
     inkscape:cy="62.324649"
     inkscape:window-width="2560"
     inkscape:window-height="1361"
     inkscape:window-x="2391"
     inkscape:window-y="-9"
     inkscape:window-maximized="1"
     inkscape:current-layer="svg9866" />
  <defs
     id="defs9842">
    <clipPath
       id="004468400f">
      <path
         d="M 21,24.273438 H 54 V 53 H 21 Z m 0,0"
         clip-rule="nonzero"
         id="path9836" />
    </clipPath>
    <clipPath
       id="0b3a2f3b81">
      <path
         d="M 31,32 H 54 V 55.023438 H 31 Z m 0,0"
         clip-rule="nonzero"
         id="path9839" />
    </clipPath>
    <clipPath
       id="a57af7a3bf">
      <path
         d="M 9.289062,8.519531 H 67.253906 V 66.480469 H 9.289062 Z m 0,0"
         clip-rule="nonzero"
         id="path23811" />
    </clipPath>
    <clipPath
       id="0d31f917a1">
      <path
         d="M 38.273438,8.519531 C 22.265625,8.519531 9.289062,21.496094 9.289062,37.5 c 0,16.003906 12.976563,28.980469 28.984376,28.980469 16.003906,0 28.980468,-12.976563 28.980468,-28.980469 0,-16.003906 -12.976562,-28.980469 -28.980468,-28.980469"
         clip-rule="nonzero"
         id="path23814" />
    </clipPath>
    <clipPath
       id="17f1adb2ce">
      <path
         d="M 23.78125,41 H 50 v 5 H 23.78125 Z m 0,0"
         clip-rule="nonzero"
         id="path23817" />
    </clipPath>
    <clipPath
       id="9e677ec2cc">
      <path
         d="m 31,49 h 11 v 3.0625 H 31 Z m 0,0"
         clip-rule="nonzero"
         id="path23820" />
    </clipPath>
    <clipPath
       id="154e8e6c87">
      <path
         d="M 35,25.0625 H 51 V 41 H 35 Z m 0,0"
         clip-rule="nonzero"
         id="path23823" />
    </clipPath>
    <clipPath
       id="51d4d22e56">
      <path
         d="M 47,37 H 58.28125 V 48 H 47 Z m 0,0"
         clip-rule="nonzero"
         id="path23826" />
    </clipPath>
    <clipPath
       id="05cd9db797">
      <path
         d="M 23.78125,29 H 50 V 42 H 23.78125 Z m 0,0"
         clip-rule="nonzero"
         id="path23829" />
    </clipPath>
    <clipPath
       id="cdc16ee2dd">
      <path
         d="M 45,32 H 55 V 50.679688 H 45 Z m 0,0"
         clip-rule="nonzero"
         id="path31726" />
    </clipPath>
    <clipPath
       id="625cb0a880">
      <path
         d="m 26,44 h 29.765625 v 6.679688 H 26 Z m 0,0"
         clip-rule="nonzero"
         id="path31729" />
    </clipPath>
    <clipPath
       id="f6edc412ad">
      <path
         d="M 26,35 H 42 V 50.679688 H 26 Z m 0,0"
         clip-rule="nonzero"
         id="path31732" />
    </clipPath>
    <clipPath
       id="b1ecb49e55">
      <path
         d="M 22.765625,50 H 26 v 0.679688 h -3.234375 z m 0,0"
         clip-rule="nonzero"
         id="path31735" />
    </clipPath>
    <clipPath
       id="907be094a8">
      <path
         d="M 22.765625,17.679688 H 37 V 25 H 22.765625 Z m 0,0"
         clip-rule="nonzero"
         id="path31738" />
    </clipPath>
    <clipPath
       id="6118e29eb8">
      <path
         d="m 24.566406,23.335938 h 28.5 v 28.5 h -28.5 z m 0,0"
         clip-rule="nonzero"
         id="path41560" />
    </clipPath>
  </defs>
  <path
     fill="#dde0f9"
     d="m 47.624373,95.24999 c -0.943205,0 -1.896338,-0.02979 -2.834578,-0.0844 l -0.645349,-0.03971 -3.24661,-7.42153 C 38.346221,87.277432 35.834318,86.602296 33.406808,85.698805 L 26.88877,90.504183 26.307953,90.211294 C 24.625079,89.372338 22.971988,88.414241 21.398327,87.376717 L 20.857226,87.019292 21.760717,78.97227 C 19.765094,77.324143 17.923363,75.482413 16.275238,73.486791 L 8.228215,74.390282 7.870791,73.849181 C 6.833266,72.275518 5.875169,70.622428 5.036213,68.939553 L 4.743323,68.358738 9.548701,61.840699 C 8.645211,59.413188 7.970075,56.901286 7.543152,54.349671 l -7.42153,-3.246609 -0.03971,-0.64535 c -0.109216,-1.881445 -0.109216,-3.787711 0,-5.669156 l 0.03971,-0.645349 7.42153,-3.24661 c 0.426923,-2.546651 1.102059,-5.063518 2.005549,-7.486064 l -4.805378,-6.523004 0.29289,-0.580815 c 0.84392,-1.682875 1.797053,-3.335965 2.834578,-4.909626 l 0.357424,-0.541101 8.047023,0.903489 c 1.648125,-1.995621 3.489856,-3.837352 5.485479,-5.480513 L 20.857226,8.2269767 21.398327,7.8695518 c 1.578627,-1.0375257 3.226752,-1.9906586 4.909626,-2.8345777 l 0.580817,-0.2879249 6.518038,4.8053782 c 2.42751,-0.9034912 4.939413,-1.578627 7.491028,-2.0105156 l 3.24661,-7.42152952 0.645349,-0.034749 c 1.876481,-0.1141777 3.787711,-0.1141777 5.669156,0 l 0.64535,0.034749 3.246609,7.42152952 c 2.551615,0.4318886 5.063518,1.1070244 7.486064,2.0105156 l 6.523003,-4.8053782 0.580816,0.2879249 c 1.682874,0.8439181 3.330999,1.797051 4.909626,2.8345767 l 0.541102,0.3574249 -0.903492,8.0519863 c 1.995623,1.643161 3.837354,3.484892 5.485479,5.480513 l 8.047023,-0.903489 0.357425,0.541101 c 1.037524,1.578627 1.990657,3.226751 2.834577,4.909626 l 0.292891,0.580815 -4.810344,6.523004 c 0.908455,2.422546 1.578627,4.934449 2.010514,7.486064 l 7.42153,3.24661 0.03971,0.645349 c 0.109216,1.881445 0.109216,3.787711 0,5.669156 l -0.03971,0.64535 -7.42153,3.246609 c -0.431887,2.551615 -1.102059,5.068482 -2.010514,7.491028 l 4.810344,6.518039 -0.292891,0.580815 c -0.84392,1.682875 -1.797053,3.335965 -2.834577,4.909628 l -0.357425,0.541101 -8.047023,-0.903491 c -1.648125,1.995622 -3.489856,3.837352 -5.485479,5.485479 l 0.903492,8.047022 -0.541102,0.357425 c -1.573661,1.042488 -3.226752,1.995621 -4.909626,2.834577 l -0.580816,0.292889 -6.523003,-4.805378 c -2.422546,0.903491 -4.934449,1.578627 -7.486064,2.005551 l -3.246609,7.421529 -0.64535,0.03971 c -0.93824,0.05461 -1.896338,0.0844 -2.834578,0.0844 z m -2.065121,-2.164406 c 1.375092,0.05956 2.75515,0.05956 4.130242,0 l 3.187038,-7.292459 0.575852,-0.08935 c 2.789899,-0.426924 5.53512,-1.16163 8.166164,-2.189227 l 0.541101,-0.208497 6.408826,4.720986 c 1.216237,-0.630457 2.417581,-1.32545 3.574248,-2.065121 l -0.888598,-7.908025 0.456709,-0.362388 c 2.199156,-1.767268 4.214634,-3.777782 5.976938,-5.981902 l 0.367352,-0.451748 7.908025,0.883634 c 0.739671,-1.156667 1.4297,-2.353047 2.065122,-3.574248 l -4.725951,-6.408826 0.213462,-0.541101 c 1.022632,-2.631045 1.762302,-5.376266 2.189227,-8.166165 l 0.08935,-0.575852 7.29246,-3.187037 c 0.05956,-1.375092 0.05956,-2.75515 0,-4.125278 l -7.29246,-3.192003 -0.08935,-0.575851 C 85.278084,39.005224 84.538414,36.260001 83.515782,33.628958 L 83.30232,33.087857 88.028271,26.679031 C 87.392849,25.462794 86.70282,24.266413 85.963149,23.104783 l -7.908025,0.888598 -0.367352,-0.456709 c -1.762304,-2.20412 -3.777782,-4.214634 -5.976938,-5.976937 l -0.456709,-0.36239 0.888598,-7.9129879 C 70.981092,8.5446866 69.784712,7.8546578 68.568475,7.2241998 L 62.159649,11.945186 61.618548,11.731724 C 58.987504,10.709092 56.242283,9.9694207 53.452384,9.5424972 l -0.575852,-0.084392 -3.187038,-7.297424 c -1.375092,-0.059571 -2.75515,-0.059571 -4.130242,0 l -3.187037,7.297424 -0.575853,0.084392 C 39.006464,9.9694207 36.261243,10.709092 33.630198,11.731724 L 33.089097,11.945186 26.680271,7.2192359 C 25.464034,7.8546578 24.26269,8.5446866 23.106023,9.2843571 l 0.888598,7.9080239 -0.456709,0.367354 c -2.20412,1.762303 -4.214634,3.772817 -5.976938,5.976937 l -0.367352,0.456709 -7.908025,-0.888598 c -0.739671,1.156666 -1.434663,2.358011 -2.065121,3.574248 l 4.720986,6.408826 -0.208498,0.541101 c -1.027596,2.631043 -1.762302,5.38123 -2.189227,8.166164 l -0.08935,0.575851 -7.29246,3.187039 c -0.05956,1.375092 -0.05956,2.75515 0,4.130242 l 7.29246,3.187038 0.08935,0.575851 c 0.426925,2.7899 1.161631,5.535121 2.189227,8.166165 l 0.208498,0.541101 -4.720986,6.408826 c 0.630458,1.216237 1.32545,2.417581 2.065121,3.574248 l 7.908025,-0.883634 0.367352,0.451746 c 1.762304,2.204119 3.772818,4.214634 5.976938,5.976937 l 0.456709,0.367352 -0.888598,7.908025 c 1.156667,0.739671 2.358011,1.434664 3.574248,2.065122 l 6.408826,-4.720987 0.541101,0.208497 c 2.631045,1.027597 5.376266,1.762304 8.166164,2.189227 l 0.575853,0.08935 z m 2.065121,-11.169525 c -18.908765,0 -34.292926,-15.38416 -34.292926,-34.292926 0,-18.908767 15.384161,-34.292926 34.292926,-34.292926 18.908766,0 34.292926,15.384159 34.292926,34.292926 0,18.908766 -15.38416,34.292926 -34.292926,34.292926 z m 0,-66.466125 c -17.742171,0 -32.178161,14.431028 -32.178161,32.173199 0,17.74217 14.43599,32.178162 32.178161,32.178162 17.742172,0 32.173198,-14.435992 32.173198,-32.178162 0,-17.742171 -14.431026,-32.173199 -32.173198,-32.173199 z m 0,0"
     fill-opacity="1"
     fill-rule="nonzero"
     id="path41565"
     style="stroke-width:1" />
  <path
     fill="#000000"
     d="m 55.522469,56.772216 c 0.153892,0 0.287925,-0.05461 0.397139,-0.163821 0.114172,-0.114172 0.168783,-0.248211 0.168783,-0.402102 v -21.50506 c 0,-0.153892 -0.05461,-0.287925 -0.168783,-0.402103 -0.109217,-0.109216 -0.243247,-0.163819 -0.397139,-0.163819 -0.158855,0 -0.29289,0.05461 -0.402103,0.163819 -0.109216,0.114173 -0.16382,0.248211 -0.16382,0.402103 v 21.50506 c 0,0.153891 0.05461,0.287926 0.16382,0.402102 0.109217,0.109217 0.243248,0.163821 0.402103,0.163821 z m 0,0"
     fill-opacity="1"
     fill-rule="nonzero"
     id="path41567"
     style="stroke-width:1" />
  <g
     clip-path="url(#6118e29eb8)"
     id="g41571"
     transform="matrix(1.2708438,0,0,1.2708438,-0.03227,-0.04840213)"
     style="stroke-width:0.786879">
    <path
       fill="#000000"
       d="m 51.730469,44.710938 h -0.445313 v -0.445313 c 0,-0.175781 -0.03516,-0.347656 -0.101562,-0.511719 -0.07031,-0.164062 -0.164063,-0.308594 -0.289063,-0.433594 -0.125,-0.125 -0.269531,-0.222656 -0.433593,-0.289062 C 50.296875,42.96484 50.125,42.929688 49.949219,42.929688 h -0.890625 c -0.179688,0 -0.347656,0.03516 -0.511719,0.101562 -0.164063,0.06641 -0.308594,0.164062 -0.433594,0.289062 -0.125,0.125 -0.222656,0.269532 -0.289062,0.433594 -0.07031,0.164063 -0.101563,0.335938 -0.101563,0.511719 v 1.335937 h -1.78125 V 26.453125 c 0,-0.175781 -0.03516,-0.347656 -0.101562,-0.511719 -0.07031,-0.164062 -0.164063,-0.308594 -0.289063,-0.433594 -0.125,-0.125 -0.269531,-0.222656 -0.433593,-0.289062 -0.164063,-0.06641 -0.335938,-0.101562 -0.511719,-0.101562 h -4.898438 v -0.445313 c 0,-0.175781 -0.03516,-0.347656 -0.101562,-0.511719 -0.07031,-0.164062 -0.164063,-0.308594 -0.289063,-0.433594 -0.125,-0.125 -0.269531,-0.222656 -0.433594,-0.289062 -0.164062,-0.06641 -0.335937,-0.101562 -0.511718,-0.101562 h -6.234375 c -0.179688,0 -0.347657,0.03516 -0.511719,0.101562 -0.164062,0.06641 -0.308594,0.164062 -0.433594,0.289062 -0.125,0.125 -0.222656,0.269532 -0.289062,0.433594 -0.07031,0.164063 -0.101563,0.335938 -0.101563,0.511719 v 0.445313 h -4.898437 c -0.179688,0 -0.347656,0.03516 -0.511719,0.101562 -0.164063,0.06641 -0.308594,0.164062 -0.433594,0.289062 -0.125,0.125 -0.222656,0.269532 -0.289062,0.433594 -0.07031,0.164063 -0.101563,0.335938 -0.101563,0.511719 V 50.5 c 0,0.175781 0.03125,0.347656 0.101563,0.511719 0.06641,0.164062 0.164062,0.308593 0.289062,0.433593 0.125,0.125 0.269531,0.222657 0.433594,0.289063 0.164063,0.06641 0.332031,0.101563 0.511719,0.101563 h 18.703125 c 0.175781,0 0.347656,-0.03516 0.511719,-0.101563 0.164062,-0.06641 0.308593,-0.164063 0.433593,-0.289063 0.125,-0.125 0.21875,-0.269531 0.289063,-0.433593 0.06641,-0.164063 0.101562,-0.335938 0.101562,-0.511719 0,-0.121094 -0.04297,-0.226562 -0.132812,-0.316406 -0.08594,-0.08594 -0.191406,-0.128906 -0.3125,-0.128906 -0.125,0 -0.230469,0.04297 -0.316406,0.128906 -0.08594,0.08984 -0.128907,0.195312 -0.128907,0.316406 0,0.121094 -0.04297,0.226562 -0.132812,0.316406 -0.08594,0.08594 -0.191407,0.128906 -0.3125,0.128906 H 38.734375 C 38.785156,50.800781 38.8125,50.652344 38.816406,50.5 v -1.335938 h 8.90625 V 50.5 c 0,0.175781 0.03125,0.347656 0.101563,0.511719 0.06641,0.164062 0.164062,0.308593 0.289062,0.433593 0.125,0.125 0.269531,0.222657 0.433594,0.289063 0.164063,0.06641 0.332031,0.101563 0.511719,0.101563 h 0.890625 c 0.175781,0 0.347656,-0.03516 0.511719,-0.101563 0.164062,-0.06641 0.308593,-0.164063 0.433593,-0.289063 0.125,-0.125 0.21875,-0.269531 0.289063,-0.433593 C 51.25,50.847656 51.285156,50.675781 51.285156,50.5 v -0.445312 h 0.445313 c 0.175781,0 0.347656,-0.03516 0.511719,-0.101563 0.164062,-0.06641 0.308593,-0.164063 0.433593,-0.289063 0.125,-0.125 0.21875,-0.269531 0.289063,-0.433593 0.06641,-0.164063 0.101562,-0.335938 0.101562,-0.511719 v -2.671875 c 0,-0.175781 -0.03516,-0.347656 -0.101562,-0.511719 -0.07031,-0.164062 -0.164063,-0.308594 -0.289063,-0.433594 -0.125,-0.125 -0.269531,-0.222656 -0.433593,-0.289062 -0.164063,-0.06641 -0.335938,-0.101562 -0.511719,-0.101562 z M 31.691406,24.671875 c 0,-0.121094 0.04297,-0.226563 0.128906,-0.316406 0.08594,-0.08594 0.191407,-0.128907 0.316407,-0.128907 h 6.234375 c 0.121094,0 0.226562,0.04297 0.3125,0.128907 0.08984,0.08984 0.132812,0.195312 0.132812,0.316406 v 1.78125 c 0,0.121094 -0.04297,0.226563 -0.132812,0.316406 -0.08594,0.08594 -0.191406,0.128907 -0.3125,0.128907 h -1.859375 c -0.09375,-0.265626 -0.257813,-0.480469 -0.488281,-0.644532 -0.230469,-0.164062 -0.488282,-0.246094 -0.769532,-0.246094 -0.285156,0 -0.542968,0.08203 -0.773437,0.246094 -0.230469,0.164063 -0.394531,0.378906 -0.488281,0.644532 h -1.855469 c -0.125,0 -0.230469,-0.04297 -0.316407,-0.128907 -0.08594,-0.08984 -0.128906,-0.195312 -0.128906,-0.316406 z M 25.457031,50.5 V 26.453125 c 0,-0.121094 0.04297,-0.226563 0.128907,-0.316406 0.08594,-0.08594 0.191406,-0.128907 0.316406,-0.128907 h 0.527344 c -0.05469,0.144532 -0.08203,0.292969 -0.08203,0.445313 V 48.71875 c 0,0.175781 0.03125,0.347656 0.101563,0.511719 0.06641,0.164062 0.164062,0.308593 0.289062,0.433593 0.125,0.125 0.269531,0.222657 0.433594,0.289063 0.164063,0.06641 0.332031,0.101563 0.511719,0.101563 h 4.453125 c 0.121093,0 0.226562,-0.04297 0.3125,-0.128907 0.08984,-0.08984 0.132812,-0.195312 0.132812,-0.316406 0,-0.121094 -0.04297,-0.226563 -0.132812,-0.316406 -0.08594,-0.08594 -0.191407,-0.128907 -0.3125,-0.128907 h -4.453125 c -0.125,0 -0.230469,-0.04297 -0.316406,-0.128906 -0.08594,-0.08984 -0.128907,-0.195312 -0.128907,-0.316406 V 26.453125 c 0,-0.121094 0.04297,-0.226563 0.128907,-0.316406 0.08594,-0.08594 0.191406,-0.128907 0.316406,-0.128907 h 3.117187 v 0.445313 c 0,0.175781 0.03125,0.347656 0.101563,0.511719 0.06641,0.164062 0.164062,0.308594 0.289062,0.433594 0.125,0.125 0.269532,0.222656 0.433594,0.289062 0.164062,0.06641 0.332031,0.101562 0.511719,0.101562 h 2.226562 c 0.121094,0 0.226563,-0.04297 0.3125,-0.128906 0.08984,-0.08984 0.132813,-0.195312 0.132813,-0.316406 0,-0.121094 0.04297,-0.226562 0.128906,-0.316406 0.08594,-0.08594 0.191406,-0.128906 0.316406,-0.128906 0.121094,0 0.226563,0.04297 0.3125,0.128906 0.08984,0.08984 0.132813,0.195312 0.132813,0.316406 0,0.121094 0.04297,0.226562 0.128906,0.316406 0.08594,0.08594 0.191406,0.128906 0.316406,0.128906 h 2.226563 c 0.175781,0 0.347656,-0.03516 0.511718,-0.101562 0.164063,-0.06641 0.308594,-0.164062 0.433594,-0.289062 0.125,-0.125 0.21875,-0.269532 0.289063,-0.433594 0.06641,-0.164063 0.101562,-0.335938 0.101562,-0.511719 v -0.445313 h 4.898438 c 0.121093,0 0.226562,0.04297 0.3125,0.128907 0.08984,0.08984 0.132812,0.195312 0.132812,0.316406 v 19.148437 h -6.234375 v -1.335937 c 0,-0.175781 -0.03516,-0.347656 -0.101562,-0.511719 -0.07031,-0.164062 -0.164063,-0.308594 -0.289063,-0.433594 -0.125,-0.125 -0.269531,-0.222656 -0.433593,-0.289062 -0.164063,-0.06641 -0.335938,-0.101562 -0.511719,-0.101562 h -0.890625 c -0.179688,0 -0.347656,0.03516 -0.511719,0.101562 -0.164063,0.06641 -0.308594,0.164062 -0.433594,0.289062 -0.125,0.125 -0.222656,0.269532 -0.289062,0.433594 -0.07031,0.164063 -0.101563,0.335938 -0.101563,0.511719 v 0.445313 h -0.445312 c -0.179688,0 -0.347656,0.03516 -0.511719,0.101562 -0.164063,0.06641 -0.308594,0.164062 -0.433594,0.289062 -0.125,0.125 -0.222656,0.269532 -0.289062,0.433594 -0.07031,0.164063 -0.101563,0.335938 -0.101563,0.511719 v 2.671875 c 0,0.175781 0.03125,0.347656 0.101563,0.511719 0.06641,0.164062 0.164062,0.308593 0.289062,0.433593 0.125,0.125 0.269531,0.222657 0.433594,0.289063 0.164063,0.06641 0.332031,0.101563 0.511719,0.101563 h 0.445312 V 50.5 c 0,0.152344 0.02734,0.300781 0.08203,0.445312 h -9.433594 c -0.125,0 -0.230469,-0.04297 -0.316406,-0.128906 C 25.5,50.726562 25.457031,50.621094 25.457031,50.5 Z m 11.578125,0.445312 h -0.445312 c -0.125,0 -0.230469,-0.04297 -0.316406,-0.128906 C 36.1875,50.726562 36.144531,50.621094 36.144531,50.5 v -3.5625 c 0,-0.121094 -0.04297,-0.226562 -0.132812,-0.316406 -0.08594,-0.08594 -0.191407,-0.128906 -0.3125,-0.128906 -0.125,0 -0.230469,0.04297 -0.316407,0.128906 -0.08594,0.08984 -0.128906,0.195312 -0.128906,0.316406 v 2.226562 h -0.445312 c -0.125,0 -0.230469,-0.04297 -0.316406,-0.128906 -0.08594,-0.08984 -0.128907,-0.195312 -0.128907,-0.316406 v -2.671875 c 0,-0.121094 0.04297,-0.226563 0.128907,-0.316406 0.08594,-0.08594 0.191406,-0.128907 0.316406,-0.128907 h 0.890625 c 0.121093,0 0.226562,-0.04297 0.3125,-0.128906 0.08984,-0.08984 0.132812,-0.195312 0.132812,-0.316406 v -0.890625 c 0,-0.121094 0.04297,-0.226563 0.128907,-0.316406 0.08594,-0.08594 0.191406,-0.128907 0.316406,-0.128907 h 0.890625 c 0.121093,0 0.226562,0.04297 0.3125,0.128907 0.08984,0.08984 0.132812,0.195312 0.132812,0.316406 V 50.5 c 0,0.121094 -0.04297,0.226562 -0.132812,0.316406 -0.08594,0.08594 -0.191407,0.128906 -0.3125,0.128906 z m 1.78125,-2.671874 v -1.78125 h 8.90625 v 1.78125 z M 50.394531,50.5 c 0,0.121094 -0.04297,0.226562 -0.132812,0.316406 -0.08594,0.08594 -0.191407,0.128906 -0.3125,0.128906 h -0.890625 c -0.125,0 -0.230469,-0.04297 -0.316406,-0.128906 C 48.65625,50.726562 48.613281,50.621094 48.613281,50.5 v -6.234375 c 0,-0.121094 0.04297,-0.226563 0.128907,-0.316406 0.08594,-0.08594 0.191406,-0.128907 0.316406,-0.128907 h 0.890625 c 0.121093,0 0.226562,0.04297 0.3125,0.128907 0.08984,0.08984 0.132812,0.195312 0.132812,0.316406 z m 1.78125,-1.78125 c 0,0.121094 -0.04297,0.226562 -0.132812,0.316406 -0.08594,0.08594 -0.191407,0.128906 -0.3125,0.128906 h -0.445313 v -3.5625 h 0.445313 c 0.121093,0 0.226562,0.04297 0.3125,0.128907 0.08984,0.08984 0.132812,0.195312 0.132812,0.316406 z m 0,0"
       fill-opacity="1"
       fill-rule="nonzero"
       id="path41569"
       style="stroke-width:0.619178" />
  </g>
  <path
     fill="#000000"
     d="m 36.2811,45.453763 h 4.527381 c 0.15389,0 0.287925,-0.05461 0.397138,-0.16382 0.114173,-0.114173 0.168784,-0.248211 0.168784,-0.402103 v -4.294062 l 0.963062,-0.963062 c 0.109216,-0.114172 0.163819,-0.243247 0.158855,-0.402102 0,-0.153892 -0.05461,-0.282961 -0.163819,-0.392175 -0.109217,-0.109216 -0.243249,-0.163819 -0.397139,-0.168783 -0.153891,0 -0.282962,0.05461 -0.397139,0.158855 l -0.963062,0.968025 H 36.2811 c -0.158856,0 -0.29289,0.05461 -0.402104,0.16382 -0.109217,0.114173 -0.16382,0.248212 -0.16382,0.402103 v 4.527381 c 0,0.153892 0.05461,0.287926 0.16382,0.402103 0.109216,0.109216 0.243248,0.16382 0.402104,0.16382 z m 0.565922,-4.527381 h 2.596294 l -1.30063,1.295665 c -0.114172,0.114173 -0.168783,0.248211 -0.173747,0.402103 0,0.158855 0.05461,0.29289 0.168783,0.407067 0.109217,0.114173 0.243248,0.168784 0.402103,0.16382 0.158855,0 0.29289,-0.05461 0.402104,-0.168785 l 1.300628,-1.300628 v 2.596293 h -3.395535 z m 0,0"
     fill-opacity="1"
     fill-rule="nonzero"
     id="path41573"
     style="stroke-width:1" />
  <path
     fill="#000000"
     d="m 42.337465,46.749428 c -0.109217,-0.109216 -0.243247,-0.163821 -0.397139,-0.163821 -0.158855,0 -0.29289,0.05461 -0.402103,0.163821 l -0.963062,0.968026 H 36.2811 c -0.158856,0 -0.29289,0.05461 -0.402104,0.163819 -0.109217,0.114173 -0.16382,0.248211 -0.16382,0.402103 v 4.527381 c 0,0.153891 0.05461,0.287925 0.16382,0.402103 0.109216,0.109216 0.243248,0.163819 0.402104,0.163819 h 4.527381 c 0.15389,0 0.287925,-0.05461 0.397138,-0.163819 0.114173,-0.114173 0.168784,-0.248212 0.168784,-0.402103 v -4.294062 l 0.963062,-0.963062 c 0.114172,-0.114172 0.168783,-0.248211 0.168783,-0.402102 0,-0.153892 -0.05461,-0.287927 -0.168783,-0.402103 z m -2.094908,5.495407 h -3.395535 v -3.395537 h 2.596294 l -1.30063,1.295666 c -0.114172,0.114172 -0.168783,0.248211 -0.173747,0.402102 0,0.158856 0.05461,0.292891 0.168783,0.407067 0.109217,0.114173 0.243248,0.168785 0.402103,0.163821 0.158855,0 0.29289,-0.05461 0.402104,-0.168785 l 1.300628,-1.300629 z m 0,0"
     fill-opacity="1"
     fill-rule="nonzero"
     id="path41575"
     style="stroke-width:1" />
  <path
     fill="#000000"
     d="m 45.335862,40.926382 h 7.922917 c 0.153891,0 0.287924,-0.05461 0.397138,-0.16382 0.114173,-0.114173 0.168784,-0.248211 0.168784,-0.402103 0,-0.153891 -0.05461,-0.287926 -0.168784,-0.402103 -0.109216,-0.109216 -0.243247,-0.16382 -0.397138,-0.16382 h -7.922917 c -0.158856,0 -0.29289,0.05461 -0.402104,0.16382 -0.109216,0.114173 -0.16382,0.248212 -0.16382,0.402103 0,0.153892 0.05461,0.287926 0.16382,0.402103 0.109216,0.109216 0.243248,0.16382 0.402104,0.16382 z m 0,0"
     fill-opacity="1"
     fill-rule="nonzero"
     id="path41577"
     style="stroke-width:1" />
  <path
     fill="#000000"
     d="m 44.204016,43.190073 h 9.054763 c 0.153891,0 0.287924,-0.05461 0.397138,-0.163821 0.114173,-0.114172 0.168784,-0.248211 0.168784,-0.402102 0,-0.153892 -0.05461,-0.287927 -0.168784,-0.402103 -0.109216,-0.109216 -0.243247,-0.163821 -0.397138,-0.163821 h -9.054763 c -0.158855,0 -0.29289,0.05461 -0.402102,0.163821 -0.109216,0.114173 -0.163821,0.248211 -0.163821,0.402103 0,0.153891 0.05461,0.287926 0.163821,0.402102 0.109216,0.109217 0.243247,0.163821 0.402102,0.163821 z m 0,0"
     fill-opacity="1"
     fill-rule="nonzero"
     id="path41579"
     style="stroke-width:1" />
  <path
     fill="#000000"
     d="m 44.204016,45.453763 h 7.922917 c 0.153891,0 0.287925,-0.05461 0.397139,-0.16382 0.114173,-0.114173 0.168783,-0.248211 0.168783,-0.402103 0,-0.153891 -0.05461,-0.287926 -0.168783,-0.402102 -0.109216,-0.109217 -0.243248,-0.163821 -0.397139,-0.163821 h -7.922917 c -0.158855,0 -0.29289,0.05461 -0.402102,0.163821 -0.109216,0.114172 -0.163821,0.248211 -0.163821,0.402102 0,0.153892 0.05461,0.287926 0.163821,0.402103 0.109216,0.109216 0.243247,0.16382 0.402102,0.16382 z m 0,0"
     fill-opacity="1"
     fill-rule="nonzero"
     id="path41581"
     style="stroke-width:1" />
  <path
     fill="#000000"
     d="m 53.258779,47.717454 h -7.922917 c -0.158856,0 -0.29289,0.05461 -0.402104,0.163819 -0.109216,0.114173 -0.16382,0.248211 -0.16382,0.402103 0,0.153891 0.05461,0.287925 0.16382,0.402102 0.109216,0.109217 0.243248,0.16382 0.402104,0.16382 h 7.922917 c 0.153891,0 0.287924,-0.05461 0.397138,-0.16382 0.114173,-0.114172 0.168784,-0.248211 0.168784,-0.402102 0,-0.153892 -0.05461,-0.287925 -0.168784,-0.402103 -0.109216,-0.109216 -0.243247,-0.163819 -0.397138,-0.163819 z m 0,0"
     fill-opacity="1"
     fill-rule="nonzero"
     id="path41583"
     style="stroke-width:1" />
  <path
     fill="#000000"
     d="m 44.204016,51.112988 h 9.054763 c 0.153891,0 0.287924,-0.05461 0.397138,-0.163819 0.114173,-0.114173 0.168784,-0.248211 0.168784,-0.402103 0,-0.153891 -0.05461,-0.287925 -0.168784,-0.402102 -0.109216,-0.109217 -0.243247,-0.16382 -0.397138,-0.16382 h -9.054763 c -0.158855,0 -0.29289,0.05461 -0.402102,0.16382 -0.109216,0.114172 -0.163821,0.248211 -0.163821,0.402102 0,0.153892 0.05461,0.287925 0.163821,0.402103 0.109216,0.109216 0.243247,0.163819 0.402102,0.163819 z m 0,0"
     fill-opacity="1"
     fill-rule="nonzero"
     id="path41585"
     style="stroke-width:1" />
  <path
     fill="#000000"
     d="m 44.204016,53.376679 h 7.922917 c 0.153891,0 0.287925,-0.05461 0.397139,-0.163819 0.114173,-0.114173 0.168783,-0.248212 0.168783,-0.402103 0,-0.153892 -0.05461,-0.287925 -0.168783,-0.402103 -0.109216,-0.109216 -0.243248,-0.163819 -0.397139,-0.163819 h -7.922917 c -0.158855,0 -0.29289,0.05461 -0.402102,0.163819 -0.109216,0.114173 -0.163821,0.248211 -0.163821,0.402103 0,0.153891 0.05461,0.287925 0.163821,0.402103 0.109216,0.109216 0.243247,0.163819 0.402102,0.163819 z m 0,0"
     fill-opacity="1"
     fill-rule="nonzero"
     id="path41587"
     style="stroke-width:1" />
  <path
     style="fill:#ffffff;stroke-width:1.333;stroke-linecap:round;stroke-linejoin:round"
     d="m 61.093134,124.0142 c -0.208944,-0.0555 -1.083849,-1.81205 -2.388575,-4.79548 -1.132373,-2.58933 -2.115531,-4.74289 -2.184793,-4.7857 -0.06926,-0.0428 -1.294004,-0.31377 -2.721648,-0.60213 -2.950809,-0.59603 -6.034503,-1.4587 -8.213369,-2.2977 l -1.488785,-0.57328 -0.855597,0.64973 c -0.470579,0.35735 -2.398473,1.78199 -4.284209,3.16587 l -3.428611,2.51616 -2.082411,-1.18981 c -1.145326,-0.65439 -2.188831,-1.29852 -2.318902,-1.4314 -0.181903,-0.18583 -0.09763,-1.43869 0.365097,-5.42769 l 0.601589,-5.18609 -0.7659,-0.6253 c -2.796671,-2.28325 -5.433725,-4.918019 -7.779926,-7.773188 l -0.601202,-0.731623 -5.201,0.585072 c -4.177061,0.469886 -5.248073,0.535309 -5.440102,0.332307 -0.331943,-0.350912 -2.4851507,-4.131826 -2.4851507,-4.363788 0,-0.103964 1.3864367,-2.0684 3.0809697,-4.365415 l 3.080969,-4.17639 -1.066999,-3.197405 C 14.32773,77.982377 13.605934,75.28317 13.310588,73.742713 13.015243,72.202257 12.709669,70.809505 12.631534,70.647707 12.5534,70.48591 10.378239,69.431012 7.7978425,68.303491 L 3.1062124,66.253453 v -2.752884 -2.752886 l 4.694197,-2.061735 c 2.5818086,-1.133956 4.7600226,-2.168245 4.8404756,-2.298419 0.08045,-0.130176 0.20791,-0.741367 0.283237,-1.358198 0.207939,-1.702748 1.577244,-6.896982 2.378475,-9.022359 l 0.712054,-1.88882 -0.739456,-1.016992 C 14.868494,42.541816 13.514171,40.70187 12.26559,39.012395 11.017008,37.32292 9.9461613,35.8122 9.8859305,35.65524 c -0.081494,-0.21237 1.9814145,-4.129098 2.4612455,-4.673026 0.03877,-0.04395 2.425091,0.180012 5.302933,0.497696 l 5.232438,0.577607 0.703922,-0.798299 c 3.131507,-3.551346 5.771349,-6.162132 7.937156,-7.849789 l 0.5617,-0.437694 -0.512694,-4.67224 C 31.290649,15.729763 31.01402,13.348919 30.9579,13.008731 c -0.1,-0.606139 -0.05525,-0.645111 2.234982,-1.946562 l 2.33702,-1.3280393 0.621821,0.4376423 c 0.342004,0.240703 2.15489,1.571671 4.028638,2.957708 1.873747,1.386036 3.517475,2.587634 3.652727,2.670217 0.135253,0.08258 1.442868,-0.252133 2.905812,-0.743813 2.603735,-0.875088 5.679208,-1.66578 8.461703,-2.17547 l 1.392988,-0.255163 2.112345,-4.86506 2.112347,-4.8650594 2.696751,0.05544 2.696752,0.05544 2.108182,4.8178002 2.108184,4.8178012 2.711776,0.531523 c 2.82598,0.553908 5.640872,1.327196 8.254978,2.267752 l 1.535186,0.55236 4.253982,-3.127755 4.253982,-3.1277553 0.594158,0.3072513 c 0.326788,0.168988 1.351421,0.754532 2.276964,1.301209 1.99779,1.180004 1.883676,0.55401 1.182986,6.489473 -0.273244,2.31463 -0.498018,4.437882 -0.499497,4.71834 -0.002,0.381847 0.26066,0.709017 1.04581,1.302604 1.372058,1.037301 6.048853,5.710864 7.060093,7.055209 0.65016,0.864326 0.9003,1.052346 1.40153,1.053461 0.33557,8.01e-4 2.72,-0.236602 5.29873,-0.527441 l 4.68862,-0.5288 0.36425,0.477343 c 0.20033,0.262537 0.82698,1.309791 1.39253,2.32723 l 1.0283,1.84989 -2.98811,4.061934 c -1.64346,2.234064 -3.04933,4.165254 -3.12415,4.291537 -0.0748,0.126281 0.18659,1.118264 0.58092,2.204409 0.86342,2.378192 1.96157,6.582258 2.29965,8.803725 l 0.24631,1.618499 4.83037,2.109509 4.83038,2.109511 0.0556,2.711026 0.0556,2.711026 -2.15981,0.94259 c -1.1879,0.518422 -3.38472,1.479567 -4.88184,2.135875 l -2.72203,1.193289 -0.23897,1.561072 c -0.32761,2.140064 -1.25409,5.717172 -2.13496,8.243012 -0.40361,1.157315 -0.77307,2.239479 -0.82102,2.40481 -0.0489,0.168523 1.27953,2.147881 3.0234,4.504911 1.71083,2.312371 3.1106,4.252692 3.1106,4.311824 0,0.14179 -2.38244,4.265162 -2.57798,4.461792 -0.0833,0.08375 -2.49071,-0.11467 -5.34985,-0.440936 l -5.19842,-0.593213 -0.80161,0.935032 c -2.5554,2.98075 -5.026193,5.447109 -7.498933,7.485479 l -0.879507,0.72501 0.532772,4.78601 c 0.293024,2.63231 0.532383,5.02544 0.531906,5.31807 -8.02e-4,0.45553 -0.238668,0.66907 -1.654171,1.48466 -0.909318,0.52394 -1.923847,1.11137 -2.254509,1.30542 l -0.601202,0.35281 -4.289768,-3.15827 -4.289767,-3.15828 -1.521856,0.57067 c -2.83289,1.06229 -6.565745,2.02926 -10.243465,2.65351 l -0.705577,0.11976 -2.090499,4.79639 c -1.596769,3.66359 -2.187411,4.82242 -2.500836,4.90662 -0.47297,0.12705 -4.255807,0.11239 -4.748064,-0.0184 z m 9.047147,-15.20493 C 84.8638,106.55784 97.32801,97.643333 104.17278,84.468938 c 3.26724,-6.288579 4.79708,-12.289788 4.99151,-19.580531 0.1647,-6.17601 -0.43561,-10.394263 -2.25906,-15.874006 -2.24028,-6.732375 -5.85035,-12.576816 -10.912296,-17.666219 -3.998824,-4.020515 -7.600635,-6.612976 -12.526,-9.015791 -15.553651,-7.58777 -33.965325,-5.706168 -47.890589,4.894232 -2.164335,1.647569 -5.81188,5.209092 -7.610377,7.430898 -5.392235,6.661397 -8.775448,14.602697 -9.951371,23.358511 -0.372743,2.775411 -0.315421,8.806447 0.111425,11.723447 1.939261,13.252609 9.129619,24.614872 20.250383,31.999821 6.279992,4.17034 13.24709,6.57064 21.643635,7.45664 1.627415,0.17172 8.081096,-0.0748 10.120241,-0.38667 z"
     id="path6559"
     transform="scale(0.74999997)" />
</svg>
