<?xml version="1.0" encoding="UTF-8" standalone="no"?>
<!-- Created with Inkscape (http://www.inkscape.org/) -->

<svg
   width="48mm"
   height="55.188381mm"
   viewBox="0 0 48 55.188382"
   version="1.1"
   id="svg55462"
   inkscape:version="1.2.1 (9c6d41e410, 2022-07-14)"
   sodipodi:docname="why_section_img5_piggybank.svg"
   xmlns:inkscape="http://www.inkscape.org/namespaces/inkscape"
   xmlns:sodipodi="http://sodipodi.sourceforge.net/DTD/sodipodi-0.dtd"
   xmlns="http://www.w3.org/2000/svg"
   xmlns:svg="http://www.w3.org/2000/svg">
  <sodipodi:namedview
     id="namedview55464"
     pagecolor="#ffffff"
     bordercolor="#111111"
     borderopacity="1"
     inkscape:showpageshadow="0"
     inkscape:pageopacity="0"
     inkscape:pagecheckerboard="1"
     inkscape:deskcolor="#d1d1d1"
     inkscape:document-units="mm"
     showgrid="false"
     inkscape:zoom="3.5562851"
     inkscape:cx="75.359538"
     inkscape:cy="68.470327"
     inkscape:window-width="1751"
     inkscape:window-height="1243"
     inkscape:window-x="539"
     inkscape:window-y="87"
     inkscape:window-maximized="0"
     inkscape:current-layer="layer1" />
  <defs
     id="defs55459" />
  <g
     inkscape:label="Слой 1"
     inkscape:groupmode="layer"
     id="layer1"
     transform="translate(6.0607366,-3.7393749)">
    <path
       fill="#f0f0f8"
       d="M 27.034342,27.8205 20.001252,40.225599 6.098133,40.133499 -0.77000192,27.636312 6.263094,15.231231 l 13.903119,0.0921 6.868129,12.497169"
       fill-opacity="1"
       fill-rule="nonzero"
       id="path322-40"
       style="fill:#edeeef;fill-opacity:1;stroke-width:0.386524" />
    <path
       style="fill:none;fill-opacity:1;stroke:#cbd3ed;stroke-width:0.79375;stroke-dasharray:none;stroke-opacity:1"
       d="M 2.7650385,45.057617 -5.733882,58.98142"
       id="path103810-2-3-1" />
    <path
       style="fill:none;fill-opacity:1;stroke:#cbd3ed;stroke-width:0.79375;stroke-dasharray:none;stroke-opacity:1"
       d="M -5.7044813,3.6771479 2.895891,18.378249"
       id="path103810-2-3-1-2" />
    <path
       style="fill:none;fill-opacity:1;stroke:#cbd3ed;stroke-width:0.740833;stroke-dasharray:none;stroke-opacity:1"
       d="m 41.969564,31.433492 -15.995299,0.03894"
       id="path103810-0-7-9-9" />
    <path
       stroke-linecap="round"
       fill="none"
       stroke-linejoin="miter"
       d="M 18.303411,44.968657 2.7977344,44.91078 -4.9041169,31.444583 2.8983324,18.037641 18.404005,18.095521 26.10586,31.560343 Z m 0,0"
       stroke="#000000"
       stroke-width="0.853091"
       stroke-opacity="1"
       stroke-miterlimit="4"
       id="path98862-0"
       style="fill:#ffffff;fill-opacity:1;stroke:#cbd3ed;stroke-opacity:1" />
    <path
       style="fill:none;fill-opacity:1;stroke:#000000;stroke-width:0.264583;stroke-dasharray:none;stroke-opacity:1"
       d="m 2.9676968,18.558293 15.0482782,0.0407 7.46642,12.846454 -7.502403,13.000061 -14.775106,-0.0038 -7.5449803,-12.923818 z"
       id="path110182" />
    <path
       style="fill:none;fill-opacity:1;stroke:#000000;stroke-width:0.264583;stroke-dasharray:none;stroke-opacity:1"
       d="M 4.065435,18.481154 -3.3515169,31.395616"
       id="path110454" />
    <path
       style="fill:none;fill-opacity:1;stroke:#000000;stroke-width:0.264583;stroke-dasharray:none;stroke-opacity:1"
       d="m 24.457284,31.51932 -7.6575,13.01054"
       id="path110454-8" />
    <path
       fill="#000000"
       d="m 14.778249,30.954086 c -0.02005,0.0795 -0.05157,0.153981 -0.09597,0.222734 -0.04369,0.06947 -0.0974,0.12963 -0.161141,0.181195 -0.06374,0.05157 -0.133928,0.09167 -0.210559,0.121035 -0.07663,0.02865 -0.156129,0.04512 -0.237774,0.0487 -0.08164,0.0029 -0.161858,-0.0064 -0.240638,-0.02936 -0.07878,-0.0222 -0.151832,-0.0573 -0.219869,-0.103131 -0.06732,-0.04655 -0.126049,-0.102414 -0.175466,-0.167588 -0.04941,-0.06517 -0.08737,-0.136791 -0.113873,-0.214139 -0.01003,-0.0308 -0.01504,-0.06159 -0.01289,-0.09382 0.0015,-0.03223 0.0093,-0.06302 0.02364,-0.09239 0.01361,-0.02865 0.03294,-0.05371 0.05658,-0.0752 0.02435,-0.02148 0.05157,-0.03796 0.08164,-0.0487 0.0308,-0.01074 0.06159,-0.01504 0.09382,-0.01361 0.03223,0.0021 0.06302,0.01002 0.09167,0.02364 0.02936,0.01432 0.05443,0.03294 0.07592,0.05658 0.02149,0.02435 0.03796,0.05157 0.0487,0.08165 0.0036,0.01146 0.0086,0.0222 0.01289,0.03366 0.01218,0.01862 0.02435,0.03796 0.03796,0.05658 0.005,0.005 0.01003,0.01003 0.01504,0.01504 0.01719,0.01218 0.03366,0.02578 0.0487,0.04011 0.0086,0.0043 0.01647,0.0093 0.02507,0.01361 0.01146,0.0057 0.02363,0.01074 0.03438,0.01647 0.01862,0.005 0.03796,0.01003 0.05729,0.01361 h 0.0021 c 0.0029,0 0.0057,7.27e-4 0.0079,7.27e-4 0.0086,0 0.01647,7.28e-4 0.02435,0.0029 -0.0043,-0.0015 -0.0064,-0.0015 -0.01003,-0.0029 0.01934,-7.27e-4 0.03867,-0.0036 0.05801,-0.005 0.01074,-0.0036 0.02149,-0.0072 0.03223,-0.01074 0.01074,-0.0036 0.01862,-0.0072 0.02722,-0.01074 0.01576,-0.01289 0.03796,-0.02292 0.05443,-0.03509 l 0.0072,-0.0057 c 0.0057,-0.005 0.01146,-0.0093 0.01576,-0.01432 0.01504,-0.01576 0.02793,-0.03223 0.04082,-0.0487 0.0064,-0.01146 0.01218,-0.0222 0.01719,-0.03366 0.0043,-0.0086 0.0079,-0.01719 0.01218,-0.02578 0.0015,-0.0043 0.0029,-0.0079 0.0057,-0.01146 0.0079,-0.0308 0.02149,-0.05873 0.04011,-0.08451 0.01934,-0.02578 0.04225,-0.04655 0.06947,-0.06302 0.02721,-0.01647 0.05658,-0.0265 0.08737,-0.03151 0.03151,-0.005 0.06302,-0.0036 0.09382,0.0036 0.0308,0.0079 0.05873,0.02077 0.08451,0.03939 0.02578,0.01862 0.04727,0.04154 0.06374,0.06875 0.01647,0.0265 0.02793,0.05586 0.03294,0.08738 0.005,0.03151 0.0043,0.06231 -0.0029,0.0931 z m 2.456516,2.066195 c -0.05801,0.191222 -0.175465,0.332311 -0.353795,0.42255 -0.163291,0.07663 -0.333027,0.137507 -0.508492,0.181911 -0.186924,0.05658 -0.3717,0.113873 -0.557909,0.169019 -0.179046,0.37743 -0.4204,0.70974 -0.724063,0.996215 -0.303662,0.28719 -0.64958,0.508491 -1.036319,0.666052 0.01576,0.281461 0.0021,0.562205 -0.04154,0.840801 -0.05729,0.361674 -0.131062,0.790669 -0.408942,0.900961 -0.0086,0.0036 -0.01719,0.0064 -0.0265,0.0093 -0.164723,0.06875 -0.336607,0.100982 -0.515654,0.0974 -0.265704,0.02506 -0.517085,-0.02363 -0.754143,-0.146818 -0.06374,-0.03867 -0.120319,-0.08594 -0.16902,-0.141805 v -0.0021 c -0.140372,-0.182627 -0.214139,-0.388172 -0.221301,-0.618068 -0.0036,-0.04512 -0.0086,-0.09167 -0.01003,-0.136075 -0.781359,0.04727 -1.561285,0.02507 -2.339062,-0.06589 l -0.02722,0.30581 c 0,0.173317 -0.03867,0.33804 -0.116022,0.493452 C 9.260747,37.25512 8.953503,37.296659 8.669178,37.303821 8.403473,37.328881 8.152092,37.280181 7.914319,37.158435 7.64002,36.989415 7.551929,36.701509 7.524714,36.397846 7.500364,36.14002 7.484604,35.881477 7.467424,35.624366 7.15087,35.466805 6.859383,35.272719 6.59153,35.042107 6.323676,34.811496 6.089484,34.550804 5.887519,34.260749 5.685555,33.970694 5.522981,33.659869 5.399797,33.328992 5.275897,32.998114 5.195684,32.656494 5.158443,32.304847 c -0.153264,0.02435 -0.307244,0.03151 -0.462656,0.02292 -0.189073,0.23849 -0.433292,0.388173 -0.731942,0.449049 -0.0308,0.0079 -0.06231,0.0093 -0.09382,0.005 -0.03151,-0.0043 -0.06159,-0.01432 -0.08881,-0.03008 -0.02793,-0.01576 -0.05157,-0.03581 -0.07162,-0.06088 -0.02005,-0.02435 -0.03509,-0.05228 -0.0444,-0.08308 -0.0079,-0.0308 -0.01003,-0.06159 -0.0064,-0.09382 0.0043,-0.03151 0.01432,-0.06159 0.03008,-0.08881 0.01576,-0.02793 0.03653,-0.05157 0.06159,-0.07162 0.02507,-0.01934 0.053,-0.03366 0.08379,-0.04225 0.06159,-0.01218 0.121036,-0.02936 0.179763,-0.05228 0.0086,-0.0029 0.01647,-0.0064 0.02435,-0.01003 0.01218,-0.0057 0.0222,-0.01218 0.03438,-0.0179 0.02936,-0.01576 0.05729,-0.03294 0.08451,-0.05157 0.0021,0 0.005,-0.0036 0.01074,-0.0093 -0.05371,-0.03294 -0.103131,-0.0709 -0.148967,-0.113873 -0.275731,-0.264988 -0.343052,-0.765602 -0.03223,-1.034887 0.07305,-0.06517 0.156844,-0.110293 0.251381,-0.136076 0.09525,-0.02578 0.190505,-0.02936 0.286474,-0.01074 0.0974,0.02435 0.181911,0.07019 0.254962,0.138224 0.07305,0.06804 0.125332,0.149682 0.156128,0.244935 0.06732,0.196234 0.07019,0.393186 0.01002,0.591569 l 0.04512,-0.005 c 0.01146,0 0.02292,-0.0015 0.03438,-0.0029 0.01074,-0.0021 0.03151,-0.0057 0.03295,-0.0057 0.02793,-0.005 0.05515,-0.0086 0.08093,-0.01361 0.0072,-0.375281 0.06804,-0.741968 0.181195,-1.099344 0.09167,-0.282894 0.211275,-0.553612 0.359525,-0.811438 0.148251,-0.257827 0.321567,-0.497749 0.519951,-0.719051 0.198383,-0.222017 0.417536,-0.4204 0.657458,-0.595866 0.239922,-0.176181 0.4956,-0.324432 0.767035,-0.4469 C 7.433088,27.743463 7.337119,27.3159 7.337119,26.866852 v -0.02578 c 0,-0.01576 7.27e-4,-0.03151 0.0021,-0.04655 0.0064,-0.312973 0.06016,-0.617352 0.161857,-0.913136 h 0.005 c 0.04369,-0.124616 0.09525,-0.245652 0.155413,-0.36239 0.02793,-0.05371 0.05729,-0.107428 0.08809,-0.156128 h -0.01289 c 0.07019,-0.118887 0.14825,-0.232761 0.233476,-0.342337 0.03939,-0.05157 0.08093,-0.101698 0.125332,-0.149683 h 0.01576 c 0.02077,-0.02435 0.04297,-0.04655 0.06589,-0.0709 0.01504,-0.01576 0.02936,-0.03151 0.04297,-0.04655 0.126048,-0.1239 0.261407,-0.236341 0.40536,-0.338755 0.14467,-0.100266 0.296501,-0.187641 0.456211,-0.262124 0.158993,-0.07448 0.323715,-0.133927 0.494167,-0.179047 0.169736,-0.04583 0.342337,-0.07592 0.517803,-0.09096 0.175465,-0.01576 0.35093,-0.01576 0.52568,0 0.175465,0.01504 0.348065,0.04583 0.518518,0.09096 0.169736,0.04583 0.334458,0.105996 0.494168,0.180479 0.158993,0.07377 0.310824,0.161858 0.455493,0.262124 0.143954,0.100982 0.278596,0.213423 0.403213,0.338039 0.394618,0.391038 0.660323,0.855842 0.797114,1.394413 0.05944,0.242787 0.08952,0.489155 0.08952,0.739104 0,0.06231 -0.0015,0.1239 -0.005,0.184775 -0.0036,0.05658 -0.0086,0.113874 -0.01576,0.16902 -0.01003,0.08666 -0.02507,0.171885 -0.04297,0.257111 0.423982,-0.282893 0.907407,-0.442603 1.418763,-0.205545 0.766318,0.357376 0.659607,1.337117 0.509208,2.043993 0.261407,0.176897 0.475547,0.399631 0.64385,0.666768 0.167588,0.267137 0.274299,0.557192 0.320851,0.869449 0.300798,0.0308 0.602312,0.113873 0.780642,0.381727 0.09883,0.170452 0.154696,0.354511 0.165439,0.552179 0.02721,0.206977 0.05228,0.416819 0.07735,0.623081 0.04225,0.196235 0.04369,0.393186 0.005,0.590137 z M 4.502422,31.55998 c 0,-0.01719 0,-0.03366 -0.0015,-0.05013 0,-0.0057 -7.27e-4,-0.01146 -0.0021,-0.01719 0,-0.0072 -7.27e-4,-0.01432 -0.0036,-0.02077 -0.0029,-0.01576 -0.0086,-0.03151 -0.01218,-0.0487 -0.0015,-0.0015 -0.0015,-0.0029 -0.0015,-0.005 v -0.0015 c -0.005,-0.01218 -0.01218,-0.02435 -0.01719,-0.0351 -0.005,-0.0064 -0.01002,-0.01289 -0.01576,-0.01862 l -0.0086,-0.0086 c -0.0015,-0.0021 -0.0029,-0.0029 -0.005,-0.0036 l -0.0036,-0.0036 c -0.0064,-7.28e-4 -0.01289,-0.0021 -0.01934,-0.0036 -0.0072,-0.0015 -0.01432,-0.0021 -0.0222,-0.0015 -0.0015,0.0015 0,0.0015 -0.0036,0.0015 -0.01003,0.0036 -0.0222,0.0072 -0.03438,0.01074 h -7.28e-4 c -0.0086,0.005 -0.01934,0.01003 -0.02793,0.01504 -0.0036,0.0021 -0.0072,0.005 -0.01218,0.0086 -0.0072,0.0072 -0.01504,0.01432 -0.01504,0.01576 -0.0015,0 -0.0021,7.27e-4 -0.0021,0.0021 -0.0072,0.01003 -0.01218,0.02006 -0.01719,0.02865 l -0.0021,0.0021 c -0.0015,0.0015 -0.0015,0.0036 -0.0015,0.0064 -0.0036,0.01218 -0.0064,0.0265 -0.01003,0.03796 0,0.02077 0.0015,0.04369 0.0015,0.06446 0.0057,0.0179 0.01074,0.03653 0.01361,0.05515 0.0015,0.0036 0.0029,0.0079 0.0036,0.01218 0.0021,0.0015 0.0021,0.005 0.005,0.0086 0.0072,0.01218 0.01218,0.02578 0.01934,0.03796 0.005,0.0064 0.01002,0.01361 0.01361,0.01862 0.0057,0.0086 0.01218,0.01647 0.01934,0.02435 0.01003,0.01002 0.02077,0.02077 0.0308,0.02936 0.005,0.005 0.01003,0.0093 0.01576,0.01361 0.01002,0.0064 0.02006,0.01289 0.02936,0.02077 0.01218,0.0072 0.02435,0.01576 0.03581,0.02292 0.0029,0 0.0057,7.28e-4 0.0072,0.0029 0.01074,-0.0308 0.0222,-0.06016 0.02936,-0.08952 0.0036,-0.01934 0.0072,-0.03796 0.01074,-0.05515 7.27e-4,-0.02578 0.0043,-0.05157 0.0043,-0.07735 z m 3.295169,-4.674542 c -7.27e-4,0.143953 0.01146,0.286474 0.03581,0.428279 0.02722,0.169019 0.07233,0.333026 0.134643,0.492019 0.128914,0.337323 0.322283,0.633108 0.578678,0.887353 0.01504,0.01504 0.02722,0.02722 0.04154,0.03939 0.08738,0.08594 0.181911,0.164007 0.282893,0.234909 0.426846,-0.136791 0.864436,-0.224166 1.311335,-0.26284 -0.04154,-0.0444 -0.06231,-0.0974 -0.06231,-0.158277 V 28.284147 C 9.9175,28.267677 9.744899,28.188177 9.600946,28.044225 9.437656,27.883083 9.356727,27.688281 9.358159,27.459102 c -7.28e-4,-0.0086 0,-0.01647 0.0036,-0.02435 0.0036,-0.05443 0.02435,-0.100982 0.06159,-0.140372 0.03366,-0.03366 0.07377,-0.05586 0.120319,-0.06517 0.04727,-0.01002 0.09239,-0.0057 0.136791,0.01218 0.04441,0.0179 0.0795,0.04655 0.106712,0.08666 0.0265,0.03939 0.04011,0.08308 0.04011,0.131061 0,0.01146 7.28e-4,0.02292 0.0021,0.03438 0.0086,0.08451 0.04369,0.156128 0.103847,0.215571 0.06875,0.07234 0.152548,0.108144 0.252097,0.107428 h 0.341621 c 0.09239,0 0.172601,-0.03151 0.239922,-0.09525 0.0043,-0.0036 0.0086,-0.0079 0.01218,-0.01218 0.05085,-0.05085 0.08308,-0.111008 0.09669,-0.181195 0.0036,-0.01647 0.005,-0.03294 0.005,-0.05013 0.0015,-0.0057 0.0021,-0.01218 0.0015,-0.01862 0.0015,-0.09669 -0.03223,-0.178331 -0.09955,-0.247084 0,-0.0015 -0.0021,-0.0036 -0.0036,-0.005 -0.05371,-0.05443 -0.11817,-0.08737 -0.19337,-0.100266 -0.01934,-0.0036 -0.03867,-0.005 -0.05873,-0.005 h -0.342336 c -0.03294,0 -0.06517,-0.0015 -0.09812,-0.005 C 9.897459,27.073125 9.735601,26.993634 9.601675,26.858275 9.437668,26.697133 9.356739,26.502331 9.358171,26.273152 v -0.005 c 0,-0.0064 7.28e-4,-0.01289 0.0021,-0.01934 0,-0.01647 0.0015,-0.03294 0.0029,-0.04942 0,-0.0064 7.27e-4,-0.01289 0.0021,-0.01934 0.01361,-0.136791 0.05944,-0.262124 0.138941,-0.374565 0.02936,-0.04154 0.06231,-0.08021 0.09812,-0.116022 0.142521,-0.143953 0.314405,-0.224882 0.51637,-0.241354 h 0.0015 v -0.264273 c -7.28e-4,-0.0093 7.27e-4,-0.01862 0.0036,-0.02722 0,-0.0021 0.0021,-0.0036 0.0021,-0.0072 0,-0.0036 0.0015,-0.0036 0.0015,-0.005 0.0093,-0.05586 0.03581,-0.102415 0.07879,-0.138223 0.04297,-0.03653 0.09239,-0.05515 0.148967,-0.05515 0.0308,0 0.06088,0.0057 0.08952,0.01719 0.02865,0.01218 0.05371,0.02865 0.07592,0.05085 0.0222,0.02148 0.03939,0.04655 0.05085,0.0752 0.01218,0.02865 0.01862,0.05873 0.01862,0.08952 v 0.264273 c 0.103847,0.0086 0.201964,0.03581 0.295068,0.08164 0.09382,0.04583 0.175466,0.106712 0.246368,0.183344 0.07019,0.07592 0.125332,0.162574 0.16329,0.259259 0.03867,0.09669 0.05801,0.196951 0.05944,0.300798 0,0.005 -7.27e-4,0.01002 -0.0021,0.01576 0,0.01146 -0.0015,0.02292 -0.0029,0.03438 -0.01146,0.04799 -0.03509,0.08881 -0.0709,0.122467 -0.04512,0.04297 -0.09883,0.06374 -0.161142,0.06374 -0.03079,0 -0.06088,-0.0057 -0.09024,-0.0179 -0.02865,-0.01218 -0.05443,-0.02936 -0.07592,-0.05157 -0.0222,-0.0222 -0.03939,-0.04727 -0.05157,-0.07663 -0.01218,-0.02865 -0.0179,-0.05873 -0.01862,-0.09024 7.28e-4,-0.04727 -0.0086,-0.09239 -0.0265,-0.136076 -0.0179,-0.04369 -0.04369,-0.08236 -0.07663,-0.115306 -0.03366,-0.03366 -0.07233,-0.05944 -0.116022,-0.07735 -0.04369,-0.0179 -0.08881,-0.02722 -0.136075,-0.0265 H 10.18471 c -0.09812,-7.27e-4 -0.182628,0.03438 -0.252098,0.103847 -0.02507,0.02435 -0.04512,0.053 -0.06016,0.08451 -0.02793,0.04512 -0.04225,0.09382 -0.04297,0.146818 -0.0015,0.0072 -0.0021,0.01361 -0.0021,0.02077 0,0.01218 7.28e-4,0.02435 0.0021,0.03652 0.0086,0.08451 0.04369,0.156128 0.103846,0.215572 0.0021,0.0015 0.0021,0.0036 0.0036,0.0036 0.06804,0.06947 0.151115,0.103847 0.248517,0.103847 h 0.34162 c 0.102415,0 0.201248,0.01862 0.297217,0.05586 0.09525,0.03724 0.181195,0.09024 0.25711,0.158993 0.0752,0.06947 0.136076,0.149683 0.181912,0.241355 0.04583,0.09167 0.07377,0.188356 0.08379,0.290055 l 0.005,0.03652 c 0,0.01576 0.0036,0.02936 0.0036,0.04297 0,0.02435 -0.0021,0.04655 -0.0036,0.0709 -0.0015,0.01218 -0.0015,0.02435 -0.0036,0.03796 -0.0064,0.04512 -0.01576,0.08952 -0.02936,0.13321 -0.04082,0.131062 -0.110293,0.245652 -0.20841,0.343053 -0.08809,0.08952 -0.191937,0.155412 -0.310108,0.196951 -0.06804,0.02292 -0.137508,0.03796 -0.20841,0.04297 v 0.26284 c -7.28e-4,0.05013 -0.01576,0.09525 -0.04512,0.136075 0.499898,-0.01576 0.994782,0.02722 1.484652,0.12963 0.04512,-0.03796 0.08809,-0.07735 0.128914,-0.119603 0.182627,-0.179763 0.333742,-0.382443 0.454061,-0.608758 0.12032,-0.225598 0.203397,-0.464804 0.250665,-0.716185 0.0086,-0.04011 0.01504,-0.08165 0.02077,-0.123184 0.01003,-0.07592 0.01862,-0.153264 0.0222,-0.231328 0.0036,-0.04798 0.005,-0.09812 0.005,-0.14825 0,-0.167588 -0.01719,-0.333743 -0.05013,-0.497749 -0.03294,-0.164723 -0.08164,-0.324432 -0.146101,-0.479128 -0.06374,-0.154696 -0.143238,-0.301514 -0.236342,-0.44117 -0.0931,-0.13894 -0.199098,-0.267853 -0.317985,-0.38674 -0.118171,-0.118171 -0.247801,-0.224166 -0.38674,-0.31727 -0.139657,-0.0931 -0.286475,-0.171169 -0.441887,-0.235625 -0.154696,-0.06374 -0.314405,-0.112441 -0.479128,-0.145386 -0.164006,-0.03223 -0.330161,-0.0487 -0.497749,-0.0487 -0.262123,-0.0021 -0.517802,0.03653 -0.76775,0.115306 -0.249949,0.07806 -0.481993,0.192653 -0.696132,0.343768 -0.122468,0.08594 -0.237058,0.181195 -0.343053,0.286474 -0.01218,0.01361 -0.02435,0.02578 -0.03653,0.03939 -0.06302,0.06446 -0.122467,0.132494 -0.177614,0.203396 -0.09883,0.127481 -0.185492,0.26284 -0.259259,0.406077 -0.15398,0.30223 -0.243503,0.622365 -0.267137,0.96112 -0.0057,0.05515 -0.0086,0.113874 -0.0086,0.171169 -0.0021,0.01504 -0.0036,0.03008 -0.0036,0.04512 z m 8.955898,5.592691 c -0.0222,-0.177614 -0.04512,-0.357376 -0.06732,-0.537139 -0.0064,-0.128197 -0.03151,-0.252813 -0.07448,-0.374565 -0.09454,-0.206977 -0.373849,-0.211991 -0.5708,-0.224166 -0.04297,-0.0029 -0.08308,-0.01504 -0.119603,-0.03724 -0.105996,-0.0795 -0.166155,-0.184776 -0.180479,-0.315837 -0.09167,-0.432576 -0.137507,-0.904542 -0.894515,-1.331389 -0.04584,-0.02793 -0.0795,-0.06732 -0.09955,-0.11817 -0.02077,-0.05013 -0.02435,-0.101699 -0.01074,-0.154696 0.107429,-0.464088 0.357377,-1.421628 -0.241354,-1.670145 -0.552895,-0.227747 -1.07571,0.274299 -1.440965,0.6195 -0.02507,0.02364 -0.053,0.04154 -0.08523,0.05371 -0.132494,0.225599 -0.291487,0.430428 -0.476263,0.61592 -0.05013,0.05013 -0.09955,0.09669 -0.151832,0.141805 -0.01289,0.04941 -0.04011,0.09024 -0.08021,0.121751 -0.04011,0.03223 -0.08594,0.0487 -0.136791,0.05085 -0.02435,0.0021 -0.04799,7.27e-4 -0.0709,-0.0057 -0.204829,-0.04799 -0.412523,-0.08451 -0.621649,-0.108861 -0.876612,-0.101698 -1.733169,-0.01002 -2.568241,0.274299 -0.0072,0.0021 -0.01218,0.0036 -0.0179,0.0057 -0.03008,0.0086 -0.06016,0.01074 -0.09096,0.0057 -0.03079,-0.005 -0.05944,-0.01576 -0.08523,-0.03294 -0.0265,-0.01719 -0.04727,-0.03939 -0.06374,-0.06589 -0.01647,-0.0265 -0.0265,-0.05515 -0.0308,-0.08594 -0.106711,-0.07806 -0.207694,-0.162575 -0.303663,-0.25353 -0.01576,-0.01432 -0.02936,-0.02793 -0.04798,-0.04655 C 8.087651,28.869963 7.967332,28.725293 7.86062,28.568449 7.28624,28.813384 6.805679,29.180788 6.419655,29.672091 6.246339,29.88623 6.100237,30.117558 5.980634,30.365358 c -0.120319,0.2478 -0.209842,0.505627 -0.270718,0.774196 -0.06016,0.26857 -0.08881,0.54072 -0.08666,0.815735 0.0029,0.275732 0.03653,0.547166 0.100982,0.814303 0.06804,0.264273 0.164007,0.517802 0.287191,0.761305 0.123184,0.242787 0.271434,0.470534 0.444035,0.681093 0.172601,0.211274 0.365971,0.401063 0.58011,0.570083 0.214139,0.16902 0.444035,0.312973 0.68897,0.43186 0.06088,0.0079 0.111009,0.03509 0.151831,0.08021 0.04082,0.04512 0.06231,0.09883 0.06446,0.15971 0.01146,0.174033 0.02363,0.348066 0.03581,0.522815 0.01218,0.160425 0.01432,0.324432 0.03652,0.483425 0.0015,0.0015 0.01361,0.06374 0.01576,0.07234 0.0072,0.03223 0.01719,0.06374 0.02936,0.09454 0.01146,0.0179 0.0222,0.03652 0.03223,0.05586 l 0.0021,0.0015 c 0.01218,0.01003 0.02363,0.02148 0.03438,0.03294 0.0036,0 0.04154,0.0308 0.05013,0.03581 0.01218,0.0057 0.0222,0.01218 0.03509,0.01719 0.0029,0.0021 0.0064,0.0029 0.01002,0.0036 0.02936,0.0086 0.05729,0.01934 0.08666,0.02578 0.02149,0.0029 0.04226,0.0072 0.06231,0.01218 0.123184,0.01289 0.246368,0.01504 0.369552,0.0072 0.03295,-0.0021 0.06374,-0.0036 0.09669,-0.0072 0.005,7.28e-4 0.0093,0 0.01361,-0.0015 0.01361,-0.0015 0.02793,-0.005 0.04154,-0.0072 0.0086,-0.0015 0.05873,-0.01862 0.06374,-0.01862 0.01289,-0.0064 0.02578,-0.01361 0.03796,-0.02077 0.0072,-0.0072 0.01074,-0.01218 0.01361,-0.01361 0.0057,-0.0086 0.01074,-0.01934 0.01576,-0.02793 0,-0.005 0.01576,-0.06016 0.0179,-0.06947 0.0015,-0.0064 0.0021,-0.01289 0.0029,-0.01934 v 0.0072 c 0.0015,-0.0043 0.0021,-0.0079 0.0021,-0.01218 0,-0.01289 0.0015,-0.0265 0.0036,-0.03939 0.005,-0.04011 0.0064,-0.08165 0.01146,-0.122468 0.01432,-0.171169 0.02936,-0.343769 0.04512,-0.51637 0.0015,-0.01361 0.0036,-0.02793 0.0072,-0.04154 0.0021,-0.03008 0.01003,-0.05873 0.02292,-0.08594 0.01361,-0.02722 0.0308,-0.05157 0.05371,-0.07162 0.0222,-0.02077 0.04727,-0.03653 0.0752,-0.04727 0.02865,-0.01074 0.05801,-0.01647 0.08809,-0.01576 0.928176,0.123184 1.859217,0.148967 2.793123,0.0752 0.0064,0 0.01361,0.0021 0.02077,0.0021 0.06231,0.0072 0.116739,0.03223 0.163291,0.07377 0.16329,0.152548 0.03008,0.465521 0.152547,0.76417 0.05729,0.13894 0.123901,0.16329 0.13894,0.168303 0.02149,0.0064 0.08594,0.02077 0.116022,0.0265 0.01719,0.0036 0.03509,0.0057 0.05228,0.0086 l 0.0179,0.0021 c 0.07377,0.0079 0.147533,0.01002 0.221301,0.0072 0.03939,-7.28e-4 0.07878,-0.005 0.118887,-0.0086 h 0.0036 c 0.01647,-0.0015 0.03366,-0.0043 0.04941,-0.0086 0.113873,-0.03294 0.171168,-0.04941 0.204113,-0.08881 0.02077,-0.05013 0.03724,-0.101698 0.0487,-0.154696 0.01432,-0.05157 0.0265,-0.104563 0.03796,-0.157561 0.0043,-0.0222 0.0086,-0.04512 0.01289,-0.06804 0.0015,-0.0057 0.0072,-0.04441 0.01003,-0.05801 0,-0.0064 0.0057,-0.05371 0.0064,-0.06088 0.0029,-0.02292 0.0043,-0.04583 0.0064,-0.06947 0.005,-0.07448 0.0057,-0.151115 0.0057,-0.161858 0.0015,-0.15398 -0.01289,-0.381727 -0.01289,-0.393186 -0.0093,-0.13321 0.02077,-0.256394 0.09096,-0.369551 0.0444,-0.06661 0.100266,-0.121752 0.167588,-0.166155 0.0036,-0.0015 0.005,-0.0029 0.0086,-0.0029 0.365254,-0.13321 0.689686,-0.333026 0.973296,-0.599447 0.141089,-0.131062 0.267137,-0.275731 0.378146,-0.434008 0.110292,-0.157561 0.204113,-0.324432 0.281461,-0.500614 0.01647,-0.05085 0.04655,-0.09239 0.08952,-0.124616 0.04297,-0.03223 0.09096,-0.04941 0.144669,-0.05085 0.302231,-0.09024 0.613055,-0.166154 0.906691,-0.277879 0.09525,-0.02364 0.164006,-0.0795 0.206978,-0.167588 0.02363,-0.139655 0.01862,-0.277879 -0.01576,-0.41467 z m 0,0"
       fill-opacity="1"
       fill-rule="nonzero"
       id="path70965"
       style="stroke-width:0.352778" />
  </g>
</svg>
