<?xml version="1.0" encoding="UTF-8" standalone="no"?>
<!-- Created with Inkscape (http://www.inkscape.org/) -->

<svg
   width="32mm"
   height="28mm"
   viewBox="0 0 31.999994 28"
   version="1.1"
   id="svg50808"
   inkscape:version="1.2.1 (9c6d41e410, 2022-07-14)"
   sodipodi:docname="why_section_img4_resource_mini.svg"
   xmlns:inkscape="http://www.inkscape.org/namespaces/inkscape"
   xmlns:sodipodi="http://sodipodi.sourceforge.net/DTD/sodipodi-0.dtd"
   xmlns="http://www.w3.org/2000/svg"
   xmlns:svg="http://www.w3.org/2000/svg">
  <sodipodi:namedview
     id="namedview50810"
     pagecolor="#ffffff"
     bordercolor="#111111"
     borderopacity="1"
     inkscape:showpageshadow="0"
     inkscape:pageopacity="0"
     inkscape:pagecheckerboard="1"
     inkscape:deskcolor="#d1d1d1"
     inkscape:document-units="mm"
     showgrid="false"
     inkscape:zoom="7.11257"
     inkscape:cx="101.29953"
     inkscape:cy="67.556453"
     inkscape:window-width="2560"
     inkscape:window-height="1361"
     inkscape:window-x="-9"
     inkscape:window-y="-9"
     inkscape:window-maximized="1"
     inkscape:current-layer="layer1" />
  <defs
     id="defs50805">
    <linearGradient
       id="linearGradient78615"
       inkscape:swatch="solid">
      <stop
         style="stop-color:#dbdbe2;stop-opacity:1;"
         offset="0"
         id="stop78613" />
    </linearGradient>
    <clipPath
       id="ef4dde5340">
      <path
         d="m 726,258 h 50.0625 v 59 H 726 Z m 0,0"
         clip-rule="nonzero"
         id="path293" />
    </clipPath>
    <clipPath
       id="946d0aebab">
      <path
         d="M 28,2.011719 H 46 V 20 H 28 Z m 0,0"
         clip-rule="nonzero"
         id="path55646" />
    </clipPath>
    <clipPath
       id="75004d251c">
      <path
         d="M 11,21 H 63 V 73.261719 H 11 Z m 0,0"
         clip-rule="nonzero"
         id="path55649" />
    </clipPath>
    <clipPath
       id="62e38866f3">
      <path
         d="M 53,6 H 69.53125 V 39 H 53 Z m 0,0"
         clip-rule="nonzero"
         id="path55652" />
    </clipPath>
    <clipPath
       id="de2b58f766">
      <path
         d="M 5.78125,6 H 22 V 39 H 5.78125 Z m 0,0"
         clip-rule="nonzero"
         id="path55655" />
    </clipPath>
    <clipPath
       id="946d0aebab-6">
      <path
         d="M 28,2.011719 H 46 V 20 H 28 Z m 0,0"
         clip-rule="nonzero"
         id="path55646-4" />
    </clipPath>
    <clipPath
       id="75004d251c-5">
      <path
         d="M 11,21 H 63 V 73.261719 H 11 Z m 0,0"
         clip-rule="nonzero"
         id="path55649-7" />
    </clipPath>
    <clipPath
       id="62e38866f3-4">
      <path
         d="M 53,6 H 69.53125 V 39 H 53 Z m 0,0"
         clip-rule="nonzero"
         id="path55652-2" />
    </clipPath>
    <clipPath
       id="de2b58f766-7">
      <path
         d="M 5.78125,6 H 22 V 39 H 5.78125 Z m 0,0"
         clip-rule="nonzero"
         id="path55655-9" />
    </clipPath>
  </defs>
  <g
     inkscape:label="Слой 1"
     inkscape:groupmode="layer"
     id="layer1"
     transform="translate(-27.46524,-34.884765)">
    <path
       fill="#f0f0f8"
       d="M 58.69761,48.866891 51.026288,62.39771 35.861504,62.29725 28.370109,48.665984 l 7.671326,-13.530802 15.164784,0.10046 7.491391,13.631249"
       fill-opacity="1"
       fill-rule="nonzero"
       id="path322-40-9-8"
       style="fill:#ffffff;fill-opacity:1;stroke-width:0.386524" />
    <g
       clip-path="url(#de2b58f766-7)"
       id="g55674"
       transform="matrix(0.2154594,0,0,0.2154594,35.003393,40.879272)"
       style="stroke-width:0.850746">
      <path
         fill="#000000"
         d="M 18.421875,37.300781 V 17.972656 h 2.367187 c 0.445313,-0.0039 0.765626,-0.203125 0.960938,-0.601562 0.199219,-0.398438 0.160156,-0.777344 -0.113281,-1.128906 L 14.714844,7.382812 C 14.613281,7.25 14.488281,7.148438 14.339844,7.074219 14.1875,7.003906 14.03125,6.964844 13.867188,6.964844 c -0.167969,0 -0.324219,0.039062 -0.476563,0.109375 -0.148437,0.074219 -0.273437,0.175781 -0.375,0.308593 L 6.113281,16.285156 C 5.84375,16.636719 5.804688,17.015625 6,17.414062 6.199219,17.8125 6.519531,18.011719 6.964844,18.015625 H 9.316406 V 37.34375 c 0,0.144531 0.027344,0.28125 0.082032,0.414062 0.054687,0.128907 0.132812,0.246094 0.234374,0.347657 0.101563,0.101562 0.21875,0.175781 0.347657,0.230469 0.132812,0.05469 0.269531,0.08203 0.414062,0.08203 h 6.953125 c 0.148438,0 0.289063,-0.02734 0.421875,-0.08594 0.136719,-0.05469 0.253907,-0.136719 0.355469,-0.242187 0.101562,-0.105469 0.175781,-0.226563 0.230469,-0.363282 0.05078,-0.136718 0.07422,-0.277343 0.06641,-0.425781 z M 16.273438,16.898438 V 36.226562 H 11.46875 V 16.898438 c 0,-0.144532 -0.02734,-0.28125 -0.08203,-0.410157 -0.05469,-0.132812 -0.132813,-0.25 -0.234375,-0.351562 -0.101563,-0.09766 -0.214844,-0.175781 -0.347656,-0.230469 -0.132813,-0.05469 -0.269532,-0.08203 -0.410157,-0.08203 h -1.28125 l 4.753907,-6.035157 4.726562,6.078126 h -1.246094 c -0.140625,0 -0.277344,0.02734 -0.410156,0.08203 -0.132812,0.05469 -0.25,0.132812 -0.347656,0.230469 -0.101563,0.101562 -0.179688,0.21875 -0.234375,0.351562 -0.05469,0.128906 -0.08203,0.265625 -0.08203,0.410156 z m 0,0"
         fill-opacity="1"
         fill-rule="nonzero"
         id="path55672"
         style="stroke-width:0.921234" />
    </g>
    <path
       stroke-linecap="round"
       fill="none"
       stroke-linejoin="miter"
       d="m 51.202409,62.354844 -15.505677,-0.05788 -7.701851,-13.466197 7.802449,-13.406942 15.505677,0.05788 7.701851,13.464822 z m 0,0"
       stroke="#000000"
       stroke-width="0.853091"
       stroke-opacity="1"
       stroke-miterlimit="4"
       id="path98790"
       style="stroke:#e8ebfa;stroke-opacity:1" />
    <g
       clip-path="url(#946d0aebab-6)"
       id="g55662"
       transform="matrix(0.2154594,0,0,0.2154594,35.433934,40.806726)"
       style="stroke-width:0.850746">
      <path
         fill="#000000"
         d="m 36.785156,19.378906 c 0.566406,0 1.125,-0.05469 1.679688,-0.164062 0.550781,-0.113282 1.089844,-0.273438 1.613281,-0.492188 0.519531,-0.214844 1.015625,-0.480468 1.484375,-0.792968 0.46875,-0.3125 0.90625,-0.667969 1.304688,-1.066407 0.398437,-0.402343 0.753906,-0.835937 1.070312,-1.304687 0.3125,-0.46875 0.578125,-0.964844 0.792969,-1.484375 0.214843,-0.519531 0.378906,-1.058594 0.488281,-1.613281 0.113281,-0.550782 0.167969,-1.109376 0.167969,-1.675782 0,-0.5625 -0.05469,-1.121094 -0.167969,-1.675781 C 45.109375,8.558594 44.945312,8.019531 44.730469,7.5 44.515625,6.976562 44.25,6.484375 43.9375,6.011719 43.621094,5.542969 43.265625,5.109375 42.867188,4.710938 42.46875,4.3125 42.03125,3.957031 41.5625,3.644531 41.09375,3.328125 40.597656,3.066406 40.078125,2.847656 39.554688,2.632812 39.015625,2.46875 38.464844,2.359375 37.910156,2.25 37.351562,2.195312 36.785156,2.195312 c -0.566406,0 -1.125,0.054688 -1.675781,0.164063 -0.554687,0.109375 -1.09375,0.273437 -1.617187,0.488281 -0.519532,0.21875 -1.015626,0.480469 -1.484376,0.796875 -0.46875,0.3125 -0.90625,0.667969 -1.304687,1.066407 C 30.304688,5.109375 29.949219,5.542969 29.632812,6.011719 29.320312,6.484375 29.054688,6.976562 28.839844,7.5 28.625,8.019531 28.460938,8.558594 28.351562,9.109375 c -0.113281,0.554687 -0.167968,1.113281 -0.167968,1.675781 0,0.566406 0.05469,1.125 0.167968,1.675782 0.109376,0.554687 0.273438,1.09375 0.488282,1.613281 0.214844,0.519531 0.480468,1.015625 0.792968,1.484375 0.316407,0.46875 0.671876,0.902344 1.070313,1.304687 0.398437,0.398438 0.835937,0.753907 1.304687,1.066407 0.46875,0.3125 0.964844,0.578124 1.484376,0.792968 0.523437,0.21875 1.0625,0.378906 1.617187,0.492188 0.550781,0.109375 1.109375,0.164062 1.675781,0.164062 z m 0,-15.035156 c 0.421875,0 0.84375,0.039062 1.257813,0.121094 0.417969,0.085937 0.820312,0.207031 1.210937,0.367187 0.390625,0.164063 0.761719,0.363281 1.113282,0.597657 0.355468,0.234374 0.679687,0.5 0.980468,0.800781 0.296875,0.300781 0.566406,0.625 0.800782,0.976562 0.234374,0.351563 0.433593,0.722657 0.597656,1.113281 0.160156,0.390626 0.28125,0.792969 0.367187,1.210938 0.08203,0.414062 0.121094,0.832031 0.121094,1.253906 0,0.425782 -0.03906,0.84375 -0.121094,1.257813 -0.08594,0.414062 -0.207031,0.820312 -0.367187,1.210937 -0.164063,0.390625 -0.363282,0.761719 -0.597656,1.113282 -0.234376,0.351562 -0.503907,0.675781 -0.800782,0.976562 -0.300781,0.296875 -0.625,0.566406 -0.980468,0.800781 -0.351563,0.234375 -0.722657,0.433594 -1.113282,0.59375 -0.390625,0.164063 -0.792968,0.285157 -1.210937,0.367188 -0.414063,0.08203 -0.835938,0.125 -1.257813,0.125 -0.421875,0 -0.84375,-0.04297 -1.257812,-0.125 -0.414063,-0.08203 -0.820313,-0.203125 -1.210938,-0.367188 -0.390625,-0.160156 -0.761718,-0.359375 -1.113281,-0.59375 -0.355469,-0.234375 -0.679687,-0.503906 -0.980469,-0.800781 -0.296875,-0.300781 -0.566406,-0.625 -0.800781,-0.976562 -0.234375,-0.351563 -0.433594,-0.722657 -0.597656,-1.113282 -0.160157,-0.390625 -0.28125,-0.796875 -0.367188,-1.210937 -0.08203,-0.414063 -0.121093,-0.832031 -0.121093,-1.257813 0,-0.421875 0.03906,-0.839844 0.121093,-1.253906 0.08594,-0.417969 0.207031,-0.820312 0.367188,-1.210938 0.164062,-0.390624 0.363281,-0.761718 0.597656,-1.113281 0.234375,-0.351562 0.503906,-0.675781 0.800781,-0.976562 0.300782,-0.300781 0.625,-0.566407 0.980469,-0.800781 0.351563,-0.234376 0.722656,-0.433594 1.113281,-0.597657 0.390625,-0.160156 0.796875,-0.28125 1.210938,-0.367187 0.414062,-0.082032 0.835937,-0.121094 1.257812,-0.121094 z m 0,0"
         fill-opacity="1"
         fill-rule="nonzero"
         id="path55660"
         style="stroke-width:0.921234" />
    </g>
    <g
       clip-path="url(#75004d251c-5)"
       id="g55666"
       transform="matrix(0.2154594,0,0,0.2154594,35.521391,40.981627)"
       style="stroke-width:0.850746">
      <path
         fill="#000000"
         d="m 44.699219,58.652344 v -9.0625 h 5.804687 c 0.140625,0 0.277344,-0.02734 0.410156,-0.08203 0.132813,-0.05469 0.25,-0.132812 0.347657,-0.234374 0.101562,-0.101563 0.179687,-0.214844 0.234375,-0.347657 0.05469,-0.132812 0.08203,-0.269531 0.08203,-0.410156 V 28.644531 c 0,-0.722656 -0.113281,-1.429687 -0.34375,-2.117187 -0.230469,-0.6875 -0.558594,-1.320313 -0.992187,-1.902344 -0.4375,-0.578125 -0.949219,-1.078125 -1.546876,-1.492188 -0.59375,-0.414062 -1.238281,-0.722656 -1.933593,-0.929687 -1.960938,-0.539063 -3.953125,-0.898437 -5.976563,-1.074219 -0.449218,-0.04297 -0.789062,0.128906 -1.023437,0.515625 l -3.007813,5.003907 -3.011718,-5.003907 c -0.230469,-0.382812 -0.566407,-0.554687 -1.011719,-0.515625 -2.121094,0.179688 -4.203125,0.570313 -6.242188,1.179688 -0.65625,0.226562 -1.261719,0.546875 -1.820312,0.964844 -0.554688,0.414062 -1.03125,0.90625 -1.433594,1.46875 -0.398437,0.566406 -0.703125,1.179687 -0.914063,1.839843 -0.207031,0.660157 -0.308593,1.339844 -0.304687,2.03125 v 19.902344 c 0,0.140625 0.02734,0.277344 0.08203,0.410156 0.05469,0.132813 0.128906,0.246094 0.230469,0.347657 0.101563,0.101562 0.21875,0.179687 0.351563,0.234374 0.128906,0.05469 0.265624,0.08203 0.410156,0.08203 h 5.816406 v 9.085937 c -8.71875,0.769531 -17.640625,2.984375 -17.640625,7.03125 0,4.832031 12.898437,7.367188 25.648437,7.367188 12.75,0 25.609376,-2.535157 25.609376,-7.367188 0,-4.101562 -9.03125,-6.3125 -17.824219,-7.054687 z M 24.164062,47.441406 V 28.613281 c -0.0078,-0.472656 0.05859,-0.933593 0.199219,-1.382812 0.140625,-0.453125 0.34375,-0.871094 0.617188,-1.257813 0.273437,-0.386718 0.597656,-0.71875 0.976562,-1.003906 0.378907,-0.28125 0.792969,-0.5 1.238281,-0.652344 1.679688,-0.5 3.394532,-0.839844 5.140626,-1.019531 l 3.578124,5.941406 c 0.04688,0.07813 0.105469,0.148438 0.171876,0.214844 0.06641,0.0625 0.140624,0.117187 0.21875,0.164063 0.08203,0.04297 0.167968,0.07812 0.257812,0.101562 0.08594,0.02344 0.179688,0.03516 0.269531,0.03516 0.09375,0 0.183594,-0.01172 0.273438,-0.03516 0.08984,-0.02344 0.175781,-0.05859 0.253906,-0.101562 0.08203,-0.04688 0.15625,-0.101563 0.222656,-0.164063 0.06641,-0.06641 0.121094,-0.136719 0.171875,-0.214844 l 3.578125,-5.941406 c 1.652344,0.175781 3.28125,0.484375 4.882813,0.9375 0.472656,0.136719 0.914062,0.347656 1.320312,0.628906 0.40625,0.277344 0.757813,0.617188 1.054688,1.011719 0.296875,0.394531 0.523437,0.828125 0.679687,1.296875 0.15625,0.46875 0.234375,0.949219 0.234375,1.441406 V 47.40625 h -4.804687 v -8.265625 c 0,-0.144531 -0.02734,-0.28125 -0.08203,-0.414063 -0.05469,-0.128906 -0.132813,-0.246093 -0.234376,-0.347656 -0.101562,-0.101562 -0.21875,-0.179687 -0.347656,-0.230468 -0.132812,-0.05469 -0.269531,-0.08203 -0.414062,-0.08203 -0.140625,0 -0.277344,0.02734 -0.410156,0.08203 -0.132813,0.05078 -0.246094,0.128906 -0.347657,0.230468 -0.101562,0.101563 -0.179687,0.21875 -0.234375,0.347656 -0.05469,0.132813 -0.08203,0.269532 -0.08203,0.414063 v 25.40625 h -4.699219 v -9.804687 c 0,-0.140626 -0.02344,-0.277344 -0.07813,-0.410157 -0.05469,-0.132812 -0.132812,-0.246093 -0.234375,-0.347656 C 37.433594,53.882812 37.316406,53.804688 37.1875,53.75 c -0.132812,-0.05469 -0.269531,-0.08203 -0.414062,-0.08203 -0.140626,0 -0.277344,0.02734 -0.410157,0.08203 -0.132812,0.05469 -0.25,0.132812 -0.347656,0.234375 -0.101563,0.101563 -0.179687,0.214844 -0.234375,0.347656 -0.05469,0.132813 -0.08203,0.269531 -0.08203,0.410157 v 9.804687 H 31 v -25.375 c 0,-0.144531 -0.02734,-0.28125 -0.08203,-0.410156 -0.05469,-0.132813 -0.128907,-0.25 -0.230469,-0.351563 -0.101562,-0.09766 -0.21875,-0.175781 -0.347656,-0.230468 -0.132813,-0.05469 -0.269532,-0.08203 -0.414063,-0.08203 -0.140625,0 -0.277343,0.02734 -0.410156,0.08203 -0.132813,0.05469 -0.25,0.132812 -0.347656,0.230468 -0.101563,0.101563 -0.179688,0.21875 -0.234375,0.351563 -0.05469,0.128906 -0.08203,0.265625 -0.08203,0.410156 v 8.269531 z m 12.75,23.484375 c -14.320312,0 -23.5,-3.089843 -23.5,-5.21875 0,-1.449219 4.914063,-3.929687 15.394532,-4.875 v 4.789063 c 0,0.144531 0.02734,0.28125 0.08203,0.414062 0.05469,0.128906 0.132813,0.246094 0.234375,0.347656 0.09766,0.09766 0.214844,0.175782 0.347656,0.230469 0.132813,0.05469 0.269532,0.08203 0.410156,0.08203 h 13.738282 c 0.144531,0 0.28125,-0.02734 0.414062,-0.08203 0.128906,-0.05469 0.246094,-0.132812 0.347656,-0.230469 0.101563,-0.101562 0.179688,-0.21875 0.234376,-0.347656 0.05469,-0.132812 0.08203,-0.269531 0.08203,-0.414062 V 60.8125 c 10.671875,0.921875 15.671875,3.425781 15.671875,4.894531 0,2.128907 -9.136719,5.21875 -23.457032,5.21875 z m 0,0"
         fill-opacity="1"
         fill-rule="nonzero"
         id="path55664"
         style="stroke-width:0.921234" />
    </g>
    <g
       clip-path="url(#62e38866f3-4)"
       id="g55670"
       transform="matrix(0.2154594,0,0,0.2154594,35.433934,40.806726)"
       style="stroke-width:0.850746">
      <path
         fill="#000000"
         d="M 69.316406,16.285156 62.425781,7.382812 C 62.324219,7.25 62.199219,7.148438 62.046875,7.074219 61.898438,7.003906 61.742188,6.964844 61.574219,6.964844 c -0.164063,0 -0.320313,0.039062 -0.472657,0.109375 -0.148437,0.074219 -0.273437,0.175781 -0.375,0.308593 l -6.902343,8.902344 c -0.269531,0.351563 -0.308594,0.730469 -0.113281,1.128906 0.195312,0.398438 0.519531,0.597657 0.964843,0.601563 h 2.351563 V 37.34375 c 0,0.144531 0.02734,0.28125 0.08203,0.414062 0.05469,0.128907 0.132813,0.246094 0.234375,0.347657 0.101562,0.101562 0.214844,0.175781 0.347656,0.230469 0.132813,0.05469 0.269532,0.08203 0.410156,0.08203 h 6.914063 c 0.144531,0 0.28125,-0.02734 0.410156,-0.08203 0.132813,-0.05469 0.25,-0.128907 0.351563,-0.230469 0.09766,-0.101563 0.175781,-0.21875 0.230468,-0.347657 0.05469,-0.132812 0.08203,-0.269531 0.08203,-0.414062 V 18.015625 h 2.367187 c 0.445313,0.0039 0.769531,-0.195313 0.96875,-0.597656 0.199219,-0.402344 0.164063,-0.777344 -0.109375,-1.132813 z m -4.300781,-0.417968 c -0.140625,0 -0.28125,0.02734 -0.410156,0.08203 -0.132813,0.05469 -0.25,0.132812 -0.351563,0.230469 -0.09766,0.101562 -0.175781,0.21875 -0.230468,0.351562 -0.05469,0.128906 -0.08203,0.265625 -0.08203,0.410156 v 19.328126 h -4.76172 V 16.941406 c 0,-0.144531 -0.02734,-0.28125 -0.08203,-0.410156 -0.05469,-0.132812 -0.132812,-0.25 -0.234375,-0.351562 -0.101562,-0.09766 -0.21875,-0.175782 -0.347656,-0.230469 -0.132813,-0.05469 -0.269531,-0.08203 -0.414063,-0.08203 H 56.86719 l 4.707031,-6.078126 4.722656,6.078126 z m 0,0"
         fill-opacity="1"
         fill-rule="nonzero"
         id="path55668"
         style="stroke-width:0.921234" />
    </g>
  </g>
</svg>
