<?xml version="1.0" encoding="UTF-8" standalone="no"?>
<!-- Created with Inkscape (http://www.inkscape.org/) -->

<svg
   width="48mm"
   height="56.229996mm"
   viewBox="0 0 48.000001 56.229995"
   version="1.1"
   id="svg82366"
   inkscape:version="1.2.1 (9c6d41e410, 2022-07-14)"
   sodipodi:docname="why_section_img6_society.svg"
   xmlns:inkscape="http://www.inkscape.org/namespaces/inkscape"
   xmlns:sodipodi="http://sodipodi.sourceforge.net/DTD/sodipodi-0.dtd"
   xmlns="http://www.w3.org/2000/svg"
   xmlns:svg="http://www.w3.org/2000/svg">
  <sodipodi:namedview
     id="namedview82368"
     pagecolor="#ffffff"
     bordercolor="#111111"
     borderopacity="1"
     inkscape:showpageshadow="0"
     inkscape:pageopacity="0"
     inkscape:pagecheckerboard="1"
     inkscape:deskcolor="#d1d1d1"
     inkscape:document-units="mm"
     showgrid="false"
     inkscape:zoom="7.11257"
     inkscape:cx="61.510818"
     inkscape:cy="74.305068"
     inkscape:window-width="2400"
     inkscape:window-height="1271"
     inkscape:window-x="3191"
     inkscape:window-y="194"
     inkscape:window-maximized="1"
     inkscape:current-layer="layer1" />
  <defs
     id="defs82363" />
  <g
     inkscape:label="Слой 1"
     inkscape:groupmode="layer"
     id="layer1"
     transform="translate(-56.356492,-130.38589)">
    <path
       fill="#f0f0f8"
       d="m 89.453558,154.28559 -7.0331,12.4051 -13.903119,-0.0921 -6.868132,-12.49719 7.033094,-12.40508 13.903127,0.0921 6.86813,12.49717"
       fill-opacity="1"
       fill-rule="nonzero"
       id="path322-40-3-4"
       style="fill:#cbd3ed;fill-opacity:1;stroke-width:0.386524" />
    <path
       fill="#f0f0f8"
       d="m 88.351951,157.97044 -7.671322,13.53082 -15.164784,-0.10046 -7.491394,-13.63127 7.671325,-13.5308 15.164784,0.10046 7.491391,13.63125"
       fill-opacity="1"
       fill-rule="nonzero"
       id="path322-40-9-8-4"
       style="fill:#ffffff;fill-opacity:1;stroke-width:0.386524" />
    <path
       stroke-linecap="round"
       fill="none"
       stroke-linejoin="miter"
       d="m 80.715586,171.25803 -15.505676,-0.0579 -7.703231,-13.4662 7.803829,-13.40694 15.504297,0.0579 7.703231,13.46482 z m 0,0"
       stroke="#000000"
       stroke-width="0.853091"
       stroke-opacity="1"
       stroke-miterlimit="4"
       id="path98838"
       style="stroke:#cbd3ed;stroke-opacity:1" />
    <path
       style="fill:none;fill-opacity:1;stroke:#cbd3ed;stroke-width:0.79375;stroke-dasharray:none;stroke-opacity:1"
       d="m 89.399082,130.0979 -8.68984,14.51355"
       id="path103810-98-8-2" />
    <path
       style="fill:none;fill-opacity:1;stroke:#cbd3ed;stroke-width:0.79375;stroke-dasharray:none;stroke-opacity:1"
       d="m 80.739608,171.41924 9.155064,15.46833"
       id="path103810-98-8-2-3" />
    <path
       style="fill:none;fill-opacity:1;stroke:#cbd3ed;stroke-width:0.79375;stroke-dasharray:none;stroke-opacity:1"
       d="M 65.281789,171.15626 56.59196,186.72027"
       id="path103810-98-8-2-6" />
    <path
       style="fill:none;fill-opacity:1;stroke:#cbd3ed;stroke-width:0.79375;stroke-dasharray:none;stroke-opacity:1"
       d="M 65.073439,144.49052 56.493001,129.22665"
       id="path103810-98-8-2-6-6" />
    <path
       fill="#100f0d"
       d="m 74.743111,155.7166 c -0.01471,0.008 -0.02801,0.0189 -0.0392,0.0315 -0.378061,0.30315 -0.832432,0.6154 -1.381319,0.93185 -0.287747,-0.16592 -0.550287,-0.33115 -0.789026,-0.49427 -0.0077,-0.007 -0.01679,-0.0133 -0.02589,-0.0182 -0.57689,-0.39696 -1.015859,-0.78272 -1.348412,-1.14748 -0.01189,-0.0196 -0.0273,-0.0364 -0.04551,-0.0504 -0.817728,-0.91994 -0.961249,-1.70127 -0.943049,-2.18294 0.02522,-0.6602 0.38366,-1.2483 0.912946,-1.49684 0.233835,-0.10992 0.459271,-0.15402 0.670006,-0.15402 0.807925,0 1.40582,0.6413 1.436624,0.6756 0.03433,0.0371 0.08191,0.0588 0.132324,0.0588 0.05041,0 0.09871,-0.0217 0.13232,-0.0588 0.03991,-0.0427 0.980856,-1.05226 2.107335,-0.52158 0.52928,0.24854 0.887737,0.83664 0.912943,1.49684 0.0182,0.49358 -0.13232,1.3015 -1.003959,2.25016 -0.0175,0.0126 -0.03221,0.0287 -0.04411,0.0476 -0.192529,0.20443 -0.418663,0.41587 -0.684008,0.6322 z m -0.68471,2.87466 c 0.458576,0 0.832436,0.37525 0.832436,0.83593 0,0.46137 -0.37386,0.83593 -0.832436,0.83593 -0.09801,0 -0.191826,-0.0168 -0.27934,-0.0483 -0.05321,-0.0266 -0.107819,-0.0532 -0.164528,-0.0812 -0.233835,-0.14772 -0.389259,-0.40886 -0.389259,-0.70641 0,-0.46068 0.373857,-0.83593 0.833127,-0.83593 z m -7.134126,-0.13302 c 0,-0.5671 0.459973,-1.02917 1.025663,-1.02917 0.56569,0 1.025663,0.46207 1.025663,1.02917 0,0.56778 -0.459973,1.02986 -1.025663,1.02986 -0.56569,0 -1.025663,-0.46208 -1.025663,-1.02986 z m 11.329892,-0.84784 c 0.522983,0 0.948652,0.42707 0.948652,0.95215 0,0.52508 -0.425669,0.95285 -0.948652,0.95285 -0.523681,0 -0.949349,-0.42777 -0.949349,-0.95285 0,-0.52508 0.425668,-0.95215 0.949349,-0.95215 z m 0.555886,2.13954 c 0.443873,-0.21004 0.751223,-0.66301 0.751223,-1.18739 0,-0.72391 -0.586694,-1.31271 -1.307109,-1.31271 -0.719712,0 -1.305708,0.58669 -1.307807,1.30851 -0.6266,-0.99976 -1.027059,-2.5239 -1.175487,-3.32063 0.924849,-1.02706 1.083776,-1.9183 1.062771,-2.46439 -0.03009,-0.79392 -0.469773,-1.50453 -1.118778,-1.80978 -1.108276,-0.52158 -2.052726,0.17082 -2.391579,0.47537 -0.338152,-0.30455 -1.2798,-0.99906 -2.392278,-0.47537 -0.649002,0.30525 -1.088672,1.01586 -1.118775,1.80978 -0.02032,0.53209 0.129519,1.39042 0.990653,2.38318 -0.478173,1.46813 -0.912241,2.67793 -1.47653,3.45435 0.0049,-0.0497 0.0084,-0.10082 0.0084,-0.15262 0,-0.76593 -0.620998,-1.38903 -1.384819,-1.38903 -0.763118,0 -1.38412,0.6231 -1.38412,1.38903 0,0.56218 0.333954,1.04666 0.81213,1.26509 -0.04621,0.0189 -0.09171,0.0385 -0.135121,0.0588 -0.516682,0.23874 -0.850632,0.76802 -0.850632,1.34912 v 2.5701 c 0,0.0994 0.08051,0.17993 0.179928,0.17993 0.09871,0 0.179228,-0.0805 0.179228,-0.17993 v -2.5701 c 0,-0.44037 0.252039,-0.84224 0.641301,-1.02216 0.210732,-0.0973 0.464873,-0.17853 0.756119,-0.23944 1.445031,-0.30595 2.122036,-1.94001 2.933464,-4.4121 0.12392,0.12462 0.259739,0.25204 0.407465,0.38016 -0.540484,2.19205 -1.167786,3.75749 -1.722974,4.29728 -0.03499,0.0343 -0.05461,0.0812 -0.05461,0.12952 v 3.43684 c 0,0.0994 0.08051,0.17993 0.179931,0.17993 0.09871,0 0.179229,-0.0805 0.179229,-0.17993 v -3.36263 c 0.76242,-0.81073 1.388318,-2.91176 1.725775,-4.24827 0.12882,0.10152 0.26604,0.20373 0.411663,0.30665 -0.278645,0.88354 -0.758222,2.79974 -0.228935,4.23287 v 3.07138 c 0,0.0994 0.07981,0.17993 0.179229,0.17993 0.09942,0 0.179225,-0.0805 0.179225,-0.17993 v -3.10429 c 0,-0.0217 -0.0035,-0.0434 -0.01189,-0.0637 -0.494277,-1.2973 -0.04761,-3.12669 0.193231,-3.92552 0.176427,0.11622 0.364056,0.23244 0.56359,0.34936 -0.265341,0.97525 -0.661606,2.97127 0.352856,3.49005 0.06301,0.0385 0.130221,0.0721 0.200229,0.0987 1.04877,0.51879 1.254598,0.71482 1.254598,1.13068 v 2.02472 c 0,0.0994 0.08052,0.17993 0.179229,0.17993 0.09942,0 0.179931,-0.0805 0.179931,-0.17993 v -2.02472 c 0,-0.49357 -0.234538,-0.77782 -0.812832,-1.11527 0.471879,-0.15963 0.812832,-0.6077 0.812832,-1.13418 0,-0.65951 -0.534886,-1.19579 -1.191588,-1.19579 -0.366858,0 -0.695212,0.16662 -0.913645,0.42917 0.02939,-0.50828 0.140021,-1.08308 0.290544,-1.62986 0.493578,-0.28144 0.917148,-0.56219 1.280502,-0.83733 0.161025,0.76732 0.651104,2.85575 1.427526,4.02563 v 3.48235 c 0,0.0994 0.07982,0.17993 0.179229,0.17993 0.09872,0 0.179228,-0.0805 0.179228,-0.17993 v -3.53766 c 0,-0.0364 -0.01118,-0.0721 -0.0315,-0.10221 -0.819129,-1.19579 -1.333006,-3.58947 -1.438726,-4.11875 0.158926,-0.13163 0.303847,-0.26255 0.436869,-0.39137 0.222638,1.04177 1.006059,4.10055 2.57991,4.32179 0.05741,0.009 1.407223,0.22893 1.407223,1.41842 v 2.40978 c 0,0.0994 0.08051,0.17993 0.179229,0.17993 0.09941,0 0.179927,-0.0805 0.179927,-0.17993 v -2.40978 c 0,-0.80022 -0.497081,-1.2826 -1.004658,-1.54164"
       fill-opacity="1"
       fill-rule="nonzero"
       id="path81444"
       style="stroke-width:0.352777" />
  </g>
</svg>
