<?xml version="1.0" encoding="UTF-8" standalone="no"?>
<!-- Created with Inkscape (http://www.inkscape.org/) -->

<svg
   width="48mm"
   height="56.840595mm"
   viewBox="0 0 48 56.840595"
   version="1.1"
   id="svg152704"
   inkscape:version="1.2.1 (9c6d41e410, 2022-07-14)"
   sodipodi:docname="why_section_img7_new.svg"
   xmlns:inkscape="http://www.inkscape.org/namespaces/inkscape"
   xmlns:sodipodi="http://sodipodi.sourceforge.net/DTD/sodipodi-0.dtd"
   xmlns="http://www.w3.org/2000/svg"
   xmlns:svg="http://www.w3.org/2000/svg">
  <sodipodi:namedview
     id="namedview152706"
     pagecolor="#ffffff"
     bordercolor="#111111"
     borderopacity="1"
     inkscape:showpageshadow="0"
     inkscape:pageopacity="0"
     inkscape:pagecheckerboard="1"
     inkscape:deskcolor="#d1d1d1"
     inkscape:document-units="mm"
     showgrid="false"
     inkscape:zoom="10.058693"
     inkscape:cx="27.24012"
     inkscape:cy="37.529727"
     inkscape:window-width="1751"
     inkscape:window-height="1243"
     inkscape:window-x="503"
     inkscape:window-y="38"
     inkscape:window-maximized="0"
     inkscape:current-layer="layer1" />
  <defs
     id="defs152701">
    <clipPath
       id="f2bed5f500">
      <path
         d="m 66,8 h 3.613281 v 3 H 66 Z m 0,0"
         clip-rule="nonzero"
         id="path148921" />
    </clipPath>
    <clipPath
       id="04e82f3f48">
      <path
         d="M 47.863281,8 H 51 v 3 h -3.136719 z m 0,0"
         clip-rule="nonzero"
         id="path148924" />
    </clipPath>
    <clipPath
       id="510239a927">
      <path
         d="m 55,23 h 8 v 4.75 h -8 z m 0,0"
         clip-rule="nonzero"
         id="path148927" />
    </clipPath>
    <clipPath
       id="1431506575">
      <path
         d="M 28,17.339844 H 45 V 33 H 28 Z m 0,0"
         clip-rule="nonzero"
         id="path148930" />
    </clipPath>
    <clipPath
       id="1573862a85">
      <path
         d="M 19.199219,20 H 55.796875 V 75 H 19.199219 Z m 0,0"
         clip-rule="nonzero"
         id="path148933" />
    </clipPath>
    <clipPath
       id="ec244df77e">
      <path
         d="M 13,4.777344 H 61 V 74 H 13 Z m 0,0"
         clip-rule="nonzero"
         id="path224633" />
    </clipPath>
    <clipPath
       id="07135a655e">
      <path
         d="m 51.234375,0 h 13.5 v 19.5 h -13.5 z m 0,0"
         clip-rule="nonzero"
         id="path224636" />
    </clipPath>
  </defs>
  <g
     inkscape:label="Слой 1"
     inkscape:groupmode="layer"
     id="layer1"
     transform="translate(-77.421048,-110.12458)">
    <path
       fill="#f0f0f8"
       d="m 110.00106,142.2099 -7.0331,12.4051 -13.903119,-0.0921 -6.868132,-12.49719 7.033094,-12.40508 13.903127,0.0921 6.86813,12.49717"
       fill-opacity="1"
       fill-rule="nonzero"
       id="path322-40-3-4"
       style="fill:#cbd3ed;fill-opacity:1;stroke-width:0.386524" />
    <path
       fill="#f0f0f8"
       d="m 109.07288,138.81456 -7.67132,13.53082 -15.164783,-0.10046 -7.491395,-13.63127 7.671325,-13.5308 15.164783,0.10046 7.49139,13.63125"
       fill-opacity="1"
       fill-rule="nonzero"
       id="path322-40-9-8-4-4"
       style="fill:#ffffff;fill-opacity:1;stroke-width:0.386524" />
    <path
       fill="#ffffff"
       d="m 86.964175,144.60942 c 0.466701,-0.0746 1.935734,-0.25539 3.011518,0.18532 0.06102,-1.01363 -0.170634,-2.22955 -0.174023,-2.24423 l 0.180803,-0.035 c 0.01356,0.0701 0.331098,1.73121 0.110743,2.82281 0.03616,0.17176 0.07006,0.35709 0.08362,0.5006 0.315278,-0.003 0.744687,0.0147 1.098386,0.10396 0.585353,0.14803 3.273682,0.0915 4.010459,-0.0136 -0.04972,-0.13109 -0.102832,-0.28928 -0.161594,-0.48364 -0.119782,-0.391 -0.366127,-1.38994 -0.605693,-2.35499 -0.254256,-1.02605 -0.541283,-2.18998 -0.598914,-2.29507 -0.02711,-0.0486 -0.05876,-0.11188 -0.09266,-0.17855 -0.07345,-0.14464 -0.245216,-0.48139 -0.319798,-0.50965 -0.0023,-8.2e-4 -0.0068,-0.003 -0.01017,-0.003 -0.138992,-0.069 -0.838478,-0.4215 -0.962781,-0.63394 -0.04972,-0.087 -0.127692,-0.1842 -0.204534,-0.278 -0.09379,-0.11752 -0.184195,-0.22826 -0.228265,-0.32771 -0.0091,-0.0203 -0.190975,-0.45652 0.110742,-0.68479 0.01695,-0.0113 0.03051,-0.026 0.04295,-0.0407 l -0.02033,0.0136 c -0.152553,-0.23392 -0.247475,-0.55711 -0.291546,-0.73339 -0.387598,0.23505 -1.722158,1.01363 -2.840884,1.31422 -1.083693,0.29041 -1.326649,1.89393 -1.417051,2.49736 -0.01582,0.0994 -0.02598,0.1661 -0.03617,0.20227 -0.02373,0.0836 -0.116393,0.53225 -0.224875,1.05205 -0.161594,0.78311 -0.358218,1.73008 -0.459921,2.12446 z m 0,0"
       fill-opacity="1"
       fill-rule="nonzero"
       id="path224647"
       style="stroke-width:0.352778" />
    <path
       fill="#ffffff"
       d="m 92.767986,136.22011 c 0.06215,-0.0192 0.138993,-0.0192 0.232785,0.0146 0.188714,0.07 1.126635,0.52208 1.266758,0.64864 0.231656,0.21018 0.323187,0.17627 0.371778,0.13221 0.115263,-0.10396 0.258777,-0.41812 0.335618,-0.58648 0.02146,-0.0463 0.03842,-0.0848 0.05198,-0.11075 0.06893,-0.13899 0.45653,-0.52546 0.585353,-0.58536 0.02825,-0.0158 0.05763,-0.0282 0.08927,-0.0373 0.212444,-0.30736 0.245215,-0.37516 0.249735,-0.38873 0.02147,-0.0802 0.07684,-0.43392 0.09718,-0.56388 0.0045,-0.0362 0.03051,-0.0655 0.06555,-0.0745 0.172893,-0.0486 0.349176,-0.46105 0.318666,-0.66671 -0.01695,-0.1164 0.05537,-0.27686 0.140123,-0.46332 0.09041,-0.20114 0.214706,-0.47573 0.129953,-0.5537 -0.02711,-0.0259 -0.05425,-0.0362 -0.08701,-0.0328 -0.107352,0.0113 -0.232785,0.16385 -0.268946,0.21584 l -0.151423,-0.1051 c 0.01243,-0.0192 0.09944,-0.14125 0.220355,-0.22261 -0.106223,-1.10969 -0.40907,-1.91427 -0.901761,-2.3934 -0.377429,-0.36613 -0.856559,-0.54466 -1.464512,-0.54466 -0.609084,0 -1.088215,0.17853 -1.464513,0.54466 -0.492692,0.47913 -0.795538,1.28371 -0.901761,2.3934 0.120914,0.0814 0.207925,0.2034 0.220356,0.22261 l -0.07571,0.0532 -0.07571,0.052 c -0.03616,-0.052 -0.162724,-0.20453 -0.270076,-0.21583 -0.03164,-0.003 -0.05876,0.007 -0.08701,0.0328 -0.08362,0.078 0.04068,0.35256 0.131083,0.5537 0.08362,0.18646 0.157072,0.34693 0.140123,0.46332 -0.03051,0.20566 0.145773,0.61813 0.318667,0.66671 0.03391,0.009 0.0599,0.0384 0.06555,0.0745 0.02033,0.12996 0.07571,0.48366 0.09719,0.56615 0.02373,0.0666 0.332228,0.51303 0.620383,0.9108 z m 0,0"
       fill-opacity="1"
       fill-rule="nonzero"
       id="path224649"
       style="stroke-width:0.352778" />
    <path
       fill="#ffffff"
       d="m 97.535565,143.66811 c 0.06552,0.0735 0.125431,0.12882 0.172894,0.16272 0.241825,0.16612 0.905151,0.99668 1.006846,1.63175 l -0.181935,0.0294 c -0.09266,-0.58309 -0.735643,-1.37637 -0.928874,-1.50859 -0.244088,-0.16837 -0.639597,-0.73451 -0.885942,-1.18201 -0.273466,-0.49381 -1.511974,-3.03637 -1.563956,-3.14372 -0.0023,-0.005 -0.0033,-0.008 -0.0057,-0.0125 -0.01808,-0.0599 -0.181934,-0.58874 -0.134473,-0.85994 0.01808,-0.1017 0.0678,-0.2407 0.126563,-0.4023 0.09379,-0.25877 0.210185,-0.58082 0.210185,-0.817 0,-0.32658 0.07119,-0.66445 0.124302,-0.91193 0.01243,-0.0622 0.02486,-0.11866 0.0339,-0.16724 0.02486,-0.12995 0.119783,-0.26217 0.203404,-0.37856 0.0486,-0.069 0.129954,-0.18194 0.128823,-0.22035 -0.03503,-0.0508 -0.141253,0.008 -0.142383,0.009 -0.0045,0.003 -0.0091,0.005 -0.01243,0.006 -0.07345,0.0328 -0.43845,0.38307 -0.494951,0.49834 -0.01243,0.0249 -0.02938,0.061 -0.04972,0.1051 -0.119783,0.26216 -0.247475,0.52771 -0.379688,0.6475 -0.157074,0.14124 -0.364999,0.0972 -0.618125,-0.13222 -0.105092,-0.0949 -0.995552,-0.53449 -1.206866,-0.61247 -0.119783,-0.044 -0.164984,0.003 -0.248607,0.1051 l -0.01582,0.0192 c -0.01582,0.0666 0.0678,0.34127 0.181934,0.59665 0.01017,0.0237 0.01017,0.0508 0,0.0735 -0.0091,0.0237 -0.02824,0.0429 -0.05311,0.052 -0.0045,8.2e-4 -0.129952,0.0475 -0.314147,0.0938 -0.0057,8.2e-4 -0.01017,0.003 -0.01468,0.0125 -0.03164,0.0577 -0.0057,0.21357 0.0226,0.30058 0.0057,0.0203 0.122043,0.44411 -0.172894,0.66558 -0.185324,0.14126 -0.05425,0.4588 -0.05312,0.46219 0.03391,0.0757 0.119783,0.18306 0.203405,0.28589 0.08023,0.0995 0.162723,0.20228 0.220355,0.30059 0.07006,0.12091 0.555972,0.3989 0.88142,0.55936 0.129953,0.052 0.254256,0.28025 0.415848,0.59665 0.03277,0.0656 0.06441,0.12657 0.08927,0.1729 0.06441,0.11526 0.276855,0.96505 0.616993,2.34028 0.238435,0.96392 0.484781,1.95947 0.603434,2.34594 0.262165,0.85882 0.390988,0.98199 0.569532,1.15149 0.108483,0.10397 0.230525,0.22035 0.402289,0.49381 0.4328,0.69272 0.565013,0.89048 0.743557,0.88483 0.108482,-0.003 0.353699,-0.035 0.906282,-0.16273 0.140117,-0.0328 0.223743,-0.16159 0.645244,-0.83847 0.07914,-0.12431 0.167245,-0.26782 0.271202,-0.43169 0.577439,-0.9187 0.624905,-2.17303 0.62829,-2.43632 -0.537885,-0.22149 -1.25658,-0.45088 -1.931207,-0.38421 z m 0,0"
       fill-opacity="1"
       fill-rule="nonzero"
       id="path224655"
       style="stroke-width:0.352778" />
    <path
       fill="#ffffff"
       d="m 98.100578,138.4666 c -0.350315,-0.15595 -0.681407,-0.30397 -0.78537,-0.32997 -0.216966,-0.0541 -0.882551,-0.48252 -1.194437,-0.68931 0,0.91758 -0.87012,1.60802 -0.909671,1.63853 l -0.0057,-0.008 c 0.02711,0.18984 0.08588,0.40341 0.117522,0.50399 0.06893,0.14352 1.29162,2.65217 1.556046,3.13017 0.159333,0.28702 0.348047,0.57293 0.516421,0.78762 1.020414,-0.1548 2.13801,0.3684 2.679291,0.62151 0.0407,0.0192 0.0825,0.0384 0.11865,0.0553 -0.078,-0.34013 -0.13899,-1.00007 -0.15368,-1.28146 -0.0136,-0.24633 0.0486,-1.12324 0.10283,-1.8973 0.035,-0.4927 0.0678,-0.95713 0.0723,-1.1402 0.0113,-0.45201 -0.364987,-0.74582 -0.742428,-0.83621 -0.275723,-0.0655 -0.857688,-0.32546 -1.371844,-0.55485 z m 0,0"
       fill-opacity="1"
       fill-rule="nonzero"
       id="path224657"
       style="stroke-width:0.352778" />
    <path
       fill="#ffffff"
       d="m 95.623559,137.15578 -0.01243,-0.24523 c -0.03955,0.20228 -0.07571,0.43393 -0.07571,0.65542 0,0.26895 -0.123172,0.60795 -0.221484,0.88028 -0.05312,0.14691 -0.102834,0.2859 -0.118653,0.37179 -0.0023,0.0125 -0.0033,0.026 -0.0045,0.0407 0.206795,-0.18871 0.688186,-0.69384 0.740167,-1.3063 l -0.0068,0.006 -0.280246,-0.34918 c -0.01243,-0.0147 -0.01921,-0.0328 -0.02033,-0.0532 z m 0,0"
       fill-opacity="1"
       fill-rule="nonzero"
       id="path224659"
       style="stroke-width:0.352778" />
    <path
       fill="#ffffff"
       d="m 92.332925,137.95696 c 0.01808,-0.1243 -0.01355,-0.23957 -0.01355,-0.24183 -0.01468,-0.0452 -0.08927,-0.29606 -0.0068,-0.44411 0.02825,-0.052 0.07345,-0.087 0.131083,-0.10169 0.08136,-0.0203 0.151424,-0.0419 0.202275,-0.0577 -0.05425,-0.12882 -0.09379,-0.24069 -0.119783,-0.33674 l -0.05311,0.26216 c -0.0033,0.0181 -0.01243,0.035 -0.02598,0.0475 l -0.319798,0.31414 c 0.03729,0.14352 0.106223,0.36952 0.205665,0.55824 z m 0,0"
       fill-opacity="1"
       fill-rule="nonzero"
       id="path224661"
       style="stroke-width:0.352778" />
    <g
       clip-path="url(#ec244df77e)"
       id="g224665"
       transform="matrix(0.28003085,0,0,0.28004393,83.48996,128.33598)"
       style="stroke:#000000;stroke-width:0.283444;stroke-dasharray:none;stroke-opacity:1">
      <path
         fill="#000000"
         d="m 20.234375,70.992188 c 0.375,0 0.726563,-0.07813 1.035156,-0.179688 l -0.257812,2.382812 0.632812,0.07031 0.03125,-0.296875 0.261719,-2.425781 c 0.01172,-0.0039 0.02344,-0.0078 0.03125,-0.01172 0.109375,-0.05078 0.242188,-0.109375 0.296875,-0.125 0.03906,0.0039 0.109375,0.01563 0.207031,0.02734 4.421875,0.546875 8.109375,0.589844 10.660156,0.125 2.300782,-0.417969 5.660157,-1.371094 8.628907,-2.210938 2.371093,-0.675781 4.425781,-1.253906 5.117187,-1.324218 0.679688,0.96875 1.136719,1.347656 1.773438,1.347656 0.01953,0 0.03906,0 0.0625,0 0.585937,-0.01953 1.679687,-0.214844 3.25,-0.582032 0.757812,-0.175781 1.078125,-0.691406 2.628906,-3.179687 0.269531,-0.429687 0.578125,-0.925781 0.933594,-1.488281 0.07422,-0.117188 0.144531,-0.230469 0.210937,-0.347656 0.199219,1.78125 0.59375,5.820312 0.519531,9.238281 0,0.04297 0,0.08984 0,0.136719 l 0.632813,0.01562 c 0.121094,-4.585937 -0.625,-10.34375 -0.632813,-10.402343 1.300782,-2.835938 1.507813,-5.976563 1.539063,-7.136719 0.457031,0.203125 0.863281,0.390625 1.203125,0.550781 0.636719,0.300781 0.945312,0.441407 1.136719,0.441407 0.101562,0 0.171875,-0.03516 0.242187,-0.109376 0.08203,-0.08594 0.140625,-0.242187 0.05078,-0.421874 -0.253907,-0.507813 -0.566407,-3.203126 -0.652344,-4.765626 -0.04297,-0.808593 0.179687,-3.953124 0.359375,-6.480468 0.125,-1.78125 0.234375,-3.320313 0.25,-3.96875 0.03906,-1.664063 -1.191407,-3.082032 -3.058594,-3.527344 -0.890625,-0.214844 -2.964844,-1.140625 -4.628906,-1.882812 -1.34375,-0.597657 -2.40625,-1.070313 -2.816407,-1.175782 -0.707031,-0.175781 -3.464843,-1.972656 -4.46875,-2.648437 -0.105468,-0.07031 -0.238281,-0.07422 -0.34375,-0.0078 -0.09375,0.05859 -0.144531,0.15625 -0.148437,0.265625 L 44.50781,30.378907 44.371092,27.76172 h -0.0039 c 0.101562,-0.167969 0.222656,-0.335938 0.335937,-0.492188 0.382813,-0.535156 0.742187,-1.039062 0.476563,-1.46875 -0.08203,-0.128906 -0.179688,-0.21875 -0.292969,-0.28125 0.679687,-1 0.71875,-1.144531 0.738281,-1.226562 0.08203,-0.304688 0.253906,-1.398438 0.320312,-1.839844 0.882813,-0.441406 1.484376,-2.066406 1.359376,-2.929687 -0.03125,-0.21875 0.226562,-0.789063 0.433593,-1.25 0.4375,-0.964844 0.933594,-2.0625 0.304688,-2.648438 -0.230469,-0.214844 -0.507813,-0.308594 -0.804688,-0.277344 -0.0039,0 -0.0039,0 -0.0078,0 C 46.515625,8.351562 43.558594,4.800781 38.4375,4.800781 c -5.121094,0 -8.078125,3.550781 -8.796875,10.546875 0,0 -0.0039,0 -0.0039,0 -0.296875,-0.03125 -0.574219,0.0625 -0.804688,0.277344 -0.628906,0.585938 -0.132812,1.683594 0.304688,2.648438 0.207031,0.460937 0.464843,1.03125 0.429687,1.25 -0.125,0.863281 0.476563,2.488281 1.359375,2.929687 0.07031,0.441406 0.242188,1.535156 0.324219,1.839844 0.07422,0.292969 1.003906,1.632812 1.726562,2.648437 l -0.589843,2.941406 -0.816407,0.796876 c -0.02344,-0.02344 -0.04687,-0.03906 -0.07812,-0.05469 -0.09766,-0.03906 -0.207032,-0.03125 -0.296876,0.02344 -0.05469,0.03516 -5.5625,3.507812 -10.023437,4.703124 -4.148437,1.109376 -5.03125,6.953126 -5.363281,9.152344 -0.04687,0.289063 -0.08203,0.535156 -0.109375,0.621094 -0.08594,0.3125 -0.394531,1.800781 -0.785157,3.679688 -0.617187,2.976562 -1.460937,7.046874 -1.714843,7.769531 -0.0039,0.0078 -0.0039,0.01953 -0.0078,0.02734 h -0.0039 c -0.0078,0.03906 -0.08203,0.371094 0.171875,0.753907 0.324219,0.488281 1.015625,0.828125 2.058594,1.019531 -0.03125,1.484375 -0.0078,3.460938 0.265625,4.894531 0.417968,2.167969 1.160156,5.246094 2.765625,6.925781 0.578125,0.605469 1.207031,0.796876 1.785156,0.796876 z m 21.355469,-3.261719 c -2.953125,0.835937 -6.300782,1.785156 -8.570313,2.199219 -1.734375,0.316406 -4.960937,0.550781 -10.46875,-0.132813 -0.132812,-0.01563 -0.21875,-0.02734 -0.253906,-0.02734 -0.160156,-0.01563 -0.320313,0.05859 -0.585937,0.175781 C 21.027344,70.253906 19.878906,70.765625 18.90625,69.75 17.417969,68.195312 16.710938,65.234375 16.308594,63.144531 15.914062,61.085938 16.0625,57.722656 16.125,56.671875 c 2.125,-0.167969 5.191406,-0.183594 7.652344,0.710937 0.125,0.492188 0.535156,2.152344 0.636718,3.164063 -0.511718,0.01563 -0.847656,0.04297 -0.886718,0.04687 l 0.05078,0.640625 c 0.03125,-0.0039 3.039063,-0.25 5.117187,0.277344 0.933594,0.234375 3.253907,0.332031 5.789063,0.332031 3.347656,0 7.070313,-0.167969 8.464844,-0.390625 0.496093,1.167969 0.875,1.53125 1.34375,1.976563 0.347656,0.332031 0.738281,0.707031 1.289062,1.582031 0.34375,0.550781 0.640625,1.023437 0.902344,1.425781 -0.921875,0.167969 -2.714844,0.675781 -4.894531,1.292969 z M 15.4375,57.726562 c -1.023438,-0.199218 -1.398438,-0.515624 -1.53125,-0.699218 -0.01953,-0.03125 -0.03516,-0.05859 -0.05078,-0.08203 0.324219,-0.05469 0.894531,-0.140624 1.625,-0.214843 -0.01172,0.25 -0.02734,0.589843 -0.04297,0.996093 z m 1,-13.125 c 0.3125,-2.085937 1.152344,-7.628906 4.898438,-8.632812 3.867187,-1.039062 8.480468,-3.730469 9.820312,-4.542969 0.152344,0.609375 0.480469,1.726563 1.007812,2.535157 l 0.07031,-0.04688 c -0.04297,0.05078 -0.08984,0.101563 -0.148437,0.140626 -1.042969,0.789062 -0.414063,2.296874 -0.382813,2.367187 0.152344,0.34375 0.464844,0.726563 0.789063,1.132813 0.265624,0.324218 0.535156,0.660156 0.707031,0.960937 0.429687,0.734375 2.847656,1.953125 3.328125,2.191406 0.01172,0.0039 0.02734,0.0078 0.03516,0.01172 0.257812,0.09766 0.851562,1.261719 1.105469,1.761719 0.117187,0.230469 0.226562,0.449219 0.320312,0.617187 0.199219,0.363282 1.191407,4.386719 2.070313,7.933594 0.828125,3.335938 1.679687,6.789062 2.09375,8.140625 0.203125,0.671875 0.386718,1.21875 0.558594,1.671875 -2.546876,0.363281 -11.839844,0.558594 -13.863282,0.04687 -1.222656,-0.308594 -2.707031,-0.367187 -3.796875,-0.359375 -0.04687,-0.496094 -0.164062,-1.136719 -0.289062,-1.730469 0.761719,-3.773437 -0.335938,-9.515625 -0.382813,-9.757812 l -0.625,0.121093 c 0.01172,0.05078 0.8125,4.253907 0.601563,7.757813 -3.71875,-1.523437 -8.796875,-0.898437 -10.410157,-0.640625 0.351563,-1.363281 1.03125,-4.636719 1.589844,-7.34375 0.375,-1.796875 0.695313,-3.347656 0.777344,-3.636719 0.03516,-0.125 0.07031,-0.355469 0.125,-0.699219 z M 31.300781,21.917969 C 30.703125,21.75 30.09375,20.324219 30.199219,19.613281 c 0.05859,-0.402343 -0.195313,-0.957031 -0.484375,-1.601562 -0.3125,-0.695313 -0.742188,-1.644531 -0.453125,-1.914063 0.09766,-0.08984 0.191406,-0.125 0.300781,-0.113281 0.371094,0.03906 0.808594,0.566406 0.933594,0.746094 l 0.261718,-0.179688 0.261719,-0.183593 c -0.04297,-0.06641 -0.34375,-0.488282 -0.761719,-0.769532 C 30.625,11.761719 31.671875,8.980469 33.375,7.324219 c 1.300781,-1.265625 2.957031,-1.882813 5.0625,-1.882813 2.101562,0 3.757812,0.617188 5.0625,1.882813 1.703125,1.65625 2.75,4.4375 3.117188,8.273437 -0.417969,0.28125 -0.71875,0.703125 -0.761719,0.769532 l 0.523437,0.363281 c 0.125,-0.179688 0.558594,-0.707031 0.929688,-0.746094 0.113281,-0.01172 0.207031,0.02344 0.300781,0.113281 0.292969,0.269532 -0.136719,1.21875 -0.449219,1.914063 -0.292968,0.644531 -0.542968,1.199219 -0.484375,1.601562 0.105469,0.710938 -0.503906,2.136719 -1.101562,2.304688 -0.121094,0.03125 -0.210938,0.132812 -0.226563,0.257812 -0.07031,0.449219 -0.261718,1.671875 -0.335937,1.949219 -0.01563,0.04687 -0.128907,0.28125 -0.863281,1.34375 -0.109376,0.03125 -0.210938,0.07422 -0.308594,0.128906 -0.445313,0.207032 -1.785156,1.542969 -2.023438,2.023438 -0.04687,0.08984 -0.105468,0.222656 -0.179687,0.382812 -0.265625,0.582032 -0.761719,1.667969 -1.160157,2.027344 -0.167968,0.152344 -0.484374,0.269531 -1.285156,-0.457031 -0.484375,-0.4375 -3.726562,-2 -4.378906,-2.242188 -0.324219,-0.117187 -0.589844,-0.117187 -0.804688,-0.05078 -0.996093,-1.375 -2.0625,-2.917969 -2.144531,-3.148438 -0.07422,-0.285156 -0.265625,-1.507812 -0.335937,-1.957031 -0.01953,-0.125 -0.109375,-0.226562 -0.226563,-0.257812 z m 1.6875,8.1875 0.183594,-0.90625 c 0.08984,0.332031 0.226563,0.71875 0.414063,1.164062 -0.175782,0.05469 -0.417969,0.128907 -0.699219,0.199219 -0.199219,0.05078 -0.355469,0.171875 -0.453125,0.351562 -0.285156,0.511719 -0.02734,1.378907 0.02344,1.535157 0,0.0078 0.109375,0.40625 0.04687,0.835937 -0.34375,-0.652344 -0.582031,-1.433594 -0.710937,-1.929687 l 1.105469,-1.085938 c 0.04687,-0.04297 0.07812,-0.101562 0.08984,-0.164062 z m 22.003907,32.671875 c -0.359376,0.566406 -0.664063,1.0625 -0.9375,1.492187 -1.457032,2.339844 -1.746094,2.785157 -2.230469,2.898438 -1.910157,0.441406 -2.757813,0.550781 -3.132813,0.5625 -0.617187,0.01953 -1.074218,-0.664063 -2.570312,-3.058594 -0.59375,-0.945313 -1.015625,-1.347656 -1.390625,-1.707031 -0.617188,-0.585938 -1.0625,-1.011719 -1.96875,-3.980469 C 42.351562,57.648438 41.5,54.207031 40.675781,50.875 39.5,46.121094 38.765625,43.183594 38.542969,42.785156 38.457031,42.625 38.347656,42.414062 38.234375,42.1875 c -0.558594,-1.09375 -0.988281,-1.882812 -1.4375,-2.0625 -1.125,-0.554688 -2.804687,-1.515625 -3.046875,-1.933594 -0.199219,-0.339844 -0.484375,-0.695312 -0.761719,-1.039062 -0.289062,-0.355469 -0.585937,-0.726563 -0.703125,-0.988282 -0.0039,-0.01172 -0.457031,-1.109374 0.183594,-1.597656 1.019531,-0.765625 0.617188,-2.230468 0.597656,-2.300781 -0.09766,-0.300781 -0.1875,-0.839844 -0.07813,-1.039063 0.01563,-0.03125 0.03125,-0.03906 0.05078,-0.04297 0.636719,-0.160156 1.070313,-0.320313 1.085938,-0.324219 0.08594,-0.03125 0.152344,-0.09766 0.1875,-0.179687 0.03125,-0.07813 0.03125,-0.171876 -0.0039,-0.253907 -0.394532,-0.882812 -0.683594,-1.832031 -0.628906,-2.0625 l 0.05469,-0.06641 c 0.289063,-0.351563 0.445313,-0.515625 0.859375,-0.363281 0.730469,0.269531 3.808594,1.789062 4.171875,2.117187 0.875,0.792969 1.59375,0.945313 2.136719,0.457031 0.457031,-0.414062 0.898437,-1.332031 1.3125,-2.238281 0.07031,-0.152343 0.128906,-0.277343 0.171875,-0.363281 0.195312,-0.398438 1.457031,-1.609375 1.710937,-1.722656 0.01172,-0.0039 0.02734,-0.01172 0.04297,-0.01953 0.0039,-0.0039 0.371094,-0.207031 0.492187,-0.03125 0.0039,0.132813 -0.277343,0.523438 -0.445312,0.761719 -0.289062,0.402344 -0.617188,0.859375 -0.703125,1.308594 -0.03125,0.167969 -0.07422,0.363281 -0.117187,0.578125 -0.183594,0.855469 -0.429688,2.023438 -0.429688,3.152344 0,0.816406 -0.402344,1.929687 -0.726562,2.824218 -0.203126,0.558594 -0.375,1.039063 -0.4375,1.390626 -0.164063,0.9375 0.402343,2.765624 0.464843,2.972656 0.0078,0.01563 0.01172,0.02734 0.01953,0.04297 0.179688,0.371094 4.460938,9.160157 5.40625,10.867188 0.851563,1.546875 2.21875,3.503906 3.0625,4.085938 0.667969,0.457031 2.890626,3.199218 3.210938,5.214843 l 0.628906,-0.101562 c -0.351562,-2.195313 -2.644531,-5.066407 -3.480468,-5.640625 -0.164063,-0.117188 -0.371094,-0.308594 -0.597657,-0.5625 2.332031,-0.230469 4.816407,0.5625 6.675781,1.328125 -0.01172,0.910156 -0.175781,5.246093 -2.171874,8.421875 z M 59.75,39.855469 c -0.01563,0.632812 -0.128906,2.238281 -0.25,3.941406 -0.1875,2.675781 -0.402344,5.707031 -0.355469,6.558594 0.05078,0.972656 0.261719,3.253906 0.53125,4.429687 -0.125,-0.05859 -0.269531,-0.125 -0.410156,-0.191406 -1.871094,-0.875 -5.734375,-2.683594 -9.261719,-2.148438 -0.582031,-0.742187 -1.234375,-1.730468 -1.785156,-2.722656 -0.914062,-1.652344 -5.140625,-10.324218 -5.378906,-10.820312 -0.109375,-0.347656 -0.3125,-1.085938 -0.40625,-1.742188 l 0.01953,0.02734 c 0.136719,-0.105469 3.144531,-2.492188 3.144531,-5.664062 1.078125,0.714843 3.378906,2.195312 4.128906,2.382812 0.359376,0.08984 1.503907,0.601562 2.714844,1.140625 1.777344,0.792969 3.789063,1.691406 4.742188,1.917969 1.304687,0.3125 2.605468,1.328125 2.566406,2.890625 z m -14.832031,-7.949219 0.02344,-0.01953 c -0.179687,2.117187 -1.84375,3.863281 -2.558594,4.515625 0.0039,-0.05078 0.0078,-0.09766 0.01563,-0.140625 0.05469,-0.296875 0.226562,-0.777344 0.410156,-1.285157 0.339844,-0.941406 0.765625,-2.113281 0.765625,-3.042968 0,-0.765625 0.125,-1.566406 0.261719,-2.265625 l 0.04297,0.847656 c 0.0039,0.07031 0.02734,0.132813 0.07031,0.183594 z m 0,0"
         fill-opacity="1"
         fill-rule="nonzero"
         id="path224663"
         style="stroke:#000000;stroke-width:0.283444;stroke-dasharray:none;stroke-opacity:1" />
    </g>
    <g
       clip-path="url(#07135a655e)"
       id="g224669"
       transform="matrix(0.28928648,0,0,0.28928648,82.929984,128.32802)"
       style="stroke-width:1.21947">
      <path
         fill="#000000"
         d="m 57.578125,1.738281 c -0.0039,-0.414062 0,-0.828125 0,-1.242187 -0.0039,-0.117188 0.03125,-0.21875 0.113281,-0.304688 0.08203,-0.085937 0.179688,-0.128906 0.296875,-0.128906 0.121094,0 0.21875,0.042969 0.300781,0.125 0.08203,0.085938 0.121094,0.1875 0.113282,0.304688 0.0039,0.148437 0,0.292968 0,0.4375 v 0.09375 l 0.0039,0.28125 c 0,0.148437 0,0.292968 -0.0039,0.4375 0.0039,0.128906 -0.03906,0.238281 -0.128906,0.332031 -0.07813,0.074219 -0.171876,0.109375 -0.28125,0.109375 h -0.01172 c -0.117188,0 -0.21875,-0.046875 -0.300781,-0.132813 -0.07813,-0.089843 -0.113282,-0.191406 -0.101562,-0.3125 z m -4.753906,8.570313 -0.04687,0.0039 c -0.03906,0.0039 -0.07813,0.01172 -0.113282,0.03125 l -0.207031,0.117188 c -0.335937,0.195312 -0.671875,0.386718 -1.003906,0.585937 -0.08594,0.05859 -0.140625,0.140625 -0.164063,0.242187 -0.01953,0.101563 -0.0039,0.195313 0.05078,0.285157 0.07422,0.140625 0.191406,0.214843 0.351562,0.214843 0.0625,0.0039 0.117188,-0.01172 0.171875,-0.03906 0.382813,-0.210938 0.777344,-0.4375 1.203125,-0.695312 0.179688,-0.109376 0.226563,-0.265626 0.148438,-0.460938 -0.05859,-0.195312 -0.1875,-0.289062 -0.390625,-0.285156 z M 51.316406,4.238281 c 0.02734,0.082031 0.07813,0.148438 0.148438,0.199219 0.371094,0.230469 0.757812,0.457031 1.1875,0.6875 0.05469,0.03125 0.113281,0.046875 0.179687,0.046875 0.03516,0 0.07031,-0.00391 0.105469,-0.015625 0.113281,-0.035156 0.195312,-0.105469 0.25,-0.207031 0.05469,-0.09375 0.06641,-0.191407 0.03906,-0.296875 C 53.203125,4.550781 53.144531,4.46875 53.054688,4.414062 52.703125,4.203125 52.292969,3.960938 51.878906,3.738281 c -0.125,-0.070312 -0.25,-0.070312 -0.371094,0 -0.152343,0.09375 -0.226562,0.230469 -0.222656,0.40625 v 0.035157 l 0.01563,0.03125 c 0.0078,0.011718 0.01172,0.019531 0.01563,0.027343 z m 13.40625,-0.125 C 64.710938,3.945312 64.628906,3.820312 64.480469,3.742188 64.332031,3.671875 64.191406,3.675781 64.050781,3.757812 63.6875,3.964844 63.320312,4.175781 62.957031,4.390625 c -0.09766,0.058594 -0.164062,0.140625 -0.195312,0.25 -0.03516,0.109375 -0.01953,0.214844 0.03516,0.316406 0.07422,0.140625 0.195313,0.210938 0.355469,0.214844 0.07422,-0.00391 0.148437,-0.023437 0.214844,-0.0625 0.363281,-0.203125 0.746093,-0.421875 1.121093,-0.648437 0.06641,-0.050782 0.125,-0.113282 0.164063,-0.1875 0.01563,-0.027344 0.03125,-0.046876 0.04687,-0.070313 l 0.03125,-0.039063 z m -0.234375,6.898438 c -0.363281,-0.207031 -0.726562,-0.417969 -1.09375,-0.625 -0.109375,-0.07031 -0.230469,-0.08984 -0.359375,-0.05859 -0.105468,0.03125 -0.1875,0.09375 -0.238281,0.191406 -0.05859,0.105469 -0.06641,0.21875 -0.03125,0.332031 0.03906,0.113282 0.113281,0.199219 0.222656,0.25 0.34375,0.203126 0.695313,0.40625 1.046875,0.609376 0.04687,0.02344 0.09766,0.04297 0.144532,0.05859 l 0.05859,0.01953 h 0.02734 c 0.21875,0.0078 0.359375,-0.09375 0.414063,-0.304687 0.0625,-0.210937 0,-0.367187 -0.191407,-0.472656 z m -4.25,5.945312 v 1.488281 c 0,0.136719 -0.02734,0.269532 -0.07813,0.394532 -0.05078,0.125 -0.125,0.238281 -0.222656,0.332031 -0.09766,0.09766 -0.207031,0.171875 -0.332031,0.222656 -0.125,0.05469 -0.257813,0.08203 -0.394531,0.08203 h -2.40625 c -0.136719,0 -0.269532,-0.02734 -0.394532,-0.07812 -0.125,-0.05469 -0.238281,-0.128907 -0.332031,-0.222657 -0.09766,-0.09766 -0.171875,-0.210937 -0.222656,-0.335937 -0.05469,-0.125 -0.07813,-0.257813 -0.07813,-0.394532 v -1.488281 c 0,-0.136719 0.02344,-0.269531 0.07813,-0.394531 0.05078,-0.125 0.125,-0.234375 0.222656,-0.332031 0.09375,-0.09766 0.207031,-0.171875 0.332031,-0.222657 0.125,-0.05469 0.257813,-0.07812 0.394532,-0.07812 h 2.40625 c 0.136718,0 0.269531,0.02734 0.394531,0.07812 0.125,0.05078 0.234375,0.125 0.332031,0.222657 0.09766,0.09766 0.171875,0.207031 0.222656,0.332031 0.05078,0.125 0.07813,0.257812 0.07813,0.394531 z m -0.699219,0 c 0,-0.08984 -0.03125,-0.167969 -0.09375,-0.234375 -0.06641,-0.0625 -0.144531,-0.09375 -0.234374,-0.09766 h -2.40625 c -0.09375,0 -0.167969,0.03516 -0.234376,0.09766 -0.0625,0.06641 -0.09766,0.144532 -0.09766,0.234375 v 1.488281 c 0,0.09375 0.03516,0.171876 0.09766,0.234376 0.06641,0.06641 0.140626,0.09766 0.234376,0.09766 h 2.40625 c 0.08984,0 0.167968,-0.03125 0.230468,-0.09766 0.06641,-0.0625 0.09766,-0.140626 0.09766,-0.234376 z m 3.226563,-8.597656 c -0.117187,1.136719 -0.585937,2.101563 -1.40625,2.894531 -0.554687,0.566406 -0.898437,1.242188 -1.027344,2.023438 -0.101562,0.574218 -0.171875,1.148437 -0.210937,1.730468 -0.03906,0.417969 -0.242188,0.644532 -0.667969,0.644532 h -2.929687 c -0.08594,0.0078 -0.175782,0 -0.257813,-0.03125 -0.08594,-0.02734 -0.15625,-0.07422 -0.222656,-0.132813 -0.0625,-0.0625 -0.109375,-0.136719 -0.140625,-0.21875 -0.03125,-0.08594 -0.04297,-0.171875 -0.03516,-0.257812 -0.0039,-0.898438 -0.167969,-1.765625 -0.488282,-2.601563 -0.1875,-0.445312 -0.445312,-0.839844 -0.78125,-1.1875 C 53.257812,9.8125 52.832031,8.148438 53.4375,6.308594 54.050781,4.464844 55.382812,3.363281 57.304688,3.066406 57.667969,3.011719 58.035156,3 58.402344,3.03125 58.765625,3.0625 59.125,3.132812 59.472656,3.246094 c 0.351563,0.113281 0.683594,0.265625 0.996094,0.453125 0.316406,0.191406 0.605469,0.414062 0.871094,0.667969 0.261718,0.257812 0.492187,0.539062 0.691406,0.847656 0.199219,0.308594 0.359375,0.636718 0.484375,0.984375 0.125,0.34375 0.207031,0.699219 0.25,1.066406 0.04297,0.363281 0.04297,0.726563 0,1.09375 z M 57.664062,3.808594 C 56,3.964844 54.8125,4.851562 54.230469,6.414062 c -0.585938,1.574219 -0.246094,3.011719 0.902343,4.246094 0.125,0.132813 0.25,0.261719 0.363282,0.40625 0.609375,0.84375 0.964844,1.78125 1.058594,2.820313 0.04687,0.324219 0.06641,0.648437 0.09766,0.96875 l 2.683594,0.0078 c 0.0078,-0.08984 0.0078,-0.167969 0.01953,-0.25 0.07031,-0.507812 0.113281,-1.023437 0.222656,-1.523437 0.183594,-0.984375 0.636719,-1.824219 1.359375,-2.523438 0.34375,-0.34375 0.605469,-0.746094 0.78125,-1.203125 1.140625,-2.78125 -1.066406,-5.824219 -4.054688,-5.554687 z m 0,0"
         fill-opacity="1"
         fill-rule="nonzero"
         id="path224667"
         style="stroke-width:1.45094" />
    </g>
    <path
       stroke-linecap="round"
       fill="none"
       stroke-linejoin="miter"
       d="m 101.84181,152.0552 -15.505777,10e-4 -7.754322,-13.43546 7.751461,-13.43786 15.505778,-10e-4 7.75433,13.43684 z m 0,0"
       stroke="#000000"
       stroke-width="0.853091"
       stroke-opacity="1"
       stroke-miterlimit="4"
       id="path98904"
       style="stroke:#cbd3ed;stroke-opacity:1" />
    <path
       style="fill:none;fill-opacity:1;stroke:#cbd3ed;stroke-width:0.79375;stroke-dasharray:none;stroke-opacity:1"
       d="m 86.550564,152.01832 -8.566123,15.19907"
       id="path103810-3-60" />
    <path
       style="fill:none;fill-opacity:1;stroke:#cbd3ed;stroke-width:0.79375;stroke-dasharray:none;stroke-opacity:1"
       d="m 77.628824,109.94964 8.741737,14.9611"
       id="path103810-3-60-8" />
    <path
       style="fill:none;fill-opacity:1;stroke:#cbd3ed;stroke-width:0.79375;stroke-dasharray:none;stroke-opacity:1"
       d="m 109.74078,138.59579 16.06987,-0.005"
       id="path103810-3-6" />
  </g>
</svg>
