<?xml version="1.0" encoding="UTF-8" standalone="no"?>
<!-- Created with Inkscape (http://www.inkscape.org/) -->

<svg
   width="49.773457mm"
   height="42.786331mm"
   viewBox="0 0 49.773457 42.786331"
   version="1.1"
   id="svg152704"
   inkscape:version="1.2.1 (9c6d41e410, 2022-07-14)"
   sodipodi:docname="why_section_img7_new.svg"
   xmlns:inkscape="http://www.inkscape.org/namespaces/inkscape"
   xmlns:sodipodi="http://sodipodi.sourceforge.net/DTD/sodipodi-0.dtd"
   xmlns="http://www.w3.org/2000/svg"
   xmlns:svg="http://www.w3.org/2000/svg">
  <sodipodi:namedview
     id="namedview152706"
     pagecolor="#ffffff"
     bordercolor="#111111"
     borderopacity="1"
     inkscape:showpageshadow="0"
     inkscape:pageopacity="0"
     inkscape:pagecheckerboard="1"
     inkscape:deskcolor="#d1d1d1"
     inkscape:document-units="mm"
     showgrid="false"
     inkscape:zoom="14.22514"
     inkscape:cx="92.266226"
     inkscape:cy="26.537524"
     inkscape:window-width="2560"
     inkscape:window-height="1361"
     inkscape:window-x="2391"
     inkscape:window-y="-9"
     inkscape:window-maximized="1"
     inkscape:current-layer="layer1" />
  <defs
     id="defs152701">
    <clipPath
       id="f2bed5f500">
      <path
         d="m 66,8 h 3.613281 v 3 H 66 Z m 0,0"
         clip-rule="nonzero"
         id="path148921" />
    </clipPath>
    <clipPath
       id="04e82f3f48">
      <path
         d="M 47.863281,8 H 51 v 3 h -3.136719 z m 0,0"
         clip-rule="nonzero"
         id="path148924" />
    </clipPath>
    <clipPath
       id="510239a927">
      <path
         d="m 55,23 h 8 v 4.75 h -8 z m 0,0"
         clip-rule="nonzero"
         id="path148927" />
    </clipPath>
    <clipPath
       id="1431506575">
      <path
         d="M 28,17.339844 H 45 V 33 H 28 Z m 0,0"
         clip-rule="nonzero"
         id="path148930" />
    </clipPath>
    <clipPath
       id="1573862a85">
      <path
         d="M 19.199219,20 H 55.796875 V 75 H 19.199219 Z m 0,0"
         clip-rule="nonzero"
         id="path148933" />
    </clipPath>
  </defs>
  <g
     inkscape:label="Слой 1"
     inkscape:groupmode="layer"
     id="layer1"
     transform="translate(-77.783612,-124.72606)">
    <path
       fill="#f0f0f8"
       d="m 112.82821,138.86195 -7.0331,12.4051 -13.903115,-0.0921 -6.868132,-12.49719 7.033094,-12.40508 13.903123,0.0921 6.86813,12.49717"
       fill-opacity="1"
       fill-rule="nonzero"
       id="path322-40-3-4"
       style="fill:#cbd3ed;fill-opacity:1;stroke-width:0.386524" />
    <path
       fill="#f0f0f8"
       d="m 109.07288,138.81456 -7.67132,13.53082 -15.164783,-0.10046 -7.491395,-13.63127 7.671325,-13.5308 15.164783,0.10046 7.49139,13.63125"
       fill-opacity="1"
       fill-rule="nonzero"
       id="path322-40-9-8-4-4"
       style="fill:#ffffff;fill-opacity:1;stroke-width:0.386524" />
    <path
       stroke-linecap="round"
       fill="none"
       stroke-linejoin="miter"
       d="m 101.84181,152.0552 -15.505777,10e-4 -7.754322,-13.43546 7.751461,-13.43786 15.505778,-10e-4 7.75433,13.43684 z m 0,0"
       stroke="#000000"
       stroke-width="0.853091"
       stroke-opacity="1"
       stroke-miterlimit="4"
       id="path98904"
       style="stroke:#cbd3ed;stroke-opacity:1" />
    <path
       style="fill:none;fill-opacity:1;stroke:#cbd3ed;stroke-width:0.714375;stroke-dasharray:none;stroke-opacity:1"
       d="m 124.57656,165.79571 -46.662072,0.0302"
       id="path104333-2-5-1-0" />
    <path
       style="fill:none;fill-opacity:1;stroke:#cbd3ed;stroke-width:0.79375;stroke-dasharray:none;stroke-opacity:1"
       d="m 78.126292,165.93061 8.106283,-13.87548"
       id="path103810-2-1-3-5-4-8-0" />
    <g
       clip-path="url(#f2bed5f500)"
       id="g148942"
       transform="matrix(0.26267694,0,0,0.26267694,83.321696,127.99311)"
       style="stroke-width:1.34301">
      <path
         fill="#000000"
         d="m 69.035156,10.042969 h -1.859375 c -0.324219,0 -0.589843,-0.265625 -0.589843,-0.59375 0,-0.324219 0.265624,-0.59375 0.589843,-0.59375 h 1.859375 c 0.324219,0 0.59375,0.269531 0.59375,0.59375 0,0.328125 -0.269531,0.59375 -0.59375,0.59375 z m 0,0"
         fill-opacity="1"
         fill-rule="nonzero"
         id="path148940"
         style="stroke-width:1.70296" />
    </g>
    <g
       clip-path="url(#04e82f3f48)"
       id="g148946"
       transform="matrix(0.26267694,0,0,0.26267694,83.321696,127.99311)"
       style="stroke-width:1.34301">
      <path
         fill="#000000"
         d="m 50.3125,10.042969 h -1.855469 c -0.328125,0 -0.59375,-0.265625 -0.59375,-0.59375 0,-0.324219 0.265625,-0.59375 0.59375,-0.59375 H 50.3125 c 0.328125,0 0.59375,0.269531 0.59375,0.59375 0,0.328125 -0.265625,0.59375 -0.59375,0.59375 z m 0,0"
         fill-opacity="1"
         fill-rule="nonzero"
         id="path148944"
         style="stroke-width:1.70296" />
    </g>
    <path
       fill="#000000"
       d="m 97.148115,129.50042 c -0.04001,0 -0.07899,-0.0154 -0.109749,-0.0462 l -0.34477,-0.34579 c -0.06054,-0.0605 -0.06054,-0.15904 0,-0.22061 0.06054,-0.0605 0.160056,-0.0605 0.220592,0 l 0.34477,0.34579 c 0.06054,0.0605 0.06054,0.16007 0,0.22061 -0.0321,0.0308 -0.0708,0.0462 -0.110843,0.0462 z m 0,0"
       fill-opacity="1"
       fill-rule="nonzero"
       id="path148948"
       style="stroke-width:0.352778" />
    <path
       fill="#000000"
       d="m 100.33511,129.50042 c -0.0389,0 -0.079,-0.0154 -0.10975,-0.0462 -0.0605,-0.0605 -0.0605,-0.16007 0,-0.22061 l 0.34579,-0.34579 c 0.0605,-0.0605 0.15904,-0.0605 0.21957,0 0.0605,0.0616 0.0605,0.16007 0,0.22061 l -0.34473,0.34579 c -0.0296,0.0308 -0.0698,0.0462 -0.11088,0.0462 z m 0,0"
       fill-opacity="1"
       fill-rule="nonzero"
       id="path148950"
       style="stroke-width:0.352778" />
    <path
       fill="#000000"
       d="m 99.756448,133.22715 h -1.977284 c -0.08516,0 -0.15494,-0.0708 -0.15494,-0.15596 v -0.0852 c 0,-0.3386 -0.114899,-0.67311 -0.331399,-0.96964 -0.229835,-0.31501 -0.35299,-0.6885 -0.35299,-1.07944 0,-0.50381 0.210362,-0.99017 0.577709,-1.33493 0.370382,-0.3499 0.857779,-0.52536 1.366732,-0.49355 0.945021,0.0595 1.696084,0.84857 1.711504,1.7977 0.007,0.42069 -0.1252,0.81778 -0.38069,1.1492 -0.19494,0.25345 -0.302679,0.58488 -0.302679,0.93374 v 0.0821 c 0,0.0862 -0.06981,0.15596 -0.155963,0.15596 z m -1.822344,-0.31295 h 1.66945 c 0.01446,-0.38991 0.142629,-0.76033 0.365267,-1.04968 0.212409,-0.27499 0.321169,-0.60539 0.316049,-0.95426 -0.0134,-0.78701 -0.63616,-1.44165 -1.419044,-1.48987 -0.422805,-0.0267 -0.82603,0.118 -1.134886,0.40838 -0.307834,0.29038 -0.47812,0.6844 -0.47812,1.10817 0,0.32527 0.100541,0.63412 0.291359,0.89577 0.241159,0.3304 0.374544,0.70287 0.389925,1.08149 z m 0,0"
       fill-opacity="1"
       fill-rule="nonzero"
       id="path148952"
       style="stroke-width:0.352778" />
    <path
       fill="#000000"
       d="m 99.774899,133.82844 h -2.013162 c -0.08622,0 -0.155963,-0.0708 -0.155963,-0.15597 0,-0.0862 0.06974,-0.15596 0.155963,-0.15596 h 2.012139 c 0.08618,0 0.155998,0.0698 0.155998,0.15596 0,0.0852 -0.06879,0.15597 -0.154975,0.15597 z m 0,0"
       fill-opacity="1"
       fill-rule="nonzero"
       id="path148954"
       style="stroke-width:0.352778" />
    <g
       clip-path="url(#510239a927)"
       id="g148958"
       transform="matrix(0.26267694,0,0,0.26267694,83.321696,127.99311)"
       style="stroke-width:1.34301">
      <path
         fill="#000000"
         d="m 58.804688,27.605469 c -1.878907,0 -3.40625,-1.527344 -3.40625,-3.410157 v -0.457031 c 0,-0.324219 0.265624,-0.59375 0.59375,-0.59375 h 5.621093 c 0.324219,0 0.589844,0.269531 0.589844,0.59375 v 0.457031 c 0.0039,1.882813 -1.519531,3.410157 -3.398437,3.410157 z m -2.214844,-3.273438 c 0.07031,1.164063 1.035156,2.085938 2.214844,2.085938 1.175781,0 2.140624,-0.921875 2.210937,-2.085938 z m 0,0"
         fill-opacity="1"
         fill-rule="nonzero"
         id="path148956"
         style="stroke-width:1.70296" />
    </g>
    <path
       fill="#000000"
       d="m 99.067932,133.22715 h -0.599228 c -0.0708,0 -0.133386,-0.0493 -0.150848,-0.118 l -0.439173,-1.75254 c -0.01517,-0.0616 0.0081,-0.12621 0.05849,-0.16315 0.05129,-0.038 0.119063,-0.041 0.173461,-0.008 l 0.270863,0.16418 0.248285,-0.48432 c 0.02681,-0.0523 0.08004,-0.0852 0.138536,-0.0852 0.05849,0 0.112889,0.0328 0.1385,0.0852 l 0.248321,0.48432 0.270898,-0.16418 c 0.05436,-0.0328 0.122096,-0.0297 0.174448,0.008 0.05027,0.0369 0.07387,0.10158 0.05747,0.16315 l -0.438185,1.75254 c -0.01834,0.0687 -0.08103,0.118 -0.151836,0.118 z M 98.5908,132.9142 h 0.356059 l 0.317041,-1.26516 -0.08925,0.0554 c -0.03796,0.0225 -0.08209,0.0288 -0.123154,0.0164 -0.04103,-0.0113 -0.07694,-0.04 -0.09645,-0.078 l -0.186725,-0.36426 -0.185738,0.36426 c -0.0194,0.038 -0.05436,0.0667 -0.09641,0.078 -0.04106,0.0123 -0.08622,0.006 -0.123155,-0.0164 l -0.08925,-0.0554 z m 0,0"
       fill-opacity="1"
       fill-rule="nonzero"
       id="path148960"
       style="stroke-width:0.352778" />
    <g
       clip-path="url(#1431506575)"
       id="g148964"
       transform="matrix(0.26267694,0,0,0.26267694,83.321696,127.99311)"
       style="stroke-width:1.34301">
      <path
         fill="#231f20"
         d="m 36.734375,17.347656 v 1.410156 -1.410156 c 1.410156,0 2.792969,0.386719 4.003906,1.121094 3.664063,2.21875 4.851563,7.027344 2.644531,10.714844 -1.417968,2.367187 -3.90625,3.78125 -6.65625,3.78125 -1.40625,0 -2.792968,-0.386719 -4.003906,-1.121094 -1.773437,-1.074219 -3.027344,-2.78125 -3.527344,-4.808594 -0.5,-2.023437 -0.183593,-4.121094 0.886719,-5.910156 1.394531,-2.328125 3.945313,-3.777344 6.652344,-3.777344 z m 0,1.410156 c -2.15625,0 -4.257813,1.105469 -5.453125,3.097657 -1.8125,3.027343 -0.839844,6.957031 2.167969,8.78125 1.027343,0.621093 2.160156,0.917969 3.277343,0.917969 2.15625,0 4.257813,-1.105469 5.453126,-3.097657 1.8125,-3.027343 0.839843,-6.957031 -2.167969,-8.78125 -1.027344,-0.621093 -2.15625,-0.917969 -3.277344,-0.917969"
         fill-opacity="1"
         fill-rule="nonzero"
         id="path148962"
         style="stroke-width:1.70296" />
    </g>
    <g
       clip-path="url(#1573862a85)"
       id="g148968"
       transform="matrix(0.26267694,0,0,0.26267694,83.321696,127.99311)"
       style="stroke-width:1.34301">
      <path
         fill="#231f20"
         d="m 26.675781,20.054688 c 0.621094,0 2.6875,0.269531 3.320313,3.703124 0.582031,3.15625 -0.152344,5.367188 -0.640625,6.832032 -0.128907,0.394531 -0.304688,0.917968 -0.324219,1.15625 0.09766,0.07031 0.363281,0.226562 1.003906,0.414062 0.53125,0.15625 1.023438,0.375 1.460938,0.65625 0.09766,-0.02734 0.1875,-0.04687 0.25,-0.0625 0.476562,-0.109375 1.109375,-0.191406 1.929687,-0.261718 1.324219,-0.113282 3.144531,-0.171876 5.125,-0.171876 1.414063,0 2.839844,0.03125 3.914063,0.08594 0.554687,0.03125 1,0.0625 1.328125,0.101562 0.03906,0.0078 0.08203,0.01172 0.125,0.01563 0.300781,-0.144532 0.613281,-0.265626 0.945312,-0.363282 0.195313,-0.05859 0.347657,-0.113281 0.460938,-0.15625 -0.117188,-0.210937 -0.28125,-0.46875 -0.414063,-0.679687 -0.929687,-1.46875 -2.484375,-3.929688 -1.8125,-7.566407 0.632813,-3.433593 2.699219,-3.703124 3.320313,-3.703124 0.789062,0 1.558593,0.347656 2.167969,0.980468 0.804687,0.839844 1.238281,2.089844 1.191406,3.429688 -0.02734,0.769531 1.21875,2.445312 2.128906,3.671875 0.9375,1.265625 1.90625,2.574219 2.4375,3.859375 0.957031,2.320312 0.113281,3.746094 -0.765625,4.53125 -2.132813,1.914062 -6.046875,3.734375 -8.59375,4.796875 -0.84375,4.257812 -2.164063,8.984375 -2.6875,10.808593 3.976563,4.554688 6.207031,9.972657 7.390625,13.789063 1.332031,4.304687 1.652344,7.496094 1.667969,7.628906 0.03906,0.394531 -0.09375,0.789063 -0.359375,1.085938 -0.265625,0.292969 -0.644532,0.460937 -1.039063,0.460937 H 46.21875 c -0.59375,0 -1.121094,-0.375 -1.320312,-0.9375 -1.761719,-4.980468 -4.054688,-8.34375 -5.667969,-10.289062 -0.640625,-0.769532 -1.226563,-1.382813 -1.714844,-1.855469 -2.9375,7.207031 -7.628906,12.390625 -7.84375,12.625 -0.265625,0.292969 -0.640625,0.457031 -1.035156,0.457031 h -5.03125 c -0.484375,0 -0.933594,-0.25 -1.1875,-0.660156 -0.257813,-0.414062 -0.285157,-0.925781 -0.07813,-1.363281 0.07422,-0.148438 7.070312,-14.769531 7.742187,-22.527344 0.273438,-3.183594 0.265625,-6.550781 0.195313,-9.070313 -2.421875,-0.996093 -6.703125,-2.921874 -8.960938,-4.949218 -0.84375,-0.757813 -1.734375,-2.144532 -1.179687,-4.457032 0.328125,-1.351562 1.050781,-2.71875 1.75,-4.042968 0.683593,-1.289063 1.457031,-2.75 1.429687,-3.5625 -0.04687,-1.339844 0.386719,-2.589844 1.195313,-3.429688 0.605469,-0.632812 1.375,-0.980468 2.164062,-0.980468 z m 0,1.414062 c -1.019531,0 -2.015625,1.210938 -1.957031,2.945312 0.105469,3.085938 -5.460938,8.375 -2.46875,11.0625 2.417969,2.164063 7.515625,4.289063 9.398438,5.03125 0.109374,2.949219 0.132812,6.671876 -0.167969,10.160157 -0.699219,8.109375 -7.875,23.019531 -7.875,23.019531 h 5.03125 c 0,0 5.519531,-6.042969 8.269531,-14.039062 0,0 5.722656,3.886718 9.3125,14.039062 h 3.988281 c 0,0 -1.214843,-12.523438 -9.226562,-21.195312 0,0 2.003906,-6.738282 3.019531,-12.183594 2.167969,-0.878906 6.671875,-2.839844 8.894531,-4.832032 2.996094,-2.6875 -4.375,-7.976562 -4.269531,-11.0625 0.0625,-1.734374 -0.9375,-2.945312 -1.957031,-2.945312 -0.796875,0 -1.609375,0.738281 -1.941407,2.542969 -1.15625,6.261719 5.289063,8.179687 0.777344,9.503906 -0.4375,0.128906 -0.808594,0.304687 -1.132812,0.511719 -0.06641,-0.164063 -2.691406,-0.296875 -5.570313,-0.296875 -3.5,0 -7.371093,0.195312 -7.449219,0.757812 -0.429687,-0.421875 -0.988281,-0.761719 -1.710937,-0.972656 -4.511719,-1.324219 0.132813,-3.242187 -1.023437,-9.503906 -0.332032,-1.804688 -1.144532,-2.542969 -1.941407,-2.542969"
         fill-opacity="1"
         fill-rule="nonzero"
         id="path148966"
         style="stroke-width:1.70296" />
    </g>
    <ellipse
       style="fill:#cbd3ed;stroke:#cbd3ed;stroke-width:0.714375"
       id="path123394"
       cx="125.85007"
       cy="165.80539"
       rx="1.3498125"
       ry="1.3498124" />
  </g>
</svg>
