<svg width="588" height="455" preserveAspectRatio="xMidYMid" version="1.0" viewBox="0 0 441 341" xmlns="http://www.w3.org/2000/svg" zoomAndPan="magnify">
 <defs>
  <clipPath id="59bd95c926">
   <path d="m112 220h46.5v42.3h-46.5z"/>
  </clipPath>
  <clipPath id="fd584c06fe">
   <path d="m121 220h47v42.3h-47z"/>
  </clipPath>
  <clipPath id="51efb2c1d7">
   <path d="m113 113h140v122h-140z"/>
  </clipPath>
  <clipPath id="833252e42f">
   <path d="m121 113h141v122h-141z"/>
  </clipPath>
 </defs>
 <g>
  <path d="m64.4 26.3c-26.4 16.9-47.1 47.4-53.9 77.8-16.2 72.9 53.6 130 118 145 17.4 4.08 35.4 5.71 53.3 4.97 25.2-1.05 50.5-2.18 74.8-9.56 41.3-12.5 77.4-48.1 65.7-94.5-3.59-14.2-11.5-27.3-22.6-36.9-10.9-9.43-24.1-15.7-35.1-25.1-14.6-12.5-22.8-31.1-32.7-47.1-18.1-29.4-50.2-41.6-83.9-40.5-28.9 0.99-59 10.7-83.4 26.2z" fill="#eae3ff"/>
  <path d="m0.135 295c0.207 3.59 0.781 7.19 1.77 10.7 1.67 5.98 4.58 11.6 8.94 16.1 7.25 7.54 17.5 12.1 27.8 13.4 2.49 0.309 5.01 0.43 7.52 0.375 5.21-0.0898 10.4-0.957 15.4-2.52 0.484-0.152 0.98-0.305 1.46-0.484 0.34-0.109 0.672-0.23 1.01-0.352 9.57-3.51 16.7-11.4 26.4-14.9 0.684-0.242 1.36-0.453 2.06-0.648 9.34-2.58 19.4-1.02 28.6 1.25l-6.1-15.7c-0.285-0.738-5.8-0.98-6.46-1.05-3.18-0.34-6.39-0.441-9.6-0.273-2.12 0.109-4.25 0.328-6.34 0.691-4.71 0.805-9.14 2.53-13.3 4.72-3.98 2.09-7.78 4.61-11.4 7.17-3.85 2.7-7.38 4.73-12 5.95-4.66 1.23-9.52 1.47-14.3 1.05-3.82-0.328-7.44-1.12-10.7-2.51h-0.0117c-4.16-1.76-7.7-4.51-10.2-8.57-0.594-0.961-1.12-1.98-1.59-3.09-3.18-7.5-3.24-16.1-2.3-24.1 0.207-1.79 0.473-3.59 0.805-5.37 0.383-2.11 0.859-4.2 1.42-6.25 0.781-2.88 1.33-6.02 1.23-9-0.0898-2.77-0.891-5.61-2.77-7.64-2.05-2.25-5.71-3.48-8.28-1.48-2.48 1.93-3.41 5.31-4.3 8.16-0.473 1.5-0.914 3.02-1.33 4.54-1.89 7-3.11 14.2-3.41 21.4-0.133 2.8-0.125 5.61 0.043 8.41z" fill="#208fe7"/>
  <path d="m225 147s46.1 11.9 64.9 35.5c18.8 23.6-42.4 11.4-42.4 11.4z" fill="#4fa7ed"/>
  <path d="m156 336c-11.3-1.43-21.1-5.64-29.5-11.9-3.51-2.62-6.76-5.6-9.8-8.88-8e-3 -0.0117-0.125-0.0742-0.309-0.176-0.523-0.289-1.56-0.895-1.96-1.36-0.0977-0.113-8.8-12.9-12.4-19.9-0.0781-0.164-0.176-0.34-0.258-0.504-2.91-5.72-5.4-11.8-7.54-18.1-0.16-0.438-0.305-0.875-0.449-1.31-1.96-5.92-3.61-12-4.92-18.2-0.0781-0.32-0.145-0.629-0.211-0.953-0.984-4.69-1.81-9.41-2.45-14.2-0.0977-0.582-0.164-1.15-0.242-1.73-1.09-8.12-1.67-16.2-1.84-24.1-0.0156-0.504-0.0312-1-0.0312-1.5-0.0664-4.63 0-9.14 0.207-13.5 0.0352-0.453 0.0664-0.922 0.082-1.37 0.0312-0.52 0.0664-1.02 0.0977-1.52 0.273-4.07 0.758-8.1 1.45-12.1 0.082-0.582 0.18-1.15 0.293-1.71 1.04-5.64 2.47-11.2 4.32-16.5 0.227-0.648 0.453-1.29 0.695-1.94 1.41-3.82 3.04-7.52 4.91-11.1 0.0156-0.0469 0.0312-0.0977 0.0664-0.145 1.23-2.39 2.57-4.71 4.01-6.94 0-0.0195 0.0156-0.0352 0.0312-0.0508 1.57-2.44 3.29-4.8 5.09-7.04 0.18-0.211 0.355-0.438 0.535-0.645 3.36-4.06 7.1-7.77 11.2-11 0.449-0.355 0.898-0.715 1.34-1.07-3.79-5.12-6.02-9.46-7.97-14.8-1.52-4.19-2.34-8.59-2.48-13.2-0.0469-1.3-0.0469-2.63 0.0117-3.97 0.0351-0.641 0.162-1.19 0.216-1.83l0.0117-0.0703c0.301-3.88 1.02-7.86 2.11-11.9 0.488-1.8 1.02-3.6 1.74-5.32 1.34-2.62 2.54-5.08 4.33-7.34 0 0 6.94-13.9 10.1-20.4 3.19-6.68 5.63-15.5 9.77-15.3 3.74 0.164 11.3 9 12.2 18.3 0.0117 0.082 8e-3 0.164 0.0156 0.246 2.33-0.434 4.75-0.812 7.27-1.12 0.328-0.0352 0.664-0.082 1-0.109 3.18-0.375 6.48-0.648 9.96-0.82 1.41-0.0664 2.88-0.117 4.34-0.156 6.34-0.152 13.2 0 20.4 0.484 0.238 0.0078 0.473 0.0273 0.691 0.0469 0.824 0.0547 1.62 0.117 2.4 0.191 2.13 0.191 4.18 0.426 6.16 0.707l0.297-0.238c1.25-1.04 2.87-2.58 3.06-2.75 2.5-2.34 4.19-5.59 6.43-8.15 3.26-3.73 7.96-6.21 13.1-4.66 0.32 0.102 0.605 0.262 0.867 0.508 0.676 0.617 1.18 1.68 1.52 3.04 1.24 4.9 0.363 13.6-1.97 18.7-0.043 0.102-1.1 0.945-1.16 1.05 9.45 4.69 15.3 13.5 19.1 20.6 0.262 0.492 0.512 1 0.754 1.5 0.977 2.02 1.79 4.09 2.47 6.19 0.535 1.64 0.969 3.3 1.34 4.99 0.555 2.53 0.949 5.06 1.23 7.59 0.0273 0.285 0.0547 0.566 0.0742 0.84 0.0352 0.293 0.0547 0.574 0.0703 0.859 0.109 1.34 0.156 2.65 0.156 3.92v0.191c0 1.6-0.0742 3.14-0.207 4.63-0.0664 0.684-0.148 1.36-0.23 2.02-1.45 11-5.06 15.8-8.04 19.8-1.46 1.95-2.48 2.98-2.48 2.98s-0.133 0.168-0.246 0.301c63.2 58.4 20.4 148 20.4 148l-28.8-0.855-49.6 22.9-12.9 30.8c-4e-3 0-2 1.45-10.1 0.68z" fill="#55c0e7"/>
  <path d="m142 53.9c3.69-1.06 6.44-1.4 6.58-1.43-0.859-9.29-8.52-18-12.3-18.2-0.762 2.05-1.61 4.38-0.633 9.98 0.102 0.551 0.16 1.08 0.195 1.61 0.605 7.74 2.61 9.01 6.12 8z" fill="#3076b1"/>
  <path d="m219 56.9c1.4 0.484 2.72 1.05 3.73 1.43 2.33-5.08 3.2-13.9 1.97-18.8-0.344-1.36-0.848-2.43-1.52-3.04 0 0-1.99 0.734-3.84 5.2-0.668 1.63-1.27 3.19-1.95 4.62-1.61 3.39-2.96 8.95 1.6 10.5z" fill="#3076b1"/>
  <g stroke-width=".936">
   <path d="m148 122c4.54 3.24 11.8 4.5 17.1 2.66 1.14-0.39 2.2-0.942 3.17-1.67 4.18-3.2 6.67-8.96 6.85-14.1 0.0148-0.115 0.0185-0.238 0.0222-0.357 0.0888-5.18-2.8-9.97-7.36-12.6-5.33-3.07-13.4-4.31-18.5-0.307-2.03 1.58-3.67 3.81-4.8 6.35h-0.0111c-3.04 6.75-2.54 15.7 3.54 20z" fill="#fcfcaf"/>
   <path d="m145 103c19.4-6.46 29.5 5.37 30.7 6.91 0.0148-0.115 0.0148-0.235 0.0185-0.354 0.0926-5.19-2.8-9.97-7.35-12.6-5.33-3.07-13.4-4.31-18.5-0.307-2.03 1.58-3.67 3.81-4.81 6.35z" fill="#e8e534"/>
   <path d="m148 123c2.57 1.83 5.65 2.88 8.78 3.37 1.57 0.238 3.17 0.307 4.76 0.18 1.59-0.119 3.19-0.433 4.68-1.05 1.5-0.61 2.84-1.58 3.96-2.72 1.14-1.13 2.1-2.42 2.9-3.8 1.59-2.76 2.56-5.86 2.78-9.07l-4e-3 0.0541c0.248-3.83-1.08-7.57-3.6-10.4-1.25-1.43-2.75-2.66-4.44-3.53-1.67-0.891-3.44-1.57-5.27-2.02-3.64-0.881-7.68-0.895-11.2 0.729-1.75 0.794-3.23 2.05-4.41 3.46-1.19 1.41-2.11 3.01-2.82 4.68l0.352-0.198h-8e-3l-0.263-0.0216-0.0926 0.22c-0.719 1.71-1.2 3.52-1.45 5.34-0.241 1.83-0.256 3.67-4e-3 5.49 0.252 1.82 0.811 3.59 1.68 5.21 0.874 1.61 2.11 3.05 3.63 4.11zm0 0c-1.51-1.08-2.73-2.53-3.58-4.14-0.863-1.62-1.34-3.41-1.54-5.2-0.207-1.8-0.115-3.63 0.222-5.41 0.333-1.78 0.893-3.51 1.67-5.13l-0.352 0.198 8e-3 4e-3 0.244 0.0325 0.111-0.235c0.759-1.58 1.73-3.06 2.91-4.34 1.19-1.28 2.59-2.35 4.19-2.98 3.21-1.28 6.89-1.18 10.3-0.271 3.38 0.906 6.6 2.53 8.84 5.08 0.559 0.635 1.06 1.32 1.5 2.04 0.419 0.729 0.807 1.48 1.1 2.27 0.289 0.787 0.533 1.6 0.663 2.43 0.0889 0.415 0.104 0.834 0.159 1.25 8e-3 0.404 0.0445 0.873 0.0222 1.21l-4e-3 0.0541c-0.0556 2.97-0.811 5.97-2.2 8.67-0.696 1.35-1.55 2.62-2.58 3.75-1.03 1.13-2.23 2.11-3.63 2.76-2.82 1.31-6.1 1.58-9.21 1.19-3.13-0.383-6.21-1.45-8.8-3.24z"/>
   <path d="m160 123c-4.24 0.137-8.72-1.93-10.8-5.61-3.37-5.86-0.685-14.1 5.58-16.9 3.36-1.47 7.71-1.39 11 0.357 8.67 4.67 6.38 18.1-2.29 21.5-1.07 0.415-2.22 0.632-3.4 0.668z"/>
  </g>
  <path d="m209 114c1.95 4.76 7.39 7.11 12.2 7.48 0.664 0.043 1.32 0.0312 1.97-0.0469 7.8-0.922 13.4-10.7 11.4-18.3-0.195-0.777-0.484-1.53-0.855-2.25-3.28-6.3-13.1-9.66-19.5-6.19-1.53 0.852-2.63 2.36-3.46 3.86-0.57 1.02-1.08 2.19-1.5 3.42-1.34 3.88-1.79 8.45-0.332 12z" fill="#fcfcaf"/>
  <path d="m210 102c9.05-4.2 19.8-1.03 25.3 1.16-0.195-0.777-0.484-1.53-0.855-2.25-3.28-6.3-13.1-9.66-19.5-6.19-1.53 0.852-2.63 2.36-3.46 3.86-0.566 1.02-1.08 2.19-1.5 3.42z" fill="#e8e534"/>
  <path d="m209 114c0.691 1.68 1.85 3.15 3.29 4.27 1.43 1.12 3.07 1.98 4.8 2.54 0.867 0.289 1.75 0.527 2.65 0.688 0.898 0.172 1.82 0.293 2.75 0.27 1.86-0.0859 3.71-0.602 5.35-1.54 3.29-1.86 5.7-5.04 7.02-8.57 0.641-1.78 1.03-3.68 1.01-5.61l-0.105-1.45c-0.0664-0.48-0.176-0.953-0.266-1.43-0.195-0.949-0.551-1.89-1.01-2.76-1.91-3.48-5.29-5.79-8.88-6.92-3.59-1.11-7.66-1.14-11.1 0.605-1.77 0.828-2.96 2.46-3.82 4.06-0.875 1.62-1.48 3.36-1.94 5.12-0.461 1.76-0.727 3.58-0.734 5.4-0.0117 1.81 0.238 3.65 0.934 5.33zm0 0c-1.33-3.41-0.988-7.23 0.0469-10.7 0.531-1.72 1.26-3.39 2.2-4.91 0.938-1.5 2.11-2.9 3.72-3.52 3.2-1.41 6.93-1.12 10.1 0.0625 1.63 0.582 3.16 1.43 4.51 2.48 1.35 1.05 2.5 2.34 3.27 3.8 0.398 0.73 0.703 1.5 0.883 2.32 0.0781 0.414 0.18 0.824 0.246 1.24l0.109 1.26c0.0469 1.7-0.211 3.42-0.742 5.07-1.04 3.28-3.07 6.39-6.02 8.3-1.46 0.965-3.15 1.55-4.9 1.75-0.879 0.082-1.77 0.0195-2.66-0.0937-0.891-0.105-1.78-0.273-2.64-0.535-1.73-0.496-3.39-1.26-4.84-2.36-1.44-1.09-2.61-2.54-3.32-4.21z"/>
  <path d="m227 116c-0.332 0.23-3.55 3.53-9.77 0.996-6.22-2.53-4.79-10.7-3.58-13.3 1.21-2.61 5.05-7.86 12.2-5.23 7.12 2.64 6.9 13.6 1.17 17.5z"/>
  <path d="m140 51.1s2.08 0.0938 2.69-0.324c0.617-0.414-2.56-0.848-2.56-0.848 1.66-0.504 3.18-2.22 2.64-2.31-0.551-0.105-2.56 1.07-2.56 1.07 2.25-2.61 1.36-7.02-0.816-6.99-0.93 0.0156-2.15 1.94-3.24 4.12 0.605 7.74-4.57 12.8-5.48 13.4 3.73-2.7 8.09-4.39 11.6-5.41-0.355-1.59-2.27-2.71-2.27-2.71z" fill="#fff"/>
  <path d="m219 56.9c-0.102-1.75-1.63-4.33-1.77-4.55 0.129 0.0664 1.53 0.863 2.25 0.555 0.762-0.324-1.58-1.57-1.58-1.57s1.87 0.363 2.08-0.184c0.223-0.535-1.71-0.605-1.71-0.605 1.45-0.664 4.31-4.06 2.74-5.22-1.03-0.754-2.62 0.242-3.61 1.04-1.61 3.39-3.71 6.04-8.56 7.15 0-0.0039 5.6 1.8 10.2 3.39z" fill="#fff"/>
 </g>
 <g>
  <path d="m193 116s2.69-1.54 4.14-0.957c1.46 0.59-2.58 5.96-4.18 6.51-1.6 0.543-5.32-4.91-4.49-6.01 0.836-1.1 4.52 0.46 4.52 0.46z"/>
  <path d="m176 92c0 0.273-0.0312 0.57-0.223 0.762-0.141 0.141-0.34 0.199-0.531 0.234-1.43 0.277-2.87-0.293-4.2-0.883-0.703-0.312-1.41-0.637-2-1.13-0.594-0.488-1.07-1.17-1.15-1.93-0.277-2.58 2.93-4.43 5.11-3.25 1.89 1.02 3.02 4.22 3 6.19z"/>
  <path d="m209 93.5c-0.254 0.0898-0.547 0.16-0.789 0.043-0.18-0.082-0.301-0.25-0.398-0.422-0.738-1.25-0.68-2.8-0.57-4.25 0.0586-0.77 0.129-1.54 0.391-2.27 0.266-0.723 0.746-1.4 1.44-1.73 2.34-1.12 5.15 1.29 4.76 3.73-0.332 2.12-2.97 4.25-4.84 4.89z"/>
 </g>
 <g>
  <path d="m252 298c7.32 17.4 26.5 16 26.5 16s-2.02 5.55 5.3 8.84c3.58 1.6 7.28 1.64 11.6-0.527 4.5-2.26 9.64-6.94 16-14.8 12.4-15.3 18.3-31.1 27.4-31.8 4.37-0.363 9.03-4.16 10.5-8.45 1.63-4.64-0.418-9.83-10.5-11.8-19.4-3.86-40.8 32-40.8 32 14.7-36.1-4.53-64.8-4.53-64.8-38.4 10.3-48.8 58-41.4 75.3z" fill="#4fa7ed"/>
  <path d="m299 287c-1.57 1.46-2.75 3.05-3.93 4.63-1.16 1.62-2.24 3.16-3.39 4.97 2.09-0.652 3.67-2.22 4.9-3.87 1.19-1.7 2.14-3.59 2.42-5.73z" fill-opacity=".478"/>
  <path d="m295 322c4.5-2.26 9.64-6.94 16-14.8 12.4-15.3 17.8-30.9 26.9-31.7 4.37-0.363 8.57-2.89 10.1-7.17-1.86-1.74-5.79-4.56-12.5-4.67-11.1-0.164-19.6 20.2-28.9 31.8-11.8 9.08-23.8 22.1-11.5 26.5z" fill="#ae312f" fill-opacity=".2"/>
 </g>
 <g fill="#c9c9c9">
  <path d="m335 268c0.284-0.0247 0.587 0.0618 0.739 0.279 0.141 0.198 0.133 0.468 0.0793 0.713-0.0611 0.28-0.182 0.553-0.371 0.782-0.559 0.684-2.43 1.69-2.74 0.436-0.278-1.14 1.25-2.12 2.29-2.21z" stroke-width=".655"/>
  <path d="m342 267c0.438 1.28-0.858 2.36-1.96 2.86-0.563 0.255-1.28 0.359-1.89 0.228-0.327-0.0714-0.639-0.249-0.79-0.535-0.242-0.462 0.0121-1.03 0.339-1.45 0.686-0.894 3.62-3.07 4.3-1.1z" stroke-width=".772"/>
  <path d="m346 269c0.464 1.37-0.904 2.52-2.07 3.06-0.594 0.273-1.36 0.385-2 0.246-0.345-0.076-0.676-0.266-0.836-0.571-0.256-0.494 0.0117-1.1 0.357-1.55 0.724-0.957 3.83-3.28 4.54-1.18z" stroke-width=".821"/>
 </g>
 <g>
  <path d="m287 263c-3.33 12.4-11.1 23.1-21.5 30.6-10.4 7.45-22 13.6-33.7 17.2-10.5 3.27-23.8 4.74-33.9-0.504-9.82-5.09-16.1-17.3-19.4-27.3-6.29-19-13.5-42.6-11.9-62.5 1.25-15.3 7.03-31.2 16.3-43.5 6.25-8.23 14.4-15.6 25.1-17.5 1.09-2.84 0.707-5.75 4.51-5.64 2.6 0.0742 1.68 5.28 1.68 5.28s1.9-5.27 4.7-5.43c2.8-0.164 0.461 5.67 0.457 5.68 1.14-2.85 22.8 2.57 24.8 3.19 18.7 5.81 29.3 22.6 36.1 39.9 7.58 19.4 12.2 39.7 6.76 60.3-0.0156 0.0703-0.0352 0.137-0.0547 0.203z" fill="#55c0e7"/>
  <path d="m149 144c-1.64-0.371-3.27-0.774-4.86-1.32-1.59-0.53-3.18-1.12-4.63-2.02l-1.5-0.923 1.01 1.72c0.232 0.398 0.463 0.944 0.467 1.28-8e-3 0.18-0.0126 0.143-0.0716 0.201-0.0421 0.053-0.316 0.122-0.375 0.111-0.168 0-0.535-0.361-0.796-0.748-0.278-0.403-0.531-0.864-0.771-1.34-0.476-0.954-0.901-1.98-1.28-3.02-0.375-1.04-0.741-2.14-0.981-3.17l-0.526-2.28-0.552 2.26c-0.223 0.907-0.518 1.85-0.884 2.66-0.362 0.811-0.88 1.53-1.28 1.4-0.476-0.0583-1.02-0.827-1.39-1.63-0.375-0.817-0.691-1.75-0.935-2.66l-0.114-0.429-0.337 0.0265c-0.884 0.0742-1.86-0.053-2.78-0.281-0.931-0.233-1.85-0.578-2.73-1.03-0.884-0.461-1.76-0.965-2.58-1.62-0.83-0.631-1.6-1.37-2.36-2.14 0.678 0.88 1.39 1.73 2.19 2.45 0.779 0.758 1.64 1.38 2.52 1.95 0.897 0.536 1.84 0.96 2.8 1.27 0.977 0.302 1.95 0.509 3.01 0.498l-0.451-0.403c0.215 1.04 0.501 2.02 0.918 2.98 0.206 0.472 0.446 0.944 0.766 1.37 0.316 0.424 0.745 0.848 1.32 0.97 0.278 0.0583 0.594 0.0265 0.872-0.117 0.274-0.138 0.488-0.339 0.67-0.546 0.362-0.424 0.615-0.896 0.838-1.37 0.438-0.954 0.754-1.92 1.01-2.95l-1.08-0.0159c0.282 1.23 0.665 2.29 1.07 3.39 0.408 1.08 0.855 2.15 1.39 3.17 0.27 0.509 0.556 1.01 0.905 1.48 0.366 0.44 0.716 1 1.5 1.12 0.223 0 0.341-0.0318 0.493-0.0848 0.147-0.0477 0.307-0.122 0.467-0.26 0.35-0.249 0.535-0.917 0.459-1.32-0.118-0.838-0.43-1.31-0.766-1.83l-0.48 0.795c1.58 0.827 3.22 1.34 4.86 1.72 1.65 0.339 3.31 0.61 4.97 0.689z" fill="#29577c" stroke-width="1.21"/>
  <path d="m6.45 265c0.656 0.345 1.3 0.708 1.87 1.16 0.581 0.441 1.14 0.923 1.53 1.58l0.407 0.681 0.0864-1.15c0.0215-0.266 0.0923-0.624 0.203-0.838 0.0621-0.113 0.0537-0.0889 0.101-0.122 0.0375-0.0303 0.191-0.0549 0.215-0.0446 0.0799 0.0115 0.135 0.263 0.131 0.524-1e-3 0.272-0.034 0.579-0.0779 0.895-0.0898 0.632-0.226 1.3-0.39 1.99-0.166 0.678-0.357 1.4-0.583 2.06l-0.314 0.879 0.821-0.796c0.406-0.554 0.857-1.12 1.3-1.61 0.441-0.485 0.926-0.903 1.07-0.792 0.207 0.0689 0.21 0.589 0.118 1.12-0.0922 0.538-0.251 1.15-0.435 1.73l-0.0881 0.278 0.169 6e-3c0.445 0.0135 0.867 0.16 1.23 0.366 0.365 0.21 0.687 0.489 0.956 0.835 0.268 0.35 0.519 0.726 0.688 1.19 0.186 0.452 0.306 0.971 0.415 1.5-0.0308-0.599-0.0901-1.18-0.232-1.69-0.119-0.529-0.322-0.977-0.55-1.4-0.249-0.397-0.555-0.728-0.909-0.99-0.364-0.256-0.756-0.452-1.26-0.518l0.0806 0.284c0.244-0.671 0.431-1.3 0.55-1.93 0.0581-0.31 0.127-0.674 0.117-0.966-0.01-0.288-0.112-0.534-0.346-0.65-0.113-0.0555-0.261-0.0553-0.441 0.0159-0.176 0.0678-0.344 0.18-0.499 0.297-0.313 0.242-0.589 0.521-0.851 0.802-0.524 0.57-0.994 1.15-1.46 1.79l0.507 0.0827c0.273-0.792 0.442-1.48 0.615-2.2 0.164-0.707 0.305-1.41 0.391-2.09 0.0404-0.338 0.0694-0.671 0.0595-0.991-0.0285-0.301-0.194-0.705-0.527-0.835-0.106-0.0152 0.0118 0.0236-0.0771 0.0463-0.0857 0.0202-0.186 0.0557-0.308 0.131-0.249 0.133-0.558 0.54-0.655 0.798-0.221 0.534-0.231 0.855-0.243 1.2l0.491-0.467c-0.479-0.627-1.08-1.06-1.74-1.41-0.672-0.325-1.37-0.608-2.14-0.771z" fill="#29577c" stroke-width=".685"/>
 </g>
 <g>
  <path d="m165 138c-5 2.23-11 5.76-16.2 10.1-4.66 3.59-12.7 14.8-14.4 20 3.6-7.21 13.5-18.1 16.3-19.8 4.62-4.12 14.9-9.39 14.4-10.3z" stroke-width="1.6"/>
  <path d="m215 132c5.28 1.45 11.7 4.05 17.6 7.52 5.15 2.85 14.7 12.7 17.3 17.6-4.64-6.59-16.1-15.8-19.1-17.1-5.19-3.38-16.2-7.04-15.8-8z" stroke-width="1.6"/>
  <path d="m163 136c-4.03-1.02-16.7 0.141-19.3 0.798-7.2 0.491-23.5 8.06-28.2 12.2 7.61-5.21 25-11 28.5-11.1 7.21-1.65 19-0.779 19-1.97z" stroke-width="1.83"/>
  <path d="m218 129c4.03-1.02 16.7 0.141 19.3 0.798 7.2 0.491 23.5 8.06 28.2 12.2-7.61-5.21-25-11-28.5-11.1-7.21-1.65-19-0.779-19-1.97z" stroke-width="1.83"/>
  <path d="m162 137c-7.81 1.39-16.5 2.84-24.2 5.89-10.2 4.77-21.7 15.6-24.6 21.6 7.64-9.04 16.4-16.2 25.7-20.4 7.29-3.11 23.2-5.56 23.2-7.11z" stroke-width="1.95"/>
  <path d="m221 131c7.81 1.39 16.5 2.84 24.2 5.89 9.81 4.4 21.6 15.5 24.6 21.6-7.64-9.04-16.4-16.2-25.7-20.4-7.29-3.11-23.2-5.56-23.2-7.11z" stroke-width="1.95"/>
 </g>
 <g>
  <path d="m236 136c-1.39 1.13-2.79 2.26-4.23 3.31-0.711 0.535-1.44 1.05-2.18 1.53-0.738 0.473-1.52 0.93-2.28 1.16l-0.211 0.0664-0.0781 0.23c-0.234 0.711-0.52 1.45-0.887 2.09-0.34 0.633-0.902 1.25-1.29 1.18-0.18-0.0273-0.25-0.0625-0.328-0.367-0.0586-0.285-0.0391-0.648 8e-3 -1.01 0.102-0.723 0.328-1.48 0.574-2.18l0.707-2.02-1.55 1.46c-0.602 0.566-1.25 1.11-1.93 1.6-0.668 0.484-1.38 0.941-2.1 1.21-0.355 0.137-0.727 0.207-0.988 0.141-0.301-0.0781-0.504-0.219-0.512-0.445-0.0547-0.559 0.457-1.38 0.945-1.96l0.719-0.863-1.07 0.254c-1.37 0.332-2.79 0.555-4.21 0.738-1.42 0.18-2.85 0.25-4.29 0.148 1.41 0.309 2.88 0.336 4.32 0.305 1.45-0.0508 2.89-0.227 4.33-0.473l-0.344-0.609c-0.32 0.344-0.594 0.688-0.84 1.09-0.23 0.402-0.469 0.848-0.449 1.46 0.0195 0.297 0.164 0.645 0.402 0.848 0.117 0.113 0.238 0.203 0.363 0.258 0.121 0.0703 0.254 0.125 0.398 0.152 0.574 0.145 1.08 0.0195 1.53-0.125 0.902-0.305 1.66-0.785 2.38-1.3 0.719-0.516 1.39-1.06 2.05-1.67l-0.844-0.559c-0.293 0.789-0.504 1.57-0.621 2.42-0.0469 0.43-0.082 0.867 0.0195 1.36 0.0391 0.129 0.0742 0.254 0.129 0.383 0.0781 0.133 0.145 0.266 0.262 0.379 0.238 0.242 0.562 0.371 0.859 0.383 0.625 0.0391 1.11-0.32 1.43-0.645 0.32-0.34 0.543-0.711 0.746-1.08 0.391-0.754 0.68-1.51 0.891-2.32l-0.289 0.297c0.938-0.352 1.68-0.871 2.43-1.4 0.73-0.535 1.44-1.1 2.12-1.68 1.35-1.19 2.66-2.42 3.89-3.73z" fill="#29577c"/>
  <path d="m151 332c17.6 14.2 42.1-3.38 42.1-3.38 21.7 18.7 40.1 14.2 40.3 1.21 0.0352-1.93-0.355-4.05-1.19-6.32-6.45-17.5-11.2-60.6-13.8-64.7 0-0.0117-0.0117-0.0117-0.0117-0.0234-2.67-4.19-10.9-5.83-15.7 4.65-5.09 11-0.895 30.8-0.633 32-14.4-41.9-36.6-57.3-49.5-56.8-13 0.488-17.7 26.9-17.7 26.9s-1.28 52.3 16.3 66.5z" fill="#4fa7ed"/>
  <path d="m202 296c-0.738 0.82-1.4 1.7-2.03 2.62-0.629 0.914-1.18 1.89-1.57 2.97-0.156 0.555-0.355 1.12-0.234 1.8 0.16 0.703 0.613 1.25 1.29 1.52 0.684 0.223 1.37 0.0859 1.93-0.137 0.57-0.234 1.06-0.535 1.54-0.922l-0.797-0.535c-0.719 2.2-1.38 4.39-1.62 6.75-0.0273 0.602-0.0937 1.19 0.117 1.89 0.16 0.359 0.324 0.766 0.887 0.926 0.582 0.121 0.961-0.227 1.19-0.445 0.867-1 1.21-2.09 1.62-3.2l-0.688-0.0508c0.297 1.2 0.641 2.36 1.1 3.49 0.453 1.13 0.961 2.23 1.59 3.27-0.449-1.12-0.859-2.25-1.17-3.41-0.316-1.15-0.625-2.32-0.816-3.48l-0.199-1.21-0.488 1.16c-0.422 1-0.941 2.08-1.59 2.79-0.168 0.168-0.32 0.203-0.309 0.18 4e-3 0.0195-0.0469-0.0469-0.0937-0.0859l-0.0977-0.219c-0.113-0.406-0.0742-0.98-0.0391-1.5 0.109-1.09 0.363-2.19 0.629-3.28 0.27-1.09 0.582-2.18 0.926-3.25l0.539-1.68-1.34 1.14c-0.727 0.621-1.77 1.2-2.53 0.973-0.359-0.0937-0.719-0.477-0.812-0.836-0.117-0.414-4e-3 -0.949 0.109-1.45 0.289-1.01 0.781-1.99 1.28-2.96 0.516-0.965 1.09-1.9 1.69-2.82z" fill="#2a587d"/>
  <path d="m193 329c-1.26-1.95-2.63-3.76-3.96-5.6l-1.98-2.77-1.93-2.84c0.535 2.28 1.73 4.34 3.07 6.21 0.691 0.93 1.42 1.83 2.22 2.66 0.793 0.84 1.64 1.64 2.58 2.32z" fill="#29577c"/>
  <path d="m159 206c-10.1-3.36 27.9 6.08 41.8 19.1 13.9 13.1 8.51 22.6 3.02 23.1 0 0-2.49 4.35-8.25 3.61 0 0-4.78 5.8-12.4 5.21-7.58-0.59-16.2-9.02-16.2-9.02l-15.4 2.79s-14.6 4.2-28.4-1.85c-20.9-9.18-26.3-26.7-24-39.4 2.28-12.7 8.76-17.1 15.8-17.5 9.92-0.488 11.5 3.07 22.7 7.38 13.5 5.23 21.2 7.02 21.3 6.55z" fill="#4fa7ed"/>
 </g>
 <g fill-opacity=".478">
  <path d="m196 252c0.148-1.6-0.0781-3.25-0.609-4.8-0.52-1.55-1.34-3.02-2.44-4.27-1.11-1.22-2.38-2.32-3.86-3.03-0.699-0.434-1.5-0.645-2.25-0.945-0.777-0.219-1.57-0.383-2.36-0.527 0.723 0.371 1.47 0.629 2.17 1 0.68 0.402 1.41 0.703 2.03 1.17l0.965 0.645 0.891 0.738c0.312 0.227 0.574 0.508 0.848 0.781 0.266 0.273 0.559 0.527 0.785 0.84 1.02 1.14 1.82 2.47 2.46 3.89 0.629 1.41 1.11 2.92 1.37 4.5z"/>
  <path d="m204 249c0.727-2.7 0.613-5.61-0.184-8.33-0.41-1.36-1.07-2.65-1.91-3.8-0.824-1.17-1.97-2.06-3.16-2.76 0.949 1.03 1.83 2.05 2.49 3.21 0.652 1.16 1.22 2.37 1.59 3.65 0.395 1.27 0.656 2.59 0.848 3.93 0.172 1.34 0.305 2.7 0.332 4.09z"/>
  <path d="m103 228c1.99 5.75 2.7 6.51 4.61 9.45 0.999 1.54 2.23 2.93 3.53 4.23 1.16 1.16 2.43 2.2 3.77 3.14 1.92 1.34 3.91 2.61 6.06 3.55 3.59 1.58 7.04 2.57 11.2 3.49 1.97 0.254 3.95 0.455 5.92 0.587 1.98 0.043 3.83-0.0158 5.81-0.0705 7.82-0.188 15.7-1.44 23.3-3.46 1.82 1.98 3.84 3.7 6.04 5.22 2.3 1.52 4.81 2.83 7.57 3.41 2.76 0.605 5.62 0.453 8.33-0.328 2.6-0.816 5.02-2.27 6.71-4.53 0.75-0.0195 1.5-0.0547 2.26-0.145 0.551-0.0742 1.1-0.164 1.65-0.305 0.289-0.0664 0.562-0.145 0.84-0.242 0.801-0.254 1.59-0.629 2.31-1.16 0.352-0.266 0.684-0.562 0.969-0.914 0.242-0.285 0.441-0.574 0.617-0.949 1.96-0.559 3.58-2 4.48-3.77 0.957-1.85 1.16-3.99 0.902-5.99-0.625-4.04-2.75-7.6-5.28-10.6-2.55-3.04-5.57-5.61-8.68-8.04-3.18-2.35-6.62-4.33-10.2-6-0.836-0.395-1.69-0.781-2.54-1.14-6.36-2.75-13-4.77-19.8-6.35-6.98-1.8-13.9-3.36-22.5-5.93 7.6 2.8 14.8 4.41 22.4 6.33 6.42 1.66 12.8 3.6 18.8 6.23 1.1 0.473 2.18 0.977 3.26 1.5 3.51 1.7 6.89 3.68 9.98 6.02 3.05 2.41 6 4.99 8.49 7.96 2.46 2.95 4.47 6.41 5.04 10.2 0.223 1.86 0.0352 3.8-0.824 5.43-0.828 1.63-2.33 2.91-4.11 3.34l-0.242 0.0664-0.109 0.273c-0.211 0.562-0.75 1.19-1.34 1.61-0.605 0.449-1.3 0.781-2.05 1.01-0.43 0.152-0.883 0.266-1.34 0.34-0.309 0.0664-0.629 0.109-0.945 0.156-0.781 0.0859-1.57 0.121-2.38 0.133h-0.254l-0.176 0.23c-1.47 2.06-3.85 3.55-6.34 4.3-2.52 0.727-5.26 0.859-7.82 0.32-2.59-0.543-5-1.79-7.24-3.25-2.2-1.5-4.28-3.27-6.05-5.24l-0.207-0.23-0.309 0.0781c-7.54 2.06-15.2 3.28-23.1 3.48-3.93 0.0664-8.04-0.237-12-0.667-4.04-0.92-7.31-1.97-10.7-3.53-2.02-0.915-3.95-2.06-5.74-3.38-2.41-1.78-4.71-3.75-6.63-6.04-2.47-2.95-5.19-7.65-6.15-9.76z"/>
  <path d="m138 299c-0.508-1.9-0.802-3.83-1.13-5.76-0.333-1.94-0.638-3.89-0.857-5.85-0.352-3.16-0.581-6.33-0.731-9.5-0.132-2.8-0.199-6.47-0.148-8.41 0.0508-1.94 0.25-3.88 0.523-5.79 0.289-1.92 0.777-3.8 1.48-5.61 0.672-1.82 1.61-3.54 2.81-5.1-1.38 1.41-2.44 3.11-3.29 4.9-0.809 1.81-1.4 3.72-1.79 5.67-0.777 3.9-0.867 7.92-0.815 11.9 0.0545 4.11 0.48 8.22 1.17 12.3 0.649 3.82 1.36 7.63 2.78 11.3z"/>
  <path d="m166 177c-0.496 1.47-1.21 2.91-2.31 3.96-0.527 0.5-1.25 0.938-1.85 1.05-0.566 0.0195-1.06-0.664-1.39-1.3-0.68-1.33-1.07-2.85-1.44-4.34-0.352-1.5-0.641-3.04-0.875-4.55l-0.746-4.85-0.266 4.91c-0.0547 1.04-0.203 2.1-0.418 3.12-0.219 1.01-0.531 2.04-1.09 2.79-0.273 0.359-0.645 0.625-0.973 0.656-0.301 0.0352-0.648-0.195-0.934-0.578-0.559-0.766-0.914-1.81-1.17-2.79l-0.781 0.117c0.16 1.59 0.0586 3.29-0.473 4.83-0.258 0.77-0.656 1.5-1.22 2.09-0.566 0.59-1.3 1.02-2.11 1.28 0.832-0.145 1.64-0.504 2.29-1.08 0.648-0.574 1.15-1.31 1.5-2.11 0.352-0.797 0.551-1.65 0.676-2.5 0.121-0.859 0.168-1.71 0.117-2.6l-0.781 0.117c0.219 1.11 0.512 2.18 1.2 3.2 0.332 0.477 0.926 1.04 1.74 0.996 0.773-0.0586 1.32-0.527 1.7-1.01 0.75-0.992 1.05-2.1 1.32-3.18 0.242-1.09 0.363-2.18 0.422-3.3l-1.01 0.0547c0.246 1.57 0.57 3.11 0.984 4.64 0.414 1.52 0.902 3.05 1.72 4.46 0.215 0.352 0.453 0.695 0.773 1 0.305 0.297 0.762 0.578 1.28 0.527 0.93-0.223 1.54-0.738 2.11-1.34 1.07-1.22 1.69-2.73 2-4.26z"/>
 </g>
 <path d="m209 302c8.03 23.3 13 34.8 24.5 28.1 0.0352-1.93-0.355-4.05-1.19-6.32-6.46-17.5-11.2-60.6-13.8-64.7 0-0.0117-0.0117-8e-3 -0.0117-0.0195-2.11-0.773-4.95-1.13-7.69 0.723-5.32 3.59-9.94 18.5-1.75 42.3z" fill="#ae312f" fill-opacity=".2"/>
 <g fill="#c9c9c9">
  <path d="m214 261c0.33 0.212 0.64 0.531 0.78 1.01 0.123 0.408 0.115 0.893 0.102 1.36-0.0169 0.762-0.0668 1.63-0.479 2.19-0.983 1.31-3.01-0.107-3.29-1.58-0.463-2.4 1.63-3.78 2.89-2.98z" stroke-width=".864"/>
  <path d="m217 262c-0.302 0.158-0.594 0.418-0.747 0.847-0.134 0.364-0.156 0.815-0.175 1.25-0.0326 0.709-0.0433 1.52 0.284 2.08 0.78 1.33 2.64 0.251 2.98-1.08 0.555-2.17-1.2-3.7-2.34-3.1z" stroke-width=".782"/>
  <path d="m220 273c0.353 0.963 0.582 2.03 0.345 3.07-0.372 1.65-1.91 2.93-3.49 3.18-1.58 0.251-3.14-0.413-4.25-1.52-0.748-0.747-1.34-1.75-1.32-2.87 0.0226-1.74 1.77-4.39 3.37-5.03 2.54-1.03 4.52 0.978 5.34 3.17z" stroke-width="1.41"/>
  <path d="m332 275c-0.278-0.445-0.444-0.962-0.2-1.54 0.383-0.919 1.78-1.84 3.18-2.22 1.4-0.387 2.75-0.294 3.69 0.103 1.57 0.364 1.3 1.66 1.25 2.25-0.0784 0.911-1.89 1.61-3.32 2.2-2.27 0.947-3.95 0.224-4.59-0.787z" stroke-width=".948"/>
  <path d="m219 267c-0.16 0.102-0.275 0.262-0.36 0.426-0.659 1.29 0.941 3.61 2.23 2.08 0.908-1.08-0.465-3.4-1.87-2.51z" stroke-width=".783"/>
  <path d="m210 267c-0.25 0.0334-0.478 0.158-0.672 0.306-1.52 1.17-0.88 4.77 1.52 3.67 1.7-0.772 1.34-4.26-0.853-3.98z" stroke-width="1.03"/>
 </g>
 <g>
  <path d="m266 254 0.609 0.673c0.486-1.73 0.89-3.47 1.21-5.24 0.157-0.886 0.28-1.79 0.34-2.7 0.0487-0.916 0.0748-1.85-0.146-2.81-0.116-0.464-0.329-1.01-0.8-1.3-0.221-0.145-0.49-0.2-0.707-0.179-0.224 6e-3 -0.449 0.01-0.658 0.102-0.864 0.29-1.47 1.02-1.93 1.76-0.916 1.52-1.48 3.22-1.87 4.95 0.561-1.66 1.22-3.31 2.19-4.66 0.486-0.656 1.07-1.25 1.74-1.43 0.164-0.0723 0.336-0.0512 0.501-0.0512 0.176-0.01 0.307 0.0381 0.419 0.119 0.232 0.149 0.378 0.498 0.456 0.882 0.265 1.61-0.101 3.41-0.389 5.12-0.333 1.72-0.763 3.43-1.26 5.1l-0.307 1.04 0.916-0.362c1.05-0.422 2.16-0.767 3.25-0.971 0.546-0.098 1.09-0.17 1.6-0.136 0.505-6e-3 0.998 0.256 1.08 0.452 0.105 0.132-0.191 0.758-0.546 1.17-0.363 0.447-0.789 0.86-1.23 1.25-0.89 0.784-1.85 1.49-2.82 2.15l-1.29 0.882h1.49c0.991 0 2.03 0.098 2.99 0.366 0.938 0.256 1.98 0.754 2.16 1.73 0.0897 0.481-0.0107 1.04-0.355 1.37-0.34 0.354-0.841 0.52-1.33 0.613-1 0.17-2.05 0.0893-3.07-0.0852 1 0.311 2.04 0.503 3.11 0.413 0.527-0.0554 1.08-0.17 1.56-0.579 0.49-0.409 0.714-1.15 0.606-1.83-0.086-0.703-0.531-1.26-0.994-1.61-0.471-0.371-0.987-0.579-1.5-0.762-1.04-0.345-2.09-0.503-3.17-0.562l0.202 0.877c1.03-0.647 2.01-1.36 2.96-2.16 0.475-0.405 0.935-0.835 1.36-1.34 0.213-0.26 0.415-0.537 0.591-0.882 0.161-0.332 0.351-0.822 0.164-1.39-0.0897-0.281-0.258-0.469-0.407-0.601-0.157-0.166-0.325-0.247-0.493-0.328-0.34-0.158-0.673-0.217-0.991-0.243-0.636-0.0428-1.24 0.0131-1.83 0.132" fill="#29577c" stroke-width="1.02"/>
  <path d="m203 256 114-38.1-31.7-32.7-102 28.4-1.02 0.273c1.1 0.473 2.18 0.98 3.26 1.5 3.51 1.7 6.89 3.68 9.98 6.02 3.05 2.41 6 4.99 8.49 7.96 2.46 2.95 4.47 6.41 5.04 10.2 0.223 1.86 0.0352 3.8-0.824 5.43-0.824 1.63-2.33 2.91-4.11 3.34l-0.242 0.0664-0.109 0.277c-0.211 0.562-0.75 1.19-1.34 1.61l0.988 5.73" fill="#5d5d5d"/>
  <path d="m203 256 19.4-64.7 117-30.2-22.7 56.9z" fill="#757575"/>
  <path d="m283 201c0.348 0.863 1.33 1.28 2.2 0.934s1.28-1.33 0.93-2.2c-0.348-0.863-1.33-1.28-2.19-0.934-0.863 0.348-1.28 1.33-0.934 2.2z" fill="#757575"/>
  <path d="m340 161-3.29-2.04-116 31.5-20.4 62.4 3.05 3.05 20.5-62.7z" fill="#3b3b3b"/>
 </g>
 <g fill="#fff">
  <path d="m217 223c-0.0611 0.338 9.28-28.5 9.28-28.5s39.6-11.3 39.1-11.2c-0.524 0.0583-39.9 11.6-48.4 39.7z" fill-opacity=".447" stroke-width="1.37"/>
  <path d="m44.5 148-6.34-3.84-0.336-7.39-5.72 4.84-7.21-1.88 2.81 6.83-4.12 6.23 7.45-0.617 4.66 5.73 1.8-7.21z"/>
  <path d="m51.2 169-3.1 0.285-1.96-2.41-0.727 3.06-2.9 1.16 2.65 1.61 0.164 3.13 2.36-2.07 3 0.773-1.19-2.88z"/>
 </g>
 <g fill="#323039">
  <path d="m202 147-27.6 11.6" stroke-width=".75"/>
  <path d="m193 126c1.7 3.34 4.21 7.46 8.52 7.6 2.23 0.0746 4.35-5.28 2.67-0.948-1.64 4.22-6.5 4.04-8.81-0.109-1.03-1.86-1.76-3.89-2.16-5.97" stroke-width=".676"/>
  <path d="m193 126c0.633 3.72-1.9 7.58-5.66 8.53-2.18 0.553-4.24-0.12-6.48-0.752-0.892-0.252-2.83-2-2.67-1.7 1.29 2.39 3.73 3.95 6.24 4.63 2.1 0.568 4.56 0.425 6.35-0.696 2.28-1.43 4.22-4.03 3.73-6.81-0.185-1.06-0.93-1.89-1.3-2.85" stroke-width=".751"/>
 </g>
 <g transform="matrix(-.34 0 0 .27 136 6.51)" clip-path="url(#59bd95c926)">
  <path d="m149 230c-1.83-5.18-6.74-8.89-12.5-8.89-6.23 0-11.4 4.29-12.9 10.1-5.88 0.773-10.4 5.8-10.4 11.9 0 6.64 5.38 12 12 12 0.0781 0 0.152-0.0117 0.23-0.0117 1.8 4.37 6.08 7.44 11.1 7.44 6.41 0 11.6-5.05 12-11.4 5.55-0.352 9.95-4.96 9.95-10.6 0-5.46-4.1-9.95-9.38-10.6z" fill="#2676ff"/>
 </g>
 <g transform="matrix(-.34 0 0 .27 136 6.51)" clip-path="url(#fd584c06fe)">
  <path d="m158 230c-1.83-5.18-6.74-8.89-12.5-8.89-6.23 0-11.4 4.29-12.9 10.1-5.88 0.773-10.4 5.8-10.4 11.9 0 6.64 5.38 12 12 12 0.0781 0 0.152-0.0117 0.227-0.0117 1.8 4.37 6.09 7.44 11.1 7.44 6.41 0 11.6-5.05 12-11.4 5.55-0.352 9.95-4.96 9.95-10.6-4e-3 -5.46-4.1-9.95-9.38-10.6z" fill="#a7dcfa"/>
 </g>
 <g transform="matrix(-.34 0 0 .27 136 6.51)" clip-path="url(#51efb2c1d7)">
  <path d="m253 184c-0.488-8.65-4.92-16.2-11.6-21.3 1.63-3.95 2.54-8.27 2.54-12.8 0-18.5-14.9-33.4-33.3-33.4-8.16 0-15.6 2.94-21.4 7.82-6.59-6.7-15.8-10.8-25.9-10.8-20.1 0-36.4 16.3-36.4 36.5 0 2.96 0.359 5.84 1.03 8.6-9.24 5.83-15.1 15.8-14.4 26.7 0.941 16.7 16.5 29.3 34.7 28.3 1.49-0.0859 2.95-0.27 4.38-0.523 5.7 12.7 18.4 21.5 33.2 21.5 13.5 0 25.3-7.39 31.6-18.4 1.43 0.0859 2.88 0.102 4.34 0.0195 18.2-1.04 32.3-15.4 31.3-32z" fill="#2676ff"/>
 </g>
 <g transform="matrix(-.34 0 0 .27 136 6.51)" clip-path="url(#833252e42f)">
  <path d="m262 184c-0.488-8.65-4.92-16.2-11.6-21.3 1.63-3.95 2.54-8.27 2.54-12.8 0-18.5-14.9-33.4-33.3-33.4-8.16 0-15.6 2.94-21.4 7.82-6.59-6.7-15.8-10.8-25.9-10.8-20.1 0-36.4 16.3-36.4 36.5 0 2.96 0.359 5.84 1.03 8.6-9.24 5.83-15.1 15.8-14.4 26.7 0.941 16.7 16.5 29.3 34.7 28.3 1.49-0.0859 2.95-0.27 4.38-0.523 5.7 12.7 18.4 21.5 33.2 21.5 13.5 0 25.3-7.39 31.6-18.4 1.43 0.0859 2.87 0.102 4.34 0.0195 18.2-1.04 32.3-15.4 31.3-32z" fill="#a7dcfa"/>
 </g>
 <g fill="#2676ff" stroke-width=".303">
  <path d="m79.5 51.1c-0.17 0.0496-0.33 0.114-0.483 0.194-0.151 0.0803-0.291 0.175-0.419 0.284-0.127 0.11-0.241 0.231-0.341 0.364-0.0995 0.134-0.182 0.277-0.248 0.43-0.0677 0.153-0.117 0.312-0.147 0.479-0.0318 0.166-0.0451 0.336-0.0411 0.51 6e-3 0.173 0.0278 0.346 0.0691 0.52 0.0411 0.173 0.0995 0.344 0.175 0.512 0.0757 0.167 0.167 0.328 0.273 0.483 0.108 0.154 0.228 0.3 0.364 0.436 0.135 0.136 0.281 0.261 0.438 0.373 0.158 0.112 0.322 0.21 0.496 0.294 0.174 0.0834 0.352 0.152 0.535 0.205 0.183 0.0517 0.368 0.0876 0.553 0.107 0.187 0.019 0.37 0.0212 0.552 0.0063 0.18-0.0148 0.357-0.0475 0.527-0.096 0.17-0.0485 0.33-0.113 0.482-0.193 0.153-0.0803 0.292-0.175 0.421-0.285 0.127-0.109 0.241-0.23 0.34-0.363 0.0995-0.134 0.183-0.278 0.249-0.43 0.0663-0.153 0.116-0.313 0.147-0.479 0.0318-0.167 0.0451-0.337 0.0398-0.51-4e-3 -0.173-0.0279-0.347-0.0677-0.52-0.0411-0.174-0.0995-0.344-0.175-0.512-0.0757-0.168-0.167-0.328-0.275-0.483-0.108-0.155-0.228-0.3-0.362-0.436-0.135-0.136-0.281-0.261-0.439-0.373-0.157-0.112-0.322-0.21-0.495-0.294-0.174-0.0834-0.353-0.152-0.536-0.205-0.183-0.0528-0.368-0.0886-0.553-0.108-0.186-0.019-0.369-0.0212-0.551-0.0053-0.182 0.0148-0.357 0.0464-0.527 0.095z"/>
  <path d="m69.4 51.1c-0.17 0.0485-0.33 0.114-0.483 0.194-0.151 0.0803-0.292 0.175-0.419 0.284-0.129 0.11-0.242 0.231-0.341 0.364-0.0995 0.134-0.182 0.277-0.249 0.43-0.0663 0.153-0.115 0.312-0.147 0.479-0.0305 0.166-0.0438 0.336-0.0398 0.509 6e-3 0.174 0.0279 0.347 0.0689 0.521 0.0411 0.173 0.0995 0.344 0.175 0.512 0.0757 0.167 0.166 0.328 0.273 0.483 0.108 0.154 0.228 0.3 0.364 0.436 0.134 0.136 0.281 0.26 0.438 0.373 0.157 0.112 0.322 0.21 0.496 0.294 0.174 0.0834 0.352 0.152 0.535 0.205 0.183 0.0517 0.368 0.0876 0.553 0.107 0.186 0.019 0.37 0.0212 0.551 0.0063 0.182-0.0148 0.357-0.0475 0.527-0.096 0.17-0.0485 0.332-0.113 0.483-0.193 0.151-0.0813 0.292-0.175 0.419-0.285 0.129-0.109 0.242-0.23 0.341-0.364 0.0995-0.133 0.183-0.277 0.249-0.43 0.0663-0.152 0.115-0.312 0.147-0.478 0.0318-0.167 0.0451-0.337 0.0398-0.51-6e-3 -0.173-0.0279-0.347-0.0689-0.52-0.0411-0.174-0.0982-0.345-0.174-0.512-0.0757-0.168-0.167-0.329-0.275-0.483-0.108-0.155-0.228-0.301-0.364-0.436-0.134-0.136-0.28-0.261-0.438-0.373-0.157-0.113-0.322-0.21-0.496-0.294-0.172-0.0845-0.352-0.152-0.535-0.205-0.183-0.0528-0.368-0.0886-0.553-0.108-0.186-0.019-0.369-0.0212-0.551-0.0053-0.182 0.0148-0.357 0.0464-0.527 0.095z"/>
  <path d="m59.3 51.4c-0.17 0.0485-0.33 0.113-0.483 0.194-0.151 0.0803-0.292 0.175-0.419 0.284-0.129 0.109-0.242 0.23-0.341 0.364-0.0995 0.133-0.182 0.277-0.249 0.43-0.0663 0.153-0.115 0.312-0.147 0.479-0.0318 0.166-0.0451 0.336-0.0398 0.509 6e-3 0.174 0.0279 0.347 0.0689 0.521 0.0411 0.173 0.0995 0.344 0.175 0.512 0.0743 0.167 0.166 0.328 0.273 0.482 0.108 0.155 0.228 0.301 0.364 0.437 0.134 0.136 0.28 0.26 0.438 0.373 0.157 0.112 0.322 0.21 0.496 0.293 0.174 0.0844 0.352 0.153 0.535 0.205 0.183 0.0528 0.368 0.0886 0.553 0.108 0.186 0.019 0.37 0.0212 0.551 0.0063 0.182-0.0159 0.357-0.0475 0.527-0.096 0.17-0.0485 0.33-0.113 0.483-0.194 0.151-0.0803 0.292-0.175 0.419-0.284 0.129-0.109 0.242-0.23 0.341-0.364 0.0995-0.133 0.182-0.277 0.249-0.43 0.0663-0.153 0.115-0.312 0.147-0.478 0.0318-0.167 0.0451-0.337 0.0398-0.51-6e-3 -0.173-0.0279-0.347-0.0689-0.52-0.0411-0.174-0.0995-0.345-0.175-0.512-0.0743-0.168-0.166-0.329-0.273-0.483-0.108-0.155-0.228-0.301-0.364-0.437-0.134-0.136-0.28-0.26-0.438-0.372-0.157-0.113-0.322-0.211-0.496-0.294-0.172-0.0845-0.352-0.152-0.535-0.205-0.183-0.0528-0.368-0.0886-0.553-0.108-0.186-0.019-0.37-0.0212-0.551-0.0063-0.182 0.0159-0.357 0.0475-0.527 0.096z"/>
 </g>
 <g transform="matrix(1.21 0 0 1.2 -73 16)" stroke-width=".177">
  <path d="m392 189c-14.3 4.45-16.1 19-16.8 22.3-0.639 3.28 1.36 14.5 8.3 21.6 6.94 7.11 17.1 8.49 26 5.47 8.96-3.02 15.5-15.2 15.4-21.2-0.0504-6.02 0.22-12.9-5.53-19.8-5.75-6.91-16.2-11.9-27.4-8.37z" fill="#657ff7"/>
  <path d="m387 234c0.337-0.964-1.33-1.13-1.82-0.887-0.896 0.433-1.47 1.39-2.15 2.09-0.893 0.918-2.32 1.65-3.62 1.12-1.3-0.531-1.5-1.92-1.31-3.16 0.0934-0.614 0.362-1.34 0.231-1.97-0.204-0.982-1.13-0.831-1.74-0.392-1.38 0.992-1.02 3.31-1.6 4.78-0.467 1.18-1.66 2.19-2.96 2.09-0.544-0.0411-1.05-0.299-1.41-0.741-0.589-0.726-0.55-1.98-1.58-2.21-2.09-0.478-2.58 2.19-2.43 3.75 0.174 1.75 0.521 3.45-1.12 4.53-0.943 0.621-2.03 1.06-3.03 1.57-1.15 0.579-2.3 1.16-3.44 1.74-0.707 0.357-1.16-0.848-0.462-1.2 1.04-0.526 2.09-1.05 3.13-1.58 1.05-0.532 2.35-0.97 3.27-1.72 0.841-0.678 0.619-1.72 0.487-2.7-0.132-0.975-0.182-1.97 0.0482-2.92 0.374-1.55 1.53-2.77 3.15-2.78 0.634-2e-3 1.28 0.205 1.77 0.645 0.631 0.566 0.781 2.19 1.61 2.34 0.744 0.139 1.49-0.605 1.77-1.22 0.428-0.912 0.413-2.04 0.639-3.01 0.333-1.44 1.21-2.76 2.73-2.98 1.42-0.198 2.42 0.958 2.41 2.37-5e-3 1.18-1.11 4.16 1.17 3.6 1.98-0.482 2.57-3.26 4.72-3.47 1.52-0.151 3.25 1.19 2.66 2.86-0.268 0.767-1.41 0.226-1.14-0.538z" fill="#657ff7"/>
  <g fill="#4458a2">
   <path d="m380 221c0.369-5.33 1.93-13 7.28-19.5 5.35-6.47 11.5-9.16 15.7-10.3 3.03-0.808 5.52-0.937 6.86-0.931-0.654-0.286-1.32-0.546-2.01-0.778-1.36 0.109-3.08 0.354-5.05 0.874-4.32 1.15-10.6 3.91-16.1 10.6-5.49 6.65-7.09 14.6-7.47 20-0.148 2.16-0.125 4.11-0.0353 5.71 0.301 0.579 0.622 1.15 0.964 1.72-0.177-1.82-0.309-4.4-0.102-7.37z"/>
   <path d="m424 206c-0.121-0.458-0.257-0.917-0.41-1.38-1.15-0.808-2.59-1.54-3.74-1.85-0.0738-0.872-0.169-1.74-0.286-2.61 1.34 0.388 2.61 1.17 2.97 1.89 0.0123 0.0246 0.0267 0.0463 0.0419 0.0669-0.332-0.694-0.71-1.39-1.14-2.09-0.631-0.343-1.34-0.612-2.01-0.776-0.134-0.868-0.292-1.72-0.47-2.55-0.357-0.405-0.732-0.801-1.12-1.19 0.301 1.18 0.554 2.43 0.757 3.71-0.0802 0.0647-0.137 0.159-0.151 0.272-0.0245 0.197 0.0871 0.383 0.26 0.459 0.336 2.35 0.504 4.79 0.492 7.1-0.111 0.0727-0.183 0.2-0.182 0.347-2.1e-4 0.143 0.068 0.271 0.173 0.351-0.0246 1.17-0.0984 2.3-0.222 3.36-3e-3 0.0101-6e-3 0.0192-9e-3 0.0285-5e-3 0.03-7e-3 0.061-6e-3 0.0904-0.0712 0.592-0.158 1.16-0.262 1.7-0.305 1.6-0.734 3.22-1.29 4.88-0.093 0.0552-0.164 0.149-0.188 0.267-0.0162 0.0781-0.0102 0.157 0.0137 0.229-1.21 3.44-2.98 7.06-5.42 11.1-1.28 2.12-2.77 4.15-4.9 4.67-0.134 0.0325-0.235 0.131-0.28 0.256-0.745-7e-3 -1.5-0.0557-2.25-0.144 0.902-0.999 1.76-2.01 2.57-3.04 3e-3 -1e-3 5e-3 -1e-3 7e-3 -2e-3 0.0324-0.0134 0.0642-0.0309 0.0929-0.0533 0.084-0.0663 0.134-0.161 0.15-0.262 3.61-4.62 6.31-9.5 8.05-14.6 1.6-4.67 2.26-10.6 1.94-16.2 0.0362-0.0298 0.0678-0.067 0.0923-0.112 0.105-0.193 0.0424-0.438-0.136-0.565-0.126-1.76-0.348-3.49-0.668-5.13-0.329-0.285-0.669-0.562-1.01-0.833 0.115 0.511 0.219 1.03 0.314 1.56-3.14-1.89-7.48-2.43-9.8-2.59 2.55-0.588 5.39-0.684 8.25 0.322 0.0953 0.0337 0.193 0.0275 0.277-6e-3 -0.667-0.477-1.36-0.928-2.08-1.35-5.77-1.1-11.2 1.57-14.1 3.4-5.91 3.75-10.6 9.73-13.3 16.8-1.02 2.72-1.72 5.54-2.09 8.39-0.0619 0.0108-0.122 0.0358-0.174 0.0787-0.177 0.143-0.204 0.41-0.0604 0.597 0.0456 0.0588 0.0902 0.115 0.134 0.173-0.43 4.05-0.193 8.13 0.725 12 0.303 0.31 0.613 0.605 0.928 0.893 0.0616-0.0969 0.0862-0.219 0.0536-0.343-0.17-0.652-0.321-1.31-0.451-1.97 2.79 3.02 6.11 5.57 9.7 7.46 0.588 0.164 1.18 0.307 1.78 0.425 1e-3 -3e-3 2e-3 -4e-3 4e-3 -7e-3 0.0896-0.213-7e-3 -0.466-0.216-0.566-4.28-2.04-8.21-5.04-11.4-8.67-0.0422-0.0482-0.0919-0.0832-0.146-0.108-0.18-1.17-0.297-2.34-0.358-3.51 3.45 3.87 7.09 6.89 10.8 9.01 3.98 2.25 8.16 3.51 12.2 3.69 0.779-0.17 1.55-0.37 2.32-0.606-0.0741-0.149-0.227-0.249-0.397-0.241-4.48 0.202-9.22-1.04-13.7-3.59-3.86-2.18-7.62-5.38-11.2-9.49-0.0185-0.021-0.0388-0.0404-0.0601-0.0575-0.0166-1.14 0.0231-2.28 0.115-3.42 5.03 6.24 10.5 10.4 16.3 12.3 1.07 0.356 2.17 0.63 3.29 0.82 0 0 3.7e-4 8.8e-4 3.7e-4 8.8e-4 0.123 0.123 0.3 0.154 0.446 0.094 0.0121-5e-3 0.0238-0.0131 0.035-0.0199 2.36 0.35 4.76 0.328 7.02-0.0859 1.33-0.244 2.6-0.615 3.78-1.11 1.86-0.769 3.52-1.83 4.92-3.16 0.38-0.502 0.743-1.01 1.09-1.53-0.13-0.111-0.314-0.137-0.465-0.0516-2.15 1.22-4.86 1.34-7.18 0.34 0.517-0.865 1-1.71 1.46-2.54 2.07 0.889 4.74 1.21 7.05 0.898 0.19-0.32 0.376-0.639 0.554-0.959-2.26 0.46-5.06 0.212-7.2-0.68 0.611-1.14 1.17-2.26 1.67-3.35 1.86 1.29 3.96 2.07 6.38 2.39 0.131-0.27 0.254-0.54 0.374-0.807-2.49-0.283-4.54-1.04-6.41-2.36 0.478-1.09 0.9-2.15 1.27-3.2 2.22 0.657 4.28 1.94 5.9 3.68 0.107-0.298 0.207-0.592 0.299-0.881-1.66-1.68-3.71-2.93-5.92-3.59 0.298-0.896 0.557-1.78 0.78-2.66 2.18 0.603 4.21 1.83 5.81 3.49 0.0558-0.363 0.0949-0.712 0.116-1.05-1.62-1.54-3.61-2.68-5.72-3.27 0.101-0.443 0.198-0.885 0.281-1.32 0.0843-0.441 0.157-0.901 0.22-1.38 1.97 0.519 3.81 1.62 5.23 3.15-4e-3 -0.392-0.0101-0.787-0.0186-1.18-1.46-1.35-3.23-2.33-5.11-2.81 0.1-0.96 0.162-1.97 0.187-3.01 1.87 0.244 3.64 1.35 4.72 2.97 0.0212 0.0329 0.0475 0.059 0.0753 0.0836-0.0393-0.498-0.0885-0.999-0.15-1.5-1.22-1.33-2.89-2.2-4.63-2.41 4e-3 -1.1-0.0311-2.24-0.106-3.38 1.34 0.423 3.06 1.4 4.08 2.33zm-23.6 27.3c-12.8-14.7-12.8-25-12.8-25.1 1e-3 -0.0905-0.0255-0.175-0.0708-0.246 0.466-0.901 0.971-1.78 1.51-2.63 0.109 0.0402 0.23 0.0354 0.333-0.0242 9e-3 -5e-3 0.274-0.152 0.777-0.365-0.011 0.0462-0.0162 0.0956-0.0106 0.145 0.0454 0.44 1.26 10.9 13.7 28.4-0.145 0.16-0.29 0.321-0.437 0.481-1-0.166-2-0.408-2.99-0.723zm-4.09-36.1c0.415-0.186 8.98-3.87 20.1 2.63 0.062 1.01 0.0918 2.03 0.0898 3.05-7.36-3.45-13.5-3.92-17.4-3.71-2.93 0.164-5.02 0.718-6.07 1.06 1.04-1.09 2.15-2.11 3.33-3.04zm-3.77 4.11c0.102-0.0401 9.89-4.16 23.8 2.41 0.0529 0.0253 0.109 0.038 0.165 0.0399-0.0229 1.09-0.0823 2.18-0.178 3.25-8.54-4.42-15.5-4.87-19.8-4.46-3.22 0.302-5.49 1.09-6.64 1.58 0.705-1.02 1.47-1.99 2.28-2.92 0.118 0.122 0.297 0.165 0.456 0.0945zm23.4 6.48c0.0747 0.0394 0.155 0.0507 0.23 0.0427-0.267 2.49-0.731 4.89-1.39 7.06-1.72-4.27-2.92-8.03-3.25-9.1 1.42 0.551 2.89 1.21 4.41 2zm-3.08 12.1c2e-3 3e-3 6e-3 7e-3 8e-3 0.0122-0.381 0.836-0.788 1.67-1.22 2.49-5.48-8.15-8.56-18.5-8.59-18.7-0.0217-0.0734-0.0613-0.135-0.111-0.185 0.966 0.126 1.98 0.303 3.05 0.542 3e-3 0.0193 5e-3 0.037 0.01 0.0561 0.0218 0.0762 2.27 7.85 6.86 15.7zm-3.73 6.76c-6.78-11.4-10.8-22.9-10.8-23.1-0.046-0.135-0.149-0.232-0.271-0.273 1.29-0.0457 2.75-5e-3 4.37 0.179-0.147 0.0972-0.22 0.285-0.165 0.471 0.0315 0.108 3.24 10.9 8.94 19.2-0.64 1.16-1.33 2.3-2.08 3.43zm-2.37 3.32c-7.81-10.7-12.6-25.9-12.6-26-0.021-0.0663-0.0567-0.124-0.101-0.172 0.76-0.149 1.6-0.277 2.53-0.362 0.379-0.0349 0.781-0.0632 1.2-0.0822-0.194 0.0859-0.292 0.309-0.22 0.522 0.0404 0.118 4.12 12 11.1 23.6-0.591 0.862-1.21 1.72-1.86 2.56zm-2.4 2.91c-12.2-17.2-13.4-27.7-13.4-27.9-0.0141-0.139-0.0925-0.255-0.199-0.325 0.662-0.249 1.55-0.535 2.65-0.786-0.0265 0.0813-0.0295 0.172-2e-3 0.263 0.0482 0.157 4.9 15.7 12.9 26.5-0.6 0.754-1.23 1.5-1.88 2.24zm8.93-13.9c-3.77-6.63-5.87-13-6.37-14.7 1.19 0.301 2.44 0.678 3.74 1.15-0.0233 0.0782-0.0257 0.164 8.1e-4 0.25 0.0141 0.0497 1.49 4.94 3.74 10.4-0.334 0.96-0.706 1.91-1.11 2.86zm-14.5-23.5c1.29-0.819 3.11-1.81 5.23-2.54 0.0738 0.133 0.212 0.225 0.369 0.225 0.0753 2.9e-4 7.45 0.0213 11.6 2.92 0.137 0.914 0.246 1.85 0.324 2.79-5.85-3.31-10.9-3.84-14.2-3.68-1.39 0.0666-2.58 0.254-3.53 0.465 0.0914-0.0592 0.182-0.119 0.273-0.177zm-13.8 18.8c0.354 2.76 1.65 8.41 6.39 14.2-2.66-2.09-5.23-4.71-7.69-7.85 0.246-2.15 0.684-4.26 1.3-6.31zm9.06 16.1c-1e-3 -0.11-0.0445-0.22-0.128-0.305-8.18-8.32-8.24-17.4-8.24-17.5 4.2e-4 -0.0779-0.0216-0.15-0.0562-0.215 0.358-0.99 0.759-1.96 1.2-2.91 0.337 3.04 2.17 11.7 12 23.4-1.62-0.641-3.22-1.46-4.78-2.46zm23.9 0.382c-2.53 2.03-5.79 3.25-9.29 3.57 1.52-0.92 2.68-2.51 3.7-4.18 1.76 0.798 3.74 0.998 5.59 0.608z"/>
   <path d="m383 200c4.25-6.36 10.1-9.31 14.3-10.7 2.63-0.847 4.94-1.19 6.43-1.33-1.07-0.196-2.17-0.322-3.28-0.377-1.03 0.21-2.17 0.495-3.39 0.888-4.33 1.39-10.4 4.42-14.8 11-4.55 6.81-5.99 13.3-6.41 17.5-0.0404 0.421-0.0726 0.828-0.0971 1.22 0.216 0.875 0.475 1.79 0.786 2.72-0.0924-4.43 0.725-12.4 6.4-21z"/>
  </g>
 </g>
 <text transform="matrix(1 -.28 -.382 1.1 0 0)" x="367.36465" y="293.0632" fill="#000000" font-size="23.7px" stroke-width=".742" style="line-height:0px" xml:space="preserve"><tspan x="367.36465" y="293.0632" fill="#000000" font-family="sans-serif" font-size="23.7px" stroke-width=".742">H</tspan></text>
 <text transform="matrix(1 -.28 -.382 1.1 0 0)" x="383.28937" y="290.7139" fill="#969de5" font-size="23.7px" stroke-width=".742" style="line-height:0px" xml:space="preserve"><tspan x="383.28937" y="290.7139" fill="#969de5" font-family="sans-serif" font-size="23.7px" stroke-width=".742">F</tspan></text>
</svg>
