<?xml version="1.0" encoding="UTF-8" standalone="no"?>
<svg
   width="43.428574"
   zoomAndPan="magnify"
   viewBox="0 0 32.57143 28.499999"
   height="38"
   preserveAspectRatio="xMidYMid"
   version="1.0"
   id="svg88"
   sodipodi:docname="contacts_ico.svg"
   inkscape:version="1.2.1 (9c6d41e410, 2022-07-14)"
   xmlns:inkscape="http://www.inkscape.org/namespaces/inkscape"
   xmlns:sodipodi="http://sodipodi.sourceforge.net/DTD/sodipodi-0.dtd"
   xmlns="http://www.w3.org/2000/svg"
   xmlns:svg="http://www.w3.org/2000/svg">
  <sodipodi:namedview
     id="namedview90"
     pagecolor="#ffffff"
     bordercolor="#111111"
     borderopacity="1"
     inkscape:showpageshadow="0"
     inkscape:pageopacity="0"
     inkscape:pagecheckerboard="1"
     inkscape:deskcolor="#d1d1d1"
     showgrid="true"
     inkscape:zoom="20.54"
     inkscape:cx="4.5520935"
     inkscape:cy="14.62999"
     inkscape:window-width="2560"
     inkscape:window-height="1361"
     inkscape:window-x="2391"
     inkscape:window-y="-9"
     inkscape:window-maximized="1"
     inkscape:current-layer="svg88">
    <inkscape:grid
       type="xygrid"
       id="grid962"
       originx="-0.013876075"
       originy="0.45359217" />
  </sodipodi:namedview>
  <defs
     id="defs56">
    <clipPath
       id="cc11ff8ea7">
      <path
         d="M 19,15 H 30 V 25.5 H 19 Z m 0,0"
         clip-rule="nonzero"
         id="path47" />
    </clipPath>
    <clipPath
       id="9e89fd9cc3">
      <path
         d="m 35.25,33.636719 h 30 v 26.25 h -30 z m 0,0"
         clip-rule="nonzero"
         id="path50" />
    </clipPath>
    <clipPath
       id="607bbba136">
      <path
         d="M 70.5,74.585938 H 75 V 75 h -4.5 z m 0,0"
         clip-rule="nonzero"
         id="path53" />
    </clipPath>
    <clipPath
       id="989721d475">
      <path
         d="m 30.648438,14.765625 h 13.5 v 15.75 h -13.5 z m 0,0"
         clip-rule="nonzero"
         id="path4400" />
    </clipPath>
  </defs>
  <g
     clip-path="url(#9e89fd9cc3)"
     id="g74"
     transform="matrix(1.0857143,0,0,1.0857143,-38.271429,-38.126489)"
     style="fill:#ffffff;fill-opacity:1;stroke-width:0.921053">
    <path
       fill="#000000"
       d="M 39.144531,59.843884 C 36.996094,59.843884 35.25,58.097791 35.25,55.949353 V 41.839978 c 0,-2.148437 1.746094,-3.898437 3.894531,-3.898437 h 22.207031 c 2.152344,0 3.898438,1.75 3.898438,3.898437 v 14.109375 c 0,2.148438 -1.746094,3.894531 -3.898438,3.894531 -15.109415,0.0051 -15.100457,-0.0025 -22.207031,0 z m 0,-20.496093 c -1.371093,0 -2.488281,1.117187 -2.488281,2.492187 v 14.109375 c 0,1.371094 1.117188,2.488281 2.488281,2.488281 14.697107,-0.03689 14.701466,-0.02522 22.207031,0 1.375,0 2.492188,-1.117187 2.492188,-2.488281 V 41.839978 c 0,-1.375 -1.117188,-2.492187 -2.492188,-2.492187 z"
       fill-opacity="1"
       fill-rule="nonzero"
       id="path72"
       style="fill:#ffffff;fill-opacity:1;stroke-width:0.86228"
       sodipodi:nodetypes="cssssssccsssccssss" />
  </g>
  <path
     fill="#000000"
     d="m 7.5277543,6.6311056 0.02344,-5.81333115 C 7.5528843,0.3979115 7.8904792,0.0543815 8.3145872,0.0543815 c 0.419866,0 0.7650849,0.34353 0.763392,0.76339295 l -0.02344,5.81333115 c -0.00169,0.4198626 -0.343526,0.7633927 -0.763392,0.7633927 -0.424108,0 -0.7650858,-0.3435301 -0.7633929,-0.7633927 z"
     fill-opacity="1"
     fill-rule="nonzero"
     id="path76-9"
     style="fill:#ffffff;fill-opacity:1;stroke:none;stroke-width:1"
     sodipodi:nodetypes="sssssss" />
  <path
     fill="#000000"
     d="m 23.346754,6.6311058 0.02344,-5.81333115 c 0.0017,-0.41986285 0.339285,-0.76339295 0.763393,-0.76339295 0.419866,0 0.765085,0.3435301 0.763392,0.76339295 l -0.02344,5.81333115 c -0.0017,0.4198624 -0.343526,0.7633925 -0.763392,0.7633925 -0.424108,0 -0.765086,-0.3435301 -0.763393,-0.7633925 z"
     fill-opacity="1"
     fill-rule="nonzero"
     id="path76-9-8"
     style="fill:#ffffff;fill-opacity:1;stroke:none;stroke-width:1"
     sodipodi:nodetypes="sssssss" />
  <g
     clip-path="url(#989721d475)"
     id="g4407"
     transform="translate(-21.259193,-7.5237802)"
     style="fill:#ffffff;fill-opacity:1;stroke-width:0.99975;stroke-dasharray:none">
    <path
       fill="#000000"
       d="m 37.398438,22.640625 c 0.523437,0 1.023437,-0.09766 1.507812,-0.296875 0.480469,-0.203125 0.90625,-0.484375 1.277344,-0.855469 0.367187,-0.367187 0.652344,-0.792969 0.851562,-1.277343 0.199219,-0.480469 0.300782,-0.984376 0.300782,-1.507813 0,-0.519531 -0.101563,-1.023437 -0.300782,-1.503906 -0.199218,-0.484375 -0.484375,-0.910157 -0.851562,-1.277344 -0.371094,-0.371094 -0.796875,-0.65625 -1.277344,-0.855469 -0.484375,-0.199218 -0.984375,-0.300781 -1.507812,-0.300781 -0.519532,0 -1.023438,0.101563 -1.503907,0.300781 -0.484375,0.199219 -0.910156,0.484375 -1.277343,0.855469 -0.371094,0.367187 -0.652344,0.792969 -0.855469,1.277344 -0.199219,0.480469 -0.296875,0.984375 -0.296875,1.503906 0,0.523437 0.101562,1.023437 0.300781,1.507813 0.199219,0.480468 0.484375,0.90625 0.851563,1.277343 0.371093,0.367188 0.796874,0.652344 1.277343,0.851563 0.480469,0.203125 0.984375,0.300781 1.503907,0.300781 z m 0,-6.75 c 0.375,0 0.730468,0.07422 1.078124,0.214844 0.34375,0.144531 0.648438,0.347656 0.910157,0.609375 0.261719,0.265625 0.464843,0.570312 0.609375,0.914062 0.140625,0.34375 0.214844,0.703125 0.214844,1.074219 0,0.375 -0.07422,0.734375 -0.214844,1.078125 -0.144532,0.34375 -0.347656,0.648438 -0.609375,0.910156 -0.261719,0.265625 -0.566407,0.46875 -0.910157,0.613282 -0.347656,0.140624 -0.703124,0.210937 -1.078124,0.210937 -0.371094,0 -0.730469,-0.07031 -1.074219,-0.210937 -0.34375,-0.144532 -0.648438,-0.347657 -0.914063,-0.613282 C 35.148438,20.429688 34.945312,20.125 34.800781,19.78125 34.660156,19.4375 34.589844,19.078125 34.589844,18.703125 c 0,-0.371094 0.07031,-0.730469 0.214844,-1.074219 0.140624,-0.34375 0.34375,-0.648437 0.609374,-0.914062 0.261719,-0.261719 0.566407,-0.464844 0.910157,-0.609375 0.34375,-0.140625 0.703125,-0.214844 1.074219,-0.214844 z m 1.6875,7.875 h -3.375 c -0.332032,0 -0.660157,0.03516 -0.984376,0.101563 -0.324218,0.0625 -0.640624,0.160156 -0.949218,0.285156 -0.304688,0.128906 -0.597656,0.285156 -0.875,0.46875 -0.273438,0.1875 -0.53125,0.394531 -0.765625,0.628906 -0.234375,0.238281 -0.445313,0.492188 -0.628907,0.769531 -0.183593,0.273438 -0.339843,0.566407 -0.46875,0.875 -0.125,0.304688 -0.222656,0.621094 -0.289062,0.949219 -0.0625,0.324219 -0.09766,0.652344 -0.09766,0.984375 v 1.125 c 0,0.15625 0.05469,0.289063 0.164062,0.398437 0.109375,0.109376 0.242188,0.164063 0.398438,0.164063 h 12.367187 c 0.15625,0 0.289063,-0.05469 0.398438,-0.164063 0.109375,-0.109374 0.164062,-0.242187 0.164062,-0.398437 v -1.125 c 0,-0.332031 -0.03125,-0.660156 -0.09766,-0.984375 -0.06641,-0.328125 -0.160156,-0.644531 -0.289063,-0.949219 -0.125,-0.308593 -0.28125,-0.601562 -0.46875,-0.875 -0.183593,-0.277343 -0.394531,-0.53125 -0.628906,-0.769531 -0.234375,-0.234375 -0.488281,-0.441406 -0.765625,-0.628906 -0.277343,-0.183594 -0.566406,-0.339844 -0.875,-0.46875 -0.304687,-0.125 -0.621093,-0.222656 -0.945312,-0.285156 -0.328125,-0.06641 -0.65625,-0.101563 -0.988281,-0.101563 z m 3.933593,5.625 H 31.777344 v -0.5625 c 0,-0.519531 0.101562,-1.023437 0.300781,-1.503906 0.199219,-0.484375 0.484375,-0.910157 0.851563,-1.277344 0.371093,-0.371094 0.796874,-0.652344 1.277343,-0.855469 0.480469,-0.199218 0.984375,-0.296875 1.503907,-0.300781 h 3.375 c 0.519531,0.0039 1.023437,0.101563 1.503906,0.300781 0.484375,0.203125 0.90625,0.484375 1.277344,0.855469 0.367187,0.367187 0.652343,0.792969 0.851562,1.277344 0.199219,0.480469 0.300781,0.984375 0.300781,1.503906 z m 0,0"
       fill-opacity="1"
       fill-rule="nonzero"
       id="path4405"
       style="fill:#ffffff;fill-opacity:1;stroke-width:0.99975;stroke-dasharray:none" />
  </g>
</svg>
