<svg xmlns="http://www.w3.org/2000/svg" xmlns:xlink="http://www.w3.org/1999/xlink" width="500" zoomAndPan="magnify" viewBox="0 0 375 374.999991" height="500" preserveAspectRatio="xMidYMid meet" version="1.0"><path fill="#5271ff" d="M 164.457031 284.808594 C 164.457031 271.1875 174.214844 261.335938 187.492188 261.335938 C 201.542969 261.335938 210.527344 271.1875 210.527344 284.808594 C 210.527344 298.0625 201.542969 308.28125 187.492188 308.28125 C 173.824219 308.28125 164.457031 298.0625 164.457031 284.808594 Z M 172.476562 227.761719 L 161.636719 93.03125 C 161.097656 86.289062 172.933594 80.796875 187.492188 80.796875 C 202.058594 80.796875 213.886719 86.324219 213.347656 93.03125 L 202.503906 227.761719 C 202.132812 232.339844 195.546875 235.945312 187.492188 235.945312 C 179.453125 235.945312 172.847656 232.339844 172.476562 227.761719 Z M 172.476562 227.761719 " fill-opacity="1" fill-rule="nonzero"/><path fill="#5271ff" d="M 187.492188 374.984375 C 84.109375 374.984375 0 290.875 0 187.492188 C 0 84.109375 84.109375 0 187.492188 0 C 290.875 0 374.984375 84.109375 374.984375 187.492188 C 374.984375 290.875 290.875 374.984375 187.492188 374.984375 Z M 187.492188 31.964844 C 101.734375 31.964844 31.964844 101.734375 31.964844 187.492188 C 31.964844 273.25 101.734375 343.019531 187.492188 343.019531 C 273.25 343.019531 343.019531 273.25 343.019531 187.492188 C 343.019531 101.734375 273.25 31.964844 187.492188 31.964844 Z M 187.492188 31.964844 " fill-opacity="1" fill-rule="nonzero"/></svg>