<svg xmlns="http://www.w3.org/2000/svg" xmlns:xlink="http://www.w3.org/1999/xlink" width="50" zoomAndPan="magnify" viewBox="0 0 37.5 37.499999" height="50" preserveAspectRatio="xMidYMid meet" version="1.0"><defs><clipPath id="e6c53da141"><path d="M 2.425781 0 L 35.074219 0 L 35.074219 37.007812 L 2.425781 37.007812 Z M 2.425781 0 " clip-rule="nonzero"/></clipPath></defs><g clip-path="url(#e6c53da141)"><path fill="#5271ff" d="M 34.652344 18.027344 C 34.917969 18.179688 35.054688 18.410156 35.050781 18.714844 L 35.050781 18.71875 C 35.050781 19.023438 34.917969 19.253906 34.652344 19.40625 L 3.300781 37.347656 C 3.03125 37.5 2.765625 37.5 2.496094 37.347656 C 2.230469 37.195312 2.09375 36.964844 2.09375 36.660156 L 2.09375 23.203125 C 2.09375 22.898438 2.226562 22.667969 2.496094 22.515625 L 9.089844 18.722656 L 2.5 14.976562 C 2.230469 14.824219 2.09375 14.59375 2.09375 14.285156 L 2.09375 0.828125 C 2.09375 0.6875 2.132812 0.554688 2.203125 0.433594 C 2.273438 0.308594 2.371094 0.210938 2.496094 0.140625 C 2.621094 0.0703125 2.753906 0.0351562 2.898438 0.0351562 C 3.042969 0.0351562 3.175781 0.0703125 3.300781 0.140625 Z M 34.652344 18.027344 " fill-opacity="1" fill-rule="nonzero"/></g></svg>