<svg xmlns="http://www.w3.org/2000/svg" xmlns:xlink="http://www.w3.org/1999/xlink" width="50" zoomAndPan="magnify" viewBox="0 0 37.5 37.499999" height="50" preserveAspectRatio="xMidYMid meet" version="1.0"><defs><clipPath id="ef4c4f0bcd"><path d="M 2.425781 0 L 35.425781 0 L 35.425781 37.007812 L 2.425781 37.007812 Z M 2.425781 0 " clip-rule="nonzero"/></clipPath></defs><g clip-path="url(#ef4c4f0bcd)"><path fill="#5271ff" d="M 2.847656 18.027344 C 2.582031 18.179688 2.445312 18.410156 2.445312 18.714844 L 2.445312 18.71875 C 2.449219 19.023438 2.582031 19.253906 2.847656 19.40625 L 34.199219 37.347656 C 34.46875 37.5 34.734375 37.5 35.003906 37.347656 C 35.269531 37.195312 35.40625 36.964844 35.40625 36.660156 L 35.40625 23.203125 C 35.40625 22.898438 35.273438 22.667969 35.003906 22.515625 L 28.410156 18.722656 L 35 14.976562 C 35.269531 14.824219 35.40625 14.59375 35.40625 14.285156 L 35.40625 0.828125 C 35.40625 0.6875 35.367188 0.554688 35.296875 0.433594 C 35.226562 0.308594 35.128906 0.210938 35.003906 0.140625 C 34.878906 0.0703125 34.746094 0.0351562 34.601562 0.0351562 C 34.457031 0.0351562 34.324219 0.0703125 34.199219 0.140625 Z M 2.847656 18.027344 " fill-opacity="1" fill-rule="nonzero"/></g></svg>