<svg xmlns="http://www.w3.org/2000/svg" xmlns:xlink="http://www.w3.org/1999/xlink" width="50" zoomAndPan="magnify" viewBox="0 0 37.5 37.499999" height="50" preserveAspectRatio="xMidYMid meet" version="1.0"><defs><clipPath id="e8c95b6ab7"><path d="M 16 18 L 36.203125 18 L 36.203125 37.007812 L 16 37.007812 Z M 16 18 " clip-rule="nonzero"/></clipPath><clipPath id="efd74ecfb4"><path d="M 0.953125 0 L 27 0 L 27 26 L 0.953125 26 Z M 0.953125 0 " clip-rule="nonzero"/></clipPath></defs><g clip-path="url(#e8c95b6ab7)"><path fill="#657ff7" d="M 30.433594 28.433594 C 30.433594 26.292969 28.710938 24.554688 26.589844 24.554688 C 24.46875 24.554688 22.746094 26.292969 22.746094 28.433594 C 22.746094 30.570312 24.46875 32.3125 26.589844 32.3125 C 28.710938 32.3125 30.433594 30.570312 30.433594 28.433594 Z M 33.664062 27.855469 L 36.199219 28.832031 C 35.808594 30.566406 35.925781 30.054688 35.527344 31.792969 L 32.824219 31.5625 C 32.144531 32.414062 31.921875 32.699219 31.246094 33.550781 L 32.074219 36.164062 C 30.488281 36.933594 30.945312 36.714844 29.363281 37.484375 L 27.851562 35.199219 C 26.769531 35.199219 26.410156 35.199219 25.328125 35.199219 L 23.8125 37.484375 C 22.230469 36.714844 22.691406 36.933594 21.105469 36.164062 L 21.929688 33.550781 C 21.257812 32.699219 21.035156 32.414062 20.355469 31.5625 L 17.652344 31.792969 C 17.253906 30.054688 17.367188 30.566406 16.976562 28.832031 L 19.515625 27.855469 C 19.757812 26.789062 19.839844 26.433594 20.078125 25.367188 L 18.273438 23.433594 L 18.25 23.332031 C 19.304688 21.992188 19.003906 22.378906 20.085938 21.003906 L 22.433594 22.398438 C 23.40625 21.921875 23.730469 21.765625 24.703125 21.289062 L 25.082031 18.570312 C 26.84375 18.570312 26.332031 18.570312 28.097656 18.570312 L 28.472656 21.289062 C 29.449219 21.765625 29.773438 21.921875 30.746094 22.398438 L 33.09375 21.003906 C 34.1875 22.394531 33.867188 21.988281 34.964844 23.375 L 33.101562 25.367188 C 33.335938 26.433594 33.421875 26.789062 33.664062 27.855469 " fill-opacity="1" fill-rule="nonzero"/></g><g clip-path="url(#efd74ecfb4)"><path fill="#657ff7" d="M 20.179688 12.914062 C 20.179688 9.347656 17.308594 6.449219 13.773438 6.449219 C 10.238281 6.449219 7.367188 9.347656 7.367188 12.914062 C 7.367188 16.484375 10.238281 19.378906 13.773438 19.378906 C 17.308594 19.378906 20.179688 16.484375 20.179688 12.914062 Z M 18.273438 23.433594 L 18.484375 24.527344 C 16.894531 25 17.46875 24.824219 15.882812 25.296875 L 14.894531 22.796875 C 13.667969 22.796875 13.601562 22.796875 12.363281 22.796875 L 11.382812 25.296875 C 9.792969 24.824219 10.363281 25 8.773438 24.527344 L 9.289062 21.886719 C 8.25 21.214844 8.199219 21.179688 7.160156 20.503906 L 4.988281 22.070312 C 3.90625 20.808594 4.296875 21.265625 3.214844 20 L 5.058594 18.0625 C 4.546875 16.929688 4.519531 16.863281 4.007812 15.734375 L 1.34375 15.871094 C 1.105469 14.214844 1.195312 14.816406 0.957031 13.160156 L 3.554688 12.535156 C 3.726562 11.304688 3.738281 11.234375 3.910156 10.003906 L 1.597656 8.667969 C 2.285156 7.148438 2.042969 7.695312 2.726562 6.179688 L 5.246094 7.0625 C 6.050781 6.117188 6.097656 6.074219 6.90625 5.132812 L 5.675781 2.746094 C 7.066406 1.839844 6.566406 2.167969 7.953125 1.265625 L 9.597656 3.386719 C 10.78125 3.035156 10.84375 3.015625 12.03125 2.660156 L 12.273438 -0.015625 C 13.925781 -0.015625 13.332031 -0.015625 14.984375 -0.015625 L 15.234375 2.660156 C 16.417969 3.015625 16.476562 3.035156 17.664062 3.386719 L 19.304688 1.265625 C 20.699219 2.167969 20.195312 1.839844 21.589844 2.746094 L 20.363281 5.132812 C 21.167969 6.074219 21.210938 6.117188 22.019531 7.0625 L 24.539062 6.179688 C 25.226562 7.695312 24.976562 7.148438 25.664062 8.667969 L 23.351562 10.003906 C 23.527344 11.234375 23.53125 11.304688 23.714844 12.535156 L 26.304688 13.160156 C 26.070312 14.816406 26.152344 14.214844 25.914062 15.871094 L 23.257812 15.734375 C 22.746094 16.863281 22.710938 16.929688 22.199219 18.0625 L 24.046875 20 C 22.960938 21.265625 23.351562 20.808594 22.273438 22.070312 L 20.105469 20.503906 C 19.066406 21.179688 19.007812 21.214844 17.972656 21.886719 L 18.25 23.332031 C 18.238281 23.34375 18.226562 23.363281 18.214844 23.375 L 18.273438 23.433594 " fill-opacity="1" fill-rule="nonzero"/></g></svg>