<svg xmlns="http://www.w3.org/2000/svg" xmlns:xlink="http://www.w3.org/1999/xlink" width="100" zoomAndPan="magnify" viewBox="0 0 75 74.999997" height="100" preserveAspectRatio="xMidYMid meet" version="1.0"><path fill="#5271ff" d="M 61.753906 32.535156 L 36.976562 5.257812 L 12.9375 32.535156 L 25.90625 32.535156 L 25.859375 46.644531 C 25.859375 75.089844 64.089844 68.089844 64.089844 68.089844 C 64.089844 68.089844 47.984375 67.136719 47.984375 48.605469 L 48.011719 32.554688 Z M 61.753906 32.535156 " fill-opacity="1" fill-rule="nonzero"/><path fill="#5271ff" d="M 61.050781 34.527344 C 60.1875 33.574219 59.316406 32.617188 58.449219 31.660156 C 56.378906 29.375 54.296875 27.085938 52.222656 24.804688 C 49.714844 22.042969 47.207031 19.273438 44.6875 16.511719 C 42.507812 14.117188 40.335938 11.71875 38.15625 9.324219 C 37.097656 8.160156 36.011719 7.019531 34.988281 5.835938 L 34.941406 5.789062 L 38.996094 5.789062 L 36.472656 8.65625 C 34.453125 10.953125 32.433594 13.246094 30.40625 15.535156 C 27.972656 18.296875 25.53125 21.058594 23.101562 23.828125 C 20.996094 26.214844 18.890625 28.609375 16.78125 30.996094 C 15.757812 32.15625 14.753906 33.351562 13.699219 34.492188 L 13.652344 34.535156 C 12.980469 32.90625 12.296875 31.269531 11.625 29.640625 L 25.296875 29.640625 C 26.839844 29.640625 28.171875 30.957031 28.164062 32.507812 C 28.15625 34.8125 28.148438 37.113281 28.148438 39.425781 C 28.140625 42.417969 28.132812 45.398438 28.125 48.390625 C 28.117188 49.882812 28.179688 51.375 28.378906 52.859375 C 28.347656 52.605469 28.308594 52.355469 28.277344 52.09375 C 28.539062 54.015625 29.019531 55.894531 29.769531 57.6875 C 29.671875 57.457031 29.578125 57.226562 29.480469 56.996094 C 30.085938 58.414062 30.855469 59.75 31.789062 60.96875 C 31.636719 60.777344 31.492188 60.578125 31.339844 60.386719 C 32.296875 61.617188 33.40625 62.710938 34.636719 63.660156 C 34.445312 63.507812 34.246094 63.363281 34.054688 63.210938 C 35.570312 64.371094 37.246094 65.304688 39.003906 66.046875 C 38.773438 65.949219 38.546875 65.855469 38.316406 65.757812 C 40.464844 66.660156 42.714844 67.277344 45.007812 67.691406 C 45.660156 67.8125 46.316406 67.914062 46.976562 68.003906 C 46.722656 67.976562 46.472656 67.9375 46.210938 67.90625 C 48.527344 68.210938 50.871094 68.34375 53.203125 68.34375 C 55.253906 68.34375 57.296875 68.234375 59.332031 68.042969 C 60.265625 67.960938 61.1875 67.851562 62.121094 67.722656 C 61.871094 67.753906 61.617188 67.792969 61.359375 67.820312 C 62.542969 67.660156 63.738281 67.476562 64.914062 67.234375 L 65.121094 67.1875 C 65.375 69.070312 65.625 70.941406 65.886719 72.824219 C 64.210938 72.710938 62.519531 72.320312 60.929688 71.792969 C 57.449219 70.628906 54.183594 68.726562 51.664062 66.023438 C 50.121094 64.363281 48.8125 62.453125 47.910156 60.371094 C 47.351562 59.078125 46.859375 57.769531 46.523438 56.394531 C 46.148438 54.855469 45.925781 53.273438 45.796875 51.6875 C 45.691406 50.371094 45.699219 49.0625 45.707031 47.75 C 45.707031 45.988281 45.714844 44.222656 45.714844 42.460938 C 45.722656 39.203125 45.730469 35.953125 45.730469 32.691406 L 45.730469 32.515625 C 45.730469 30.964844 47.042969 29.648438 48.597656 29.648438 C 50.234375 29.648438 51.871094 29.640625 53.507812 29.640625 C 56.101562 29.640625 58.695312 29.632812 61.289062 29.632812 L 63.085938 29.632812 C 64.585938 29.632812 66.023438 30.957031 65.957031 32.5 C 65.886719 34.054688 64.691406 35.371094 63.085938 35.371094 C 61.449219 35.371094 59.8125 35.378906 58.175781 35.378906 C 55.582031 35.378906 52.988281 35.386719 50.394531 35.386719 L 48.597656 35.386719 L 51.464844 32.515625 C 51.457031 34.742188 51.457031 36.96875 51.449219 39.195312 C 51.441406 42.261719 51.441406 45.332031 51.4375 48.398438 C 51.4375 49.960938 51.472656 51.519531 51.679688 53.074219 C 51.648438 52.820312 51.613281 52.566406 51.582031 52.308594 C 51.839844 54.265625 52.324219 56.1875 53.097656 58.007812 C 52.996094 57.777344 52.90625 57.546875 52.804688 57.320312 C 53.410156 58.734375 54.175781 60.074219 55.109375 61.289062 C 54.953125 61.097656 54.808594 60.898438 54.65625 60.707031 C 55.582031 61.902344 56.652344 62.964844 57.839844 63.890625 C 57.648438 63.738281 57.449219 63.589844 57.257812 63.4375 C 58.597656 64.464844 60.066406 65.304688 61.609375 65.964844 C 61.378906 65.863281 61.152344 65.773438 60.921875 65.671875 C 62.351562 66.277344 63.84375 66.726562 65.367188 67.003906 C 65.617188 67.050781 65.871094 67.085938 66.125 67.125 C 65.871094 67.09375 65.617188 67.058594 65.359375 67.027344 C 65.535156 67.050781 65.703125 67.074219 65.878906 67.085938 C 67.316406 67.1875 68.496094 68.105469 68.695312 69.574219 C 68.878906 70.914062 68.035156 72.410156 66.636719 72.71875 C 66.007812 72.855469 65.382812 72.960938 64.746094 73.070312 C 62.871094 73.375 60.984375 73.621094 59.09375 73.789062 C 56.804688 73.996094 54.511719 74.09375 52.207031 74.058594 C 49.355469 74.011719 46.5 73.75 43.6875 73.253906 C 40.808594 72.75 38.039062 71.890625 35.386719 70.675781 C 32.800781 69.488281 30.367188 67.828125 28.410156 65.757812 C 26.128906 63.347656 24.492188 60.425781 23.511719 57.257812 C 22.640625 54.410156 22.359375 51.390625 22.367188 48.421875 L 22.386719 40.617188 L 22.410156 32.929688 L 22.410156 32.488281 L 25.28125 35.355469 L 11.609375 35.355469 C 10.460938 35.355469 9.429688 34.636719 8.984375 33.589844 C 8.519531 32.488281 8.800781 31.339844 9.582031 30.453125 L 12.105469 27.582031 C 14.125 25.289062 16.144531 22.992188 18.171875 20.707031 C 20.605469 17.945312 23.046875 15.183594 25.480469 12.414062 C 27.582031 10.027344 29.6875 7.632812 31.796875 5.246094 C 32.824219 4.082031 33.824219 2.890625 34.882812 1.75 L 34.925781 1.703125 C 35.921875 0.578125 37.988281 0.609375 38.980469 1.703125 C 39.847656 2.660156 40.71875 3.617188 41.582031 4.570312 C 43.65625 6.859375 45.738281 9.144531 47.808594 11.425781 C 50.320312 14.1875 52.828125 16.957031 55.34375 19.71875 C 57.523438 22.113281 59.699219 24.515625 61.878906 26.910156 C 62.933594 28.074219 64.003906 29.226562 65.046875 30.398438 L 65.089844 30.445312 C 65.601562 31.003906 65.933594 31.699219 65.933594 32.472656 C 65.933594 33.175781 65.617188 34.015625 65.089844 34.5 C 64.011719 35.539062 62.128906 35.714844 61.050781 34.527344 Z M 61.050781 34.527344 " fill-opacity="1" fill-rule="nonzero"/></svg>