<svg xmlns="http://www.w3.org/2000/svg" xmlns:xlink="http://www.w3.org/1999/xlink" width="100" zoomAndPan="magnify" viewBox="0 0 75 74.999997" height="100" preserveAspectRatio="xMidYMid meet" version="1.0"><path fill="#5271ff" d="M 33.496094 13.535156 L 5.289062 39.15625 L 33.496094 64.015625 L 33.496094 50.601562 L 48.085938 50.652344 C 77.503906 50.652344 70.261719 11.121094 70.261719 11.121094 C 70.261719 11.121094 69.277344 27.773438 50.113281 27.773438 L 33.515625 27.746094 Z M 33.496094 13.535156 " fill-opacity="1" fill-rule="nonzero"/><path fill="#5271ff" d="M 34.527344 15.308594 C 33.574219 16.171875 32.617188 17.042969 31.660156 17.910156 C 29.375 19.980469 27.085938 22.0625 24.804688 24.136719 C 22.042969 26.644531 19.273438 29.152344 16.511719 31.671875 C 14.117188 33.851562 11.71875 36.023438 9.324219 38.203125 C 8.160156 39.261719 7.019531 40.347656 5.835938 41.371094 L 5.789062 41.417969 L 5.789062 37.363281 L 8.65625 39.886719 C 10.953125 41.90625 13.246094 43.925781 15.535156 45.953125 C 18.296875 48.386719 21.058594 50.828125 23.828125 53.257812 C 26.214844 55.363281 28.609375 57.464844 30.996094 59.578125 C 32.15625 60.601562 33.351562 61.605469 34.492188 62.660156 L 34.535156 62.707031 C 32.90625 63.378906 31.269531 64.0625 29.640625 64.734375 L 29.640625 51.0625 C 29.640625 49.519531 30.957031 48.1875 32.507812 48.195312 C 34.8125 48.203125 37.113281 48.210938 39.425781 48.210938 C 42.417969 48.21875 45.398438 48.226562 48.390625 48.234375 C 49.882812 48.242188 51.375 48.179688 52.859375 47.980469 C 52.605469 48.011719 52.355469 48.050781 52.09375 48.082031 C 54.015625 47.820312 55.894531 47.339844 57.6875 46.589844 C 57.457031 46.6875 57.226562 46.78125 56.996094 46.878906 C 58.414062 46.273438 59.75 45.503906 60.96875 44.570312 C 60.777344 44.722656 60.578125 44.867188 60.386719 45.019531 C 61.617188 44.0625 62.710938 42.953125 63.660156 41.722656 C 63.507812 41.914062 63.363281 42.113281 63.210938 42.304688 C 64.371094 40.789062 65.304688 39.113281 66.046875 37.355469 C 65.949219 37.585938 65.855469 37.8125 65.757812 38.042969 C 66.660156 35.894531 67.277344 33.644531 67.691406 31.351562 C 67.8125 30.699219 67.914062 30.042969 68.003906 29.382812 C 67.976562 29.636719 67.9375 29.886719 67.90625 30.148438 C 68.210938 27.832031 68.34375 25.488281 68.34375 23.15625 C 68.34375 21.105469 68.234375 19.0625 68.042969 17.027344 C 67.960938 16.09375 67.851562 15.171875 67.722656 14.238281 C 67.753906 14.488281 67.792969 14.742188 67.820312 15 C 67.660156 13.816406 67.476562 12.621094 67.234375 11.445312 L 67.1875 11.238281 C 69.070312 10.984375 70.941406 10.734375 72.824219 10.472656 C 72.710938 12.148438 72.320312 13.839844 71.792969 15.429688 C 70.628906 18.910156 68.726562 22.175781 66.023438 24.695312 C 64.363281 26.238281 62.453125 27.546875 60.371094 28.449219 C 59.078125 29.007812 57.769531 29.5 56.394531 29.835938 C 54.855469 30.210938 53.273438 30.433594 51.6875 30.5625 C 50.371094 30.667969 49.0625 30.660156 47.75 30.652344 C 45.988281 30.652344 44.222656 30.644531 42.460938 30.644531 C 39.203125 30.636719 35.953125 30.628906 32.691406 30.628906 L 32.515625 30.628906 C 30.964844 30.628906 29.648438 29.316406 29.648438 27.761719 C 29.648438 26.125 29.640625 24.488281 29.640625 22.851562 C 29.640625 20.257812 29.632812 17.664062 29.632812 15.070312 L 29.632812 13.273438 C 29.632812 11.773438 30.957031 10.335938 32.5 10.402344 C 34.054688 10.472656 35.371094 11.667969 35.371094 13.273438 C 35.371094 14.910156 35.378906 16.546875 35.378906 18.183594 C 35.378906 20.777344 35.386719 23.371094 35.386719 25.964844 L 35.386719 27.761719 L 32.515625 24.894531 C 34.742188 24.902344 36.96875 24.902344 39.195312 24.910156 C 42.261719 24.917969 45.332031 24.917969 48.398438 24.921875 C 49.960938 24.921875 51.519531 24.886719 53.074219 24.679688 C 52.820312 24.710938 52.566406 24.746094 52.308594 24.777344 C 54.265625 24.519531 56.1875 24.035156 58.007812 23.261719 C 57.777344 23.363281 57.546875 23.453125 57.320312 23.554688 C 58.734375 22.949219 60.074219 22.183594 61.289062 21.25 C 61.097656 21.40625 60.898438 21.550781 60.707031 21.703125 C 61.902344 20.777344 62.964844 19.707031 63.890625 18.519531 C 63.738281 18.710938 63.589844 18.910156 63.4375 19.101562 C 64.464844 17.761719 65.304688 16.292969 65.964844 14.75 C 65.863281 14.980469 65.773438 15.207031 65.671875 15.4375 C 66.277344 14.007812 66.726562 12.515625 67.003906 10.992188 C 67.050781 10.742188 67.085938 10.488281 67.125 10.234375 C 67.09375 10.488281 67.058594 10.742188 67.027344 11 C 67.050781 10.824219 67.074219 10.65625 67.085938 10.480469 C 67.1875 9.042969 68.105469 7.863281 69.574219 7.664062 C 70.914062 7.480469 72.410156 8.324219 72.71875 9.722656 C 72.855469 10.351562 72.960938 10.976562 73.070312 11.613281 C 73.375 13.488281 73.621094 15.375 73.789062 17.265625 C 73.996094 19.554688 74.09375 21.847656 74.058594 24.152344 C 74.011719 27.003906 73.75 29.859375 73.253906 32.671875 C 72.75 35.550781 71.890625 38.320312 70.675781 40.972656 C 69.488281 43.558594 67.828125 45.992188 65.757812 47.949219 C 63.347656 50.230469 60.425781 51.867188 57.257812 52.847656 C 54.410156 53.71875 51.390625 54 48.421875 53.992188 L 40.617188 53.972656 L 32.929688 53.949219 L 32.488281 53.949219 L 35.355469 51.078125 L 35.355469 64.75 C 35.355469 65.898438 34.636719 66.929688 33.589844 67.375 C 32.488281 67.839844 31.339844 67.558594 30.453125 66.777344 L 27.582031 64.253906 C 25.289062 62.234375 22.992188 60.214844 20.707031 58.1875 C 17.945312 55.753906 15.183594 53.3125 12.414062 50.878906 C 10.027344 48.777344 7.632812 46.671875 5.246094 44.5625 C 4.082031 43.535156 2.890625 42.535156 1.75 41.476562 L 1.703125 41.433594 C 0.578125 40.4375 0.609375 38.371094 1.703125 37.378906 C 2.660156 36.511719 3.617188 35.640625 4.570312 34.777344 C 6.859375 32.703125 9.144531 30.621094 11.425781 28.550781 C 14.1875 26.039062 16.957031 23.53125 19.71875 21.015625 C 22.113281 18.835938 24.515625 16.660156 26.910156 14.480469 C 28.074219 13.425781 29.226562 12.355469 30.398438 11.3125 L 30.445312 11.269531 C 31.003906 10.757812 31.699219 10.425781 32.472656 10.425781 C 33.175781 10.425781 34.015625 10.742188 34.5 11.269531 C 35.539062 12.347656 35.714844 14.230469 34.527344 15.308594 Z M 34.527344 15.308594 " fill-opacity="1" fill-rule="nonzero"/></svg>