<?xml version="1.0" encoding="UTF-8" standalone="no"?>
<svg
   width="38"
   zoomAndPan="magnify"
   viewBox="0 0 28.5 28.499999"
   height="38"
   preserveAspectRatio="xMidYMid"
   version="1.0"
   id="svg28"
   sodipodi:docname="enter_profile (thin).svg"
   inkscape:version="1.2.1 (9c6d41e410, 2022-07-14)"
   xmlns:inkscape="http://www.inkscape.org/namespaces/inkscape"
   xmlns:sodipodi="http://sodipodi.sourceforge.net/DTD/sodipodi-0.dtd"
   xmlns="http://www.w3.org/2000/svg"
   xmlns:svg="http://www.w3.org/2000/svg">
  <sodipodi:namedview
     id="namedview30"
     pagecolor="#ffffff"
     bordercolor="#111111"
     borderopacity="1"
     inkscape:showpageshadow="0"
     inkscape:pageopacity="0"
     inkscape:pagecheckerboard="1"
     inkscape:deskcolor="#d1d1d1"
     showgrid="false"
     inkscape:zoom="20.54"
     inkscape:cx="8.0574489"
     inkscape:cy="14.970789"
     inkscape:window-width="2560"
     inkscape:window-height="1361"
     inkscape:window-x="-9"
     inkscape:window-y="-9"
     inkscape:window-maximized="1"
     inkscape:current-layer="svg28" />
  <defs
     id="defs20">
    <clipPath
       clipPathUnits="userSpaceOnUse"
       id="clipPath9981">
      <g
         id="g9985"
         style="stroke-width:1">
        <path
           d="M -0.0069841,-0.00698413 H 28.488317 V 28.488317 H -0.0069841 Z m 0,0"
           clip-rule="nonzero"
           id="path9983"
           style="stroke-width:1" />
      </g>
    </clipPath>
    <clipPath
       clipPathUnits="userSpaceOnUse"
       id="clipPath9987">
      <g
         id="g9991"
         style="stroke-width:1">
        <path
           d="M -0.0069841,-0.00698413 H 28.488317 V 28.488317 H -0.0069841 Z m 0,0"
           clip-rule="nonzero"
           id="path9989"
           style="stroke-width:1" />
      </g>
    </clipPath>
    <clipPath
       clipPathUnits="userSpaceOnUse"
       id="clipPath10585">
      <path
         style="fill:#5271ff;fill-opacity:1;stroke:none;stroke-width:0.75;stroke-linecap:butt;stroke-linejoin:miter;stroke-dasharray:none;stroke-opacity:1;paint-order:normal"
         d="M 0,0 H 28.481012 V 28.517526 H -0.03651412 Z"
         id="path10587" />
    </clipPath>
    <clipPath
       clipPathUnits="userSpaceOnUse"
       id="clipPath10589">
      <path
         style="fill:#5271ff;fill-opacity:1;stroke:none;stroke-width:0.75;stroke-linecap:butt;stroke-linejoin:miter;stroke-dasharray:none;stroke-opacity:1;paint-order:normal"
         d="M 0,0 H 28.481012 V 28.517526 H -0.03651412 Z"
         id="path10591" />
    </clipPath>
    <clipPath
       clipPathUnits="userSpaceOnUse"
       id="clipPath10593">
      <path
         style="fill:#5271ff;fill-opacity:1;stroke:none;stroke-width:0.75;stroke-linecap:butt;stroke-linejoin:miter;stroke-dasharray:none;stroke-opacity:1;paint-order:normal"
         d="M 0,0 H 28.481012 V 28.517526 H -0.03651412 Z"
         id="path10595" />
    </clipPath>
    <clipPath
       clipPathUnits="userSpaceOnUse"
       id="clipPath10597">
      <path
         style="fill:#5271ff;fill-opacity:1;stroke:none;stroke-width:0.75;stroke-linecap:butt;stroke-linejoin:miter;stroke-dasharray:none;stroke-opacity:1;paint-order:normal"
         d="M 0,0 H 28.481012 V 28.517526 H -0.03651412 Z"
         id="path10599" />
    </clipPath>
    <clipPath
       clipPathUnits="userSpaceOnUse"
       id="clipPath10601">
      <path
         style="fill:#5271ff;fill-opacity:1;stroke:none;stroke-width:0.75;stroke-linecap:butt;stroke-linejoin:miter;stroke-dasharray:none;stroke-opacity:1;paint-order:normal"
         d="M -31.292599,-8.1791623 H -2.8115872 V 20.338364 H -31.329113 Z"
         id="path10603" />
    </clipPath>
    <clipPath
       clipPathUnits="userSpaceOnUse"
       id="clipPath1723">
      <path
         style="fill:#5271ff;stroke-width:0.75"
         d="M -0.29211294,-1.2049659 28.225413,-1.24148 V 27.349075 H -0.29211294 Z"
         id="path1725" />
    </clipPath>
    <clipPath
       clipPathUnits="userSpaceOnUse"
       id="clipPath1727">
      <path
         style="fill:#5271ff;stroke-width:0.75"
         d="M 0.10954235,-0.29211295 28.627069,-0.32862706 V 28.261928 H 0.10954235 Z"
         id="path1729" />
    </clipPath>
    <clipPath
       clipPathUnits="userSpaceOnUse"
       id="clipPath1731">
      <path
         style="fill:#5271ff;stroke-width:0.75"
         d="M 0.10954235,-0.29211295 28.627069,-0.32862706 V 28.261928 H 0.10954235 Z"
         id="path1733" />
    </clipPath>
    <clipPath
       clipPathUnits="userSpaceOnUse"
       id="clipPath1735">
      <path
         style="fill:#5271ff;stroke-width:0.75"
         d="M 0,0.07302823 28.517526,0.03651412 V 28.627069 H 0 Z"
         id="path1737" />
    </clipPath>
  </defs>
  <ellipse
     style="fill:none;fill-opacity:1;stroke:#5271ff;stroke-width:0.844207;stroke-linecap:butt;stroke-linejoin:miter;stroke-dasharray:none;stroke-opacity:1;paint-order:normal"
     id="path9921"
     cx="13.94286"
     cy="26.94651"
     rx="10.678923"
     ry="10.727952"
     clip-path="url(#clipPath1723)"
     transform="matrix(0.95870909,0,0,0.99614668,1.105168,0.65510498)" />
  <path
     fill="#5271ff"
     d="M 22.951638,1.296875e-8 H 5.5541391 C 2.4915929,1.296875e-8 4.015625e-8,2.4915929 4.015625e-8,5.5541391 V 22.951638 C 4.015625e-8,26.014184 2.4915929,28.505777 5.5541391,28.505777 H 22.951638 c 3.062546,0 5.554139,-2.491593 5.554139,-5.554139 V 5.5541391 C 28.505777,2.4915929 26.014184,1.296875e-8 22.951638,1.296875e-8 Z M 5.5541391,27.039107 c -0.2828575,0 -0.5587314,-0.02794 -0.8241288,-0.08206 v -1.684925 c 0,-4.913344 3.9984217,-8.911765 8.9117657,-8.911765 h 1.222225 c 4.913344,0 8.911766,3.998421 8.911766,8.911765 v 1.684925 c -0.265398,0.05413 -0.541271,0.08206 -0.824129,0.08206 z M 27.039107,22.951638 c 0,1.407305 -0.714129,2.650482 -1.798417,3.385563 v -1.065082 c 0,-5.721759 -4.654931,-10.376689 -10.376689,-10.376689 h -1.222225 c -5.7217585,0 -10.3766896,4.65493 -10.3766896,10.376689 v 1.065082 C 2.1807984,25.600374 1.4666699,24.358943 1.4666699,22.951638 V 5.5541391 c 0,-2.2541316 1.8333376,-4.0874692 4.0874692,-4.0874692 H 22.951638 c 2.254132,0 4.087469,1.8333376 4.087469,4.0874692 z m 0,0"
     fill-opacity="1"
     fill-rule="nonzero"
     id="path22"
     style="stroke:none;stroke-width:0;stroke-dasharray:none;stroke-opacity:1;paint-order:fill markers stroke"
     clip-path="url(#clipPath10601)"
     transform="translate(31.292599,8.1791623)" />
  <rect
     style="fill:none;fill-opacity:1;stroke:#5271ff;stroke-width:0.75145;stroke-dasharray:none;stroke-opacity:1;paint-order:fill markers stroke"
     id="rect9154"
     width="27.714212"
     height="27.677704"
     x="0.43816885"
     y="0.43816948"
     ry="4.7833495"
     rx="4.6007786"
     clip-path="url(#clipPath1735)"
     transform="matrix(1,0,0,0.99614668,0,0.03675691)" />
  <ellipse
     style="fill:none;stroke:#5271ff;stroke-width:0.825;stroke-dasharray:none;stroke-opacity:1"
     id="path921"
     cx="14.331792"
     cy="9.2210445"
     rx="5.25"
     ry="5.2297702" />
</svg>
