<?xml version="1.0" encoding="UTF-8" standalone="no"?>
<svg
   width="38"
   zoomAndPan="magnify"
   viewBox="0 0 28.5 28.499999"
   height="38"
   preserveAspectRatio="xMidYMid"
   version="1.0"
   id="svg1994"
   sodipodi:docname="exit.svg"
   inkscape:version="1.2.1 (9c6d41e410, 2022-07-14)"
   xmlns:inkscape="http://www.inkscape.org/namespaces/inkscape"
   xmlns:sodipodi="http://sodipodi.sourceforge.net/DTD/sodipodi-0.dtd"
   xmlns="http://www.w3.org/2000/svg"
   xmlns:svg="http://www.w3.org/2000/svg">
  <sodipodi:namedview
     id="namedview1996"
     pagecolor="#ffffff"
     bordercolor="#111111"
     borderopacity="1"
     inkscape:showpageshadow="0"
     inkscape:pageopacity="0"
     inkscape:pagecheckerboard="1"
     inkscape:deskcolor="#d1d1d1"
     showgrid="false"
     inkscape:zoom="20.54"
     inkscape:cx="22.103213"
     inkscape:cy="19.255112"
     inkscape:window-width="1751"
     inkscape:window-height="1243"
     inkscape:window-x="347"
     inkscape:window-y="21"
     inkscape:window-maximized="0"
     inkscape:current-layer="svg1994" />
  <defs
     id="defs1984">
    <clipPath
       id="c77fb9f9cc">
      <path
         d="m 17,3.9375 h 58 v 63.75 H 17 Z m 0,0"
         clip-rule="nonzero"
         id="path1981" />
    </clipPath>
  </defs>
  <path
     fill="#5271ff"
     d="M 27.896705,14.987973 H 9.4885677 c -0.3273838,0 -0.5930231,-0.324311 -0.5930231,-0.723598 0,-0.399286 0.2656393,-0.723598 0.5930231,-0.723598 H 27.896705 c 0.327384,0 0.593023,0.324312 0.593023,0.723598 0,0.399287 -0.265639,0.723598 -0.593023,0.723598"
     fill-opacity="1"
     fill-rule="nonzero"
     id="path1986"
     style="stroke-width:1" />
  <path
     fill="#5271ff"
     d="m 22.034883,20.740145 c -0.183079,0 -0.367902,-0.07149 -0.509134,-0.212721 -0.280722,-0.282465 -0.280722,-0.739291 0,-1.021756 l 5.223856,-5.241293 -5.223856,-5.2395488 c -0.280722,-0.2842087 -0.280722,-0.7410344 0,-1.0234995 0.280721,-0.2824646 0.737546,-0.2824646 1.018268,0 l 5.734735,5.7521703 c 0.282465,0.282466 0.282465,0.73929 0,1.021756 l -5.734735,5.752171 c -0.139489,0.141237 -0.324311,0.212721 -0.509134,0.212721"
     fill-opacity="1"
     fill-rule="nonzero"
     id="path1988"
     style="stroke-width:1" />
  <g
     clip-path="url(#c77fb9f9cc)"
     id="g1992"
     transform="matrix(-0.44636426,0,0,0.44636426,33.468726,-1.7227887)"
     style="stroke-width:2.23976;stroke-dasharray:none">
    <path
       fill="#5271ff"
       d="m 67.519531,67.691406 -26.177697,-3e-6 c -4.105468,-10e-7 -7.449218,-3.347656 -7.449218,-7.464844 V 47.0625 c 0,-0.894531 0.722656,-1.621094 1.617187,-1.621094 0.890625,0 1.613281,0.726563 1.613281,1.621094 v 13.164062 c 0,2.328126 1.894532,4.226562 4.21875,4.226563 l 26.177697,3e-6 c 2.324219,0 4.214844,-1.898437 4.214844,-4.226563 V 11.40625 c 0,-2.328125 -1.890625,-4.226562 -4.214844,-4.226562 l -26.177697,-4e-7 c -2.324218,0 -4.21875,1.898437 -4.21875,4.2265624 v 13.167969 c 0,0.894531 -0.722656,1.617187 -1.613281,1.617187 -0.894531,0 -1.617187,-0.722656 -1.617187,-1.617187 V 11.40625 c 0,-4.117188 3.34375,-7.464844 7.449218,-7.464844 l 26.177697,0 c 4.105469,0 7.445313,3.347656 7.445313,7.464844 v 48.820312 c 0,4.117188 -3.339844,7.464844 -7.445313,7.464844"
       fill-opacity="1"
       fill-rule="nonzero"
       id="path1990"
       style="stroke-width:2.23976;stroke-dasharray:none"
       sodipodi:nodetypes="csssssssssssssssssssssc" />
  </g>
</svg>
