<svg xmlns="http://www.w3.org/2000/svg" xmlns:xlink="http://www.w3.org/1999/xlink" width="500" zoomAndPan="magnify" viewBox="0 0 375 374.999991" height="500" preserveAspectRatio="xMidYMid meet" version="1.0"><path fill="#5271ff" d="M 147.605469 262.1875 L 177.082031 291.667969 L 281.25 187.5 L 177.082031 83.332031 L 147.605469 112.8125 L 201.457031 166.667969 L 0 166.667969 L 0 208.332031 L 201.457031 208.332031 Z M 333.332031 0 L 41.667969 0 C 18.644531 0 0 18.644531 0 41.667969 L 0 125 L 41.667969 125 L 41.667969 41.667969 L 333.332031 41.667969 L 333.332031 333.332031 L 41.667969 333.332031 L 41.667969 250 L 0 250 L 0 333.332031 C 0 356.355469 18.644531 375 41.667969 375 L 333.332031 375 C 356.355469 375 375 356.355469 375 333.332031 L 375 41.667969 C 375 18.644531 356.355469 0 333.332031 0 Z M 333.332031 0 " fill-opacity="1" fill-rule="nonzero"/></svg>