<svg xmlns="http://www.w3.org/2000/svg" xmlns:xlink="http://www.w3.org/1999/xlink" width="500" zoomAndPan="magnify" viewBox="0 0 375 37.5" height="50" preserveAspectRatio="xMidYMid meet" version="1.0"><defs><g/></defs><g fill="#000000" fill-opacity="1"><g transform="translate(6.337003, 29.965763)"><g><path d="M 14.515625 0 L 14.515625 -9.21875 L 5.34375 -9.21875 L 5.34375 0 L 2.65625 0 L 2.65625 -20.140625 L 5.34375 -20.140625 L 5.34375 -11.65625 L 14.515625 -11.65625 L 14.515625 -20.140625 L 17.203125 -20.140625 L 17.203125 0 Z M 14.515625 0 "/></g></g></g><g fill="#000000" fill-opacity="1"><g transform="translate(32.900326, 29.965763)"><g><path d="M 2.65625 0 L 2.65625 -20.140625 L 14.96875 -20.140625 L 14.96875 -17.71875 L 5.34375 -17.71875 L 5.34375 -11.828125 L 13.5625 -11.828125 L 13.5625 -9.390625 L 5.34375 -9.390625 L 5.34375 -2.453125 L 14.96875 -2.453125 L 14.96875 0 Z M 2.65625 0 "/></g></g></g><g fill="#000000" fill-opacity="1"><g transform="translate(56.392496, 29.965763)"><g><path d="M 0.75 0 L 7.625 -20.140625 L 11.125 -20.140625 L 18 0 L 15.171875 0 L 13.421875 -5.234375 L 5.21875 -5.234375 L 3.5 0 Z M 6.03125 -7.6875 L 12.578125 -7.6875 L 9.296875 -17.5 Z M 6.03125 -7.6875 "/></g></g></g><g fill="#000000" fill-opacity="1"><g transform="translate(81.849619, 29.965763)"><g><path d="M 2.65625 0 L 2.65625 -20.140625 L 5.34375 -20.140625 L 5.34375 -2.453125 L 14.453125 -2.453125 L 14.453125 0 Z M 2.65625 0 "/></g></g></g><g fill="#000000" fill-opacity="1"><g transform="translate(103.667931, 29.965763)"><g><path d="M 9.953125 -17.71875 L 9.953125 0 L 7.28125 0 L 7.28125 -17.71875 L 0.59375 -17.71875 L 0.59375 -20.140625 L 16.640625 -20.140625 L 16.640625 -17.71875 Z M 9.953125 -17.71875 "/></g></g></g><g fill="#000000" fill-opacity="1"><g transform="translate(127.611308, 29.965763)"><g><path d="M 14.515625 0 L 14.515625 -9.21875 L 5.34375 -9.21875 L 5.34375 0 L 2.65625 0 L 2.65625 -20.140625 L 5.34375 -20.140625 L 5.34375 -11.65625 L 14.515625 -11.65625 L 14.515625 -20.140625 L 17.203125 -20.140625 L 17.203125 0 Z M 14.515625 0 "/></g></g></g><g fill="#000000" fill-opacity="1"><g transform="translate(154.174631, 29.965763)"><g/></g></g><g fill="#000000" fill-opacity="1"><g transform="translate(168.933653, 29.965763)"><g><path d="M 16.296875 0 L 14.9375 -1.609375 C 13.945312 -0.847656 12.988281 -0.316406 12.0625 -0.015625 C 11.144531 0.273438 10.15625 0.421875 9.09375 0.421875 C 6.882812 0.421875 5.148438 -0.0859375 3.890625 -1.109375 C 2.628906 -2.140625 2 -3.515625 2 -5.234375 C 2 -6.097656 2.132812 -6.847656 2.40625 -7.484375 C 2.675781 -8.117188 3.101562 -8.710938 3.6875 -9.265625 C 4.28125 -9.828125 5.28125 -10.523438 6.6875 -11.359375 C 6.019531 -12.109375 5.457031 -12.867188 5 -13.640625 C 4.550781 -14.421875 4.328125 -15.203125 4.328125 -15.984375 C 4.328125 -19.035156 6.125 -20.5625 9.71875 -20.5625 C 11.300781 -20.5625 12.523438 -20.195312 13.390625 -19.46875 C 14.265625 -18.738281 14.703125 -17.804688 14.703125 -16.671875 C 14.703125 -15.585938 14.351562 -14.585938 13.65625 -13.671875 C 12.957031 -12.753906 11.847656 -11.835938 10.328125 -10.921875 L 15.140625 -5.21875 C 16.035156 -6.257812 16.671875 -7.570312 17.046875 -9.15625 L 19.3125 -8.59375 C 18.707031 -6.34375 17.835938 -4.597656 16.703125 -3.359375 L 19.546875 0 Z M 12.140625 -16.640625 C 12.140625 -17.210938 11.929688 -17.6875 11.515625 -18.0625 C 11.097656 -18.445312 10.472656 -18.640625 9.640625 -18.640625 C 8.722656 -18.640625 8.035156 -18.421875 7.578125 -17.984375 C 7.117188 -17.546875 6.890625 -16.914062 6.890625 -16.09375 C 6.890625 -15.582031 7.085938 -15.03125 7.484375 -14.4375 C 7.878906 -13.851562 8.332031 -13.253906 8.84375 -12.640625 C 9.875 -13.210938 10.679688 -13.84375 11.265625 -14.53125 C 11.847656 -15.226562 12.140625 -15.929688 12.140625 -16.640625 Z M 8.171875 -9.640625 C 7.160156 -8.972656 6.421875 -8.425781 5.953125 -8 C 5.492188 -7.582031 5.171875 -7.171875 4.984375 -6.765625 C 4.804688 -6.359375 4.71875 -5.832031 4.71875 -5.1875 C 4.71875 -4.164062 5.125 -3.335938 5.9375 -2.703125 C 6.757812 -2.078125 7.832031 -1.765625 9.15625 -1.765625 C 10.28125 -1.765625 11.191406 -1.941406 11.890625 -2.296875 C 12.585938 -2.660156 13.128906 -2.992188 13.515625 -3.296875 Z M 8.171875 -9.640625 "/></g></g></g><g fill="#000000" fill-opacity="1"><g transform="translate(196.38484, 29.965763)"><g/></g></g><g fill="#000000" fill-opacity="1"><g transform="translate(211.14385, 29.965763)"><g><path d="M 5.34375 -17.71875 L 5.34375 -11.828125 L 13.421875 -11.828125 L 13.421875 -9.390625 L 5.34375 -9.390625 L 5.34375 0 L 2.65625 0 L 2.65625 -20.140625 L 14.84375 -20.140625 L 14.84375 -17.71875 Z M 5.34375 -17.71875 "/></g></g></g><g fill="#000000" fill-opacity="1"><g transform="translate(233.981039, 29.965763)"><g><path d="M 9.71875 0 L 1.484375 0 L 1.484375 -2.328125 L 4.265625 -2.328125 L 4.265625 -17.859375 L 1.484375 -17.859375 L 1.484375 -20.140625 L 9.71875 -20.140625 L 9.71875 -17.859375 L 6.9375 -17.859375 L 6.9375 -2.328125 L 9.71875 -2.328125 Z M 9.71875 0 "/></g></g></g><g fill="#000000" fill-opacity="1"><g transform="translate(251.898544, 29.965763)"><g><path d="M 9.953125 -17.71875 L 9.953125 0 L 7.28125 0 L 7.28125 -17.71875 L 0.59375 -17.71875 L 0.59375 -20.140625 L 16.640625 -20.140625 L 16.640625 -17.71875 Z M 9.953125 -17.71875 "/></g></g></g><g fill="#000000" fill-opacity="1"><g transform="translate(275.841911, 29.965763)"><g><path d="M 14.34375 0 L 5.234375 -17.296875 L 5.234375 0 L 2.65625 0 L 2.65625 -20.140625 L 6.59375 -20.140625 L 14.9375 -4.328125 L 14.9375 -20.140625 L 17.53125 -20.140625 L 17.53125 0 Z M 14.34375 0 "/></g></g></g><g fill="#000000" fill-opacity="1"><g transform="translate(302.725449, 29.965763)"><g><path d="M 2.65625 0 L 2.65625 -20.140625 L 14.96875 -20.140625 L 14.96875 -17.71875 L 5.34375 -17.71875 L 5.34375 -11.828125 L 13.5625 -11.828125 L 13.5625 -9.390625 L 5.34375 -9.390625 L 5.34375 -2.453125 L 14.96875 -2.453125 L 14.96875 0 Z M 2.65625 0 "/></g></g></g><g fill="#000000" fill-opacity="1"><g transform="translate(326.217609, 29.965763)"><g><path d="M 16.1875 -5.515625 C 16.1875 -3.628906 15.566406 -2.164062 14.328125 -1.125 C 13.085938 -0.09375 11.28125 0.421875 8.90625 0.421875 C 7.09375 0.421875 5.578125 0.101562 4.359375 -0.53125 C 3.148438 -1.175781 2.160156 -2.171875 1.390625 -3.515625 L 3.578125 -4.984375 C 4.710938 -2.972656 6.46875 -1.96875 8.84375 -1.96875 C 10.269531 -1.96875 11.394531 -2.265625 12.21875 -2.859375 C 13.039062 -3.453125 13.453125 -4.269531 13.453125 -5.3125 C 13.453125 -5.90625 13.320312 -6.40625 13.0625 -6.8125 C 12.800781 -7.21875 12.457031 -7.554688 12.03125 -7.828125 C 11.601562 -8.109375 11.109375 -8.332031 10.546875 -8.5 C 9.992188 -8.675781 9.421875 -8.84375 8.828125 -9 C 7.835938 -9.238281 6.914062 -9.484375 6.0625 -9.734375 C 5.207031 -9.992188 4.460938 -10.328125 3.828125 -10.734375 C 3.203125 -11.148438 2.707031 -11.675781 2.34375 -12.3125 C 1.988281 -12.945312 1.8125 -13.765625 1.8125 -14.765625 C 1.8125 -16.546875 2.382812 -17.957031 3.53125 -19 C 4.6875 -20.039062 6.410156 -20.5625 8.703125 -20.5625 C 10.523438 -20.5625 11.976562 -20.222656 13.0625 -19.546875 C 14.15625 -18.878906 15.019531 -18.015625 15.65625 -16.953125 L 13.515625 -15.4375 C 12.984375 -16.3125 12.34375 -16.988281 11.59375 -17.46875 C 10.84375 -17.945312 9.878906 -18.1875 8.703125 -18.1875 C 7.390625 -18.1875 6.367188 -17.894531 5.640625 -17.3125 C 4.921875 -16.738281 4.5625 -15.96875 4.5625 -15 C 4.5625 -14.476562 4.671875 -14.039062 4.890625 -13.6875 C 5.109375 -13.34375 5.421875 -13.050781 5.828125 -12.8125 C 6.234375 -12.570312 6.738281 -12.367188 7.34375 -12.203125 C 7.945312 -12.035156 8.640625 -11.851562 9.421875 -11.65625 C 10.328125 -11.414062 11.191406 -11.160156 12.015625 -10.890625 C 12.847656 -10.628906 13.570312 -10.28125 14.1875 -9.84375 C 14.800781 -9.40625 15.285156 -8.84375 15.640625 -8.15625 C 16.003906 -7.46875 16.1875 -6.585938 16.1875 -5.515625 Z M 16.1875 -5.515625 "/></g></g></g><g fill="#000000" fill-opacity="1"><g transform="translate(350.786868, 29.965763)"><g><path d="M 16.1875 -5.515625 C 16.1875 -3.628906 15.566406 -2.164062 14.328125 -1.125 C 13.085938 -0.09375 11.28125 0.421875 8.90625 0.421875 C 7.09375 0.421875 5.578125 0.101562 4.359375 -0.53125 C 3.148438 -1.175781 2.160156 -2.171875 1.390625 -3.515625 L 3.578125 -4.984375 C 4.710938 -2.972656 6.46875 -1.96875 8.84375 -1.96875 C 10.269531 -1.96875 11.394531 -2.265625 12.21875 -2.859375 C 13.039062 -3.453125 13.453125 -4.269531 13.453125 -5.3125 C 13.453125 -5.90625 13.320312 -6.40625 13.0625 -6.8125 C 12.800781 -7.21875 12.457031 -7.554688 12.03125 -7.828125 C 11.601562 -8.109375 11.109375 -8.332031 10.546875 -8.5 C 9.992188 -8.675781 9.421875 -8.84375 8.828125 -9 C 7.835938 -9.238281 6.914062 -9.484375 6.0625 -9.734375 C 5.207031 -9.992188 4.460938 -10.328125 3.828125 -10.734375 C 3.203125 -11.148438 2.707031 -11.675781 2.34375 -12.3125 C 1.988281 -12.945312 1.8125 -13.765625 1.8125 -14.765625 C 1.8125 -16.546875 2.382812 -17.957031 3.53125 -19 C 4.6875 -20.039062 6.410156 -20.5625 8.703125 -20.5625 C 10.523438 -20.5625 11.976562 -20.222656 13.0625 -19.546875 C 14.15625 -18.878906 15.019531 -18.015625 15.65625 -16.953125 L 13.515625 -15.4375 C 12.984375 -16.3125 12.34375 -16.988281 11.59375 -17.46875 C 10.84375 -17.945312 9.878906 -18.1875 8.703125 -18.1875 C 7.390625 -18.1875 6.367188 -17.894531 5.640625 -17.3125 C 4.921875 -16.738281 4.5625 -15.96875 4.5625 -15 C 4.5625 -14.476562 4.671875 -14.039062 4.890625 -13.6875 C 5.109375 -13.34375 5.421875 -13.050781 5.828125 -12.8125 C 6.234375 -12.570312 6.738281 -12.367188 7.34375 -12.203125 C 7.945312 -12.035156 8.640625 -11.851562 9.421875 -11.65625 C 10.328125 -11.414062 11.191406 -11.160156 12.015625 -10.890625 C 12.847656 -10.628906 13.570312 -10.28125 14.1875 -9.84375 C 14.800781 -9.40625 15.285156 -8.84375 15.640625 -8.15625 C 16.003906 -7.46875 16.1875 -6.585938 16.1875 -5.515625 Z M 16.1875 -5.515625 "/></g></g></g></svg>