<svg xmlns="http://www.w3.org/2000/svg" xmlns:xlink="http://www.w3.org/1999/xlink" width="200" zoomAndPan="magnify" viewBox="0 0 150 74.999997" height="100" preserveAspectRatio="xMidYMid meet" version="1.0"><defs><g/><clipPath id="31fa1e6c9f"><path d="M 89.773438 49.945312 L 98.023438 49.945312 L 98.023438 61.945312 L 89.773438 61.945312 Z M 89.773438 49.945312 " clip-rule="nonzero"/></clipPath><clipPath id="fefd85fe8f"><path d="M 89.773438 0 L 98.023438 0 L 98.023438 32.25 L 89.773438 32.25 Z M 89.773438 0 " clip-rule="nonzero"/></clipPath><clipPath id="3e2ea1bc85"><path d="M 90.191406 0 L 125.441406 0 L 125.441406 5.996094 L 90.191406 5.996094 Z M 90.191406 0 " clip-rule="nonzero"/></clipPath><clipPath id="19711e423a"><path d="M 89.550781 26.066406 L 121.050781 26.066406 L 121.050781 32.066406 L 89.550781 32.066406 Z M 89.550781 26.066406 " clip-rule="nonzero"/></clipPath><clipPath id="4ac6bd9167"><path d="M 29.839844 3.117188 L 39.589844 3.117188 L 39.589844 32.367188 L 29.839844 32.367188 Z M 29.839844 3.117188 " clip-rule="nonzero"/></clipPath><clipPath id="a732a235c8"><path d="M 74.480469 3.117188 L 84.230469 3.117188 L 84.230469 32.367188 L 74.480469 32.367188 Z M 74.480469 3.117188 " clip-rule="nonzero"/></clipPath><clipPath id="52e90871a8"><path d="M 74.480469 50.25 L 84.230469 50.25 L 84.230469 75 L 74.480469 75 Z M 74.480469 50.25 " clip-rule="nonzero"/></clipPath><clipPath id="de379dee4a"><path d="M 29.839844 50.25 L 39.589844 50.25 L 39.589844 75 L 29.839844 75 Z M 29.839844 50.25 " clip-rule="nonzero"/></clipPath></defs><g clip-path="url(#31fa1e6c9f)"><path fill="#adacbc" d="M 89.773438 49.953125 L 98.023438 49.953125 L 98.023438 61.9375 L 89.773438 61.9375 L 89.773438 49.953125 " fill-opacity="1" fill-rule="nonzero"/></g><g fill="#000000" fill-opacity="1"><g transform="translate(0.486231, 45.723562)"><g><path d="M 5.96875 0 L 5.96875 -3.796875 L 2.203125 -3.796875 L 2.203125 0 L 1.09375 0 L 1.09375 -8.28125 L 2.203125 -8.28125 L 2.203125 -4.796875 L 5.96875 -4.796875 L 5.96875 -8.28125 L 7.078125 -8.28125 L 7.078125 0 Z M 5.96875 0 "/></g></g></g><g fill="#000000" fill-opacity="1"><g transform="translate(11.411462, 45.723562)"><g><path d="M 1.09375 0 L 1.09375 -8.28125 L 6.15625 -8.28125 L 6.15625 -7.28125 L 2.203125 -7.28125 L 2.203125 -4.875 L 5.578125 -4.875 L 5.578125 -3.859375 L 2.203125 -3.859375 L 2.203125 -1 L 6.15625 -1 L 6.15625 0 Z M 1.09375 0 "/></g></g></g><g fill="#000000" fill-opacity="1"><g transform="translate(21.073418, 45.723562)"><g><path d="M 0.3125 0 L 3.140625 -8.28125 L 4.578125 -8.28125 L 7.40625 0 L 6.234375 0 L 5.515625 -2.15625 L 2.140625 -2.15625 L 1.4375 0 Z M 2.484375 -3.15625 L 5.171875 -3.15625 L 3.828125 -7.203125 Z M 2.484375 -3.15625 "/></g></g></g><g fill="#000000" fill-opacity="1"><g transform="translate(31.54363, 45.723562)"><g><path d="M 1.09375 0 L 1.09375 -8.28125 L 2.203125 -8.28125 L 2.203125 -1 L 5.953125 -1 L 5.953125 0 Z M 1.09375 0 "/></g></g></g><g fill="#000000" fill-opacity="1"><g transform="translate(40.517073, 45.723562)"><g><path d="M 4.09375 -7.28125 L 4.09375 0 L 3 0 L 3 -7.28125 L 0.25 -7.28125 L 0.25 -8.28125 L 6.84375 -8.28125 L 6.84375 -7.28125 Z M 4.09375 -7.28125 "/></g></g></g><g fill="#000000" fill-opacity="1"><g transform="translate(50.36463, 45.723562)"><g><path d="M 5.96875 0 L 5.96875 -3.796875 L 2.203125 -3.796875 L 2.203125 0 L 1.09375 0 L 1.09375 -8.28125 L 2.203125 -8.28125 L 2.203125 -4.796875 L 5.96875 -4.796875 L 5.96875 -8.28125 L 7.078125 -8.28125 L 7.078125 0 Z M 5.96875 0 "/></g></g></g><g fill="#000000" fill-opacity="1"><g transform="translate(61.289862, 45.723562)"><g/></g></g><g fill="#000000" fill-opacity="1"><g transform="translate(67.359569, 45.723562)"><g><path d="M 6.703125 0 L 6.140625 -0.671875 C 5.734375 -0.347656 5.335938 -0.125 4.953125 0 C 4.578125 0.113281 4.175781 0.171875 3.75 0.171875 C 2.832031 0.171875 2.113281 -0.0351562 1.59375 -0.453125 C 1.082031 -0.878906 0.828125 -1.445312 0.828125 -2.15625 C 0.828125 -2.507812 0.878906 -2.816406 0.984375 -3.078125 C 1.097656 -3.335938 1.273438 -3.582031 1.515625 -3.8125 C 1.753906 -4.039062 2.164062 -4.328125 2.75 -4.671875 C 2.476562 -4.984375 2.25 -5.296875 2.0625 -5.609375 C 1.875 -5.929688 1.78125 -6.253906 1.78125 -6.578125 C 1.78125 -7.835938 2.519531 -8.46875 4 -8.46875 C 4.65625 -8.46875 5.160156 -8.316406 5.515625 -8.015625 C 5.867188 -7.710938 6.046875 -7.328125 6.046875 -6.859375 C 6.046875 -6.410156 5.898438 -6 5.609375 -5.625 C 5.328125 -5.25 4.875 -4.867188 4.25 -4.484375 L 6.234375 -2.140625 C 6.597656 -2.578125 6.859375 -3.117188 7.015625 -3.765625 L 7.953125 -3.53125 C 7.691406 -2.613281 7.332031 -1.898438 6.875 -1.390625 L 8.046875 0 Z M 5 -6.84375 C 5 -7.082031 4.910156 -7.28125 4.734375 -7.4375 C 4.566406 -7.59375 4.3125 -7.671875 3.96875 -7.671875 C 3.59375 -7.671875 3.304688 -7.578125 3.109375 -7.390625 C 2.921875 -7.210938 2.828125 -6.957031 2.828125 -6.625 C 2.828125 -6.414062 2.910156 -6.1875 3.078125 -5.9375 C 3.242188 -5.695312 3.429688 -5.453125 3.640625 -5.203125 C 4.066406 -5.429688 4.398438 -5.6875 4.640625 -5.96875 C 4.878906 -6.257812 5 -6.550781 5 -6.84375 Z M 3.359375 -3.96875 C 2.941406 -3.695312 2.640625 -3.472656 2.453125 -3.296875 C 2.265625 -3.117188 2.128906 -2.945312 2.046875 -2.78125 C 1.972656 -2.613281 1.9375 -2.394531 1.9375 -2.125 C 1.9375 -1.707031 2.101562 -1.367188 2.4375 -1.109375 C 2.78125 -0.847656 3.222656 -0.71875 3.765625 -0.71875 C 4.234375 -0.71875 4.609375 -0.789062 4.890625 -0.9375 C 5.179688 -1.09375 5.40625 -1.234375 5.5625 -1.359375 Z M 3.359375 -3.96875 "/></g></g></g><g fill="#000000" fill-opacity="1"><g transform="translate(78.650009, 45.723562)"><g/></g></g><g fill="#000000" fill-opacity="1"><g transform="translate(84.719712, 45.723562)"><g><path d="M 2.203125 -7.28125 L 2.203125 -4.875 L 5.515625 -4.875 L 5.515625 -3.859375 L 2.203125 -3.859375 L 2.203125 0 L 1.09375 0 L 1.09375 -8.28125 L 6.109375 -8.28125 L 6.109375 -7.28125 Z M 2.203125 -7.28125 "/></g></g></g><g fill="#000000" fill-opacity="1"><g transform="translate(94.112247, 45.723562)"><g><path d="M 4 0 L 0.609375 0 L 0.609375 -0.953125 L 1.75 -0.953125 L 1.75 -7.34375 L 0.609375 -7.34375 L 0.609375 -8.28125 L 4 -8.28125 L 4 -7.34375 L 2.859375 -7.34375 L 2.859375 -0.953125 L 4 -0.953125 Z M 4 0 "/></g></g></g><g fill="#000000" fill-opacity="1"><g transform="translate(101.481147, 45.723562)"><g><path d="M 4.09375 -7.28125 L 4.09375 0 L 3 0 L 3 -7.28125 L 0.25 -7.28125 L 0.25 -8.28125 L 6.84375 -8.28125 L 6.84375 -7.28125 Z M 4.09375 -7.28125 "/></g></g></g><g fill="#000000" fill-opacity="1"><g transform="translate(111.3287, 45.723562)"><g><path d="M 5.90625 0 L 2.15625 -7.109375 L 2.15625 0 L 1.09375 0 L 1.09375 -8.28125 L 2.71875 -8.28125 L 6.140625 -1.78125 L 6.140625 -8.28125 L 7.203125 -8.28125 L 7.203125 0 Z M 5.90625 0 "/></g></g></g><g fill="#000000" fill-opacity="1"><g transform="translate(122.385644, 45.723562)"><g><path d="M 1.09375 0 L 1.09375 -8.28125 L 6.15625 -8.28125 L 6.15625 -7.28125 L 2.203125 -7.28125 L 2.203125 -4.875 L 5.578125 -4.875 L 5.578125 -3.859375 L 2.203125 -3.859375 L 2.203125 -1 L 6.15625 -1 L 6.15625 0 Z M 1.09375 0 "/></g></g></g><g fill="#000000" fill-opacity="1"><g transform="translate(132.047605, 45.723562)"><g><path d="M 6.65625 -2.265625 C 6.65625 -1.492188 6.398438 -0.894531 5.890625 -0.46875 C 5.378906 -0.0390625 4.640625 0.171875 3.671875 0.171875 C 2.921875 0.171875 2.296875 0.0390625 1.796875 -0.21875 C 1.296875 -0.476562 0.890625 -0.890625 0.578125 -1.453125 L 1.46875 -2.046875 C 1.9375 -1.222656 2.660156 -0.8125 3.640625 -0.8125 C 4.222656 -0.8125 4.679688 -0.929688 5.015625 -1.171875 C 5.359375 -1.421875 5.53125 -1.757812 5.53125 -2.1875 C 5.53125 -2.425781 5.472656 -2.628906 5.359375 -2.796875 C 5.253906 -2.960938 5.113281 -3.101562 4.9375 -3.21875 C 4.769531 -3.332031 4.570312 -3.425781 4.34375 -3.5 C 4.113281 -3.570312 3.875 -3.640625 3.625 -3.703125 C 3.21875 -3.796875 2.835938 -3.894531 2.484375 -4 C 2.140625 -4.113281 1.835938 -4.253906 1.578125 -4.421875 C 1.316406 -4.585938 1.113281 -4.800781 0.96875 -5.0625 C 0.820312 -5.320312 0.75 -5.660156 0.75 -6.078125 C 0.75 -6.804688 0.984375 -7.382812 1.453125 -7.8125 C 1.929688 -8.25 2.640625 -8.46875 3.578125 -8.46875 C 4.328125 -8.46875 4.925781 -8.328125 5.375 -8.046875 C 5.820312 -7.765625 6.175781 -7.410156 6.4375 -6.984375 L 5.5625 -6.359375 C 5.34375 -6.710938 5.078125 -6.988281 4.765625 -7.1875 C 4.460938 -7.382812 4.066406 -7.484375 3.578125 -7.484375 C 3.035156 -7.484375 2.613281 -7.363281 2.3125 -7.125 C 2.019531 -6.882812 1.875 -6.566406 1.875 -6.171875 C 1.875 -5.953125 1.914062 -5.769531 2 -5.625 C 2.09375 -5.488281 2.222656 -5.367188 2.390625 -5.265625 C 2.554688 -5.171875 2.765625 -5.085938 3.015625 -5.015625 C 3.265625 -4.953125 3.550781 -4.878906 3.875 -4.796875 C 4.25 -4.691406 4.601562 -4.582031 4.9375 -4.46875 C 5.28125 -4.363281 5.578125 -4.222656 5.828125 -4.046875 C 6.085938 -3.867188 6.289062 -3.632812 6.4375 -3.34375 C 6.582031 -3.0625 6.65625 -2.703125 6.65625 -2.265625 Z M 6.65625 -2.265625 "/></g></g></g><g fill="#000000" fill-opacity="1"><g transform="translate(142.152603, 45.723562)"><g><path d="M 6.65625 -2.265625 C 6.65625 -1.492188 6.398438 -0.894531 5.890625 -0.46875 C 5.378906 -0.0390625 4.640625 0.171875 3.671875 0.171875 C 2.921875 0.171875 2.296875 0.0390625 1.796875 -0.21875 C 1.296875 -0.476562 0.890625 -0.890625 0.578125 -1.453125 L 1.46875 -2.046875 C 1.9375 -1.222656 2.660156 -0.8125 3.640625 -0.8125 C 4.222656 -0.8125 4.679688 -0.929688 5.015625 -1.171875 C 5.359375 -1.421875 5.53125 -1.757812 5.53125 -2.1875 C 5.53125 -2.425781 5.472656 -2.628906 5.359375 -2.796875 C 5.253906 -2.960938 5.113281 -3.101562 4.9375 -3.21875 C 4.769531 -3.332031 4.570312 -3.425781 4.34375 -3.5 C 4.113281 -3.570312 3.875 -3.640625 3.625 -3.703125 C 3.21875 -3.796875 2.835938 -3.894531 2.484375 -4 C 2.140625 -4.113281 1.835938 -4.253906 1.578125 -4.421875 C 1.316406 -4.585938 1.113281 -4.800781 0.96875 -5.0625 C 0.820312 -5.320312 0.75 -5.660156 0.75 -6.078125 C 0.75 -6.804688 0.984375 -7.382812 1.453125 -7.8125 C 1.929688 -8.25 2.640625 -8.46875 3.578125 -8.46875 C 4.328125 -8.46875 4.925781 -8.328125 5.375 -8.046875 C 5.820312 -7.765625 6.175781 -7.410156 6.4375 -6.984375 L 5.5625 -6.359375 C 5.34375 -6.710938 5.078125 -6.988281 4.765625 -7.1875 C 4.460938 -7.382812 4.066406 -7.484375 3.578125 -7.484375 C 3.035156 -7.484375 2.613281 -7.363281 2.3125 -7.125 C 2.019531 -6.882812 1.875 -6.566406 1.875 -6.171875 C 1.875 -5.953125 1.914062 -5.769531 2 -5.625 C 2.09375 -5.488281 2.222656 -5.367188 2.390625 -5.265625 C 2.554688 -5.171875 2.765625 -5.085938 3.015625 -5.015625 C 3.265625 -4.953125 3.550781 -4.878906 3.875 -4.796875 C 4.25 -4.691406 4.601562 -4.582031 4.9375 -4.46875 C 5.28125 -4.363281 5.578125 -4.222656 5.828125 -4.046875 C 6.085938 -3.867188 6.289062 -3.632812 6.4375 -3.34375 C 6.582031 -3.0625 6.65625 -2.703125 6.65625 -2.265625 Z M 6.65625 -2.265625 "/></g></g></g><g clip-path="url(#fefd85fe8f)"><path fill="#adacbc" d="M 89.773438 0.015625 L 98.023438 0.015625 L 98.023438 32.234375 L 89.773438 32.234375 L 89.773438 0.015625 " fill-opacity="1" fill-rule="nonzero"/></g><g clip-path="url(#3e2ea1bc85)"><path fill="#adacbc" d="M 125.4375 -0.00390625 L 125.4375 5.996094 L 90.199219 5.996094 L 90.199219 -0.00390625 L 125.4375 -0.00390625 " fill-opacity="1" fill-rule="nonzero"/></g><g clip-path="url(#19711e423a)"><path fill="#adacbc" d="M 121.042969 26.066406 L 121.042969 32.066406 L 89.558594 32.066406 L 89.558594 26.066406 L 121.042969 26.066406 " fill-opacity="1" fill-rule="nonzero"/></g><g clip-path="url(#4ac6bd9167)"><path fill="#000000" d="M 39.589844 32.355469 L 29.839844 32.355469 L 29.839844 3.132812 L 39.589844 3.132812 L 39.589844 32.355469 " fill-opacity="1" fill-rule="nonzero"/></g><g clip-path="url(#a732a235c8)"><path fill="#000000" d="M 84.230469 32.355469 L 74.480469 32.355469 L 74.480469 3.132812 L 84.230469 3.132812 L 84.230469 32.355469 " fill-opacity="1" fill-rule="nonzero"/></g><g clip-path="url(#52e90871a8)"><path fill="#000000" d="M 84.230469 74.984375 L 74.480469 74.984375 L 74.480469 50.265625 L 84.230469 50.265625 L 84.230469 74.984375 " fill-opacity="1" fill-rule="nonzero"/></g><g clip-path="url(#de379dee4a)"><path fill="#000000" d="M 39.589844 74.984375 L 29.839844 74.984375 L 29.839844 50.265625 L 39.589844 50.265625 L 39.589844 74.984375 " fill-opacity="1" fill-rule="nonzero"/></g></svg>