<?xml version="1.0" encoding="UTF-8" standalone="no"?>
<svg
   width="196.30516"
   zoomAndPan="magnify"
   viewBox="0 0 147.22887 74.984376"
   height="99.979172"
   preserveAspectRatio="xMidYMid"
   version="1.0"
   id="svg3061"
   sodipodi:docname="Logo_mini.svg"
   inkscape:version="1.2.1 (9c6d41e410, 2022-07-14)"
   xmlns:inkscape="http://www.inkscape.org/namespaces/inkscape"
   xmlns:sodipodi="http://sodipodi.sourceforge.net/DTD/sodipodi-0.dtd"
   xmlns="http://www.w3.org/2000/svg"
   xmlns:svg="http://www.w3.org/2000/svg">
  <sodipodi:namedview
     id="namedview3063"
     pagecolor="#ffffff"
     bordercolor="#111111"
     borderopacity="1"
     inkscape:showpageshadow="0"
     inkscape:pageopacity="0"
     inkscape:pagecheckerboard="1"
     inkscape:deskcolor="#d1d1d1"
     showgrid="false"
     inkscape:zoom="8.055"
     inkscape:cx="94.040968"
     inkscape:cy="50.217256"
     inkscape:window-width="2400"
     inkscape:window-height="1271"
     inkscape:window-x="3191"
     inkscape:window-y="194"
     inkscape:window-maximized="1"
     inkscape:current-layer="svg3061" />
  <defs
     id="defs2903">
    <g
       id="g2877" />
    <clipPath
       id="31fa1e6c9f">
      <path
         d="m 89.773438,49.945312 h 8.25 v 12 h -8.25 z m 0,0"
         clip-rule="nonzero"
         id="path2879" />
    </clipPath>
    <clipPath
       id="fefd85fe8f">
      <path
         d="m 89.773438,0 h 8.25 v 32.25 h -8.25 z m 0,0"
         clip-rule="nonzero"
         id="path2882" />
    </clipPath>
    <clipPath
       id="3e2ea1bc85">
      <path
         d="M 90.191406,0 H 125.44141 V 5.996094 H 90.191406 Z m 0,0"
         clip-rule="nonzero"
         id="path2885" />
    </clipPath>
    <clipPath
       id="19711e423a">
      <path
         d="m 89.550781,26.066406 h 31.499999 v 6 H 89.550781 Z m 0,0"
         clip-rule="nonzero"
         id="path2888" />
    </clipPath>
    <clipPath
       id="4ac6bd9167">
      <path
         d="m 29.839844,3.117188 h 9.75 v 29.25 h -9.75 z m 0,0"
         clip-rule="nonzero"
         id="path2891" />
    </clipPath>
    <clipPath
       id="a732a235c8">
      <path
         d="m 74.480469,3.117188 h 9.75 v 29.25 h -9.75 z m 0,0"
         clip-rule="nonzero"
         id="path2894" />
    </clipPath>
    <clipPath
       id="52e90871a8">
      <path
         d="m 74.480469,50.25 h 9.75 V 75 h -9.75 z m 0,0"
         clip-rule="nonzero"
         id="path2897" />
    </clipPath>
    <clipPath
       id="de379dee4a">
      <path
         d="m 29.839844,50.25 h 9.75 V 75 h -9.75 z m 0,0"
         clip-rule="nonzero"
         id="path2900" />
    </clipPath>
  </defs>
  <g
     clip-path="url(#31fa1e6c9f)"
     id="g2907"
     transform="matrix(1.0225721,0,0,1,-3.606355,0.2793296)"
     style="fill:#6184d0;fill-opacity:1">
    <path
       fill="#adacbc"
       d="m 89.773438,49.953125 h 8.25 V 61.9375 h -8.25 V 49.953125"
       fill-opacity="1"
       fill-rule="nonzero"
       id="path2905"
       style="fill:#6184d0;fill-opacity:1" />
  </g>
  <g
     fill="#000000"
     fill-opacity="1"
     id="g2915"
     transform="translate(-1.579981)">
    <g
       transform="translate(0.486231,45.723562)"
       id="g2913">
      <g
         id="g2911">
        <path
           d="M 5.96875,0 V -3.796875 H 2.203125 V 0 H 1.09375 v -8.28125 h 1.109375 v 3.484375 H 5.96875 V -8.28125 H 7.078125 V 0 Z m 0,0"
           id="path2909" />
      </g>
    </g>
  </g>
  <g
     fill="#000000"
     fill-opacity="1"
     id="g2923"
     transform="translate(-1.579981)">
    <g
       transform="translate(11.411462,45.723562)"
       id="g2921">
      <g
         id="g2919">
        <path
           d="m 1.09375,0 v -8.28125 h 5.0625 v 1 H 2.203125 V -4.875 h 3.375 v 1.015625 h -3.375 V -1 H 6.15625 v 1 z m 0,0"
           id="path2917" />
      </g>
    </g>
  </g>
  <g
     fill="#000000"
     fill-opacity="1"
     id="g2931"
     transform="translate(-1.579981)">
    <g
       transform="translate(21.073418,45.723562)"
       id="g2929">
      <g
         id="g2927">
        <path
           d="m 0.3125,0 2.828125,-8.28125 h 1.4375 L 7.40625,0 H 6.234375 l -0.71875,-2.15625 h -3.375 L 1.4375,0 Z m 2.171875,-3.15625 h 2.6875 l -1.34375,-4.046875 z m 0,0"
           id="path2925" />
      </g>
    </g>
  </g>
  <g
     fill="#000000"
     fill-opacity="1"
     id="g2939"
     transform="translate(-1.579981)">
    <g
       transform="translate(31.54363,45.723562)"
       id="g2937">
      <g
         id="g2935">
        <path
           d="M 1.09375,0 V -8.28125 H 2.203125 V -1 h 3.75 v 1 z m 0,0"
           id="path2933" />
      </g>
    </g>
  </g>
  <g
     fill="#000000"
     fill-opacity="1"
     id="g2947"
     transform="translate(-1.579981)">
    <g
       transform="translate(40.517073,45.723562)"
       id="g2945">
      <g
         id="g2943">
        <path
           d="M 4.09375,-7.28125 V 0 H 3 V -7.28125 H 0.25 v -1 h 6.59375 v 1 z m 0,0"
           id="path2941" />
      </g>
    </g>
  </g>
  <g
     fill="#000000"
     fill-opacity="1"
     id="g2955"
     transform="translate(-1.579981)">
    <g
       transform="translate(50.36463,45.723562)"
       id="g2953">
      <g
         id="g2951">
        <path
           d="M 5.96875,0 V -3.796875 H 2.203125 V 0 H 1.09375 v -8.28125 h 1.109375 v 3.484375 H 5.96875 V -8.28125 H 7.078125 V 0 Z m 0,0"
           id="path2949" />
      </g>
    </g>
  </g>
  <g
     fill="#000000"
     fill-opacity="1"
     id="g2961"
     transform="translate(-1.579981)">
    <g
       transform="translate(61.289862,45.723562)"
       id="g2959">
      <g
         id="g2957" />
    </g>
  </g>
  <g
     fill="#000000"
     fill-opacity="1"
     id="g2969"
     transform="translate(-1.579981)">
    <g
       transform="translate(67.359569,45.723562)"
       id="g2967">
      <g
         id="g2965">
        <path
           d="m 6.703125,0 -0.5625,-0.671875 C 5.734375,-0.347656 5.335938,-0.125 4.953125,0 4.578125,0.113281 4.175781,0.171875 3.75,0.171875 c -0.917969,0 -1.636719,-0.2070312 -2.15625,-0.625 -0.511719,-0.425781 -0.765625,-0.992187 -0.765625,-1.703125 0,-0.351562 0.050781,-0.660156 0.15625,-0.921875 C 1.097656,-3.335938 1.273438,-3.582031 1.515625,-3.8125 1.753906,-4.039062 2.164062,-4.328125 2.75,-4.671875 c -0.273438,-0.3125 -0.5,-0.625 -0.6875,-0.9375 C 1.875,-5.929688 1.78125,-6.253906 1.78125,-6.578125 1.78125,-7.835938 2.519531,-8.46875 4,-8.46875 c 0.65625,0 1.160156,0.152344 1.515625,0.453125 0.351563,0.304687 0.53125,0.6875 0.53125,1.15625 C 6.046875,-6.410156 5.898438,-6 5.609375,-5.625 5.328125,-5.25 4.875,-4.867188 4.25,-4.484375 l 1.984375,2.34375 c 0.363281,-0.4375 0.625,-0.976563 0.78125,-1.625 l 0.9375,0.234375 C 7.691406,-2.613281 7.332031,-1.898438 6.875,-1.390625 L 8.046875,0 Z M 5,-6.84375 C 5,-7.082031 4.910156,-7.28125 4.734375,-7.4375 4.566406,-7.59375 4.3125,-7.671875 3.96875,-7.671875 c -0.375,0 -0.664062,0.09375 -0.859375,0.28125 -0.1875,0.179687 -0.28125,0.433594 -0.28125,0.765625 0,0.210938 0.082031,0.4375 0.25,0.6875 0.164063,0.242188 0.351563,0.484375 0.5625,0.734375 0.425781,-0.226563 0.757813,-0.484375 1,-0.765625 C 4.878906,-6.257812 5,-6.550781 5,-6.84375 Z m -1.640625,2.875 c -0.417969,0.273438 -0.71875,0.496094 -0.90625,0.671875 -0.1875,0.179687 -0.324219,0.351563 -0.40625,0.515625 C 1.972656,-2.613281 1.9375,-2.394531 1.9375,-2.125 c 0,0.417969 0.164062,0.757812 0.5,1.015625 0.34375,0.261719 0.785156,0.390625 1.328125,0.390625 0.46875,0 0.84375,-0.070312 1.125,-0.21875 C 5.179688,-1.09375 5.40625,-1.234375 5.5625,-1.359375 Z m 0,0"
           id="path2963" />
      </g>
    </g>
  </g>
  <g
     fill="#000000"
     fill-opacity="1"
     id="g2975"
     transform="translate(-1.579981)">
    <g
       transform="translate(78.650009,45.723562)"
       id="g2973">
      <g
         id="g2971" />
    </g>
  </g>
  <g
     fill="#000000"
     fill-opacity="1"
     id="g2983"
     transform="translate(-1.579981)">
    <g
       transform="translate(84.719712,45.723562)"
       id="g2981">
      <g
         id="g2979">
        <path
           d="M 2.203125,-7.28125 V -4.875 h 3.3125 v 1.015625 h -3.3125 V 0 H 1.09375 v -8.28125 h 5.015625 v 1 z m 0,0"
           id="path2977" />
      </g>
    </g>
  </g>
  <g
     fill="#000000"
     fill-opacity="1"
     id="g2991"
     transform="translate(-1.579981)">
    <g
       transform="translate(94.112247,45.723562)"
       id="g2989">
      <g
         id="g2987">
        <path
           d="M 4,0 H 0.609375 V -0.953125 H 1.75 V -7.34375 H 0.609375 v -0.9375 H 4 v 0.9375 H 2.859375 v 6.390625 H 4 Z m 0,0"
           id="path2985" />
      </g>
    </g>
  </g>
  <g
     fill="#000000"
     fill-opacity="1"
     id="g2999"
     transform="translate(-1.579981)">
    <g
       transform="translate(101.48115,45.723562)"
       id="g2997">
      <g
         id="g2995">
        <path
           d="M 4.09375,-7.28125 V 0 H 3 V -7.28125 H 0.25 v -1 h 6.59375 v 1 z m 0,0"
           id="path2993" />
      </g>
    </g>
  </g>
  <g
     fill="#000000"
     fill-opacity="1"
     id="g3007"
     transform="translate(-1.579981)">
    <g
       transform="translate(111.3287,45.723562)"
       id="g3005">
      <g
         id="g3003">
        <path
           d="m 5.90625,0 -3.75,-7.109375 V 0 h -1.0625 v -8.28125 h 1.625 l 3.421875,6.5 v -6.5 h 1.0625 V 0 Z m 0,0"
           id="path3001" />
      </g>
    </g>
  </g>
  <g
     fill="#000000"
     fill-opacity="1"
     id="g3015"
     transform="translate(-1.579981)">
    <g
       transform="translate(122.38564,45.723562)"
       id="g3013">
      <g
         id="g3011">
        <path
           d="m 1.09375,0 v -8.28125 h 5.0625 v 1 H 2.203125 V -4.875 h 3.375 v 1.015625 h -3.375 V -1 H 6.15625 v 1 z m 0,0"
           id="path3009" />
      </g>
    </g>
  </g>
  <g
     fill="#000000"
     fill-opacity="1"
     id="g3023"
     transform="translate(-1.579981)">
    <g
       transform="translate(132.0476,45.723562)"
       id="g3021">
      <g
         id="g3019">
        <path
           d="m 6.65625,-2.265625 c 0,0.773437 -0.257812,1.371094 -0.765625,1.796875 -0.511719,0.4296875 -1.25,0.640625 -2.21875,0.640625 -0.75,0 -1.375,-0.1328125 -1.875,-0.390625 -0.5,-0.257812 -0.90625,-0.671875 -1.21875,-1.234375 l 0.890625,-0.59375 c 0.46875,0.824219 1.191406,1.234375 2.171875,1.234375 0.582031,0 1.039063,-0.117188 1.375,-0.359375 0.34375,-0.25 0.515625,-0.585937 0.515625,-1.015625 0,-0.238281 -0.058594,-0.441406 -0.171875,-0.609375 C 5.253906,-2.960938 5.113281,-3.101562 4.9375,-3.21875 4.769531,-3.332031 4.570312,-3.425781 4.34375,-3.5 4.113281,-3.570312 3.875,-3.640625 3.625,-3.703125 3.21875,-3.796875 2.835938,-3.894531 2.484375,-4 2.140625,-4.113281 1.835938,-4.253906 1.578125,-4.421875 1.316406,-4.585938 1.113281,-4.800781 0.96875,-5.0625 0.820312,-5.320312 0.75,-5.660156 0.75,-6.078125 c 0,-0.726563 0.234375,-1.304687 0.703125,-1.734375 0.476563,-0.4375 1.1875,-0.65625 2.125,-0.65625 0.75,0 1.347656,0.140625 1.796875,0.421875 0.445312,0.28125 0.800781,0.636719 1.0625,1.0625 l -0.875,0.625 C 5.34375,-6.710938 5.078125,-6.988281 4.765625,-7.1875 4.460938,-7.382812 4.066406,-7.484375 3.578125,-7.484375 c -0.542969,0 -0.964844,0.121094 -1.265625,0.359375 -0.292969,0.242188 -0.4375,0.558594 -0.4375,0.953125 0,0.21875 0.039062,0.402344 0.125,0.546875 0.09375,0.136719 0.222656,0.257812 0.390625,0.359375 0.164063,0.09375 0.375,0.179687 0.625,0.25 0.25,0.0625 0.535156,0.136719 0.859375,0.21875 0.375,0.105469 0.726562,0.214844 1.0625,0.328125 0.34375,0.105469 0.640625,0.246094 0.890625,0.421875 0.257813,0.179687 0.460937,0.414063 0.609375,0.703125 0.144531,0.28125 0.21875,0.640625 0.21875,1.078125 z m 0,0"
           id="path3017" />
      </g>
    </g>
  </g>
  <g
     fill="#000000"
     fill-opacity="1"
     id="g3031"
     transform="translate(-1.579981)">
    <g
       transform="translate(142.1526,45.723562)"
       id="g3029">
      <g
         id="g3027">
        <path
           d="m 6.65625,-2.265625 c 0,0.773437 -0.257812,1.371094 -0.765625,1.796875 -0.511719,0.4296875 -1.25,0.640625 -2.21875,0.640625 -0.75,0 -1.375,-0.1328125 -1.875,-0.390625 -0.5,-0.257812 -0.90625,-0.671875 -1.21875,-1.234375 l 0.890625,-0.59375 c 0.46875,0.824219 1.191406,1.234375 2.171875,1.234375 0.582031,0 1.039063,-0.117188 1.375,-0.359375 0.34375,-0.25 0.515625,-0.585937 0.515625,-1.015625 0,-0.238281 -0.058594,-0.441406 -0.171875,-0.609375 C 5.253906,-2.960938 5.113281,-3.101562 4.9375,-3.21875 4.769531,-3.332031 4.570312,-3.425781 4.34375,-3.5 4.113281,-3.570312 3.875,-3.640625 3.625,-3.703125 3.21875,-3.796875 2.835938,-3.894531 2.484375,-4 2.140625,-4.113281 1.835938,-4.253906 1.578125,-4.421875 1.316406,-4.585938 1.113281,-4.800781 0.96875,-5.0625 0.820312,-5.320312 0.75,-5.660156 0.75,-6.078125 c 0,-0.726563 0.234375,-1.304687 0.703125,-1.734375 0.476563,-0.4375 1.1875,-0.65625 2.125,-0.65625 0.75,0 1.347656,0.140625 1.796875,0.421875 0.445312,0.28125 0.800781,0.636719 1.0625,1.0625 l -0.875,0.625 C 5.34375,-6.710938 5.078125,-6.988281 4.765625,-7.1875 4.460938,-7.382812 4.066406,-7.484375 3.578125,-7.484375 c -0.542969,0 -0.964844,0.121094 -1.265625,0.359375 -0.292969,0.242188 -0.4375,0.558594 -0.4375,0.953125 0,0.21875 0.039062,0.402344 0.125,0.546875 0.09375,0.136719 0.222656,0.257812 0.390625,0.359375 0.164063,0.09375 0.375,0.179687 0.625,0.25 0.25,0.0625 0.535156,0.136719 0.859375,0.21875 0.375,0.105469 0.726562,0.214844 1.0625,0.328125 0.34375,0.105469 0.640625,0.246094 0.890625,0.421875 0.257813,0.179687 0.460937,0.414063 0.609375,0.703125 0.144531,0.28125 0.21875,0.640625 0.21875,1.078125 z m 0,0"
           id="path3025" />
      </g>
    </g>
  </g>
  <g
     clip-path="url(#fefd85fe8f)"
     id="g3035"
     transform="matrix(1.0451442,0,0,1,-6.0051686,0)"
     style="fill:#6184d0;fill-opacity:1">
    <path
       fill="#adacbc"
       d="m 89.773438,0.015625 h 8.25 v 32.21875 h -8.25 V 0.015625"
       fill-opacity="1"
       fill-rule="nonzero"
       id="path3033"
       style="fill:#6184d0;fill-opacity:1" />
  </g>
  <g
     clip-path="url(#3e2ea1bc85)"
     id="g3039"
     transform="matrix(1,0,0,1.1248573,-1.579981,0)"
     style="fill:#6184d0;fill-opacity:1">
    <path
       fill="#adacbc"
       d="M 125.4375,-0.00390625 V 5.996094 H 90.199219 V -0.00390625 H 125.4375"
       fill-opacity="1"
       fill-rule="nonzero"
       id="path3037"
       style="fill:#6184d0;fill-opacity:1" />
  </g>
  <g
     clip-path="url(#19711e423a)"
     id="g3043"
     transform="matrix(1,0,0,1.1241465,-1.579981,-3.7947125)"
     style="fill:#6184d0;fill-opacity:1">
    <path
       fill="#adacbc"
       d="m 121.04297,26.066406 v 6 H 89.558594 v -6 h 31.484376"
       fill-opacity="1"
       fill-rule="nonzero"
       id="path3041"
       style="fill:#6184d0;fill-opacity:1" />
  </g>
  <g
     clip-path="url(#4ac6bd9167)"
     id="g3047"
     transform="translate(-1.579981)">
    <path
       fill="#000000"
       d="m 39.589844,32.355469 h -9.75 V 3.132812 h 9.75 v 29.222657"
       fill-opacity="1"
       fill-rule="nonzero"
       id="path3045" />
  </g>
  <g
     clip-path="url(#a732a235c8)"
     id="g3051"
     transform="translate(-1.579981)">
    <path
       fill="#000000"
       d="m 84.230469,32.355469 h -9.75 V 3.132812 h 9.75 v 29.222657"
       fill-opacity="1"
       fill-rule="nonzero"
       id="path3049" />
  </g>
  <g
     clip-path="url(#52e90871a8)"
     id="g3055"
     transform="translate(-1.579981)">
    <path
       fill="#000000"
       d="m 84.230469,74.984375 h -9.75 v -24.71875 h 9.75 v 24.71875"
       fill-opacity="1"
       fill-rule="nonzero"
       id="path3053" />
  </g>
  <g
     clip-path="url(#de379dee4a)"
     id="g3059"
     transform="translate(-1.579981)">
    <path
       fill="#000000"
       d="m 39.589844,74.984375 h -9.75 v -24.71875 h 9.75 v 24.71875"
       fill-opacity="1"
       fill-rule="nonzero"
       id="path3057" />
  </g>
</svg>
