<svg xmlns="http://www.w3.org/2000/svg" xmlns:xlink="http://www.w3.org/1999/xlink" width="100" zoomAndPan="magnify" viewBox="0 0 75 56.249996" height="75" preserveAspectRatio="xMidYMid meet" version="1.0"><defs><g/><clipPath id="cacebc5a65"><path d="M 46.933594 36.144531 L 52.855469 36.144531 L 52.855469 45.765625 L 46.933594 45.765625 Z M 46.933594 36.144531 " clip-rule="nonzero"/></clipPath><clipPath id="0780e8729a"><path d="M 0.492188 28 L 4 28 L 4 33 L 0.492188 33 Z M 0.492188 28 " clip-rule="nonzero"/></clipPath><clipPath id="f0c5f3a534"><path d="M 46.933594 0 L 52.855469 0 L 52.855469 25.164062 L 46.933594 25.164062 Z M 46.933594 0 " clip-rule="nonzero"/></clipPath><clipPath id="df5df524d2"><path d="M 47.117188 0 L 74.5 0 L 74.5 5.183594 L 47.117188 5.183594 Z M 47.117188 0 " clip-rule="nonzero"/></clipPath><clipPath id="eb63f3c8a9"><path d="M 46.828125 20.144531 L 71.25 20.144531 L 71.25 25.324219 L 46.828125 25.324219 Z M 46.828125 20.144531 " clip-rule="nonzero"/></clipPath><clipPath id="85787f52bd"><path d="M 0.75 2.066406 L 8.148438 2.066406 L 8.148438 25.011719 L 0.75 25.011719 Z M 0.75 2.066406 " clip-rule="nonzero"/></clipPath><clipPath id="53f3fcc3a2"><path d="M 35.25 2.066406 L 42.652344 2.066406 L 42.652344 25.011719 L 35.25 25.011719 Z M 35.25 2.066406 " clip-rule="nonzero"/></clipPath><clipPath id="a538aa7cec"><path d="M 35.25 36.261719 L 42.652344 36.261719 L 42.652344 55.503906 L 35.25 55.503906 Z M 35.25 36.261719 " clip-rule="nonzero"/></clipPath><clipPath id="a4c169e7fb"><path d="M 0.75 36.261719 L 8.148438 36.261719 L 8.148438 55.503906 L 0.75 55.503906 Z M 0.75 36.261719 " clip-rule="nonzero"/></clipPath></defs><g clip-path="url(#cacebc5a65)"><path fill="#adacbc" d="M 46.933594 36.144531 L 52.855469 36.144531 L 52.855469 45.765625 L 46.933594 45.765625 L 46.933594 36.144531 " fill-opacity="1" fill-rule="nonzero"/></g><g clip-path="url(#0780e8729a)"><g fill="#000000" fill-opacity="1"><g transform="translate(-0.041312, 32.744195)"><g><path d="M 2.875 0 L 2.875 -1.828125 L 1.0625 -1.828125 L 1.0625 0 L 0.53125 0 L 0.53125 -3.984375 L 1.0625 -3.984375 L 1.0625 -2.296875 L 2.875 -2.296875 L 2.875 -3.984375 L 3.40625 -3.984375 L 3.40625 0 Z M 2.875 0 "/></g></g></g></g><g fill="#000000" fill-opacity="1"><g transform="translate(5.213736, 32.744195)"><g><path d="M 0.53125 0 L 0.53125 -3.984375 L 2.953125 -3.984375 L 2.953125 -3.5 L 1.0625 -3.5 L 1.0625 -2.34375 L 2.6875 -2.34375 L 2.6875 -1.859375 L 1.0625 -1.859375 L 1.0625 -0.484375 L 2.953125 -0.484375 L 2.953125 0 Z M 0.53125 0 "/></g></g></g><g fill="#000000" fill-opacity="1"><g transform="translate(9.861148, 32.744195)"><g><path d="M 0.140625 0 L 1.5 -3.984375 L 2.203125 -3.984375 L 3.5625 0 L 3 0 L 2.65625 -1.03125 L 1.03125 -1.03125 L 0.6875 0 Z M 1.1875 -1.515625 L 2.484375 -1.515625 L 1.84375 -3.453125 Z M 1.1875 -1.515625 "/></g></g></g><g fill="#000000" fill-opacity="1"><g transform="translate(14.897332, 32.744195)"><g><path d="M 0.53125 0 L 0.53125 -3.984375 L 1.0625 -3.984375 L 1.0625 -0.484375 L 2.859375 -0.484375 L 2.859375 0 Z M 0.53125 0 "/></g></g></g><g fill="#000000" fill-opacity="1"><g transform="translate(19.213568, 32.744195)"><g><path d="M 1.96875 -3.5 L 1.96875 0 L 1.4375 0 L 1.4375 -3.5 L 0.125 -3.5 L 0.125 -3.984375 L 3.28125 -3.984375 L 3.28125 -3.5 Z M 1.96875 -3.5 "/></g></g></g><g fill="#000000" fill-opacity="1"><g transform="translate(23.950254, 32.744195)"><g><path d="M 2.875 0 L 2.875 -1.828125 L 1.0625 -1.828125 L 1.0625 0 L 0.53125 0 L 0.53125 -3.984375 L 1.0625 -3.984375 L 1.0625 -2.296875 L 2.875 -2.296875 L 2.875 -3.984375 L 3.40625 -3.984375 L 3.40625 0 Z M 2.875 0 "/></g></g></g><g fill="#000000" fill-opacity="1"><g transform="translate(29.205303, 32.744195)"><g/></g></g><g fill="#000000" fill-opacity="1"><g transform="translate(32.124838, 32.744195)"><g><path d="M 3.21875 0 L 2.953125 -0.3125 C 2.753906 -0.164062 2.5625 -0.0625 2.375 0 C 2.195312 0.0507812 2.003906 0.078125 1.796875 0.078125 C 1.359375 0.078125 1.015625 -0.0195312 0.765625 -0.21875 C 0.515625 -0.425781 0.390625 -0.695312 0.390625 -1.03125 C 0.390625 -1.207031 0.414062 -1.359375 0.46875 -1.484375 C 0.53125 -1.609375 0.617188 -1.722656 0.734375 -1.828125 C 0.847656 -1.941406 1.039062 -2.082031 1.3125 -2.25 C 1.1875 -2.394531 1.078125 -2.539062 0.984375 -2.6875 C 0.898438 -2.84375 0.859375 -3 0.859375 -3.15625 C 0.859375 -3.757812 1.210938 -4.0625 1.921875 -4.0625 C 2.234375 -4.0625 2.472656 -3.988281 2.640625 -3.84375 C 2.816406 -3.695312 2.90625 -3.515625 2.90625 -3.296875 C 2.90625 -3.078125 2.832031 -2.878906 2.6875 -2.703125 C 2.550781 -2.523438 2.335938 -2.34375 2.046875 -2.15625 L 2.984375 -1.03125 C 3.160156 -1.238281 3.289062 -1.5 3.375 -1.8125 L 3.8125 -1.703125 C 3.695312 -1.253906 3.523438 -0.910156 3.296875 -0.671875 L 3.859375 0 Z M 2.40625 -3.28125 C 2.40625 -3.394531 2.363281 -3.488281 2.28125 -3.5625 C 2.195312 -3.644531 2.070312 -3.6875 1.90625 -3.6875 C 1.726562 -3.6875 1.59375 -3.640625 1.5 -3.546875 C 1.40625 -3.460938 1.359375 -3.34375 1.359375 -3.1875 C 1.359375 -3.082031 1.394531 -2.972656 1.46875 -2.859375 C 1.550781 -2.742188 1.644531 -2.625 1.75 -2.5 C 1.945312 -2.613281 2.101562 -2.738281 2.21875 -2.875 C 2.34375 -3.007812 2.40625 -3.144531 2.40625 -3.28125 Z M 1.609375 -1.90625 C 1.410156 -1.769531 1.265625 -1.660156 1.171875 -1.578125 C 1.085938 -1.492188 1.023438 -1.410156 0.984375 -1.328125 C 0.953125 -1.253906 0.9375 -1.15625 0.9375 -1.03125 C 0.9375 -0.820312 1.015625 -0.65625 1.171875 -0.53125 C 1.335938 -0.40625 1.550781 -0.34375 1.8125 -0.34375 C 2.03125 -0.34375 2.207031 -0.378906 2.34375 -0.453125 C 2.488281 -0.523438 2.597656 -0.59375 2.671875 -0.65625 Z M 1.609375 -1.90625 "/></g></g></g><g fill="#000000" fill-opacity="1"><g transform="translate(37.555553, 32.744195)"><g/></g></g><g fill="#000000" fill-opacity="1"><g transform="translate(40.475087, 32.744195)"><g><path d="M 1.0625 -3.5 L 1.0625 -2.34375 L 2.65625 -2.34375 L 2.65625 -1.859375 L 1.0625 -1.859375 L 1.0625 0 L 0.53125 0 L 0.53125 -3.984375 L 2.9375 -3.984375 L 2.9375 -3.5 Z M 1.0625 -3.5 "/></g></g></g><g fill="#000000" fill-opacity="1"><g transform="translate(44.992906, 32.744195)"><g><path d="M 1.921875 0 L 0.296875 0 L 0.296875 -0.453125 L 0.84375 -0.453125 L 0.84375 -3.53125 L 0.296875 -3.53125 L 0.296875 -3.984375 L 1.921875 -3.984375 L 1.921875 -3.53125 L 1.375 -3.53125 L 1.375 -0.453125 L 1.921875 -0.453125 Z M 1.921875 0 "/></g></g></g><g fill="#000000" fill-opacity="1"><g transform="translate(48.537355, 32.744195)"><g><path d="M 1.96875 -3.5 L 1.96875 0 L 1.4375 0 L 1.4375 -3.5 L 0.125 -3.5 L 0.125 -3.984375 L 3.28125 -3.984375 L 3.28125 -3.5 Z M 1.96875 -3.5 "/></g></g></g><g fill="#000000" fill-opacity="1"><g transform="translate(53.274039, 32.744195)"><g><path d="M 2.828125 0 L 1.03125 -3.421875 L 1.03125 0 L 0.53125 0 L 0.53125 -3.984375 L 1.296875 -3.984375 L 2.953125 -0.859375 L 2.953125 -3.984375 L 3.46875 -3.984375 L 3.46875 0 Z M 2.828125 0 "/></g></g></g><g fill="#000000" fill-opacity="1"><g transform="translate(58.592442, 32.744195)"><g><path d="M 0.53125 0 L 0.53125 -3.984375 L 2.953125 -3.984375 L 2.953125 -3.5 L 1.0625 -3.5 L 1.0625 -2.34375 L 2.6875 -2.34375 L 2.6875 -1.859375 L 1.0625 -1.859375 L 1.0625 -0.484375 L 2.953125 -0.484375 L 2.953125 0 Z M 0.53125 0 "/></g></g></g><g fill="#000000" fill-opacity="1"><g transform="translate(63.239856, 32.744195)"><g><path d="M 3.203125 -1.09375 C 3.203125 -0.71875 3.078125 -0.425781 2.828125 -0.21875 C 2.585938 -0.0195312 2.234375 0.078125 1.765625 0.078125 C 1.398438 0.078125 1.097656 0.015625 0.859375 -0.109375 C 0.617188 -0.234375 0.425781 -0.429688 0.28125 -0.703125 L 0.703125 -0.984375 C 0.929688 -0.585938 1.28125 -0.390625 1.75 -0.390625 C 2.03125 -0.390625 2.25 -0.445312 2.40625 -0.5625 C 2.570312 -0.675781 2.65625 -0.835938 2.65625 -1.046875 C 2.65625 -1.160156 2.628906 -1.257812 2.578125 -1.34375 C 2.523438 -1.425781 2.457031 -1.492188 2.375 -1.546875 C 2.289062 -1.597656 2.191406 -1.640625 2.078125 -1.671875 C 1.972656 -1.710938 1.863281 -1.75 1.75 -1.78125 C 1.550781 -1.820312 1.363281 -1.867188 1.1875 -1.921875 C 1.019531 -1.972656 0.875 -2.039062 0.75 -2.125 C 0.632812 -2.207031 0.539062 -2.3125 0.46875 -2.4375 C 0.394531 -2.5625 0.359375 -2.722656 0.359375 -2.921875 C 0.359375 -3.273438 0.472656 -3.550781 0.703125 -3.75 C 0.929688 -3.957031 1.269531 -4.0625 1.71875 -4.0625 C 2.082031 -4.0625 2.367188 -3.992188 2.578125 -3.859375 C 2.796875 -3.734375 2.96875 -3.5625 3.09375 -3.34375 L 2.671875 -3.046875 C 2.566406 -3.222656 2.4375 -3.359375 2.28125 -3.453125 C 2.132812 -3.546875 1.945312 -3.59375 1.71875 -3.59375 C 1.457031 -3.59375 1.253906 -3.535156 1.109375 -3.421875 C 0.972656 -3.304688 0.90625 -3.15625 0.90625 -2.96875 C 0.90625 -2.863281 0.925781 -2.773438 0.96875 -2.703125 C 1.007812 -2.640625 1.066406 -2.582031 1.140625 -2.53125 C 1.222656 -2.488281 1.320312 -2.445312 1.4375 -2.40625 C 1.5625 -2.375 1.703125 -2.335938 1.859375 -2.296875 C 2.035156 -2.253906 2.207031 -2.207031 2.375 -2.15625 C 2.539062 -2.101562 2.679688 -2.03125 2.796875 -1.9375 C 2.921875 -1.851562 3.019531 -1.742188 3.09375 -1.609375 C 3.164062 -1.472656 3.203125 -1.300781 3.203125 -1.09375 Z M 3.203125 -1.09375 "/></g></g></g><g fill="#000000" fill-opacity="1"><g transform="translate(68.100371, 32.744195)"><g><path d="M 3.203125 -1.09375 C 3.203125 -0.71875 3.078125 -0.425781 2.828125 -0.21875 C 2.585938 -0.0195312 2.234375 0.078125 1.765625 0.078125 C 1.398438 0.078125 1.097656 0.015625 0.859375 -0.109375 C 0.617188 -0.234375 0.425781 -0.429688 0.28125 -0.703125 L 0.703125 -0.984375 C 0.929688 -0.585938 1.28125 -0.390625 1.75 -0.390625 C 2.03125 -0.390625 2.25 -0.445312 2.40625 -0.5625 C 2.570312 -0.675781 2.65625 -0.835938 2.65625 -1.046875 C 2.65625 -1.160156 2.628906 -1.257812 2.578125 -1.34375 C 2.523438 -1.425781 2.457031 -1.492188 2.375 -1.546875 C 2.289062 -1.597656 2.191406 -1.640625 2.078125 -1.671875 C 1.972656 -1.710938 1.863281 -1.75 1.75 -1.78125 C 1.550781 -1.820312 1.363281 -1.867188 1.1875 -1.921875 C 1.019531 -1.972656 0.875 -2.039062 0.75 -2.125 C 0.632812 -2.207031 0.539062 -2.3125 0.46875 -2.4375 C 0.394531 -2.5625 0.359375 -2.722656 0.359375 -2.921875 C 0.359375 -3.273438 0.472656 -3.550781 0.703125 -3.75 C 0.929688 -3.957031 1.269531 -4.0625 1.71875 -4.0625 C 2.082031 -4.0625 2.367188 -3.992188 2.578125 -3.859375 C 2.796875 -3.734375 2.96875 -3.5625 3.09375 -3.34375 L 2.671875 -3.046875 C 2.566406 -3.222656 2.4375 -3.359375 2.28125 -3.453125 C 2.132812 -3.546875 1.945312 -3.59375 1.71875 -3.59375 C 1.457031 -3.59375 1.253906 -3.535156 1.109375 -3.421875 C 0.972656 -3.304688 0.90625 -3.15625 0.90625 -2.96875 C 0.90625 -2.863281 0.925781 -2.773438 0.96875 -2.703125 C 1.007812 -2.640625 1.066406 -2.582031 1.140625 -2.53125 C 1.222656 -2.488281 1.320312 -2.445312 1.4375 -2.40625 C 1.5625 -2.375 1.703125 -2.335938 1.859375 -2.296875 C 2.035156 -2.253906 2.207031 -2.207031 2.375 -2.15625 C 2.539062 -2.101562 2.679688 -2.03125 2.796875 -1.9375 C 2.921875 -1.851562 3.019531 -1.742188 3.09375 -1.609375 C 3.164062 -1.472656 3.203125 -1.300781 3.203125 -1.09375 Z M 3.203125 -1.09375 "/></g></g></g><g clip-path="url(#f0c5f3a534)"><path fill="#adacbc" d="M 46.933594 0.00390625 L 52.855469 0.00390625 L 52.855469 25.160156 L 46.933594 25.160156 L 46.933594 0.00390625 " fill-opacity="1" fill-rule="nonzero"/></g><g clip-path="url(#df5df524d2)"><path fill="#adacbc" d="M 74.484375 0 L 74.484375 5.183594 L 47.132812 5.183594 L 47.132812 0 L 74.484375 0 " fill-opacity="1" fill-rule="nonzero"/></g><g clip-path="url(#eb63f3c8a9)"><path fill="#adacbc" d="M 71.238281 20.144531 L 71.238281 25.324219 L 46.839844 25.324219 L 46.839844 20.144531 L 71.238281 20.144531 " fill-opacity="1" fill-rule="nonzero"/></g><g clip-path="url(#85787f52bd)"><path fill="#000000" d="M 8.148438 25.007812 L 0.75 25.007812 L 0.75 2.070312 L 8.148438 2.070312 L 8.148438 25.007812 " fill-opacity="1" fill-rule="nonzero"/></g><g clip-path="url(#53f3fcc3a2)"><path fill="#000000" d="M 42.652344 25.007812 L 35.25 25.007812 L 35.25 2.070312 L 42.652344 2.070312 L 42.652344 25.007812 " fill-opacity="1" fill-rule="nonzero"/></g><g clip-path="url(#a538aa7cec)"><path fill="#000000" d="M 42.652344 55.5 L 35.25 55.5 L 35.25 36.265625 L 42.652344 36.265625 L 42.652344 55.5 " fill-opacity="1" fill-rule="nonzero"/></g><g clip-path="url(#a4c169e7fb)"><path fill="#000000" d="M 8.148438 55.5 L 0.75 55.5 L 0.75 36.265625 L 8.148438 36.265625 L 8.148438 55.5 " fill-opacity="1" fill-rule="nonzero"/></g></svg>