<svg xmlns="http://www.w3.org/2000/svg" xmlns:xlink="http://www.w3.org/1999/xlink" width="200" zoomAndPan="magnify" viewBox="0 0 150 149.999998" height="200" preserveAspectRatio="xMidYMid meet" version="1.0"><defs><clipPath id="33d46d3cbf"><path d="M 0 7.5 L 98 7.5 L 98 142.5 L 0 142.5 Z M 0 7.5 " clip-rule="nonzero"/></clipPath></defs><g clip-path="url(#33d46d3cbf)"><path fill="#5271ff" d="M 75 142.5 L 22.5 142.5 C 21.761719 142.5 21.027344 142.460938 20.296875 142.390625 C 19.5625 142.316406 18.835938 142.207031 18.113281 142.0625 C 17.390625 141.917969 16.675781 141.742188 15.972656 141.527344 C 15.265625 141.3125 14.574219 141.0625 13.894531 140.78125 C 13.210938 140.5 12.546875 140.183594 11.898438 139.835938 C 11.25 139.488281 10.617188 139.109375 10.003906 138.699219 C 9.390625 138.292969 8.800781 137.851562 8.230469 137.386719 C 7.664062 136.917969 7.117188 136.425781 6.597656 135.902344 C 6.074219 135.382812 5.582031 134.835938 5.113281 134.269531 C 4.648438 133.699219 4.207031 133.109375 3.800781 132.496094 C 3.390625 131.882812 3.011719 131.25 2.664062 130.601562 C 2.316406 129.953125 2 129.289062 1.71875 128.605469 C 1.4375 127.925781 1.1875 127.234375 0.972656 126.527344 C 0.757812 125.824219 0.582031 125.109375 0.4375 124.386719 C 0.292969 123.664062 0.183594 122.9375 0.109375 122.203125 C 0.0390625 121.472656 0 120.738281 0 120 L 0 30 C 0 29.261719 0.0390625 28.527344 0.109375 27.796875 C 0.183594 27.0625 0.292969 26.335938 0.4375 25.613281 C 0.582031 24.890625 0.757812 24.175781 0.972656 23.472656 C 1.1875 22.765625 1.4375 22.074219 1.71875 21.394531 C 2 20.710938 2.316406 20.046875 2.664062 19.398438 C 3.011719 18.75 3.390625 18.117188 3.800781 17.503906 C 4.207031 16.890625 4.648438 16.300781 5.113281 15.730469 C 5.582031 15.164062 6.074219 14.617188 6.597656 14.097656 C 7.117188 13.574219 7.664062 13.082031 8.230469 12.613281 C 8.800781 12.148438 9.390625 11.707031 10.003906 11.300781 C 10.617188 10.890625 11.25 10.511719 11.898438 10.164062 C 12.546875 9.816406 13.210938 9.5 13.894531 9.21875 C 14.574219 8.9375 15.265625 8.6875 15.972656 8.472656 C 16.675781 8.257812 17.390625 8.082031 18.113281 7.9375 C 18.835938 7.792969 19.5625 7.683594 20.296875 7.609375 C 21.027344 7.539062 21.761719 7.5 22.5 7.5 L 75 7.5 C 75.738281 7.5 76.472656 7.539062 77.203125 7.609375 C 77.9375 7.683594 78.664062 7.792969 79.386719 7.9375 C 80.109375 8.082031 80.824219 8.257812 81.527344 8.472656 C 82.234375 8.6875 82.925781 8.9375 83.605469 9.21875 C 84.289062 9.5 84.953125 9.816406 85.601562 10.164062 C 86.25 10.511719 86.882812 10.890625 87.496094 11.300781 C 88.109375 11.707031 88.699219 12.148438 89.269531 12.613281 C 89.835938 13.082031 90.382812 13.574219 90.902344 14.097656 C 91.425781 14.617188 91.917969 15.164062 92.386719 15.730469 C 92.851562 16.300781 93.292969 16.890625 93.699219 17.503906 C 94.109375 18.117188 94.488281 18.75 94.835938 19.398438 C 95.183594 20.046875 95.5 20.710938 95.78125 21.394531 C 96.0625 22.074219 96.3125 22.765625 96.527344 23.472656 C 96.742188 24.175781 96.917969 24.890625 97.0625 25.613281 C 97.207031 26.335938 97.316406 27.0625 97.390625 27.796875 C 97.460938 28.527344 97.5 29.261719 97.5 30 L 97.5 45 C 97.5 45.492188 97.453125 45.980469 97.355469 46.464844 C 97.261719 46.945312 97.117188 47.414062 96.929688 47.871094 C 96.742188 48.324219 96.507812 48.757812 96.234375 49.167969 C 95.960938 49.578125 95.652344 49.953125 95.304688 50.304688 C 94.953125 50.652344 94.578125 50.960938 94.167969 51.234375 C 93.757812 51.507812 93.324219 51.742188 92.871094 51.929688 C 92.414062 52.117188 91.945312 52.261719 91.464844 52.355469 C 90.980469 52.453125 90.492188 52.5 90 52.5 C 89.507812 52.5 89.019531 52.453125 88.535156 52.355469 C 88.054688 52.261719 87.585938 52.117188 87.128906 51.929688 C 86.675781 51.742188 86.242188 51.507812 85.832031 51.234375 C 85.421875 50.960938 85.042969 50.652344 84.695312 50.304688 C 84.347656 49.953125 84.039062 49.578125 83.765625 49.167969 C 83.492188 48.757812 83.257812 48.324219 83.070312 47.871094 C 82.882812 47.414062 82.738281 46.945312 82.644531 46.464844 C 82.546875 45.980469 82.5 45.492188 82.5 45 L 82.5 30 C 82.5 29.507812 82.453125 29.019531 82.355469 28.535156 C 82.261719 28.054688 82.117188 27.585938 81.929688 27.128906 C 81.742188 26.675781 81.507812 26.242188 81.234375 25.832031 C 80.960938 25.421875 80.652344 25.042969 80.304688 24.695312 C 79.953125 24.347656 79.578125 24.039062 79.167969 23.765625 C 78.757812 23.492188 78.324219 23.257812 77.871094 23.070312 C 77.414062 22.882812 76.945312 22.738281 76.464844 22.644531 C 75.980469 22.546875 75.492188 22.5 75 22.5 L 22.5 22.5 C 22.007812 22.5 21.519531 22.546875 21.035156 22.644531 C 20.554688 22.738281 20.085938 22.882812 19.628906 23.070312 C 19.175781 23.257812 18.742188 23.492188 18.332031 23.765625 C 17.921875 24.039062 17.542969 24.347656 17.195312 24.695312 C 16.847656 25.042969 16.539062 25.421875 16.265625 25.832031 C 15.992188 26.242188 15.757812 26.675781 15.570312 27.128906 C 15.382812 27.585938 15.238281 28.054688 15.144531 28.535156 C 15.046875 29.019531 15 29.507812 15 30 L 15 120 C 15 120.492188 15.046875 120.980469 15.144531 121.464844 C 15.238281 121.945312 15.382812 122.414062 15.570312 122.871094 C 15.757812 123.324219 15.992188 123.757812 16.265625 124.167969 C 16.539062 124.578125 16.847656 124.953125 17.195312 125.304688 C 17.542969 125.652344 17.921875 125.960938 18.332031 126.234375 C 18.742188 126.507812 19.175781 126.742188 19.628906 126.929688 C 20.085938 127.117188 20.554688 127.261719 21.035156 127.355469 C 21.519531 127.453125 22.007812 127.5 22.5 127.5 L 75 127.5 C 75.492188 127.5 75.980469 127.453125 76.464844 127.355469 C 76.945312 127.261719 77.414062 127.117188 77.871094 126.929688 C 78.324219 126.742188 78.757812 126.507812 79.167969 126.234375 C 79.578125 125.960938 79.953125 125.652344 80.304688 125.304688 C 80.652344 124.953125 80.960938 124.578125 81.234375 124.167969 C 81.507812 123.757812 81.742188 123.324219 81.929688 122.871094 C 82.117188 122.414062 82.261719 121.945312 82.355469 121.464844 C 82.453125 120.980469 82.5 120.492188 82.5 120 L 82.5 105 C 82.5 104.507812 82.546875 104.019531 82.644531 103.535156 C 82.738281 103.054688 82.882812 102.585938 83.070312 102.128906 C 83.257812 101.675781 83.492188 101.242188 83.765625 100.832031 C 84.039062 100.421875 84.347656 100.042969 84.695312 99.695312 C 85.042969 99.347656 85.421875 99.039062 85.832031 98.765625 C 86.242188 98.492188 86.675781 98.257812 87.128906 98.070312 C 87.585938 97.882812 88.054688 97.738281 88.535156 97.644531 C 89.019531 97.546875 89.507812 97.5 90 97.5 C 90.492188 97.5 90.980469 97.546875 91.464844 97.644531 C 91.945312 97.738281 92.414062 97.882812 92.871094 98.070312 C 93.324219 98.257812 93.757812 98.492188 94.167969 98.765625 C 94.578125 99.039062 94.953125 99.347656 95.304688 99.695312 C 95.652344 100.042969 95.960938 100.421875 96.234375 100.832031 C 96.507812 101.242188 96.742188 101.675781 96.929688 102.128906 C 97.117188 102.585938 97.261719 103.054688 97.355469 103.535156 C 97.453125 104.019531 97.5 104.507812 97.5 105 L 97.5 120 C 97.5 120.738281 97.460938 121.472656 97.390625 122.203125 C 97.316406 122.9375 97.207031 123.664062 97.0625 124.386719 C 96.917969 125.109375 96.742188 125.824219 96.527344 126.527344 C 96.3125 127.234375 96.0625 127.925781 95.78125 128.605469 C 95.5 129.289062 95.183594 129.953125 94.835938 130.601562 C 94.488281 131.25 94.109375 131.882812 93.699219 132.496094 C 93.292969 133.109375 92.851562 133.699219 92.386719 134.269531 C 91.917969 134.835938 91.425781 135.382812 90.902344 135.902344 C 90.382812 136.425781 89.835938 136.917969 89.269531 137.386719 C 88.699219 137.851562 88.109375 138.292969 87.496094 138.699219 C 86.882812 139.109375 86.25 139.488281 85.601562 139.835938 C 84.953125 140.183594 84.289062 140.5 83.605469 140.78125 C 82.925781 141.0625 82.234375 141.3125 81.527344 141.527344 C 80.824219 141.742188 80.109375 141.917969 79.386719 142.0625 C 78.664062 142.207031 77.9375 142.316406 77.203125 142.390625 C 76.472656 142.460938 75.738281 142.5 75 142.5 Z M 75 142.5 " fill-opacity="1" fill-rule="nonzero"/></g><path fill="#5271ff" d="M 120 105 C 119.257812 105 118.53125 104.890625 117.824219 104.675781 C 117.113281 104.460938 116.449219 104.148438 115.835938 103.734375 C 115.21875 103.324219 114.675781 102.832031 114.203125 102.257812 C 113.734375 101.683594 113.355469 101.054688 113.074219 100.371094 C 112.789062 99.683594 112.609375 98.972656 112.539062 98.234375 C 112.464844 97.496094 112.5 96.765625 112.644531 96.039062 C 112.789062 95.308594 113.039062 94.621094 113.386719 93.964844 C 113.738281 93.3125 114.171875 92.722656 114.699219 92.199219 L 124.394531 82.5 L 37.5 82.5 C 37.007812 82.5 36.519531 82.453125 36.035156 82.355469 C 35.554688 82.261719 35.085938 82.117188 34.628906 81.929688 C 34.175781 81.742188 33.742188 81.507812 33.332031 81.234375 C 32.921875 80.960938 32.542969 80.652344 32.195312 80.304688 C 31.847656 79.953125 31.539062 79.578125 31.265625 79.167969 C 30.992188 78.757812 30.757812 78.324219 30.570312 77.871094 C 30.382812 77.414062 30.238281 76.945312 30.144531 76.464844 C 30.046875 75.980469 30 75.492188 30 75 C 30 74.507812 30.046875 74.019531 30.144531 73.535156 C 30.238281 73.054688 30.382812 72.585938 30.570312 72.128906 C 30.757812 71.675781 30.992188 71.242188 31.265625 70.832031 C 31.539062 70.421875 31.847656 70.042969 32.195312 69.695312 C 32.542969 69.347656 32.921875 69.039062 33.332031 68.765625 C 33.742188 68.492188 34.175781 68.257812 34.628906 68.070312 C 35.085938 67.882812 35.554688 67.738281 36.035156 67.644531 C 36.519531 67.546875 37.007812 67.5 37.5 67.5 L 124.394531 67.5 L 114.699219 57.800781 C 114.359375 57.453125 114.058594 57.074219 113.792969 56.664062 C 113.527344 56.253906 113.308594 55.824219 113.125 55.371094 C 112.945312 54.917969 112.8125 54.453125 112.722656 53.976562 C 112.632812 53.496094 112.589844 53.015625 112.59375 52.527344 C 112.597656 52.039062 112.648438 51.558594 112.746094 51.082031 C 112.84375 50.605469 112.988281 50.140625 113.175781 49.691406 C 113.363281 49.242188 113.59375 48.816406 113.863281 48.410156 C 114.136719 48.007812 114.445312 47.632812 114.789062 47.289062 C 115.132812 46.945312 115.507812 46.636719 115.910156 46.363281 C 116.316406 46.09375 116.742188 45.863281 117.191406 45.675781 C 117.640625 45.488281 118.105469 45.34375 118.582031 45.246094 C 119.058594 45.148438 119.539062 45.097656 120.027344 45.09375 C 120.515625 45.089844 120.996094 45.132812 121.476562 45.222656 C 121.953125 45.3125 122.417969 45.445312 122.871094 45.625 C 123.324219 45.808594 123.753906 46.027344 124.164062 46.292969 C 124.574219 46.558594 124.953125 46.859375 125.300781 47.199219 L 147.800781 69.699219 C 148.445312 70.332031 148.957031 71.0625 149.335938 71.886719 C 149.714844 72.707031 149.933594 73.570312 150 74.472656 C 150.039062 74.972656 150.023438 75.472656 149.953125 75.972656 C 149.765625 77.445312 149.183594 78.75 148.214844 79.878906 C 148.074219 80.039062 147.929688 80.195312 147.78125 80.34375 L 125.320312 102.796875 C 124.617188 103.507812 123.804688 104.050781 122.882812 104.433594 C 121.957031 104.8125 121 105.003906 120 105 Z M 120 105 " fill-opacity="1" fill-rule="nonzero"/></svg>