<svg xmlns="http://www.w3.org/2000/svg" xmlns:xlink="http://www.w3.org/1999/xlink" width="500" zoomAndPan="magnify" viewBox="0 0 375 374.999991" height="500" preserveAspectRatio="xMidYMid meet" version="1.0"><path fill="#5271ff" d="M 56.25 0 C 25.183594 0 0 25.183594 0 56.25 L 0 318.75 C 0 349.816406 25.183594 375 56.25 375 L 318.75 375 C 349.816406 375 375 349.816406 375 318.75 L 375 56.25 C 375 25.183594 349.816406 0 318.75 0 Z M 56.25 0 " fill-opacity="1" fill-rule="nonzero"/><path fill="#ffffff" d="M 187.5 60.9375 C 151.257812 60.9375 121.875 90.320312 121.875 126.5625 C 121.875 162.804688 151.257812 192.1875 187.5 192.1875 C 223.742188 192.1875 253.125 162.804688 253.125 126.5625 C 253.125 90.320312 223.742188 60.9375 187.5 60.9375 Z M 187.5 60.9375 " fill-opacity="1" fill-rule="nonzero"/><path fill="#ffffff" d="M 187.5 183.984375 C 125.367188 183.984375 75 234.351562 75 296.484375 C 75 306.839844 83.394531 315.234375 93.75 315.234375 L 281.25 315.234375 C 291.605469 315.234375 300 306.839844 300 296.484375 C 300 234.351562 249.632812 183.984375 187.5 183.984375 Z M 187.5 183.984375 " fill-opacity="1" fill-rule="nonzero"/></svg>